<svg xmlns="http://www.w3.org/2000/svg" xmlns:xlink="http://www.w3.org/1999/xlink" width="523" height="295" viewBox="0 0 523 295">
  <defs>
    <filter id="Rectángulo_34112" x="0" y="0" width="523" height="295" filterUnits="userSpaceOnUse">
      <feOffset dy="3" input="SourceAlpha"/>
      <feGaussianBlur stdDeviation="3" result="blur"/>
      <feFlood flood-opacity="0.161"/>
      <feComposite operator="in" in2="blur"/>
      <feComposite in="SourceGraphic"/>
    </filter>
  </defs>
  <g id="Grupo_84778" data-name="Grupo 84778" transform="translate(-801 -2779)">
    <g transform="matrix(1, 0, 0, 1, 801, 2779)" filter="url(#Rectángulo_34112)">
      <rect id="Rectángulo_34112-2" data-name="Rectángulo 34112" width="505" height="277" rx="20" transform="translate(9 6)" fill="#fff"/>
    </g>
    <g id="Grupo_82641" data-name="Grupo 82641" transform="translate(548.635 2636.837)">
      <path id="Trazado_119998" data-name="Trazado 119998" d="M686.1,475.273c-23.781,0-345.289-.694-345.289-.732-.133-.312-40.814-50.173,10.412-102.3,25.382-25.83-23.309-59.294,0-88.026,39.927-49.217,79.433-21.5,112.344-35.341a52.886,52.886,0,0,0,17.491-12.411,65.033,65.033,0,0,1,10.749-8.924q.887-.591,1.793-1.154a71.588,71.588,0,0,1,7.172-3.892q2.486-1.172,5.065-2.168h0a82.856,82.856,0,0,1,8.395-2.733,94.96,94.96,0,0,1,12.52-2.456q2.793-.363,5.63-.574c36.774-2.764,78.158,12.785,99.515,35.513,4.3,4.577,23.852,28.257,8.439,60.806-9.731,20.55,31.035,40.177,45.521,63.644C722.689,434.183,686.432,474.5,686.1,475.273Z" transform="translate(0 -49.787)" fill="#daf1f5"/>
      <g id="Grupo_82625" data-name="Grupo 82625" transform="translate(512.199 223.04)" opacity="0.8">
        <path id="Trazado_119999" data-name="Trazado 119999" d="M1580.313,648.289a47.071,47.071,0,0,1-3.587,7.655,46.76,46.76,0,0,1-86.994-20.446,45.971,45.971,0,0,1,.059-7.131,47.081,47.081,0,0,1,7.05-21c.019-.033.04-.062.059-.095a46.871,46.871,0,0,1,26.649-19.9c1.141-.327,2.3-.611,3.465-.849a46.492,46.492,0,0,1,25.337,1.869q1.676.609,3.275,1.332a46.433,46.433,0,0,1,18.948,15.643h0a46.922,46.922,0,0,1,7.477,16.964q.43,1.961.694,3.961a46.537,46.537,0,0,1-2.433,22Z" transform="translate(-1489.621 -585.559)" fill="#d7e5ff"/>
        <g id="Grupo_82624" data-name="Grupo 82624" transform="translate(7.22 0.956)">
          <path id="Trazado_120000" data-name="Trazado 120000" d="M1566.372,612.229c-2.763,2.139-2.03,7.864-6.812,4.637s-7.784-4.981-9.137-2.165,2.882,4.357,1.767,7.426-3.384,3.392-5.776.873-2.463-4.944-6.337-4.864-5.528-1.513-5.34-4.422a4.092,4.092,0,0,0-.127-1.349c.019-.033.04-.062.059-.095a46.873,46.873,0,0,1,26.649-19.9c1.141-.327,2.3-.611,3.465-.849a6.148,6.148,0,0,1,3.568,3.9c1.687,4.915,4.422,3.759,2.1,7.876s-1.368,5.127,1.169,5.883,5.46,1.818,5.061,3.825S1569.134,610.09,1566.372,612.229Z" transform="translate(-1534.61 -591.518)" fill="#aec3ff"/>
          <path id="Trazado_120001" data-name="Trazado 120001" d="M1882.382,841.679a47.047,47.047,0,0,1-3.587,7.655,46.485,46.485,0,0,1-13.061,14.334,5.336,5.336,0,0,1-3.479-1.371c-4.682-4.183,1.523-8.626,4.79-10.788s-2.8-2.878-5.858-7.092,4.1-9.921-.5-10.23-10.2-.606-11.137-5.537,3.9-3.915,3.057-8.068,3.157-4.931,7.44-3.746,4.811-1.973,10.12-.539,2.81,7.968,8.667,9.6,5.123,2.855,5.123,2.855a2.822,2.822,0,0,1,1.1.682A46.82,46.82,0,0,1,1882.382,841.679Z" transform="translate(-1798.91 -779.905)" fill="#aec3ff"/>
          <path id="Trazado_120002" data-name="Trazado 120002" d="M1944.6,723.8c-5.576.583-5.2-6.378-9.934-5.966-4.773.416-2.731-2.978-5.094-6.484s-10.333-1.605-8.714-5.152,6.069-.771,8.154-3.321,6.494-.12,6.494-.12a3.366,3.366,0,0,1,.92.116s0,0,0,0a46.928,46.928,0,0,1,7.477,16.964Q1944.333,721.8,1944.6,723.8Z" transform="translate(-1858.692 -684.026)" fill="#aec3ff"/>
          <path id="Trazado_120003" data-name="Trazado 120003" d="M1793.226,627.64s3.786-2.681.226-5.172-3.99-1.081-6.94-2.523-5.018.494-3.659,3.924,1.412,9.083,4.458,7.187S1790.686,627.005,1793.226,627.64Z" transform="translate(-1742.658 -614.979)" fill="#aec3ff"/>
        </g>
      </g>
      <g id="Grupo_82626" data-name="Grupo 82626" transform="translate(606.994 300.643)">
        <path id="Trazado_120006" data-name="Trazado 120006" d="M2152.606,1200.43s.361-3.585-1.514-3.462-2.371.983-2.162,1.671a19.565,19.565,0,0,0,2.033,2.968Z" transform="translate(-2137.885 -1176.453)" fill="#ffb27d"/>
        <path id="Trazado_120007" data-name="Trazado 120007" d="M2189.358,1222.772a30.6,30.6,0,0,1-6.538,5.253c-.423.267-.865.536-1.331.807a49.49,49.49,0,0,1-6.114,3.008c-.259.107-.562.224-.9.346a44.054,44.054,0,0,1-10.645,2.458c-.265.01-.517.01-.751,0-4.641-.187-5.207-18.2-5.207-18.2s.517-1.8,2.9-1.349c0,0,3.621,10.173,4.919,11,1.153.737,7.778-9.306,13.481-10.009C2183.01,1215.616,2189.358,1222.772,2189.358,1222.772Z" transform="translate(-2145.425 -1191.612)" fill="#739af0"/>
        <path id="Trazado_120008" data-name="Trazado 120008" d="M2217.678,1802.711s.343,3.966-.5,4.378l-10.728-.022s0-1.238,1.723-1.513,4.75-1.284,5.262-3.531S2217.678,1802.711,2217.678,1802.711Z" transform="translate(-2186.215 -1683.703)" fill="#1c3154"/>
        <path id="Trazado_120009" data-name="Trazado 120009" d="M2227.143,1446.672c.053,2.593.177,5.268.421,7.672,1.159,11.406,1.566,25.188,1.732,27.845.289,4.613,1.2,11.981,1.2,11.981s1.807,1.716,5.33.9a119.961,119.961,0,0,0,3.571-21.788c.01-.183.02-.368.029-.552.076-1.478.155-3.167.236-4.988.537-12.2,1.12-30.328,1.12-30.328l-13.462-3.161S2227.011,1440.208,2227.143,1446.672Z" transform="translate(-2203.556 -1375.659)" fill="#2a4e96"/>
        <path id="Trazado_120010" data-name="Trazado 120010" d="M2227.143,1446.672c3.412,5.886,9.915,16.731,12.52,21.067.537-12.2,1.12-30.328,1.12-30.328l-13.462-3.161S2227.011,1440.208,2227.143,1446.672Z" transform="translate(-2203.556 -1375.659)" fill="#233862"/>
        <path id="Trazado_120011" data-name="Trazado 120011" d="M2205.643,1298.471a44.058,44.058,0,0,1-10.645,2.458c.466-.087,3.862-.76,5.118-2.276,1.348-1.63,3.619-6.056,5.425-4.25C2206.392,1295.253,2206.143,1296.933,2205.643,1298.471Z" transform="translate(-2176.597 -1257.896)" fill="#6385db"/>
        <path id="Trazado_120012" data-name="Trazado 120012" d="M2386.545,1498.658a20.889,20.889,0,0,1,.7,4,14.316,14.316,0,0,1-1.461,3.806c-.509.612-.529-2.66-.867-3.174s-.155,1.222-.426,1.364-.723-1.315-.925-1.831.723-2.313.808-3.6S2386.545,1498.658,2386.545,1498.658Z" transform="translate(-2334.879 -1429.562)" fill="#ffb27d"/>
        <path id="Trazado_120013" data-name="Trazado 120013" d="M2406.736,1778.338s1.909,1.743,1.537,2.981-2.1,2.063-2.329,3.577-1.164,2.339-2,2.339h-4s-.617-1.065.873-1.386,2.052-2.1,1.959-3.75a29.079,29.079,0,0,1,.14-3.852l3.167-.734Z" transform="translate(-2348.549 -1663.837)" fill="#1c3154"/>
        <path id="Trazado_120014" data-name="Trazado 120014" d="M2241.641,1434.235s12.6,26.963,19.308,38.794,8.8,15.132,8.8,15.132,3.842-1.513,4.191-2.545c0,0-2.564-22.84-7.055-28.407-2.538-3.146-5.519-12.587-5.658-15.889s-3.084-11.182-3.084-11.182Z" transform="translate(-2215.755 -1372.207)" fill="#2a4e96"/>
        <path id="Trazado_120015" data-name="Trazado 120015" d="M2226.908,1253.94a21.84,21.84,0,0,0,11.076,5.75c3.06.586,9.272,1.152,10.813-1.027a3.9,3.9,0,0,0,.285-2.451c-.208-3.073-.98-9.015,2.51-20.956a20.341,20.341,0,0,0,.671-3.192c.762-6.109.679-10.72-4.621-13.184-7.941-3.691-11.2-.654-11.2-.654a13.3,13.3,0,0,0-6.154,7.725C2226.429,1237.457,2226.908,1253.94,2226.908,1253.94Z" transform="translate(-2203.371 -1193.315)" fill="#739af0"/>
        <path id="Trazado_120016" data-name="Trazado 120016" d="M2294.744,1180.6a5.9,5.9,0,0,1-5.932.389,6.793,6.793,0,0,1-.108-2.438c.043-1.143.151-2.265.151-2.265l2.826-1.855,2.7-1.769C2294.054,1178.748,2295.348,1180.172,2294.744,1180.6Z" transform="translate(-2255.24 -1156.052)" fill="#ffb27d"/>
        <path id="Trazado_120017" data-name="Trazado 120017" d="M2294.062,1184.431a8.683,8.683,0,0,1-5.2,3.377c.043-1.143.165-2.4.165-2.4l2.812-1.717Z" transform="translate(-2255.399 -1165.307)" fill="#ed985f"/>
        <path id="Trazado_120018" data-name="Trazado 120018" d="M2270.187,1132.848s6.836,2.551,8.357-1.661,3.428-6.719-.873-8.526-5.734-.5-6.589.779S2268.448,1132.076,2270.187,1132.848Z" transform="translate(-2239.102 -1113.326)" fill="#ffb27d"/>
        <path id="Trazado_120019" data-name="Trazado 120019" d="M2278.345,1108.614c.079-.061.238-.091.571-.044a1.366,1.366,0,0,0-.581-.295,1.688,1.688,0,0,0-.811-1.682,1.007,1.007,0,0,1,.338.807c-.728-1.117-2.548-2.186-8.046-2.828-7.247-.846-5.8,4.187-4.981,4.914s3.436-.307,5.13.17,1.53,3.028,2.047,3.485.406-.192,1.266-.393.677,1.123.281,1.929.468,2.143.468,2.143l1.33-.965c1.33-.965,3.353-5.764,3.064-6.929C2278.4,1108.823,2278.371,1108.719,2278.345,1108.614Z" transform="translate(-2234.645 -1098.806)" fill="#2c3a64"/>
        <path id="Trazado_120020" data-name="Trazado 120020" d="M2343.019,1333.595c-.208-3.073-.981-9.015,2.51-20.956a20.393,20.393,0,0,0,.671-3.192h0c-2.593-.855-7.318,1.047-7.318,1.047S2337.771,1326.278,2343.019,1333.595Z" transform="translate(-2297.308 -1270.698)" fill="#6385db"/>
        <path id="Trazado_120021" data-name="Trazado 120021" d="M2305.561,1233.426s3.19,1.16,5.226,9.609c1.345,5.582,3.82,13.787,4.1,16.365s-2.831,17.673-2.831,17.673a2.024,2.024,0,0,1-1.513.1,2.5,2.5,0,0,1-1.507-.9s-.743-10.061-.551-14.811c.08-1.974-9.136-14.454-14.111-16.062C2292.42,1244.772,2305.561,1233.426,2305.561,1233.426Z" transform="translate(-2259.859 -1207.062)" fill="#739af0"/>
        <path id="Trazado_120022" data-name="Trazado 120022" d="M2086.991,1085.862a106.139,106.139,0,0,1,19.866,1.7l1.112-2.8,1.219-3.07s-10.685-4.6-17.107-11.005Z" transform="translate(-2085.922 -1070.435)" fill="#aec3ff"/>
        <path id="Trazado_120023" data-name="Trazado 120023" d="M2086.637,1069.24l-5.295,15.631h0a1.409,1.409,0,0,1-.928-1.822l4.66-13.133a1.162,1.162,0,0,1,1.563-.676Z" transform="translate(-2080.333 -1069.142)" fill="#f99746"/>
        <path id="Trazado_120024" data-name="Trazado 120024" d="M2143.087,1170.271h0a1.914,1.914,0,0,0,2.246-1.5l1.823-9.122a1.915,1.915,0,0,0-1.5-2.246h0a1.914,1.914,0,0,0-2.246,1.5l-1.823,9.122A1.915,1.915,0,0,0,2143.087,1170.271Z" transform="translate(-2131.728 -1143.209)" fill="#f99746"/>
        <path id="Trazado_120025" data-name="Trazado 120025" d="M2086.991,1155.891a106.146,106.146,0,0,1,19.866,1.7l1.112-2.8C2097.969,1152.744,2086.991,1155.891,2086.991,1155.891Z" transform="translate(-2085.922 -1140.464)" fill="#739af0"/>
        <path id="Trazado_120026" data-name="Trazado 120026" d="M2192.449,1136.24l2.882.507c-.044,0,2.677.529,3.569-1.882a1.954,1.954,0,0,0,.171-.521c.693-3.006-.957-3.56-.957-3.56l-3.709-1.445-1.178,4.17v.015Z" transform="translate(-2174.457 -1119.68)" fill="#f99746"/>
        <path id="Trazado_120027" data-name="Trazado 120027" d="M2192.449,1158.057l2.882.507c-.044,0,2.677.529,3.569-1.882-1.631-1.186-5.674-1.355-5.674-1.355v.015Z" transform="translate(-2174.457 -1141.496)" fill="#ed7d2b"/>
        <path id="Trazado_120028" data-name="Trazado 120028" d="M2146.084,1182.309s1.41.562,1.151,1.182-2.051,1.474-2.334.985S2145.2,1181.785,2146.084,1182.309Z" transform="translate(-2134.479 -1164.081)" fill="#ffb27d"/>
        <path id="Trazado_120029" data-name="Trazado 120029" d="M2170.042,1197.621a19.814,19.814,0,0,0,.283-2.1c.017-.663.094-1.2-.062-1.222s-.269.1-.333.316-.308,1.534-.308,1.534l.123,1.275Z" transform="translate(-2155.294 -1174.208)" fill="#ffb27d"/>
      </g>
      <g id="Grupo_82628" data-name="Grupo 82628" transform="translate(395.57 271.435)">
        <path id="Trazado_120030" data-name="Trazado 120030" d="M1261.182,1204.47l-7.987,94.97s-.837,5.757,3.445,5.767c7.041.017,35.044,0,35.044,0s-5.3-1.2-5.235-3.895c.076-3.178,9.335-97.741,9.335-97.741Z" transform="translate(-1174.451 -1152.791)" fill="#7599ea"/>
        <path id="Trazado_120031" data-name="Trazado 120031" d="M1306.362,1294.507c-1.385,0-28.5.05-35.352-.038-2.988-.037-3.512-2.657-3.537-4.352a8.5,8.5,0,0,1,.091-1.414l.208-2.468.53-6.291.468-5.558.6-7.142.506-6.029,5.676-67.483,34.6-.9s-3.9,39.574-6.659,68.381c-.308,3.21-.6,6.287-.872,9.16q-.132,1.376-.255,2.687c-.256,2.725-.49,5.228-.693,7.438-.107,1.165-.206,2.247-.3,3.239-.352,3.885-.558,6.366-.561,6.837a3.99,3.99,0,0,0,.067.769C1301.454,1294.37,1305.842,1294.507,1306.362,1294.507Z" transform="translate(-1186.492 -1143.776)" fill="#90aff4"/>
        <path id="Trazado_120032" data-name="Trazado 120032" d="M779.653,887.135l19.455,78.148,2.664,10.7,9.061,36.4H979.18l-33.4-125.25Z" transform="translate(-776.956 -887.135)" fill="#aec3ff"/>
        <path id="Trazado_120033" data-name="Trazado 120033" d="M765.545,887.134l-2.7.9L793.142,1015.1l3.585-2.718Z" transform="translate(-762.849 -887.134)" fill="#90aff4"/>
        <path id="Trazado_120034" data-name="Trazado 120034" d="M951.617,1670.352h167.31l4.62-2.718H955.2Z" transform="translate(-921.325 -1542.383)" fill="#7599ea"/>
        <rect id="Rectángulo_34287" data-name="Rectángulo 34287" width="36.225" height="1.721" transform="translate(125.272 152.452) rotate(180)" fill="#aec3ff"/>
        <path id="Trazado_120035" data-name="Trazado 120035" d="M1306.892,1684.568l-.187,1.316-34.068,6.883.467-5.558.223-2.64Z" transform="translate(-1190.828 -1556.6)" fill="#5888dd"/>
        <path id="Trazado_120036" data-name="Trazado 120036" d="M1306.367,1770.071c-1.385,0-28.5.05-35.352-.038-2.988-.037-3.512-2.657-3.537-4.352l33.907-6.379c-.352,3.885-.558,6.366-.561,6.837a4,4,0,0,0,.067.769C1301.459,1769.934,1305.847,1770.071,1306.367,1770.071Z" transform="translate(-1186.498 -1619.34)" fill="#5888dd" opacity="0.4"/>
        <path id="Trazado_120037" data-name="Trazado 120037" d="M779.651,887.134H945.779L972.734,987.8H804.711Z" transform="translate(-776.955 -887.134)" fill="#aec3ff"/>
        <path id="Trazado_120038" data-name="Trazado 120038" d="M1000.9,1011.644H845.349L839.791,989.5l-2.15-8.568-.877-3.494-5.713-22.755-.3-1.185-3.02-12.028-1.351-5.382-1.153-4.591-2.7-10.762h153.3L978.8,931.5l1.265,4.591,1.484,5.382,9.775,35.456v0l.829,3,.385,1.395,6.749,24.478Z" transform="translate(-812.953 -915.344)" fill="#583ae2"/>
        <path id="Trazado_120039" data-name="Trazado 120039" d="M978.8,931.5H825.235l-2.7-10.763h153.3Z" transform="translate(-812.956 -915.342)" fill="#40327b"/>
        <g id="Grupo_82627" data-name="Grupo 82627" transform="translate(15.878 8.911)">
          <path id="Trazado_120040" data-name="Trazado 120040" d="M861.837,944.005a1.017,1.017,0,0,1,1.01-1.345,1.838,1.838,0,0,1,1.681,1.345,1.016,1.016,0,0,1-1.01,1.346A1.838,1.838,0,0,1,861.837,944.005Z" transform="translate(-861.795 -942.66)" fill="#e9f3fe"/>
          <path id="Trazado_120041" data-name="Trazado 120041" d="M889.695,944.005a1.017,1.017,0,0,1,1.01-1.345,1.838,1.838,0,0,1,1.681,1.345,1.017,1.017,0,0,1-1.01,1.346A1.838,1.838,0,0,1,889.695,944.005Z" transform="translate(-885.183 -942.66)" fill="#e9f3fe"/>
          <path id="Trazado_120042" data-name="Trazado 120042" d="M919.692,944.005a1.017,1.017,0,0,1,1.01-1.345,1.838,1.838,0,0,1,1.681,1.345,1.017,1.017,0,0,1-1.01,1.346A1.838,1.838,0,0,1,919.692,944.005Z" transform="translate(-910.366 -942.66)" fill="#e9f3fe"/>
        </g>
      </g>
      <path id="Trazado_120043" data-name="Trazado 120043" d="M1540.24,214.257c6.287-7.382,15.982-22.209,22.508-29.8a2.408,2.408,0,0,0-1.834-3.975h-11.877l11.2-25.332a.993.993,0,0,0-1.7-1l-27.088,36.255a1.5,1.5,0,0,0,1.384,2.385l13.446-1.656-8,21.975A1.154,1.154,0,0,0,1540.24,214.257Z" transform="translate(-1012.283 0)" fill="#45bbcc"/>
      <path id="Trazado_120044" data-name="Trazado 120044" d="M1162.085,562.893c1.415-7.254,2.307-20.729,3.8-28.214a1.835,1.835,0,0,0-2.7-1.954l-7.888,4.443-2.035-21.016a.757.757,0,0,0-1.5-.024l-4.43,34.212a1.143,1.143,0,0,0,1.811,1.066l8.311-6.129,2.906,17.587A.879.879,0,0,0,1162.085,562.893Z" transform="translate(-690.047 -303.677)" fill="#aec3ff"/>
      <g id="Grupo_82632" data-name="Grupo 82632" transform="translate(435.332 220.969)">
        <path id="Trazado_120045" data-name="Trazado 120045" d="M1192.461,748.416,1057.3,759.8a13.529,13.529,0,0,1-13.488-19l57.261-128.151a13.529,13.529,0,0,1,23.607-1.989l77.9,116.764A13.529,13.529,0,0,1,1192.461,748.416Z" transform="translate(-1037.484 -599.507)" fill="#f3f1ff"/>
        <g id="Grupo_82629" data-name="Grupo 82629" transform="translate(0)">
          <path id="Trazado_120046" data-name="Trazado 120046" d="M1166.029,726.675l-135.157,11.387a18.66,18.66,0,0,1-18.6-26.206l57.262-128.151a18.66,18.66,0,0,1,32.559-2.743l77.9,116.764a18.659,18.659,0,0,1-13.956,28.949Zm-80.168-143.727a8.292,8.292,0,0,0-6.963,4.943l-57.262,128.151a8.4,8.4,0,0,0,8.373,11.795l135.158-11.387a8.4,8.4,0,0,0,6.281-13.03l-77.9-116.764A8.292,8.292,0,0,0,1085.862,582.949Z" transform="translate(-1010.622 -572.655)" fill="#2ff980"/>
        </g>
        <g id="Grupo_82631" data-name="Grupo 82631" transform="translate(65.138 38.099)">
          <g id="Grupo_82630" data-name="Grupo 82630">
            <path id="Trazado_120047" data-name="Trazado 120047" d="M1423.463,901.269a12.36,12.36,0,0,1,.526-4.908,11.325,11.325,0,0,1,2.313-4.062,12.142,12.142,0,0,1,3.883-2.879,15.143,15.143,0,0,1,5.318-1.365,15.49,15.49,0,0,1,5.511.453,12.079,12.079,0,0,1,4.351,2.185,11.345,11.345,0,0,1,2.96,3.618,12.383,12.383,0,0,1,1.34,4.751,12.091,12.091,0,0,1-.53,4.869,11.417,11.417,0,0,1-2.316,4.023,12.037,12.037,0,0,1-3.924,2.882,15.485,15.485,0,0,1-5.358,1.369,15.146,15.146,0,0,1-5.471-.456,12.106,12.106,0,0,1-4.31-2.189,11.4,11.4,0,0,1-2.957-3.578A12.075,12.075,0,0,1,1423.463,901.269Zm20.9-24.451-19.468,1.64-8.363-66.288,24.985-2.1Z" transform="translate(-1416.528 -810.065)" fill="#2ff980"/>
          </g>
        </g>
      </g>
      <g id="Grupo_82636" data-name="Grupo 82636" transform="translate(380.743 301.051)">
        <path id="Trazado_120048" data-name="Trazado 120048" d="M936.749,1236.076s.424-.953.7-1.4,1.447-1.774,1.646-1.474,1,2.314.574,2.879.027,1.546-2.082,2.14Z" transform="translate(-894.015 -1207.242)" fill="#ffb27d"/>
        <path id="Trazado_120049" data-name="Trazado 120049" d="M790.676,1213.861s10.8,9.014,15.008,8.179c3.292-.652,8.5-2.3,8.5-2.3a3.322,3.322,0,0,1,.985,2.873s-6.631,6.24-11.356,6.28c-7.385.063-10.868-3.66-10.868-3.66Z" transform="translate(-771.383 -1191.045)" fill="#45bbcc"/>
        <path id="Trazado_120050" data-name="Trazado 120050" d="M672.668,1797.8s.314,5.056,1.292,5.129c.13.01,4.962.01,4.962.01l6.168-.036a2,2,0,0,0-1.843-1.8c-1.8-.314-4.82-1.581-5.913-3.964C676.185,1794.628,672.668,1797.8,672.668,1797.8Z" transform="translate(-672.313 -1679.907)" fill="#113c68"/>
        <path id="Trazado_120051" data-name="Trazado 120051" d="M670.453,1481.908a12.863,12.863,0,0,0,3.339.627,12.266,12.266,0,0,0,3.117-.445,85.337,85.337,0,0,1,2.3-10.935c1.018-3.942,2.473-9.011,4.542-15.31,5.721-17.408,7.461-27.592,7.62-28.556.008-.051.012-.076.012-.076l-.019-.009-17.589-7.723s2.174,23.992-.6,33.2a38.755,38.755,0,0,0-1.007,4.412C670.412,1467.1,670.453,1481.908,670.453,1481.908Z" transform="translate(-670.453 -1363.668)" fill="#2a4e96"/>
        <path id="Trazado_120052" data-name="Trazado 120052" d="M693.335,1471.155c1.018-3.942,2.473-9.011,4.542-15.31,5.721-17.408,7.461-27.592,7.62-28.556,0-.029,0-.056-.007-.085l-17.589-7.723s2.174,23.992-.6,33.2C686.913,1453.97,693.335,1471.155,693.335,1471.155Z" transform="translate(-684.583 -1363.668)" fill="#233862"/>
        <path id="Trazado_120053" data-name="Trazado 120053" d="M758.276,1797.8s.313,5.056,1.292,5.129c.13.01,4.962.01,4.962.01l6.168-.036a2,2,0,0,0-1.843-1.8c-1.8-.314-4.821-1.581-5.913-3.964C761.793,1794.628,758.276,1797.8,758.276,1797.8Z" transform="translate(-744.182 -1679.907)" fill="#15447c"/>
        <path id="Trazado_120054" data-name="Trazado 120054" d="M722.584,1423.005a250.385,250.385,0,0,1-2.461,34.637c-2.69,19.089-1.778,27.192-1.778,27.192a18.311,18.311,0,0,1-2.594.66,11.773,11.773,0,0,1-3.849-.445s-3.85-19.1-2.746-28.651-5.272-32.786-5.272-32.786Z" transform="translate(-698.518 -1366.626)" fill="#2a4e96"/>
        <path id="Trazado_120055" data-name="Trazado 120055" d="M742.7,1156.078l3.433,2.251,3.127-.885a7.471,7.471,0,0,0,.731-3.749,23.332,23.332,0,0,0-.123-2.5l-4.632-2.044-1.728-.762c0,.027.134,1.419.153,1.623A11.824,11.824,0,0,1,742.7,1156.078Z" transform="translate(-731.105 -1136.083)" fill="#ffb27d"/>
        <path id="Trazado_120056" data-name="Trazado 120056" d="M707.509,1230.167c-4.273,4.126-20.447,3.432-21.444-1.114s1.087-38.7,8.387-40.844c1.515-.445,9.613,2.172,9.613,2.172a51.339,51.339,0,0,1,2.1,7.557c.162.824.634,9.551.987,17.716.165,3.819.3,7.516.376,10.222A29.478,29.478,0,0,1,707.509,1230.167Z" transform="translate(-683.364 -1169.466)" fill="#6ac9d6"/>
        <path id="Trazado_120057" data-name="Trazado 120057" d="M750.161,1154.061c.94,1.589,4.237,2.98,5.984,3.617a23.341,23.341,0,0,0-.123-2.5l-4.632-2.044C750.366,1153.123,749.742,1153.351,750.161,1154.061Z" transform="translate(-737.259 -1140.064)" fill="#fca56b"/>
        <path id="Trazado_120058" data-name="Trazado 120058" d="M743.811,1099.857s-7.464,2.328-8.842-2.342-3.27-7.515,1.437-9.2,6.163-.177,7,1.271S745.717,1099.131,743.811,1099.857Z" transform="translate(-723.301 -1085.023)" fill="#ffb27d"/>
        <path id="Trazado_120059" data-name="Trazado 120059" d="M726.128,1075.8s-.476,5.435-1.6,5.2-2.361-.741-2.2.9-1.093,4.447-2.714,4.44c-3.476-.014-7.252-8.933-6.3-10.625C716.063,1070.828,730.1,1069.843,726.128,1075.8Z" transform="translate(-706.313 -1071.683)" fill="#163560"/>
        <path id="Trazado_120060" data-name="Trazado 120060" d="M747.174,1177.22c-.1-.04-5.556-2.49-6.195-2.279s-1.434,2.161-1.434,2.161l9.614,2.173A4.776,4.776,0,0,0,747.174,1177.22Z" transform="translate(-728.457 -1158.359)" fill="#45bbcc"/>
        <g id="Grupo_82634" data-name="Grupo 82634" transform="translate(19.239 3.442)">
          <path id="Trazado_120061" data-name="Trazado 120061" d="M823.811,1338.721,793.2,1367.537c-.6.565-1.356.745-1.681.4l-1.033-1.1c-.325-.345-.1-1.089.5-1.654L821.6,1336.37c.6-.565,1.356-.745,1.681-.4l1.033,1.1C824.636,1337.412,824.411,1338.156,823.811,1338.721Z" transform="translate(-790.342 -1296.853)" fill="#1f4d84"/>
          <path id="Trazado_120062" data-name="Trazado 120062" d="M806.635,1442.5l-13.43,12.645c-.6.565-1.356.745-1.681.4l-1.033-1.1c-.325-.345-.1-1.089.5-1.654l13.431-12.645Z" transform="translate(-790.342 -1384.46)" fill="#739af0"/>
          <path id="Trazado_120063" data-name="Trazado 120063" d="M949.624,1124.119a23.989,23.989,0,1,0,39.761-24.108q-.184-.184-.377-.363a23.99,23.99,0,0,0-39.384,24.471Zm6.857-22.14a22.1,22.1,0,1,1,.952,31.233A22.069,22.069,0,0,1,956.481,1101.979Z" transform="translate(-923.19 -1093.131)" fill="#1f4d84"/>
          <g id="Grupo_82633" data-name="Grupo 82633" transform="translate(27.287 1.894)" opacity="0.5">
            <path id="Trazado_120064" data-name="Trazado 120064" d="M998.569,1142.167a22.1,22.1,0,1,1-.952-31.232A22.005,22.005,0,0,1,998.569,1142.167Z" transform="translate(-960.382 -1104.933)" fill="#b3cff9"/>
          </g>
        </g>
        <path id="Trazado_120065" data-name="Trazado 120065" d="M740.019,1276.443c-16.864-12.017-15.462-28.052-15.462-28.052,6.164,3.476,12.28,11.163,15.086,17.831C739.808,1270.04,739.948,1273.737,740.019,1276.443Z" transform="translate(-715.851 -1220.034)" fill="#45bbcc"/>
        <g id="Grupo_82635" data-name="Grupo 82635" transform="translate(8.355 20.916)">
          <path id="Trazado_120066" data-name="Trazado 120066" d="M914.212,1382.137a4.6,4.6,0,0,0,2.154-1.33s.507.035-.083,1.116c-.049.091-.159.323-.242.487a.1.1,0,0,0,.088.151,11.228,11.228,0,0,1,2.7.056c.182.038.235.475.229.661a1.688,1.688,0,0,1-.355,1.152,5.9,5.9,0,0,1-2.131,1.116,6.446,6.446,0,0,1-3.3-.414l-1.08-.5.335-2.006.271.057C913.23,1382.773,913.763,1382.248,914.212,1382.137Z" transform="translate(-881.755 -1352.116)" fill="#ffb27d"/>
          <path id="Trazado_120067" data-name="Trazado 120067" d="M728.1,1202.019s-15.153,2.885,4.458,24.828c3.136,3.51,20.082,8.079,20.082,8.079s1.719-1.462.852-2.646c0,0-11.667-8.473-14.234-9.82-1.155-.606-4.482-13.523-6.365-16.634A8.486,8.486,0,0,0,728.1,1202.019Z" transform="translate(-722.516 -1202.019)" fill="#6ac9d6"/>
        </g>
        <path id="Trazado_120068" data-name="Trazado 120068" d="M939.31,1233.7a7.718,7.718,0,0,0,.592-1.447,8,8,0,0,1,.978-2.213c.1-.1.442.03.482.472a2.569,2.569,0,0,1-.243.958,10.8,10.8,0,0,0-.321,1.9C940.564,1234.14,939.31,1233.7,939.31,1233.7Z" transform="translate(-896.165 -1204.601)" fill="#ffb27d"/>
      </g>
      <g id="Grupo_82638" data-name="Grupo 82638" transform="translate(406.262 220.721)">
        <g id="Grupo_82637" data-name="Grupo 82637" transform="translate(0 0)">
          <path id="Trazado_120069" data-name="Trazado 120069" d="M975.655,975.853a.914.914,0,0,0-.163.977.008.008,0,0,0,0,0,6.074,6.074,0,0,0,1.919,2.107c.116.093.218.178.308.257l.069.062.053.048c.844.778.526.956,2.041,2.535,1.728,1.8,2.918,1.832,3.257,1.668.286-.14-.3-1.094-.94-2.166l-.094-.156c-.086-.143-.171-.287-.256-.431-.755-1.291-.561-1.9-.381-3.816.146-1.56,2.431-8.717,2.431-8.717l-3.312-.572s-1,5.7-2.1,6.576c-.588.468-1.246.473-1.811.82-.04.024-.079.049-.118.074A4.343,4.343,0,0,0,975.655,975.853Z" transform="translate(-951.999 -904.018)" fill="#ffb27d"/>
          <path id="Trazado_120070" data-name="Trazado 120070" d="M975.655,1014.934a.914.914,0,0,0-.163.977.008.008,0,0,0,0,0,7.036,7.036,0,0,0,1.922,2.1c.114.095.215.182.3.264l.069.062.053.048c.844.778.526.956,2.041,2.535,1.728,1.8,2.918,1.832,3.257,1.668.286-.14-.3-1.094-.94-2.166a7.366,7.366,0,0,1-3.081-2.272c-1-1.28-1.683-2.912-2.365-3.913l-.195-.037A4.349,4.349,0,0,0,975.655,1014.934Z" transform="translate(-951.999 -943.1)" fill="#233862"/>
          <path id="Trazado_120071" data-name="Trazado 120071" d="M1129.493,968.559c.2,1.023,1.662.853,3.29.455s1.241.076,3.559-.18,3.02-1.12,3.091-1.464c.063-.306-1.082-.414-2.31-.556-.154-.017-.309-.037-.465-.056-1.387-.174-2.4-1.07-3.661-1.8-1.193-.7-2.973-3.534-2.973-3.534l-3.178.251s1.667,2.534,2.312,3.635a3.839,3.839,0,0,1,.311,2.166A4.088,4.088,0,0,0,1129.493,968.559Z" transform="translate(-1079.125 -898.785)" fill="#ffb27d"/>
          <path id="Trazado_120072" data-name="Trazado 120072" d="M1146.378,997.234c1.629-.4,1.241.076,3.559-.18s3.02-1.12,3.091-1.464c.063-.306-1.082-.414-2.31-.556l-.012.024a6.533,6.533,0,0,1-3.319,1.031c-1.572.038-3.238-.413-4.323-.4a4.082,4.082,0,0,0,.024,1.087C1143.292,997.8,1144.749,997.632,1146.378,997.234Z" transform="translate(-1092.719 -927.004)" fill="#233862"/>
          <path id="Trazado_120073" data-name="Trazado 120073" d="M1010.409,852.579l-2.974,7.994-3.882,10.438a6.286,6.286,0,0,1-2.061-.189,8.928,8.928,0,0,1-1.993-.971s1.081-11.208,3.093-17.642a11.454,11.454,0,0,1,1.73-3.739C1007.438,844.79,1010.409,852.579,1010.409,852.579Z" transform="translate(-972.214 -803.131)" fill="#233862"/>
          <path id="Trazado_120074" data-name="Trazado 120074" d="M898.324,791.711c-1.691-.546-6.1-.011-10.891.854a3.247,3.247,0,0,1-3.352-1.515h0l-12.046-.945s-3.978,8.813-1.8,14.431a2.113,2.113,0,0,0,2.1,1.359h0s7.279.013,9.607.013c5.991,0,12.68-4.114,13.545-4.286,1.416-.283,1.981,2.549,3.4,5.524s13.306,13.174,13.306,13.174a10.458,10.458,0,0,0,2.583-.264,2.543,2.543,0,0,0,1.11-.7S902.713,793.128,898.324,791.711Z" transform="translate(-863.146 -754.961)" fill="#2a4e96"/>
          <path id="Trazado_120075" data-name="Trazado 120075" d="M849.4,571.823a4.273,4.273,0,0,0-2.3-.6,6.407,6.407,0,0,1-1.111-.068c-4.6-.676-7.368,6-7.531,8.019-.3,3.7-2.259,4.268-5.018,6.588-5.532,4.65-3.912,10.056-.889,12.066,1.814,1.206,5.013,0,5.013,0,.045.031,8.749-4.862,13.039-7.222C857.029,589.7,851.978,573.362,849.4,571.823Z" transform="translate(-829.727 -571.108)" fill="#233862"/>
          <path id="Trazado_120076" data-name="Trazado 120076" d="M906.429,644.791a5.669,5.669,0,0,1-3.534.108c-1.339-.593-2.353-2.8-2.333-2.8.609-.028,1.279-.56,1.795-4.056l.259.093,4.362,1.571s-.317,1.4-.521,2.732C906.284,643.561,906.191,644.633,906.429,644.791Z" transform="translate(-889.153 -627.303)" fill="#ffb27d"/>
          <path id="Trazado_120077" data-name="Trazado 120077" d="M917.727,640.2s-.174.755-.429,2.166a4.926,4.926,0,0,1-3.933-3.737Z" transform="translate(-899.902 -627.791)" fill="#ed975d"/>
          <path id="Trazado_120078" data-name="Trazado 120078" d="M916.092,602.146s-5.969-.8-5.411-4.513.162-6.311,4-5.955,4.36,1.882,4.475,3.166S917.659,602.259,916.092,602.146Z" transform="translate(-897.618 -588.35)" fill="#ffb27d"/>
          <path id="Trazado_120079" data-name="Trazado 120079" d="M909.981,591.1s-3.822,3.292-6.421,3.556-3.583-.57-3.583-.57a10.15,10.15,0,0,0,2.455-3.324,1.828,1.828,0,0,1,1.507-1.077C905.795,589.522,909.313,589.45,909.981,591.1Z" transform="translate(-888.663 -586.636)" fill="#233862"/>
          <path id="Trazado_120080" data-name="Trazado 120080" d="M947.434,593.328a9.413,9.413,0,0,1,1.68,2.153,7.226,7.226,0,0,1,.194,3.841s1.993-3.872.866-5.754A1.591,1.591,0,0,0,947.434,593.328Z" transform="translate(-928.504 -589.164)" fill="#233862"/>
          <path id="Trazado_120081" data-name="Trazado 120081" d="M884.636,674.068c-.185,12.083-.053,9.558-1.375,10.7a5.073,5.073,0,0,1-2.392.518c-3.705.245-10.218-.368-10.465-1.053-.854-2.37-.25-3.105-.962-6.733-.074-.386-.166-.8-.274-1.258-.593-2.491-1.172-3.339.939-7.34,1.914-3.625,3.9-6.566,4.08-6.46,5.045,3,5.453.48,5.453.48S884.726,668.175,884.636,674.068Z" transform="translate(-862.337 -647.786)" fill="#583ae2"/>
          <path id="Trazado_120082" data-name="Trazado 120082" d="M1007.435,885.3l-3.882,10.438a6.286,6.286,0,0,1-2.061-.189,8.928,8.928,0,0,1-1.993-.971s1.081-11.208,3.093-17.642Z" transform="translate(-972.214 -827.857)" fill="#2a4e96"/>
          <path id="Trazado_120083" data-name="Trazado 120083" d="M937.3,665.444s5.192.882,5.8,3.118,2.611,15.805,2.611,15.805-1.465,1.429-2.684.21-3.833-12.7-3.833-12.7Z" transform="translate(-919.995 -650.305)" fill="#583ae2"/>
          <path id="Trazado_120084" data-name="Trazado 120084" d="M885.175,737.761c-3.705.245-10.218-.368-10.465-1.053-.854-2.37-.25-3.105-.962-6.733l1.789-5.031s-.3,5.6,1.355,7.078,6.765,2.847,7.568,4.079A4.509,4.509,0,0,1,885.175,737.761Z" transform="translate(-866.643 -700.258)" fill="#40327b"/>
          <path id="Trazado_120085" data-name="Trazado 120085" d="M918.508,787.163s3.656-.813,4.245-.488a8.587,8.587,0,0,1,2.211,1.917c.18.411-1.313-.312-1.8-.443a4.32,4.32,0,0,0-1.553.339,5.161,5.161,0,0,1-2.782.278Z" transform="translate(-904.22 -752.018)" fill="#ffb27d"/>
          <path id="Trazado_120086" data-name="Trazado 120086" d="M841.32,662.444s-4.908.3-6.608,2.67c-2.393,3.335-7.142,17.549-4.424,19.446,3.061,2.136,13.936.563,13.936.563a4.416,4.416,0,0,0-.141-2.51c-.5-.818-8.685-2.143-9.062-2.521s4.723-7.362,4.723-8.495S841.32,662.444,841.32,662.444Z" transform="translate(-829.473 -647.787)" fill="#583ae2"/>
          <path id="Trazado_120087" data-name="Trazado 120087" d="M946.061,793.416a7.076,7.076,0,0,0,1.017,1.106.75.75,0,0,0,.413.089l-.516-.929Z" transform="translate(-927.352 -757.741)" fill="#ffb27d"/>
          <path id="Trazado_120088" data-name="Trazado 120088" d="M944.961,787.076l2.226,1.082a.4.4,0,0,1-.369.143,5.319,5.319,0,0,1-.966-.266Z" transform="translate(-926.428 -752.418)" fill="#ffb27d"/>
        </g>
        <path id="Trazado_120089" data-name="Trazado 120089" d="M941.761,802.915l-23.259-.008v.513l23.052.008Z" transform="translate(-904.215 -765.709)" fill="#233862"/>
        <path id="Trazado_120090" data-name="Trazado 120090" d="M952.394,737.2l17.614.006,5.3-13.174-17.586-.006Z" transform="translate(-932.668 -699.485)" fill="#233862"/>
        <path id="Trazado_120091" data-name="Trazado 120091" d="M1025.507,760.7a.61.61,0,0,0-.6-.839,1.2,1.2,0,0,0-1.079.838.61.61,0,0,0,.6.839A1.2,1.2,0,0,0,1025.507,760.7Z" transform="translate(-992.611 -729.575)" fill="#fff"/>
      </g>
      <g id="Grupo_82640" data-name="Grupo 82640" transform="translate(537.683 307.817)">
        <path id="Trazado_120092" data-name="Trazado 120092" d="M1720.369,1114.148a5.057,5.057,0,0,0-4.016.207c-6.832.281-7.086,7.283-6.283,9.889,1.126,3.66-2.859,6.546,1.561,8.028,5.129,1.719,9.432-.32,9.139.565C1736.989,1134.115,1725.765,1115.941,1720.369,1114.148Z" transform="translate(-1699.692 -1113.845)" fill="#163560"/>
        <path id="Trazado_120093" data-name="Trazado 120093" d="M1680.323,1252.027a17.9,17.9,0,0,1-1.827,2.762c-1.419,1.778-8.868-2.442-8.226-2.762s4.385-11.1,5.276-12.459,3.929-2.059,3.929-2.059Z" transform="translate(-1666.732 -1217.664)" fill="#583ae2"/>
        <path id="Trazado_120094" data-name="Trazado 120094" d="M1850.793,1776.535s2.056,1.876,1.655,3.209-2.256,2.222-2.507,3.851-1.253,2.518-2.156,2.518h-4.3s-.664-1.147.94-1.492,2.209-2.26,2.109-4.038a31.314,31.314,0,0,1,.151-4.147l3.41-.79Z" transform="translate(-1812.065 -1669.443)" fill="#1f447f"/>
        <path id="Trazado_120095" data-name="Trazado 120095" d="M1720.042,1786.147s.74,7.948-.163,8.393l-11.551-.024s0-1.333,1.855-1.629,5.115-1.383,5.666-3.8S1720.042,1786.147,1720.042,1786.147Z" transform="translate(-1698.715 -1678.259)" fill="#1c3154"/>
        <path id="Trazado_120096" data-name="Trazado 120096" d="M1727.515,1243.376a45.946,45.946,0,0,1,0,5.339c-.115,1.93-2.067,4.516-2.344,5.156-.7,1.6-1.479,1.865-1.479,1.865l-6.065,1.487-2.133.522-6.725-2.008s-3.063-8.549-1.833-13.362a36.991,36.991,0,0,1,3.109-8.155,47.991,47.991,0,0,1,12.633-.456Z" transform="translate(-1697.303 -1214.374)" fill="#583ae2"/>
        <path id="Trazado_120097" data-name="Trazado 120097" d="M1779.814,1300.906c-.114,1.93-2.645,4.448-2.922,5.088-.7,1.6-1.479,1.865-1.479,1.865l-6.065,1.487-1.1-3.139s8.862-2.328,7.436-10.53Z" transform="translate(-1749.024 -1266.498)" fill="#40327b"/>
        <path id="Trazado_120098" data-name="Trazado 120098" d="M1703.981,1379.674s-3.33,10.366-3.544,13.9,6.366,50.135,6.631,51.762c.25,1.533,2.153,2.51,2.153,2.51a2.881,2.881,0,0,0,2.125.164,5.255,5.255,0,0,0,2.281-1.075s2.592-33.24.988-45.113a188.033,188.033,0,0,1-1.623-22.142Z" transform="translate(-1692.086 -1337.015)" fill="#233862"/>
        <path id="Trazado_120099" data-name="Trazado 120099" d="M1742.393,1377.748s5.08,6.816,5.554,11.424.743,20.792,1.752,25.284,4.716,13.136,4.716,27.146a2.794,2.794,0,0,1-1.575,1.231,12.987,12.987,0,0,1-1.385.383,2.178,2.178,0,0,1-2.436-1.156c-2.506-5.046-10.489-21.321-10.9-24.7-.29-2.391-2.81-18.214-8.309-27.5-1.32-2.229.81-11.093.81-11.093Z" transform="translate(-1716.389 -1335.398)" fill="#2a4e96"/>
        <path id="Trazado_120100" data-name="Trazado 120100" d="M1718.245,1369.7a6.981,6.981,0,0,0,3.993,1.111c3.172.064,11.033-.809,11.033-.809a6.5,6.5,0,0,1,.335,2.006s-9.6,2.422-15.163.354A3.515,3.515,0,0,1,1718.245,1369.7Z" transform="translate(-1706.882 -1328.643)" fill="#233862"/>
        <g id="Grupo_82639" data-name="Grupo 82639" transform="translate(13.147 41.627)">
          <path id="Trazado_120101" data-name="Trazado 120101" d="M1731.8,1376.519a1.651,1.651,0,1,1,1.448-1.638A1.553,1.553,0,0,1,1731.8,1376.519Zm0-2.8a1.177,1.177,0,1,0,.968,1.159A1.077,1.077,0,0,0,1731.8,1373.722Z" transform="translate(-1730.352 -1373.242)" fill="#fff"/>
        </g>
        <path id="Trazado_120102" data-name="Trazado 120102" d="M1669.956,1324.935l-14.43.135-7.1-16.687,14.43-.135Z" transform="translate(-1648.426 -1277.051)" fill="#b5453c"/>
        <path id="Trazado_120103" data-name="Trazado 120103" d="M1732.107,1351.425l-1.058-1.3a3.719,3.719,0,0,0-1.235-.747c-.519-.109-1.616-.741-1.723-.563s.843,1.45.843,1.45l.048.007c-1.089.819-3.84.1-4.179.43-.411.405.567,1.281,1.091,1.773a3.851,3.851,0,0,0,3.195.948c.855-.266,2.2-.537,2.2-.537Z" transform="translate(-1712.464 -1311.082)" fill="#ffb27d"/>
        <path id="Trazado_120104" data-name="Trazado 120104" d="M1654.705,1323.874s.907-1.031,1.484-.536-.151,2.927-.7,2.679S1654.389,1324.177,1654.705,1323.874Z" transform="translate(-1653.62 -1289.607)" fill="#ffb27d"/>
        <path id="Trazado_120105" data-name="Trazado 120105" d="M1768.225,1234.67s4.131.456,7.1,5.842c2.338,4.247,6.334,12.078,4.826,14.289-.662.971-7.008,4.426-19.247,2.451a3.7,3.7,0,0,1,1.18-2.263s10.3-3.307,10.283-3.965c-.033-1.245-1.392-2.32-7.146-8.075C1763.652,1241.385,1768.225,1234.67,1768.225,1234.67Z" transform="translate(-1742.85 -1215.281)" fill="#583ae2"/>
        <path id="Trazado_120106" data-name="Trazado 120106" d="M1754.105,1202.988c.142-.19-.041-.8-.268-1.927a21.124,21.124,0,0,1-.547-4.389l-.3.051-5.12.861s.117,1.369.12,2.658c0,.011,0,.022,0,.032.006,1.12-.3,2.812.076,3.034C1750,1204.445,1753.559,1203.721,1754.105,1202.988Z" transform="translate(-1731.909 -1183.38)" fill="#ffb27d"/>
        <path id="Trazado_120107" data-name="Trazado 120107" d="M1747.867,1197.851s.1,1.93.105,3.22c2.865-.069,4.394-2.85,5.015-4.081Z" transform="translate(-1731.909 -1183.647)" fill="#e8945b"/>
        <path id="Trazado_120108" data-name="Trazado 120108" d="M1727.555,1154.775s6.712-.956,6.052-5.126-.237-7.1-4.551-6.669-4.892,2.157-5.01,3.6S1725.792,1154.916,1727.555,1154.775Z" transform="translate(-1711.906 -1138.269)" fill="#ffb27d"/>
        <path id="Trazado_120109" data-name="Trazado 120109" d="M1736.2,1139.545s2.612,4.6,5.54,4.875,4.028-.673,4.028-.673a8.066,8.066,0,0,1-3.355-4.291S1737.208,1137,1736.2,1139.545Z" transform="translate(-1722.111 -1134.45)" fill="#163560"/>
        <path id="Trazado_120110" data-name="Trazado 120110" d="M1723.421,1144.36a4.205,4.205,0,0,0-1.68,1.8,6.824,6.824,0,0,0-.295,3.972s-1.911-3.1-.658-5.233C1722.116,1142.647,1723.421,1144.36,1723.421,1144.36Z" transform="translate(-1708.818 -1138.94)" fill="#163560"/>
      </g>
    </g>
  </g>
</svg>
