<svg xmlns="http://www.w3.org/2000/svg" xmlns:xlink="http://www.w3.org/1999/xlink" width="523" height="295" viewBox="0 0 523 295">
  <defs>
    <filter id="Rectángulo_34118" x="0" y="0" width="523" height="295" filterUnits="userSpaceOnUse">
      <feOffset dy="3" input="SourceAlpha"/>
      <feGaussianBlur stdDeviation="3" result="blur"/>
      <feFlood flood-opacity="0.161"/>
      <feComposite operator="in" in2="blur"/>
      <feComposite in="SourceGraphic"/>
    </filter>
  </defs>
  <g id="Grupo_84781" data-name="Grupo 84781" transform="translate(-1746 8033)">
    <g transform="matrix(1, 0, 0, 1, 1746, -8033)" filter="url(#Rectángulo_34118)">
      <rect id="Rectángulo_34118-2" data-name="Rectángulo 34118" width="505" height="277" rx="20" transform="translate(9 6)" fill="#fff"/>
    </g>
    <g id="Grupo_82808" data-name="Grupo 82808" transform="translate(1544.973 -8159.685)">
      <path id="Trazado_120627" data-name="Trazado 120627" d="M308.448,407.762s-63.686-54.379-15.273-105.918c51.544-54.872,5.878-125.316,75.847-153.738,75.646-30.728,95.109,23.393,126.778,15.083,63.164-16.576,143.284-8.414,129.953,72.1C609.018,336.357,677.674,323.467,636.9,408.1Z" transform="translate(0)" fill="#daf1f5"/>
      <g id="Grupo_82795" data-name="Grupo 82795" transform="translate(401.989 216.403)">
        <g id="Grupo_82754" data-name="Grupo 82754" transform="translate(0 0)">
          <rect id="Rectángulo_34302" data-name="Rectángulo 34302" width="139.743" height="191.101" fill="#583ae2"/>
          <rect id="Rectángulo_34303" data-name="Rectángulo 34303" width="127.834" height="180.679" transform="translate(5.954 5.157)" fill="#f3faff"/>
          <path id="Trazado_120628" data-name="Trazado 120628" d="M1361.5,634.977v6.51a6.507,6.507,0,0,0,6.5,6.51h34.934a6.507,6.507,0,0,0,6.5-6.51v-6.51Z" transform="translate(-1318.133 -634.977)" fill="#2b478b"/>
        </g>
        <g id="Grupo_82755" data-name="Grupo 82755" transform="translate(20.794 160.26)">
          <rect id="Rectángulo_34304" data-name="Rectángulo 34304" width="15.816" height="1.601" fill="#583ae2"/>
          <rect id="Rectángulo_34305" data-name="Rectángulo 34305" width="15.816" height="1.601" transform="translate(19.479)" fill="#583ae2"/>
          <rect id="Rectángulo_34306" data-name="Rectángulo 34306" width="21.935" height="1.601" transform="translate(0 3.552)" fill="#583ae2"/>
        </g>
        <g id="Grupo_82766" data-name="Grupo 82766" transform="translate(14.408 45.213)">
          <g id="Grupo_82758" data-name="Grupo 82758" transform="translate(83.475)">
            <g id="Grupo_82756" data-name="Grupo 82756" transform="translate(0 3.964)">
              <path id="Trazado_120629" data-name="Trazado 120629" d="M1732.308,971.75h-23.12V948.63h23.12Zm-22.031-1.089h20.942V949.719h-20.942Z" transform="translate(-1709.188 -948.63)" fill="#583ae2"/>
            </g>
            <g id="Grupo_82757" data-name="Grupo 82757" transform="translate(3.367)">
              <path id="Trazado_120630" data-name="Trazado 120630" d="M1739.428,945.783a1.632,1.632,0,0,1-1.259-.593l-7.135-8.63a1.633,1.633,0,1,1,2.518-2.082l5.659,6.844,10.235-17.18a1.634,1.634,0,1,1,2.807,1.672l-11.422,19.17a1.634,1.634,0,0,1-1.278.792Q1739.49,945.783,1739.428,945.783Z" transform="translate(-1730.66 -923.346)" fill="#2ff980"/>
            </g>
          </g>
          <g id="Grupo_82765" data-name="Grupo 82765" transform="translate(0 7.114)">
            <g id="Grupo_82762" data-name="Grupo 82762" transform="translate(14.27 0.263)">
              <g id="Grupo_82759" data-name="Grupo 82759">
                <rect id="Rectángulo_34307" data-name="Rectángulo 34307" width="51.362" height="2.256" fill="#583ae2"/>
              </g>
              <g id="Grupo_82760" data-name="Grupo 82760" transform="translate(0 10.075)">
                <rect id="Rectángulo_34308" data-name="Rectángulo 34308" width="47.335" height="2.256" fill="#583ae2"/>
              </g>
              <g id="Grupo_82761" data-name="Grupo 82761" transform="translate(0 5.038)">
                <rect id="Rectángulo_34309" data-name="Rectángulo 34309" width="14.001" height="2.256" transform="translate(37.361)" fill="#583ae2"/>
                <rect id="Rectángulo_34310" data-name="Rectángulo 34310" width="33.481" height="2.256" fill="#583ae2"/>
              </g>
            </g>
            <g id="Grupo_82764" data-name="Grupo 82764">
              <g id="Grupo_82763" data-name="Grupo 82763">
                <path id="Trazado_120631" data-name="Trazado 120631" d="M1179.553,971l-2.3.638-.474-1.824,3.428-1.094h1.569v12.857h-2.225Z" transform="translate(-1176.781 -968.717)" fill="#583ae2"/>
              </g>
              <path id="Trazado_120632" data-name="Trazado 120632" d="M1218.021,1041.175a.812.812,0,1,1,.812.812A.812.812,0,0,1,1218.021,1041.175Z" transform="translate(-1211.555 -1029.13)" fill="#583ae2"/>
            </g>
          </g>
        </g>
        <g id="Grupo_82778" data-name="Grupo 82778" transform="translate(14.309 79.75)">
          <g id="Grupo_82769" data-name="Grupo 82769" transform="translate(83.753)">
            <g id="Grupo_82767" data-name="Grupo 82767" transform="translate(0 3.964)">
              <path id="Trazado_120633" data-name="Trazado 120633" d="M1733.45,1192.034h-23.12v-23.12h23.12Zm-22.032-1.089h20.942V1170h-20.942Z" transform="translate(-1710.33 -1168.914)" fill="#583ae2"/>
            </g>
            <g id="Grupo_82768" data-name="Grupo 82768" transform="translate(3.367)">
              <path id="Trazado_120634" data-name="Trazado 120634" d="M1740.57,1166.067a1.634,1.634,0,0,1-1.259-.592l-7.135-8.631a1.634,1.634,0,0,1,2.518-2.081l5.658,6.845,10.236-17.18a1.633,1.633,0,1,1,2.806,1.672l-11.421,19.17a1.633,1.633,0,0,1-1.278.792C1740.653,1166.065,1740.612,1166.067,1740.57,1166.067Z" transform="translate(-1731.802 -1143.629)" fill="#2ff980"/>
            </g>
          </g>
          <g id="Grupo_82777" data-name="Grupo 82777" transform="translate(0 7.114)">
            <g id="Grupo_82771" data-name="Grupo 82771">
              <g id="Grupo_82770" data-name="Grupo 82770">
                <path id="Trazado_120635" data-name="Trazado 120635" d="M1176.15,1200.1l4.364-3.712c1.739-1.467,2.373-2.282,2.373-3.423a1.9,1.9,0,0,0-2.046-1.974c-1.159,0-1.956.634-2.934,1.9l-1.575-1.232c1.213-1.7,2.408-2.662,4.672-2.662,2.481,0,4.183,1.521,4.183,3.821,0,1.992-1.069,3.061-3.3,4.908l-2.608,2.173h6.03v1.956h-9.163Z" transform="translate(-1176.15 -1189)" fill="#583ae2"/>
              </g>
              <path id="Trazado_120636" data-name="Trazado 120636" d="M1244.211,1261.526a.806.806,0,1,1,.806.806A.806.806,0,0,1,1244.211,1261.526Z" transform="translate(-1233.54 -1249.475)" fill="#583ae2"/>
            </g>
            <g id="Grupo_82776" data-name="Grupo 82776" transform="translate(14.794 0.263)">
              <g id="Grupo_82775" data-name="Grupo 82775">
                <g id="Grupo_82772" data-name="Grupo 82772">
                  <rect id="Rectángulo_34311" data-name="Rectángulo 34311" width="53.973" height="2.256" fill="#583ae2"/>
                </g>
                <g id="Grupo_82773" data-name="Grupo 82773" transform="translate(0 10.075)">
                  <rect id="Rectángulo_34312" data-name="Rectángulo 34312" width="49.741" height="2.256" fill="#583ae2"/>
                </g>
                <g id="Grupo_82774" data-name="Grupo 82774" transform="translate(0 5.038)">
                  <rect id="Rectángulo_34313" data-name="Rectángulo 34313" width="14.713" height="2.256" transform="translate(39.26)" fill="#583ae2"/>
                  <rect id="Rectángulo_34314" data-name="Rectángulo 34314" width="35.183" height="2.256" fill="#583ae2"/>
                </g>
              </g>
            </g>
          </g>
        </g>
        <g id="Grupo_82789" data-name="Grupo 82789" transform="translate(14.148 114.543)">
          <g id="Grupo_82781" data-name="Grupo 82781" transform="translate(83.913)">
            <g id="Grupo_82779" data-name="Grupo 82779" transform="translate(0 3.964)">
              <path id="Trazado_120637" data-name="Trazado 120637" d="M1733.45,1413.943h-23.12v-23.12h23.12Zm-22.032-1.089h20.942v-20.942h-20.942Z" transform="translate(-1710.33 -1390.823)" fill="#583ae2"/>
            </g>
            <g id="Grupo_82780" data-name="Grupo 82780" transform="translate(3.367)">
              <path id="Trazado_120638" data-name="Trazado 120638" d="M1740.57,1387.977a1.633,1.633,0,0,1-1.259-.593l-7.135-8.63a1.634,1.634,0,0,1,2.518-2.081l5.658,6.845,10.236-17.18a1.633,1.633,0,1,1,2.806,1.672l-11.421,19.17a1.634,1.634,0,0,1-1.278.793C1740.653,1387.975,1740.612,1387.977,1740.57,1387.977Z" transform="translate(-1731.802 -1365.539)" fill="#2ff980"/>
            </g>
          </g>
          <g id="Grupo_82786" data-name="Grupo 82786" transform="translate(14.954 7.377)">
            <g id="Grupo_82785" data-name="Grupo 82785">
              <g id="Grupo_82782" data-name="Grupo 82782">
                <rect id="Rectángulo_34315" data-name="Rectángulo 34315" width="53.973" height="2.256" fill="#583ae2"/>
              </g>
              <g id="Grupo_82783" data-name="Grupo 82783" transform="translate(0 10.075)">
                <rect id="Rectángulo_34316" data-name="Rectángulo 34316" width="49.741" height="2.256" fill="#583ae2"/>
              </g>
              <g id="Grupo_82784" data-name="Grupo 82784" transform="translate(0 5.038)">
                <rect id="Rectángulo_34317" data-name="Rectángulo 34317" width="14.713" height="2.256" transform="translate(39.26)" fill="#583ae2"/>
                <rect id="Rectángulo_34318" data-name="Rectángulo 34318" width="35.183" height="2.256" fill="#583ae2"/>
              </g>
            </g>
          </g>
          <g id="Grupo_82788" data-name="Grupo 82788" transform="translate(0 7.234)">
            <g id="Grupo_82787" data-name="Grupo 82787">
              <path id="Trazado_120639" data-name="Trazado 120639" d="M1175.126,1422.113l1.524-1.418a4.047,4.047,0,0,0,3.261,1.63,1.947,1.947,0,0,0,2.144-1.914c0-1.223-1.116-1.914-2.853-1.914h-1.01l-.354-1.364,3.349-3.562h-5.37v-1.9h8.2v1.63l-3.455,3.544c1.967.283,3.65,1.293,3.65,3.526,0,2.286-1.772,3.916-4.342,3.916A5.879,5.879,0,0,1,1175.126,1422.113Z" transform="translate(-1175.126 -1411.676)" fill="#583ae2"/>
            </g>
            <path id="Trazado_120640" data-name="Trazado 120640" d="M1237.09,1482.873a.789.789,0,1,1,.789.789A.789.789,0,0,1,1237.09,1482.873Z" transform="translate(-1227.375 -1471.045)" fill="#583ae2"/>
          </g>
        </g>
        <g id="Grupo_82794" data-name="Grupo 82794" transform="translate(65.342 141.627)">
          <g id="Grupo_82790" data-name="Grupo 82790" transform="translate(4.319 15.109)">
            <path id="Trazado_120641" data-name="Trazado 120641" d="M1538.812,1643.289a9.835,9.835,0,0,1-9.607-7.83.672.672,0,0,1,1.316-.269,8.465,8.465,0,0,0,16.565.079.672.672,0,0,1,1.313.283A9.853,9.853,0,0,1,1538.812,1643.289Z" transform="translate(-1529.191 -1634.652)" fill="#583ae2"/>
          </g>
          <g id="Grupo_82791" data-name="Grupo 82791" transform="translate(4.3 4.134)">
            <path id="Trazado_120642" data-name="Trazado 120642" d="M1529.745,1573.381a.646.646,0,0,1-.128-.012.671.671,0,0,1-.532-.787,9.808,9.808,0,0,1,19.138-.52.672.672,0,0,1-1.3.327,8.465,8.465,0,0,0-16.516.449A.672.672,0,0,1,1529.745,1573.381Z" transform="translate(-1529.073 -1564.65)" fill="#583ae2"/>
          </g>
          <g id="Grupo_82792" data-name="Grupo 82792">
            <path id="Trazado_120643" data-name="Trazado 120643" d="M1515.584,1566.164a13.94,13.94,0,1,1,13.94-13.94A13.955,13.955,0,0,1,1515.584,1566.164Zm0-25.97a12.03,12.03,0,1,0,12.03,12.03A12.044,12.044,0,0,0,1515.584,1540.194Z" transform="translate(-1501.645 -1538.285)" fill="#583ae2"/>
          </g>
          <g id="Grupo_82793" data-name="Grupo 82793" transform="translate(9.876 12.194)">
            <rect id="Rectángulo_34319" data-name="Rectángulo 34319" width="5.521" height="0.884" transform="translate(1.303)" fill="#583ae2"/>
            <rect id="Rectángulo_34320" data-name="Rectángulo 34320" width="5.521" height="0.884" transform="translate(1.303 3.616)" fill="#583ae2"/>
            <rect id="Rectángulo_34321" data-name="Rectángulo 34321" width="8.127" height="0.884" transform="translate(0 1.746)" fill="#583ae2"/>
          </g>
        </g>
      </g>
      <g id="Grupo_82799" data-name="Grupo 82799" transform="translate(347.051 282.484)">
        <path id="Trazado_120644" data-name="Trazado 120644" d="M1013.746,1228.765s.434-.976.716-1.439,1.482-1.817,1.687-1.51,1.022,2.371.588,2.949.028,1.584-2.133,2.193Z" transform="translate(-969.962 -1199.223)" fill="#ffb27d"/>
        <path id="Trazado_120645" data-name="Trazado 120645" d="M860.564,1205.54s11.063,9.235,15.377,8.38a85.043,85.043,0,0,0,8.55-2.444l1.035,2.648s-4.643,6.3-9.483,6.339a27.575,27.575,0,0,1-13.156-3.276Z" transform="translate(-840.797 -1182.163)" fill="#40327b"/>
        <path id="Trazado_120646" data-name="Trazado 120646" d="M736.814,1817.852s.321,5.18,1.323,5.255c.133.01,5.084.01,5.084.01l6.319-.037a2.051,2.051,0,0,0-1.889-1.844c-1.847-.322-4.939-1.62-6.058-4.061C740.417,1814.606,736.814,1817.852,736.814,1817.852Z" transform="translate(-736.45 -1697.067)" fill="#1c4b8e"/>
        <path id="Trazado_120647" data-name="Trazado 120647" d="M734.49,1485.126a13.171,13.171,0,0,0,3.421.643,12.557,12.557,0,0,0,3.194-.456,87.428,87.428,0,0,1,2.352-11.2c1.044-4.039,2.534-9.233,4.654-15.686,5.862-17.836,7.644-28.27,7.807-29.258.009-.052.012-.078.012-.078l-.019-.009-18.021-7.913s2.227,24.582-.614,34.017a39.777,39.777,0,0,0-1.031,4.521C734.449,1469.952,734.49,1485.126,734.49,1485.126Z" transform="translate(-734.49 -1363.982)" fill="#ffa561"/>
        <path id="Trazado_120648" data-name="Trazado 120648" d="M758.339,1474.109c1.044-4.039,2.534-9.233,4.654-15.686,5.862-17.836,7.644-28.27,7.807-29.258,0-.03,0-.057-.007-.087l-18.021-7.913s2.227,24.582-.614,34.017C751.759,1456.5,758.339,1474.109,758.339,1474.109Z" transform="translate(-749.373 -1363.982)" fill="#f4904d"/>
        <path id="Trazado_120649" data-name="Trazado 120649" d="M826.587,1817.852s.321,5.18,1.324,5.255c.133.01,5.084.01,5.084.01l6.32-.037a2.051,2.051,0,0,0-1.889-1.844c-1.847-.322-4.939-1.62-6.058-4.061C830.19,1814.606,826.587,1817.852,826.587,1817.852Z" transform="translate(-812.147 -1697.067)" fill="#1c4b8e"/>
        <path id="Trazado_120650" data-name="Trazado 120650" d="M788.708,1424.861a256.524,256.524,0,0,1-2.522,35.487c-2.756,19.558-1.822,27.86-1.822,27.86a18.82,18.82,0,0,1-2.658.676,12.066,12.066,0,0,1-3.943-.456s-3.945-19.565-2.814-29.355-5.4-33.592-5.4-33.592Z" transform="translate(-764.051 -1367.098)" fill="#ffa561"/>
        <path id="Trazado_120651" data-name="Trazado 120651" d="M810.253,1144.76l3.518,2.307,3.2-.906a7.657,7.657,0,0,0,.75-3.842,23.934,23.934,0,0,0-.126-2.558l-4.746-2.095-1.771-.78c.005.027.138,1.454.157,1.662A12.115,12.115,0,0,1,810.253,1144.76Z" transform="translate(-798.374 -1124.273)" fill="#ffb27d"/>
        <path id="Trazado_120652" data-name="Trazado 120652" d="M772.827,1221.626c-4.379,4.228-20.949,3.516-21.97-1.141s1.114-39.65,8.593-41.848c1.552-.456,9.85,2.226,9.85,2.226a52.633,52.633,0,0,1,2.156,7.742c.166.844.649,9.786,1.011,18.152.169,3.912.312,7.7.385,10.473A30.214,30.214,0,0,1,772.827,1221.626Z" transform="translate(-748.09 -1159.434)" fill="#583ae2"/>
        <path id="Trazado_120653" data-name="Trazado 120653" d="M818.074,1142.807c.963,1.628,4.341,3.053,6.131,3.705a23.949,23.949,0,0,0-.126-2.558l-4.746-2.095C818.285,1141.846,817.645,1142.081,818.074,1142.807Z" transform="translate(-804.856 -1128.467)" fill="#fca56b"/>
        <path id="Trazado_120654" data-name="Trazado 120654" d="M811.167,1085.692s-7.647,2.385-9.059-2.4-3.35-7.7,1.472-9.425,6.314-.181,7.174,1.3S813.12,1084.948,811.167,1085.692Z" transform="translate(-790.153 -1070.494)" fill="#ffb27d"/>
        <path id="Trazado_120655" data-name="Trazado 120655" d="M792.562,1060.657s-.488,5.568-1.639,5.327-2.419-.759-2.25.919-1.12,4.556-2.78,4.549c-3.561-.015-7.431-9.153-6.456-10.886C782.25,1055.566,796.628,1054.557,792.562,1060.657Z" transform="translate(-772.261 -1056.442)" fill="#163560"/>
        <path id="Trazado_120656" data-name="Trazado 120656" d="M814.761,1167.061c-.1-.042-5.693-2.551-6.347-2.335s-1.47,2.214-1.47,2.214l9.85,2.227A4.891,4.891,0,0,0,814.761,1167.061Z" transform="translate(-795.585 -1147.738)" fill="#40327b"/>
        <g id="Grupo_82797" data-name="Grupo 82797" transform="translate(19.712 3.526)">
          <path id="Trazado_120657" data-name="Trazado 120657" d="M894.5,1336.406l-31.358,29.524c-.615.579-1.39.763-1.722.41l-1.059-1.124c-.333-.353-.1-1.116.513-1.694L892.236,1334c.615-.579,1.39-.763,1.722-.41l1.058,1.124C895.35,1335.065,895.119,1335.827,894.5,1336.406Z" transform="translate(-860.213 -1293.509)" fill="#40327b"/>
          <path id="Trazado_120658" data-name="Trazado 120658" d="M876.907,1445.248l-13.76,12.956c-.615.579-1.39.763-1.722.41l-1.059-1.124c-.333-.353-.1-1.116.513-1.694l13.761-12.956Z" transform="translate(-860.213 -1385.783)" fill="#241855"/>
          <path id="Trazado_120659" data-name="Trazado 120659" d="M1027.223,1110.684a24.578,24.578,0,1,0,40.738-24.7c-.126-.126-.255-.25-.386-.372a24.58,24.58,0,0,0-40.352,25.072Zm7.025-22.684a22.639,22.639,0,1,1,.975,32A22.611,22.611,0,0,1,1034.248,1088Z" transform="translate(-1000.139 -1078.934)" fill="#40327b"/>
          <g id="Grupo_82796" data-name="Grupo 82796" transform="translate(27.957 1.94)" opacity="0.5">
            <path id="Trazado_120660" data-name="Trazado 120660" d="M1077.653,1129.459a22.639,22.639,0,1,1-.976-32A22.542,22.542,0,0,1,1077.653,1129.459Z" transform="translate(-1038.528 -1091.31)" fill="#b3cff9"/>
          </g>
        </g>
        <path id="Trazado_120661" data-name="Trazado 120661" d="M807.069,1270.49c-17.278-12.312-15.842-28.741-15.842-28.741,6.315,3.562,12.582,11.437,15.457,18.269C806.853,1263.93,807,1267.718,807.069,1270.49Z" transform="translate(-782.307 -1212.695)" fill="#40327b"/>
        <g id="Grupo_82798" data-name="Grupo 82798" transform="translate(8.56 21.429)">
          <path id="Trazado_120662" data-name="Trazado 120662" d="M990.064,1381.973a4.714,4.714,0,0,0,2.207-1.364s.52.036-.085,1.144c-.051.093-.163.331-.248.5a.107.107,0,0,0,.09.155,11.5,11.5,0,0,1,2.765.058c.187.039.241.487.234.677a1.729,1.729,0,0,1-.364,1.18,6.037,6.037,0,0,1-2.183,1.144,6.6,6.6,0,0,1-3.378-.424l-1.106-.512.343-2.056.278.058C989.057,1382.624,989.6,1382.085,990.064,1381.973Z" transform="translate(-956.808 -1351.213)" fill="#ffb27d"/>
          <path id="Trazado_120663" data-name="Trazado 120663" d="M794.809,1193.121s-15.525,2.956,4.568,25.438c3.214,3.6,20.575,8.277,20.575,8.277s1.761-1.5.873-2.711c0,0-11.954-8.681-14.584-10.061-1.183-.621-4.592-13.855-6.521-17.042A8.7,8.7,0,0,0,794.809,1193.121Z" transform="translate(-789.086 -1193.121)" fill="#583ae2"/>
        </g>
        <path id="Trazado_120664" data-name="Trazado 120664" d="M1016.431,1226.257a7.913,7.913,0,0,0,.607-1.482,8.2,8.2,0,0,1,1-2.268c.106-.105.453.031.494.484a2.636,2.636,0,0,1-.249.982,11.073,11.073,0,0,0-.329,1.951C1017.716,1226.706,1016.431,1226.257,1016.431,1226.257Z" transform="translate(-972.226 -1196.442)" fill="#ffb27d"/>
      </g>
      <g id="Grupo_82801" data-name="Grupo 82801" transform="translate(442.532 391.67)">
        <path id="Trazado_120665" data-name="Trazado 120665" d="M1343.475,1779.177a6.054,6.054,0,0,0,.049.78,6.4,6.4,0,0,0,6.356,5.624h90.079a6.406,6.406,0,0,0,0-12.811H1349.88A6.405,6.405,0,0,0,1343.475,1779.177Z" transform="translate(-1343.475 -1769.646)" fill="#2b478b"/>
        <path id="Trazado_120666" data-name="Trazado 120666" d="M1382.01,1754.806h30.885a.986.986,0,0,0,.983-.983h0a.986.986,0,0,0-.983-.983H1382.01a.986.986,0,0,0-.983.983h0A.986.986,0,0,0,1382.01,1754.806Z" transform="translate(-1375.139 -1752.84)" fill="#2b478b"/>
        <rect id="Rectángulo_34322" data-name="Rectángulo 34322" width="3.348" height="1.16" transform="translate(11.924 3.126) rotate(180)" fill="#233862"/>
        <path id="Trazado_120667" data-name="Trazado 120667" d="M1348.432,1833.172a6.412,6.412,0,0,0,5.628,3.341h19.08v-3.341Z" transform="translate(-1347.655 -1820.577)" fill="#233862"/>
        <path id="Trazado_120668" data-name="Trazado 120668" d="M1522.421,1777.3v3.752a4.526,4.526,0,0,1-4.528,4.529h-93.833a4.527,4.527,0,0,1-4.528-4.529V1777.3a4.528,4.528,0,0,1,4.528-4.529h93.833A4.528,4.528,0,0,1,1522.421,1777.3Z" transform="translate(-1407.608 -1769.647)" fill="#40327b"/>
        <path id="Trazado_120669" data-name="Trazado 120669" d="M1523.113,1833.172a4.528,4.528,0,0,1-4.37,3.341H1424.91a4.527,4.527,0,0,1-4.37-3.341Z" transform="translate(-1408.457 -1820.577)" fill="#2f2363"/>
        <g id="Grupo_82800" data-name="Grupo 82800" transform="translate(105.494 3.125)">
          <path id="Trazado_120670" data-name="Trazado 120670" d="M2016.323,1779.2a7.122,7.122,0,0,0,1.863,4.946l.076.078a4.546,4.546,0,0,0,3.215,1.4c1.9,0,6.608-2.866,9.525-4.769,1.454-.949,2.464-1.658,2.464-1.658s-1.01-.71-2.464-1.659c-2.918-1.9-7.626-4.77-9.525-4.77a4.254,4.254,0,0,0-1.577.3,5.166,5.166,0,0,0-2.172,1.714,7.074,7.074,0,0,0-1.3,3.135.317.317,0,0,0,0,.042A7.905,7.905,0,0,0,2016.323,1779.2Z" transform="translate(-2016.323 -1772.771)" fill="#8c9df4"/>
          <path id="Trazado_120671" data-name="Trazado 120671" d="M2016.323,1807.142a7.121,7.121,0,0,0,1.863,4.946l14.442-4.968-16.209-1.211A7.907,7.907,0,0,0,2016.323,1807.142Z" transform="translate(-2016.323 -1800.713)" fill="#6980e2"/>
          <path id="Trazado_120672" data-name="Trazado 120672" d="M2025.285,1776.432l14.407,3.934-12.235-5.648A5.159,5.159,0,0,0,2025.285,1776.432Z" transform="translate(-2023.88 -1774.413)" fill="#9fb1ff"/>
          <path id="Trazado_120673" data-name="Trazado 120673" d="M2103.953,1804.856a1.778,1.778,0,0,0,.94,1.659c1.454-.949,2.464-1.659,2.464-1.659s-1.01-.709-2.464-1.658A1.774,1.774,0,0,0,2103.953,1804.856Z" transform="translate(-2090.214 -1798.427)" fill="#182d4c"/>
        </g>
      </g>
      <g id="Grupo_82803" data-name="Grupo 82803" transform="translate(551.431 283.418)">
        <path id="Trazado_120674" data-name="Trazado 120674" d="M2164.714,1063.1a5.436,5.436,0,0,0-4.3-.46c-7.3-.857-9.431,7.657-9.332,10.587s.433,6.076-2.827,9.882c-9.418,10.994,10.306,11.479,10.306,11.479.167-8.784,10.7-5.579,10.235-4.689C2182.3,1093.141,2170.14,1065.917,2164.714,1063.1Z" transform="translate(-2128.827 -1062.401)" fill="#163560"/>
        <path id="Trazado_120675" data-name="Trazado 120675" d="M2045.761,1276.738s-1.284-1.955-2.319-1.993-2.951-.575-2.8-.192,1.341.421,1.457.652-1.763.575-2.3.613-1.8,0-1.763.268a6.087,6.087,0,0,0,3.861,1.227,10.721,10.721,0,0,1,3.536.46Z" transform="translate(-2038.038 -1241.175)" fill="#ffb27d"/>
        <path id="Trazado_120676" data-name="Trazado 120676" d="M2101.673,1209.319a19.215,19.215,0,0,1-1.964,2.97c-1.526,1.911-3.878,4.119-6.832,4.554a7.334,7.334,0,0,1-4.059-.659h0a18.506,18.506,0,0,1-6.284-5.254,2.948,2.948,0,0,1,.4-2.894s7.244,1.629,7.933,1.284,4.931-9.754,5.7-11.321a8.591,8.591,0,0,1,4.2-4.286Z" transform="translate(-2075.382 -1173.123)" fill="#45bbcc"/>
        <path id="Trazado_120677" data-name="Trazado 120677" d="M2134.633,1291.555c-1.526,1.911-3.878,4.119-6.832,4.554a7.334,7.334,0,0,1-4.058-.659c.14.018,3.723.461,5.151-2.094,1.457-2.607,3.032-6.746,5.2-5.366C2135.023,1288.587,2134.982,1290.066,2134.633,1291.555Z" transform="translate(-2110.305 -1252.39)" fill="#107c8b"/>
        <path id="Trazado_120678" data-name="Trazado 120678" d="M2335.024,1786.812s2.21,2.017,1.779,3.45-2.426,2.389-2.7,4.14-1.348,2.707-2.318,2.707h-4.626s-.714-1.232,1.011-1.6,2.375-2.43,2.268-4.341a33.68,33.68,0,0,1,.163-4.458l3.666-.849Z" transform="translate(-2281.709 -1672.427)" fill="#1c4b8e"/>
        <path id="Trazado_120679" data-name="Trazado 120679" d="M2191.042,1797.412s.8,8.545-.175,9.023l-12.418-.026s0-1.433,2-1.751,5.5-1.486,6.091-4.087S2191.042,1797.412,2191.042,1797.412Z" transform="translate(-2156.434 -1682.172)" fill="#1c4b8e"/>
        <path id="Trazado_120680" data-name="Trazado 120680" d="M2199.035,1198.04a49.457,49.457,0,0,1,0,5.74c-.123,2.075-2.223,4.855-2.521,5.543-.748,1.725-1.59,2.005-1.59,2.005l-6.52,1.6-2.293.561-7.229-2.159s-3.292-9.191-1.97-14.365a39.741,39.741,0,0,1,3.342-8.767s4.9-1.934,13.581-.49Z" transform="translate(-2154.874 -1167.608)" fill="#45bbcc"/>
        <path id="Trazado_120681" data-name="Trazado 120681" d="M2245.39,1287.218a20.32,20.32,0,0,1-.612,4.7c-.748,1.725-1.59,2.005-1.59,2.005l-6.52,1.6-2.832-.833s9.453-1.432,8.406-9.566Z" transform="translate(-2203.137 -1250.199)" fill="#f2ccaa"/>
        <path id="Trazado_120682" data-name="Trazado 120682" d="M2173.577,1350.145s-3.581,11.144-3.811,14.938,6.844,53.9,7.129,55.647c.268,1.648,2.314,2.7,2.314,2.7a3.1,3.1,0,0,0,2.284.176,5.652,5.652,0,0,0,2.453-1.156s2.787-35.735,1.062-48.5a202.251,202.251,0,0,1-1.745-23.8Z" transform="translate(-2149.109 -1305.03)" fill="#6980e2"/>
        <path id="Trazado_120683" data-name="Trazado 120683" d="M2215.6,1348.025s5.461,7.328,5.97,12.281.8,22.353,1.884,27.182,5.07,14.122,5.07,29.183a3.006,3.006,0,0,1-1.694,1.323,13.819,13.819,0,0,1-1.489.412,2.341,2.341,0,0,1-2.619-1.243c-2.694-5.425-11.277-22.921-11.717-26.553-.311-2.57-3.021-19.581-8.932-29.562-1.42-2.4.871-11.927.871-11.927Z" transform="translate(-2175.968 -1303.243)" fill="#8c9df4"/>
        <path id="Trazado_120684" data-name="Trazado 120684" d="M2189.356,1339.172a7.508,7.508,0,0,0,4.293,1.194c3.41.068,11.861-.87,11.861-.87a6.993,6.993,0,0,1,.36,2.157s-10.322,2.6-16.3.38A3.781,3.781,0,0,1,2189.356,1339.172Z" transform="translate(-2165.46 -1295.778)" fill="#233862"/>
        <g id="Grupo_82802" data-name="Grupo 82802" transform="translate(25.814 44.005)">
          <path id="Trazado_120685" data-name="Trazado 120685" d="M2204.24,1346.59a1.775,1.775,0,1,1,1.556-1.761A1.67,1.67,0,0,1,2204.24,1346.59Zm0-3.007a1.266,1.266,0,1,0,1.041,1.246A1.158,1.158,0,0,0,2204.24,1343.583Z" transform="translate(-2202.684 -1343.067)" fill="#fff"/>
        </g>
        <path id="Trazado_120686" data-name="Trazado 120686" d="M2241.809,1278.351l-8.381,7.3a1.455,1.455,0,0,1-2.052-.142l-10.694-12.282a1.454,1.454,0,0,1,.141-2.051l8.382-7.3a1.454,1.454,0,0,1,2.051.142l10.695,12.282A1.454,1.454,0,0,1,2241.809,1278.351Z" transform="translate(-2191.744 -1231.985)" fill="#583ae2"/>
        <path id="Trazado_120687" data-name="Trazado 120687" d="M2254.322,1352.244c-.12.031-4.452.541-4.453,1.436a2.694,2.694,0,0,0,2.467,2.357c.485-.026,2.721-2.082,2.721-2.082Z" transform="translate(-2216.657 -1306.8)" fill="#ffb27d"/>
        <path id="Trazado_120688" data-name="Trazado 120688" d="M2228.193,1159.217a14.419,14.419,0,0,1-.773-5.271l-.327.065-5.5,1.09s.125,1.732.129,3.364c0,.014,0,.027,0,.041.007,1.417-.958,2.839,1.316,3.4C2223.736,1162.08,2229.229,1161.728,2228.193,1159.217Z" transform="translate(-2192.753 -1139.593)" fill="#ffb27d"/>
        <path id="Trazado_120689" data-name="Trazado 120689" d="M2221.957,1155.447s.125,1.732.129,3.364c3.08-.087,4.708-2.9,5.375-4.454Z" transform="translate(-2193.12 -1139.939)" fill="#e8945b"/>
        <path id="Trazado_120690" data-name="Trazado 120690" d="M2202.344,1105.033s7.288.12,7.292-4.419.949-7.581-3.7-7.85-5.559,1.463-5.928,2.977S2200.448,1104.885,2202.344,1105.033Z" transform="translate(-2174.537 -1087.98)" fill="#ffb27d"/>
        <path id="Trazado_120691" data-name="Trazado 120691" d="M2217.116,1087.243s2,5.325,5.057,6.113,4.391-.033,4.391-.033a8.671,8.671,0,0,1-2.836-5.123S2218.621,1084.708,2217.116,1087.243Z" transform="translate(-2189.039 -1082.57)" fill="#163560"/>
        <path id="Trazado_120692" data-name="Trazado 120692" d="M2200.427,1090.292a4.522,4.522,0,0,0-2.089,1.632,7.343,7.343,0,0,0-.985,4.167s-1.5-3.619.186-5.667C2199.331,1088.254,2200.427,1090.292,2200.427,1090.292Z" transform="translate(-2171.855 -1085.187)" fill="#163560"/>
        <path id="Trazado_120693" data-name="Trazado 120693" d="M2262.459,1350.877a4.958,4.958,0,0,0-1.733-.236c-.694.1-1.207-.014-1.207.181s.9.285,1.086.379A9.473,9.473,0,0,0,2262.459,1350.877Z" transform="translate(-2224.794 -1305.434)" fill="#ffb27d"/>
        <path id="Trazado_120694" data-name="Trazado 120694" d="M2273.907,1190.587s5.173.362,7.156,5.183,5.745,12.914,5.745,14.275-2.1,5.559-13.388,7.972c0,0-1.167-1.228-1.1-2.2,0,0,7.046-6.052,7.027-6.759-.036-1.338-1.155-3.1-7.341-9.292C2270.327,1198.085,2273.907,1190.587,2273.907,1190.587Z" transform="translate(-2234.947 -1170.489)" fill="#45bbcc"/>
      </g>
      <g id="Grupo_82807" data-name="Grupo 82807" transform="translate(395.646 160.093)">
        <g id="Grupo_82804" data-name="Grupo 82804" transform="translate(0 0)">
          <path id="Trazado_120695" data-name="Trazado 120695" d="M1101.662,275.949s-4.15-.7-6.781,1.286-3.052,1.345-4.537,2.573.035,2.69-.784,3.508-.85,2.4.364,2.807.4,2.631,3.027,2.923,1.452,1.51,3.948,1.7,4.56.271,5.875.823a2.078,2.078,0,0,0,2.884-1.02c.376-1,1.428.29,1.736-1.079s-.79-1.91-.176-3.021S1109.35,277.44,1101.662,275.949Z" transform="translate(-1081.991 -275.829)" fill="#233862"/>
          <path id="Trazado_120696" data-name="Trazado 120696" d="M1214.283,734.961a1.026,1.026,0,0,0-.175,1.1.011.011,0,0,0,0,.005,6.817,6.817,0,0,0,2.17,2.347c.13.1.246.2.348.286l.078.069.06.054c.953.866.6,1.068,2.311,2.827,1.953,2,3.289,2.031,3.667,1.844.32-.159-.34-1.224-1.072-2.422-.036-.058-.07-.116-.106-.175-.1-.159-.194-.321-.291-.481-.858-1.441-.645-2.122-.459-4.278.151-1.752,2.654-9.8,2.654-9.8l-3.72-.614s-1.074,6.4-2.3,7.394c-.656.529-1.393.541-2.024.935-.045.027-.089.055-.131.084A4.879,4.879,0,0,0,1214.283,734.961Z" transform="translate(-1187.433 -655.185)" fill="#ffb27d"/>
          <path id="Trazado_120697" data-name="Trazado 120697" d="M1214.283,779.755a1.026,1.026,0,0,0-.175,1.1.012.012,0,0,0,0,.005,7.89,7.89,0,0,0,2.173,2.34c.129.106.243.2.344.293l.078.069.06.054c.953.866.6,1.068,2.311,2.827,1.953,2,3.289,2.031,3.667,1.844.32-.159-.34-1.224-1.072-2.422a8.261,8.261,0,0,1-3.474-2.523c-1.178-1.482-1.971-3.39-2.773-4.494-.045.027-.089.055-.131.084A4.873,4.873,0,0,0,1214.283,779.755Z" transform="translate(-1187.433 -699.979)" fill="#233862"/>
          <path id="Trazado_120698" data-name="Trazado 120698" d="M1390.4,725.4c.238,1.145,1.871.942,3.695.483s1.393.074,3.991-.232,3.379-1.281,3.455-1.668c.069-.344-1.217-.455-2.6-.6-.173-.018-.348-.038-.522-.058-1.557-.184-2.7-1.18-4.122-1.995-1.344-.771-3.364-3.939-3.364-3.939l-3.564.307s1.891,2.828,2.624,4.059a4.305,4.305,0,0,1,.367,2.427A4.6,4.6,0,0,0,1390.4,725.4Z" transform="translate(-1333.604 -648.153)" fill="#ffb27d"/>
          <path id="Trazado_120699" data-name="Trazado 120699" d="M1410.054,758.1c1.823-.459,1.393.075,3.991-.232s3.379-1.281,3.455-1.668c.069-.344-1.217-.455-2.6-.6l-.013.027a7.329,7.329,0,0,1-3.715,1.183c-1.763.055-3.635-.437-4.853-.409a4.594,4.594,0,0,0,.036,1.219C1406.6,758.766,1408.23,758.563,1410.054,758.1Z" transform="translate(-1349.564 -680.378)" fill="#233862"/>
          <path id="Trazado_120700" data-name="Trazado 120700" d="M1253.461,593.152l-3.27,8.992-4.268,11.741a7.046,7.046,0,0,1-2.313-.2,10.024,10.024,0,0,1-2.243-1.072s1.12-12.582,3.323-19.815a12.842,12.842,0,0,1,1.91-4.208C1250.064,584.44,1253.461,593.152,1253.461,593.152Z" transform="translate(-1210.49 -538.61)" fill="#ed7d2b"/>
          <path id="Trazado_120701" data-name="Trazado 120701" d="M1123.591,524.5c-2.188-.689-8.41.259-14.657,1.528l-1.325-2.151-13.52-.96s-4.233,9.365-1.9,16.2c.452,1.327,2.617,1.373,2.617,1.374s7.921.087,10.532.068c6.719-.047,14.188-4.72,15.158-4.92,1.586-.329,2.244,2.843,3.856,6.168s15.035,14.667,15.035,14.667a11.745,11.745,0,0,0,2.9-.318,2.853,2.853,0,0,0,1.239-.794S1128.526,526.055,1123.591,524.5Z" transform="translate(-1084.108 -484.178)" fill="#f99746"/>
          <path id="Trazado_120702" data-name="Trazado 120702" d="M1131.631,355.641a6.36,6.36,0,0,1-3.964.15c-1.507-.653-2.663-3.117-2.64-3.119.683-.037,1.429-.639,1.979-4.565l.292.1,4.906,1.726s-.344,1.573-.562,3.069C1131.458,354.262,1131.363,355.465,1131.631,355.641Z" transform="translate(-1112.391 -336.775)" fill="#ffb27d"/>
          <path id="Trazado_120703" data-name="Trazado 120703" d="M1144.423,350.486s-.209,1.1-.5,2.677a5.716,5.716,0,0,1-4.407-4.4Z" transform="translate(-1124.609 -337.325)" fill="#ed975d"/>
          <path id="Trazado_120704" data-name="Trazado 120704" d="M1142.48,306.426s-6.7-.852-6.108-5.017.13-7.081,4.434-6.713,4.907,2.075,5.047,3.514S1144.239,306.54,1142.48,306.426Z" transform="translate(-1121.926 -291.712)" fill="#ffb27d"/>
          <path id="Trazado_120705" data-name="Trazado 120705" d="M1135.163,293.925s-4.26,3.724-7.174,4.042-4.024-.61-4.024-.61a11.388,11.388,0,0,0,2.726-3.749,2.049,2.049,0,0,1,1.681-1.22C1130.454,292.195,1134.4,292.085,1135.163,293.925Z" transform="translate(-1111.496 -289.706)" fill="#233862"/>
          <path id="Trazado_120706" data-name="Trazado 120706" d="M1178.278,296.383a10.545,10.545,0,0,1,1.9,2.4,8.1,8.1,0,0,1,.25,4.307s2.2-4.36.924-6.462C1180,294.4,1178.278,296.383,1178.278,296.383Z" transform="translate(-1157.293 -292.476)" fill="#233862"/>
          <path id="Trazado_120707" data-name="Trazado 120707" d="M1106.895,389.144c-.107,13.555.02,10.722-1.453,12.018a5.7,5.7,0,0,1-2.679.6c-4.154.305-11.464-.328-11.748-1.094-.977-2.651-.307-3.481-1.135-7.544-.087-.432-.193-.9-.318-1.409-.687-2.79-1.342-3.736.992-8.242,2.117-4.082,4.322-7.4,4.523-7.28,5.684,3.32,6.121.493,6.121.493S1106.947,382.533,1106.895,389.144Z" transform="translate(-1081.946 -360.455)" fill="#583ae2"/>
          <path id="Trazado_120708" data-name="Trazado 120708" d="M1250.192,630.814l-4.268,11.741a7.046,7.046,0,0,1-2.313-.2,10.024,10.024,0,0,1-2.243-1.072s1.12-12.582,3.323-19.815Z" transform="translate(-1210.49 -567.28)" fill="#f99746"/>
          <path id="Trazado_120709" data-name="Trazado 120709" d="M1167.222,379.348s5.831.946,6.533,3.449,4.83,17.216,4.83,17.216-2.957.553-4.335-.805-4.849-12.657-4.849-12.657Z" transform="translate(-1147.97 -363.118)" fill="#583ae2"/>
          <path id="Trazado_120710" data-name="Trazado 120710" d="M1107.915,462.4c-4.154.305-11.465-.328-11.748-1.094-.977-2.651-.307-3.481-1.135-7.544l1.965-5.659s-.287,6.288,1.578,7.928,7.612,3.138,8.523,4.513A5.059,5.059,0,0,1,1107.915,462.4Z" transform="translate(-1087.098 -421.096)" fill="#40327b"/>
          <path id="Trazado_120711" data-name="Trazado 120711" d="M1146.708,519.073s4.094-.942,4.758-.582a9.635,9.635,0,0,1,2.5,2.132c.205.46-1.476-.34-2.022-.482a4.852,4.852,0,0,0-1.739.394,5.787,5.787,0,0,1-3.119.335Z" transform="translate(-1130.672 -480.375)" fill="#ffb27d"/>
          <path id="Trazado_120712" data-name="Trazado 120712" d="M1057.559,376.192s-5.5.378-7.39,3.049c-2.656,3.761-7.865,19.745-4.8,21.85,3.452,2.371,15.637.516,15.637.516a4.955,4.955,0,0,0-.178-2.814c-.572-.914-9.76-2.332-10.186-2.752s5.237-8.3,5.228-9.568S1057.559,376.192,1057.559,376.192Z" transform="translate(-1044.431 -360.456)" fill="#583ae2"/>
          <path id="Trazado_120713" data-name="Trazado 120713" d="M1178.371,526.2a7.93,7.93,0,0,0,1.15,1.233.839.839,0,0,0,.464.1l-.586-1.038Z" transform="translate(-1157.371 -486.944)" fill="#ffb27d"/>
          <path id="Trazado_120714" data-name="Trazado 120714" d="M1177.054,518.93l2.506,1.2a.445.445,0,0,1-.413.163,5.949,5.949,0,0,1-1.085-.29Z" transform="translate(-1156.26 -480.815)" fill="#ffb27d"/>
        </g>
        <g id="Grupo_82806" data-name="Grupo 82806" transform="translate(15.51 27.315)">
          <g id="Grupo_82805" data-name="Grupo 82805">
            <path id="Trazado_120715" data-name="Trazado 120715" d="M1182.294,465.005l19.758-.139,5.839-14.822-19.728.139Z" transform="translate(-1176.189 -450.044)" fill="#233862"/>
            <path id="Trazado_120716" data-name="Trazado 120716" d="M1169.447,540.9l-26.09.184,0,.576,25.859-.182Z" transform="translate(-1143.356 -526.651)" fill="#233862"/>
          </g>
          <path id="Trazado_120717" data-name="Trazado 120717" d="M1265.853,492.636a.684.684,0,0,0-.678-.936,1.348,1.348,0,0,0-1.2.949.685.685,0,0,0,.677.936A1.348,1.348,0,0,0,1265.853,492.636Z" transform="translate(-1245.03 -485.169)" fill="#ebf3fa"/>
        </g>
      </g>
    </g>
  </g>
</svg>
