<svg xmlns="http://www.w3.org/2000/svg" xmlns:xlink="http://www.w3.org/1999/xlink" width="523" height="295" viewBox="0 0 523 295">
  <defs>
    <filter id="Rectángulo_34116" x="0" y="0" width="523" height="295" filterUnits="userSpaceOnUse">
      <feOffset dy="3" input="SourceAlpha"/>
      <feGaussianBlur stdDeviation="3" result="blur"/>
      <feFlood flood-opacity="0.161"/>
      <feComposite operator="in" in2="blur"/>
      <feComposite in="SourceGraphic"/>
    </filter>
  </defs>
  <g id="Grupo_84780" data-name="Grupo 84780" transform="translate(-1746 8477)">
    <g transform="matrix(1, 0, 0, 1, 1746, -8477)" filter="url(#Rectángulo_34116)">
      <rect id="Rectángulo_34116-2" data-name="Rectángulo 34116" width="505" height="277" rx="20" transform="translate(9 6)" fill="#fff"/>
    </g>
    <g id="Grupo_82717" data-name="Grupo 82717" transform="translate(1524.127 -8882.444)">
      <g id="Grupo_82716" data-name="Grupo 82716" transform="translate(242.664 430.579)">
        <path id="Trazado_120343" data-name="Trazado 120343" d="M663.751,779.644s35.482,8.412,52.949-29.71c22.661-49.458-9.144-96.441-64.008-99.824-79.13-4.88-35.275-131.215-160.141-96.937-35.111,9.638-111.477-40.118-156.432,44.189-7.644,14.335-30.5,13.632-60.94,38.088-53.705,43.141-34.372,144.652,10.879,145.113S663.751,779.644,663.751,779.644Z" transform="translate(-242.664 -522.845)" fill="#daf1f5"/>
        <path id="Trazado_120344" data-name="Trazado 120344" d="M488.089,1523s1.649-10.808,22.7-13.715,40.616-26.221,75.324-22.837,63.508,24.615,103.017,18.109,64.247,1.786,73.109,8.326,45.536-1.535,48.246,10.448Z" transform="translate(-436.786 -1265.469)" fill="#8fd6e0"/>
        <path id="Trazado_120345" data-name="Trazado 120345" d="M845.813,430.58s-23.754-1.162-11.153,71.234c0,0,8.477,24.574-2.224,40.413H989.967V430.58Z" transform="translate(-707.996 -430.579)" fill="#ab9df1"/>
        <rect id="Rectángulo_34290" data-name="Rectángulo 34290" width="164.467" height="214.488" transform="translate(147.806 42.852)" fill="#583ae2"/>
        <rect id="Rectángulo_34291" data-name="Rectángulo 34291" width="161.702" height="214.488" transform="translate(153.183 42.852)" fill="#f3f1ff"/>
        <path id="Trazado_120346" data-name="Trazado 120346" d="M1084.548,473.429l0,0h-161.7c.894-12.228-.453-21.107-2.613-27.492-4.147-12.278-11.294-15.358-11.294-15.358h152.5c13.016,0,23.108,7.841,25.856,18.249.1.392.2.781.281,1.171C1090.182,461.908,1084.655,473.211,1084.548,473.429Z" transform="translate(-769.66 -430.58)" fill="#f3f1ff"/>
        <path id="Trazado_120347" data-name="Trazado 120347" d="M1127.283,531.542l0,0h-161.7c.894-12.228-.453-21.107-2.613-27.492,16.525,3.026,57.454,9.474,101.263,8.388,28.342-.7,50.738-2.6,66.081-4.326C1132.917,520.022,1127.39,531.325,1127.283,531.542Z" transform="translate(-812.395 -488.693)" fill="#d5cef8"/>
        <g id="Grupo_82706" data-name="Grupo 82706" transform="translate(174.175 88.288)">
          <path id="Rectángulo_34292" data-name="Rectángulo 34292" d="M2.012,0H86.944a2.011,2.011,0,0,1,2.011,2.011v0a2.011,2.011,0,0,1-2.011,2.011H2.011A2.011,2.011,0,0,1,0,2.012v0A2.012,2.012,0,0,1,2.012,0Z" transform="translate(10.642)" fill="#583ae2"/>
          <rect id="Rectángulo_34293" data-name="Rectángulo 34293" width="55.428" height="4.023" rx="2.011" transform="translate(10.642 6.767)" fill="#583ae2"/>
          <g id="Grupo_82705" data-name="Grupo 82705" transform="translate(0 0)">
            <path id="Trazado_120348" data-name="Trazado 120348" d="M1078.269,863.071v-8.216h-1.084q-.986,0-.986-.822,0-.592.773-.838a5.719,5.719,0,0,1,1.257-.2q.863-.066,1.388-.065.51,0,.641.205a2.451,2.451,0,0,1,.131,1.043v8.89h1.117q1.085,0,1.085.937,0,.986-1.085.986H1077a1.24,1.24,0,0,1-.8-.255.862.862,0,0,1-.32-.715q0-.953,1.1-.953Z" transform="translate(-1075.886 -852.932)" fill="#583ae2"/>
          </g>
        </g>
        <g id="Grupo_82708" data-name="Grupo 82708" transform="translate(174.107 130.649)">
          <rect id="Rectángulo_34294" data-name="Rectángulo 34294" width="88.955" height="4.022" rx="2.011" transform="translate(10.71 0)" fill="#583ae2"/>
          <path id="Rectángulo_34295" data-name="Rectángulo 34295" d="M2.011,0H53.416a2.011,2.011,0,0,1,2.011,2.011v0a2.011,2.011,0,0,1-2.011,2.011H2.011A2.011,2.011,0,0,1,0,2.011v0A2.011,2.011,0,0,1,2.011,0Z" transform="translate(10.71 6.767)" fill="#583ae2"/>
          <g id="Grupo_82707" data-name="Grupo 82707">
            <path id="Trazado_120349" data-name="Trazado 120349" d="M1082.5,1065.548q0,.821-1.147.82h-4.763q-1.031,0-1.031-.828a1.047,1.047,0,0,1,.276-.61q.406-.464,1.19-1.394,1.191-1.5,1.99-2.585.276-.363.784-1.1a2.67,2.67,0,0,0,.421-1.249,1.284,1.284,0,0,0-.363-.936,1.245,1.245,0,0,0-.929-.37,1.426,1.426,0,0,0-.959.348,1.655,1.655,0,0,0-.436.871q-.2.828-.262.958a.736.736,0,0,1-.712.465.815.815,0,0,1-.682-.319,1.09,1.09,0,0,1-.232-.726,3.513,3.513,0,0,1,.16-1.031,3.1,3.1,0,0,1,1.234-1.714,3.584,3.584,0,0,1,2.048-.566,3.172,3.172,0,0,1,2.207.8,2.8,2.8,0,0,1,.915,2.153,3.753,3.753,0,0,1-.654,2.007q-.363.567-1.5,2.007-.581.742-1.83,2.153h3.137Q1082.5,1064.7,1082.5,1065.548Z" transform="translate(-1075.563 -1055.579)" fill="#583ae2"/>
          </g>
        </g>
        <g id="Grupo_82710" data-name="Grupo 82710" transform="translate(173.924 165.538)">
          <path id="Rectángulo_34296" data-name="Rectángulo 34296" d="M2.011,0H86.944a2.011,2.011,0,0,1,2.011,2.011v0a2.011,2.011,0,0,1-2.011,2.011H2.011A2.011,2.011,0,0,1,0,2.011v0A2.011,2.011,0,0,1,2.011,0Z" transform="translate(10.893 0.447)" fill="#583ae2"/>
          <path id="Rectángulo_34297" data-name="Rectángulo 34297" d="M2.011,0H53.416a2.011,2.011,0,0,1,2.011,2.011v0a2.011,2.011,0,0,1-2.011,2.011H2.011A2.011,2.011,0,0,1,0,2.011v0A2.011,2.011,0,0,1,2.011,0Z" transform="translate(10.893 7.215)" fill="#583ae2"/>
          <g id="Grupo_82709" data-name="Grupo 82709">
            <path id="Trazado_120350" data-name="Trazado 120350" d="M1081.81,1230.352a3.114,3.114,0,0,1-1.084,2.479,3.817,3.817,0,0,1-2.6.891,3.637,3.637,0,0,1-2.078-.579,2.646,2.646,0,0,1-1.366-2.212.928.928,0,0,1,.238-.638.777.777,0,0,1,.608-.267.931.931,0,0,1,.728.52,11.342,11.342,0,0,0,.638.95,1.655,1.655,0,0,0,1.262.519,1.576,1.576,0,0,0,1.484-.772,2.053,2.053,0,0,0,.208-.98q0-1.454-1.707-1.618-.965-.089-.965-.817a.776.776,0,0,1,.56-.757q1.047-.386,1.061-.4a1.434,1.434,0,0,0,.561-1.292,1.161,1.161,0,0,0-.326-.868,1.193,1.193,0,0,0-.873-.319,1.6,1.6,0,0,0-1.065.326,2.138,2.138,0,0,0-.548.965.676.676,0,0,1-.68.52.7.7,0,0,1-.584-.312,1.128,1.128,0,0,1-.229-.683,1.9,1.9,0,0,1,.252-.921,2.847,2.847,0,0,1,1.277-1.2,3.74,3.74,0,0,1,1.722-.4,3,3,0,0,1,2.1.765,2.593,2.593,0,0,1,.839,2.011,2.756,2.756,0,0,1-1.247,2.375A2.69,2.69,0,0,1,1081.81,1230.352Z" transform="translate(-1074.685 -1222.485)" fill="#583ae2"/>
          </g>
        </g>
        <g id="Grupo_82711" data-name="Grupo 82711" transform="translate(192.793 52.425)">
          <path id="Rectángulo_34298" data-name="Rectángulo 34298" d="M2.337,0H54.41a2.336,2.336,0,0,1,2.336,2.336v0a2.336,2.336,0,0,1-2.336,2.336H2.336A2.336,2.336,0,0,1,0,2.337v0A2.337,2.337,0,0,1,2.337,0Z" transform="translate(14.307)" fill="#583ae2"/>
          <path id="Rectángulo_34299" data-name="Rectángulo 34299" d="M2.336,0H83.023a2.336,2.336,0,0,1,2.336,2.336v0a2.336,2.336,0,0,1-2.336,2.336H2.337A2.337,2.337,0,0,1,0,2.336v0A2.336,2.336,0,0,1,2.336,0Z" transform="translate(0 7.205)" fill="#583ae2"/>
        </g>
        <g id="Grupo_82712" data-name="Grupo 82712" transform="translate(163.041 72.502)">
          <path id="Trazado_120351" data-name="Trazado 120351" d="M1088.79,818.911a198.014,198.014,0,0,1-46.793-5.37c-12.59-3.192-19.372-8.409-19.372-13.037,0-4.194,5.527-8.051,15.983-11.155h0c-10.021,2.974-15.38,7.342-15.38,11.155,0,4.231,6.946,8.419,19.058,11.49,12.418,3.148,28.933,4.882,46.5,4.882s34.086-1.734,46.5-4.882c12.112-3.071,19.058-7.259,19.058-11.49,0-4.481-7.315-10.049-19.089-14.533-13.388-5.1-29.893-6.989-46.472-6.989-31.127,0-43.94,3.634-55.057,8.187h0c11.165-4.573,23.82-9.756,55.057-9.756,16.646,0,33.221,2.821,46.672,7.942,12.023,4.578,19.493,10.383,19.493,15.149,0,4.628-6.934,8.934-19.524,12.126C1122.969,815.79,1106.406,818.911,1088.79,818.911Z" transform="translate(-1022.625 -777.413)" fill="#2ff980"/>
        </g>
        <g id="Grupo_82715" data-name="Grupo 82715" transform="translate(243.897 62.695)">
          <path id="Trazado_120352" data-name="Trazado 120352" d="M1823.994,1169.106s-.58,5.639-1.216,6.706-3.346,4.475-4.5,5.144.7-4.491.47-5.5-.95,1.832-1.459,1.9-.378-2.486-.4-3.415,2.475-3.223,3.355-5.2S1823.994,1169.106,1823.994,1169.106Z" transform="translate(-1731.713 -1076.506)" fill="#ffb27d"/>
          <path id="Trazado_120353" data-name="Trazado 120353" d="M1483.672,887.73l-1.3-2.445s.643-4.358-4.817-7.114a2.664,2.664,0,0,0-3.122.815c-1.038,1.5,1.977,1.228,1.816,3.793a4.716,4.716,0,0,0,2.75,4.9l1.4,1.622Z" transform="translate(-1460.674 -847.141)" fill="#ffb27d"/>
          <path id="Trazado_120354" data-name="Trazado 120354" d="M1551.191,893.509s-4.689,23.014-30.492,30.533c-8.055,2.347-26.354-24.171-26.354-24.171s.644-2.445,4.674-1.883c0,0,17.817,11.8,20.06,13.077,1.99,1.137,15.08-14.616,21.047-17.157A15.23,15.23,0,0,1,1551.191,893.509Z" transform="translate(-1476.594 -858.766)" fill="#40327b"/>
          <g id="Grupo_82713" data-name="Grupo 82713" transform="translate(0 30.217)">
            <rect id="Rectángulo_34300" data-name="Rectángulo 34300" width="4.819" height="24.243" transform="translate(5.205 4.764) rotate(-81.268)" fill="#c65447"/>
            <path id="Trazado_120355" data-name="Trazado 120355" d="M1409.423,876.577l5.205,3.237.731-4.764Z" transform="translate(-1409.423 -875.051)" fill="#ffb27d"/>
            <path id="Trazado_120356" data-name="Trazado 120356" d="M1552.226,894.665l-.231,1.506a1.7,1.7,0,0,1-1.935,1.42l-1.109-.17.732-4.764,1.206.185A1.6,1.6,0,0,1,1552.226,894.665Z" transform="translate(-1519.784 -888.977)" fill="#ffb27d"/>
          </g>
          <g id="Grupo_82714" data-name="Grupo 82714" transform="translate(47.316 86.831)">
            <path id="Trazado_120357" data-name="Trazado 120357" d="M1869.771,1583.55s3.2,2.921,2.577,5-3.513,3.459-3.9,6-1.952,3.921-3.357,3.921h-6.7s-1.034-1.785,1.464-2.323,3.44-3.519,3.284-6.287a48.789,48.789,0,0,1,.234-6.458l5.309-1.23Z" transform="translate(-1811.685 -1490.967)" fill="#233862"/>
            <path id="Trazado_120358" data-name="Trazado 120358" d="M1654.591,1615.194s.574,6.648-.831,7.34l-17.985-.037s0-2.076,2.889-2.537,7.964-2.152,8.822-5.919S1654.591,1615.194,1654.591,1615.194Z" transform="translate(-1635.775 -1515.055)" fill="#233862"/>
            <path id="Trazado_120359" data-name="Trazado 120359" d="M1653.147,1169.564s.949,11.653,2.064,25.662c1.515,19.029,3.337,42.4,3.518,46.831.312,7.689,1.562,19.988,1.562,19.988s2.966,2.922,8.9,1.691a198.48,198.48,0,0,0,6.8-36.135c.023-.3.047-.611.07-.918,1.405-18.911,3.59-58.734,3.59-58.734Z" transform="translate(-1649.516 -1163.338)" fill="#2b478b"/>
            <path id="Trazado_120360" data-name="Trazado 120360" d="M1653.147,1169.564s.949,11.653,2.064,25.662l20.78,32.375c.023-.3.047-.611.07-.918,1.405-18.911,3.59-58.734,3.59-58.734Z" transform="translate(-1649.516 -1163.338)" fill="#233862"/>
            <path id="Trazado_120361" data-name="Trazado 120361" d="M1673.871,1153.5s17.1,42.2,28.34,62.039,14.756,25.369,14.756,25.369,6.441-2.537,7.026-4.267c0,0-4.3-38.29-11.828-47.624-4.254-5.274-9.252-21.1-9.486-26.637s-1.522-16.49-1.522-16.49Z" transform="translate(-1665.908 -1145.885)" fill="#2b478b"/>
          </g>
          <path id="Trazado_120362" data-name="Trazado 120362" d="M1712.478,818.109s-11.569,5.582-18.238,3.511a15.743,15.743,0,0,1,4.515-3.612c-.231-1.339-.41-2.5-.513-3.485a32.208,32.208,0,0,1-.282-3.561l4.463-3.511,4.233-3.359C1706.322,813.537,1712.478,818.109,1712.478,818.109Z" transform="translate(-1634.702 -788.708)" fill="#ffb27d"/>
          <path id="Trazado_120363" data-name="Trazado 120363" d="M1682.435,920.814c.025.707-1.488,1.515-2.155,1.818a47.253,47.253,0,0,1-14.8,4.193c-6.182.632-13.493-.758-16.006-.707a1.047,1.047,0,0,1-.693-.278c-.179-.127-.308-7.578-.179-16.948,0-.379,0-.758.026-1.137v-.126c.051-3.662.179-7.5.359-11.341.359-8.436,1.026-16.569,2.155-21.065a22.838,22.838,0,0,1,7.234-11.366l2.309-2.021a11.091,11.091,0,0,0,7.182-.858c2.668-1.289,5.541-2.678,6-2.324,3.488,2.551,5.849,8.285,7.105,15.61a81.174,81.174,0,0,1,1.052,13.892c0,1.819-.052,3.688-.154,5.532a174.4,174.4,0,0,0,.359,23.717C1682.332,918.869,1682.409,920.005,1682.435,920.814Z" transform="translate(-1598.562 -831.82)" fill="#583ae2"/>
          <path id="Trazado_120364" data-name="Trazado 120364" d="M1733.355,979.629c-40.511-.081-7.472-43.959-7.472-43.959l6.563-2.132a127.525,127.525,0,0,1,.76,14.842c0,1.943-.037,3.94-.111,5.91C1732.65,964.977,1733.1,974.259,1733.355,979.629Z" transform="translate(-1649.688 -891.096)" fill="#40327b"/>
          <path id="Trazado_120365" data-name="Trazado 120365" d="M1720.807,820.414s-2.924,5.329-8.491,6.82a32.206,32.206,0,0,1-.282-3.561l4.463-3.511Z" transform="translate(-1648.777 -801.418)" fill="#ed985f"/>
          <path id="Trazado_120366" data-name="Trazado 120366" d="M1694.149,768.194s11.036,1.805,12.072-4.979,3.158-11.121-3.844-12.56-8.77.946-9.675,3.128S1691.305,767.55,1694.149,768.194Z" transform="translate(-1632.928 -746.095)" fill="#ffb27d"/>
          <path id="Trazado_120367" data-name="Trazado 120367" d="M1696.737,734.247c.1-.115.331-.207.845-.236a2.085,2.085,0,0,0-.96-.271,2.587,2.587,0,0,0-1.719-2.288,1.542,1.542,0,0,1,.748,1.113c-1.425-1.464-4.48-2.53-12.938-1.862-11.147.88-7.473,8.016-6.03,8.867s5.076-1.482,7.764-1.268,3.2,4.1,4.112,4.632.553-.409,1.788-.967,1.352,1.487,1,2.817,1.339,3.084,1.339,3.084l1.714-1.846c1.714-1.845,3.328-9.662,2.55-11.328C1696.876,734.545,1696.808,734.4,1696.737,734.247Z" transform="translate(-1619.432 -730.499)" fill="#2c3a64"/>
          <path id="Trazado_120368" data-name="Trazado 120368" d="M1749.645,858.6s6.983,3.307,10.331,8.39c5.193,7.885,11.213,36.622,11.324,39.283s-4.394,21.448-4.394,21.448-4.569-.3-5.748-2.607c0,0,.913-19.3.334-20.544s-19.048-25.893-16.971-31.154S1749.645,858.6,1749.645,858.6Z" transform="translate(-1674.345 -831.82)" fill="#583ae2"/>
          <path id="Trazado_120369" data-name="Trazado 120369" d="M1500.235,895.553s.38-1.5-.661-2.174-2-2.508-2.436-2.26c-.909.514.5,2.114.24,4.11C1497.288,895.928,1498.915,897.759,1500.235,895.553Z" transform="translate(-1478.558 -857.525)" fill="#ffb27d"/>
        </g>
        <path id="Trazado_120370" data-name="Trazado 120370" d="M1192.811,1429.346h-99.434a1.214,1.214,0,0,1-1.21-1.21h0a1.213,1.213,0,0,1,1.21-1.21h99.434a1.213,1.213,0,0,1,1.21,1.21h0A1.214,1.214,0,0,1,1192.811,1429.346Z" transform="translate(-914.589 -1218.652)" fill="#583ae2"/>
        <path id="Trazado_120371" data-name="Trazado 120371" d="M1192.811,1452.516h-99.434a1.214,1.214,0,0,1-1.21-1.21h0a1.214,1.214,0,0,1,1.21-1.21h99.434a1.214,1.214,0,0,1,1.21,1.21h0A1.214,1.214,0,0,1,1192.811,1452.516Z" transform="translate(-914.589 -1236.978)" fill="#583ae2"/>
        <path id="Trazado_120372" data-name="Trazado 120372" d="M1192.811,1478.192h-99.434a1.213,1.213,0,0,1-1.21-1.21h0a1.214,1.214,0,0,1,1.21-1.21h99.434a1.214,1.214,0,0,1,1.21,1.21h0A1.214,1.214,0,0,1,1192.811,1478.192Z" transform="translate(-914.589 -1257.287)" fill="#583ae2"/>
        <path id="Rectángulo_34301" data-name="Rectángulo 34301" d="M1.21,0h86.3a1.21,1.21,0,0,1,1.21,1.21v0a1.21,1.21,0,0,1-1.21,1.21H1.21A1.21,1.21,0,0,1,0,1.21v0A1.21,1.21,0,0,1,1.21,0Z" transform="translate(177.578 223.852)" fill="#583ae2"/>
      </g>
    </g>
  </g>
</svg>
