<svg xmlns="http://www.w3.org/2000/svg" xmlns:xlink="http://www.w3.org/1999/xlink" width="523" height="295" viewBox="0 0 523 295">
  <defs>
    <filter id="Rectángulo_34126" x="0" y="0" width="523" height="295" filterUnits="userSpaceOnUse">
      <feOffset dy="3" input="SourceAlpha"/>
      <feGaussianBlur stdDeviation="3" result="blur"/>
      <feFlood flood-opacity="0.161"/>
      <feComposite operator="in" in2="blur"/>
      <feComposite in="SourceGraphic"/>
    </filter>
  </defs>
  <g id="Grupo_84785" data-name="Grupo 84785" transform="translate(-1746 6269)">
    <g transform="matrix(1, 0, 0, 1, 1746, -6269)" filter="url(#Rectángulo_34126)">
      <rect id="Rectángulo_34126-2" data-name="Rectángulo 34126" width="505" height="277" rx="20" transform="translate(9 6)" fill="#fff"/>
    </g>
    <g id="Grupo_82973" data-name="Grupo 82973" transform="translate(1623 -6510.849)">
      <path id="Trazado_120911" data-name="Trazado 120911" d="M672.337,524.217S726.836,485.08,702,434s-69.786,26.881-101.119-45.21S562.53,261.514,479.118,284.279s-49.22,82.509-92.876,88.51S308.094,400.425,328.1,447.21s-29.664,77.508-29.664,77.508Z" transform="translate(-118.961)" fill="#daf1f5"/>
      <path id="Trazado_120912" data-name="Trazado 120912" d="M445.7,1637.73s1.841-4.817,25.329-6.113,45.328-11.686,84.063-10.178,70.877,10.971,114.968,8.071,71.7.8,81.59,3.711,50.819-.684,53.843,4.657Z" transform="translate(-241.101 -1113.182)" fill="#b5e4eb"/>
      <g id="Grupo_82953" data-name="Grupo 82953" transform="translate(250.319 319.831)">
        <path id="Trazado_120913" data-name="Trazado 120913" d="M1397.671,919.308l10.741,127.715s1.125,7.742-4.633,7.755c-9.469.023-47.127,0-47.127,0s7.126-1.612,7.04-5.237c-.1-4.274-12.554-131.442-12.554-131.442Z" transform="translate(-1242.358 -849.81)" fill="#2f2265"/>
        <path id="Trazado_120914" data-name="Trazado 120914" d="M1338.385,1041.2c1.862.006,37.831.118,47.052,0,4.019-.05,4.723-3.573,4.756-5.853a11.394,11.394,0,0,0-.122-1.9l-.279-3.319-.712-8.461-.629-7.475-.808-9.6-.681-8.107-7.632-90.75-46.534-1.208s5.245,53.219,8.954,91.958c.414,4.316.808,8.455,1.173,12.318q.177,1.85.342,3.614c.344,3.665.659,7.031.932,10,.144,1.566.277,3.022.4,4.355.473,5.224.751,8.561.755,9.195a5.386,5.386,0,0,1-.091,1.034C1344.495,1041.064,1339.084,1041.2,1338.385,1041.2Z" transform="translate(-1227.146 -838.546)" fill="#6756ac"/>
        <path id="Trazado_120915" data-name="Trazado 120915" d="M758.54,517.886H981.948L955.785,622.98,952.2,637.373l-12.186,48.95H713.626Z" transform="translate(-713.626 -517.886)" fill="#6756ac"/>
        <path id="Trazado_120916" data-name="Trazado 120916" d="M2082.334,517.885l3.626,1.209-40.737,170.884-4.821-3.656Z" transform="translate(-1814.012 -517.885)" fill="#2f2265"/>
        <path id="Trazado_120917" data-name="Trazado 120917" d="M944.841,1508.676h-225l-6.213-3.656H940.02Z" transform="translate(-713.63 -1336.584)" fill="#2f2265"/>
        <rect id="Rectángulo_34339" data-name="Rectángulo 34339" width="48.715" height="2.315" transform="translate(103.484 202.702)" fill="#6756ac"/>
        <path id="Trazado_120918" data-name="Trazado 120918" d="M1392.675,1522.234l.252,1.77,46.427,9.379-.336-7.621-.938-4.394Z" transform="translate(-1276.808 -1350.143)" fill="#40327b"/>
        <path id="Trazado_120919" data-name="Trazado 120919" d="M1364.458,1635.442c1.862.005,38.017.064,47.238-.054,4.019-.05,4.723-3.573,4.756-5.853l-45.6-8.579c.473,5.224.751,8.561.754,9.195a5.356,5.356,0,0,1-.091,1.034C1370.754,1635.255,1365.157,1635.442,1364.458,1635.442Z" transform="translate(-1253.405 -1432.737)" fill="#40327b"/>
        <path id="Trazado_120920" data-name="Trazado 120920" d="M1474.815,1311l96.508,33.09,8.242-33.11Z" transform="translate(-1344.932 -1175.65)" fill="#40327b"/>
        <path id="Trazado_120921" data-name="Trazado 120921" d="M801.4,517.885h223.408L991.136,653.212l-225.835.043Z" transform="translate(-756.483 -517.885)" fill="#40327b"/>
      </g>
      <path id="Trazado_120922" data-name="Trazado 120922" d="M1341.29,1382.3a7.656,7.656,0,0,1,7.179-6.011,4.811,4.811,0,0,1,4.843,6.011,7.656,7.656,0,0,1-7.18,6.011A4.81,4.81,0,0,1,1341.29,1382.3Z" transform="translate(-983.776 -909.986)" fill="#d5cef8"/>
      <path id="Trazado_120923" data-name="Trazado 120923" d="M826.167,682.634h209.178l23.689-94.369,1.816-7.237,1.55-6.173,3.633-14.474H859.869l-3.99,14.474-1.7,6.173-1.995,7.237Z" transform="translate(-556.644 -233.299)" fill="#fff"/>
      <path id="Trazado_120924" data-name="Trazado 120924" d="M1004.291,560.381h206.163l-3.633,14.474H1000.3Z" transform="translate(-701.065 -233.299)" fill="#583ae2"/>
      <g id="Grupo_82954" data-name="Grupo 82954" transform="translate(484.699 331.814)">
        <path id="Trazado_120925" data-name="Trazado 120925" d="M2162.712,588.112a1.367,1.367,0,0,1,1.358,1.809,2.471,2.471,0,0,1-2.26,1.809,1.367,1.367,0,0,1-1.358-1.809A2.472,2.472,0,0,1,2162.712,588.112Z" transform="translate(-2147.91 -588.112)" fill="#2ff980"/>
        <path id="Trazado_120926" data-name="Trazado 120926" d="M2127.478,588.112a1.367,1.367,0,0,1,1.358,1.809,2.471,2.471,0,0,1-2.26,1.809,1.367,1.367,0,0,1-1.358-1.809A2.472,2.472,0,0,1,2127.478,588.112Z" transform="translate(-2118.688 -588.112)" fill="#2ff980"/>
        <path id="Trazado_120927" data-name="Trazado 120927" d="M2087.28,589.921a2.472,2.472,0,0,1,2.26-1.809,1.367,1.367,0,0,1,1.358,1.809,2.472,2.472,0,0,1-2.26,1.809A1.367,1.367,0,0,1,2087.28,589.921Z" transform="translate(-2087.224 -588.112)" fill="#2ff980"/>
      </g>
      <g id="Grupo_82968" data-name="Grupo 82968" transform="translate(301.026 346.304)">
        <g id="Grupo_82965" data-name="Grupo 82965" transform="translate(0 79.748)">
          <g id="Grupo_82958" data-name="Grupo 82958" transform="translate(106.68)">
            <path id="Trazado_120928" data-name="Trazado 120928" d="M1645.346,1140.4a9.347,9.347,0,1,0,9.347,9.347A9.347,9.347,0,0,0,1645.346,1140.4Z" transform="translate(-1635.999 -1140.401)" fill="#583ae2"/>
            <g id="Grupo_82955" data-name="Grupo 82955" transform="translate(24.589 4.126)">
              <path id="Trazado_120929" data-name="Trazado 120929" d="M1796.607,1164.58h-15.485a1.023,1.023,0,0,0-1.02,1.02h0a1.023,1.023,0,0,0,1.02,1.02h15.485a1.023,1.023,0,0,0,1.021-1.02h0A1.023,1.023,0,0,0,1796.607,1164.58Z" transform="translate(-1780.102 -1164.58)" fill="#583ae2"/>
              <path id="Trazado_120930" data-name="Trazado 120930" d="M1796.607,1189.2h-15.485a1.023,1.023,0,0,0-1.02,1.021h0a1.023,1.023,0,0,0,1.02,1.02h15.485a1.023,1.023,0,0,0,1.021-1.02h0A1.024,1.024,0,0,0,1796.607,1189.2Z" transform="translate(-1780.102 -1185)" fill="#583ae2"/>
              <path id="Trazado_120931" data-name="Trazado 120931" d="M1796.607,1213.823h-15.485a1.02,1.02,0,1,0,0,2.041h15.485a1.02,1.02,0,1,0,0-2.041Z" transform="translate(-1780.102 -1205.421)" fill="#583ae2"/>
            </g>
            <path id="Trazado_120932" data-name="Trazado 120932" d="M1640.624,1152.787h8.558v-8.558A8.558,8.558,0,0,0,1640.624,1152.787Z" transform="translate(-1639.835 -1143.576)" fill="#583ae2"/>
            <path id="Trazado_120933" data-name="Trazado 120933" d="M1657.74,1196h-17.116a8.559,8.559,0,0,0,8.558,8.558h0A8.559,8.559,0,0,0,1657.74,1196Z" transform="translate(-1639.835 -1186.513)" fill="#583ae2"/>
            <g id="Grupo_82956" data-name="Grupo 82956" transform="translate(2.744 4.812)">
              <path id="Trazado_120934" data-name="Trazado 120934" d="M1657.205,1168.6h-4.645a.48.48,0,1,0,0,.961h4.645a.48.48,0,1,0,0-.961Z" transform="translate(-1652.08 -1168.6)" fill="#583ae2"/>
              <path id="Trazado_120935" data-name="Trazado 120935" d="M1653.618,1178.847h-1.058a.48.48,0,1,0,0,.961h1.058a.48.48,0,0,0,0-.961Z" transform="translate(-1652.08 -1177.099)" fill="#583ae2"/>
            </g>
            <g id="Grupo_82957" data-name="Grupo 82957" transform="translate(9.639 11.579)">
              <path id="Trazado_120936" data-name="Trazado 120936" d="M1697.617,1208.261h-4.644a.481.481,0,1,0,0,.961h4.644a.481.481,0,1,0,0-.961Z" transform="translate(-1692.492 -1208.261)" fill="#583ae2"/>
              <path id="Trazado_120937" data-name="Trazado 120937" d="M1694.03,1218.508h-1.058a.482.482,0,0,0-.481.48h0a.482.482,0,0,0,.481.481h1.058a.482.482,0,0,0,.48-.481h0A.482.482,0,0,0,1694.03,1218.508Z" transform="translate(-1692.492 -1216.76)" fill="#583ae2"/>
            </g>
          </g>
          <g id="Grupo_82961" data-name="Grupo 82961" transform="translate(53.57)">
            <path id="Trazado_120938" data-name="Trazado 120938" d="M1324.747,1149.748a9.347,9.347,0,1,1,9.347,9.347A9.347,9.347,0,0,1,1324.747,1149.748Z" transform="translate(-1324.747 -1140.401)" fill="#583ae2"/>
            <g id="Grupo_82959" data-name="Grupo 82959" transform="translate(24.589 4.126)">
              <path id="Trazado_120939" data-name="Trazado 120939" d="M1469.87,1166.62h15.485a1.02,1.02,0,1,0,0-2.041H1469.87a1.02,1.02,0,0,0,0,2.041Z" transform="translate(-1468.85 -1164.579)" fill="#583ae2"/>
              <path id="Trazado_120940" data-name="Trazado 120940" d="M1485.355,1189.2H1469.87a1.02,1.02,0,0,0,0,2.041h15.485a1.02,1.02,0,1,0,0-2.041Z" transform="translate(-1468.85 -1185)" fill="#583ae2"/>
              <path id="Trazado_120941" data-name="Trazado 120941" d="M1485.355,1213.823H1469.87a1.023,1.023,0,0,0-1.02,1.021h0a1.023,1.023,0,0,0,1.02,1.02h15.485a1.023,1.023,0,0,0,1.021-1.02h0A1.024,1.024,0,0,0,1485.355,1213.823Z" transform="translate(-1468.85 -1205.42)" fill="#583ae2"/>
            </g>
            <path id="Trazado_120942" data-name="Trazado 120942" d="M1337.93,1195.542l-8.557-.109c0,.036,0,.073,0,.109a8.559,8.559,0,0,0,13.15,7.223Z" transform="translate(-1328.583 -1186.043)" fill="#583ae2"/>
            <g id="Grupo_82960" data-name="Grupo 82960" transform="translate(4.537 12.194)">
              <path id="Trazado_120943" data-name="Trazado 120943" d="M1356.464,1211.863h-4.645a.482.482,0,0,0-.48.481h0a.482.482,0,0,0,.48.48h4.645a.482.482,0,0,0,.48-.48h0A.482.482,0,0,0,1356.464,1211.863Z" transform="translate(-1351.339 -1211.863)" fill="#583ae2"/>
              <path id="Trazado_120944" data-name="Trazado 120944" d="M1352.877,1222.11h-1.058a.48.48,0,0,0,0,.961h1.058a.48.48,0,0,0,0-.961Z" transform="translate(-1351.339 -1220.361)" fill="#583ae2"/>
            </g>
          </g>
          <g id="Grupo_82964" data-name="Grupo 82964">
            <path id="Trazado_120945" data-name="Trazado 120945" d="M1010.8,1149.748a9.347,9.347,0,1,1,9.347,9.347A9.347,9.347,0,0,1,1010.8,1149.748Z" transform="translate(-1010.796 -1140.401)" fill="#583ae2"/>
            <path id="Trazado_120946" data-name="Trazado 120946" d="M1023.98,1145.03a8.558,8.558,0,0,0-4.107,16.067c1.371-2.539,4.107-7.509,4.107-7.509l4.052,7.539a8.558,8.558,0,0,0-4.052-16.1Z" transform="translate(-1014.633 -1144.24)" fill="#583ae2"/>
            <g id="Grupo_82962" data-name="Grupo 82962" transform="translate(24.589 4.126)">
              <path id="Trazado_120947" data-name="Trazado 120947" d="M1171.4,1164.58h-15.485a1.023,1.023,0,0,0-1.02,1.02h0a1.023,1.023,0,0,0,1.02,1.02H1171.4a1.023,1.023,0,0,0,1.02-1.02h0A1.023,1.023,0,0,0,1171.4,1164.58Z" transform="translate(-1154.899 -1164.58)" fill="#583ae2"/>
              <path id="Trazado_120948" data-name="Trazado 120948" d="M1171.4,1189.2h-15.485a1.02,1.02,0,0,0,0,2.041H1171.4a1.02,1.02,0,0,0,0-2.041Z" transform="translate(-1154.899 -1185)" fill="#583ae2"/>
              <path id="Trazado_120949" data-name="Trazado 120949" d="M1171.4,1213.823h-15.485a1.02,1.02,0,1,0,0,2.041H1171.4a1.02,1.02,0,0,0,0-2.041Z" transform="translate(-1154.899 -1205.421)" fill="#583ae2"/>
            </g>
            <g id="Grupo_82963" data-name="Grupo 82963" transform="translate(4.537 5.26)">
              <path id="Trazado_120950" data-name="Trazado 120950" d="M1042.513,1171.228h-4.645a.48.48,0,1,0,0,.961h4.645a.48.48,0,1,0,0-.961Z" transform="translate(-1037.388 -1171.228)" fill="#583ae2"/>
              <path id="Trazado_120951" data-name="Trazado 120951" d="M1038.926,1181.475h-1.058a.482.482,0,0,0-.481.48h0a.482.482,0,0,0,.481.48h1.058a.482.482,0,0,0,.481-.48h0A.482.482,0,0,0,1038.926,1181.475Z" transform="translate(-1037.388 -1179.726)" fill="#583ae2"/>
            </g>
          </g>
        </g>
        <g id="Grupo_82966" data-name="Grupo 82966" transform="translate(67.706 14.64)">
          <path id="Trazado_120952" data-name="Trazado 120952" d="M1411.07,816.389h78.01a3.477,3.477,0,0,0,3.377-2.649l12.414-50.6a3.477,3.477,0,0,0-3.377-4.306h-77.767a3.477,3.477,0,0,0-3.373,2.633L1407.7,812.069A3.477,3.477,0,0,0,1411.07,816.389Z" transform="translate(-1407.591 -758.83)" fill="#826be9"/>
          <path id="Trazado_120953" data-name="Trazado 120953" d="M1505.2,952.964s-12.221-9.369-23.116-1.179-25.6.726-32.073,0c-11.263-1.262-21.286,2.533-25.022,6.707l-3.133,12.534h78.909Z" transform="translate(-1419.426 -916.076)" fill="#583ae2"/>
          <path id="Trazado_120954" data-name="Trazado 120954" d="M1852.5,832.409h.608l4.8-19.506h-.608Z" transform="translate(-1776.587 -803.676)" fill="#fff"/>
          <path id="Trazado_120955" data-name="Trazado 120955" d="M1700.384,881.452h.609l4.832-19.525h-.608Z" transform="translate(-1650.424 -844.335)" fill="#fff"/>
          <path id="Trazado_120956" data-name="Trazado 120956" d="M1562.352,855.586h.609l4.857-19.515h-.608Z" transform="translate(-1535.944 -822.891)" fill="#fff"/>
          <path id="Trazado_120957" data-name="Trazado 120957" d="M1834.622,825.5h4.66a.692.692,0,0,0,.632-.507h0a.385.385,0,0,0-.382-.507h-4.66a.692.692,0,0,0-.631.507h0A.385.385,0,0,0,1834.622,825.5Z" transform="translate(-1761.428 -813.283)" fill="#fff"/>
          <path id="Trazado_120958" data-name="Trazado 120958" d="M1831.985,836.194h4.661a.692.692,0,0,0,.631-.507h0a.385.385,0,0,0-.382-.507h-4.66a.692.692,0,0,0-.632.507h0A.385.385,0,0,0,1831.985,836.194Z" transform="translate(-1759.241 -822.152)" fill="#fff"/>
          <path id="Trazado_120959" data-name="Trazado 120959" d="M1682.433,883.754h4.663a.694.694,0,0,0,.633-.507h0a.385.385,0,0,0-.381-.507h-4.663a.694.694,0,0,0-.633.507h0A.385.385,0,0,0,1682.433,883.754Z" transform="translate(-1635.207 -861.596)" fill="#fff"/>
          <path id="Trazado_120960" data-name="Trazado 120960" d="M1679.833,894.24h4.663a.694.694,0,0,0,.633-.508h0a.385.385,0,0,0-.381-.507h-4.663a.7.7,0,0,0-.633.507h0A.385.385,0,0,0,1679.833,894.24Z" transform="translate(-1633.051 -870.293)" fill="#fff"/>
          <path id="Trazado_120961" data-name="Trazado 120961" d="M1546.446,840.651h4.661a.7.7,0,0,0,.633-.507h0a.384.384,0,0,0-.38-.507H1546.7a.7.7,0,0,0-.633.507h0A.384.384,0,0,0,1546.446,840.651Z" transform="translate(-1522.425 -825.849)" fill="#fff"/>
          <path id="Trazado_120962" data-name="Trazado 120962" d="M1543.833,851.129h4.661a.694.694,0,0,0,.633-.507h0a.384.384,0,0,0-.38-.507h-4.661a.7.7,0,0,0-.633.507h0A.384.384,0,0,0,1543.833,851.129Z" transform="translate(-1520.258 -834.539)" fill="#fff"/>
        </g>
        <path id="Trazado_120963" data-name="Trazado 120963" d="M1037.388,851.049h12.258l12.7-50.429h-11.923Z" transform="translate(-1032.851 -778.85)" fill="#583ae2"/>
        <path id="Trazado_120964" data-name="Trazado 120964" d="M1128.937,918.179h12.258l9.133-36.617h-12.258Z" transform="translate(-1108.778 -845.98)" fill="#583ae2"/>
        <path id="Trazado_120965" data-name="Trazado 120965" d="M1220.486,804.291h12.258l15.159-60.048h-12.258Z" transform="translate(-1184.706 -732.092)" fill="#583ae2"/>
        <g id="Grupo_82967" data-name="Grupo 82967" transform="translate(53.719 8.396)">
          <path id="Trazado_120966" data-name="Trazado 120966" d="M1328.5,779.725a2.882,2.882,0,1,1,2.882-2.882A2.886,2.886,0,0,1,1328.5,779.725Zm0-4.649a1.767,1.767,0,1,0,1.767,1.767A1.769,1.769,0,0,0,1328.5,775.076Z" transform="translate(-1325.617 -765.134)" fill="#2b478b"/>
          <path id="Trazado_120967" data-name="Trazado 120967" d="M1346.99,732.178a.558.558,0,0,1-.395-.952l8.989-8.989h98.665a.558.558,0,0,1,0,1.116h-98.2l-8.662,8.662A.556.556,0,0,1,1346.99,732.178Z" transform="translate(-1342.881 -722.236)" fill="#2b478b"/>
        </g>
        <path id="Trazado_120968" data-name="Trazado 120968" d="M1509.907,679.224h-93.27a3.1,3.1,0,0,1-3.1-3.1h0a3.1,3.1,0,0,1,3.1-3.1h93.27a3.1,3.1,0,0,1,3.1,3.1h0A3.1,3.1,0,0,1,1509.907,679.224Z" transform="translate(-1344.82 -673.032)" fill="#583ae2"/>
      </g>
      <g id="Grupo_82970" data-name="Grupo 82970" transform="translate(205.445 381.096)">
        <g id="Grupo_82969" data-name="Grupo 82969" transform="translate(0 5.8)">
          <path id="Trazado_120969" data-name="Trazado 120969" d="M557.722,1623.157l2.177,9.17,3.261-.018.12-9.152Z" transform="translate(-539.449 -1501.627)" fill="#e49963"/>
          <path id="Trazado_120970" data-name="Trazado 120970" d="M718.5,1619.581l6.2,8.78,2.415-3.1-3.729-6.886Z" transform="translate(-672.794 -1497.66)" fill="#e49963"/>
          <path id="Trazado_120971" data-name="Trazado 120971" d="M480.234,911.945a6.316,6.316,0,0,0-3.419-.654,1.6,1.6,0,0,1,.721-.342,5.3,5.3,0,0,0-1.892.494c-8.141-3.137-9.42,8.849-9.249,11.634s-2.736,3.694-6.971,5.888c-8.081,4.187-8.791,9.792-8.791,9.792.063.037.129.079.2.127.4-.679,1.226-1.955,1.922-2.147a28.882,28.882,0,0,0-1.12,2.727c2.384,1.814,6.844,5.832,9.952,8.681a4.567,4.567,0,0,1,.212-1.765l.384,2.312c1.663,1.529,2.81,2.6,2.81,2.6-.205-2.25,10.178-14.126,15.595-17.682a15.658,15.658,0,0,0,1.822-5.641,14.807,14.807,0,0,1-1.109,5.1C485.888,928.855,483.218,913.641,480.234,911.945Z" transform="translate(-450.634 -910.923)" fill="#163560"/>
          <path id="Trazado_120972" data-name="Trazado 120972" d="M587.022,1005.961c.027.012-2.615,1.384-4.6.84-1.87-.51-3.092-2.934-3.066-2.94.792-.157,1.02-1.245,1-5.921l.358.071,6.019,1.192s-.137,1.894-.141,3.678C586.588,1004.38,586.679,1005.8,587.022,1005.961Z" transform="translate(-557.389 -983.093)" fill="#e49963"/>
          <path id="Trazado_120973" data-name="Trazado 120973" d="M584.41,921.348a4.811,4.811,0,0,1,6.7-.162A26.1,26.1,0,0,0,584.41,921.348Z" transform="translate(-561.584 -918.363)" fill="#e58638"/>
          <path id="Trazado_120974" data-name="Trazado 120974" d="M593.352,999.547s-.137,1.894-.141,3.678c-3.368-.095-5.148-3.167-5.878-4.87Z" transform="translate(-564.008 -983.436)" fill="#d68d5d"/>
          <path id="Trazado_120975" data-name="Trazado 120975" d="M572.8,934.405a17.7,17.7,0,0,1-2.189-5.174c-.3-1.7.565-8.013,6.906-7.1a8.614,8.614,0,0,1,3.573,1.351c1.377.93,3.364,2.938,1.142,8.444l-.577,1.86Z" transform="translate(-550.097 -920.142)" fill="#163560"/>
          <path id="Trazado_120976" data-name="Trazado 120976" d="M597.139,1309.083l-3.19.1-3.453.106a68.168,68.168,0,0,1-12.451-23.118q-.156-.5-.331-1c-2.449-7.14-7.525-16.1-10.2-24.215-.426-1.292-.808-2.508-1.151-3.66-.11-.369-.217-.731-.319-1.087a86.039,86.039,0,0,1-3.068-16.153l19.317.155A360.09,360.09,0,0,0,597.139,1309.083Z" transform="translate(-543.806 -1183.89)" fill="#2b478b"/>
          <path id="Trazado_120977" data-name="Trazado 120977" d="M539.347,1054.22c-.049,9.192,1.349,13.136,1.349,13.136a25.957,25.957,0,0,1-18.1,1.109c-.116-.037-8.139-1.868-8.139-1.868.165-.372,1.627-6.567,1.788-6.908,2.075-4.457,3.651-6.411,3.9-7.781a29.138,29.138,0,0,0,.239-7.7A61.806,61.806,0,0,0,518,1032.112a62.829,62.829,0,0,0,7.974-2.726,6.229,6.229,0,0,0,4.3,1.6c1.958-.043,2.593-.882,2.491-1.8,2.087,1.161,3.752,2.258,3.752,2.258,1.774,3.081,5.37,6.072,5.631,10.8C542.211,1043.4,539.349,1053.962,539.347,1054.22Z" transform="translate(-503.565 -1009.006)" fill="#e7f1fd"/>
          <path id="Trazado_120978" data-name="Trazado 120978" d="M639.718,1040.563c-2.836-3.313-10.183-10.5-17.765-11.378l6.543,12.746a5.64,5.64,0,0,0,2.305,3.458,37.969,37.969,0,0,0,10.779,4.5,56.632,56.632,0,0,0,9.672-5.876c1.753-1.285,4.834-6.185,4.834-6.185l-.831-2.781s-5.231,2.925-7.1,3.768c-1.065.481-3.516,1.629-5.244,2.44A2.7,2.7,0,0,1,639.718,1040.563Z" transform="translate(-592.721 -1009.006)" fill="#583ae2"/>
          <path id="Trazado_120979" data-name="Trazado 120979" d="M590,949.885s-7.969.131-7.974-4.832-1.038-8.29,4.05-8.584,6.078,1.6,6.483,3.255S592.077,949.723,590,949.885Z" transform="translate(-559.535 -932.085)" fill="#e49963"/>
          <path id="Trazado_120980" data-name="Trazado 120980" d="M577.256,930.746s-2.182,5.823-5.53,6.684-4.8-.036-4.8-.036a16.677,16.677,0,0,0,1.993-5.887S575.61,927.974,577.256,930.746Z" transform="translate(-547.082 -926.484)" fill="#163560"/>
          <path id="Trazado_120981" data-name="Trazado 120981" d="M624.3,934.059a7.037,7.037,0,0,1,2.027,2.564c.4,1.264.576,3.866,1.334,3.778,0,0,1.644-3.958-.2-6.2C625.5,931.83,624.3,934.059,624.3,934.059Z" transform="translate(-594.668 -929.324)" fill="#163560"/>
          <path id="Trazado_120982" data-name="Trazado 120982" d="M817.123,1046.355a4.974,4.974,0,0,1,5.574-3.477c.511.16,2,.755,1.049,2.353-.7,1.178-1.008.57-2.114,2.153a3.524,3.524,0,0,1-3.679,1.751Z" transform="translate(-754.588 -1020.317)" fill="#e49963"/>
          <path id="Trazado_120983" data-name="Trazado 120983" d="M567.576,1673.9a8.839,8.839,0,0,1-.415,3.76s-.534,2.432,1.862,2.477,2.983-.18,2.712-1.672-.787-4.071-.787-4.071Z" transform="translate(-547.235 -1543.709)" fill="#e49963"/>
          <path id="Trazado_120984" data-name="Trazado 120984" d="M570.943,1699.145s-.051.032-.151.08H566.1a1.1,1.1,0,0,1-.132-.08,11.763,11.763,0,0,1,.172-3.516c2.713,2.486,4.41-.062,4.41-.062A12.715,12.715,0,0,1,570.943,1699.145Z" transform="translate(-546.218 -1561.682)" fill="#e58638"/>
          <path id="Trazado_120985" data-name="Trazado 120985" d="M758.77,1666.128s-4.416-4.9-5.772-7.4l-3.284,1.682,7.341,6.894,1.717-.226Z" transform="translate(-698.681 -1531.132)" fill="#e49963"/>
          <path id="Trazado_120986" data-name="Trazado 120986" d="M757.464,1676.851h-6.043a8.587,8.587,0,0,1-1.8-2.793,2.96,2.96,0,0,0-2-1.336v4.082h-1.253l-1.187-4.34c-.781-1.437-.062-2.74.489-3.875.64,0,2.361.437,5.623,4.113a4.276,4.276,0,0,0,3.432,1.6.31.31,0,0,0,.048.026C756.741,1675.214,757.3,1676.314,757.464,1676.851Z" transform="translate(-694.635 -1539.308)" fill="#e58638"/>
          <path id="Trazado_120987" data-name="Trazado 120987" d="M621.754,1029.185s4.61,11.39,4.746,13.695.542,37.694.542,37.694-.271,1.627,2.847.949,3.932-1.356,3.932-1.356-2.983-21.83-2.169-29.423-6.237-19.977-6.237-19.977Z" transform="translate(-592.555 -1009.006)" fill="#583ae2"/>
          <path id="Trazado_120988" data-name="Trazado 120988" d="M608.864,1377.2l-3.453.106a68.165,68.165,0,0,1-12.451-23.118q-.156-.5-.331-1c-2.449-7.14-7.525-16.1-10.2-24.215-.426-1.292-.808-2.508-1.151-3.66-.11-.369-.217-.731-.319-1.087l2.845-2.158s8.541,13.83,11.185,26.845C597.284,1360.214,606.483,1373.818,608.864,1377.2Z" transform="translate(-558.721 -1251.909)" fill="#233862"/>
          <path id="Trazado_120989" data-name="Trazado 120989" d="M527.459,1332.28c.049,6.329-.271,20.881-1.1,26.905H523.3c-1.691,0-2.534-.024-2.534-.024-2.068-10.474-3.539-19.141-4.61-26.609-.879-6.129-1.66-11.383-2.26-15.906-.6-4.552-1.025-8.363-1.176-11.583-.023-.507-.041-1-.05-1.479s-.012-.949-.008-1.4l16.691-1.627C529.147,1311.642,527.432,1328.6,527.459,1332.28Z" transform="translate(-502.08 -1234.069)" fill="#2b478b"/>
          <path id="Trazado_120990" data-name="Trazado 120990" d="M523.6,1381.105c-1.691,0-2.534-.024-2.534-.024-2.068-10.474-3.539-19.141-4.61-26.609-.879-6.129-1.66-11.383-2.26-15.906-.6-4.552-1.025-8.363-1.175-11.583l6.124,3.6s-3.909,1.379-2.417,11.819S521.521,1379.627,523.6,1381.105Z" transform="translate(-502.372 -1255.989)" fill="#233862"/>
          <path id="Trazado_120991" data-name="Trazado 120991" d="M506.27,1081.025s-1.176,4.248-5.243,3.706a49.029,49.029,0,0,1-9.852-2.983s1.738-5.493,3.9-12.709c2.617-8.736,5.856-20,7.383-27.1a43.945,43.945,0,0,0,.83-4.843l3.375-6.547s5.032,11.293,5.3,14.141S506.27,1081.025,506.27,1081.025Z" transform="translate(-484.257 -1010.135)" fill="#583ae2"/>
          <path id="Trazado_120992" data-name="Trazado 120992" d="M521.281,1044.262l4.454-13.716a68.733,68.733,0,0,0-8.449,3.1s-1.765,2.275-2.857,7.525c0,0-1.154,12.6,1.422,17.213,0,0,8.135,1.627,21.152-2.848v-2.983s-14.237.746-17.152,1.085Z" transform="translate(-503.33 -1010.135)" fill="#e49963"/>
          <path id="Trazado_120993" data-name="Trazado 120993" d="M525.043,1106.019c-.182,4.61-1.266,13.559-10.938,18.349-.026.012-.051.026-.077.036,2.617-8.736,5.856-20,7.383-27.1C523.187,1099.958,525.142,1103.48,525.043,1106.019Z" transform="translate(-503.211 -1065.501)" fill="#40327b"/>
          <path id="Trazado_120994" data-name="Trazado 120994" d="M523.633,1030.546s-8.257.582-10.245,5.011-2.621,19.163-.09,23.5c0,0,3.485.993,9.648-.16l.228-.043s1.966-4.813.2-5.762c0,0-5.2.271-4.655-1.446S523.633,1030.546,523.633,1030.546Z" transform="translate(-501.228 -1010.135)" fill="#583ae2"/>
          <path id="Trazado_120995" data-name="Trazado 120995" d="M639.424,1136.665a7.12,7.12,0,0,0,1.376-2.778,3.02,3.02,0,0,1,2.95-2.7c1.958-.257,2.8-.285,2.794.266a14.609,14.609,0,0,1-4.409,6.705C639.327,1140.458,639.424,1136.665,639.424,1136.665Z" transform="translate(-607.21 -1093.455)" fill="#e49963"/>
        </g>
        <path id="Trazado_120996" data-name="Trazado 120996" d="M831.5,909.437a.375.375,0,0,0,.2-.055l52.216-31.751a.376.376,0,1,0-.391-.643l-52.216,31.751a.376.376,0,0,0,.2.7Z" transform="translate(-766.202 -876.934)" fill="#163560"/>
      </g>
      <g id="Grupo_82972" data-name="Grupo 82972" transform="translate(445.838 383.874)">
        <path id="Trazado_120997" data-name="Trazado 120997" d="M2168.319,1281.753s-.419,4.08-.88,4.851a17.371,17.371,0,0,1-3.256,3.721c-.835.484.51-3.249.34-3.975s-.688,1.325-1.056,1.374-.273-1.8-.287-2.471,1.791-2.331,2.427-3.763S2168.319,1281.753,2168.319,1281.753Z" transform="translate(-2111.358 -1214.762)" fill="#ffb27d"/>
        <path id="Trazado_120998" data-name="Trazado 120998" d="M1866.316,1030.974l-.937-1.769s.465-3.153-3.485-5.147a1.927,1.927,0,0,0-2.259.59c-.75,1.084,1.43.889,1.314,2.744a3.412,3.412,0,0,0,1.989,3.548l1.013,1.173Z" transform="translate(-1859.477 -1001.61)" fill="#ffb27d"/>
        <path id="Trazado_120999" data-name="Trazado 120999" d="M1918.44,1037.548a31.29,31.29,0,0,1-22.059,22.089c-5.827,1.7-19.065-17.486-19.065-17.486s.466-1.769,3.381-1.362c0,0,12.89,8.533,14.513,9.46,1.44.823,10.909-10.574,15.226-12.412A11.019,11.019,0,0,1,1918.44,1037.548Z" transform="translate(-1874.272 -1012.414)" fill="#40327b"/>
        <g id="Grupo_82971" data-name="Grupo 82971" transform="translate(24.432 62.818)">
          <path id="Trazado_121000" data-name="Trazado 121000" d="M2208.16,1649.027s2.316,2.113,1.864,3.615-2.542,2.5-2.824,4.338-1.412,2.836-2.429,2.836h-4.847s-.748-1.291,1.059-1.681,2.489-2.546,2.376-4.548a35.28,35.28,0,0,1,.169-4.672l3.841-.89Z" transform="translate(-2166.137 -1582.048)" fill="#233862"/>
          <path id="Trazado_121001" data-name="Trazado 121001" d="M2016.274,1676.879s.416,4.81-.6,5.31l-13.011-.027s0-1.5,2.089-1.835,5.761-1.557,6.383-4.282S2016.274,1676.879,2016.274,1676.879Z" transform="translate(-2002.662 -1604.434)" fill="#233862"/>
          <path id="Trazado_121002" data-name="Trazado 121002" d="M2018.059,1282.084s.686,8.431,1.493,18.565c1.1,13.766,2.415,30.677,2.545,33.88.225,5.563,1.13,14.46,1.13,14.46s2.145,2.114,6.439,1.223a143.591,143.591,0,0,0,4.919-26.141c.017-.22.034-.442.051-.664,1.017-13.682,2.6-42.491,2.6-42.491Z" transform="translate(-2015.432 -1277.579)" fill="#2b478b"/>
          <path id="Trazado_121003" data-name="Trazado 121003" d="M2018.059,1282.084s.686,8.431,1.493,18.565l15.033,23.422c.017-.22.034-.442.051-.664,1.017-13.682,2.6-42.491,2.6-42.491Z" transform="translate(-2015.432 -1277.579)" fill="#233862"/>
          <path id="Trazado_121004" data-name="Trazado 121004" d="M2036.425,1266.866s12.37,30.533,20.5,44.881S2067.6,1330.1,2067.6,1330.1s4.659-1.835,5.083-3.087c0,0-3.11-27.7-8.557-34.453-3.078-3.816-6.693-15.267-6.863-19.271s-1.1-11.929-1.1-11.929Z" transform="translate(-2030.664 -1261.36)" fill="#2b478b"/>
        </g>
        <path id="Trazado_121005" data-name="Trazado 121005" d="M2067.673,968.577s-8.369,4.038-13.194,2.54a11.393,11.393,0,0,1,3.266-2.613c-.167-.969-.3-1.809-.371-2.522a23.352,23.352,0,0,1-.2-2.576l3.229-2.54,3.062-2.43A12.339,12.339,0,0,0,2067.673,968.577Z" transform="translate(-2021.205 -947.307)" fill="#ffb27d"/>
        <path id="Trazado_121006" data-name="Trazado 121006" d="M2038.5,1051.754c.018.512-1.076,1.1-1.559,1.316a34.194,34.194,0,0,1-10.708,3.033c-4.472.457-9.761-.548-11.58-.512a.758.758,0,0,1-.5-.2c-.13-.092-.223-5.482-.13-12.261,0-.274,0-.548.019-.823v-.091c.037-2.65.13-5.427.26-8.2.26-6.1.742-11.987,1.559-15.24a16.52,16.52,0,0,1,5.233-8.223l1.67-1.462a8.026,8.026,0,0,0,5.2-.621c1.93-.932,4.008-1.937,4.342-1.682,2.524,1.846,4.231,5.994,5.14,11.293a58.733,58.733,0,0,1,.761,10.05c0,1.316-.037,2.668-.112,4a126.153,126.153,0,0,0,.26,17.158C2038.422,1050.347,2038.478,1051.169,2038.5,1051.754Z" transform="translate(-1987.618 -987.372)" fill="#583ae2"/>
        <path id="Trazado_121007" data-name="Trazado 121007" d="M2085.86,1106.507c-29.307-.059-5.405-31.8-5.405-31.8l4.748-1.542a92.31,92.31,0,0,1,.55,10.737c0,1.406-.027,2.85-.081,4.276C2085.351,1095.906,2085.672,1102.622,2085.86,1106.507Z" transform="translate(-2035.13 -1042.458)" fill="#40327b"/>
        <path id="Trazado_121008" data-name="Trazado 121008" d="M2076.594,972.862a11.092,11.092,0,0,1-6.142,4.934,23.3,23.3,0,0,1-.2-2.576l3.229-2.54Z" transform="translate(-2034.284 -959.12)" fill="#ed985f"/>
        <path id="Trazado_121009" data-name="Trazado 121009" d="M2054.047,923.694s7.984,1.306,8.734-3.6,2.284-8.046-2.781-9.087-6.345.684-7,2.263S2051.989,923.228,2054.047,923.694Z" transform="translate(-2019.555 -907.706)" fill="#ffb27d"/>
        <path id="Trazado_121010" data-name="Trazado 121010" d="M2053.141,895.924c.072-.083.239-.15.612-.17a1.511,1.511,0,0,0-.7-.2,1.872,1.872,0,0,0-1.243-1.656,1.116,1.116,0,0,1,.541.805c-1.031-1.059-3.241-1.83-9.36-1.347-8.064.636-5.406,5.8-4.363,6.415s3.672-1.072,5.617-.918,2.315,2.965,2.975,3.351.4-.3,1.293-.7.978,1.076.72,2.038.969,2.231.969,2.231l1.24-1.335c1.24-1.335,2.408-6.99,1.845-8.2C2053.241,896.14,2053.192,896.033,2053.141,895.924Z" transform="translate(-2007.014 -893.213)" fill="#2c3a64"/>
        <path id="Trazado_121011" data-name="Trazado 121011" d="M2102.721,1006.744s5.051,2.392,7.473,6.07c3.757,5.7,8.112,26.494,8.193,28.419s-3.179,15.517-3.179,15.517-3.305-.218-4.158-1.886c0,0,.661-13.965.242-14.863s-13.78-18.733-12.277-22.538S2102.721,1006.744,2102.721,1006.744Z" transform="translate(-2058.044 -987.372)" fill="#583ae2"/>
        <path id="Trazado_121012" data-name="Trazado 121012" d="M1881.981,1038.771s.275-1.085-.478-1.573-1.445-1.814-1.762-1.634c-.657.372.36,1.53.174,2.973C1879.849,1039.043,1881.026,1040.368,1881.981,1038.771Z" transform="translate(-1876.097 -1011.261)" fill="#ffb27d"/>
      </g>
    </g>
  </g>
</svg>
