<svg xmlns="http://www.w3.org/2000/svg" xmlns:xlink="http://www.w3.org/1999/xlink" width="523" height="295" viewBox="0 0 523 295">
  <defs>
    <filter id="Rectángulo_34122" x="0" y="0" width="523" height="295" filterUnits="userSpaceOnUse">
      <feOffset dy="3" input="SourceAlpha"/>
      <feGaussianBlur stdDeviation="3" result="blur"/>
      <feFlood flood-opacity="0.161"/>
      <feComposite operator="in" in2="blur"/>
      <feComposite in="SourceGraphic"/>
    </filter>
    <linearGradient id="linear-gradient" x1="5.381" y1="0.417" x2="6.04" y2="1.226" gradientUnits="objectBoundingBox">
      <stop offset="0" stop-color="#09005d"/>
      <stop offset="1" stop-color="#1a0f91"/>
    </linearGradient>
    <linearGradient id="linear-gradient-2" x1="7.783" y1="0.26" x2="9.144" y2="1.995" xlink:href="#linear-gradient"/>
    <linearGradient id="linear-gradient-3" x1="1.61" y1="0.212" x2="1.158" y2="0.899" gradientUnits="objectBoundingBox">
      <stop offset="0" stop-color="#febbba"/>
      <stop offset="1" stop-color="#ff928e"/>
    </linearGradient>
    <linearGradient id="linear-gradient-4" x1="0.755" y1="0.791" x2="1.452" y2="-1.379" xlink:href="#linear-gradient-3"/>
    <linearGradient id="linear-gradient-5" x1="-2.192" y1="1.062" x2="-2.081" y2="0.1" xlink:href="#linear-gradient-3"/>
    <linearGradient id="linear-gradient-6" x1="-0.618" y1="0.82" x2="-0.929" y2="-0.114" xlink:href="#linear-gradient-3"/>
    <linearGradient id="linear-gradient-7" x1="-0.349" y1="-0.467" x2="-0.172" y2="0.954" xlink:href="#linear-gradient"/>
    <linearGradient id="linear-gradient-8" x1="-8.072" y1="2.058" x2="-9.545" y2="-0.895" xlink:href="#linear-gradient-3"/>
    <linearGradient id="linear-gradient-9" x1="3.36" y1="0.5" x2="4.36" y2="0.5" xlink:href="#linear-gradient"/>
    <linearGradient id="linear-gradient-10" x1="2.391" y1="-0.604" x2="1.651" y2="0.973" xlink:href="#linear-gradient"/>
  </defs>
  <g id="Grupo_84783" data-name="Grupo 84783" transform="translate(-1746 7155)">
    <g transform="matrix(1, 0, 0, 1, 1746, -7155)" filter="url(#Rectángulo_34122)">
      <rect id="Rectángulo_34122-2" data-name="Rectángulo 34122" width="505" height="277" rx="20" transform="translate(9 6)" fill="#fff"/>
    </g>
    <g id="Grupo_82934" data-name="Grupo 82934" transform="translate(1447.176 -7578.677)">
      <g id="Grupo_82935" data-name="Grupo 82935" transform="translate(335.67 440.034)">
        <path id="Trazado_120718" data-name="Trazado 120718" d="M242.831,472.556s-32.449-49.094,2.891-106.854,82.806-28.713,80.508-95.94,98.1-73.747,133.573-54.254,66.8,8.326,109.177,9.686c68.725,2.205,87.963,70.017,68.909,103.018-27.035,46.823,84.693,52.329,20.379,144.343Z" transform="translate(-229.229 -205.912)" fill="#daf1f5"/>
      </g>
      <g id="Grupo_82922" data-name="Grupo 82922" transform="translate(560.136 455)">
        <g id="Grupo_82917" data-name="Grupo 82917" transform="translate(0 0)">
          <g id="Grupo_82914" data-name="Grupo 82914" transform="translate(0 48.872)">
            <path id="Trazado_120810" data-name="Trazado 120810" d="M2365.189,1113.9a.3.3,0,0,1-.266-.452q.294-.529.57-1.064a.3.3,0,1,1,.541.279q-.281.544-.579,1.08A.3.3,0,0,1,2365.189,1113.9Z" transform="translate(-2289.389 -1101.688)" fill="#b5e4eb"/>
            <path id="Trazado_120811" data-name="Trazado 120811" d="M1583.171,1078.528q-.27,0-.539,0a.3.3,0,0,1,0-.608h0c.787.011,1.582,0,2.368-.038a.309.309,0,0,1,.318.29.3.3,0,0,1-.29.318C1584.417,1078.514,1583.79,1078.528,1583.171,1078.528Zm-4.4-.237-.033,0c-.795-.086-1.6-.2-2.381-.328a.3.3,0,0,1,.1-.6c.774.13,1.563.239,2.346.323a.3.3,0,0,1-.032.607Zm10.114-.163a.3.3,0,0,1-.042-.606c.779-.11,1.564-.244,2.334-.4a.3.3,0,0,1,.12.6c-.782.158-1.579.294-2.369.405A.288.288,0,0,1,1588.881,1078.128Zm-16.265-.984a.306.306,0,0,1-.079-.01c-.771-.206-1.546-.437-2.3-.688a.3.3,0,0,1,.191-.578c.746.247,1.509.475,2.268.678a.3.3,0,0,1-.078.6Zm22.376-.364a.3.3,0,0,1-.088-.6c.754-.229,1.509-.482,2.245-.753a.3.3,0,1,1,.21.571c-.747.275-1.514.533-2.279.765A.305.305,0,0,1,1594.992,1076.78Zm-28.28-1.711a.3.3,0,0,1-.123-.026c-.731-.322-1.461-.67-2.169-1.034a.3.3,0,1,1,.278-.541c.7.358,1.416.7,2.137,1.018a.3.3,0,0,1-.123.583Zm34.111-.561a.3.3,0,0,1-.132-.579c.708-.341,1.415-.708,2.1-1.091a.3.3,0,0,1,.3.532c-.7.389-1.416.761-2.135,1.107A.3.3,0,0,1,1600.823,1074.508Zm-39.622-2.4a.3.3,0,0,1-.164-.048c-.672-.431-1.339-.887-1.984-1.356a.3.3,0,1,1,.358-.492c.635.462,1.292.911,1.954,1.336a.3.3,0,0,1-.165.56Zm45.033-.748a.3.3,0,0,1-.173-.555c.647-.447,1.29-.918,1.91-1.4a.3.3,0,1,1,.374.48c-.63.49-1.282.969-1.939,1.423A.3.3,0,0,1,1606.234,1071.363Zm-50.022-3.025a.3.3,0,0,1-.2-.076c-.6-.527-1.185-1.08-1.752-1.645a.3.3,0,1,1,.429-.431c.559.556,1.14,1.1,1.727,1.62a.3.3,0,0,1-.2.532Zm54.889-.913a.3.3,0,0,1-.209-.526c.573-.54,1.136-1.1,1.675-1.674a.3.3,0,1,1,.443.418c-.547.579-1.119,1.151-1.7,1.7A.3.3,0,0,1,1611.1,1067.425Zm-59.246-3.579a.3.3,0,0,1-.234-.11c-.51-.612-1.009-1.248-1.484-1.891a.3.3,0,1,1,.49-.362c.468.633.959,1.26,1.462,1.863a.3.3,0,0,1-.234.5Zm63.458-1.048a.3.3,0,0,1-.24-.491c.485-.623.955-1.265,1.4-1.91a.3.3,0,0,1,.5.345c-.451.655-.929,1.308-1.421,1.939A.3.3,0,0,1,1615.314,1062.8Zm-67.083-4.053a.3.3,0,0,1-.261-.148c-.412-.687-.808-1.392-1.176-2.1a.3.3,0,1,1,.539-.282c.363.694.753,1.389,1.159,2.065a.3.3,0,0,1-.261.461Zm-2.8-5.6a.3.3,0,0,1-.282-.19c-.3-.741-.583-1.5-.838-2.253a.3.3,0,1,1,.577-.195c.251.742.529,1.488.826,2.219a.3.3,0,0,1-.282.419Z" transform="translate(-1542.965 -1045.371)" fill="#b5e4eb"/>
            <path id="Trazado_120812" data-name="Trazado 120812" d="M1530.124,997.541a.3.3,0,0,1-.3-.235q-.14-.6-.262-1.2a.3.3,0,0,1,.6-.121q.12.591.259,1.179a.3.3,0,0,1-.227.366A.318.318,0,0,1,1530.124,997.541Z" transform="translate(-1529.559 -995.744)" fill="#b5e4eb"/>
          </g>
          <g id="Grupo_82915" data-name="Grupo 82915" transform="translate(5.419)">
            <path id="Trazado_120813" data-name="Trazado 120813" d="M1589.826,655.919a.3.3,0,0,1-.257-.466q.326-.517.668-1.027a.3.3,0,1,1,.505.339q-.338.5-.659,1.012A.3.3,0,0,1,1589.826,655.919Z" transform="translate(-1589.522 -636.279)" fill="#b5e4eb"/>
            <path id="Trazado_120814" data-name="Trazado 120814" d="M1694.617,484.833a.3.3,0,0,1-.292-.219c-.232-.793-.493-1.589-.774-2.366a.3.3,0,1,1,.572-.207c.286.789.55,1.6.786,2.4a.3.3,0,0,1-.292.39Zm-2.358-6.142a.3.3,0,0,1-.275-.172c-.359-.746-.745-1.49-1.148-2.21a.3.3,0,1,1,.531-.3c.409.73.8,1.485,1.165,2.243a.3.3,0,0,1-.274.436Zm-3.323-5.678a.3.3,0,0,1-.25-.13c-.473-.676-.975-1.347-1.49-1.995a.3.3,0,1,1,.476-.379c.523.658,1.032,1.339,1.512,2.025a.3.3,0,0,1-.249.479Zm-64.752-2.656a.3.3,0,0,1-.234-.5c.534-.643,1.1-1.28,1.673-1.894a.3.3,0,1,1,.444.417c-.568.6-1.122,1.233-1.648,1.866A.3.3,0,0,1,1624.184,470.358Zm60.559-2.414a.3.3,0,0,1-.218-.092c-.573-.591-1.174-1.174-1.787-1.732a.3.3,0,1,1,.41-.45c.622.567,1.232,1.158,1.813,1.758a.3.3,0,0,1-.218.516Zm-55.965-2.295a.3.3,0,0,1-.2-.533c.633-.553,1.29-1.093,1.954-1.6a.3.3,0,1,1,.372.482c-.654.5-1.3,1.036-1.925,1.581A.3.3,0,0,1,1628.778,465.649Zm51.021-2.041a.3.3,0,0,1-.181-.06c-.663-.493-1.35-.971-2.042-1.421a.3.3,0,1,1,.332-.51c.7.457,1.4.943,2.073,1.443a.3.3,0,0,1-.182.549Zm-45.734-1.878a.3.3,0,0,1-.161-.562c.712-.443,1.447-.87,2.186-1.269a.3.3,0,1,1,.289.535c-.728.393-1.453.814-2.154,1.25A.3.3,0,0,1,1634.065,461.73Zm40.153-1.6a.3.3,0,0,1-.139-.034c-.734-.378-1.489-.739-2.246-1.071a.3.3,0,0,1,.245-.557c.768.338,1.535.7,2.28,1.088a.3.3,0,0,1-.14.575Zm-34.3-1.411a.3.3,0,0,1-.117-.585c.773-.321,1.568-.623,2.363-.9a.3.3,0,0,1,.2.575c-.783.27-1.567.568-2.328.884A.306.306,0,0,1,1639.915,458.717Zm28.233-1.12a.3.3,0,0,1-.094-.015c-.785-.255-1.59-.488-2.39-.694a.3.3,0,0,1,.151-.59c.813.21,1.629.447,2.426.705a.3.3,0,0,1-.094.594Zm-21.973-.9a.3.3,0,0,1-.069-.6c.818-.193,1.652-.362,2.477-.5a.3.3,0,0,1,.1.6c-.813.139-1.634.306-2.44.5A.311.311,0,0,1,1646.174,456.694Zm15.573-.614a.3.3,0,0,1-.046,0c-.817-.125-1.648-.227-2.472-.3a.3.3,0,1,1,.055-.606c.835.076,1.679.179,2.508.306a.3.3,0,0,1-.046.6Zm-9.069-.373a.3.3,0,0,1-.021-.608c.836-.059,1.685-.092,2.525-.1h0a.3.3,0,0,1,0,.609c-.828.007-1.665.04-2.488.1Z" transform="translate(-1620.774 -455)" fill="#b5e4eb"/>
            <path id="Trazado_120815" data-name="Trazado 120815" d="M2414.223,824.218a.3.3,0,0,1-.3-.257q-.093-.6-.2-1.19a.3.3,0,1,1,.6-.112q.112.6.207,1.208a.3.3,0,0,1-.254.348A.321.321,0,0,1,2414.223,824.218Z" transform="translate(-2339.224 -789.205)" fill="#b5e4eb"/>
          </g>
          <g id="Grupo_82916" data-name="Grupo 82916" transform="translate(8.449 9.723)">
            <path id="Trazado_120816" data-name="Trazado 120816" d="M1686.051,592.961a.489.489,0,0,0-.292-.486l-5.455-2.37a25.907,25.907,0,0,0-2.6-7.981l3.01-5.125a.488.488,0,0,0-.05-.565l-4.637-5.421a.489.489,0,0,0-.551-.137l-5.529,2.18a25.908,25.908,0,0,0-7.483-3.8l-1.5-5.756a.489.489,0,0,0-.435-.364l-7.112-.554a.488.488,0,0,0-.486.292l-2.37,5.455a25.909,25.909,0,0,0-7.981,2.6l-5.125-3.01a.488.488,0,0,0-.565.05l-5.421,4.637a.488.488,0,0,0-.137.551l2.18,5.529a25.907,25.907,0,0,0-3.8,7.482l-5.756,1.5a.488.488,0,0,0-.364.435l-.554,7.112a.488.488,0,0,0,.292.486l5.455,2.37a25.9,25.9,0,0,0,2.6,7.981l-3.01,5.125a.489.489,0,0,0,.05.565l4.637,5.421a.488.488,0,0,0,.551.137l5.529-2.18a25.9,25.9,0,0,0,7.483,3.8l1.5,5.756a.488.488,0,0,0,.435.364l7.112.554a.489.489,0,0,0,.486-.292l2.369-5.454a25.907,25.907,0,0,0,7.981-2.6l5.125,3.01a.488.488,0,0,0,.565-.05l5.421-4.637a.489.489,0,0,0,.137-.551l-2.18-5.529a25.909,25.909,0,0,0,3.8-7.483l5.756-1.5a.488.488,0,0,0,.364-.435Z" transform="translate(-1623.044 -562.58)" fill="#b5e4eb"/>
            <path id="Trazado_120817" data-name="Trazado 120817" d="M1903.289,849.6a6.81,6.81,0,1,1,1.16-.1A6.875,6.875,0,0,1,1903.289,849.6Zm.027-12.671a5.937,5.937,0,0,0-1,.086,5.878,5.878,0,1,0,4.387,1h0A5.835,5.835,0,0,0,1903.316,836.927Z" transform="translate(-1871.799 -811.301)" fill="#b5e4eb" opacity="0.7"/>
            <path id="Trazado_120818" data-name="Trazado 120818" d="M1792.131,751q-.7,0-1.4-.055a17.672,17.672,0,0,1-16.3-17.587q0-.7.055-1.4a17.669,17.669,0,0,1,31.042-10.113,17.772,17.772,0,0,1,2.13,3.1l-.8.434a16.848,16.848,0,0,0-2.021-2.941,16.756,16.756,0,0,0-29.439,9.59q-.052.667-.052,1.329a16.759,16.759,0,0,0,32.644,5.308l.866.29A17.681,17.681,0,0,1,1792.131,751Z" transform="translate(-1760.75 -701.823)" fill="#b5e4eb" opacity="0.7"/>
          </g>
        </g>
        <g id="Grupo_82921" data-name="Grupo 82921" transform="translate(71.33 38.901)">
          <g id="Grupo_82918" data-name="Grupo 82918" transform="translate(0 25.087)">
            <path id="Trazado_120819" data-name="Trazado 120819" d="M2744.924,1224.491a.3.3,0,0,1-.261-.459c.2-.345.4-.7.581-1.049a.3.3,0,1,1,.541.279c-.186.361-.387.724-.6,1.079A.3.3,0,0,1,2744.924,1224.491Z" transform="translate(-2706.134 -1217.412)" fill="#b5e4eb"/>
            <path id="Trazado_120820" data-name="Trazado 120820" d="M2354.706,1229.855h-.024a21.514,21.514,0,0,1-2.464-.339.3.3,0,1,1,.118-.6,20.778,20.778,0,0,0,2.394.33.3.3,0,0,1-.023.608Zm3.979-.065a.3.3,0,0,1-.033-.607,20.8,20.8,0,0,0,2.382-.408.3.3,0,1,1,.138.593,21.313,21.313,0,0,1-2.452.421Zm-10.223-1.409a.31.31,0,0,1-.115-.022,21.345,21.345,0,0,1-2.245-1.07.3.3,0,0,1,.294-.533,20.679,20.679,0,0,0,2.181,1.04.3.3,0,0,1-.115.586Zm16.415-.273a.3.3,0,0,1-.125-.582,20.512,20.512,0,0,0,2.145-1.114.3.3,0,1,1,.312.522,21.211,21.211,0,0,1-2.208,1.147A.3.3,0,0,1,2364.877,1228.108Zm-21.912-3.029a.3.3,0,0,1-.195-.071,21.451,21.451,0,0,1-1.813-1.7.3.3,0,1,1,.442-.419,20.811,20.811,0,0,0,1.761,1.654.3.3,0,0,1-.2.538Zm27.3-.459a.3.3,0,0,1-.2-.531l.179-.161a20.939,20.939,0,0,0,1.53-1.548.3.3,0,0,1,.455.4,21.5,21.5,0,0,1-1.574,1.594l-.183.166A.3.3,0,0,1,2370.261,1224.62Zm-31.538-4.353a.3.3,0,0,1-.257-.14,21.138,21.138,0,0,1-1.216-2.171.3.3,0,0,1,.547-.266,20.586,20.586,0,0,0,1.182,2.108.3.3,0,0,1-.092.42A.3.3,0,0,1,2338.723,1220.268Z" transform="translate(-2335.553 -1212.592)" fill="#b5e4eb"/>
            <path id="Trazado_120821" data-name="Trazado 120821" d="M2319.371,1164.785a.3.3,0,0,1-.294-.226c-.1-.4-.2-.8-.281-1.2a.3.3,0,0,1,.6-.121c.08.39.171.782.273,1.167a.3.3,0,0,1-.216.372A.317.317,0,0,1,2319.371,1164.785Z" transform="translate(-2318.79 -1162.992)" fill="#b5e4eb"/>
          </g>
          <g id="Grupo_82919" data-name="Grupo 82919" transform="translate(2.784)">
            <path id="Trazado_120822" data-name="Trazado 120822" d="M2349.892,983.833a.3.3,0,0,1-.257-.467c.218-.347.45-.692.688-1.025a.3.3,0,0,1,.5.354c-.231.324-.456.658-.668,1A.3.3,0,0,1,2349.892,983.833Z" transform="translate(-2349.588 -973.466)" fill="#b5e4eb"/>
            <path id="Trazado_120823" data-name="Trazado 120823" d="M2419.508,898.747a.3.3,0,0,1-.281-.185,20.359,20.359,0,0,0-1.055-2.13.3.3,0,0,1,.529-.3,21.212,21.212,0,0,1,1.086,2.194.3.3,0,0,1-.28.423Zm-3.32-5.368a.3.3,0,0,1-.231-.107q-.233-.274-.477-.541c-.372-.407-.763-.8-1.165-1.179a.3.3,0,0,1,.416-.445c.413.387.816.795,1.2,1.214q.251.275.491.557a.3.3,0,0,1-.232.5Zm-30.4-1.561a.3.3,0,0,1-.21-.524q.185-.176.374-.349c.475-.434.976-.851,1.487-1.239a.3.3,0,0,1,.368.484c-.5.378-.983.783-1.445,1.2q-.184.168-.364.34A.3.3,0,0,1,2385.791,891.818Zm25.633-2.58a.3.3,0,0,1-.162-.047,20.611,20.611,0,0,0-2.078-1.151.3.3,0,1,1,.263-.549,21.241,21.241,0,0,1,2.14,1.185.3.3,0,0,1-.163.562Zm-20.47-1.051a.3.3,0,0,1-.136-.577,21.272,21.272,0,0,1,2.251-.961.3.3,0,0,1,.206.573,20.6,20.6,0,0,0-2.187.933A.3.3,0,0,1,2390.954,888.187Zm14.688-1.473a.311.311,0,0,1-.079-.01,20.751,20.751,0,0,0-2.329-.477.3.3,0,0,1-.257-.345.3.3,0,0,1,.345-.257,21.353,21.353,0,0,1,2.4.491.3.3,0,0,1-.078.6Zm-8.676-.445a.3.3,0,0,1-.047-.6,21.412,21.412,0,0,1,2.435-.243.3.3,0,1,1,.025.608,20.8,20.8,0,0,0-2.366.236A.306.306,0,0,1,2396.966,886.269Z" transform="translate(-2382.242 -885.421)" fill="#b5e4eb"/>
            <path id="Trazado_120824" data-name="Trazado 120824" d="M2772.2,1069.337a.3.3,0,0,1-.3-.257c-.061-.393-.135-.79-.219-1.178a.3.3,0,1,1,.595-.128c.086.4.162.808.225,1.213a.3.3,0,0,1-.254.348A.316.316,0,0,1,2772.2,1069.337Z" transform="translate(-2733.524 -1051.074)" fill="#b5e4eb"/>
          </g>
          <g id="Grupo_82920" data-name="Grupo 82920" transform="translate(4.488 5.124)">
            <path id="Trazado_120825" data-name="Trazado 120825" d="M2400.811,957.726a.251.251,0,0,0-.15-.25l-2.8-1.217a13.3,13.3,0,0,0-1.334-4.1l1.546-2.632a.251.251,0,0,0-.026-.29l-2.382-2.784a.251.251,0,0,0-.283-.07l-2.84,1.12a13.311,13.311,0,0,0-3.844-1.953l-.769-2.957a.251.251,0,0,0-.223-.187l-3.653-.285a.251.251,0,0,0-.25.15l-1.217,2.8a13.3,13.3,0,0,0-4.1,1.334l-2.632-1.546a.251.251,0,0,0-.291.026l-2.784,2.382a.251.251,0,0,0-.07.283l1.12,2.84a13.308,13.308,0,0,0-1.953,3.844l-2.957.768a.251.251,0,0,0-.187.223l-.285,3.653a.251.251,0,0,0,.15.25l2.8,1.217a13.3,13.3,0,0,0,1.334,4.1l-1.546,2.632a.251.251,0,0,0,.026.29l2.382,2.785a.251.251,0,0,0,.283.07l2.84-1.12a13.3,13.3,0,0,0,3.844,1.953l.768,2.957a.251.251,0,0,0,.223.187l3.653.285a.251.251,0,0,0,.25-.15l1.217-2.8a13.306,13.306,0,0,0,4.1-1.334l2.633,1.546a.251.251,0,0,0,.29-.026l2.784-2.382a.251.251,0,0,0,.071-.283l-1.12-2.84a13.309,13.309,0,0,0,1.953-3.844l2.957-.768a.251.251,0,0,0,.187-.223Z" transform="translate(-2368.446 -942.12)" fill="#b5e4eb"/>
            <path id="Trazado_120826" data-name="Trazado 120826" d="M2510.171,1087.54a3.722,3.722,0,1,1,.634-.054A3.737,3.737,0,0,1,2510.171,1087.54Zm.012-6.507a2.795,2.795,0,1,0,1.612.513h0A2.781,2.781,0,0,0,2510.183,1081.033Z" transform="translate(-2493.996 -1067.646)" fill="#b5e4eb" opacity="0.7"/>
            <path id="Trazado_120827" data-name="Trazado 120827" d="M2453.119,1036.938q-.367,0-.737-.029a9.3,9.3,0,1,1,7.788-15.314l.078.092a9.372,9.372,0,0,1,.958,1.387l0,.006.012.022.021.038.012.021.036.066-.8.434a8.458,8.458,0,0,0-1.011-1.472h0a8.384,8.384,0,1,0,1.578,8.121l.866.29a9.305,9.305,0,0,1-8.8,6.339Z" transform="translate(-2436.999 -1011.455)" fill="#b5e4eb" opacity="0.7"/>
          </g>
        </g>
      </g>
      <g id="Grupo_82923" data-name="Grupo 82923" transform="translate(433.768 504.875)">
        <path id="Trazado_120828" data-name="Trazado 120828" d="M465.366,1347.35a51.654,51.654,0,0,1,73.008-34.931,6,6,0,0,0,8.468-4.005c9.155-36.384,41.374-63.263,79.719-63.263,45.468,0,82.327,37.792,82.327,84.412,0,1.237-.024,2.928-.045,4.55.161,3.486,1.646,4.966,3.862,5.338,17.814,1.9,31.814,16.959,32.591,35.531.892,21.325-16.036,38.993-36.853,38.993H515.886C482.923,1413.975,457.114,1382.57,465.366,1347.35Z" transform="translate(-463.815 -1245.151)" fill="#583ae2"/>
        <path id="Trazado_120829" data-name="Trazado 120829" d="M614.239,1515.159a46.12,46.12,0,0,1,65.187-31.189,5.353,5.353,0,0,0,7.561-3.576c8.174-32.486,36.942-56.485,71.178-56.485,40.6,0,73.507,33.744,73.507,75.369,0,1.1-.022,2.614-.041,4.063.144,3.113,1.469,4.434,3.448,4.766,15.906,1.7,28.406,15.142,29.1,31.724.8,19.04-14.318,34.815-32.905,34.815H659.347C629.915,1574.645,606.871,1546.606,614.239,1515.159Z" transform="translate(-597.775 -1405.822)" fill="#826be9" opacity="0.21"/>
      </g>
      <g id="Grupo_82928" data-name="Grupo 82928" transform="translate(460.13 599.985)">
        <path id="Trazado_120830" data-name="Trazado 120830" d="M828.755,2281.712a2.847,2.847,0,0,0,2.84,2.838H985.183a2.847,2.847,0,0,0,2.84-2.838l1.278-88.262a4.946,4.946,0,0,0-5.208-4.379l-150.1-3.884a7.157,7.157,0,0,0-7.344,7.32Z" transform="translate(-816.296 -2185.186)" fill="#40327b"/>
        <path id="Trazado_120831" data-name="Trazado 120831" d="M856.2,2308.889a2.7,2.7,0,0,0,2.687,2.687h147.232a2.7,2.7,0,0,0,2.687-2.687l1.206-80.125a6.612,6.612,0,0,0-6.932-6.452l-143.859-3.86a5.03,5.03,0,0,0-5.161,5.148Z" transform="translate(-840.94 -2215.084)" fill="#826be9"/>
        <g id="Grupo_82924" data-name="Grupo 82924" transform="translate(114.435 7.522)">
          <path id="Trazado_120832" data-name="Trazado 120832" d="M2364.3,2671.369h0a.394.394,0,0,1-.39-.4l.1-6.5a.394.394,0,0,1,.394-.388h0a.394.394,0,0,1,.39.4l-.1,6.5A.394.394,0,0,1,2364.3,2671.369Z" transform="translate(-2312.454 -2623.151)" fill="#fff"/>
          <path id="Trazado_120833" data-name="Trazado 120833" d="M1907.469,2291.822h-.006a.393.393,0,0,1-.388-.4l.365-24.888a4.675,4.675,0,0,0-1.334-3.5,6.578,6.578,0,0,0-4.352-1.485l-45.981-1.233a.394.394,0,0,1-.383-.4.377.377,0,0,1,.4-.383l45.953,1.233a7.23,7.23,0,0,1,4.9,1.7,5.435,5.435,0,0,1,1.576,4.073l-.365,24.9A.393.393,0,0,1,1907.469,2291.822Z" transform="translate(-1855.391 -2259.528)" fill="#fff"/>
        </g>
        <rect id="Rectángulo_34326" data-name="Rectángulo 34326" width="181.073" height="7.755" rx="3.878" transform="translate(181.073 106.691) rotate(180)" fill="#40327b"/>
        <path id="Trazado_120834" data-name="Trazado 120834" d="M969.336,2375.652H912.647a3.784,3.784,0,0,1-3.784-3.784v-74a3.785,3.785,0,0,1,3.929-3.782l56.688,2.169a3.784,3.784,0,0,1,3.64,3.782v71.826A3.784,3.784,0,0,1,969.336,2375.652Z" transform="translate(-890.196 -2283.068)" fill="#ab9df1"/>
        <g id="Grupo_82925" data-name="Grupo 82925" transform="translate(29.775 40.049)">
          <rect id="Rectángulo_34327" data-name="Rectángulo 34327" width="38.629" height="4.99" rx="2.495" fill="#583ae2" opacity="0.51"/>
          <rect id="Rectángulo_34328" data-name="Rectángulo 34328" width="38.629" height="4.99" rx="2.495" transform="translate(0.076 7.969)" fill="#583ae2" opacity="0.51"/>
          <rect id="Rectángulo_34329" data-name="Rectángulo 34329" width="38.629" height="4.99" rx="2.495" transform="translate(0.302 16.105)" fill="#583ae2" opacity="0.51"/>
          <rect id="Rectángulo_34330" data-name="Rectángulo 34330" width="38.629" height="4.99" rx="2.495" transform="translate(0.378 24.074)" fill="#583ae2" opacity="0.51"/>
        </g>
        <g id="Grupo_82927" data-name="Grupo 82927" transform="translate(95.217 13.551)">
          <rect id="Rectángulo_34331" data-name="Rectángulo 34331" width="55.537" height="4.99" rx="2.495" transform="translate(0 26.492)" fill="#583ae2" opacity="0.51"/>
          <rect id="Rectángulo_34332" data-name="Rectángulo 34332" width="55.537" height="4.99" rx="2.495" transform="translate(0.172 34.467)" fill="#583ae2" opacity="0.51"/>
          <rect id="Rectángulo_34333" data-name="Rectángulo 34333" width="32.908" height="4.99" rx="2.495" transform="translate(0.172 42.603)" fill="#583ae2" opacity="0.51"/>
          <g id="Grupo_82926" data-name="Grupo 82926" transform="translate(14.644)" opacity="0.51">
            <path id="Trazado_120835" data-name="Trazado 120835" d="M1841.671,2327.009h-.846a.76.76,0,0,1-.76-.76v-2.892a1.874,1.874,0,0,0-1.874-1.874h-5.242a1.874,1.874,0,0,0-1.874,1.874v2.892a.76.76,0,0,1-.76.76h-.846a.76.76,0,0,1-.76-.76v-2.892a4.241,4.241,0,0,1,4.241-4.241h5.242a4.241,4.241,0,0,1,4.241,4.241v2.892A.761.761,0,0,1,1841.671,2327.009Z" transform="translate(-1826.833 -2319.116)" fill="#583ae2"/>
            <path id="Trazado_120836" data-name="Trazado 120836" d="M1826.067,2403.874h-14.3a1.587,1.587,0,0,0-1.587,1.587v10.975a1.587,1.587,0,0,0,1.587,1.586h14.3a1.587,1.587,0,0,0,1.587-1.586v-10.975A1.587,1.587,0,0,0,1826.067,2403.874Zm-5.1,10.607a.588.588,0,0,1-.572.725h-2.949a.588.588,0,0,1-.572-.725l.688-2.865a2.651,2.651,0,1,1,2.716,0Z" transform="translate(-1810.18 -2395.298)" fill="#583ae2"/>
          </g>
        </g>
      </g>
      <g id="Grupo_82931" data-name="Grupo 82931" transform="translate(591.682 537.733)">
        <g id="Grupo_82929" data-name="Grupo 82929" transform="translate(0)">
          <path id="Trazado_120837" data-name="Trazado 120837" d="M1879.75,1389.815a3.607,3.607,0,0,1,2.788-.96c10.952.985,31.385-4.29,44.739-17.954.927-.949,2.617-.413,3.68.382,14.852,11.1,39.47,13.4,48.016,13.869a3.606,3.606,0,0,1,3.385,3.23c7.772,75.064-41.1,102.264-51.238,107.065a3.615,3.615,0,0,1-3.453-.2c-50.519-31.468-48.358-72.391-49.057-102.713A3.611,3.611,0,0,1,1879.75,1389.815Z" transform="translate(-1878.608 -1370.395)" fill="#2ff980"/>
          <path id="Trazado_120838" data-name="Trazado 120838" d="M1984.432,1555.527a1.2,1.2,0,0,1-.648-.189c-19.368-12.381-31.991-27.183-38.591-45.251-5.895-16.137-6.183-32.569-6.438-47.066l-.035-1.933a1.182,1.182,0,0,1,.341-.857,1.2,1.2,0,0,1,.86-.359h0c11.994,0,30-5.3,43.2-17.128a1.2,1.2,0,0,1,1.46-.105c14.508,9.627,35.2,12.43,46.249,13.244a1.192,1.192,0,0,1,1.1,1.09c2.567,29.289-3.525,54.056-18.106,73.613a86.909,86.909,0,0,1-28.852,24.811h0A1.193,1.193,0,0,1,1984.432,1555.527Zm.32-.569.112.219-.112-.219a86.4,86.4,0,0,0,28.682-24.667c14.508-19.458,20.567-44.111,18.011-73.276a.7.7,0,0,0-.649-.642c-11.093-.818-31.883-3.636-46.484-13.324a.7.7,0,0,0-.86.062c-13.3,11.919-31.442,17.253-43.52,17.253h0a.713.713,0,0,0-.519.213.692.692,0,0,0-.2.5l.035,1.933c.254,14.459.542,30.847,6.408,46.907,6.562,17.963,19.12,32.684,38.394,45A.709.709,0,0,0,1984.753,1554.958Z" transform="translate(-1933.288 -1435.928)" fill="#fff" opacity="0.61"/>
        </g>
        <g id="Grupo_82930" data-name="Grupo 82930" transform="translate(28.732 26.439)" style="isolation: isolate">
          <path id="Trazado_120839" data-name="Trazado 120839" d="M2287.542,1684.245h-2.284a2.054,2.054,0,0,1-2.054-2.054v-7.808a5.061,5.061,0,0,0-5.061-5.061h-14.156a5.061,5.061,0,0,0-5.061,5.061v7.808a2.054,2.054,0,0,1-2.054,2.054h-2.285a2.054,2.054,0,0,1-2.054-2.054v-7.808a11.454,11.454,0,0,1,11.453-11.454h14.156a11.453,11.453,0,0,1,11.454,11.454v7.808A2.054,2.054,0,0,1,2287.542,1684.245Z" transform="translate(-2247.47 -1662.929)" fill="#583ae2"/>
          <path id="Trazado_120840" data-name="Trazado 120840" d="M2239.422,1919.172H2200.8a4.285,4.285,0,0,0-4.285,4.285v29.638a4.285,4.285,0,0,0,4.285,4.285h38.618a4.285,4.285,0,0,0,4.285-4.285v-29.638A4.285,4.285,0,0,0,2239.422,1919.172Zm-13.784,28.645a1.587,1.587,0,0,1-1.543,1.958h-7.964a1.588,1.588,0,0,1-1.544-1.958l1.858-7.735a7.159,7.159,0,1,1,7.334,0Z" transform="translate(-2196.519 -1896.013)" fill="#583ae2"/>
        </g>
      </g>
      <g id="Grupo_82933" data-name="Grupo 82933" transform="translate(435.037 485.677)">
        <path id="Trazado_120841" data-name="Trazado 120841" d="M683.285,1811.972s3.5.185,3.931,7.389c0,0-8.119,7.279-19.087,9.011-.823.13,1.151-5.621,1.448-6.4C670.989,1818.266,675.437,1815.879,683.285,1811.972Z" transform="translate(-648.546 -1735.424)" fill="url(#linear-gradient)"/>
        <path id="Trazado_120842" data-name="Trazado 120842" d="M770.731,1483.305h-7.389s-22.679-25.046-37.553-27.573c0,0-10.354,13.217.551,37.912a3.6,3.6,0,0,0,5.161,1.7,2.955,2.955,0,0,0,1.179-1.406l-.877-21.085s19.345,16.919,22.707,20.184S774.966,1494.312,770.731,1483.305Z" transform="translate(-696.558 -1415.228)" fill="#7d97f4"/>
        <path id="Trazado_120843" data-name="Trazado 120843" d="M502.626,2189.094a27.782,27.782,0,0,1,15.152-6.631l2.409,1.473a26.239,26.239,0,0,1-4.342,4.658c-2.579,1.5-6.561,3.526-9.862,3.966C502.773,2192.989,502.3,2191.049,502.626,2189.094Z" transform="translate(-499.889 -2068.43)" fill="url(#linear-gradient-2)"/>
        <path id="Trazado_120844" data-name="Trazado 120844" d="M656.3,1877.837c1.908.617,2.747,3.32,7.587,1.532a42.848,42.848,0,0,0,9.955-5.245c.04.349.074.712.1,1.1,0,0-8.561,8.143-19.529,9.875a1.092,1.092,0,0,1-1.179-1.471A27.535,27.535,0,0,1,656.3,1877.837Z" transform="translate(-635.271 -1791.289)" fill="#91b3fa"/>
        <path id="Trazado_120845" data-name="Trazado 120845" d="M476.756,2245.884a25.544,25.544,0,0,1,2.333-2.317c-.326,1.956.147,3.9,3.357,3.467,3.3-.44,7.283-2.468,9.862-3.966a21.319,21.319,0,0,1-14.357,5.51A1.628,1.628,0,0,1,476.756,2245.884Z" transform="translate(-476.351 -2122.903)" fill="#91b3fa"/>
        <path id="Trazado_120846" data-name="Trazado 120846" d="M691.67,1781.1l-34.6.375s-19.76,16.349-23.344,41.278c0,0-.595,1.833,2.977,2.147a68.6,68.6,0,0,0,19.737-21.6c9.551-16.915,28.474-9.3,28.474-9.3,9.091,2.006,16.327,1.26,21.622-6.889Z" transform="translate(-617.768 -1707.672)" fill="#7d97f4"/>
        <path id="Trazado_120847" data-name="Trazado 120847" d="M932.185,1505.605s-3.725,18.668-21.976,26.053l-6.492-.765-1.532,2.443,15.229.485a41.652,41.652,0,0,0,19.914-19.2C937.556,1514.152,941.354,1506.31,932.185,1505.605Z" transform="translate(-859.1 -1460.055)" fill="url(#linear-gradient-3)"/>
        <path id="Trazado_120848" data-name="Trazado 120848" d="M1173.843,1374.045s4.236-11.514,5.146-22.7a48.9,48.9,0,0,0-5.036-3.812,1.4,1.4,0,0,1-.547-1.816c1.424-2.95,10.036-14.534,10.681-14.695,3.506-.875,17.887-7.712,28.015,6.141,4.347,5.945-.863,24.248-20.582,43.2C1185.175,1381.395,1179.242,1379.567,1173.843,1374.045Z" transform="translate(-1102.754 -1300.926)" fill="#40327b"/>
        <path id="Trazado_120849" data-name="Trazado 120849" d="M980.933,1578.635s-11.769,13.935-26.815,15.972c0,0-3.889-3.545-6.78-2.279s-6.856,6.852-6.856,6.852H959.8s18.267-.644,27.4-11.721C986.462,1583.583,984.262,1581.268,980.933,1578.635Z" transform="translate(-893.521 -1525.696)" fill="url(#linear-gradient-4)"/>
        <path id="Trazado_120850" data-name="Trazado 120850" d="M1335.052,1256.236l2.575,8.588a.944.944,0,0,1-.367,1.052,9.6,9.6,0,0,1-8.925.9,1.4,1.4,0,0,1-.9-1.2l-.611-7.482Z" transform="translate(-1240.775 -1235.917)" fill="url(#linear-gradient-5)"/>
        <g id="Grupo_82932" data-name="Grupo 82932" transform="translate(73.576 0)">
          <path id="Trazado_120851" data-name="Trazado 120851" d="M1259.117,1135.344s1.266,8.9,4.686,11.641,10.083.676,12.334-6.035l-4.484-11.476Z" transform="translate(-1253.495 -1121.98)" fill="url(#linear-gradient-6)"/>
          <path id="Trazado_120852" data-name="Trazado 120852" d="M1222.211,1070.325a.441.441,0,0,1-.573-.353,11.508,11.508,0,0,0-1.056-3.556s.326-1.168-2.952.6-8.2,4.356-11.1,2.813c-2.826-1.5-5.689-9.078,1.78-7.675a.44.44,0,0,0,.524-.462c-.092-1.245.032-4.108,2.932-5.027,2.714-.86,4.2.365,4.811,1.1a.438.438,0,0,0,.686-.011,5.083,5.083,0,0,1,6.27-1.888c2.677,1.18,3.093,2.828,3.049,3.856a.439.439,0,0,0,.626.419,2.645,2.645,0,0,1,3.4,1.009c1.746,2.188-.749,4.085-1.5,4.583a.441.441,0,0,0-.2.364c-.007,1.138-.184,6.1-2.672,8.9a.444.444,0,0,1-.739-.128l-1.916-4.564a.442.442,0,0,0-.544-.25Z" transform="translate(-1203.548 -1055.404)" fill="url(#linear-gradient-7)"/>
          <path id="Trazado_120853" data-name="Trazado 120853" d="M1387.6,1180.7s1.169-4.764,2.946-3.217-.463,4.951-2.5,5.6Z" transform="translate(-1368.982 -1164.855)" fill="url(#linear-gradient-8)"/>
        </g>
        <path id="Trazado_120854" data-name="Trazado 120854" d="M729.839,1509.568l-8.674-28.928a2.958,2.958,0,0,0-2.631-2.1l-11.712-.8a1.661,1.661,0,0,0-1.681,2.208l9.7,27.626a2.432,2.432,0,0,0,2.05,1.614l11.533,1.281Z" transform="translate(-681.906 -1435.003)" fill="url(#linear-gradient-9)"/>
        <path id="Trazado_120855" data-name="Trazado 120855" d="M788.03,1575.708c.648,1.307,1.766,2.073,2.5,1.711s.8-1.716.153-3.024-1.766-2.073-2.5-1.71S787.383,1574.4,788.03,1575.708Z" transform="translate(-756.096 -1520.266)" fill="#91b3fa"/>
        <path id="Trazado_120856" data-name="Trazado 120856" d="M926.3,1770.633h.057l24.574-1.242a1.1,1.1,0,1,0-.111-2.2l-24.574,1.242a1.1,1.1,0,0,0,.055,2.2Z" transform="translate(-879.787 -1695.171)" fill="url(#linear-gradient-10)"/>
        <g id="Grupo_82936" data-name="Grupo 82936" transform="translate(76.065 38.172)">
          <path id="Trazado_120857" data-name="Trazado 120857" d="M1228.315,1445.1a.17.17,0,0,1-.17-.169c-.017-5.188,1.979-12.053,2-12.122a.17.17,0,0,1,.327.1c-.02.068-2,6.887-1.986,12.025a.17.17,0,0,1-.17.171Z" transform="translate(-1228.145 -1432.689)" fill="#271b5a"/>
          <path id="Trazado_120858" data-name="Trazado 120858" d="M1338.775,1474.823a.17.17,0,0,1-.134-.276c.053-.068,5.4-6.858,7.223-11.491a.168.168,0,0,1,.221-.1.171.171,0,0,1,.1.221c-1.847,4.679-7.219,11.509-7.273,11.577A.17.17,0,0,1,1338.775,1474.823Z" transform="translate(-1327.429 -1459.885)" fill="#271b5a"/>
          <path id="Trazado_120859" data-name="Trazado 120859" d="M1406.212,1568.051l-.972-1.374a.17.17,0,0,1,.278-.2l.813,1.149c7.579-3.323,12.271-12.39,12.318-12.482a.17.17,0,0,1,.3.155c-.048.093-4.846,9.368-12.614,12.695Z" transform="translate(-1387.294 -1542.673)" fill="#271b5a"/>
        </g>
      </g>
    </g>
  </g>
</svg>
