<svg xmlns="http://www.w3.org/2000/svg" xmlns:xlink="http://www.w3.org/1999/xlink" width="82" height="82" viewBox="0 0 82 82">
  <defs>
    <clipPath id="clip-path">
      <rect id="Rectángulo_34129" data-name="Rectángulo 34129" width="82" height="82" transform="translate(234 3961)" fill="#2ff980" stroke="#707070" stroke-width="1"/>
    </clipPath>
  </defs>
  <g id="Enmascarar_grupo_114" data-name="Enmascarar grupo 114" transform="translate(-234 -3961)" clip-path="url(#clip-path)">
    <g id="identificar" transform="translate(234 3961)">
      <path id="Trazado_121066" data-name="Trazado 121066" d="M51.714,1.2A28.748,28.748,0,0,0,27.982,45.657,1.868,1.868,0,0,1,27.744,48l-9.77,9.77,6.254,6.254L34,54.256a1.868,1.868,0,0,1,2.345-.238A28.745,28.745,0,1,0,51.714,1.2Z" fill="#c5d3dd"/>
      <circle id="Elipse_5325" data-name="Elipse 5325" cx="22.111" cy="22.111" r="22.111" transform="translate(29.945 7.834)" fill="#f9f7f8"/>
      <path id="Trazado_121067" data-name="Trazado 121067" d="M58.6,8.819A22.117,22.117,0,0,1,39.1,47.868,22.113,22.113,0,1,0,58.6,8.819Z" fill="#dff6fd"/>
      <path id="Trazado_121068" data-name="Trazado 121068" d="M52.055,16.679,39.945,37.654H64.166Z" fill="#fdb441"/>
      <path id="Trazado_121069" data-name="Trazado 121069" d="M28.485,62.659l-9.143-9.143a.168.168,0,0,0-.237,0L1.25,71.369a.168.168,0,0,0-.049.119V80.8h9.311a.168.168,0,0,0,.119-.049L28.485,62.9A.168.168,0,0,0,28.485,62.659Z" fill="#7a6d79"/>
      <g id="Grupo_83089" data-name="Grupo 83089">
        <path id="Trazado_121070" data-name="Trazado 121070" d="M15.114,22.662,8.692,21A2.211,2.211,0,1,1,9.8,16.718l6.421,1.663a2.211,2.211,0,0,1-1.109,4.281Z" fill="#fe646f"/>
        <path id="Trazado_121071" data-name="Trazado 121071" d="M14.673,34.449l-6.621.405a2.211,2.211,0,0,1-.27-4.414l6.621-.405a2.211,2.211,0,0,1,.27,4.414Z" fill="#fe646f"/>
        <path id="Trazado_121072" data-name="Trazado 121072" d="M21.558,7.862,15.967,4.293a2.211,2.211,0,0,0-2.379,3.728l5.592,3.568a2.211,2.211,0,1,0,2.379-3.728Z" fill="#fe646f"/>
      </g>
      <path id="Trazado_121073" data-name="Trazado 121073" d="M22.391,70.386,11.614,59.61a.2.2,0,0,1,0-.279l3.5-3.5a.2.2,0,0,1,.279,0L26.165,66.612a.2.2,0,0,1,0,.279l-3.5,3.5a.2.2,0,0,1-.279,0Z" fill="#c5d3dd"/>
      <path id="Trazado_121074" data-name="Trazado 121074" d="M52.055,53.256A23.312,23.312,0,1,0,28.744,29.945,23.338,23.338,0,0,0,52.055,53.256Zm0-44.221A20.909,20.909,0,1,1,31.146,29.945,20.933,20.933,0,0,1,52.055,9.036Z"/>
      <path id="Trazado_121075" data-name="Trazado 121075" d="M39.945,38.856H64.166a1.2,1.2,0,0,0,1.04-1.8l-2.172-3.762a1.2,1.2,0,1,0-2.08,1.2l1.132,1.96H42.025l10.03-17.372L58.1,29.543a1.2,1.2,0,1,0,2.08-1.2L53.1,16.078a1.2,1.2,0,0,0-2.08,0L38.9,37.054a1.2,1.2,0,0,0,1.04,1.8Z"/>
      <path id="Trazado_121076" data-name="Trazado 121076" d="M53.257,25.523a1.2,1.2,0,0,0-2.4,0v3.3a1.2,1.2,0,0,0,2.4,0Z"/>
      <circle id="Elipse_5326" data-name="Elipse 5326" cx="1.201" cy="1.201" r="1.201" transform="translate(50.852 31.947)"/>
      <path id="Trazado_121077" data-name="Trazado 121077" d="M8.391,22.162l6.421,1.663a3.412,3.412,0,1,0,1.711-6.606L10.1,15.555a3.412,3.412,0,1,0-1.711,6.606Zm-.122-3.556A1.009,1.009,0,0,1,9.5,17.881l6.421,1.663a1.01,1.01,0,0,1-.507,1.955L8.993,19.836a1.011,1.011,0,0,1-.724-1.231Z"/>
      <path id="Trazado_121078" data-name="Trazado 121078" d="M8.126,36.053l6.621-.405h0a3.412,3.412,0,0,0-.417-6.812l-6.621.405a3.412,3.412,0,1,0,.417,6.812Zm-.965-4.075a1,1,0,0,1,.695-.339l6.621-.405A1.01,1.01,0,0,1,14.6,33.25l-6.621.405A1.011,1.011,0,0,1,7.161,31.978Z"/>
      <path id="Trazado_121079" data-name="Trazado 121079" d="M12.942,9.034,18.533,12.6A3.412,3.412,0,1,0,22.2,6.849L16.613,3.281a3.412,3.412,0,0,0-3.671,5.753Zm.984-3.42a1.011,1.011,0,0,1,1.395-.308l5.592,3.568a1.01,1.01,0,1,1-1.087,1.7L14.234,7.009a1.009,1.009,0,0,1-.308-1.395Z"/>
      <path id="Trazado_121080" data-name="Trazado 121080" d="M73.23,8.771A30,30,0,0,0,33.347,6.527a1.2,1.2,0,1,0,1.5,1.877A27.564,27.564,0,0,1,79.6,30.272,27.547,27.547,0,0,1,37,53.013a3.083,3.083,0,0,0-3.852.394L27.04,59.515,22.485,54.96l6.108-6.108A3.083,3.083,0,0,0,28.987,45a27.618,27.618,0,0,1,1.976-32.811,1.2,1.2,0,0,0-1.838-1.547,30.024,30.024,0,0,0-2.149,35.673.662.662,0,0,1-.082.838l-6.108,6.109-.6-.6a1.371,1.371,0,0,0-1.935,0l-2.18,2.18a1.4,1.4,0,0,0-1.814.14l-3.5,3.5a1.4,1.4,0,0,0-.14,1.814L.4,70.521a1.36,1.36,0,0,0-.4.967V80.8A1.2,1.2,0,0,0,1.2,82h9.311a1.36,1.36,0,0,0,.968-.4L21.7,71.375a1.4,1.4,0,0,0,1.815-.14l3.5-3.5a1.4,1.4,0,0,0,.14-1.814l2.18-2.18a1.368,1.368,0,0,0,0-1.936l-.6-.6,6.109-6.109a.662.662,0,0,1,.838-.082A29.946,29.946,0,0,0,73.23,8.771ZM19.223,55.1,26.9,62.777l-1.438,1.438-7.682-7.682ZM22.53,68.827,21.1,67.4a1.2,1.2,0,0,0-1.7,1.7l.589.589-9.91,9.91H2.4V71.916l9.91-9.91,3.125,3.125a1.2,1.2,0,0,0,1.7-1.7L13.173,59.47l2.076-2.076,9.357,9.356Z"/>
    </g>
  </g>
</svg>
