<svg xmlns="http://www.w3.org/2000/svg" width="400" height="323" viewBox="0 0 400 323">
  <g id="Grupo_83775" data-name="Grupo 83775" transform="translate(-180 -3446)">
    <rect id="Rect치ngulo_34127" data-name="Rect치ngulo 34127" width="400" height="152" rx="20" transform="translate(180 3617)" fill="#ab9df1"/>
    <g id="Grupo_83087" data-name="Grupo 83087" transform="translate(-2818.2 2881)">
      <g id="Grupo_83004" data-name="Grupo 83004" transform="translate(3044.209 592.997)">
        <g id="Grupo_82995" data-name="Grupo 82995">
          <g id="Grupo_82988" data-name="Grupo 82988">
            <g id="Grupo_82975" data-name="Grupo 82975" transform="translate(0.426 0.427)">
              <g id="Grupo_82974" data-name="Grupo 82974">
                <path id="Trazado_121013" data-name="Trazado 121013" d="M3057.84,621h194.688c4.442,0,2.76,13.863,3.379,18.275l36.579,260.752c.618,4.411-10.727,15.127-15.169,15.127H3082.628a9.241,9.241,0,0,1-8.94-8.077l-28.622-267.8C3044.592,634.837,3053.4,621,3057.84,621Z" transform="translate(-3045.048 -621.004)" fill="#583ae2" fill-rule="evenodd"/>
              </g>
            </g>
            <g id="Grupo_82977" data-name="Grupo 82977" transform="translate(0 0.002)">
              <g id="Grupo_82976" data-name="Grupo 82976">
                <path id="Trazado_121014" data-name="Trazado 121014" d="M3057.465,620.167h194.686c3.622,0,3.612,7.555,3.606,13.42a44.743,44.743,0,0,0,.159,5.188l36.577,260.75a3.348,3.348,0,0,1,.016.732c-.2,2.337-2.7,5.783-5.734,8.765-3.02,2.966-6.606,5.5-9.007,6.039a4.2,4.2,0,0,1-.9.107H3082.178a9.619,9.619,0,0,1-9.326-8.42l-28.622-267.8a4.539,4.539,0,0,1,0-.856c.22-2.527,2.254-6.771,4.779-10.474h0c2.547-3.738,5.631-6.96,7.916-7.4a2.873,2.873,0,0,1,.54-.054Zm194.612.85H3057.392a2.088,2.088,0,0,0-.379.038c-2.026.385-4.888,3.436-7.314,6.992v0c-2.445,3.59-4.413,7.662-4.618,10.042a3.457,3.457,0,0,0,0,.7l28.621,267.8a8.674,8.674,0,0,0,2.858,5.459,8.567,8.567,0,0,0,5.694,2.272h194.687a3.356,3.356,0,0,0,.714-.086c2.232-.5,5.642-2.932,8.552-5.79s5.271-6.076,5.455-8.186a2.468,2.468,0,0,0-.01-.545L3255.073,638.96a44.36,44.36,0,0,1-.169-5.3C3254.909,628.13,3254.917,621.017,3252.077,621.017Z" transform="translate(-3044.209 -620.167)" fill="#40327b" fill-rule="evenodd"/>
              </g>
            </g>
            <g id="Grupo_82979" data-name="Grupo 82979" transform="translate(8.661 0.427)">
              <g id="Grupo_82978" data-name="Grupo 82978">
                <path id="Trazado_121015" data-name="Trazado 121015" d="M3068.533,621h194.688a9.238,9.238,0,0,1,8.939,8.076l28.621,267.8a7.14,7.14,0,0,1-7.214,8.075H3098.882a9.239,9.239,0,0,1-8.941-8.075l-28.622-267.8A7.14,7.14,0,0,1,3068.533,621Z" transform="translate(-3061.273 -621.004)" fill="#fff" fill-rule="evenodd"/>
              </g>
            </g>
            <g id="Grupo_82981" data-name="Grupo 82981" transform="translate(8.235)">
              <g id="Grupo_82980" data-name="Grupo 82980">
                <path id="Trazado_121016" data-name="Trazado 121016" d="M3068.157,620.163h194.686a9.623,9.623,0,0,1,9.328,8.422l28.622,267.8a8.412,8.412,0,0,1,.018,1.608,7.542,7.542,0,0,1-6.15,6.829,8.344,8.344,0,0,1-1.542.144H3098.43a9.621,9.621,0,0,1-9.326-8.421l-28.622-267.8a8.332,8.332,0,0,1-.02-1.607,7.535,7.535,0,0,1,6.152-6.829,8.172,8.172,0,0,1,1.542-.146Zm194.612.852H3068.083a7.41,7.41,0,0,0-1.382.128,6.628,6.628,0,0,0-3.711,2.068,6.705,6.705,0,0,0-1.675,3.927,7.315,7.315,0,0,0,.016,1.448l28.622,267.8a8.659,8.659,0,0,0,2.858,5.457,8.557,8.557,0,0,0,5.693,2.274h194.688a7.389,7.389,0,0,0,1.38-.128,6.612,6.612,0,0,0,3.712-2.07,6.7,6.7,0,0,0,1.677-3.925,7.51,7.51,0,0,0-.016-1.448l-28.622-267.8a8.673,8.673,0,0,0-2.86-5.459A8.563,8.563,0,0,0,3262.769,621.015Z" transform="translate(-3060.434 -620.163)" fill="#40327b" fill-rule="evenodd"/>
              </g>
            </g>
            <g id="Grupo_82983" data-name="Grupo 82983" transform="translate(20.244 11.444)">
              <g id="Grupo_82982" data-name="Grupo 82982">
                <path id="Trazado_121017" data-name="Trazado 121017" d="M3084.1,642.71l27.993,261.918h188.4L3272.491,642.71Z" transform="translate(-3084.096 -642.71)" fill="#f3f1ff" fill-rule="evenodd"/>
              </g>
            </g>
            <g id="Grupo_82985" data-name="Grupo 82985" transform="translate(19.766 11.019)">
              <g id="Grupo_82984" data-name="Grupo 82984">
                <path id="Trazado_121018" data-name="Trazado 121018" d="M3083.153,641.874h188.719l1.547,17.5H3084.7Z" transform="translate(-3083.153 -641.874)" fill="#583ae2" fill-rule="evenodd"/>
              </g>
            </g>
            <g id="Grupo_82987" data-name="Grupo 82987" transform="translate(19.766 11.019)">
              <g id="Grupo_82986" data-name="Grupo 82986">
                <path id="Trazado_121019" data-name="Trazado 121019" d="M3084.108,642.723l5.774,54.024c-.275.138-.549.283-.818.433l-5.911-55.307h34.02q-.29.419-.568.85Zm12.228,114.416,15.676,146.653h49.769c0,.283,0,.567.015.85h-50.56l-15.753-147.4c.287-.027.572-.063.854-.105Zm106.949,146.653h96.257l-12.22-114.35c.273-.155.544-.321.812-.49l12.363,115.69h-97.515c.108-.279.209-.564.3-.85Zm77.28-177.572-2.242-20.963c.268-.251.529-.509.782-.776l2.346,21.934c-.294-.074-.589-.14-.886-.2Zm-5.365-50.2-3.56-33.3h-48.772l-.231-.85h49.778l3.7,34.631C3275.816,676.332,3275.511,676.173,3275.2,676.021Z" transform="translate(-3083.153 -641.873)" fill="#40327b" fill-rule="evenodd"/>
              </g>
            </g>
          </g>
          <g id="Grupo_82990" data-name="Grupo 82990" transform="translate(30.983 15.223)">
            <g id="Grupo_82989" data-name="Grupo 82989">
              <path id="Trazado_121020" data-name="Trazado 121020" d="M3110.039,650.157a5.823,5.823,0,0,1,5.686,5.225,4.707,4.707,0,0,1-4.763,5.226,5.823,5.823,0,0,1-5.686-5.226A4.706,4.706,0,0,1,3110.039,650.157Z" transform="translate(-3105.255 -650.157)" fill="#fff" fill-rule="evenodd"/>
            </g>
          </g>
          <g id="Grupo_82992" data-name="Grupo 82992" transform="translate(44.759 15.223)">
            <g id="Grupo_82991" data-name="Grupo 82991">
              <path id="Trazado_121021" data-name="Trazado 121021" d="M3137.179,650.157a5.822,5.822,0,0,1,5.686,5.225,4.706,4.706,0,0,1-4.762,5.226,5.824,5.824,0,0,1-5.686-5.226A4.706,4.706,0,0,1,3137.179,650.157Z" transform="translate(-3132.396 -650.157)" fill="#fff" fill-rule="evenodd"/>
            </g>
          </g>
          <g id="Grupo_82994" data-name="Grupo 82994" transform="translate(58.534 15.223)">
            <g id="Grupo_82993" data-name="Grupo 82993">
              <path id="Trazado_121022" data-name="Trazado 121022" d="M3164.32,650.157a5.825,5.825,0,0,1,5.688,5.225,4.708,4.708,0,0,1-4.765,5.226,5.824,5.824,0,0,1-5.686-5.226A4.706,4.706,0,0,1,3164.32,650.157Z" transform="translate(-3159.537 -650.157)" fill="#fff" fill-rule="evenodd"/>
            </g>
          </g>
        </g>
        <g id="Grupo_82997" data-name="Grupo 82997" transform="translate(31.943 48.19)">
          <g id="Grupo_82996" data-name="Grupo 82996">
            <path id="Trazado_121023" data-name="Trazado 121023" d="M3107.146,715.111h166.7l3.746,33.284h-166.7Z" transform="translate(-3107.146 -715.111)" fill="#d5cef8" fill-rule="evenodd"/>
          </g>
        </g>
        <g id="Grupo_82999" data-name="Grupo 82999" transform="translate(36.349 87.35)">
          <g id="Grupo_82998" data-name="Grupo 82998">
            <path id="Trazado_121024" data-name="Trazado 121024" d="M3115.826,792.267h166.7l8.44,75.031h-166.7Z" transform="translate(-3115.826 -792.267)" fill="#d5cef8" fill-rule="evenodd"/>
          </g>
        </g>
        <g id="Grupo_83001" data-name="Grupo 83001" transform="translate(45.451 168.256)">
          <g id="Grupo_83000" data-name="Grupo 83000">
            <path id="Trazado_121025" data-name="Trazado 121025" d="M3133.761,951.674h166.7l3.173,28.208h-166.7Z" transform="translate(-3133.761 -951.674)" fill="#d5cef8" fill-rule="evenodd"/>
          </g>
        </g>
        <g id="Grupo_83003" data-name="Grupo 83003" transform="translate(49.287 202.34)">
          <g id="Grupo_83002" data-name="Grupo 83002">
            <path id="Trazado_121026" data-name="Trazado 121026" d="M3141.317,1018.828h166.7l3.173,28.209h-166.7Z" transform="translate(-3141.317 -1018.828)" fill="#d5cef8" fill-rule="evenodd"/>
          </g>
        </g>
      </g>
      <g id="Grupo_83081" data-name="Grupo 83081" transform="translate(3146.512 684.151)">
        <g id="Grupo_83007" data-name="Grupo 83007" transform="translate(0)">
          <g id="Grupo_83005" data-name="Grupo 83005" transform="translate(0.168 0.174)">
            <path id="Trazado_121027" data-name="Trazado 121027" d="M3291.969,808.213c16.577,14.794,37.754,16.535,57.687,13.759l12.938-1.8,4.24.644-3.326,6.313.82,6.252c7.331,55.9,12.371,119.23-38.083,152.287-7.321,4.8-19.678,4.546-21.077,13.755l-.524,3.456-4.031-1.432-4.91-2.025c-9.039-3.723-15.335-8.957-23.5-13.755-56.275-33.057-62.39-96.384-64.907-152.287l-.595-13.208,13.257,1.8c20.422,2.776,41.292,1.035,55.265-13.759l7.66-8.111,3.761.69,1.149,3.694,4.178,3.727Zm-7.613,8.646q-21.654,22.93-64.991,17.038c2.584,57.446,9.083,112.643,58.274,141.538,7.07,4.154,13.358,9.434,21.821,12.92,7.848-3.486,13.2-8.765,19.545-12.92,44.1-28.894,40.877-84.091,33.342-141.538Q3310.049,839.787,3284.357,816.859Z" transform="translate(-3206.699 -800.102)" fill="#40327b" fill-rule="evenodd"/>
          </g>
          <g id="Grupo_83006" data-name="Grupo 83006">
            <path id="Trazado_121028" data-name="Trazado 121028" d="M3304.611,1002.924l-4.214-1.5-4.917-2.027c-6.031-2.484-10.773-5.592-15.793-8.883-2.459-1.614-5-3.281-7.73-4.883-25.359-14.9-42.592-37.03-52.684-67.663-9.068-27.536-11.1-58.186-12.3-84.753l-.6-13.4,13.446,1.829a113.687,113.687,0,0,0,15.191,1.1c17.218,0,30.654-4.982,39.936-14.81l7.72-8.175.084.016,3.857.708.028.092,1.137,3.652,4.144,3.7c11.019,9.835,25.338,14.82,42.562,14.82h0a109.447,109.447,0,0,0,15-1.1l12.961-1.807.022,0,4.461.678-3.406,6.466.812,6.2c3.484,26.567,6.849,57.216,2.629,84.755-4.7,30.641-18.035,52.783-40.782,67.686a38.664,38.664,0,0,1-8.593,3.721c-5.916,2.023-11.5,3.931-12.413,9.924ZM3206.7,820.185l.587,13.017c2.669,59.291,9.874,119.877,64.83,152.158,2.732,1.605,5.279,3.275,7.742,4.89,5.006,3.283,9.737,6.382,15.738,8.855l4.91,2.025,3.841,1.364.5-3.265c.939-6.185,6.616-8.125,12.625-10.179a38.308,38.308,0,0,0,8.522-3.686c49.255-32.271,45.787-92.851,38.012-152.134l-.827-6.3.024-.044,3.224-6.115-4-.606-12.914,1.8a109.758,109.758,0,0,1-15.04,1.1h0c-17.3,0-31.7-5.014-42.774-14.9l-4.212-3.757-.012-.042-1.121-3.6-3.582-.658-7.6,8.049c-9.344,9.894-22.858,14.91-40.167,14.91a114.017,114.017,0,0,1-15.236-1.1Zm92.6,168.175-.062-.026a84.778,84.778,0,0,1-14.86-8.466c-2.264-1.508-4.6-3.067-6.982-4.463-22.425-13.173-37.7-32.848-46.684-60.148-7.69-23.358-10.225-49.481-11.667-81.519l-.008-.191.189.026a125.586,125.586,0,0,0,16.789,1.2c20.494,0,36.667-6.123,48.065-18.193l.106-.111.115.1c13.532,12.078,30.787,18.2,51.286,18.2a120.928,120.928,0,0,0,16.577-1.2l.16-.022.02.159c4.2,32.036,6.268,58.161,2.692,81.521-4.182,27.309-15.991,46.992-36.1,60.17-2.132,1.4-4.2,2.958-6.2,4.465-4,3.021-8.147,6.147-13.368,8.466Zm-79.929-154.447c2.617,57.967,9.073,112.367,58.188,141.216,2.383,1.4,4.729,2.964,7,4.474a84.931,84.931,0,0,0,14.741,8.41c5.157-2.3,9.268-5.4,13.243-8.4,2-1.511,4.077-3.073,6.216-4.477,44.026-28.845,40.888-83.251,33.292-141.224a120.965,120.965,0,0,1-16.462,1.185c-20.521,0-37.807-6.117-51.381-18.181-11.457,12.062-27.668,18.179-48.191,18.181A125.484,125.484,0,0,1,3219.371,833.912Z" transform="translate(-3206.369 -799.76)" fill="#40327b"/>
          </g>
        </g>
        <g id="Grupo_83010" data-name="Grupo 83010" transform="translate(16.37 17.479)">
          <g id="Grupo_83008" data-name="Grupo 83008" transform="translate(0.389 0.515)">
            <path id="Trazado_121029" data-name="Trazado 121029" d="M3304.38,835.212q-21.653,22.93-64.991,17.038c2.584,57.446,9.083,112.643,58.274,141.537,7.07,4.155,13.358,9.433,21.82,12.92,7.848-3.486,13.207-8.765,19.545-12.92,44.1-28.894,40.876-84.091,33.342-141.537Q3330.073,858.141,3304.38,835.212Z" transform="translate(-3239.389 -835.212)" fill="#8bbae9" fill-rule="evenodd"/>
          </g>
          <g id="Grupo_83009" data-name="Grupo 83009">
            <path id="Trazado_121030" data-name="Trazado 121030" d="M3319.112,1006.609l-.146-.06a84.967,84.967,0,0,1-14.9-8.486c-2.261-1.506-4.6-3.063-6.972-4.458-49.395-29.014-55.837-83.648-58.455-141.838l-.02-.441.438.06a125.515,125.515,0,0,0,16.761,1.2c20.434,0,36.555-6.1,47.913-18.127l.246-.261.267.24c13.493,12.042,30.7,18.149,51.146,18.149a120.861,120.861,0,0,0,16.55-1.2l.366-.052.048.369c4.2,32.053,6.273,58.194,2.692,81.578-4.192,27.373-16.031,47.1-36.2,60.317-2.124,1.392-4.095,2.878-6.18,4.453-4.019,3.032-8.173,6.165-13.417,8.494ZM3239.4,852.175c2.62,57.811,9.12,112.04,58.073,140.8,2.389,1.4,4.737,2.968,7.006,4.48a85.2,85.2,0,0,0,14.621,8.356,67.466,67.466,0,0,0,13.127-8.345c2-1.513,4.076-3.077,6.222-4.484,43.871-28.743,40.793-82.988,33.227-140.811a121.4,121.4,0,0,1-16.282,1.157c-20.5,0-37.777-6.089-51.369-18.1-11.487,12.008-27.7,18.1-48.2,18.1A125.575,125.575,0,0,1,3239.4,852.175Z" transform="translate(-3238.623 -834.198)" fill="#373435"/>
          </g>
        </g>
        <g id="Grupo_83035" data-name="Grupo 83035" transform="translate(16.759 17.993)">
          <g id="Grupo_83012" data-name="Grupo 83012">
            <g id="Grupo_83011" data-name="Grupo 83011">
              <path id="Trazado_121031" data-name="Trazado 121031" d="M3247.153,919.853h64.68l-7.453-84.641q-21.653,22.93-64.991,17.038C3240.446,875.706,3242.154,898.787,3247.153,919.853Z" transform="translate(-3239.389 -835.212)" fill="#f3f1ff" fill-rule="evenodd"/>
            </g>
          </g>
          <g id="Grupo_83014" data-name="Grupo 83014" transform="translate(64.992)">
            <g id="Grupo_83013" data-name="Grupo 83013">
              <path id="Trazado_121032" data-name="Trazado 121032" d="M3367.44,835.212l7.452,84.641h64.684c1.288-21.066-1.069-44.147-4.146-67.6Q3393.132,858.141,3367.44,835.212Z" transform="translate(-3367.44 -835.212)" fill="#f3f1ff" fill-rule="evenodd"/>
            </g>
          </g>
          <g id="Grupo_83016" data-name="Grupo 83016" transform="translate(72.444 84.641)">
            <g id="Grupo_83015" data-name="Grupo 83015">
              <path id="Trazado_121033" data-name="Trazado 121033" d="M3446.807,1001.978h-64.684l7.651,86.854c7.848-3.486,13.207-8.765,19.545-12.92C3435.413,1058.814,3444.939,1032.51,3446.807,1001.978Z" transform="translate(-3382.123 -1001.978)" fill="#d5cef8" fill-rule="evenodd"/>
            </g>
          </g>
          <g id="Grupo_83018" data-name="Grupo 83018" transform="translate(7.764 84.641)">
            <g id="Grupo_83017" data-name="Grupo 83017">
              <path id="Trazado_121034" data-name="Trazado 121034" d="M3327.017,1088.832l-7.65-86.854h-64.68c7.246,30.532,21.4,56.836,50.51,73.934C3312.267,1080.067,3318.555,1085.345,3327.017,1088.832Z" transform="translate(-3254.687 -1001.978)" fill="#d5cef8" fill-rule="evenodd"/>
            </g>
          </g>
          <g id="Grupo_83020" data-name="Grupo 83020" transform="translate(2.033 17.299)" opacity="0.17">
            <g id="Grupo_83019" data-name="Grupo 83019">
              <path id="Trazado_121035" data-name="Trazado 121035" d="M3253.942,931.419c-4.587-19.323-6.4-40.338-7.487-61.784q-1.516-.149-3.061-.339c1.065,22.75,2.815,45.1,7.668,65.551h3.728Q3254.35,933.142,3253.942,931.419Z" transform="translate(-3243.394 -869.296)" fill="#d2e5f7" fill-rule="evenodd"/>
            </g>
          </g>
          <g id="Grupo_83022" data-name="Grupo 83022" transform="translate(12.581 79.422)" opacity="0.17">
            <g id="Grupo_83021" data-name="Grupo 83021">
              <path id="Trazado_121036" data-name="Trazado 121036" d="M3323.581,991.7h-59.405q.407,1.724.848,3.428h58.86Z" transform="translate(-3264.176 -991.695)" fill="#d2e5f7" fill-rule="evenodd"/>
            </g>
          </g>
          <g id="Grupo_83024" data-name="Grupo 83024" transform="translate(67.256 1.94)" opacity="0.17">
            <g id="Grupo_83023" data-name="Grupo 83023">
              <path id="Trazado_121037" data-name="Trazado 121037" d="M3371.9,839.035l6.825,77.482h3.181l-6.593-74.851Q3373.578,840.409,3371.9,839.035Z" transform="translate(-3371.902 -839.035)" fill="#d2e5f7" fill-rule="evenodd"/>
            </g>
          </g>
          <g id="Grupo_83026" data-name="Grupo 83026" transform="translate(74.081 79.422)" opacity="0.17">
            <g id="Grupo_83025" data-name="Grupo 83025">
              <path id="Trazado_121038" data-name="Trazado 121038" d="M3388.531,991.7h-3.181l.3,3.428h3.179Z" transform="translate(-3385.35 -991.695)" fill="#d2e5f7" fill-rule="evenodd"/>
            </g>
          </g>
          <g id="Grupo_83028" data-name="Grupo 83028" transform="translate(77.262 79.422)" opacity="0.17">
            <g id="Grupo_83027" data-name="Grupo 83027">
              <path id="Trazado_121039" data-name="Trazado 121039" d="M3391.617,991.7l.3,3.428h59.664q.087-1.705.146-3.428Z" transform="translate(-3391.617 -991.695)" fill="#d2e5f7" fill-rule="evenodd"/>
            </g>
          </g>
          <g id="Grupo_83030" data-name="Grupo 83030" transform="translate(10.135 84.641)" opacity="0.17">
            <g id="Grupo_83029" data-name="Grupo 83029">
              <path id="Trazado_121040" data-name="Trazado 121040" d="M3312.313,1070.693c-27.432-16.117-41.589-40.41-49.192-68.715h-3.764c7.374,29.768,21.542,55.381,50.077,72.143,6.45,3.789,12.25,8.514,19.641,11.962l-.451-5.116C3322.75,1077.765,3317.764,1073.894,3312.313,1070.693Z" transform="translate(-3259.358 -1001.978)" fill="#d2e5f7" fill-rule="evenodd"/>
            </g>
          </g>
          <g id="Grupo_83032" data-name="Grupo 83032" transform="translate(74.543 84.641)" opacity="0.17">
            <g id="Grupo_83031" data-name="Grupo 83031">
              <path id="Trazado_121041" data-name="Trazado 121041" d="M3386.258,1001.978l7.056,80.133q1.6.792,3.313,1.5l-7.189-81.634Z" transform="translate(-3386.258 -1001.978)" fill="#d2e5f7" fill-rule="evenodd"/>
            </g>
          </g>
          <g id="Grupo_83034" data-name="Grupo 83034" transform="translate(81.598 143.42)" opacity="0.17">
            <g id="Grupo_83033" data-name="Grupo 83033">
              <path id="Trazado_121042" data-name="Trazado 121042" d="M3403.473,1140.644q-1.711-.706-3.313-1.5l.435,4.93c7.848-3.486,13.206-8.765,19.544-12.92a81.283,81.283,0,0,0,9.611-7.349,74.112,74.112,0,0,0,5.635-6.016,79.882,79.882,0,0,1-12.366,9.936C3416.677,1131.876,3411.32,1137.155,3403.473,1140.644Z" transform="translate(-3400.16 -1117.788)" fill="#d2e5f7" fill-rule="evenodd"/>
            </g>
          </g>
        </g>
        <g id="Grupo_83037" data-name="Grupo 83037" transform="translate(4.095 1.236)">
          <g id="Grupo_83036" data-name="Grupo 83036">
            <path id="Trazado_121043" data-name="Trazado 121043" d="M3299.706,810.308c16.577,14.8,37.753,16.535,57.687,13.759l12.938-1.8,1.733,13.209c7.332,55.9,12.371,119.23-38.083,152.289-7.321,4.8-12.7,10.03-21.077,13.755l-4.555,2.023-4.911-2.023c-9.039-3.725-15.335-8.959-23.5-13.755-56.275-33.058-62.39-96.386-64.905-152.289l-.593-13.209,13.255,1.8c20.422,2.776,41.291,1.037,55.264-13.759l7.66-8.112,9.089,8.112Zm-7.612,8.646q-21.653,22.93-64.991,17.038c2.584,57.446,9.083,112.643,58.274,141.537,7.07,4.155,13.358,9.433,21.82,12.92,7.848-3.486,13.207-8.765,19.545-12.92,44.1-28.895,40.876-84.091,33.342-141.537Q3317.786,841.882,3292.093,818.953Z" transform="translate(-3214.438 -802.196)" fill="#583ae2" fill-rule="evenodd"/>
          </g>
        </g>
        <g id="Grupo_83039" data-name="Grupo 83039" transform="translate(4.095 1.236)" opacity="0.1">
          <g id="Grupo_83038" data-name="Grupo 83038">
            <path id="Trazado_121044" data-name="Trazado 121044" d="M3299.706,810.308c16.577,14.8,37.753,16.535,57.687,13.759l12.938-1.8,1.733,13.209c7.076,53.954,12.01,114.818-33.011,148.719,41.9-34.3,37.031-93.674,30.111-146.44l-1.731-13.207-12.939,1.8c-19.932,2.776-41.108,1.037-57.687-13.759l-8.684-7.75,2.495-2.641,9.089,8.112Zm-85.148,14.646-.119-2.69,13.255,1.8c17.578,2.389,35.49,1.432,49.048-8.317-13.839,11.87-33.083,13.161-51.946,10.6l-10.237-1.392Zm74.953-3.442-.317-.279a54.914,54.914,0,0,1-4.516,4.268,54.161,54.161,0,0,0,4.833-3.989Zm-62.285,17.136q-1.5-.171-3.023-.378c2.585,57.446,9.084,112.643,58.274,141.538,7.072,4.154,13.361,9.434,21.82,12.919,7.848-3.486,13.207-8.765,19.547-12.919a82.743,82.743,0,0,0,7.244-5.329c-1.4,1.045-2.84,2.064-4.346,3.049-6.338,4.155-11.7,9.433-19.545,12.92-8.462-3.486-14.75-8.765-21.82-12.92C3236.944,949.079,3229.9,895.134,3227.226,838.648Z" transform="translate(-3214.438 -802.196)" fill="#e6e6e6" fill-rule="evenodd"/>
          </g>
        </g>
        <g id="Grupo_83041" data-name="Grupo 83041" transform="translate(16.759 17.993)" opacity="0.29">
          <g id="Grupo_83040" data-name="Grupo 83040">
            <path id="Trazado_121045" data-name="Trazado 121045" d="M3304.38,835.212q-1.254,1.328-2.583,2.558,25.634,22.613,67.673,16.759c7.094,54.092,10.361,106.185-26.1,136.209,39.525-29.619,36.274-83,29-138.488q-42.3,5.891-67.99-17.038Zm-7.416,6.547q-21.114,15.446-57.576,10.49l.124,2.657Q3276.36,859.128,3296.965,841.759Z" transform="translate(-3239.389 -835.212)" fill="#e6e6e6" fill-rule="evenodd"/>
          </g>
        </g>
        <g id="Grupo_83043" data-name="Grupo 83043" transform="translate(3.706 0.726)">
          <g id="Grupo_83042" data-name="Grupo 83042">
            <path id="Trazado_121046" data-name="Trazado 121046" d="M3299.561,809.549a56.771,56.771,0,0,0,27.393,13.37c9.814,1.929,20.052,1.669,29.98.289l12.94-1.8.395-.056.052.4,1.733,13.209c3.667,27.977,6.762,57.815,2.626,84.813-4.144,27.038-15.536,51.216-40.855,67.8-2.425,1.59-4.661,3.246-6.862,4.878-4.388,3.253-8.647,6.41-14.262,8.9l-4.552,2.025-.14.061-.15-.061-4.912-2.025c-6.051-2.493-10.87-5.65-15.829-8.9-2.489-1.632-5.016-3.288-7.723-4.878-28.239-16.588-43.89-40.765-52.8-67.8-8.893-27-11.053-56.836-12.312-84.813l-.6-13.209-.018-.4.405.056,13.256,1.8c10.173,1.38,20.455,1.639,29.93-.289,9.453-1.925,18.1-6.029,25.037-13.37l7.66-8.111.233-.248.279.248,9.088,8.111Zm27.313,14.094a57.564,57.564,0,0,1-27.779-13.568l-8.81-7.864-7.427,7.864c-7.038,7.453-15.809,11.617-25.388,13.568-9.559,1.946-19.924,1.685-30.171.293l-12.852-1.747.576,12.8c1.256,27.925,3.411,57.7,12.273,84.608,8.849,26.867,24.393,50.883,52.428,67.352,2.759,1.62,5.278,3.271,7.759,4.9,4.93,3.233,9.717,6.37,15.692,8.833l4.762,1.961,4.414-1.961c5.542-2.463,9.776-5.6,14.138-8.833,2.194-1.626,4.422-3.277,6.895-4.9,25.135-16.469,36.45-40.485,40.566-67.352,4.123-26.9,1.033-56.683-2.628-84.608l-1.679-12.8-12.545,1.747c-10,1.392-20.322,1.654-30.223-.293Zm-35.115-4.675a56.21,56.21,0,0,1-27,15.57q-16.165,4.235-37.652,1.375c1.294,28.558,3.58,56.539,11.624,80.97,8.065,24.5,21.934,45.448,46.429,59.835,2.384,1.4,4.687,2.936,7.014,4.486l0,0a84.889,84.889,0,0,0,14.6,8.349c5.1-2.29,9.16-5.349,13.135-8.349v0c2.054-1.55,4.089-3.085,6.226-4.486,21.96-14.387,32.138-35.332,35.889-59.835,3.74-24.432,1.1-52.413-2.64-80.97q-20.979,2.86-37.893-1.375a69.927,69.927,0,0,1-29.741-15.57Zm-27.241,14.858q-16.176,4.243-37.775,1.3l-.4-.054.018.4c1.295,28.751,3.568,56.941,11.679,81.578,8.125,24.68,22.1,45.781,46.8,60.289,2.381,1.4,4.667,2.921,6.977,4.459h0a85.061,85.061,0,0,0,14.9,8.486l.15.062.14-.062c5.235-2.328,9.359-5.439,13.4-8.486h0c2.036-1.538,4.055-3.061,6.191-4.459,22.139-14.507,32.4-35.608,36.178-60.289,3.771-24.637,1.079-52.827-2.691-81.578l-.054-.4-.393.054q-21.082,2.937-38.008-1.3a69.092,69.092,0,0,1-29.671-15.632l-.278-.247-.234.247A55.528,55.528,0,0,1,3264.518,833.826Z" transform="translate(-3213.671 -801.19)" fill="#40327b" fill-rule="evenodd"/>
          </g>
        </g>
        <g id="Grupo_83045" data-name="Grupo 83045" transform="translate(10.637 27.903)" opacity="0.33">
          <g id="Grupo_83044" data-name="Grupo 83044">
            <path id="Trazado_121047" data-name="Trazado 121047" d="M3240.766,947.458a1.048,1.048,0,0,1-.985-.692A167.538,167.538,0,0,1,3233.5,923.6a1.046,1.046,0,0,1,2.051-.415,164.878,164.878,0,0,0,6.2,22.878,1.05,1.05,0,0,1-.632,1.338A1.092,1.092,0,0,1,3240.766,947.458Zm-8.446-35.719a1.048,1.048,0,0,1-1.033-.892q-.356-2.414-.683-4.9a438.156,438.156,0,0,1-3.258-49.794l-.02-1.413,1.356.393c16.074,4.662,31.689,2.012,37.652.656a1.045,1.045,0,1,1,.462,2.038c-7.387,1.68-21.888,3.815-37.339-.307a431.487,431.487,0,0,0,3.221,48.154q.32,2.471.678,4.869a1.048,1.048,0,0,1-.881,1.188A1.335,1.335,0,0,1,3232.32,911.739Z" transform="translate(-3227.326 -854.737)" fill="#fff"/>
          </g>
        </g>
        <g id="Grupo_83047" data-name="Grupo 83047" transform="translate(54.803 12.21)" opacity="0.33">
          <g id="Grupo_83046" data-name="Grupo 83046">
            <path id="Trazado_121048" data-name="Trazado 121048" d="M3315.392,840.849a1.046,1.046,0,0,1-.335-2.036c10.291-3.478,18.284-8.648,22.508-14.555a1.045,1.045,0,1,1,1.7,1.217c-4.475,6.26-12.834,11.7-23.537,15.321A1.084,1.084,0,0,1,3315.392,840.849Z" transform="translate(-3314.347 -823.818)" fill="#fff"/>
          </g>
        </g>
        <g id="Grupo_83049" data-name="Grupo 83049" transform="translate(97.489 146.637)" opacity="0.33">
          <g id="Grupo_83048" data-name="Grupo 83048">
            <path id="Trazado_121049" data-name="Trazado 121049" d="M3399.5,1140.327a1.045,1.045,0,0,1-.5-1.962c28.859-15.716,46.942-32.215,53.749-49.038a1.046,1.046,0,1,1,1.938.786c-6.992,17.283-25.393,34.134-54.686,50.087A1.031,1.031,0,0,1,3399.5,1140.327Z" transform="translate(-3398.449 -1088.675)" fill="#fff"/>
          </g>
        </g>
        <g id="Grupo_83054" data-name="Grupo 83054" transform="translate(66.441 63.023)">
          <g id="Grupo_83051" data-name="Grupo 83051">
            <g id="Grupo_83050" data-name="Grupo 83050">
              <path id="Trazado_121050" data-name="Trazado 121050" d="M3346.8,949.3h22.465q-.388-4.41-.778-8.823a12.564,12.564,0,0,0-12.221-11.232,10.156,10.156,0,0,0-10.243,11.232l.778,8.823Zm27.782,0,.008.082a6.319,6.319,0,0,1,5.169,5.549l2.3,26.058a5.088,5.088,0,0,1-5.133,5.631h-31.207a6.292,6.292,0,0,1-6.125-5.631l-2.3-26.058a5.078,5.078,0,0,1,4.194-5.549l-.786-8.9a14.948,14.948,0,0,1,15.094-16.549,18.486,18.486,0,0,1,18.01,16.549Q3374.2,944.894,3374.585,949.3Z" transform="translate(-3337.277 -923.932)" fill="#2ff980" fill-rule="evenodd"/>
            </g>
          </g>
          <g id="Grupo_83053" data-name="Grupo 83053" transform="translate(15.969 33.39)">
            <g id="Grupo_83052" data-name="Grupo 83052">
              <path id="Trazado_121051" data-name="Trazado 121051" d="M3374.236,989.719a6.689,6.689,0,0,1,6.53,6,5.4,5.4,0,0,1-3.714,5.732l.638,7.249a1.613,1.613,0,0,1-1.625,1.786h0a1.993,1.993,0,0,1-1.94-1.786l-.638-7.249a6.721,6.721,0,0,1-4.723-5.732A5.408,5.408,0,0,1,3374.236,989.719Z" transform="translate(-3368.74 -989.719)" fill="#583ae2" fill-rule="evenodd"/>
            </g>
          </g>
        </g>
        <g id="Grupo_83056" data-name="Grupo 83056" transform="translate(30.307 30.805)" opacity="0.31">
          <g id="Grupo_83055" data-name="Grupo 83055">
            <path id="Trazado_121052" data-name="Trazado 121052" d="M3364.194,866.175l-85.6,109.1a144.86,144.86,0,0,1-12.51-24.481l70.885-90.341a86.8,86.8,0,0,0,27.227,5.72Zm21.338-1.37a42.861,42.861,0,0,1-8.255,1.133q-2.163.179-4.3.269l-90.248,115.024q2.833,3.791,5.867,7.12L3385.531,864.8Zm1.507,14.922-.552-5.471-93.232,118.825q1.406,1.319,2.848,2.545Z" transform="translate(-3266.082 -860.455)" fill="#fff" fill-rule="evenodd"/>
          </g>
        </g>
        <g id="Grupo_83088" data-name="Grupo 83088">
          <g id="Grupo_83058" data-name="Grupo 83058" transform="translate(75.009 34.571)">
            <g id="Grupo_83057" data-name="Grupo 83057">
              <path id="Trazado_121053" data-name="Trazado 121053" d="M3366.612,878.173l2.628,6.366-5.762-3.933-5.068,3.933h0l1.508-6.366-5.758-3.931,0,0h6.693l1.5-6.33.008-.03,0-.006,0,.008,2.625,6.358h6.693Z" transform="translate(-3354.157 -867.874)" fill="#583ae2" fill-rule="evenodd"/>
            </g>
          </g>
          <g id="Grupo_83060" data-name="Grupo 83060" transform="translate(101.223 42.425)">
            <g id="Grupo_83059" data-name="Grupo 83059">
              <path id="Trazado_121054" data-name="Trazado 121054" d="M3416.479,893.94l-.816,6.548-3.261-6.115-6.6.7h0l4.581-4.479-3.26-6.109,0,0,6.091,3.347,4.553-4.454.022-.022,0,0v.008l-.814,6.538,6.091,3.347Z" transform="translate(-3405.807 -883.348)" fill="#583ae2" fill-rule="evenodd"/>
            </g>
          </g>
          <g id="Grupo_83062" data-name="Grupo 83062" transform="translate(119.741 59.477)">
            <g id="Grupo_83061" data-name="Grupo 83061">
              <path id="Trazado_121055" data-name="Trazado 121055" d="M3452.573,929.4l-4.041,4.974.114-6.657-6.354-2.72h0l6.424-1.392.113-6.653v0l3.857,5.8,6.386-1.382.032-.006.006,0-.006.006-4.035,4.968,3.857,5.8Z" transform="translate(-3442.292 -916.945)" fill="#583ae2" fill-rule="evenodd"/>
            </g>
          </g>
          <g id="Grupo_83064" data-name="Grupo 83064" transform="translate(129.853 84.433)">
            <g id="Grupo_83063" data-name="Grupo 83063">
              <path id="Trazado_121056" data-name="Trazado 121056" d="M3469.352,978.223l-6.182,2.068,3.456-5.414-4.412-5.415h0l6.55,2.068,3.454-5.411,0,0,.589,6.691,6.51,2.058.032.01.008,0-.01,0-6.175,2.066.59,6.693Z" transform="translate(-3462.214 -966.114)" fill="#583ae2" fill-rule="evenodd"/>
            </g>
          </g>
          <g id="Grupo_83066" data-name="Grupo 83066" transform="translate(124.26 109.482)">
            <g id="Grupo_83065" data-name="Grupo 83065">
              <path id="Trazado_121057" data-name="Trazado 121057" d="M3457.867,1026.24l-6.671-1.392,5.875-2.725-1.284-6.655h0l4.916,4.976,5.869-2.72,0,0-2.836,5.8,4.888,4.946.024.024.006,0h-.01l-6.659-1.39-2.838,5.8Z" transform="translate(-3451.195 -1015.469)" fill="#583ae2" fill-rule="evenodd"/>
            </g>
          </g>
          <g id="Grupo_83068" data-name="Grupo 83068" transform="translate(108.1 126.823)">
            <g id="Grupo_83067" data-name="Grupo 83067">
              <path id="Trazado_121058" data-name="Trazado 121058" d="M3424.724,1059.528l-5.369-4.478,6.719.7,2.184-6.113h0l1.969,6.546,6.713.7,0,0-5.5,3.347,1.957,6.51.008.032,0,.008-.01-.008-5.359-4.471-5.5,3.347Z" transform="translate(-3419.355 -1049.636)" fill="#583ae2" fill-rule="evenodd"/>
            </g>
          </g>
          <g id="Grupo_83070" data-name="Grupo 83070" transform="translate(84.213 135.149)">
            <g id="Grupo_83069" data-name="Grupo 83069">
              <path id="Trazado_121059" data-name="Trazado 121059" d="M3377.36,1072.409l-2.628-6.368,5.762,3.935,5.067-3.935h0l-1.508,6.368,5.758,3.929,0,0h-6.693l-1.5,6.326-.008.032,0,.008,0-.01-2.625-6.356h-6.693Z" transform="translate(-3372.292 -1066.041)" fill="#583ae2" fill-rule="evenodd"/>
            </g>
          </g>
          <g id="Grupo_83072" data-name="Grupo 83072" transform="translate(58.256 126.821)">
            <g id="Grupo_83071" data-name="Grupo 83071">
              <path id="Trazado_121060" data-name="Trazado 121060" d="M3327.743,1056.179l.816-6.548,3.263,6.115,6.593-.7h0l-4.579,4.48,3.259,6.111,0,0-6.091-3.347-4.553,4.451-.022.022,0,.006v-.012l.814-6.538-6.091-3.347Z" transform="translate(-3321.149 -1049.632)" fill="#583ae2" fill-rule="evenodd"/>
            </g>
          </g>
          <g id="Grupo_83074" data-name="Grupo 83074" transform="translate(40.185 109.48)">
            <g id="Grupo_83073" data-name="Grupo 83073">
              <path id="Trazado_121061" data-name="Trazado 121061" d="M3292.083,1020.441l4.041-4.976-.111,6.657,6.352,2.725h0l-6.423,1.39-.114,6.654,0,0-3.857-5.8-6.388,1.382-.03.008h-.008l.006-.008,4.034-4.966-3.857-5.8Z" transform="translate(-3285.545 -1015.465)" fill="#583ae2" fill-rule="evenodd"/>
            </g>
          </g>
          <g id="Grupo_83076" data-name="Grupo 83076" transform="translate(29.751 84.431)">
            <g id="Grupo_83075" data-name="Grupo 83075">
              <path id="Trazado_121062" data-name="Trazado 121062" d="M3274.99,971.525l6.184-2.068-3.456,5.417,4.41,5.412h0l-6.548-2.068-3.455,5.411,0,0-.588-6.691-6.51-2.056-.032-.012h-.006l.008,0,6.174-2.066-.588-6.693Z" transform="translate(-3264.986 -966.11)" fill="#583ae2" fill-rule="evenodd"/>
            </g>
          </g>
          <g id="Grupo_83078" data-name="Grupo 83078" transform="translate(35.022 59.477)">
            <g id="Grupo_83077" data-name="Grupo 83077">
              <path id="Trazado_121063" data-name="Trazado 121063" d="M3286.163,923.6l6.669,1.392-5.873,2.722,1.287,6.657h0l-4.918-4.974-5.869,2.72,0,0,2.836-5.8-4.888-4.946-.024-.024-.006,0h.01l6.661,1.39,2.836-5.8Z" transform="translate(-3275.371 -916.945)" fill="#583ae2" fill-rule="evenodd"/>
            </g>
          </g>
          <g id="Grupo_83080" data-name="Grupo 83080" transform="translate(51.057 42.425)">
            <g id="Grupo_83079" data-name="Grupo 83079">
              <path id="Trazado_121064" data-name="Trazado 121064" d="M3319.184,890.594l5.369,4.477-6.717-.7-2.186,6.115h0l-1.966-6.548-6.715-.7h0l5.5-3.347-1.957-6.507-.01-.032,0-.006.008.006,5.361,4.474,5.5-3.347Z" transform="translate(-3306.965 -883.348)" fill="#583ae2" fill-rule="evenodd"/>
            </g>
          </g>
        </g>
      </g>
      <g id="Grupo_83086" data-name="Grupo 83086" transform="translate(3228.968 565)">
        <g id="Grupo_83083" data-name="Grupo 83083" transform="translate(0 10.816)">
          <g id="Grupo_83082" data-name="Grupo 83082">
            <rect id="Rect치ngulo_34340" data-name="Rect치ngulo 34340" width="42.748" height="42.748" rx="5.611" fill="#ab9df1"/>
          </g>
        </g>
        <g id="Grupo_83085" data-name="Grupo 83085" transform="translate(2.685)">
          <g id="Grupo_83084" data-name="Grupo 83084">
            <path id="Trazado_121065" data-name="Trazado 121065" d="M3434.89,607.467l15.74-25.821L3457.117,571a3.946,3.946,0,1,0-6.736-4.11l-5.918,9.708-13.324,21.86-10.468-14.393a3.949,3.949,0,0,0-6.394,4.635l13.948,19.186a3.953,3.953,0,0,0,5.519.879A3.886,3.886,0,0,0,3434.89,607.467Z" transform="translate(-3413.524 -565)" fill="#583ae2" fill-rule="evenodd"/>
          </g>
        </g>
      </g>
    </g>
  </g>
</svg>
