<svg xmlns="http://www.w3.org/2000/svg" xmlns:xlink="http://www.w3.org/1999/xlink" width="190" height="115" viewBox="0 0 190 115">
  <defs>
    <clipPath id="clip-path">
      <rect id="Rectángulo_34139" data-name="Rectángulo 34139" width="190" height="115" transform="translate(1852 -1817)" fill="#2ff980"/>
    </clipPath>
  </defs>
  <g id="Enmascarar_grupo_119" data-name="Enmascarar grupo 119" transform="translate(-1852 1817)" clip-path="url(#clip-path)">
    <g id="carpeta" transform="translate(1889.5 -1817)">
      <path id="Trazado_121222" data-name="Trazado 121222" d="M86.308,62.9H55.391a3.6,3.6,0,0,1-2.546-1.055l-4.565-4.565A5.4,5.4,0,0,0,44.46,55.7H28.692a5.4,5.4,0,0,0-5.4,5.4v46.813a5.4,5.4,0,0,0,5.4,5.4H86.309a5.4,5.4,0,0,0,5.4-5.4V68.3a5.4,5.4,0,0,0-5.4-5.4Z" fill="#ffe09f"/>
      <path id="Trazado_121223" data-name="Trazado 121223" d="M91.379,107.914H37.695a9.013,9.013,0,0,1-9-9V55.7a5.4,5.4,0,0,0-5.4,5.4v46.813a5.4,5.4,0,0,0,5.4,5.4H86.308a5.4,5.4,0,0,0,5.4-5.4h-.331Z" fill="#f6d190"/>
      <path id="Trazado_121224" data-name="Trazado 121224" d="M92.941,109.622l12.383-37.149a1.8,1.8,0,0,0-1.708-2.37H41.588A5.4,5.4,0,0,0,36.464,73.8l-12.33,36.99a5.385,5.385,0,0,0,4.559,2.528H87.817A5.4,5.4,0,0,0,92.941,109.622Z" fill="#ecbd83"/>
      <path id="Trazado_121225" data-name="Trazado 121225" d="M21.49,1.685H7.086a1.8,1.8,0,0,0-1.8,1.8V32.293a1.8,1.8,0,0,0,1.8,1.8H28.692a1.8,1.8,0,0,0,1.8-1.8V10.687Z" fill="#eceaec"/>
      <circle id="Elipse_5345" data-name="Elipse 5345" cx="3.601" cy="3.601" r="3.601" transform="translate(53.899 41.296)" fill="#b6b1b7"/>
      <path id="Trazado_121226" data-name="Trazado 121226" d="M10.687,23.291V1.685h-3.6a1.8,1.8,0,0,0-1.8,1.8V32.293a1.8,1.8,0,0,0,1.8,1.8H28.692a1.8,1.8,0,0,0,1.8-1.8v-3.6h-14.4a5.4,5.4,0,0,1-5.4-5.4Z" fill="#dad8db"/>
      <path id="Trazado_121227" data-name="Trazado 121227" d="M21.49,8.887a1.8,1.8,0,0,0,1.8,1.8h7.2l-9-9Z" fill="#dad8db"/>
      <path id="Trazado_121228" data-name="Trazado 121228" d="M37.695,107.914a9.013,9.013,0,0,1-9-9v-1.8l-4.559,13.676a5.386,5.386,0,0,0,4.559,2.528H87.817a5.4,5.4,0,0,0,5.124-3.693l.569-1.708Z" fill="#e2a975"/>
      <path id="Trazado_121229" data-name="Trazado 121229" d="M61.1,1.685H46.7a1.8,1.8,0,0,0-1.8,1.8V32.293a1.8,1.8,0,0,0,1.8,1.8H68.3a1.8,1.8,0,0,0,1.8-1.8V10.687Z" fill="#eceaec"/>
      <path id="Trazado_121230" data-name="Trazado 121230" d="M50.3,23.291V1.685H46.7a1.8,1.8,0,0,0-1.8,1.8V32.293a1.8,1.8,0,0,0,1.8,1.8H68.3a1.8,1.8,0,0,0,1.8-1.8v-3.6H55.7a5.4,5.4,0,0,1-5.4-5.4Z" fill="#dad8db"/>
      <path id="Trazado_121231" data-name="Trazado 121231" d="M61.1,8.887a1.8,1.8,0,0,0,1.8,1.8h7.2l-9-9Z" fill="#dad8db"/>
      <path id="Trazado_121232" data-name="Trazado 121232" d="M100.712,1.685h-14.4a1.8,1.8,0,0,0-1.8,1.8V32.293a1.8,1.8,0,0,0,1.8,1.8h21.606a1.8,1.8,0,0,0,1.8-1.8V10.687Z" fill="#eceaec"/>
      <path id="Trazado_121233" data-name="Trazado 121233" d="M89.909,23.291V1.685h-3.6a1.8,1.8,0,0,0-1.8,1.8V32.293a1.8,1.8,0,0,0,1.8,1.8h21.606a1.8,1.8,0,0,0,1.8-1.8v-3.6h-14.4a5.4,5.4,0,0,1-5.4-5.4Z" fill="#dad8db"/>
      <path id="Trazado_121234" data-name="Trazado 121234" d="M100.712,8.887a1.8,1.8,0,0,0,1.8,1.8h7.2l-9-9Z" fill="#dad8db"/>
      <path id="Trazado_121235" data-name="Trazado 121235" d="M84.508,102.629H71.9a1.685,1.685,0,1,0,0,3.369h12.6a1.685,1.685,0,0,0,0-3.369Z"/>
      <path id="Trazado_121236" data-name="Trazado 121236" d="M88.109,95.427h-12.6a1.685,1.685,0,0,0,0,3.369h12.6a1.685,1.685,0,0,0,0-3.369Z"/>
      <path id="Trazado_121237" data-name="Trazado 121237" d="M12.488,19.574h9a1.685,1.685,0,0,0,0-3.369h-9a1.685,1.685,0,1,0,0,3.369Z"/>
      <path id="Trazado_121238" data-name="Trazado 121238" d="M23.175,25.091a1.685,1.685,0,0,0-1.685-1.685h-9a1.685,1.685,0,1,0,0,3.369h9A1.684,1.684,0,0,0,23.175,25.091Z"/>
      <path id="Trazado_121239" data-name="Trazado 121239" d="M52.1,19.574h9a1.685,1.685,0,1,0,0-3.369h-9a1.685,1.685,0,1,0,0,3.369Z"/>
      <path id="Trazado_121240" data-name="Trazado 121240" d="M62.786,25.091A1.685,1.685,0,0,0,61.1,23.406h-9a1.685,1.685,0,0,0,0,3.369h9A1.684,1.684,0,0,0,62.786,25.091Z"/>
      <path id="Trazado_121241" data-name="Trazado 121241" d="M110.906,9.5l-9-9A1.684,1.684,0,0,0,100.712,0h-14.4a3.489,3.489,0,0,0-3.485,3.485V32.293a3.489,3.489,0,0,0,3.485,3.485h9.118V41.3a1.919,1.919,0,0,1-1.916,1.916h-31a5.309,5.309,0,0,0-3.324-3.324v-4.11H68.3a3.489,3.489,0,0,0,3.485-3.485V10.687A1.684,1.684,0,0,0,71.295,9.5l-9-9A1.684,1.684,0,0,0,61.1,0H46.7a3.489,3.489,0,0,0-3.485,3.485V32.293A3.489,3.489,0,0,0,46.7,35.778h9.118v4.11a5.309,5.309,0,0,0-3.324,3.324h-31A1.919,1.919,0,0,1,19.574,41.3V35.778h9.119a3.489,3.489,0,0,0,3.485-3.485V10.687A1.684,1.684,0,0,0,31.684,9.5l-9-9A1.683,1.683,0,0,0,21.49,0H7.086A3.489,3.489,0,0,0,3.6,3.485V32.293a3.489,3.489,0,0,0,3.485,3.485H16.2V41.3a5.292,5.292,0,0,0,5.286,5.286h31a5.309,5.309,0,0,0,3.324,3.324V61.2a3.686,3.686,0,0,1-2.307-1.073L49.47,56.09a7.04,7.04,0,0,0-5.011-2.075H28.692A7.094,7.094,0,0,0,21.606,61.1v46.813A7.094,7.094,0,0,0,28.691,115H87.816a7.077,7.077,0,0,0,6.723-4.845l12.383-37.149a3.485,3.485,0,0,0-3.306-4.587H93.394V68.3a7.094,7.094,0,0,0-7.086-7.086H64.7a1.685,1.685,0,1,0,0,3.369H86.308A3.721,3.721,0,0,1,90.025,68.3v.116H59.185V49.905a5.309,5.309,0,0,0,3.324-3.324h31A5.292,5.292,0,0,0,98.8,41.3V35.778h9.119a3.489,3.489,0,0,0,3.485-3.485V10.687a1.684,1.684,0,0,0-.493-1.191ZM62.786,5.751,66.037,9H62.9a.116.116,0,0,1-.116-.116Zm-16.2,26.542V3.485a.116.116,0,0,1,.116-.116H59.417V8.886A3.489,3.489,0,0,0,62.9,12.372h5.517V32.293a.116.116,0,0,1-.116.116H46.7a.116.116,0,0,1-.116-.116ZM23.175,5.751,26.426,9H23.291a.116.116,0,0,1-.116-.116ZM6.97,32.293V3.485a.116.116,0,0,1,.116-.116H19.805V8.886a3.489,3.489,0,0,0,3.485,3.485h5.518V32.293a.116.116,0,0,1-.116.116H7.086A.116.116,0,0,1,6.97,32.293ZM57.5,42.98a1.918,1.918,0,0,1,1.916,1.913s0,0,0,0v0A1.916,1.916,0,1,1,57.5,42.98Zm46.21,28.856a.105.105,0,0,1,.016.1L91.343,109.09a3.712,3.712,0,0,1-3.526,2.541H28.692a3.7,3.7,0,0,1-2.681-1.149L38.062,74.33a3.712,3.712,0,0,1,3.526-2.541h62.028a.106.106,0,0,1,.094.048ZM41.588,68.419a7.077,7.077,0,0,0-6.723,4.845l-9.89,29.671V61.1a3.721,3.721,0,0,1,3.717-3.717H44.46a3.692,3.692,0,0,1,2.628,1.089l4.038,4.038a7.035,7.035,0,0,0,4.69,2.068v3.841ZM102.4,5.751,105.648,9h-3.135a.116.116,0,0,1-.116-.116Zm5.518,26.658H86.309a.116.116,0,0,1-.116-.116V3.485a.116.116,0,0,1,.116-.116H99.028V8.886a3.489,3.489,0,0,0,3.485,3.485h5.517V32.293a.116.116,0,0,1-.116.116Z"/>
      <path id="Trazado_121242" data-name="Trazado 121242" d="M100.712,16.2h-9a1.685,1.685,0,1,0,0,3.369h9a1.685,1.685,0,1,0,0-3.369Z"/>
      <path id="Trazado_121243" data-name="Trazado 121243" d="M100.712,23.406h-9a1.685,1.685,0,1,0,0,3.369h9a1.685,1.685,0,1,0,0-3.369Z"/>
    </g>
  </g>
</svg>
