<svg xmlns="http://www.w3.org/2000/svg" xmlns:xlink="http://www.w3.org/1999/xlink" width="190" height="115" viewBox="0 0 190 115">
  <defs>
    <clipPath id="clip-path">
      <rect id="Rectángulo_34137" data-name="Rectángulo 34137" width="190" height="115" transform="translate(1020 9470)" fill="#2ff980"/>
    </clipPath>
  </defs>
  <g id="Enmascarar_grupo_117" data-name="Enmascarar grupo 117" transform="translate(-1020 -9470)" clip-path="url(#clip-path)">
    <g id="riesgo" transform="translate(1057.5 9470)">
      <g id="Grupo_83158" data-name="Grupo 83158">
        <path id="Trazado_121188" data-name="Trazado 121188" d="M102.422,30.547H12.578a4.491,4.491,0,0,0-4.492,4.492v68.73h98.828V35.039A4.491,4.491,0,0,0,102.422,30.547Z" fill="#eefaff"/>
        <path id="Trazado_121189" data-name="Trazado 121189" d="M112.754,103.77a8.985,8.985,0,0,1-8.984,8.984H11.23a8.985,8.985,0,0,1-8.984-8.984Z" fill="#6d92ac"/>
        <path id="Trazado_121190" data-name="Trazado 121190" d="M88.945,61.992V94.785H79.961V70.977Z" fill="#ff7d95"/>
        <path id="Trazado_121191" data-name="Trazado 121191" d="M83.773,41.645a4.493,4.493,0,0,1-3.812,6.871H35.039a4.493,4.493,0,0,1-3.812-6.871L53.688,4.36a4.494,4.494,0,0,1,7.623,0Z" fill="#ffda8f"/>
        <path id="Trazado_121192" data-name="Trazado 121192" d="M79.961,70.977V94.785H70.977v-28.3Z" fill="#a0e5a5"/>
        <path id="Trazado_121193" data-name="Trazado 121193" d="M70.977,66.484v28.3H61.992V61.992Z" fill="#ff7d95"/>
        <path id="Trazado_121194" data-name="Trazado 121194" d="M61.992,61.992V94.785H53.008V70.977Z" fill="#a0e5a5"/>
        <path id="Trazado_121195" data-name="Trazado 121195" d="M53.008,70.977V94.785H44.023V79.961Z" fill="#ff7d95"/>
        <path id="Trazado_121196" data-name="Trazado 121196" d="M44.023,79.961V94.785H35.039V75.469Z" fill="#a0e5a5"/>
        <path id="Trazado_121197" data-name="Trazado 121197" d="M35.039,75.469V94.785H26.055V79.961Z" fill="#ff7d95"/>
        <path id="Trazado_121198" data-name="Trazado 121198" d="M26.055,79.961V94.785H17.07V84.453Z" fill="#a0e5a5"/>
      </g>
      <g id="Grupo_83159" data-name="Grupo 83159">
        <circle id="Elipse_5340" data-name="Elipse 5340" cx="2.246" cy="2.246" r="2.246" transform="translate(55.254 37.285)"/>
        <path id="Trazado_121199" data-name="Trazado 121199" d="M57.5,32.793a2.246,2.246,0,0,0,2.246-2.246V15.723a2.246,2.246,0,0,0-4.492,0V30.547A2.246,2.246,0,0,0,57.5,32.793Z"/>
        <path id="Trazado_121200" data-name="Trazado 121200" d="M97.93,50.762H88.945a2.246,2.246,0,0,0,0,4.492h3.562l-12.99,12.99L63,59.983A2.255,2.255,0,0,0,60.4,60.4L43.58,77.228,36.044,73.46a2.266,2.266,0,0,0-2.009,0L19.316,80.819v-7.6h6.738a2.246,2.246,0,0,0,0-4.492H19.316V64.238h6.738a2.246,2.246,0,0,0,0-4.492H19.316V55.254h6.738a2.246,2.246,0,0,0,0-4.492H19.316V48.516a2.246,2.246,0,0,0-4.492,0v46.27a2.246,2.246,0,0,0,2.246,2.246H97.93a2.246,2.246,0,0,0,0-4.492H91.191V62.923l4.492-4.492v3.562a2.246,2.246,0,0,0,4.492,0V53.008s0-.007,0-.01a2.25,2.25,0,0,0-2.246-2.236ZM23.809,92.539H19.316v-6.7L23.809,83.6Zm8.984,0H28.3V81.349L32.793,79.1Zm8.984,0H37.285V79.1l4.492,2.246Zm8.984,0H46.27V80.891L50.762,76.4Zm8.984,0H55.254V71.907l4.492-4.492Zm8.984,0H64.238V65.626l4.492,2.246Zm8.984,0H73.223V70.119l4.492,2.246Zm8.984,0H82.207V71.907L86.7,67.415Z"/>
        <circle id="Elipse_5341" data-name="Elipse 5341" cx="2.246" cy="2.246" r="2.246" transform="translate(55.254 110.508)"/>
        <path id="Trazado_121201" data-name="Trazado 121201" d="M112.754,101.523H109.16V35.039a6.746,6.746,0,0,0-6.738-6.738H78.356L63.217,3.169a6.74,6.74,0,0,0-11.433,0L36.643,28.3H12.578A6.746,6.746,0,0,0,5.84,35.039v66.484H2.246A2.246,2.246,0,0,0,0,103.77,11.243,11.243,0,0,0,11.23,115H47.393a2.246,2.246,0,0,0,0-4.492H11.23a6.749,6.749,0,0,1-6.354-4.494H110.123a6.749,6.749,0,0,1-6.353,4.494H67.607a2.246,2.246,0,0,0,0,4.492H103.77A11.243,11.243,0,0,0,115,103.77,2.246,2.246,0,0,0,112.754,101.523ZM55.6,5.537a2.248,2.248,0,0,1,3.8,0c1.119,1.864,22.463,37.288,22.469,37.3a2.247,2.247,0,0,1-1.907,3.434H35.039a2.247,2.247,0,0,1-1.907-3.434Zm49.067,95.986H10.332V35.039a2.249,2.249,0,0,1,2.246-2.246H33.937l-4.625,7.678a6.739,6.739,0,0,0,5.727,10.29H79.961a6.739,6.739,0,0,0,5.727-10.29l-4.626-7.679h21.36a2.249,2.249,0,0,1,2.246,2.246Z"/>
      </g>
    </g>
  </g>
</svg>
