<svg xmlns="http://www.w3.org/2000/svg" xmlns:xlink="http://www.w3.org/1999/xlink" width="190" height="115" viewBox="0 0 190 115">
  <defs>
    <clipPath id="clip-path">
      <rect id="Rectángulo_34138" data-name="Rectángulo 34138" width="190" height="115" transform="translate(1852 -2069)" fill="#2ff980"/>
    </clipPath>
  </defs>
  <g id="Enmascarar_grupo_118" data-name="Enmascarar grupo 118" transform="translate(-1852 2069)" clip-path="url(#clip-path)">
    <g id="riesgos" transform="translate(1887.645 -2070.855)">
      <g id="Grupo_83169" data-name="Grupo 83169">
        <g id="Grupo_83160" data-name="Grupo 83160">
          <path id="Trazado_121202" data-name="Trazado 121202" d="M33.165,11.352a5.551,5.551,0,0,1-1.632-3.932,5.343,5.343,0,0,1,.111-1.094A31.141,31.141,0,0,0,20.4,3.71,31.141,31.141,0,0,0,9.163,6.325a5.343,5.343,0,0,1,.111,1.094A5.557,5.557,0,0,1,3.71,12.984a32.836,32.836,0,0,0,2.912,13.5A32.48,32.48,0,0,0,14.876,37.6l2.281,1.985a4.915,4.915,0,0,0,6.492,0L25.931,37.6A32.7,32.7,0,0,0,37.1,12.984a5.551,5.551,0,0,1-3.932-1.632Z" fill="#aab2bd"/>
        </g>
        <g id="Grupo_83161" data-name="Grupo 83161">
          <path id="Trazado_121203" data-name="Trazado 121203" d="M37.1,103.871h7.419V115H37.1Z" fill="#ef7385"/>
        </g>
        <g id="Grupo_83162" data-name="Grupo 83162">
          <path id="Trazado_121204" data-name="Trazado 121204" d="M22.258,92.742h7.419V115H22.258Z" fill="#ef7385"/>
        </g>
        <g id="Grupo_83163" data-name="Grupo 83163">
          <path id="Trazado_121205" data-name="Trazado 121205" d="M7.419,100.161h7.419V115H7.419Z" fill="#ef7385"/>
        </g>
        <g id="Grupo_83164" data-name="Grupo 83164">
          <path id="Trazado_121206" data-name="Trazado 121206" d="M87.177,92.742h18.548a3.721,3.721,0,0,1,3.71,3.71V111.29a3.721,3.721,0,0,1-3.71,3.71H87.177a3.721,3.721,0,0,1-3.71-3.71V96.452A3.721,3.721,0,0,1,87.177,92.742Z" fill="#b4dd7f"/>
        </g>
        <g id="Grupo_83165" data-name="Grupo 83165">
          <circle id="Elipse_5342" data-name="Elipse 5342" cx="3.71" cy="3.71" r="3.71" transform="translate(92.742 98.306)" fill="#fcd770"/>
        </g>
        <g id="Grupo_83166" data-name="Grupo 83166">
          <circle id="Elipse_5343" data-name="Elipse 5343" cx="18.548" cy="18.548" r="18.548" transform="translate(77.903 3.71)" fill="#fcd770"/>
        </g>
        <g id="Grupo_83167" data-name="Grupo 83167">
          <path id="Trazado_121207" data-name="Trazado 121207" d="M76.048,73.748a6.078,6.078,0,0,0-.631-2.671l-1.076-2.133a18.294,18.294,0,0,0,1.706-7.735,18.548,18.548,0,1,0-37.1,0,18.294,18.294,0,0,0,1.706,7.735l-1.076,2.133a6.078,6.078,0,0,0-.631,2.671,6.016,6.016,0,0,0,6.01,6.01H70.039A6.008,6.008,0,0,0,76.048,73.748Zm4.118.13,2.263,4.377L74.546,86.12l-4.377-2.244a26.949,26.949,0,0,1-5.6,2.3l-1.5,4.711H51.935l-1.5-4.711a26.949,26.949,0,0,1-5.6-2.3L40.454,86.12l-7.883-7.865,2.263-4.377a26.949,26.949,0,0,1-2.3-5.6l-4.711-1.5V55.645l4.711-1.5a26.949,26.949,0,0,1,2.3-5.6l-2.263-4.377,7.883-7.883,4.377,2.263a26.949,26.949,0,0,1,5.6-2.3l1.5-4.711H63.065l1.5,4.711a26.949,26.949,0,0,1,5.6,2.3l4.377-2.263,7.883,7.883-2.263,4.377a26.949,26.949,0,0,1,2.3,5.6l4.711,1.5V66.774l-4.711,1.5a26.949,26.949,0,0,1-2.3,5.6Z" fill="#fcd770"/>
        </g>
        <g id="Grupo_83168" data-name="Grupo 83168">
          <path id="Trazado_121208" data-name="Trazado 121208" d="M57.5,42.661a5.954,5.954,0,0,1,5.36,3.32L74.342,68.944l1.076,2.133a6.078,6.078,0,0,1,.631,2.671,6.008,6.008,0,0,1-6.01,6.01H44.961a6.016,6.016,0,0,1-6.01-6.01,6.078,6.078,0,0,1,.631-2.671l1.076-2.133L52.14,45.981a5.954,5.954,0,0,1,5.36-3.32Z" fill="#ef7385"/>
        </g>
      </g>
      <g id="Grupo_83170" data-name="Grupo 83170">
        <path id="Trazado_121209" data-name="Trazado 121209" d="M96.452,42.661a20.4,20.4,0,1,0-20.4-20.4A20.427,20.427,0,0,0,96.452,42.661Zm0-37.1A16.694,16.694,0,1,1,79.758,22.258,16.712,16.712,0,0,1,96.452,5.565Z"/>
        <path id="Trazado_121210" data-name="Trazado 121210" d="M98.306,27.823H94.6a1.856,1.856,0,0,1-1.855-1.855h-3.71A5.571,5.571,0,0,0,94.6,31.532v3.71h3.71v-3.71a5.565,5.565,0,1,0,0-11.129H94.6a1.855,1.855,0,1,1,0-3.71h3.71a1.856,1.856,0,0,1,1.855,1.855h3.71a5.571,5.571,0,0,0-5.565-5.565V9.274H94.6v3.71a5.565,5.565,0,1,0,0,11.129h3.71a1.855,1.855,0,1,1,0,3.71Z"/>
        <path id="Trazado_121211" data-name="Trazado 121211" d="M107.581,91.228V83.468a11.129,11.129,0,1,0-22.258,0v7.761a5.557,5.557,0,0,0-3.71,5.223V111.29a5.571,5.571,0,0,0,5.565,5.565h18.548a5.571,5.571,0,0,0,5.565-5.565V96.452A5.557,5.557,0,0,0,107.581,91.228ZM96.452,76.048a7.427,7.427,0,0,1,7.419,7.419v7.419H89.032V83.468A7.427,7.427,0,0,1,96.452,76.048Zm11.129,35.242a1.856,1.856,0,0,1-1.855,1.855H87.177a1.856,1.856,0,0,1-1.855-1.855V96.452A1.856,1.856,0,0,1,87.177,94.6h18.548a1.856,1.856,0,0,1,1.855,1.855Z"/>
        <path id="Trazado_121212" data-name="Trazado 121212" d="M96.452,96.452A5.551,5.551,0,0,0,94.6,107.239v4.051h3.71v-4.051a5.551,5.551,0,0,0-1.855-10.788Zm0,7.419a1.855,1.855,0,1,1,1.855-1.855A1.856,1.856,0,0,1,96.452,103.871Z"/>
        <path id="Trazado_121213" data-name="Trazado 121213" d="M46.371,102.016H35.242v11.129h-3.71V90.887H20.4v22.258h-3.71V98.306H5.565v14.839H1.855v3.71H50.081v-3.71h-3.71Zm-7.419,3.71h3.71v7.419h-3.71ZM24.113,94.6h3.71v18.548h-3.71ZM9.274,102.016h3.71v11.129H9.274Z"/>
        <path id="Trazado_121214" data-name="Trazado 121214" d="M13.653,38.989l2.278,1.994a6.8,6.8,0,0,0,8.946,0l2.274-1.99a34.562,34.562,0,0,0,11.8-26.007V11.129H37.1a3.713,3.713,0,0,1-3.71-3.71,3.761,3.761,0,0,1,.074-.727l.288-1.434-1.33-.614A32.7,32.7,0,0,0,20.4,1.855,32.726,32.726,0,0,0,8.386,4.645l-1.328.614.287,1.434a3.761,3.761,0,0,1,.074.727,3.713,3.713,0,0,1-3.71,3.71H1.855v1.855a34.56,34.56,0,0,0,11.8,26ZM11.129,7.525a30.312,30.312,0,0,1,7.419-1.851v7.31h3.71V5.674a30.524,30.524,0,0,1,7.419,1.853A7.435,7.435,0,0,0,35.2,14.594,30.838,30.838,0,0,1,24.708,36.2l-2.274,1.99c-.052.045-.121.061-.176.1v-21.6h-3.71v21.6c-.054-.041-.122-.056-.174-.1L16.1,36.2a30.836,30.836,0,0,1-10.491-21.6,7.435,7.435,0,0,0,5.524-7.069Z"/>
        <circle id="Elipse_5344" data-name="Elipse 5344" cx="1.855" cy="1.855" r="1.855" transform="translate(55.645 70.484)"/>
        <path id="Trazado_121215" data-name="Trazado 121215" d="M55.645,48.226h3.71V66.774h-3.71Z"/>
        <path id="Trazado_121216" data-name="Trazado 121216" d="M32.743,48.532a28.017,28.017,0,0,0-1.7,4.134l-5.071,1.627V68.128l5.071,1.625a27.77,27.77,0,0,0,1.7,4.134L30.31,78.615,40.092,88.4l4.728-2.432a27.771,27.771,0,0,0,4.134,1.7l1.629,5.073H64.419l1.625-5.071a27.771,27.771,0,0,0,4.134-1.7L74.906,88.4l9.782-9.781-2.434-4.728a27.852,27.852,0,0,0,1.7-4.134l5.073-1.629V54.291l-5.071-1.625a27.934,27.934,0,0,0-1.7-4.134L84.69,43.8l-9.782-9.782L70.18,36.455a28.017,28.017,0,0,0-4.134-1.7l-1.629-5.073H50.581l-1.625,5.071a27.934,27.934,0,0,0-4.134,1.7L40.094,34.02,30.312,43.8Zm1.575,6.11a23.908,23.908,0,0,1,2.139-5.188l.486-.87-2.1-4.07L40.8,38.557l4.07,2.1.87-.486a23.909,23.909,0,0,1,5.188-2.139l.959-.271,1.4-4.37H61.71l1.4,4.37.959.271a23.909,23.909,0,0,1,5.188,2.139l.87.486,4.07-2.1,5.958,5.958-2.1,4.07.486.87a23.908,23.908,0,0,1,2.139,5.188l.271.959,4.37,1.4V65.42l-4.37,1.4-.271.959a24.067,24.067,0,0,1-2.137,5.188l-.488.868,2.1,4.071L74.2,83.861l-4.071-2.094-.868.488a24.068,24.068,0,0,1-5.188,2.137l-.959.271-1.4,4.37H53.29l-1.4-4.37-.959-.271a24.068,24.068,0,0,1-5.188-2.137l-.868-.488L40.8,83.861l-5.958-5.956,2.1-4.071-.488-.868a24.068,24.068,0,0,1-2.137-5.188l-.271-.959-4.37-1.4V57l4.37-1.4Z"/>
        <path id="Trazado_121217" data-name="Trazado 121217" d="M37.1,73.756a7.865,7.865,0,0,0,7.857,7.857h25.09a7.859,7.859,0,0,0,7.03-11.372l-.7-1.395A20.151,20.151,0,0,0,77.9,61.21a20.4,20.4,0,0,0-40.806,0,20.151,20.151,0,0,0,1.527,7.636l-.7,1.395a7.885,7.885,0,0,0-.829,3.515ZM70.046,77.9H44.954a4.148,4.148,0,0,1-3.71-6L53.79,46.809a4.148,4.148,0,0,1,7.419,0L73.756,71.9a4.149,4.149,0,0,1-3.71,6ZM74.194,61.21a16.5,16.5,0,0,1-.256,2.76L65.146,46.386A16.7,16.7,0,0,1,74.194,61.21Zm-33.387,0a16.7,16.7,0,0,1,9.048-14.822L41.062,63.972A16.537,16.537,0,0,1,40.806,61.21Z"/>
        <path id="Trazado_121218" data-name="Trazado 121218" d="M94.6,46.371h3.71V68.629H94.6Z"/>
        <path id="Trazado_121219" data-name="Trazado 121219" d="M18.548,46.371h3.71V87.177h-3.71Z"/>
        <path id="Trazado_121220" data-name="Trazado 121220" d="M50.081,103.871H77.9v3.71H50.081Z"/>
        <path id="Trazado_121221" data-name="Trazado 121221" d="M40.806,22.258H72.339v3.71H40.806Z"/>
      </g>
    </g>
  </g>
</svg>
