<svg xmlns="http://www.w3.org/2000/svg" xmlns:xlink="http://www.w3.org/1999/xlink" width="190" height="115" viewBox="0 0 190 115">
  <defs>
    <clipPath id="clip-path">
      <rect id="Rectángulo_34145" data-name="Rectángulo 34145" width="190" height="115" transform="translate(1852 -106)" fill="#2ff980"/>
    </clipPath>
  </defs>
  <g id="Enmascarar_grupo_124" data-name="Enmascarar grupo 124" transform="translate(-1852 106)" clip-path="url(#clip-path)">
    <g id="habilidades" transform="translate(1885.41 -109.496)">
      <g id="Grupo_83225" data-name="Grupo 83225">
        <g id="Grupo_83221" data-name="Grupo 83221">
          <path id="Trazado_121345" data-name="Trazado 121345" d="M70.816,43.9c.791-13.463,6.626-12.917,6.626-22.052a16.446,16.446,0,1,0-32.892,0c0,9.134,5.835,8.588,6.626,22.052v2.673a2.68,2.68,0,0,0,2.672,2.672h14.3a2.68,2.68,0,0,0,2.672-2.672Z" fill="#ffe177" fill-rule="evenodd"/>
          <path id="Trazado_121346" data-name="Trazado 121346" d="M70.816,43.9c.791-13.463,6.626-12.917,6.626-22.052A16.446,16.446,0,0,0,61,5.4c-.363,0-.723.013-1.08.036a16.446,16.446,0,0,1,15.366,16.41c0,9.134-5.835,8.588-6.626,22.052v2.673a2.68,2.68,0,0,1-2.672,2.672h2.16a2.68,2.68,0,0,0,2.672-2.672Z" fill="#ffd064" fill-rule="evenodd"/>
          <path id="Trazado_121347" data-name="Trazado 121347" d="M65.492,53.51H56.678v3.752a2.68,2.68,0,0,0,2.673,2.672h3.468a2.68,2.68,0,0,0,2.672-2.672Z" fill="#a0a0a3" fill-rule="evenodd"/>
          <path id="Trazado_121348" data-name="Trazado 121348" d="M65.56,54.589a2.68,2.68,0,0,0,2.672-2.672v-3.7H53.937v3.7a2.68,2.68,0,0,0,2.673,2.672Z" fill="#b1b1b5" fill-rule="evenodd"/>
          <path id="Trazado_121349" data-name="Trazado 121349" d="M65.56,54.589a2.68,2.68,0,0,0,2.672-2.672v-3.7H66.617v3.7a2.68,2.68,0,0,1-2.672,2.672Z" fill="#a0a0a3" fill-rule="evenodd"/>
          <path id="Trazado_121350" data-name="Trazado 121350" d="M70.816,43.9H51.176v2.673a2.68,2.68,0,0,0,2.672,2.672h14.3a2.68,2.68,0,0,0,2.672-2.672Z" fill="#d1d1d6" fill-rule="evenodd"/>
          <path id="Trazado_121351" data-name="Trazado 121351" d="M70.816,43.9h-2.16v2.673a2.68,2.68,0,0,1-2.672,2.672h2.16a2.68,2.68,0,0,0,2.672-2.672Z" fill="#b1b1b5" fill-rule="evenodd"/>
        </g>
        <g id="Grupo_83222" data-name="Grupo 83222">
          <path id="Trazado_121352" data-name="Trazado 121352" d="M24.9,40.361a15.275,15.275,0,0,1,5.574,2.311l2.973-1.32L36,43.911l-1.32,2.972a15.274,15.274,0,0,1,2.311,5.575l3.033,1.167v3.619l-3.033,1.168a15.28,15.28,0,0,1-2.311,5.574L36,66.959l-2.559,2.559L30.472,68.2A15.272,15.272,0,0,1,24.9,70.509l-1.167,3.033H20.11l-1.168-3.033A15.274,15.274,0,0,1,13.368,68.2L10.4,69.518,7.836,66.959l1.32-2.972a15.273,15.273,0,0,1-2.311-5.576L3.813,57.244V53.625l3.033-1.167a15.276,15.276,0,0,1,2.311-5.575L7.836,43.91,10.4,41.351l2.973,1.32a15.275,15.275,0,0,1,5.574-2.311l1.167-3.034h3.619Z" fill="#837683" fill-rule="evenodd"/>
          <path id="Trazado_121353" data-name="Trazado 121353" d="M32.489,41.776l.954-.424L36,43.911l-1.32,2.972a15.276,15.276,0,0,1,2.311,5.575l3.033,1.167v3.619l-3.033,1.168a15.275,15.275,0,0,1-2.311,5.574L36,66.959l-2.559,2.559-.954-.424,2.135-2.135L33.3,63.986a15.274,15.274,0,0,0,2.311-5.574l3.033-1.168V53.625l-3.033-1.167A15.276,15.276,0,0,0,33.3,46.883l1.32-2.972Zm-22.517,0,.424-.424,2.973,1.32q-.286.175-.564.361Zm3.4,26.422L10.4,69.518l-.424-.424L12.8,67.836Q13.082,68.023,13.368,68.2ZM24.9,40.361a15.275,15.275,0,0,1,5.574,2.311l-.814.361a18.739,18.739,0,0,0-6.139-2.672l-1.167-3.034h1.378Zm5.5,27.887a15.272,15.272,0,0,1-5.5,2.261l-1.167,3.033H22.351l1.167-3.033a18.742,18.742,0,0,0,6.14-2.672l.814.361C30.447,68.213,30.422,68.23,30.4,68.248Z" fill="#685e68" fill-rule="evenodd"/>
          <circle id="Elipse_5349" data-name="Elipse 5349" cx="9.295" cy="9.295" r="9.295" transform="translate(12.625 46.14)" fill="#eceff1"/>
          <path id="Trazado_121354" data-name="Trazado 121354" d="M21.92,46.14c.221,0,.44.008.657.024a9.294,9.294,0,0,0,0,18.542c-.217.015-.437.024-.657.024a9.295,9.295,0,0,1,0-18.589Z" fill="#d1d1d6" fill-rule="evenodd"/>
        </g>
        <g id="Grupo_83223" data-name="Grupo 83223">
          <circle id="Elipse_5350" data-name="Elipse 5350" cx="18.108" cy="18.108" r="18.108" transform="translate(78.864 41.09) rotate(-10.894)" fill="#ffc338"/>
          <path id="Trazado_121355" data-name="Trazado 121355" d="M100.07,37.328a18.108,18.108,0,0,1,0,36.216q-.709,0-1.4-.054a18.109,18.109,0,0,0,0-36.108q.7-.054,1.4-.054Z" fill="#f5b829" fill-rule="evenodd"/>
        </g>
        <g id="Grupo_83224" data-name="Grupo 83224">
          <path id="Trazado_121356" data-name="Trazado 121356" d="M40.433,116.59H81.558a2.731,2.731,0,0,0,2.645-3.412,23.97,23.97,0,0,0-46.415,0,2.731,2.731,0,0,0,2.645,3.412Z" fill="#60b7ff" fill-rule="evenodd"/>
          <path id="Trazado_121357" data-name="Trazado 121357" d="M81.558,116.59a2.731,2.731,0,0,0,2.645-3.412A23.98,23.98,0,0,0,58.265,95.36a23.983,23.983,0,0,1,20.476,17.818A2.731,2.731,0,0,1,76.1,116.59Z" fill="#41a8fc" fill-rule="evenodd"/>
          <circle id="Elipse_5351" data-name="Elipse 5351" cx="12.116" cy="12.116" r="12.116" transform="translate(48.88 70.972)" fill="#f6dccd"/>
          <path id="Trazado_121358" data-name="Trazado 121358" d="M61,70.972a12.116,12.116,0,1,1-1.7,24.113,12.117,12.117,0,0,0,0-23.994,12.244,12.244,0,0,1,1.7-.119Z" fill="#f1cbbc" fill-rule="evenodd"/>
        </g>
      </g>
      <path id="Trazado_121359" data-name="Trazado 121359" d="M82.6,114.684A22,22,0,0,0,61,97.111h-.009a22,22,0,0,0-21.6,17.572ZM60.989,93.3H61a10.211,10.211,0,1,0-.011,0Zm25.727,23.088a1.9,1.9,0,0,1-1.893,2.108H37.17a1.906,1.906,0,0,1-1.9-2.108A25.792,25.792,0,0,1,52.956,94.568a14.022,14.022,0,1,1,16.079,0,25.793,25.793,0,0,1,17.681,21.819Zm13.948-36.759.8,5.494a1.905,1.905,0,0,1-3.771.546l0-.02A39.031,39.031,0,0,1,83.815,98.255,1.907,1.907,0,0,1,82,94.9a35.215,35.215,0,0,0,12-10.617,1.907,1.907,0,0,1-.991-3.6L97.92,78.2a1.9,1.9,0,0,1,2.744,1.428ZM40.608,96.488A1.9,1.9,0,0,1,39.19,97.5l-5.494.8a2.107,2.107,0,0,1-.277.019,1.906,1.906,0,0,1-.272-3.793l.024,0A39.084,39.084,0,0,1,20.553,80.634a1.906,1.906,0,0,1,3.352-1.816,35.27,35.27,0,0,0,10.629,12,1.905,1.905,0,0,1,3.6-.991l2.483,4.92A1.9,1.9,0,0,1,40.608,96.488ZM21.325,31.247a1.9,1.9,0,0,0,1.884,1.632,1.89,1.89,0,0,0,.861-.205l4.918-2.48A1.907,1.907,0,0,0,28,26.588a35.232,35.232,0,0,1,12-10.617,1.906,1.906,0,0,0-1.816-3.352A38.977,38.977,0,0,0,24.306,25.228l0-.021a1.905,1.905,0,0,0-3.772.545Zm62.533-10.2a1.905,1.905,0,0,0,3.6-.988A35.233,35.233,0,0,1,98.079,32.052a1.907,1.907,0,1,0,3.353-1.816,39.049,39.049,0,0,0-12.61-13.871l.02,0a1.907,1.907,0,1,0-.546-3.775l-5.492.8a1.909,1.909,0,0,0-1.43,2.745Zm-16.2,2.838a1.916,1.916,0,1,0-1.913-1.915v1.915Zm-21.2-2.035a14.54,14.54,0,1,1,29.08,0c0,3.727-1.072,5.559-2.428,7.877a26.62,26.62,0,0,0-4.053,12.266H65.742V27.7h1.913a5.728,5.728,0,1,0-5.725-5.727v1.915H60.062V21.968A5.728,5.728,0,1,0,54.334,27.7H56.25v14.3H52.935a26.607,26.607,0,0,0-4.052-12.266c-1.355-2.318-2.428-4.151-2.428-7.877ZM63.586,57.263V56.5h-5v.767a.775.775,0,0,0,.765.765h3.469A.777.777,0,0,0,63.586,57.263Zm2.741-5.347v-.765H55.843v.765a.777.777,0,0,0,.766.767h8.949A.777.777,0,0,0,66.326,51.916ZM53.081,45.8v.768a.779.779,0,0,0,.767.767H68.141a.778.778,0,0,0,.767-.767V45.8ZM61.93,27.7H60.062v14.3H61.93Zm-5.68-5.727a1.916,1.916,0,1,0-1.915,1.915H56.25ZM45.593,31.651a17.191,17.191,0,0,1-2.949-9.8,18.352,18.352,0,1,1,36.7,0,17.191,17.191,0,0,1-2.949,9.8c-1.61,2.752-3.274,5.6-3.676,12.308v2.612a4.583,4.583,0,0,1-2.583,4.115v1.229A4.582,4.582,0,0,1,67.4,56.107v1.156a4.584,4.584,0,0,1-4.579,4.577H59.35a4.582,4.582,0,0,1-4.577-4.577V56.107a4.58,4.58,0,0,1-2.743-4.191V50.772a4.581,4.581,0,0,1-2.761-4.2V43.96c-.4-6.711-2.066-9.556-3.676-12.308ZM25.082,68.69a13.51,13.51,0,0,0,3.97-1.646,1.9,1.9,0,0,1,1.773-.117l1.744.774,1.613-1.615-.774-1.744a1.907,1.907,0,0,1,.119-1.773A13.583,13.583,0,0,0,35.17,58.6a1.907,1.907,0,0,1,1.17-1.338l1.78-.684V54.293l-1.778-.683a1.9,1.9,0,0,1-1.17-1.337,13.583,13.583,0,0,0-1.646-3.97,1.907,1.907,0,0,1-.119-1.773l.774-1.744-1.613-1.613-1.746.775a1.915,1.915,0,0,1-1.773-.119,13.562,13.562,0,0,0-3.968-1.647,1.9,1.9,0,0,1-1.336-1.167l-.684-1.78H20.776l-.683,1.78a1.9,1.9,0,0,1-1.339,1.167,13.585,13.585,0,0,0-3.968,1.647,1.911,1.911,0,0,1-1.772.119l-1.745-.775L9.654,44.786l.775,1.744a1.9,1.9,0,0,1-.118,1.773,13.519,13.519,0,0,0-1.646,3.97A1.907,1.907,0,0,1,7.5,53.61l-1.777.683v2.286l1.777.684A1.907,1.907,0,0,1,8.665,58.6a13.545,13.545,0,0,0,1.645,3.97,1.9,1.9,0,0,1,.119,1.773l-.775,1.744L11.27,67.7l1.745-.777a1.908,1.908,0,0,1,1.772.12,13.576,13.576,0,0,0,3.968,1.646,1.9,1.9,0,0,1,1.339,1.167l.683,1.78h2.286l.684-1.777a1.907,1.907,0,0,1,1.336-1.17Zm-.712,6.759a1.9,1.9,0,0,0,1.778-1.219l.807-2.1A17.271,17.271,0,0,0,30.162,70.8l2.054.913a1.907,1.907,0,0,0,2.123-.4L37.8,67.855a1.907,1.907,0,0,0,.4-2.123l-.915-2.056a17.278,17.278,0,0,0,1.33-3.2l2.1-.807a1.908,1.908,0,0,0,1.221-1.78v-4.9a1.908,1.908,0,0,0-1.221-1.78l-2.1-.805a17.268,17.268,0,0,0-1.33-3.208L38.2,45.14a1.907,1.907,0,0,0-.4-2.123l-3.464-3.464a1.909,1.909,0,0,0-2.123-.4l-2.056.915a17.135,17.135,0,0,0-3.205-1.329l-.807-2.1a1.9,1.9,0,0,0-1.778-1.22h-4.9a1.909,1.909,0,0,0-1.78,1.22l-.807,2.1a17.289,17.289,0,0,0-3.205,1.329l-2.056-.915a1.907,1.907,0,0,0-2.121.4L6.036,43.017a1.911,1.911,0,0,0-.4,2.123l.913,2.053A17.4,17.4,0,0,0,5.226,50.4l-2.1.805a1.905,1.905,0,0,0-1.22,1.78v4.9a1.906,1.906,0,0,0,1.22,1.78l2.1.805a17.25,17.25,0,0,0,1.329,3.208L5.64,65.732a1.911,1.911,0,0,0,.4,2.123L9.5,71.319a1.907,1.907,0,0,0,2.123.4l2.053-.913a17.515,17.515,0,0,0,3.205,1.328l.807,2.1a1.909,1.909,0,0,0,1.78,1.219h4.9Zm4.938-20.012a7.389,7.389,0,1,1-7.39-7.388A7.4,7.4,0,0,1,29.308,55.437Zm-7.39,11.2a11.2,11.2,0,1,1,11.2-11.2,11.211,11.211,0,0,1-11.2,11.2Zm94.355-11.2a16.2,16.2,0,1,0-16.2,16.2A16.221,16.221,0,0,0,116.273,55.437Zm3.812,0a20.015,20.015,0,1,0-20.016,20.014A20.038,20.038,0,0,0,120.085,55.437Zm-12.346,4.01a5.36,5.36,0,0,1-1.255,4.261,7.811,7.811,0,0,1-4.508,2.367v.82a1.906,1.906,0,1,1-3.812,0v-.852a7.252,7.252,0,0,1-5.752-5.273,1.905,1.905,0,1,1,3.7-.922c.491,1.967,2.542,2.625,4.153,2.583a4.832,4.832,0,0,0,3.336-1.218,1.547,1.547,0,0,0,.357-1.305c-.114-.936-.691-2.083-4.176-2.655-5.437-.893-6.71-3.746-6.816-5.983-.15-3.057,1.937-5.618,5.2-6.407v-.884a1.906,1.906,0,1,1,3.812,0v.868a7.233,7.233,0,0,1,5.185,4.35,1.907,1.907,0,0,1-3.517,1.477,3.81,3.81,0,0,0-4.524-2.118c-.408.093-2.44.65-2.35,2.531.024.5.087,1.822,3.626,2.4,4.485.737,6.955,2.741,7.343,5.957Z" fill-rule="evenodd"/>
    </g>
  </g>
</svg>
