<svg xmlns="http://www.w3.org/2000/svg" xmlns:xlink="http://www.w3.org/1999/xlink" width="190" height="115" viewBox="0 0 190 115">
  <defs>
    <clipPath id="clip-path">
      <rect id="Rectángulo_34144" data-name="Rectángulo 34144" width="190" height="115" transform="translate(1852 -397)" fill="#2ff980"/>
    </clipPath>
  </defs>
  <g id="Enmascarar_grupo_123" data-name="Enmascarar grupo 123" transform="translate(-1852 397)" clip-path="url(#clip-path)">
    <g id="grupo" transform="translate(1889.5 -397)">
      <path id="Trazado_121310" data-name="Trazado 121310" d="M77.9,57.5V46.668a8.022,8.022,0,0,0-1.54-4.749,8.138,8.138,0,0,0-4.025-2.968l-1.54-1.54.3-.315,12.372-3.71s1.855,3.71,5.565,3.71,5.565-3.71,5.565-3.71l13.262,3.97a7.44,7.44,0,0,1,5.286,7.122V59.355H100.161V57.5a11.129,11.129,0,0,0-22.258,0Zm0,0" fill="#ff826e"/>
      <path id="Trazado_121311" data-name="Trazado 121311" d="M37.1,51.212V57.5a11.129,11.129,0,1,0-22.258,0v1.855H1.855V44.479a7.44,7.44,0,0,1,5.286-7.122L20.4,33.387s1.855,3.71,5.565,3.71,5.565-3.71,5.565-3.71l11.741,3.524a19.58,19.58,0,0,0-6.177,14.3Zm0,0" fill="#ff826e"/>
      <path id="Trazado_121312" data-name="Trazado 121312" d="M102.016,103.871H92.742a3.72,3.72,0,0,0-3.71,3.71V96.025a11.128,11.128,0,0,0-8.625-10.832L68.833,82.522l-.074-.019a7.74,7.74,0,0,1,1.447-.63L83.468,77.9s1.855,3.71,5.565,3.71S94.6,77.9,94.6,77.9l13.262,3.97A7.44,7.44,0,0,1,113.145,89v14.876Zm0,0" fill="#b4dd7f"/>
      <path id="Trazado_121313" data-name="Trazado 121313" d="M46.185,82.522,34.593,85.193a11.128,11.128,0,0,0-8.625,10.832v11.556a3.72,3.72,0,0,0-3.71-3.71H1.855V89a7.44,7.44,0,0,1,5.286-7.122L20.4,77.9s1.855,3.71,5.565,3.71,5.565-3.71,5.565-3.71l13.262,3.97a7.74,7.74,0,0,1,1.447.63Zm0,0" fill="#b4dd7f"/>
      <path id="Trazado_121314" data-name="Trazado 121314" d="M38.952,113.145H25.968V96.025a11.128,11.128,0,0,1,8.625-10.832l11.593-2.671,3.9-.909H64.919l3.9.946.018-.036,11.575,2.671a11.128,11.128,0,0,1,8.625,10.832v17.12Zm0,0" fill="#e6e9ed"/>
      <path id="Trazado_121315" data-name="Trazado 121315" d="M61.21,96.452l1.855,16.694H51.935L53.79,96.452Zm0,0" fill="#ff826e"/>
      <path id="Trazado_121316" data-name="Trazado 121316" d="M63.231,90.609l-.167.278L61.21,96.452H53.79l-1.855-5.565-.167-.278L57.5,87.177Zm0,0" fill="#ff826e"/>
      <path id="Trazado_121317" data-name="Trazado 121317" d="M68.759,82.5l.074.019-.018.036L66.774,92.742l-3.543-2.133L57.5,87.177l7.419-5.565Zm0,0" fill="#ccd1d9"/>
      <path id="Trazado_121318" data-name="Trazado 121318" d="M46.241,82.5l3.839-.89L57.5,87.177l-5.731,3.432-3.543,2.133-2.041-10.22Zm0,0" fill="#ccd1d9"/>
      <path id="Trazado_121319" data-name="Trazado 121319" d="M100.161,12.984v1.855H97.212a6.333,6.333,0,0,1-4.47-1.855,6.333,6.333,0,0,1-4.47,1.855H77.9V12.984a11.129,11.129,0,1,1,22.258,0Zm0,0" fill="#b27946"/>
      <path id="Trazado_121320" data-name="Trazado 121320" d="M37.1,14.839H26.729a6.333,6.333,0,0,1-4.47-1.855,6.333,6.333,0,0,1-4.47,1.855H14.839V12.984a11.129,11.129,0,0,1,22.258,0Zm0,0" fill="#b27946"/>
      <path id="Trazado_121321" data-name="Trazado 121321" d="M83.468,28.175a11.055,11.055,0,0,0,11.129,0v5.212s-1.855,3.71-5.565,3.71-5.565-3.71-5.565-3.71Zm0,0" fill="#f0d0b4"/>
      <path id="Trazado_121322" data-name="Trazado 121322" d="M94.6,28.175a11.055,11.055,0,0,1-11.129,0A11.1,11.1,0,0,1,77.9,18.549v-3.71H88.272a6.333,6.333,0,0,0,4.47-1.855,6.333,6.333,0,0,0,4.47,1.855h2.949v3.71A11.027,11.027,0,0,1,96.9,26.413a10.685,10.685,0,0,1-2.3,1.762Zm0,0" fill="#f0d0b4"/>
      <path id="Trazado_121323" data-name="Trazado 121323" d="M20.4,28.175l5.565,1.5a10.863,10.863,0,0,0,5.565-1.5v5.212s-1.855,3.71-5.565,3.71-5.565-3.71-5.565-3.71Zm0,0" fill="#f0d0b4"/>
      <path id="Trazado_121324" data-name="Trazado 121324" d="M31.532,28.175a10.863,10.863,0,0,1-5.565,1.5l-5.565-1.5a10.685,10.685,0,0,1-2.3-1.762,11.027,11.027,0,0,1-3.264-7.865v-3.71h2.949a6.333,6.333,0,0,0,4.47-1.855,6.333,6.333,0,0,0,4.47,1.855H37.1v3.71a11.1,11.1,0,0,1-5.565,9.626Zm0,0" fill="#f0d0b4"/>
      <path id="Trazado_121325" data-name="Trazado 121325" d="M85.323,57.5a6.333,6.333,0,0,1-4.47,1.855H77.9V57.5a11.129,11.129,0,0,1,22.258,0v1.855H89.793a6.333,6.333,0,0,1-4.47-1.855Zm0,0" fill="#b27946"/>
      <path id="Trazado_121326" data-name="Trazado 121326" d="M34.148,59.355a6.333,6.333,0,0,1-4.47-1.855,6.333,6.333,0,0,1-4.47,1.855H14.839V57.5a11.129,11.129,0,0,1,22.258,0v1.855Zm0,0" fill="#b27946"/>
      <path id="Trazado_121327" data-name="Trazado 121327" d="M43.274,36.911a19.633,19.633,0,0,1,21.034-3.876A19.859,19.859,0,0,1,70.688,37.3l1.651,1.651a8.138,8.138,0,0,1,4.025,2.968,8.022,8.022,0,0,1,1.54,4.749V61.21c0-.241-.018-.482-.037-.724a7.59,7.59,0,0,0-7.382-6.678,1.841,1.841,0,0,0-.315-.018H66.774l-1.855-3.71a22.155,22.155,0,0,1-12.26,3.71H44.831a1.841,1.841,0,0,0-.315.018,7.59,7.59,0,0,0-7.382,6.678c-.019.242-.037.483-.037.724v-10a19.58,19.58,0,0,1,6.177-14.3Zm0,0" fill="#fcd770"/>
      <g id="Grupo_83220" data-name="Grupo 83220">
        <path id="Trazado_121328" data-name="Trazado 121328" d="M83.468,72.691a11.055,11.055,0,0,0,11.129,0V77.9s-1.855,3.71-5.565,3.71-5.565-3.71-5.565-3.71Zm0,0" fill="#f0d0b4"/>
        <path id="Trazado_121329" data-name="Trazado 121329" d="M20.4,72.691l5.565,1.5a10.863,10.863,0,0,0,5.565-1.5V77.9s-1.855,3.71-5.565,3.71S20.4,77.9,20.4,77.9Zm0,0" fill="#f0d0b4"/>
        <path id="Trazado_121330" data-name="Trazado 121330" d="M31.532,72.691a10.863,10.863,0,0,1-5.565,1.5l-5.565-1.5a10.685,10.685,0,0,1-2.3-1.762,11.027,11.027,0,0,1-3.264-7.865v-3.71H25.207a6.333,6.333,0,0,0,4.47-1.855,6.333,6.333,0,0,0,4.47,1.855H37.1v3.71a11.1,11.1,0,0,1-5.565,9.626Zm0,0" fill="#f0d0b4"/>
        <path id="Trazado_121331" data-name="Trazado 121331" d="M83.468,72.691A11.1,11.1,0,0,1,77.9,63.065v-3.71h2.949a6.333,6.333,0,0,0,4.47-1.855,6.333,6.333,0,0,0,4.47,1.855h10.368v3.71A11.027,11.027,0,0,1,96.9,70.93a10.685,10.685,0,0,1-2.3,1.762,11.055,11.055,0,0,1-11.129,0Zm0,0" fill="#f0d0b4"/>
        <path id="Trazado_121332" data-name="Trazado 121332" d="M50.081,81.613V76.048l.167-.352C55.719,77.811,56.61,77.9,57.5,77.9A12.93,12.93,0,0,0,64.753,75.7l.167.352v5.565L57.5,87.177Zm0,0" fill="#f0d0b4"/>
        <path id="Trazado_121333" data-name="Trazado 121333" d="M77.9,61.21v.018a7.414,7.414,0,0,1-7.419,7.4l-.5-.13a12.642,12.642,0,0,0,.5-3.58V53.808a7.59,7.59,0,0,1,7.382,6.678c.019.242.037.483.037.724Zm0,0" fill="#f0d0b4"/>
        <path id="Trazado_121334" data-name="Trazado 121334" d="M44.516,64.919a12.642,12.642,0,0,0,.5,3.58l-.5.13a7.414,7.414,0,0,1-7.419-7.4V61.21c0-.241.018-.482.037-.724a7.59,7.59,0,0,1,7.382-6.678Zm0,0" fill="#f0d0b4"/>
        <path id="Trazado_121335" data-name="Trazado 121335" d="M70.484,53.808V64.919a12.642,12.642,0,0,1-.5,3.58A12.965,12.965,0,0,1,57.5,77.9c-.89,0-1.781-.092-7.253-2.207A13.454,13.454,0,0,1,48.318,74.1a12.919,12.919,0,0,1-3.3-5.6,12.642,12.642,0,0,1-.5-3.58V53.808a1.841,1.841,0,0,1,.315-.018h7.828a22.155,22.155,0,0,0,12.26-3.71l1.855,3.71h3.394a1.841,1.841,0,0,1,.315.018Zm0,0" fill="#f0d0b4"/>
      </g>
      <path id="Trazado_121336" data-name="Trazado 121336" d="M115,59.355V44.472a9.217,9.217,0,0,0-6.609-8.883l-11.94-3.582V29.189a12.97,12.97,0,0,0,5.565-10.639V12.984a12.984,12.984,0,1,0-25.968,0v5.565a12.965,12.965,0,0,0,5.565,10.639v2.818L71.091,35.162a21.436,21.436,0,0,0-28.27-.324l-9.434-2.831V29.189A12.97,12.97,0,0,0,38.952,18.55V12.984a12.984,12.984,0,1,0-25.968,0v5.565a12.965,12.965,0,0,0,5.565,10.639v2.818L6.609,35.587A9.221,9.221,0,0,0,0,44.472V59.355H3.71V44.472a5.527,5.527,0,0,1,3.966-5.329l11.943-3.584a8.067,8.067,0,0,0,6.349,3.393,8.067,8.067,0,0,0,6.349-3.393l7.607,2.281a21.409,21.409,0,0,0-4.511,10.777A12.966,12.966,0,0,0,12.984,57.5v5.565A12.965,12.965,0,0,0,18.548,73.7v2.818L6.609,80.1A9.221,9.221,0,0,0,0,88.988v16.738H22.258a1.858,1.858,0,0,1,1.855,1.855V115H90.887v-7.419a1.858,1.858,0,0,1,1.855-1.855H115V88.988a9.217,9.217,0,0,0-6.609-8.883l-11.94-3.582V73.705a12.97,12.97,0,0,0,5.565-10.639V57.5a12.973,12.973,0,0,0-22.258-9.07V46.673a9.974,9.974,0,0,0-5.1-8.7l8.023-2.408a7.638,7.638,0,0,0,12.7,0l11.945,3.584a5.528,5.528,0,0,1,3.964,5.329V59.355ZM25.968,3.71a9.285,9.285,0,0,1,9.274,9.274H26.736a4.509,4.509,0,0,1-3.166-1.311l-1.311-1.311-1.311,1.311a4.509,4.509,0,0,1-3.166,1.311H16.694A9.285,9.285,0,0,1,25.968,3.71ZM16.694,18.548V16.694H17.78a8.123,8.123,0,0,0,4.478-1.33,8.123,8.123,0,0,0,4.478,1.33h8.506v1.855a9.274,9.274,0,1,1-18.548,0Zm9.274,16.694a4.746,4.746,0,0,1-3.71-2.365v-1.89a12.872,12.872,0,0,0,7.419,0v1.89a4.739,4.739,0,0,1-3.71,2.367ZM76.953,67.8a13.04,13.04,0,0,0,4.66,5.908v2.818L69.675,80.1a9.107,9.107,0,0,0-1.148.437l-1.752-.4V76.484a14.916,14.916,0,0,0,4.5-6.083,9.237,9.237,0,0,0,5.675-2.6ZM57.5,79.758a14.737,14.737,0,0,0,5.565-1.092v2.02L57.5,84.859l-5.565-4.173v-2.02A14.737,14.737,0,0,0,57.5,79.758Zm-7.842,3.856,4.522,3.393L49.528,89.8l-1.176-5.882ZM55.45,98.306h4.1l1.443,12.984H54.008Zm4.422-3.71H55.126L54.061,91.4,57.5,89.34,60.937,91.4Zm.948-7.59,4.522-3.393,1.306.3L65.472,89.8ZM74.6,64.953a5.563,5.563,0,0,1-2.343,1.5,15.043,15.043,0,0,0,.08-1.532V56.044a5.6,5.6,0,0,1,3.682,4.612,5.533,5.533,0,0,1-1.418,4.3Zm-5.973-.034a11.129,11.129,0,1,1-22.258,0V55.645h6.3A23.854,23.854,0,0,0,64.16,52.709l1.467,2.936h3ZM42.741,66.452a5.483,5.483,0,0,1-.08-10.406v8.874a15.042,15.042,0,0,0,.08,1.532Zm.981,3.949a14.884,14.884,0,0,0,4.5,6.083v3.654l-1.752.4a9.6,9.6,0,0,0-1.147-.437l-11.94-3.582V73.705a13.052,13.052,0,0,0,4.66-5.908,9.237,9.237,0,0,0,5.675,2.6ZM25.968,48.226A9.285,9.285,0,0,1,35.242,57.5H34.155a4.509,4.509,0,0,1-3.166-1.311l-1.311-1.311-1.311,1.311A4.509,4.509,0,0,1,25.2,57.5H16.694a9.285,9.285,0,0,1,9.274-9.274ZM16.694,63.065V61.21H25.2a8.123,8.123,0,0,0,4.478-1.33,8.123,8.123,0,0,0,4.478,1.33h1.087v1.855a9.274,9.274,0,1,1-18.548,0Zm9.274,12.984a12.906,12.906,0,0,0,3.71-.547v1.89a4.739,4.739,0,0,1-3.71,2.367,4.746,4.746,0,0,1-3.71-2.365V75.5A12.968,12.968,0,0,0,25.968,76.048Zm-3.71,25.968H14.839V89.032h-3.71v12.984H3.71V88.988a5.527,5.527,0,0,1,3.966-5.329l11.943-3.584a8.067,8.067,0,0,0,6.349,3.393,8.067,8.067,0,0,0,6.349-3.393l7.034,2.111-5.173,1.193A12.927,12.927,0,0,0,24.113,96.03v2.276h3.71V96.03a9.234,9.234,0,0,1,7.189-9.037l9.723-2.244,2.186,10.936L50.8,93.358l1.1,3.294L50.275,111.29H40.806V96.452H37.1V111.29H27.823v-3.71a5.572,5.572,0,0,0-5.565-5.565Zm85.066-18.357a5.527,5.527,0,0,1,3.966,5.329v13.028h-7.419V89.032h-3.71v12.984H92.742a5.572,5.572,0,0,0-5.565,5.565v3.71H77.9V96.452h-3.71V111.29H64.725L63.1,96.652l1.1-3.294,3.881,2.328,2.186-10.936,9.725,2.244a9.234,9.234,0,0,1,7.189,9.037v2.276h3.71V96.03A12.926,12.926,0,0,0,80.823,83.379L75.65,82.186l7.034-2.111a7.637,7.637,0,0,0,12.7,0ZM92.742,77.393a4.092,4.092,0,0,1-7.419,0V75.5a12.852,12.852,0,0,0,7.419,0Zm-3.71-5.055a9.285,9.285,0,0,1-9.274-9.274V61.21h1.087a8.123,8.123,0,0,0,4.478-1.33A8.123,8.123,0,0,0,89.8,61.21h8.506v1.855A9.285,9.285,0,0,1,89.032,72.339Zm0-24.113A9.285,9.285,0,0,1,98.307,57.5H89.8a4.509,4.509,0,0,1-3.166-1.311l-1.311-1.311-1.311,1.311A4.509,4.509,0,0,1,80.845,57.5H79.758a9.285,9.285,0,0,1,9.274-9.274ZM76.049,53.948a9.744,9.744,0,0,0-5.883-2.012H67.921L65.64,47.373l-1.748,1.165a20.166,20.166,0,0,1-11.223,3.4H44.835a9.744,9.744,0,0,0-5.883,2.012V51.2A17.819,17.819,0,0,1,69.369,38.6l1.968,1.968.416.139a6.275,6.275,0,0,1,4.3,5.959ZM89.032,3.71a9.285,9.285,0,0,1,9.274,9.274H97.22a4.509,4.509,0,0,1-3.166-1.311l-1.311-1.311-1.311,1.311a4.509,4.509,0,0,1-3.166,1.311H79.758A9.285,9.285,0,0,1,89.032,3.71ZM79.758,18.548V16.693h8.506a8.123,8.123,0,0,0,4.478-1.33,8.123,8.123,0,0,0,4.478,1.33h1.087v1.855a9.274,9.274,0,1,1-18.548,0Zm9.274,16.694a4.743,4.743,0,0,1-3.71-2.365V30.985a12.852,12.852,0,0,0,7.419,0v1.89a4.739,4.739,0,0,1-3.71,2.367Zm0,0"/>
      <path id="Trazado_121337" data-name="Trazado 121337" d="M42.661,0h3.71V3.71h-3.71Zm0,0"/>
      <path id="Trazado_121338" data-name="Trazado 121338" d="M42.661,7.419h3.71v20.4h-3.71Zm0,0"/>
      <path id="Trazado_121339" data-name="Trazado 121339" d="M68.629,0h3.71V3.71h-3.71Zm0,0"/>
      <path id="Trazado_121340" data-name="Trazado 121340" d="M68.629,7.419h3.71v20.4h-3.71Zm0,0"/>
      <path id="Trazado_121341" data-name="Trazado 121341" d="M50.081,7.419h3.71V20.4h-3.71Zm0,0"/>
      <path id="Trazado_121342" data-name="Trazado 121342" d="M50.081,24.113h3.71v3.71h-3.71Zm0,0"/>
      <path id="Trazado_121343" data-name="Trazado 121343" d="M61.21,7.419h3.71V20.4H61.21Zm0,0"/>
      <path id="Trazado_121344" data-name="Trazado 121344" d="M61.21,24.113h3.71v3.71H61.21Zm0,0"/>
    </g>
  </g>
</svg>
