<svg xmlns="http://www.w3.org/2000/svg" xmlns:xlink="http://www.w3.org/1999/xlink" width="190" height="115" viewBox="0 0 190 115">
  <defs>
    <clipPath id="clip-path">
      <rect id="Rectángulo_34142" data-name="Rectángulo 34142" width="190" height="115" transform="translate(1852 -976)" fill="#2ff980"/>
    </clipPath>
  </defs>
  <g id="Enmascarar_grupo_122" data-name="Enmascarar grupo 122" transform="translate(-1852 976)" clip-path="url(#clip-path)">
    <g id="informacion" transform="translate(1889.5 -976)">
      <g id="Grupo_83210" data-name="Grupo 83210">
        <g id="Grupo_83209" data-name="Grupo 83209">
          <path id="Trazado_121292" data-name="Trazado 121292" d="M21.258,113.3H93.742a5.036,5.036,0,0,0,5.036-5.036V6.734A5.036,5.036,0,0,0,93.742,1.7H42.866a8.273,8.273,0,0,0-5.849,2.423L18.645,21.235a8.272,8.272,0,0,0-2.423,5.849v81.182a5.035,5.035,0,0,0,5.035,5.035Z" fill="#edf5fa"/>
        </g>
      </g>
      <g id="Grupo_83212" data-name="Grupo 83212">
        <g id="Grupo_83211" data-name="Grupo 83211">
          <path id="Trazado_121293" data-name="Trazado 121293" d="M93.742,1.7H86.948a5.036,5.036,0,0,1,5.036,5.036V108.266a5.036,5.036,0,0,1-5.036,5.036h6.794a5.036,5.036,0,0,0,5.036-5.036V6.734A5.036,5.036,0,0,0,93.742,1.7Z" fill="#d0e7f2"/>
        </g>
      </g>
      <g id="Grupo_83214" data-name="Grupo 83214">
        <g id="Grupo_83213" data-name="Grupo 83213">
          <path id="Trazado_121294" data-name="Trazado 121294" d="M17.367,24.85H35.349a5.283,5.283,0,0,0,5.283-5.283V2.649" fill="#b7d9eb"/>
        </g>
      </g>
      <g id="Grupo_83216" data-name="Grupo 83216">
        <g id="Grupo_83215" data-name="Grupo 83215">
          <path id="Trazado_121295" data-name="Trazado 121295" d="M86.837,26.262a15.03,15.03,0,1,0-19.61,14.318l5.066,8.775,5.329-9.23a15.035,15.035,0,0,0,9.214-13.863Z" fill="#feaee1"/>
        </g>
      </g>
      <g id="Grupo_83218" data-name="Grupo 83218">
        <g id="Grupo_83217" data-name="Grupo 83217">
          <path id="Trazado_121296" data-name="Trazado 121296" d="M71.807,11.231a15.048,15.048,0,0,0-3.4.39,15.032,15.032,0,0,1,2.419,28.5L68.9,43.47l3.4,5.884,5.329-9.23a15.032,15.032,0,0,0-5.816-28.893Z" fill="#fe93d3"/>
        </g>
      </g>
      <g id="Grupo_83219" data-name="Grupo 83219">
        <path id="Trazado_121297" data-name="Trazado 121297" d="M93.742,0H42.866a9.9,9.9,0,0,0-7.027,2.9L17.487,19.992l-.043.042a9.9,9.9,0,0,0-2.92,7.05V71.62a1.7,1.7,0,0,0,3.4,0V27.084c0-.18.009-.358.023-.535H35.349a6.99,6.99,0,0,0,6.982-6.982V3.421c.177-.014.355-.023.535-.023H93.742a3.341,3.341,0,0,1,3.337,3.337V20.819a1.7,1.7,0,1,0,3.4,0V6.734A6.741,6.741,0,0,0,93.742,0ZM38.934,19.567a3.589,3.589,0,0,1-3.585,3.585H19.227a6.652,6.652,0,0,1,.6-.7L38.175,5.364l.043-.042a6.669,6.669,0,0,1,.716-.62Z"/>
        <path id="Trazado_121298" data-name="Trazado 121298" d="M98.778,25.915a1.7,1.7,0,0,0-1.7,1.7v80.652a3.341,3.341,0,0,1-3.337,3.337H21.258a3.341,3.341,0,0,1-3.337-3.337V78.415a1.7,1.7,0,0,0-3.4,0v29.851A6.742,6.742,0,0,0,21.258,115H93.742a6.741,6.741,0,0,0,6.734-6.734V27.613a1.7,1.7,0,0,0-1.7-1.7Z"/>
        <path id="Trazado_121299" data-name="Trazado 121299" d="M72.26,34.7a1.7,1.7,0,0,0,1.7-1.7V26.715a1.7,1.7,0,1,0-3.4,0V33A1.7,1.7,0,0,0,72.26,34.7Z"/>
        <path id="Trazado_121300" data-name="Trazado 121300" d="M72.26,23.6a1.7,1.7,0,0,0,1.7-1.7V20.431a1.7,1.7,0,1,0-3.4,0V21.9A1.7,1.7,0,0,0,72.26,23.6Z"/>
        <path id="Trazado_121301" data-name="Trazado 121301" d="M70.823,50.2a1.7,1.7,0,0,0,2.942,0l5.051-8.749a16.73,16.73,0,1,0-12.741.526ZM58.475,26.262a13.332,13.332,0,1,1,18.49,12.3,1.7,1.7,0,0,0-.813.717l-3.858,6.682L68.7,39.73a1.7,1.7,0,0,0-.954-.769A13.286,13.286,0,0,1,58.475,26.262Z"/>
        <path id="Trazado_121302" data-name="Trazado 121302" d="M31.606,41.457H45.949a1.7,1.7,0,1,0,0-3.4H31.606a1.7,1.7,0,1,0,0,3.4Z"/>
        <path id="Trazado_121303" data-name="Trazado 121303" d="M31.606,47.8H45.949a1.7,1.7,0,1,0,0-3.4H31.606a1.7,1.7,0,1,0,0,3.4Z"/>
        <path id="Trazado_121304" data-name="Trazado 121304" d="M31.606,60.342H85.659a1.7,1.7,0,1,0,0-3.4H31.606a1.7,1.7,0,1,0,0,3.4Z"/>
        <path id="Trazado_121305" data-name="Trazado 121305" d="M31.606,66.683H85.659a1.7,1.7,0,1,0,0-3.4H31.606a1.7,1.7,0,0,0,0,3.4Z"/>
        <path id="Trazado_121306" data-name="Trazado 121306" d="M31.606,76.839h43.8a1.7,1.7,0,1,0,0-3.4h-43.8a1.7,1.7,0,0,0,0,3.4Z"/>
        <path id="Trazado_121307" data-name="Trazado 121307" d="M31.606,83.181H85.659a1.7,1.7,0,1,0,0-3.4H31.606a1.7,1.7,0,0,0,0,3.4Z"/>
        <path id="Trazado_121308" data-name="Trazado 121308" d="M31.606,93.336H85.659a1.7,1.7,0,1,0,0-3.4H31.606a1.7,1.7,0,1,0,0,3.4Z"/>
        <path id="Trazado_121309" data-name="Trazado 121309" d="M31.606,99.678H59.49a1.7,1.7,0,0,0,0-3.4H31.606a1.7,1.7,0,1,0,0,3.4Z"/>
      </g>
    </g>
  </g>
</svg>
