<svg xmlns="http://www.w3.org/2000/svg" width="295.001" height="248.887" viewBox="0 0 295.001 248.887">
  <g id="Grupo_80138" data-name="Grupo 80138" transform="translate(-1034.516 -635.004)">
    <path id="Trazado_113531" data-name="Trazado 113531" d="M1366.76,875.151V863.663a9.445,9.445,0,0,1,9.444-9.447h100.557a9.447,9.447,0,0,1,9.447,9.447v203.082H1226.1V875.151Z" transform="translate(-160.381 -183.512)" fill="#fff"/>
    <path id="Trazado_113532" data-name="Trazado 113532" d="M1361.629,875.151V863.663a9.445,9.445,0,0,1,9.444-9.447H1471.63a9.447,9.447,0,0,1,9.447,9.447v203.082h-260.11V875.151Z" transform="translate(-156.086 -183.512)" fill="#40327b"/>
    <path id="Trazado_113533" data-name="Trazado 113533" d="M1526.048,1026.875v183.656H1285.094V1025.973Z" transform="translate(-209.77 -327.298)" fill="#ab9df1"/>
    <path id="Trazado_113534" data-name="Trazado 113534" d="M1444.814,1026.875v183.656H1203.86V1025.973Z" transform="translate(-141.766 -327.298)" fill="#826be9"/>
    <path id="Trazado_113535" data-name="Trazado 113535" d="M1079.588,982.777h238.045a9.042,9.042,0,0,1,9.186,7.878V1174.37h-259.8V995.316C1066.958,988.718,1072.913,982.777,1079.588,982.777Z" transform="translate(-27.207 -291.137)" fill="#d5cef8"/>
    <g id="Grupo_80123" data-name="Grupo 80123" transform="translate(1139.698 654.105)">
      <g id="Grupo_80122" data-name="Grupo 80122" transform="translate(0 0)">
        <rect id="Rectángulo_33785" data-name="Rectángulo 33785" width="139.129" height="105.735" transform="translate(139.129 106.124) rotate(-179.84)" fill="#d5cef8"/>
        <rect id="Rectángulo_33786" data-name="Rectángulo 33786" width="132.013" height="97.203" transform="translate(135.656 101.033) rotate(-179.84)" fill="#583ae2"/>
        <path id="Trazado_113536" data-name="Trazado 113536" d="M2008.954,1094.612l-84.835-.238,46.385-44.5Z" transform="translate(-1884.425 -1001.412)" fill="#e3eeff"/>
        <path id="Trazado_113537" data-name="Trazado 113537" d="M1841.761,1133.838l-71.281-.2,38.679-36.778Z" transform="translate(-1755.808 -1040.747)" fill="#e3eeff"/>
        <circle id="Elipse_4721" data-name="Elipse 4721" cx="9.825" cy="9.825" r="9.825" transform="translate(45.688 38.564) rotate(-45)" fill="#e3eeff"/>
      </g>
    </g>
    <g id="Grupo_80126" data-name="Grupo 80126" transform="translate(1121.166 635.004)">
      <g id="Grupo_80124" data-name="Grupo 80124" transform="translate(0 0)">
        <rect id="Rectángulo_33787" data-name="Rectángulo 33787" width="128.984" height="112.17" transform="matrix(-1, -0.003, 0.003, -1, 128.983, 112.583)" fill="#d5cef8"/>
        <rect id="Rectángulo_33788" data-name="Rectángulo 33788" width="121.659" height="103.119" transform="translate(125.41 107.182) rotate(-179.815)" fill="#583ae2"/>
      </g>
      <g id="Grupo_80125" data-name="Grupo 80125" transform="translate(15.215 18.299)">
        <rect id="Rectángulo_33789" data-name="Rectángulo 33789" width="48.453" height="4.257" transform="translate(50.125)" fill="#d5cef8"/>
        <rect id="Rectángulo_33790" data-name="Rectángulo 33790" width="98.578" height="4.257" transform="translate(98.578 15.752) rotate(180)" fill="#d5cef8"/>
        <rect id="Rectángulo_33791" data-name="Rectángulo 33791" width="98.578" height="4.257" transform="translate(98.578 27.456) rotate(180)" fill="#d5cef8"/>
      </g>
    </g>
    <path id="Trazado_113538" data-name="Trazado 113538" d="M1072.55,982.777h238.045a9.042,9.042,0,0,1,9.187,7.878v184.373h-259.8V995.316C1059.919,988.718,1065.875,982.777,1072.55,982.777Z" transform="translate(-21.315 -291.137)" fill="#40327b"/>
    <rect id="Rectángulo_33792" data-name="Rectángulo 33792" width="26.214" height="1.056" transform="translate(1325.826 883.233) rotate(180)" fill="#fff"/>
    <path id="Trazado_113539" data-name="Trazado 113539" d="M1353.034,1459.925l-9.549,6.23h-12.616l-4.049,3.115v-2.959h-259.8v-6.386Z" transform="translate(-27.208 -690.58)" opacity="0.5" style="mix-blend-mode: darken;isolation: isolate"/>
    <g id="Grupo_80128" data-name="Grupo 80128" transform="translate(1034.516 738.864)">
      <g id="Grupo_80127" data-name="Grupo 80127" transform="translate(0)">
        <rect id="Rectángulo_33793" data-name="Rectángulo 33793" width="295.001" height="33.332" transform="translate(295.001 33.332) rotate(180)" fill="#826be9"/>
        <rect id="Rectángulo_33794" data-name="Rectángulo 33794" width="268.444" height="33.332" transform="translate(268.444 33.332) rotate(180)" fill="#583ae2"/>
      </g>
    </g>
    <g id="Grupo_80137" data-name="Grupo 80137" transform="translate(1178.334 738.658)">
      <path id="Trazado_113540" data-name="Trazado 113540" d="M2107.295,1272.754v33.32H2083.97l16.354-33.32Z" transform="translate(-2056.881 -1272.548)" fill="#372a6b"/>
      <g id="Grupo_80133" data-name="Grupo 80133" transform="translate(42.352 0)">
        <g id="Grupo_80130" data-name="Grupo 80130" transform="translate(0 0.217)">
          <path id="Trazado_113541" data-name="Trazado 113541" d="M2177.7,1289.441a29.606,29.606,0,0,0,2.16,11.787c1.321,3.074,3.159,4.9,5.189,4.9h6.194v-33.309h-6.194C2180.983,1272.823,2177.7,1280.29,2177.7,1289.441Zm5.866,5.49c-1.16-.366-2.062-2.634-2.062-5.49,0-2.781.9-5.051,2.062-5.417,1.161.366,2.063,2.636,2.063,5.417C2185.625,1292.3,2184.722,1294.565,2183.562,1294.931Z" transform="translate(-2177.695 -1272.823)" fill="#583ae2"/>
          <g id="Grupo_80129" data-name="Grupo 80129" transform="translate(3.156)">
            <path id="Trazado_113542" data-name="Trazado 113542" d="M2197.072,1289.441a28.481,28.481,0,0,0,2.259,11.787c1.383,3.074,3.305,4.9,5.43,4.9h2.7v-33.309h-2.7C2200.512,1272.823,2197.072,1280.29,2197.072,1289.441Zm2.969,0c0-2.781,1.753-5.051,2.967-5.417,1.214.366,2.159,2.636,2.159,5.417,0,2.856-.944,5.124-2.159,5.49C2201.794,1294.565,2200.041,1292.3,2200.041,1289.441Z" transform="translate(-2197.072 -1272.823)" fill="#3f9ee6"/>
          </g>
        </g>
        <g id="Grupo_80132" data-name="Grupo 80132" transform="translate(2.948)">
          <path id="Trazado_113543" data-name="Trazado 113543" d="M2195.918,1289.441a29.611,29.611,0,0,0,2.16,11.787c1.321,3.074,3.159,4.9,5.189,4.9h6.194v-33.309h-6.194C2199.206,1272.823,2195.918,1280.29,2195.918,1289.441Zm5.866,5.49c-1.16-.366-2.062-2.634-2.062-5.49,0-2.781.9-5.051,2.063-5.417,1.161.366,2.063,2.636,2.063,5.417C2203.848,1292.3,2202.945,1294.565,2201.784,1294.931Z" transform="translate(-2195.898 -1272.606)" fill="#583ae2"/>
          <g id="Grupo_80131" data-name="Grupo 80131" transform="translate(3.175 0.217)">
            <path id="Trazado_113544" data-name="Trazado 113544" d="M2215.295,1289.441a28.481,28.481,0,0,0,2.259,11.787c1.383,3.074,3.3,4.9,5.43,4.9h2.7v-33.309h-2.7C2218.735,1272.823,2215.295,1280.29,2215.295,1289.441Zm2.968,0c0-2.781.944-5.051,2.158-5.417,1.214.366,2.159,2.636,2.159,5.417,0,2.856-.945,5.124-2.159,5.49C2219.208,1294.565,2218.263,1292.3,2218.263,1289.441Z" transform="translate(-2215.295 -1272.823)" fill="#826be9"/>
          </g>
          <path id="Trazado_113545" data-name="Trazado 113545" d="M2203.135,1305.235a5.118,5.118,0,0,1-3.369-1.6c-1.811-1.74-3.971-5.668-3.971-14.507,0-8.42,1.969-12.755,3.621-14.909a6.665,6.665,0,0,1,3.711-2.722.217.217,0,0,1,.074.427h0a6.414,6.414,0,0,0-3.47,2.6c-1.6,2.1-3.5,6.345-3.5,14.607,0,8.666,2.078,12.493,3.821,14.178a4.7,4.7,0,0,0,3.106,1.5.217.217,0,0,1,.017.433Z" transform="translate(-2195.796 -1271.493)" fill="#40327b"/>
        </g>
      </g>
      <g id="Grupo_80134" data-name="Grupo 80134" transform="translate(8.127 11.791)">
        <path id="Trazado_113546" data-name="Trazado 113546" d="M2235.883,1356.417c.293.073.511.146.8.22-.073.073-.073.073,0,.073a28.569,28.569,0,0,1,20.5,27.305v27.826h9.371v-27.826a37.9,37.9,0,0,0-29.575-36.9,5.985,5.985,0,0,0-1.1-.291C2233.173,1346.242,2232.953,1355.979,2235.883,1356.417Z" transform="translate(-2190.41 -1346.33)" fill="#e6e6e6"/>
        <path id="Trazado_113547" data-name="Trazado 113547" d="M2001.913,1343.9v9.318a28.768,28.768,0,0,0-24.424,22.226,3.1,3.1,0,0,0-.147.731,17.092,17.092,0,0,0-.293,1.9,28.286,28.286,0,0,0-.22,3.514v27.826h-9.3V1381.59A38.009,38.009,0,0,1,2001.913,1343.9Z" transform="translate(-1967.532 -1343.897)" fill="#e6e6e6"/>
        <path id="Trazado_113548" data-name="Trazado 113548" d="M2238.79,1387.588c21.972,3.853,24.8,27.775,24.8,27.775v30.4h-3.3v-27.826a28.663,28.663,0,0,0-21.282-27.586c-.934-.3-1.515-3.035-1.515-3.035S2238.076,1387.451,2238.79,1387.588Z" transform="translate(-2193.533 -1380.249)" fill="#999"/>
        <path id="Trazado_113549" data-name="Trazado 113549" d="M2053.1,1388.958v1.98a28.768,28.768,0,0,0-24.424,22.226C2029.2,1406.329,2034.864,1391.392,2053.1,1388.958Z" transform="translate(-2018.714 -1381.62)" fill="gray"/>
        <path id="Trazado_113550" data-name="Trazado 113550" d="M2235.883,1356.417c.293.073.511.146.8.22a9.866,9.866,0,0,1-1.557-4.7c-.147-2.856.823-4.787,1.85-4.82a5.985,5.985,0,0,0-1.1-.291C2233.173,1346.242,2232.953,1355.979,2235.883,1356.417Z" transform="translate(-2190.41 -1346.33)" fill="#666"/>
      </g>
      <g id="Grupo_80136" data-name="Grupo 80136" transform="translate(0 69.716)">
        <rect id="Rectángulo_33795" data-name="Rectángulo 33795" width="92.312" height="75.459" transform="translate(0)" fill="#2ff980"/>
        <g id="Grupo_80135" data-name="Grupo 80135" transform="translate(35.246 18.566)">
          <path id="Trazado_113551" data-name="Trazado 113551" d="M2146.356,1813.666a3.541,3.541,0,0,0-.879-.074,11.427,11.427,0,0,0-11.42,11.455,11.608,11.608,0,0,0,6.736,10.493v19.435a4.74,4.74,0,0,0,4.684,4.731,2.474,2.474,0,0,0,.733-.074h.218a4.751,4.751,0,0,0,3.735-4.657V1835.54a11.527,11.527,0,0,0,6.734-10.493A11.354,11.354,0,0,0,2146.356,1813.666Z" transform="translate(-2134.056 -1813.592)" fill="#0dd25c"/>
          <path id="Trazado_113552" data-name="Trazado 113552" d="M2155.01,1814.046a11.365,11.365,0,0,0-10.616,11.381,11.607,11.607,0,0,0,6.736,10.493v19.435a4.749,4.749,0,0,0,3.734,4.657h.218a4.751,4.751,0,0,0,3.735-4.657V1835.92a11.528,11.528,0,0,0,6.734-10.493A11.354,11.354,0,0,0,2155.01,1814.046Z" transform="translate(-2142.71 -1813.972)" fill="#0c9442"/>
        </g>
        <path id="Trazado_113553" data-name="Trazado 113553" d="M1946.923,1775.045H1917.63v-75.459h8.127S1923.6,1755.264,1946.923,1775.045Z" transform="translate(-1917.63 -1699.586)" fill="#0dd25c"/>
        <path id="Trazado_113554" data-name="Trazado 113554" d="M2362.772,1775.045c7-14.97,5.692-55.216,5.692-75.459h9.3v75.459Z" transform="translate(-2290.279 -1699.586)" fill="#7af9ad"/>
      </g>
    </g>
  </g>
</svg>
