<svg xmlns="http://www.w3.org/2000/svg" xmlns:xlink="http://www.w3.org/1999/xlink" width="67" height="72" viewBox="0 0 67 72">
  <defs>
    <clipPath id="clip-path">
      <rect id="Rect치ngulo_34190" data-name="Rect치ngulo 34190" width="55" height="55" transform="translate(-9417 -3516)" fill="#2ff980"/>
    </clipPath>
  </defs>
  <g id="Grupo_81325" data-name="Grupo 81325" transform="translate(9423 3522)">
    <rect id="Rect치ngulo_34191" data-name="Rect치ngulo 34191" width="67" height="72" rx="5" transform="translate(-9423 -3522)" fill="#fff"/>
    <g id="Enmascarar_grupo_100" data-name="Enmascarar grupo 100" transform="translate(0 3)" clip-path="url(#clip-path)">
      <g id="ip_2_" data-name="ip (2)" transform="translate(-9416.986 -3516)">
        <path id="Trazado_115124" data-name="Trazado 115124" d="M20.017,44.325H36.957V52.6H20.017Zm0,0" fill="#304c56"/>
        <path id="Trazado_115125" data-name="Trazado 115125" d="M46.354,5.375H8.619a7.8,7.8,0,0,0-7.8,7.8V38.966a7.8,7.8,0,0,0,7.8,7.8H46.354a7.8,7.8,0,0,0,7.8-7.8V13.176a7.8,7.8,0,0,0-7.8-7.8Zm0,0" fill="#4b6570"/>
        <path id="Trazado_115126" data-name="Trazado 115126" d="M11.31,46.767H8.618a7.8,7.8,0,0,1-7.8-7.8V13.176a7.8,7.8,0,0,1,7.8-7.8H11.31a7.8,7.8,0,0,0-7.8,7.8v25.79A7.8,7.8,0,0,0,11.31,46.767Zm0,0" fill="#304c56"/>
        <path id="Trazado_115127" data-name="Trazado 115127" d="M38.418,54.184H18.557a1.478,1.478,0,0,1-.706-2.777l2.166-1.177H36.957l2.166,1.177a1.478,1.478,0,0,1-.705,2.777Zm0,0" fill="#4b6570"/>
        <path id="Trazado_115128" data-name="Trazado 115128" d="M4.081,34.5V12.853A4.213,4.213,0,0,1,8.294,8.641H46.676a4.213,4.213,0,0,1,4.213,4.213V34.5a4.213,4.213,0,0,1-4.213,4.213H8.294A4.213,4.213,0,0,1,4.081,34.5Zm0,0" fill="#efe1f9"/>
        <path id="Trazado_115129" data-name="Trazado 115129" d="M40.126,13c-.4-16.248-24.88-16.248-25.281,0q-.006.273-.007.546A21.745,21.745,0,0,0,27.485,33.3,21.745,21.745,0,0,0,40.132,13.549q0-.274-.007-.546Zm0,0" fill="#ff557e"/>
        <path id="Trazado_115130" data-name="Trazado 115130" d="M36.623,13.355a9.137,9.137,0,1,1-9.138-9.138A9.137,9.137,0,0,1,36.623,13.355Zm0,0" fill="#fff"/>
        <path id="Trazado_115131" data-name="Trazado 115131" d="M46.354,4.558H37.905A12.2,12.2,0,0,0,36.6,3.244,13.909,13.909,0,0,0,27.486,0h0a13.911,13.911,0,0,0-9.11,3.244,12.237,12.237,0,0,0-1.309,1.313H8.618A8.628,8.628,0,0,0,0,13.176v25.79a8.628,8.628,0,0,0,8.618,8.618H19.2v2.161l-1.739.945A2.295,2.295,0,0,0,18.556,55h19.86a2.295,2.295,0,0,0,1.1-4.311l-1.739-.945V47.584h8.58a8.628,8.628,0,0,0,8.618-8.618V13.176a8.628,8.628,0,0,0-8.618-8.618Zm-7.3,48.31a.637.637,0,0,1-.642.5H18.556a.662.662,0,0,1-.316-1.243l1.983-1.078H36.75l1.983,1.078A.636.636,0,0,1,39.058,52.868Zm-2.918-3.531H20.832V47.584H36.141Zm17.2-10.372a6.993,6.993,0,0,1-6.985,6.985H8.618a6.993,6.993,0,0,1-6.985-6.985V13.176A6.993,6.993,0,0,1,8.618,6.191h7.273a12.351,12.351,0,0,0-.821,1.633H8.295a5.035,5.035,0,0,0-5.029,5.029V34.5a5.035,5.035,0,0,0,5.029,5.029H46.676a5.036,5.036,0,0,0,5.03-5.03V21.153a.816.816,0,1,0-1.633,0V34.5a3.4,3.4,0,0,1-3.4,3.4H8.295a3.4,3.4,0,0,1-3.4-3.4V12.853a3.4,3.4,0,0,1,3.4-3.4H14.52a15.132,15.132,0,0,0-.491,3.527c0,.187-.008.377-.008.565a22.352,22.352,0,0,0,2.062,9.431.816.816,0,0,0,1.483-.684,20.734,20.734,0,0,1-1.912-8.748c0-.175,0-.351.008-.525a11.266,11.266,0,0,1,3.779-8.542,12.279,12.279,0,0,1,8.045-2.849,12.279,12.279,0,0,1,8.044,2.849,11.267,11.267,0,0,1,3.779,8.541c0,.174.006.35.006.525A20.927,20.927,0,0,1,27.486,32.4a20.962,20.962,0,0,1-8.4-7.366.816.816,0,1,0-1.364.9,22.588,22.588,0,0,0,9.422,8.113.81.81,0,0,0,.342.075.818.818,0,0,0,.342-.075A22.56,22.56,0,0,0,40.949,13.549c0-.188,0-.378-.007-.566a15.126,15.126,0,0,0-.491-3.526h6.225a3.4,3.4,0,0,1,3.4,3.4v5.035a.817.817,0,0,0,1.633,0V12.853a5.035,5.035,0,0,0-5.03-5.029H39.9a12.3,12.3,0,0,0-.821-1.633h7.273a6.993,6.993,0,0,1,6.985,6.985v25.79Zm0,0"/>
        <path id="Trazado_115132" data-name="Trazado 115132" d="M27.485,23.308a9.954,9.954,0,1,0-9.953-9.954A9.965,9.965,0,0,0,27.485,23.308Zm0-18.275a8.321,8.321,0,1,1-8.321,8.321A8.33,8.33,0,0,1,27.485,5.034Zm0,0"/>
        <path id="Trazado_115133" data-name="Trazado 115133" d="M24.3,17.786a1.285,1.285,0,0,0,1.146,0,.448.448,0,0,0,.276-.414V9.325a.432.432,0,0,0-.277-.415,1.406,1.406,0,0,0-1.143,0,.433.433,0,0,0-.271.415v8.047A.448.448,0,0,0,24.3,17.786Zm0,0"/>
        <path id="Trazado_115134" data-name="Trazado 115134" d="M27.4,17.786a1.285,1.285,0,0,0,1.146,0,.448.448,0,0,0,.276-.414V14.541h1.346a4.107,4.107,0,0,0,1.15-.157,2.557,2.557,0,0,0,.944-.5,2.3,2.3,0,0,0,.63-.882,3.428,3.428,0,0,0,.226-1.316v-.074a3.48,3.48,0,0,0-.219-1.3,2.307,2.307,0,0,0-.611-.882,2.393,2.393,0,0,0-.907-.491,3.979,3.979,0,0,0-1.114-.15H27.775a.674.674,0,0,0-.473.159.5.5,0,0,0-.174.377v8.047a.449.449,0,0,0,.27.414Zm1.422-4.59V10.282h1.346a1.256,1.256,0,0,1,.924.334,1.439,1.439,0,0,1,.334,1.048v.149a1.439,1.439,0,0,1-.334,1.049,1.255,1.255,0,0,1-.924.334Zm0,0"/>
      </g>
    </g>
  </g>
</svg>
