<svg xmlns="http://www.w3.org/2000/svg" xmlns:xlink="http://www.w3.org/1999/xlink" width="67" height="73" viewBox="0 0 67 73">
  <defs>
    <clipPath id="clip-path">
      <rect id="Rect치ngulo_34196" data-name="Rect치ngulo 34196" width="55" height="55" transform="translate(-9417 -3097)" fill="#2ff980"/>
    </clipPath>
  </defs>
  <g id="Grupo_83836" data-name="Grupo 83836" transform="translate(9427 3141)">
    <rect id="Rect치ngulo_34386" data-name="Rect치ngulo 34386" width="67" height="73" rx="5" transform="translate(-9427 -3141)" fill="#fff"/>
    <g id="Enmascarar_grupo_102" data-name="Enmascarar grupo 102" transform="translate(-4 -35)" clip-path="url(#clip-path)">
      <g id="ip_4_" data-name="ip (4)" transform="translate(-9417 -3097)">
        <path id="Trazado_115135" data-name="Trazado 115135" d="M51.346,42.516H3.654A2.848,2.848,0,0,1,.806,39.668V35.842H54.194v3.825a2.848,2.848,0,0,1-2.848,2.848Z" fill="#e9f1ff"/>
        <path id="Trazado_115136" data-name="Trazado 115136" d="M6.177,39.668V35.842H.806v3.825a2.848,2.848,0,0,0,2.848,2.848H9.025a2.848,2.848,0,0,1-2.848-2.848Z" fill="#d7e4f7"/>
        <path id="Trazado_115137" data-name="Trazado 115137" d="M50.858,35.842H4.143V5.322A2.848,2.848,0,0,1,6.991,2.474H48.01a2.848,2.848,0,0,1,2.848,2.848v30.52Z" fill="#3e4f55"/>
        <path id="Trazado_115138" data-name="Trazado 115138" d="M10.348,3.309a2.848,2.848,0,0,1,2.014-.834H6.991A2.848,2.848,0,0,0,4.143,5.322v30.52H9.514V5.322a2.848,2.848,0,0,1,.834-2.014Z" fill="#303d42"/>
        <path id="Trazado_115139" data-name="Trazado 115139" d="M7.479,5.811H47.521V32.505H7.479Z" fill="#77d4f5"/>
        <path id="Trazado_115140" data-name="Trazado 115140" d="M7.479,5.811H9.514V32.505H7.479Z" fill="#68b3f3"/>
        <path id="Trazado_115141" data-name="Trazado 115141" d="M27.5,9.121a8.1,8.1,0,0,0-8.1,8.1c0,5.4,8.1,11.974,8.1,11.974s8.1-6.573,8.1-11.974a8.1,8.1,0,0,0-8.1-8.1Zm0,12.677a4.576,4.576,0,1,1,4.576-4.576A4.576,4.576,0,0,1,27.5,21.8Z" fill="#ff5576"/>
        <path id="Trazado_115142" data-name="Trazado 115142" d="M22.621,17.222a8.1,8.1,0,0,1,6.49-7.941A8.109,8.109,0,0,0,19.4,17.222c0,5.4,8.1,11.974,8.1,11.974s.664-.539,1.611-1.434c-2.363-2.233-6.49-6.685-6.49-10.54Z" fill="#ef0766"/>
        <path id="Trazado_115143" data-name="Trazado 115143" d="M35.842,35.842H19.158v1.725a1.611,1.611,0,0,0,1.611,1.611H34.231a1.611,1.611,0,0,0,1.611-1.611V35.842Z" fill="#d7e4f7"/>
        <path id="Trazado_115144" data-name="Trazado 115144" d="M22.381,37.568V35.842H19.158v1.725a1.611,1.611,0,0,0,1.611,1.611h3.223A1.611,1.611,0,0,1,22.381,37.568Z" fill="#bed2ee"/>
        <path id="Trazado_115145" data-name="Trazado 115145" d="M49.189,25.832H39.179l-5.005,3.337v9.469a14.64,14.64,0,0,0,10.01,13.889,14.64,14.64,0,0,0,10.01-13.889V29.169Z" fill="#e9f1ff"/>
        <path id="Trazado_115146" data-name="Trazado 115146" d="M39.545,38.638V29.169l5.005-3.337H39.179l-5.005,3.337v9.469a14.64,14.64,0,0,0,10.01,13.889A14.658,14.658,0,0,0,46.87,51.32,14.642,14.642,0,0,1,39.545,38.638Z" fill="#d7e4f7"/>
        <path id="Trazado_115147" data-name="Trazado 115147" d="M44.184,48.922a11.261,11.261,0,0,1-6.648-10.284V30.968L40.2,29.194h7.974l2.661,1.774v7.669a11.262,11.262,0,0,1-6.648,10.284Z" fill="#82d65f"/>
        <path id="Trazado_115148" data-name="Trazado 115148" d="M39.545,29.629l-2.009,1.339v7.669a11.262,11.262,0,0,0,5.853,9.889,14.631,14.631,0,0,1-3.845-9.889Z" fill="#77bf51"/>
        <g id="Grupo_81230" data-name="Grupo 81230">
          <path id="Trazado_115149" data-name="Trazado 115149" d="M27.5,22.6a5.381,5.381,0,1,0-5.381-5.381A5.387,5.387,0,0,0,27.5,22.6Zm0-9.151a3.77,3.77,0,1,1-3.77,3.77,3.774,3.774,0,0,1,3.77-3.77Z"/>
          <path id="Trazado_115150" data-name="Trazado 115150" d="M18.593,17.222c0,5.719,8.057,12.321,8.4,12.6a.806.806,0,0,0,1.015,0c.343-.278,8.4-6.88,8.4-12.6a8.907,8.907,0,1,0-17.814,0Zm8.907-7.3a7.3,7.3,0,0,1,7.3,7.3c0,4.2-5.564,9.4-7.3,10.915-1.732-1.516-7.3-6.712-7.3-10.915a7.3,7.3,0,0,1,7.3-7.3Z"/>
          <path id="Trazado_115151" data-name="Trazado 115151" d="M54.641,28.5l-2.978-1.985V18.977a.806.806,0,1,0-1.611,0v6.462a1.651,1.651,0,0,0-.863-.413h-.863V5.812a.806.806,0,0,0-.806-.806H29.255a.806.806,0,0,0,0,1.611H46.715V25.026H39.179a.8.8,0,0,0-.447.135L33.727,28.5a.805.805,0,0,0-.359.67V31.7H8.285V6.617H25.745a.806.806,0,1,0,0-1.611H7.48a.806.806,0,0,0-.806.806V32.5a.806.806,0,0,0,.806.806H33.368v1.726H4.948V5.323A2.084,2.084,0,0,1,6.991,3.28H48.009a2.084,2.084,0,0,1,2.043,2.043V15.467a.806.806,0,1,0,1.611,0V5.323a3.69,3.69,0,0,0-3.655-3.655H6.991A3.688,3.688,0,0,0,3.336,5.323V35.037H.806A.806.806,0,0,0,0,35.843v3.825a3.688,3.688,0,0,0,3.655,3.654h8.437a.806.806,0,0,0,0-1.611H3.655a2.084,2.084,0,0,1-2.043-2.042v-3.02H18.352v.92a2.42,2.42,0,0,0,2.417,2.417H33.426a15.436,15.436,0,0,0,.248,1.725H15.6a.806.806,0,1,0,0,1.611h18.49a15.426,15.426,0,0,0,9.838,9.969.806.806,0,0,0,.51,0A15.426,15.426,0,0,0,55,38.638V29.169a.8.8,0,0,0-.359-.67ZM19.963,37.568v-.92h13.4v1.725h-12.6A.807.807,0,0,1,19.963,37.568Zm33.425,1.07a13.816,13.816,0,0,1-9.2,13.037,13.988,13.988,0,0,1-9.2-13.037V29.6l4.443-2.962h9.523L53.389,29.6v9.038Z"/>
          <path id="Trazado_115152" data-name="Trazado 115152" d="M48.618,28.524a.806.806,0,0,0-.447-.135H40.2a.8.8,0,0,0-.447.135L37.089,30.3a.805.805,0,0,0-.359.67v7.67a12.093,12.093,0,0,0,7.124,11.019.805.805,0,0,0,.66,0,12.093,12.093,0,0,0,7.124-11.019v-7.67a.805.805,0,0,0-.359-.67Zm1.408,10.114a10.481,10.481,0,0,1-5.842,9.394,10.482,10.482,0,0,1-5.842-9.394V31.4l2.1-1.4h7.486l2.1,1.4v7.238Z"/>
          <path id="Trazado_115153" data-name="Trazado 115153" d="M46.882,35.685,43.4,40.217l-1.981-1.981a.806.806,0,0,0-1.139,1.139l2.63,2.63a.806.806,0,0,0,1.208-.079l4.044-5.259a.806.806,0,1,0-1.277-.982Z"/>
        </g>
      </g>
    </g>
  </g>
</svg>
