<svg xmlns="http://www.w3.org/2000/svg" xmlns:xlink="http://www.w3.org/1999/xlink" width="67" height="72" viewBox="0 0 67 72">
  <defs>
    <clipPath id="clip-path">
      <rect id="Rect치ngulo_34196" data-name="Rect치ngulo 34196" width="55" height="55" transform="translate(-9417 -3097)" fill="#2ff980"/>
    </clipPath>
  </defs>
  <g id="Grupo_83839" data-name="Grupo 83839" transform="translate(8725 3141)">
    <g id="Grupo_83838" data-name="Grupo 83838">
      <rect id="Rect치ngulo_34393" data-name="Rect치ngulo 34393" width="67" height="72" rx="5" transform="translate(-8725 -3141)" fill="#fff"/>
      <g id="Enmascarar_grupo_104" data-name="Enmascarar grupo 104" transform="translate(698 -35)" clip-path="url(#clip-path)">
        <g id="lan" transform="translate(-9417 -3097)">
          <path id="Trazado_115154" data-name="Trazado 115154" d="M20.4,36.371A1.774,1.774,0,1,1,18.629,34.6,1.774,1.774,0,0,1,20.4,36.371Zm0,0" fill="#fcd770"/>
          <path id="Trazado_115155" data-name="Trazado 115155" d="M39.032,50.565h7.1v3.548h-7.1Zm0,0" fill="#838f9b"/>
          <path id="Trazado_115156" data-name="Trazado 115156" d="M8.871,22.177h7.1v3.548h-7.1Zm0,0" fill="#838f9b"/>
          <path id="Trazado_115157" data-name="Trazado 115157" d="M54.113,47.016V48.79a1.779,1.779,0,0,1-1.774,1.774H32.823a1.779,1.779,0,0,1-1.774-1.774V47.016Zm0,0" fill="#969faa"/>
          <path id="Trazado_115158" data-name="Trazado 115158" d="M23.952,18.629V20.4a1.779,1.779,0,0,1-1.774,1.774H2.661A1.779,1.779,0,0,1,.887,20.4V18.629Zm0,0" fill="#969faa"/>
          <g id="Grupo_81231" data-name="Grupo 81231">
            <path id="Trazado_115159" data-name="Trazado 115159" d="M54.113,36.371V47.016H31.048V36.371A1.779,1.779,0,0,1,32.823,34.6H52.339A1.779,1.779,0,0,1,54.113,36.371Zm0,0" fill="#69d6f4"/>
            <path id="Trazado_115160" data-name="Trazado 115160" d="M23.952,7.984V18.629H.887V7.984A1.779,1.779,0,0,1,2.661,6.21H22.177A1.779,1.779,0,0,1,23.952,7.984Zm0,0" fill="#69d6f4"/>
            <path id="Trazado_115161" data-name="Trazado 115161" d="M53.723,17.352h.009a13.2,13.2,0,0,1-3.175,5.89l-.009-.009a6.124,6.124,0,0,0-2.44-4.675,4.076,4.076,0,0,0-4.905.009A4,4,0,0,0,41.738,20.7a24.031,24.031,0,0,0-.931,6.635V27.5a13.147,13.147,0,0,1-4.772-.887l.009-.009a3.523,3.523,0,0,0,1.215-2.653V21.086a2.77,2.77,0,0,0-1.348-2.378l-1.011-.6a4.284,4.284,0,0,1,.612-7.647,2.785,2.785,0,0,0,1.748-2.582,9.531,9.531,0,0,0-1.97-5.784A13.04,13.04,0,0,1,40.806.887V2.954a4.41,4.41,0,0,0,1.97,3.681l1.383.923a4.41,4.41,0,0,1,1.97,3.681,4.438,4.438,0,0,0,2.723,4.089Zm0,0" fill="#69d6f4"/>
          </g>
          <path id="Trazado_115162" data-name="Trazado 115162" d="M48.107,18.558a6.124,6.124,0,0,1,2.44,4.675l.009.009A13.273,13.273,0,0,1,40.806,27.5v-.168a24.031,24.031,0,0,1,.931-6.635A4,4,0,0,1,43.2,18.567a4.076,4.076,0,0,1,4.905-.009Zm0,0" fill="#b4dd7f"/>
          <path id="Trazado_115163" data-name="Trazado 115163" d="M54.113,14.194a13.2,13.2,0,0,1-.382,3.158h-.009l-4.87-2.023a4.438,4.438,0,0,1-2.723-4.089,4.41,4.41,0,0,0-1.97-3.681l-1.383-.923a4.41,4.41,0,0,1-1.97-3.681V.887A13.312,13.312,0,0,1,54.113,14.194Zm0,0" fill="#b4dd7f"/>
          <path id="Trazado_115164" data-name="Trazado 115164" d="M37.258,21.086v2.865A3.523,3.523,0,0,1,36.043,26.6l-.009.009a13.3,13.3,0,0,1-.745-24.519,9.531,9.531,0,0,1,1.97,5.784,2.785,2.785,0,0,1-1.748,2.582,4.284,4.284,0,0,0-.612,7.647l1.011.6a2.77,2.77,0,0,1,1.348,2.378Zm0,0" fill="#b4dd7f"/>
          <path id="Trazado_115165" data-name="Trazado 115165" d="M52.339,33.71H43.468V28.128A14.19,14.19,0,0,0,40.806,0H11.532V5.323H2.661A2.665,2.665,0,0,0,0,7.984V20.4a2.665,2.665,0,0,0,2.661,2.661H7.984v1.774H6.21v1.774H18.629V24.839H16.855V23.065h5.323A2.665,2.665,0,0,0,24.839,20.4V7.984a2.665,2.665,0,0,0-2.661-2.661H13.306V1.774H33.95a14.188,14.188,0,0,0,6.856,26.613c.3,0,.593-.026.887-.045V33.71H32.823a2.665,2.665,0,0,0-2.661,2.661V48.79a2.665,2.665,0,0,0,2.661,2.661h5.323v1.774H36.371V55H48.79V53.226H47.016V51.452h5.323A2.665,2.665,0,0,0,55,48.79V36.371a2.665,2.665,0,0,0-2.661-2.661ZM15.081,24.839H9.758V23.065h5.323Zm7.1-3.548H2.661a.888.888,0,0,1-.887-.887v-.887h21.29V20.4A.888.888,0,0,1,22.177,21.29Zm.887-13.306v9.758H1.774V7.984A.888.888,0,0,1,2.661,7.1H22.177A.888.888,0,0,1,23.065,7.984Zm13.3,9.963-1.01-.606a3.394,3.394,0,0,1,.485-6.062,3.644,3.644,0,0,0,2.3-3.4,10.434,10.434,0,0,0-1.513-5.368,12.331,12.331,0,0,1,3.287-.692V2.952a5.3,5.3,0,0,0,2.367,4.423l1.379.918a3.536,3.536,0,0,1,1.577,2.948,5.3,5.3,0,0,0,3.272,4.907l4.154,1.73A12.385,12.385,0,0,1,51.055,21.2a6.983,6.983,0,0,0-2.419-3.348,4.966,4.966,0,0,0-7.753,2.609,25,25,0,0,0-.937,6.113,12.294,12.294,0,0,1-2.4-.406,4.385,4.385,0,0,0,.6-2.212V21.087a3.684,3.684,0,0,0-1.778-3.14Zm5.352,8.62a23.288,23.288,0,0,1,.868-5.624,3.191,3.191,0,0,1,4.983-1.676A5.225,5.225,0,0,1,49.63,22.92,12.38,12.38,0,0,1,41.72,26.567ZM53.226,14.194a12.432,12.432,0,0,1-.165,1.927L49.2,14.51a3.532,3.532,0,0,1-2.18-3.269,5.3,5.3,0,0,0-2.367-4.423L43.271,5.9a3.534,3.534,0,0,1-1.577-2.947V1.819A12.426,12.426,0,0,1,53.226,14.194Zm-24.839,0A12.429,12.429,0,0,1,35,3.224a8.664,8.664,0,0,1,1.375,4.655,1.878,1.878,0,0,1-1.187,1.753,5.146,5.146,0,0,0-3.249,4.8,5.2,5.2,0,0,0,2.51,4.432l1.009.606a1.9,1.9,0,0,1,.917,1.618v2.864a2.589,2.589,0,0,1-.558,1.6,12.431,12.431,0,0,1-7.426-11.363Zm4.435,21.29H52.339a.888.888,0,0,1,.887.887v9.758H31.936V36.371A.888.888,0,0,1,32.823,35.484ZM45.242,53.226H39.919V51.452h5.323Zm7.1-3.548H32.823a.888.888,0,0,1-.887-.887V47.9h21.29v.887A.888.888,0,0,1,52.339,49.677Zm0,0"/>
          <path id="Trazado_115166" data-name="Trazado 115166" d="M21.29,36.371a2.661,2.661,0,1,0-2.661,2.661A2.665,2.665,0,0,0,21.29,36.371Zm-3.548,0a.887.887,0,1,1,.887.887A.888.888,0,0,1,17.742,36.371Zm0,0"/>
          <path id="Trazado_115167" data-name="Trazado 115167" d="M14.238,31.98a6.21,6.21,0,1,0,8.783,8.781l-1.254-1.254a4.436,4.436,0,0,1-6.274-6.272Zm0,0"/>
          <path id="Trazado_115168" data-name="Trazado 115168" d="M12.984,42.016a7.994,7.994,0,0,1,0-11.292L11.729,29.47a9.758,9.758,0,0,0,13.8,13.8l-1.254-1.254a7.992,7.992,0,0,1-11.291,0Zm0,0"/>
        </g>
      </g>
    </g>
  </g>
</svg>
