<svg xmlns="http://www.w3.org/2000/svg" xmlns:xlink="http://www.w3.org/1999/xlink" width="67" height="72" viewBox="0 0 67 72">
  <defs>
    <clipPath id="clip-path">
      <rect id="Rect치ngulo_34198" data-name="Rect치ngulo 34198" width="55" height="55" transform="translate(-8892 -3097)" fill="#2ff980"/>
    </clipPath>
  </defs>
  <g id="Grupo_83844" data-name="Grupo 83844" transform="translate(9076 2499)">
    <rect id="Rect치ngulo_34401" data-name="Rect치ngulo 34401" width="67" height="72" rx="5" transform="translate(-9076 -2499)" fill="#fff"/>
    <g id="Enmascarar_grupo_109" data-name="Enmascarar grupo 109" transform="translate(-178 606)" clip-path="url(#clip-path)">
      <g id="el-intercambio-de-datos" transform="translate(-8892 -3097)">
        <g id="Grupo_81291" data-name="Grupo 81291">
          <g id="Grupo_81286" data-name="Grupo 81286">
            <circle id="Elipse_4846" data-name="Elipse 4846" cx="1.774" cy="1.774" r="1.774" transform="translate(38.145 6.21)" fill="#b4dd7f"/>
          </g>
          <g id="Grupo_81287" data-name="Grupo 81287">
            <circle id="Elipse_4847" data-name="Elipse 4847" cx="1.774" cy="1.774" r="1.774" transform="translate(13.306 45.242)" fill="#ef7385"/>
          </g>
          <g id="Grupo_81288" data-name="Grupo 81288">
            <path id="Trazado_115234" data-name="Trazado 115234" d="M34.6,47.016V37.693a12.44,12.44,0,0,0,5.2-8.419H53.226a.89.89,0,0,1,.887.887V53.226a.89.89,0,0,1-.887.887H35.484a.89.89,0,0,1-.887-.887Z" fill="#ef7385"/>
          </g>
          <g id="Grupo_81289" data-name="Grupo 81289">
            <path id="Trazado_115235" data-name="Trazado 115235" d="M20.4,7.984v9.323a12.44,12.44,0,0,0-5.2,8.419H1.774a.89.89,0,0,1-.887-.887V1.774A.89.89,0,0,1,1.774.887H19.516a.89.89,0,0,1,.887.887Z" fill="#b4dd7f"/>
          </g>
          <g id="Grupo_81290" data-name="Grupo 81290">
            <path id="Trazado_115236" data-name="Trazado 115236" d="M38.722,22.177A12.424,12.424,0,0,0,15.2,25.726a12.951,12.951,0,0,0-.124,1.774A12.42,12.42,0,0,0,34.6,37.693a12.44,12.44,0,0,0,5.2-8.419,12.951,12.951,0,0,0,.124-1.774,12.32,12.32,0,0,0-1.2-5.323Z" fill="#4fc1e9"/>
          </g>
        </g>
        <g id="Grupo_81292" data-name="Grupo 81292">
          <path id="Trazado_115237" data-name="Trazado 115237" d="M39.919,10.645a2.661,2.661,0,1,0-2.661-2.661A2.665,2.665,0,0,0,39.919,10.645Zm0-3.548a.887.887,0,1,1-.887.887A.889.889,0,0,1,39.919,7.1Z"/>
          <path id="Trazado_115238" data-name="Trazado 115238" d="M33.71,7.1h1.774V8.871H33.71Z"/>
          <path id="Trazado_115239" data-name="Trazado 115239" d="M44.355,7.1h1.774V8.871H44.355Z"/>
          <path id="Trazado_115240" data-name="Trazado 115240" d="M4.435,14.194H7.984v1.774H4.435Z"/>
          <path id="Trazado_115241" data-name="Trazado 115241" d="M9.758,14.194h5.323v1.774H9.758Z"/>
          <path id="Trazado_115242" data-name="Trazado 115242" d="M4.435,17.742h8.871v1.774H4.435Z"/>
          <path id="Trazado_115243" data-name="Trazado 115243" d="M4.435,21.29h7.1v1.774h-7.1Z"/>
          <path id="Trazado_115244" data-name="Trazado 115244" d="M53.226,28.387H40.761c.02-.295.045-.587.045-.887A13.292,13.292,0,0,0,21.29,15.741V8.871H31.935V7.1H21.29V1.774A1.776,1.776,0,0,0,19.516,0H1.774A1.776,1.776,0,0,0,0,1.774V24.839a1.776,1.776,0,0,0,1.774,1.774H14.239c-.02.295-.045.587-.045.887A13.292,13.292,0,0,0,33.71,39.259v6.87H23.065V47.9H33.71v5.323A1.776,1.776,0,0,0,35.484,55H53.226A1.776,1.776,0,0,0,55,53.226V30.161A1.776,1.776,0,0,0,53.226,28.387ZM23.065,27.5a15.083,15.083,0,0,1,.682-4.435h7.506a14.752,14.752,0,0,1,0,8.871H23.748a15.055,15.055,0,0,1-.683-4.435Zm3.016-9.048L27.5,16.559l1.419,1.893a14.979,14.979,0,0,1,1.663,2.839H24.418A14.955,14.955,0,0,1,26.081,18.452ZM22.494,21.29H17.8a11.542,11.542,0,0,1,7.8-5.152l-.937,1.249A16.812,16.812,0,0,0,22.494,21.29ZM30.583,33.71a15.007,15.007,0,0,1-1.663,2.839L27.5,38.441l-1.419-1.892a14.979,14.979,0,0,1-1.663-2.839Zm-.244,3.9a16.794,16.794,0,0,0,2.167-3.9h4.7a11.542,11.542,0,0,1-7.8,5.152Zm7.8-5.677H33.1a16.377,16.377,0,0,0,0-8.871h5.045a11.5,11.5,0,0,1,0,8.871ZM37.2,21.29h-4.7a16.812,16.812,0,0,0-2.167-3.9L29.4,16.138a11.542,11.542,0,0,1,7.8,5.152ZM1.774,24.839V1.774H19.516V7.1h-9l2.461-1.968L11.866,3.743l-5.3,4.241,5.3,4.241,1.108-1.386-2.46-1.968h9v8.01a13.318,13.318,0,0,0-5.055,7.958Zm15.083-1.774H21.9a16.377,16.377,0,0,0,0,8.871H16.857a11.5,11.5,0,0,1,0-8.871ZM17.8,33.71h4.7a16.812,16.812,0,0,0,2.167,3.9l.937,1.249A11.542,11.542,0,0,1,17.8,33.71ZM53.226,53.226H35.484V47.9h9l-2.461,1.968,1.108,1.386,5.3-4.241-5.3-4.241-1.108,1.386,2.46,1.968h-9v-8.01a13.318,13.318,0,0,0,5.055-7.958H53.226Z"/>
          <path id="Trazado_115245" data-name="Trazado 115245" d="M15.081,44.355a2.661,2.661,0,1,0,2.661,2.661A2.665,2.665,0,0,0,15.081,44.355Zm0,3.548a.887.887,0,1,1,.887-.887A.889.889,0,0,1,15.081,47.9Z"/>
          <path id="Trazado_115246" data-name="Trazado 115246" d="M19.516,46.129H21.29V47.9H19.516Z"/>
          <path id="Trazado_115247" data-name="Trazado 115247" d="M8.871,46.129h1.774V47.9H8.871Z"/>
          <path id="Trazado_115248" data-name="Trazado 115248" d="M47.016,31.935h3.548V33.71H47.016Z"/>
          <path id="Trazado_115249" data-name="Trazado 115249" d="M41.694,31.935h3.548V33.71H41.694Z"/>
          <path id="Trazado_115250" data-name="Trazado 115250" d="M41.694,35.484h8.871v1.774H41.694Z"/>
          <path id="Trazado_115251" data-name="Trazado 115251" d="M43.468,39.032h7.1v1.774h-7.1Z"/>
        </g>
      </g>
    </g>
  </g>
</svg>
