<svg xmlns="http://www.w3.org/2000/svg" xmlns:xlink="http://www.w3.org/1999/xlink" width="67" height="73" viewBox="0 0 67 73">
  <defs>
    <clipPath id="clip-path">
      <rect id="Rect치ngulo_34196" data-name="Rect치ngulo 34196" width="55" height="55" transform="translate(-9417 -3097)" fill="#2ff980"/>
    </clipPath>
  </defs>
  <g id="Grupo_83843" data-name="Grupo 83843" transform="translate(9427 2499)">
    <rect id="Rect치ngulo_34397" data-name="Rect치ngulo 34397" width="67" height="73" rx="5" transform="translate(-9427 -2499)" fill="#fff"/>
    <g id="Enmascarar_grupo_105" data-name="Enmascarar grupo 105" transform="translate(-4 607)" clip-path="url(#clip-path)">
      <g id="dominio" transform="translate(-9417 -3097)">
        <g id="Grupo_81232" data-name="Grupo 81232">
          <path id="Trazado_115169" data-name="Trazado 115169" d="M23.455,2.5A15.312,15.312,0,0,0,10.6,9.468a22.767,22.767,0,0,0,5.04,1.548C17.068,5.967,20.031,2.5,23.455,2.5Z" fill="#98eaf9" fill-rule="evenodd"/>
        </g>
        <g id="Grupo_81233" data-name="Grupo 81233">
          <path id="Trazado_115170" data-name="Trazado 115170" d="M23.455,11.719V2.5c-3.423,0-6.387,3.471-7.811,8.521A40.165,40.165,0,0,0,23.455,11.719Z" fill="#cbf4fb" fill-rule="evenodd"/>
        </g>
        <g id="Grupo_81234" data-name="Grupo 81234">
          <path id="Trazado_115171" data-name="Trazado 115171" d="M31.245,10.947C29.814,5.937,26.863,2.5,23.455,2.5v9.224A39.309,39.309,0,0,0,31.245,10.947Z" fill="#98eaf9" fill-rule="evenodd"/>
        </g>
        <g id="Grupo_81235" data-name="Grupo 81235">
          <path id="Trazado_115172" data-name="Trazado 115172" d="M36.216,9.336A15.3,15.3,0,0,0,23.455,2.5c3.408,0,6.36,3.441,7.79,8.452A21.553,21.553,0,0,0,36.216,9.336Z" fill="#cbf4fb" fill-rule="evenodd"/>
        </g>
        <g id="Grupo_81236" data-name="Grupo 81236">
          <path id="Trazado_115173" data-name="Trazado 115173" d="M38.777,17.818a15.251,15.251,0,0,0-2.561-8.482,21.543,21.543,0,0,1-4.971,1.611,25.222,25.222,0,0,1,.923,6.871Z" fill="#98eaf9" fill-rule="evenodd"/>
        </g>
        <g id="Grupo_81237" data-name="Grupo 81237">
          <path id="Trazado_115174" data-name="Trazado 115174" d="M31.245,10.947a39.31,39.31,0,0,1-7.79.772v6.1h8.713a25.213,25.213,0,0,0-.923-6.871Z" fill="#cbf4fb" fill-rule="evenodd"/>
        </g>
        <g id="Grupo_81238" data-name="Grupo 81238">
          <path id="Trazado_115175" data-name="Trazado 115175" d="M23.455,11.719a40.175,40.175,0,0,1-7.811-.7,25.244,25.244,0,0,0-.9,6.8h8.713Z" fill="#98eaf9" fill-rule="evenodd"/>
        </g>
        <g id="Grupo_81239" data-name="Grupo 81239">
          <path id="Trazado_115176" data-name="Trazado 115176" d="M15.643,11.016A22.763,22.763,0,0,1,10.6,9.468a15.254,15.254,0,0,0-2.471,8.349h6.609a25.243,25.243,0,0,1,.9-6.8Z" fill="#cbf4fb" fill-rule="evenodd"/>
        </g>
        <g id="Grupo_81240" data-name="Grupo 81240">
          <path id="Trazado_115177" data-name="Trazado 115177" d="M15.3,23.222a25.841,25.841,0,0,1-.556-5.4H8.133a15.271,15.271,0,0,0,.98,5.4Z" fill="#98eaf9" fill-rule="evenodd"/>
        </g>
        <g id="Grupo_81241" data-name="Grupo 81241">
          <path id="Trazado_115178" data-name="Trazado 115178" d="M23.455,17.818H14.742a25.834,25.834,0,0,0,.556,5.4h8.157v-5.4Z" fill="#cbf4fb" fill-rule="evenodd"/>
        </g>
        <g id="Grupo_81242" data-name="Grupo 81242">
          <path id="Trazado_115179" data-name="Trazado 115179" d="M32.168,17.818H23.455v5.4h8.154A25.837,25.837,0,0,0,32.168,17.818Z" fill="#98eaf9" fill-rule="evenodd"/>
        </g>
        <g id="Grupo_81243" data-name="Grupo 81243">
          <path id="Trazado_115180" data-name="Trazado 115180" d="M37.794,23.222a15.273,15.273,0,0,0,.983-5.4H32.167a25.837,25.837,0,0,1-.559,5.4Z" fill="#cbf4fb" fill-rule="evenodd"/>
        </g>
        <g id="Grupo_81244" data-name="Grupo 81244">
          <path id="Trazado_115181" data-name="Trazado 115181" d="M2.452,23.222A1.393,1.393,0,0,0,1.064,24.61v16.96a1.394,1.394,0,0,0,1.389,1.392H41.445l4.4-1.4V24.61a1.394,1.394,0,0,0-1.391-1.389h-42Z" fill="#a0e5a5" fill-rule="evenodd"/>
        </g>
        <g id="Grupo_81245" data-name="Grupo 81245">
          <path id="Trazado_115182" data-name="Trazado 115182" d="M41.2,39.764l.748,9.573,2.627-2.627L50.366,52.5l1.785-1.785,1.785-1.785-5.795-5.795,2.627-2.627Z" fill="#fff"/>
        </g>
        <g id="Grupo_81246" data-name="Grupo 81246">
          <path id="Trazado_115183" data-name="Trazado 115183" d="M13.287,28.935l-.862,4.331-1.373-4.452A1.063,1.063,0,0,0,9,28.9L7.645,33.27l-.86-4.349a1.064,1.064,0,0,0-2.087.413s1.569,7.911,1.587,7.961a1.245,1.245,0,0,0,1.171.824h.014a1.243,1.243,0,0,0,1.165-.849l.007-.022,1.395-4.507,1.39,4.509c0,.015.01.031.015.046a1.244,1.244,0,0,0,1.17.824h.014a1.242,1.242,0,0,0,1.163-.849c.014-.042,1.585-7.919,1.585-7.919a1.064,1.064,0,0,0-2.087-.415Z"/>
          <path id="Trazado_115184" data-name="Trazado 115184" d="M28.793,29.35a1.064,1.064,0,1,0-2.087-.415l-.863,4.335-1.372-4.455a1.063,1.063,0,0,0-2.056.087l-1.352,4.366-.86-4.346a1.064,1.064,0,0,0-2.087.413s1.569,7.911,1.587,7.961a1.244,1.244,0,0,0,1.17.824h.014a1.242,1.242,0,0,0,1.164-.849l.007-.022,1.4-4.508,1.388,4.509c0,.016.01.031.015.046a1.245,1.245,0,0,0,1.171.824h.014a1.243,1.243,0,0,0,1.165-.849c.014-.042,1.585-7.919,1.585-7.919Z"/>
          <path id="Trazado_115185" data-name="Trazado 115185" d="M34.284,38.119H34.3a1.244,1.244,0,0,0,1.17-.824c.005-.015.011-.03.015-.046l1.388-4.509,1.4,4.508.007.022a1.242,1.242,0,0,0,1.164.849h.014a1.244,1.244,0,0,0,1.17-.824c.018-.05,1.587-7.961,1.587-7.961a1.064,1.064,0,0,0-2.087-.413l-.86,4.346L37.91,28.9a1.063,1.063,0,0,0-2.056-.087l-1.37,4.449-.862-4.329a1.064,1.064,0,1,0-2.087.415s1.571,7.877,1.585,7.919a1.241,1.241,0,0,0,1.163.85Z"/>
          <path id="Trazado_115186" data-name="Trazado 115186" d="M23.455,41.9a1.064,1.064,0,1,0,0,2.128h0a1.064,1.064,0,1,0,0-2.128Z"/>
          <path id="Trazado_115187" data-name="Trazado 115187" d="M54.688,48.182l-5.042-5.042,1.875-1.875a1.064,1.064,0,0,0-.669-1.813l-3.942-.308V24.61a2.457,2.457,0,0,0-2.455-2.452h-5.2a16.385,16.385,0,1,0-31.608,0h-5.2A2.455,2.455,0,0,0,0,24.61v16.96a2.457,2.457,0,0,0,2.452,2.455H18.694a1.064,1.064,0,1,0,0-2.128H2.452a.331.331,0,0,1-.325-.328V24.61a.329.329,0,0,1,.325-.325h42a.331.331,0,0,1,.328.325V38.977l-3.5-.274a1.064,1.064,0,0,0-1.144,1.144L40.3,41.9H28.215a1.064,1.064,0,1,0,0,2.128H40.462l.422,5.394a1.064,1.064,0,0,0,1.813.669l1.875-1.875,5.042,5.042a1.064,1.064,0,0,0,1.5,0l3.571-3.571a1.064,1.064,0,0,0,0-1.5ZM9.869,22.158a14.141,14.141,0,0,1-.633-3.276H13.7a27.049,27.049,0,0,0,.318,3.276Zm3.831-5.4H9.236a14.155,14.155,0,0,1,1.805-5.944,24.038,24.038,0,0,0,3.3,1.013A26.431,26.431,0,0,0,13.7,16.754ZM12.261,9a14.346,14.346,0,0,1,5.112-4.073,14.239,14.239,0,0,0-1,1.533,18.527,18.527,0,0,0-1.454,3.316A22.779,22.779,0,0,1,12.261,9Zm10.13,13.162H16.176a24.7,24.7,0,0,1-.347-3.276h6.562Zm0-5.4H15.828a24.131,24.131,0,0,1,.611-4.513,41.475,41.475,0,0,0,5.952.534Zm0-6.111a39.724,39.724,0,0,1-5.356-.461c1.19-3.414,3.137-5.873,5.356-6.478ZM24.519,3.7c2.207.6,4.143,3.037,5.335,6.421a39.107,39.107,0,0,1-5.335.508ZM30.73,22.158H24.519V18.881H31.08a24.708,24.708,0,0,1-.35,3.276Zm-6.212-5.4V12.765a40.885,40.885,0,0,0,5.937-.585,24.1,24.1,0,0,1,.626,4.574H24.519Zm6.022-10.3a14.24,14.24,0,0,0-1-1.533A14.346,14.346,0,0,1,34.564,8.89a21.587,21.587,0,0,1-2.595.8A18.468,18.468,0,0,0,30.54,6.457Zm6.5,15.7H32.889a27,27,0,0,0,.32-3.276h4.464A14.15,14.15,0,0,1,37.038,22.158Zm-3.829-5.4a26.4,26.4,0,0,0-.659-5.016,22.907,22.907,0,0,0,3.249-1.05,14.156,14.156,0,0,1,1.875,6.066ZM50.366,51l-5.042-5.042a1.064,1.064,0,0,0-1.5,0l-.994.994-.471-6.03,6.03.471-.994.994a1.064,1.064,0,0,0,0,1.5l5.042,5.042Z"/>
        </g>
      </g>
    </g>
  </g>
</svg>
