<svg xmlns="http://www.w3.org/2000/svg" xmlns:xlink="http://www.w3.org/1999/xlink" width="67" height="72" viewBox="0 0 67 72">
  <defs>
    <clipPath id="clip-path">
      <rect id="Rect치ngulo_34198" data-name="Rect치ngulo 34198" width="55" height="55" transform="translate(-8892 -3097)" fill="#2ff980"/>
    </clipPath>
  </defs>
  <g id="Grupo_83840" data-name="Grupo 83840" transform="translate(8725 2818)">
    <rect id="Rect치ngulo_34396" data-name="Rect치ngulo 34396" width="67" height="72" rx="5" transform="translate(-8725 -2818)" fill="#fff"/>
    <g id="Enmascarar_grupo_107" data-name="Enmascarar grupo 107" transform="translate(173 287)" clip-path="url(#clip-path)">
      <g id="internet" transform="translate(-8892 -3097)">
        <g id="Grupo_81283" data-name="Grupo 81283">
          <g id="Grupo_81248" data-name="Grupo 81248">
            <g id="Grupo_81247" data-name="Grupo 81247">
              <ellipse id="Elipse_4837" data-name="Elipse 4837" cx="17.103" cy="17.107" rx="17.103" ry="17.107" transform="translate(10.391 10.372)" fill="#71d8fd"/>
            </g>
          </g>
          <g id="Grupo_81250" data-name="Grupo 81250">
            <g id="Grupo_81249" data-name="Grupo 81249">
              <path id="Trazado_115197" data-name="Trazado 115197" d="M27.494,10.372a17.263,17.263,0,0,0-2.1.128,17.109,17.109,0,0,1,0,33.958,17.107,17.107,0,1,0,2.1-34.086Z" fill="#60c3f7"/>
            </g>
          </g>
          <g id="Grupo_81252" data-name="Grupo 81252">
            <g id="Grupo_81251" data-name="Grupo 81251">
              <ellipse id="Elipse_4838" data-name="Elipse 4838" cx="3.201" cy="3.201" rx="3.201" ry="3.201" transform="translate(0.812 0.979)" fill="#ffcd74"/>
            </g>
          </g>
          <g id="Grupo_81254" data-name="Grupo 81254">
            <g id="Grupo_81253" data-name="Grupo 81253">
              <ellipse id="Elipse_4839" data-name="Elipse 4839" cx="3.201" cy="3.201" rx="3.201" ry="3.201" transform="translate(47.787 0.979)" fill="#ffcd74"/>
            </g>
          </g>
          <g id="Grupo_81256" data-name="Grupo 81256">
            <g id="Grupo_81255" data-name="Grupo 81255">
              <ellipse id="Elipse_4840" data-name="Elipse 4840" cx="3.201" cy="3.201" rx="3.201" ry="3.201" transform="translate(0.812 47.723)" fill="#ffcd74"/>
            </g>
          </g>
          <g id="Grupo_81258" data-name="Grupo 81258">
            <g id="Grupo_81257" data-name="Grupo 81257">
              <ellipse id="Elipse_4841" data-name="Elipse 4841" cx="3.201" cy="3.201" rx="3.201" ry="3.201" transform="translate(0.812 24.299)" fill="#b4e173"/>
            </g>
          </g>
          <g id="Grupo_81260" data-name="Grupo 81260">
            <g id="Grupo_81259" data-name="Grupo 81259">
              <ellipse id="Elipse_4842" data-name="Elipse 4842" cx="3.201" cy="3.201" rx="3.201" ry="3.201" transform="translate(47.787 24.299)" fill="#b4e173"/>
            </g>
          </g>
          <g id="Grupo_81262" data-name="Grupo 81262">
            <g id="Grupo_81261" data-name="Grupo 81261">
              <ellipse id="Elipse_4843" data-name="Elipse 4843" cx="3.201" cy="3.201" rx="3.201" ry="3.201" transform="translate(24.294 0.805)" fill="#b4e173"/>
            </g>
          </g>
          <g id="Grupo_81264" data-name="Grupo 81264">
            <g id="Grupo_81263" data-name="Grupo 81263">
              <ellipse id="Elipse_4844" data-name="Elipse 4844" cx="3.201" cy="3.201" rx="3.201" ry="3.201" transform="translate(24.294 47.792)" fill="#b4e173"/>
            </g>
          </g>
          <g id="Grupo_81266" data-name="Grupo 81266">
            <g id="Grupo_81265" data-name="Grupo 81265">
              <ellipse id="Elipse_4845" data-name="Elipse 4845" cx="3.201" cy="3.201" rx="3.201" ry="3.201" transform="translate(47.787 47.723)" fill="#ffcd74"/>
            </g>
          </g>
          <g id="Grupo_81268" data-name="Grupo 81268">
            <g id="Grupo_81267" data-name="Grupo 81267">
              <path id="Trazado_115198" data-name="Trazado 115198" d="M7.213,4.181a3.2,3.2,0,0,1-4.23,3.031,3.2,3.2,0,0,0,0-6.062,3.2,3.2,0,0,1,4.23,3.031Z" fill="#ff9650"/>
            </g>
          </g>
          <g id="Grupo_81270" data-name="Grupo 81270">
            <g id="Grupo_81269" data-name="Grupo 81269">
              <path id="Trazado_115199" data-name="Trazado 115199" d="M54.188,4.181a3.2,3.2,0,0,1-4.229,3.031,3.2,3.2,0,0,0,0-6.062,3.2,3.2,0,0,1,4.229,3.031Z" fill="#ff9650"/>
            </g>
          </g>
          <g id="Grupo_81272" data-name="Grupo 81272">
            <g id="Grupo_81271" data-name="Grupo 81271">
              <path id="Trazado_115200" data-name="Trazado 115200" d="M7.213,50.925a3.2,3.2,0,0,1-4.23,3.031,3.2,3.2,0,0,0,0-6.062,3.2,3.2,0,0,1,4.23,3.031Z" fill="#ff9650"/>
            </g>
          </g>
          <g id="Grupo_81274" data-name="Grupo 81274">
            <g id="Grupo_81273" data-name="Grupo 81273">
              <path id="Trazado_115201" data-name="Trazado 115201" d="M7.213,27.5a3.2,3.2,0,0,1-3.2,3.2,3.169,3.169,0,0,1-1.028-.17,3.2,3.2,0,0,0,0-6.062A3.2,3.2,0,0,1,7.213,27.5Z" fill="#87b45f"/>
            </g>
          </g>
          <g id="Grupo_81276" data-name="Grupo 81276">
            <g id="Grupo_81275" data-name="Grupo 81275">
              <path id="Trazado_115202" data-name="Trazado 115202" d="M54.188,27.5a3.2,3.2,0,0,1-3.2,3.2,3.169,3.169,0,0,1-1.028-.17,3.2,3.2,0,0,0,0-6.062A3.2,3.2,0,0,1,54.188,27.5Z" fill="#87b45f"/>
            </g>
          </g>
          <g id="Grupo_81278" data-name="Grupo 81278">
            <g id="Grupo_81277" data-name="Grupo 81277">
              <path id="Trazado_115203" data-name="Trazado 115203" d="M30.695,4.007a3.2,3.2,0,0,1-3.2,3.2,3.169,3.169,0,0,1-1.028-.17,3.2,3.2,0,0,0,0-6.063,3.2,3.2,0,0,1,4.229,3.031Z" fill="#87b45f"/>
            </g>
          </g>
          <g id="Grupo_81280" data-name="Grupo 81280">
            <g id="Grupo_81279" data-name="Grupo 81279">
              <path id="Trazado_115204" data-name="Trazado 115204" d="M30.695,50.993a3.2,3.2,0,0,1-3.2,3.2,3.169,3.169,0,0,1-1.028-.17,3.2,3.2,0,0,0,0-6.062,3.2,3.2,0,0,1,4.229,3.031Z" fill="#87b45f"/>
            </g>
          </g>
          <g id="Grupo_81282" data-name="Grupo 81282">
            <g id="Grupo_81281" data-name="Grupo 81281">
              <path id="Trazado_115205" data-name="Trazado 115205" d="M54.188,50.925a3.2,3.2,0,0,1-4.229,3.031,3.2,3.2,0,0,0,0-6.062,3.2,3.2,0,0,1,4.229,3.031Z" fill="#ff9650"/>
            </g>
          </g>
        </g>
        <g id="Grupo_81284" data-name="Grupo 81284">
          <path id="Trazado_115206" data-name="Trazado 115206" d="M27.4,30.646a.866.866,0,1,0,.865.866A.867.867,0,0,0,27.4,30.646Z"/>
          <path id="Trazado_115207" data-name="Trazado 115207" d="M27.45,27.783a3.765,3.765,0,0,0-2.659,1.092.805.805,0,0,0,1.131,1.147,2.172,2.172,0,0,1,3.1.049.806.806,0,1,0,1.168-1.11A3.8,3.8,0,0,0,27.45,27.783Z"/>
          <path id="Trazado_115208" data-name="Trazado 115208" d="M32.251,26.887a6.7,6.7,0,0,0-9.516-.089.805.805,0,0,0,1.133,1.145,5.09,5.09,0,0,1,7.228.067.806.806,0,0,0,1.155-1.123Z"/>
          <path id="Trazado_115209" data-name="Trazado 115209" d="M33.242,25.87a.806.806,0,0,0,1.149-1.129,9.732,9.732,0,0,0-13.786-.1.805.805,0,0,0,1.132,1.146,8.12,8.12,0,0,1,11.5.081Z"/>
          <path id="Trazado_115210" data-name="Trazado 115210" d="M4.012,31.507A4.007,4.007,0,1,0,.006,27.5,4.011,4.011,0,0,0,4.012,31.507Zm0-6.4a2.4,2.4,0,1,1-2.4,2.4A2.4,2.4,0,0,1,4.012,25.1Z"/>
          <path id="Trazado_115211" data-name="Trazado 115211" d="M50.988,23.493A4.007,4.007,0,1,0,54.994,27.5,4.011,4.011,0,0,0,50.988,23.493Zm0,6.4a2.4,2.4,0,1,1,2.4-2.4A2.4,2.4,0,0,1,50.988,29.9Z"/>
          <path id="Trazado_115212" data-name="Trazado 115212" d="M27.494,8.014a4.007,4.007,0,1,0-4.006-4.007A4.011,4.011,0,0,0,27.494,8.014Zm0-6.4a2.4,2.4,0,1,1-2.4,2.4A2.4,2.4,0,0,1,27.494,1.611Z"/>
          <path id="Trazado_115213" data-name="Trazado 115213" d="M27.494,46.986A4.007,4.007,0,1,0,31.5,50.993,4.011,4.011,0,0,0,27.494,46.986Zm0,6.4a2.4,2.4,0,1,1,2.4-2.4A2.4,2.4,0,0,1,27.494,53.389Z"/>
          <path id="Trazado_115214" data-name="Trazado 115214" d="M50.988,46.918a3.982,3.982,0,0,0-2.059.571l-8.022-8.155a17.879,17.879,0,0,0,.019-23.688l7.938-8.07A4.014,4.014,0,1,0,47.7,6.465l-7.89,8.021a17.9,17.9,0,0,0-19.8-3.285.805.805,0,1,0,.674,1.463,16.27,16.27,0,0,1,1.876-.726,13.689,13.689,0,0,0-2.146,3.07,21.5,21.5,0,0,0-1.607,4.073,21.56,21.56,0,0,0-3.774,1.48A13.588,13.588,0,0,0,11.9,22.71a16.244,16.244,0,0,1,1.068-2.635,16.453,16.453,0,0,1,4.742-5.637.805.805,0,1,0-.968-1.288,17.891,17.891,0,0,0-1.566,1.325L7.3,6.467A4.01,4.01,0,1,0,6.133,7.578l7.928,8.06a17.987,17.987,0,0,0-2.525,3.705,17.906,17.906,0,0,0,2.549,19.994l-8.016,8.15a4.017,4.017,0,1,0,1.188,1.09L15.205,40.5a17.841,17.841,0,0,0,12.278,4.9h.022a17.842,17.842,0,0,0,12.282-4.9l7.955,8.087a4,4,0,1,0,3.245-1.662ZM1.617,4.181a2.4,2.4,0,1,1,2.4,2.4A2.4,2.4,0,0,1,1.617,4.181ZM31.883,35.968a.806.806,0,0,0,.924.665q.792-.129,1.547-.294A19.1,19.1,0,0,1,33.148,39.2c-1.354,2.572-3.052,4.137-4.849,4.5V37.044c.456-.011.91-.029,1.359-.057a.806.806,0,1,0-.1-1.608c-.68.043-1.374.065-2.063.065a30.232,30.232,0,0,1-7.372-.876,30.794,30.794,0,0,1,0-14.177,30.233,30.233,0,0,1,7.372-.876,30.231,30.231,0,0,1,7.372.876,30.795,30.795,0,0,1,0,14.174q-1.111.282-2.319.48A.806.806,0,0,0,31.883,35.968ZM11.911,32.256A13.6,13.6,0,0,0,15.033,34.4a21.559,21.559,0,0,0,3.774,1.48,21.5,21.5,0,0,0,1.607,4.073,13.7,13.7,0,0,0,2.141,3.064A16.372,16.372,0,0,1,11.911,32.256Zm5.783-3.971a31.464,31.464,0,0,0,.658,5.761,19.123,19.123,0,0,1-2.584-1.082c-2.555-1.31-4.114-2.948-4.484-4.679h6.411Zm2.94,8.057a32.054,32.054,0,0,0,6.053.7V43.7c-1.8-.362-3.495-1.927-4.848-4.5A19.113,19.113,0,0,1,20.635,36.341ZM33.149,15.758a19.107,19.107,0,0,1,1.2,2.859,32.05,32.05,0,0,0-6.054-.7V11.259C30.1,11.62,31.795,13.185,33.149,15.758Zm4.146,10.916a31.464,31.464,0,0,0-.658-5.761,19.13,19.13,0,0,1,2.584,1.082c2.555,1.31,4.114,2.947,4.484,4.679Zm0,1.611H43.7c-.505,2.318-3.158,4.437-7.067,5.759A31.472,31.472,0,0,0,37.294,28.284Zm13.693-26.5a2.4,2.4,0,1,1-2.4,2.4A2.4,2.4,0,0,1,50.988,1.785ZM43.077,22.7a13.6,13.6,0,0,0-3.122-2.141,21.558,21.558,0,0,0-3.774-1.48,21.5,21.5,0,0,0-1.607-4.073,13.7,13.7,0,0,0-2.141-3.064A16.372,16.372,0,0,1,43.077,22.7ZM21.84,15.758c1.354-2.572,3.051-4.137,4.848-4.5v6.655a32.055,32.055,0,0,0-6.053.7A19.086,19.086,0,0,1,21.84,15.758Zm-6.072,6.237a19.134,19.134,0,0,1,2.584-1.082,31.464,31.464,0,0,0-.658,5.761H11.284C11.655,24.942,13.214,23.3,15.768,21.995ZM4.012,53.321a2.4,2.4,0,1,1,2.4-2.4A2.4,2.4,0,0,1,4.012,53.321ZM32.433,43.015a13.7,13.7,0,0,0,2.141-3.064,21.5,21.5,0,0,0,1.608-4.074,16.984,16.984,0,0,0,6.9-3.64A16.372,16.372,0,0,1,32.433,43.015ZM50.988,53.321a2.4,2.4,0,1,1,2.4-2.4A2.4,2.4,0,0,1,50.988,53.321Z"/>
        </g>
      </g>
    </g>
  </g>
</svg>
