<svg xmlns="http://www.w3.org/2000/svg" xmlns:xlink="http://www.w3.org/1999/xlink" width="110" height="102" viewBox="0 0 110 102">
  <defs>
    <clipPath id="clip-path">
      <rect id="Rectángulo_33854" data-name="Rectángulo 33854" width="85" height="85" transform="translate(225 14961)" fill="#fff" stroke="#707070" stroke-width="1"/>
    </clipPath>
  </defs>
  <g id="Grupo_84765" data-name="Grupo 84765" transform="translate(-225 -15445)">
    <circle id="Elipse_4737" data-name="Elipse 4737" cx="51" cy="51" r="51" transform="translate(233 15445)" fill="#2ff980"/>
    <g id="Enmascarar_grupo_53" data-name="Enmascarar grupo 53" transform="translate(0 484)" clip-path="url(#clip-path)">
      <g id="puesta-en-marcha" transform="translate(225 14961)">
        <path id="Trazado_113618" data-name="Trazado 113618" d="M83.3,1.66A72.7,72.7,0,0,1,79.264,21.1L63.855,5.694A72.7,72.7,0,0,1,83.3,1.66Z" fill="#ff5249"/>
        <path id="Trazado_113619" data-name="Trazado 113619" d="M63.855,5.694,79.264,21.1a54.425,54.425,0,0,1-12.4,20.47A64.9,64.9,0,0,1,47.306,54.885L30.074,37.652a65.9,65.9,0,0,1,8.9-14.638,61.643,61.643,0,0,1,4.414-4.921A54.425,54.425,0,0,1,63.855,5.694Z" fill="#fff"/>
        <path id="Trazado_113620" data-name="Trazado 113620" d="M64.516,20.443a6.641,6.641,0,1,1-9.391,0A6.641,6.641,0,0,1,64.516,20.443Z" fill="#7bd8e8"/>
        <g id="Grupo_80232" data-name="Grupo 80232">
          <path id="Trazado_113621" data-name="Trazado 113621" d="M62.168,46.269C70.725,59.1,54.707,67.4,45.734,67.4a12.336,12.336,0,0,0,3.324-10.763l-1.751-1.751a65.9,65.9,0,0,0,14.638-8.9Z" fill="#ff5249"/>
          <path id="Trazado_113622" data-name="Trazado 113622" d="M28.145,49.811l-.269-.269a3.218,3.218,0,0,1-.9-3.036,57.851,57.851,0,0,1,3.1-8.854L47.306,54.885a57.851,57.851,0,0,1-8.854,3.1,3.218,3.218,0,0,1-3.036-.9l-.269-.269Z" fill="#ff5249"/>
          <path id="Trazado_113623" data-name="Trazado 113623" d="M38.69,22.791l.281.224a65.9,65.9,0,0,0-8.9,14.638L28.323,35.9A12.336,12.336,0,0,0,17.56,39.225C17.56,30.251,25.856,14.234,38.69,22.791Z" fill="#ff5249"/>
        </g>
        <path id="Trazado_113624" data-name="Trazado 113624" d="M28.145,49.811l7,7a13.084,13.084,0,0,1-3.5,5.89C27.756,66.594,17.56,67.4,17.56,67.4s.805-10.2,4.695-14.086A13.084,13.084,0,0,1,28.145,49.811Z" fill="#ffdd78"/>
        <path id="Trazado_113625" data-name="Trazado 113625" d="M44.6,42.747a1.66,1.66,0,1,0-2.349,0A1.661,1.661,0,0,0,44.6,42.747Z"/>
        <path id="Trazado_113626" data-name="Trazado 113626" d="M65.731,31.009a8.3,8.3,0,1,0-11.739,0A8.3,8.3,0,0,0,65.731,31.009Zm-9.391-9.391a4.981,4.981,0,1,1,0,7.044A4.978,4.978,0,0,1,56.339,21.617Z"/>
        <path id="Trazado_113627" data-name="Trazado 113627" d="M16.966,40.758a1.66,1.66,0,0,0,1.809-.36,10.569,10.569,0,0,1,8.79-2.949l.581.581A58.393,58.393,0,0,0,25.4,46.094a4.7,4.7,0,0,0,.2,2.884,15.721,15.721,0,0,0-4.483,3.161c-4.273,4.274-5.141,14.688-5.176,15.13A1.66,1.66,0,0,0,17.6,69.059q.065,0,.131-.005c.441-.035,10.856-.9,15.13-5.176a15.722,15.722,0,0,0,3.16-4.482,4.688,4.688,0,0,0,2.885.2,58.4,58.4,0,0,0,8.062-2.742l.581.581a10.569,10.569,0,0,1-2.949,8.79,1.66,1.66,0,0,0,1.174,2.834c6.571,0,15.757-3.913,19.141-10.235,1.469-2.745,2.47-7.089-.721-12.509,1.353-1.143,2.655-2.338,3.884-3.567a55.588,55.588,0,0,0,12.791-21.09A73.749,73.749,0,0,0,85,1.72,1.66,1.66,0,0,0,83.28,0,73.75,73.75,0,0,0,63.343,4.129,55.583,55.583,0,0,0,42.252,16.92c-1.228,1.228-2.424,2.531-3.567,3.884-5.42-3.19-9.763-2.19-12.509-.721C19.854,23.467,15.94,32.654,15.94,39.225A1.661,1.661,0,0,0,16.966,40.758ZM30.514,61.53c-2.283,2.283-7.638,3.487-11.022,3.978.492-3.385,1.7-8.739,3.978-11.022a11.964,11.964,0,0,1,4.25-2.793l5.587,5.587A11.962,11.962,0,0,1,30.514,61.53Zm7.569-5.151a1.558,1.558,0,0,1-1.451-.471L29.093,48.37a1.559,1.559,0,0,1-.472-1.451,53.906,53.906,0,0,1,2.073-6.341L44.422,54.307A53.87,53.87,0,0,1,38.082,56.379Zm23.907.878c-2.175,4.064-7.652,7.059-12.642,8.091a14.13,14.13,0,0,0,1.361-9.118,1.734,1.734,0,0,0-.5-.839,67.149,67.149,0,0,0,11.37-6.975C63.3,51.573,63.442,54.542,61.989,57.257Zm16.588-39.23-11.6-11.6A74.638,74.638,0,0,1,81.54,3.46,74.65,74.65,0,0,1,78.577,18.027ZM44.6,19.268A51.766,51.766,0,0,1,63.472,7.618L77.382,21.529A51.762,51.762,0,0,1,65.732,40.4a60.255,60.255,0,0,1-4.788,4.3A63.783,63.783,0,0,1,47.71,52.9L32.1,37.291a63.773,63.773,0,0,1,8.2-13.234A60.245,60.245,0,0,1,44.6,19.268ZM27.743,23.011c2.716-1.453,5.684-1.311,8.841.417A67.125,67.125,0,0,0,29.609,34.8a1.75,1.75,0,0,0-.879-.516,14.189,14.189,0,0,0-9.078,1.372C20.684,30.663,23.679,25.186,27.743,23.011Z"/>
        <path id="Trazado_113628" data-name="Trazado 113628" d="M35.211,75.617l4.695-4.7a1.66,1.66,0,1,0-2.348-2.347l-4.695,4.7a1.66,1.66,0,1,0,2.348,2.347Z"/>
        <path id="Trazado_113629" data-name="Trazado 113629" d="M11.731,52.138l4.7-4.695a1.66,1.66,0,1,0-2.347-2.348l-4.7,4.695a1.66,1.66,0,1,0,2.347,2.348Z"/>
        <path id="Trazado_113630" data-name="Trazado 113630" d="M25.819,70.922,14.573,82.166a1.66,1.66,0,0,0,2.348,2.348L28.166,73.27a1.66,1.66,0,0,0-2.348-2.348Z"/>
        <path id="Trazado_113631" data-name="Trazado 113631" d="M12.538,70.922,1.292,82.166a1.66,1.66,0,0,0,2.348,2.348L14.885,73.27a1.66,1.66,0,0,0-2.348-2.348Z"/>
        <path id="Trazado_113632" data-name="Trazado 113632" d="M2.834,70.427,14.079,59.181a1.66,1.66,0,0,0-2.348-2.348L.486,68.079a1.66,1.66,0,1,0,2.348,2.348Z"/>
        <path id="Trazado_113633" data-name="Trazado 113633" d="M49.3,38.051,51.645,35.7A1.66,1.66,0,1,0,49.3,33.356L46.949,35.7A1.66,1.66,0,1,0,49.3,38.051Z"/>
      </g>
    </g>
  </g>
</svg>
