<svg xmlns="http://www.w3.org/2000/svg" xmlns:xlink="http://www.w3.org/1999/xlink" width="63" height="63" viewBox="0 0 63 63">
  <defs>
    <clipPath id="clip-path">
      <rect id="Rectángulo_33878" data-name="Rectángulo 33878" width="63" height="63" transform="translate(296 15940)" fill="#40327b" stroke="#707070" stroke-width="1"/>
    </clipPath>
  </defs>
  <g id="Enmascarar_grupo_56" data-name="Enmascarar grupo 56" transform="translate(-296 -15940)" clip-path="url(#clip-path)">
    <g id="Page-1" transform="translate(296 15940)">
      <g id="_026---Refresh-Website" data-name="026---Refresh-Website">
        <g id="Icons" transform="translate(1.05 1.05)">
          <path id="Path" d="M60.9,14.7V50.4a4.2,4.2,0,0,1-4.2,4.2H4.2A4.2,4.2,0,0,1,0,50.4V14.7Z" fill="#f5f5f5" fill-rule="evenodd"/>
          <path id="Path-2" data-name="Path" d="M57.75,14.7V50.4a4.2,4.2,0,0,1-4.2,4.2H56.7a4.2,4.2,0,0,0,4.2-4.2V14.7Z" fill="#cfd8dc" fill-rule="evenodd"/>
          <rect id="Rectangle" width="42" height="42" rx="4.2" transform="translate(9.45 18.9)" fill="#e91e63"/>
          <path id="Path-3" data-name="Path" d="M47.25,18.9H44.1a4.2,4.2,0,0,1,4.2,4.2V56.7a4.2,4.2,0,0,1-4.2,4.2h3.15a4.2,4.2,0,0,0,4.2-4.2V23.1A4.2,4.2,0,0,0,47.25,18.9Z" fill="#ad1457" fill-rule="evenodd"/>
          <path id="Path-4" data-name="Path" d="M60.9,4.2v6.3H30.45a2.106,2.106,0,0,1-2.1-2.1V6.3a2.106,2.106,0,0,0-2.1-2.1H0A4.2,4.2,0,0,1,4.2,0H56.7A4.2,4.2,0,0,1,60.9,4.2Z" fill="#3f51b5" fill-rule="evenodd"/>
          <path id="Path-5" data-name="Path" d="M56.7,0H53.55a4.2,4.2,0,0,1,4.2,4.2v6.3H60.9V4.2A4.2,4.2,0,0,0,56.7,0Z" fill="#283593" fill-rule="evenodd"/>
          <path id="Path-6" data-name="Path" d="M60.9,10.5v4.2H0V4.2H26.25a2.106,2.106,0,0,1,2.1,2.1V8.4a2.106,2.106,0,0,0,2.1,2.1Z" fill="#02a9f4" fill-rule="evenodd"/>
          <path id="Rectangle-2" data-name="Rectangle" d="M57.75,10.5H60.9v4.2H57.75Z" fill="#0377bc" fill-rule="evenodd"/>
          <g id="Grupo_80236" data-name="Grupo 80236">
            <path id="Path-7" data-name="Path" d="M32.55,53.55a2.106,2.106,0,0,1-2.1,2.1A15.75,15.75,0,0,1,16.821,32l-.85.073a2.1,2.1,0,0,1-.389-4.179l6.268-.588A2.092,2.092,0,0,1,24.14,29.2l.588,6.279a2.081,2.081,0,0,1-1.89,2.279,1.271,1.271,0,0,1-.2.01,2.1,2.1,0,0,1-2.09-1.9l-.157-1.649A11.55,11.55,0,0,0,30.45,51.45a2.106,2.106,0,0,1,2.1,2.1Z" fill="#f5f5f5" fill-rule="evenodd"/>
            <path id="Path-8" data-name="Path" d="M28.35,26.25a2.106,2.106,0,0,1,2.1-2.1A15.75,15.75,0,0,1,44.079,47.8l.851-.073a2.1,2.1,0,0,1,.389,4.179l-6.269.588A2.092,2.092,0,0,1,36.76,50.6l-.588-6.279a2.081,2.081,0,0,1,1.89-2.278,1.27,1.27,0,0,1,.2-.01,2.1,2.1,0,0,1,2.09,1.9l.158,1.648A11.55,11.55,0,0,0,30.45,28.35a2.106,2.106,0,0,1-2.1-2.1Z" fill="#f5f5f5" fill-rule="evenodd"/>
          </g>
        </g>
        <g id="Icons_copy">
          <path id="Path-9" data-name="Path" d="M17.85,9.45H6.3a1.05,1.05,0,1,0,0,2.1H17.85a1.05,1.05,0,1,0,0-2.1Z" fill-rule="evenodd"/>
          <path id="Path-10" data-name="Path" d="M25.942,8.708a1.05,1.05,0,0,0-1.485,0l-.308.308-.308-.308a1.05,1.05,0,0,0-1.485,1.485l.308.308-.308.308a1.05,1.05,0,1,0,1.485,1.485l.308-.308.308.308a1.05,1.05,0,0,0,1.485-1.485l-.308-.308.308-.308a1.05,1.05,0,0,0,0-1.485Z" fill-rule="evenodd"/>
          <circle id="Oval" cx="1.05" cy="1.05" r="1.05" transform="translate(54.6 5.25)"/>
          <circle id="Oval-2" data-name="Oval" cx="1.05" cy="1.05" r="1.05" transform="translate(50.4 5.25)"/>
          <circle id="Oval-3" data-name="Oval" cx="1.05" cy="1.05" r="1.05" transform="translate(46.2 5.25)"/>
          <g id="Grupo_80237" data-name="Grupo 80237">
            <path id="Shape" d="M57.75,0H5.25A5.256,5.256,0,0,0,0,5.25v46.2A5.256,5.256,0,0,0,5.25,56.7h4.2v1.05A5.256,5.256,0,0,0,14.7,63H48.3a5.256,5.256,0,0,0,5.25-5.25V56.7h4.2A5.256,5.256,0,0,0,63,51.45V5.25A5.256,5.256,0,0,0,57.75,0ZM2.1,6.3H27.3a1.05,1.05,0,0,1,1.05,1.05v2.1A3.15,3.15,0,0,0,31.5,12.6H60.9v2.1H2.1ZM5.25,2.1h52.5A3.15,3.15,0,0,1,60.9,5.25V10.5H31.5a1.05,1.05,0,0,1-1.05-1.05V7.35A3.15,3.15,0,0,0,27.3,4.2H2.293A3.15,3.15,0,0,1,5.25,2.1Zm46.2,55.65A3.15,3.15,0,0,1,48.3,60.9H14.7a3.15,3.15,0,0,1-3.15-3.15V24.15A3.15,3.15,0,0,1,14.7,21H48.3a3.15,3.15,0,0,1,3.15,3.15Zm6.3-3.15h-4.2V24.15A5.256,5.256,0,0,0,48.3,18.9H14.7a5.256,5.256,0,0,0-5.25,5.25V54.6H5.25A3.15,3.15,0,0,1,2.1,51.45V16.8H60.9V51.45A3.15,3.15,0,0,1,57.75,54.6Z"/>
            <path id="Shape-2" data-name="Shape" d="M31.5,51.45A10.5,10.5,0,0,1,21.243,38.71a3.142,3.142,0,0,0,2.445,1.155,2.117,2.117,0,0,0,.3-.015,3.131,3.131,0,0,0,2.835-3.422l-.588-6.277a3.143,3.143,0,0,0-3.434-2.84l-6.265.588a3.15,3.15,0,0,0-.382,6.213A16.8,16.8,0,0,0,31.5,57.75a3.15,3.15,0,0,0,0-6.3Zm0,4.2A14.7,14.7,0,0,1,18.78,33.578,1.05,1.05,0,0,0,17.871,32a.865.865,0,0,0-.09,0l-.856.073a1.049,1.049,0,1,1-.194-2.088L23,29.4a1.041,1.041,0,0,1,1.139.945l.589,6.286a1.016,1.016,0,0,1-.229.754,1.1,1.1,0,0,1-.816.38,1.05,1.05,0,0,1-1.045-.95l-.157-1.648a1.05,1.05,0,0,0-1.96-.414A12.6,12.6,0,0,0,31.5,53.55a1.05,1.05,0,0,1,0,2.1Z"/>
            <path id="Shape-3" data-name="Shape" d="M48.182,48.437a3.125,3.125,0,0,0-1.338-.652A16.8,16.8,0,0,0,31.5,24.15a3.15,3.15,0,0,0,0,6.3A10.5,10.5,0,0,1,41.757,43.19a3.142,3.142,0,0,0-2.445-1.155,2.116,2.116,0,0,0-.3.015,3.131,3.131,0,0,0-2.835,3.422l.588,6.277A3.15,3.15,0,0,0,39.884,54.6a2.111,2.111,0,0,0,.315-.016L46.465,54a3.15,3.15,0,0,0,1.719-5.565Zm-1.2,3.1a1.036,1.036,0,0,1-.711.375L40,52.5a1.041,1.041,0,0,1-1.139-.945l-.589-6.286a1.016,1.016,0,0,1,.229-.754,1.1,1.1,0,0,1,.816-.38,1.05,1.05,0,0,1,1.05.95l.158,1.649a1.05,1.05,0,0,0,1.96.414A12.6,12.6,0,0,0,31.5,28.35a1.05,1.05,0,1,1,0-2.1A14.7,14.7,0,0,1,44.219,48.321a1.05,1.05,0,0,0,.024,1.089,1.028,1.028,0,0,0,.975.482l.857-.074a1.05,1.05,0,0,1,.768.235,1.062,1.062,0,0,1,.138,1.478Z"/>
          </g>
        </g>
      </g>
    </g>
  </g>
</svg>
