<svg xmlns="http://www.w3.org/2000/svg" xmlns:xlink="http://www.w3.org/1999/xlink" width="109.999" height="102" viewBox="0 0 109.999 102">
  <defs>
    <clipPath id="clip-path">
      <rect id="Rectángulo_33856" data-name="Rectángulo 33856" width="85" height="85" transform="translate(855 14961)" fill="#fff" stroke="#707070" stroke-width="1"/>
    </clipPath>
  </defs>
  <g id="Grupo_84766" data-name="Grupo 84766" transform="translate(-855 -15445)">
    <circle id="Elipse_4739" data-name="Elipse 4739" cx="51" cy="51" r="51" transform="translate(862.999 15445)" fill="#2ff980"/>
    <g id="Enmascarar_grupo_54" data-name="Enmascarar grupo 54" transform="translate(0 484)" clip-path="url(#clip-path)">
      <g id="pulgar-hacia-abajo" transform="translate(853.631 14959.959)">
        <g id="Grupo_80233" data-name="Grupo 80233">
          <path id="Trazado_113654" data-name="Trazado 113654" d="M12.323,4.108H4.108A1.373,1.373,0,0,0,2.738,5.477V30.122a1.373,1.373,0,0,0,1.369,1.369h8.215a1.373,1.373,0,0,0,1.369-1.369V5.477A1.373,1.373,0,0,0,12.323,4.108Z" fill="#ccd1d9"/>
          <path id="Trazado_113655" data-name="Trazado 113655" d="M64.351,19.169a4.108,4.108,0,0,1,0,8.215H50.66a4.108,4.108,0,0,1,0-8.215Z" fill="#f0d0b4"/>
          <path id="Trazado_113656" data-name="Trazado 113656" d="M64.351,27.384a4.108,4.108,0,0,1,0,8.215H50.66a4.108,4.108,0,0,1,0-8.215Z" fill="#f0d0b4"/>
          <path id="Trazado_113657" data-name="Trazado 113657" d="M64.351,2.738a4.108,4.108,0,0,1,0,8.215H50.66a4.108,4.108,0,0,1,0-8.215H64.351Z" fill="#f0d0b4"/>
          <path id="Trazado_113658" data-name="Trazado 113658" d="M46.552,31.491A4.1,4.1,0,0,0,50.66,35.6H43.745a7.979,7.979,0,0,1,.041.808l.11,12.706a6.857,6.857,0,0,1-6.791,6.9,1.382,1.382,0,0,1-1.383-1.355l-.041-6.038a11.586,11.586,0,0,0-7.12-10.611,11.511,11.511,0,0,1-4.381-3.19L19.908,29.78a2.737,2.737,0,0,0-2.136-.972l-4.08-.055V6.846h9.023A2.934,2.934,0,0,0,23.8,6.627L32.34,2.957a2.934,2.934,0,0,1,1.082-.219H50.66a4.108,4.108,0,0,0,0,8.215,4.108,4.108,0,0,0,0,8.215,4.108,4.108,0,1,0,0,8.215,4.114,4.114,0,0,0-4.108,4.108Z" fill="#f0d0b4"/>
          <path id="Trazado_113659" data-name="Trazado 113659" d="M64.351,10.953a4.108,4.108,0,0,1,0,8.215H50.66a4.108,4.108,0,0,1,0-8.215Z" fill="#f0d0b4"/>
          <path id="Trazado_113660" data-name="Trazado 113660" d="M83.52,69.828,72.566,83.52,61.613,69.828H67.09V39.706H78.043V69.828Z" fill="#fcd770"/>
        </g>
        <g id="Grupo_80234" data-name="Grupo 80234">
          <path id="Trazado_113661" data-name="Trazado 113661" d="M64.351,36.968a5.454,5.454,0,0,0,3.585-9.584,5.4,5.4,0,0,0,0-8.215,5.4,5.4,0,0,0,0-8.215,5.454,5.454,0,0,0-3.585-9.584H33.422A4.089,4.089,0,0,0,31.8,1.7L23.254,5.366a1.359,1.359,0,0,1-.539.111H15.061a2.741,2.741,0,0,0-2.738-2.738H4.108A2.741,2.741,0,0,0,1.369,5.477V30.122A2.741,2.741,0,0,0,4.108,32.86h8.215A2.742,2.742,0,0,0,15.06,30.14l2.736.037h.027a1.361,1.361,0,0,1,1.043.485L23.139,35.7a13.015,13.015,0,0,0,4.891,3.576,10.2,10.2,0,0,1,6.282,9.358l.042,6.03a2.737,2.737,0,0,0,2.736,2.716h.026a8.225,8.225,0,0,0,8.144-8.286l-.105-12.127h19.2Zm2.738-5.477a2.741,2.741,0,0,1-2.738,2.738H50.66a2.738,2.738,0,0,1,0-5.477H64.351A2.741,2.741,0,0,1,67.09,31.491Zm0-8.215a2.741,2.741,0,0,1-2.738,2.738H50.66a2.738,2.738,0,0,1,0-5.477H64.351A2.741,2.741,0,0,1,67.09,23.276Zm0-8.215A2.741,2.741,0,0,1,64.351,17.8H50.66a2.738,2.738,0,0,1,0-5.477H64.351A2.741,2.741,0,0,1,67.09,15.061ZM53.4,4.108H64.351a2.738,2.738,0,0,1,0,5.477H50.66a2.738,2.738,0,0,1,0-5.477ZM9.584,30.122V24.645H6.846v5.477H4.108V5.477H6.846v16.43H9.584V5.477h2.738V30.122ZM37.092,54.645l-.042-6.03a12.936,12.936,0,0,0-7.966-11.867,10.264,10.264,0,0,1-3.856-2.821L20.955,28.89a4.108,4.108,0,0,0-3.166-1.451L15.061,27.4V8.215h7.654a4.089,4.089,0,0,0,1.617-.333l8.551-3.664a1.359,1.359,0,0,1,.539-.111H45.944a5.367,5.367,0,0,0,1.131,6.846,5.4,5.4,0,0,0,0,8.215,5.4,5.4,0,0,0,0,8.215,5.367,5.367,0,0,0-1.131,6.846h-.953A18.485,18.485,0,0,0,34.765,19.917l-4.179-2.044-1.2,2.46,4.179,2.044A15.8,15.8,0,0,1,42.41,36.424l.11,12.7A5.487,5.487,0,0,1,37.092,54.645Z"/>
          <path id="Trazado_113662" data-name="Trazado 113662" d="M79.412,68.459V50.66H76.674V71.2h4l-8.1,10.131L64.462,71.2h4V56.136H65.721V68.459H58.764l13.8,17.253,13.8-17.253Z"/>
          <rect id="Rectángulo_33857" data-name="Rectángulo 33857" width="2.738" height="2.738" transform="translate(65.721 50.66)"/>
          <rect id="Rectángulo_33858" data-name="Rectángulo 33858" width="2.738" height="2.738" transform="translate(65.721 45.183)"/>
          <rect id="Rectángulo_33859" data-name="Rectángulo 33859" width="2.738" height="2.738" transform="translate(65.721 39.706)"/>
        </g>
      </g>
    </g>
  </g>
</svg>
