<svg xmlns="http://www.w3.org/2000/svg" xmlns:xlink="http://www.w3.org/1999/xlink" width="63" height="63" viewBox="0 0 63 63">
  <defs>
    <clipPath id="clip-path">
      <rect id="Rectángulo_33879" data-name="Rectángulo 33879" width="63" height="63" transform="translate(296 16054)" fill="#40327b" stroke="#707070" stroke-width="1"/>
    </clipPath>
  </defs>
  <g id="Enmascarar_grupo_61" data-name="Enmascarar grupo 61" transform="translate(-296 -16054)" clip-path="url(#clip-path)">
    <g id="escoger" transform="translate(296 16054)">
      <g id="Grupo_80248" data-name="Grupo 80248">
        <path id="Trazado_113736" data-name="Trazado 113736" d="M17.065,18.278a2.461,2.461,0,0,1-3.48,0L10.4,15.091a2.461,2.461,0,1,1,3.48-3.48l1.447,1.447,4.266-4.266a2.461,2.461,0,1,1,3.48,3.48Zm-.33,7.562a12.3,12.3,0,0,0,4.888-1.012,2.884,2.884,0,0,1,2.792-2.433,2.688,2.688,0,0,1,.748.106,12.3,12.3,0,1,0-8.428,3.339Z" fill="#cbe558" fill-rule="evenodd"/>
        <path id="Trazado_113737" data-name="Trazado 113737" d="M13.585,18.278a2.461,2.461,0,0,0,3.48,0l6.006-6.006a2.461,2.461,0,1,0-3.48-3.48l-4.266,4.266-1.447-1.447a2.461,2.461,0,1,0-3.48,3.48Z" fill="#fff" fill-rule="evenodd"/>
        <path id="Trazado_113738" data-name="Trazado 113738" d="M41.045,11.795l1.74,1.74-1.74,1.74a2.461,2.461,0,1,0,3.48,3.48l1.74-1.74,1.74,1.74a2.461,2.461,0,1,0,3.48-3.48l-1.74-1.74,1.74-1.74a2.461,2.461,0,1,0-3.48-3.48l-1.74,1.74-1.74-1.74a2.461,2.461,0,0,0-3.48,3.48Z" fill="#fff" fill-rule="evenodd"/>
        <path id="Trazado_113739" data-name="Trazado 113739" d="M42.785,13.535l-1.74-1.74a2.461,2.461,0,1,1,3.48-3.48l1.74,1.74,1.74-1.74a2.461,2.461,0,1,1,3.48,3.48l-1.74,1.74,1.74,1.74a2.461,2.461,0,1,1-3.48,3.48l-1.74-1.74-1.74,1.74a2.461,2.461,0,0,1-3.48-3.48Zm15.785,0a12.3,12.3,0,1,0-12.3,12.3A12.3,12.3,0,0,0,58.57,13.535Z" fill="#ff5d7d" fill-rule="evenodd"/>
        <path id="Trazado_113740" data-name="Trazado 113740" d="M21.577,41.469c-1.483.607-2.31.86-3.061,2.414-.7,1.457-1.356,4.479-.776,6.033,2.273,6.091,5.718,5.807,5.769,11.854H41.4c.017-3.4,2.878-8.735,2.878-12.135V41.311c0-4.245-4.565-5.391-5.93-3.972h0A3.873,3.873,0,0,0,32.891,35.7h0c-1.109-2.246-4.6-2.507-5.434-1.011l-.2-9.335A3,3,0,0,0,25.162,22.5a2.683,2.683,0,0,0-.748-.106,2.884,2.884,0,0,0-2.792,2.433,3.071,3.071,0,0,0-.045.527Z" fill="#ffdcd5" fill-rule="evenodd"/>
      </g>
      <g id="Grupo_80249" data-name="Grupo 80249">
        <path id="Trazado_113741" data-name="Trazado 113741" d="M41.991,35.93a4.909,4.909,0,0,0-3.232-.222,4.961,4.961,0,0,0-1.612-1.239,5.245,5.245,0,0,0-3.867-.342,4.956,4.956,0,0,0-2.445-1.437,5.059,5.059,0,0,0-2.2-.094l-.158-7.27a4.329,4.329,0,0,0-1.369-3.105A13.538,13.538,0,0,0,12.328.734a1.23,1.23,0,1,0,.8,2.327A11.075,11.075,0,0,1,24.746,21.179c-.11-.009-.22-.015-.332-.015a4.083,4.083,0,0,0-3.819,2.748A11.078,11.078,0,0,1,6.26,9.931a1.23,1.23,0,1,0-2.327-.8A13.539,13.539,0,0,0,20.346,26.58V40.643a4.96,4.96,0,0,0-2.939,2.7c-.812,1.681-1.549,5.048-.821,7a18.158,18.158,0,0,0,3.4,5.659,7.62,7.62,0,0,1,2.289,5.774A1.23,1.23,0,0,0,23.509,63H41.4a1.231,1.231,0,0,0,1.23-1.224A21.834,21.834,0,0,1,44,56.111a23.016,23.016,0,0,0,1.5-6.477V41.311a5.578,5.578,0,0,0-3.514-5.38Zm1.053,13.7a21.667,21.667,0,0,1-1.379,5.709,32.025,32.025,0,0,0-1.4,5.2H24.68a9.953,9.953,0,0,0-2.791-6.1,15.613,15.613,0,0,1-3-4.955c-.4-1.08.065-3.689.731-5.067a2.661,2.661,0,0,1,.723-.992v3.7a1.23,1.23,0,0,0,2.461,0V25.354a1.673,1.673,0,0,1,1.607-1.729,1.717,1.717,0,0,1,1.607,1.756L26.3,38.427a1.23,1.23,0,0,0,2.46-.054l-.07-3.228a2.224,2.224,0,0,1,1.524-.072A2.185,2.185,0,0,1,32,37.223a1.23,1.23,0,0,0,2.461,0,4.837,4.837,0,0,0-.072-.835,3.02,3.02,0,0,1,1.68.293,2.162,2.162,0,0,1,1.3,1.967,1.23,1.23,0,0,0,2.461,0A4.7,4.7,0,0,0,39.786,38a2.829,2.829,0,0,1,1.285.213,3.143,3.143,0,0,1,1.973,3.1v8.323Z"/>
        <path id="Trazado_113742" data-name="Trazado 113742" d="M46.266,0A13.535,13.535,0,1,0,59.8,13.535,13.55,13.55,0,0,0,46.266,0Zm0,24.609A11.074,11.074,0,1,1,57.34,13.535,11.087,11.087,0,0,1,46.266,24.609Z"/>
        <path id="Trazado_113743" data-name="Trazado 113743" d="M51.486,13.535l.87-.87a3.691,3.691,0,0,0-5.22-5.22l-.87.87-.87-.87a3.691,3.691,0,0,0-5.22,5.22l.87.87-.87.87a3.691,3.691,0,0,0,5.22,5.22l.87-.87.87.87a3.691,3.691,0,0,0,5.22-5.22Zm-.87,4.35a1.232,1.232,0,0,1-1.74,0l-1.74-1.74a1.23,1.23,0,0,0-1.74,0l-1.74,1.74a1.23,1.23,0,0,1-1.74-1.74l1.74-1.74a1.231,1.231,0,0,0,0-1.74l-1.74-1.74a1.23,1.23,0,0,1,1.74-1.74l1.74,1.74a1.231,1.231,0,0,0,1.74,0l1.74-1.74a1.23,1.23,0,0,1,1.74,1.74l-1.74,1.74a1.231,1.231,0,0,0,0,1.74l1.74,1.74a1.232,1.232,0,0,1,0,1.74Z"/>
        <path id="Trazado_113744" data-name="Trazado 113744" d="M9.528,15.961l3.187,3.187a3.691,3.691,0,0,0,5.22,0l6.006-6.006a3.691,3.691,0,0,0-5.22-5.22l-3.4,3.4-.577-.577a3.691,3.691,0,0,0-5.22,5.22Zm1.74-3.48a1.231,1.231,0,0,1,1.74,0l1.447,1.447a1.231,1.231,0,0,0,1.74,0l4.266-4.266A1.23,1.23,0,0,1,22.2,11.4l-6.006,6.006a1.23,1.23,0,0,1-1.74,0l-3.187-3.187a1.232,1.232,0,0,1,0-1.74Z"/>
        <path id="Trazado_113745" data-name="Trazado 113745" d="M8.033,6.065a1.231,1.231,0,1,0-.91-2.058h0a1.23,1.23,0,0,0,.91,2.058Z"/>
      </g>
    </g>
  </g>
</svg>
