<svg xmlns="http://www.w3.org/2000/svg" width="295" height="298" viewBox="0 0 295 298">
  <g id="Grupo_84766" data-name="Grupo 84766" transform="translate(6418 -6465)">
    <g id="Grupo_84730" data-name="Grupo 84730">
      <rect id="Rectángulo_33898" data-name="Rectángulo 33898" width="295" height="298" rx="20" transform="translate(-6418 6465)" fill="#583ae2"/>
      <path id="Trazado_122047" data-name="Trazado 122047" d="M27.868,14.658V19H24.783V6.2H29.89a5.948,5.948,0,0,1,2.6.541,4.074,4.074,0,0,1,1.749,1.538,4.2,4.2,0,0,1,.62,2.263,3.7,3.7,0,0,1-1.34,2.993,5.561,5.561,0,0,1-3.678,1.121Zm0-2.382H29.89a1.906,1.906,0,0,0,1.367-.448,1.665,1.665,0,0,0,.47-1.266,2.059,2.059,0,0,0-.483-1.433,1.712,1.712,0,0,0-1.318-.545H27.868ZM39.487,19H36.517V5.5h2.971Zm7.181,0a3.344,3.344,0,0,1-.281-.853A2.754,2.754,0,0,1,44.1,19.176a3.374,3.374,0,0,1-2.285-.813,2.588,2.588,0,0,1-.94-2.043,2.66,2.66,0,0,1,1.143-2.338,5.821,5.821,0,0,1,3.322-.791h.914v-.5q0-1.316-1.134-1.316a.927.927,0,0,0-1.055,1.042H41.1a2.655,2.655,0,0,1,1.173-2.239,4.931,4.931,0,0,1,2.993-.86,4.323,4.323,0,0,1,2.874.888,3.086,3.086,0,0,1,1.081,2.435v4.21a4.311,4.311,0,0,0,.4,2V19Zm-1.854-1.934a1.652,1.652,0,0,0,.918-.237,1.487,1.487,0,0,0,.523-.536V14.772h-.861q-1.547,0-1.547,1.389a.848.848,0,0,0,.272.655A.986.986,0,0,0,44.813,17.066Zm9.5-9.94V9.49h1.564v2.057H54.314V15.9a1.111,1.111,0,0,0,.193.747,1.037,1.037,0,0,0,.765.211,4.345,4.345,0,0,0,.738-.053v2.118a5.466,5.466,0,0,1-1.67.255,3.1,3.1,0,0,1-2.259-.721,2.954,2.954,0,0,1-.729-2.188v-4.72H50.14V9.49h1.213V7.126ZM62.4,19a3.344,3.344,0,0,1-.281-.853,2.754,2.754,0,0,1-2.285,1.028,3.374,3.374,0,0,1-2.285-.813,2.588,2.588,0,0,1-.94-2.043,2.66,2.66,0,0,1,1.143-2.338,5.821,5.821,0,0,1,3.322-.791h.914v-.5q0-1.316-1.134-1.316A.927.927,0,0,0,59.8,12.413H56.837a2.655,2.655,0,0,1,1.173-2.239A4.931,4.931,0,0,1,61,9.314a4.323,4.323,0,0,1,2.874.888,3.086,3.086,0,0,1,1.081,2.435v4.21a4.311,4.311,0,0,0,.4,2V19Zm-1.854-1.934a1.652,1.652,0,0,0,.918-.237,1.487,1.487,0,0,0,.523-.536V14.772h-.861q-1.547,0-1.547,1.389a.848.848,0,0,0,.272.655A.986.986,0,0,0,60.546,17.066ZM67.252,19V11.547h-1.38V9.49h1.38V8.734a3.286,3.286,0,0,1,.958-2.522,3.785,3.785,0,0,1,2.689-.9,5.89,5.89,0,0,1,1.389.185L72.3,7.68a2.706,2.706,0,0,0-.729-.079q-1.345,0-1.345,1.16V9.49h1.854v2.057H70.223V19Zm5.493-4.843a5.613,5.613,0,0,1,.554-2.536A3.96,3.96,0,0,1,74.89,9.912a4.791,4.791,0,0,1,2.435-.6,4.373,4.373,0,0,1,3.366,1.323,5.076,5.076,0,0,1,1.23,3.6v.105a4.925,4.925,0,0,1-1.235,3.529,4.384,4.384,0,0,1-3.344,1.305,4.434,4.434,0,0,1-3.261-1.217,4.761,4.761,0,0,1-1.327-3.3Zm2.962.185a3.538,3.538,0,0,0,.413,1.934,1.376,1.376,0,0,0,1.222.615q1.582,0,1.617-2.435v-.3q0-2.558-1.635-2.558-1.485,0-1.608,2.206Zm13.271-2.171L88,12.1a1.752,1.752,0,0,0-1.793.879V19H83.248V9.49h2.777l.1,1.222a2.294,2.294,0,0,1,2.083-1.4,2.888,2.888,0,0,1,.826.105ZM92.846,9.49l.1,1.116a3.27,3.27,0,0,1,2.716-1.292,2.407,2.407,0,0,1,2.435,1.433,3.165,3.165,0,0,1,2.795-1.433q2.892,0,2.971,3.5V19h-2.971V13a1.813,1.813,0,0,0-.246-1.063,1.048,1.048,0,0,0-.9-.334,1.4,1.4,0,0,0-1.31.782l.009.123V19H95.474V13.015a1.906,1.906,0,0,0-.237-1.081,1.045,1.045,0,0,0-.905-.334,1.42,1.42,0,0,0-1.3.782V19H90.068V9.49ZM110.907,19a3.344,3.344,0,0,1-.281-.853,2.754,2.754,0,0,1-2.285,1.028,3.374,3.374,0,0,1-2.285-.813,2.588,2.588,0,0,1-.94-2.043,2.66,2.66,0,0,1,1.143-2.338,5.821,5.821,0,0,1,3.322-.791h.914v-.5q0-1.316-1.134-1.316a.927.927,0,0,0-1.055,1.042h-2.962a2.655,2.655,0,0,1,1.173-2.239,4.931,4.931,0,0,1,2.993-.86,4.323,4.323,0,0,1,2.874.888,3.086,3.086,0,0,1,1.081,2.435v4.21a4.311,4.311,0,0,0,.4,2V19Zm-1.854-1.934a1.652,1.652,0,0,0,.918-.237,1.487,1.487,0,0,0,.523-.536V14.772h-.861q-1.547,0-1.547,1.389a.848.848,0,0,0,.272.655A.986.986,0,0,0,109.053,17.066Zm18.976-2.8a6.891,6.891,0,0,1-1.362,3.639,3.409,3.409,0,0,1-2.865,1.283,2.522,2.522,0,0,1-2.162-1.178l-.36.993h-2.619l2.347-13.5H123.9l-.94,4.772a2.87,2.87,0,0,1,2.136-.958,2.679,2.679,0,0,1,2.18,1,4.351,4.351,0,0,1,.826,2.667,9.674,9.674,0,0,1-.044,1.1Zm-2.874-.171a9.1,9.1,0,0,0,.079-1.018q0-1.413-1.011-1.474a1.732,1.732,0,0,0-1.5.763l-.686,3.791a1.163,1.163,0,0,0,1.2.746q1.415.044,1.784-1.843l.123-.781ZM133.917,19a2.578,2.578,0,0,1-.123-.861,2.933,2.933,0,0,1-2.329,1.037,2.866,2.866,0,0,1-2.057-.826,2.483,2.483,0,0,1-.765-1.96,2.79,2.79,0,0,1,1.292-2.377,6.091,6.091,0,0,1,3.41-.831l.967.018.105-.536.035-.466a.755.755,0,0,0-.8-.826,1.111,1.111,0,0,0-1.169,1.046l-2.9.009a2.754,2.754,0,0,1,.624-1.666,3.7,3.7,0,0,1,1.578-1.09,5.512,5.512,0,0,1,2.123-.356,4.251,4.251,0,0,1,1.894.453,2.82,2.82,0,0,1,1.217,1.187,3.031,3.031,0,0,1,.308,1.753l-.712,4.474-.044.545a2.4,2.4,0,0,0,.167,1.107l-.009.167Zm-1.652-1.916a1.865,1.865,0,0,0,1.556-.782l.29-1.529-.747-.009a1.969,1.969,0,0,0-1.2.409,1.55,1.55,0,0,0-.589,1.068.778.778,0,0,0,.136.593A.7.7,0,0,0,132.265,17.084Zm10.046-.193a1.244,1.244,0,0,0,.976-.345,1.717,1.717,0,0,0,.448-.938l2.707-.009a3.559,3.559,0,0,1-.62,1.872,3.745,3.745,0,0,1-1.529,1.279,4.521,4.521,0,0,1-2.061.426,3.57,3.57,0,0,1-2.927-1.367,4.726,4.726,0,0,1-.835-3.441l.026-.211A6.371,6.371,0,0,1,139.3,11.6a4.626,4.626,0,0,1,1.709-1.718,4.433,4.433,0,0,1,2.369-.571,3.536,3.536,0,0,1,2.624,1.059,3.755,3.755,0,0,1,.927,2.764l-2.707-.009q.044-1.5-1.081-1.529-1.529-.053-1.758,2.567l-.079.893-.009.333Q141.3,16.864,142.311,16.891Zm9.167-1.4-1.055.914L149.975,19h-2.892L149.43,5.491h2.892L150.985,12.7l.352-.422,2.628-2.786h3.665l-4.043,4.043L156.039,19h-3.173Zm11.61-.87h-5.142l.4-2.285h5.142Zm6.275,4.553a4.421,4.421,0,0,1-2.272-.6,3.793,3.793,0,0,1-1.507-1.652,4.44,4.44,0,0,1-.4-2.333l.026-.246a5.829,5.829,0,0,1,1.63-3.713,4.51,4.51,0,0,1,3.415-1.314,3.678,3.678,0,0,1,2.092.621,3.468,3.468,0,0,1,1.274,1.664,5.1,5.1,0,0,1,.264,2.381l-.167,1.206h-5.66a1.854,1.854,0,0,0,.422,1.213,1.549,1.549,0,0,0,1.178.492,2.993,2.993,0,0,0,2.259-.967l1.213,1.6a3.578,3.578,0,0,1-1.5,1.2,5.263,5.263,0,0,1-2.1.451Zm.7-7.576a1.487,1.487,0,0,0-1.068.385,3.229,3.229,0,0,0-.787,1.347H171.1l.053-.254a1.929,1.929,0,0,0,.018-.577A1.017,1.017,0,0,0,170.066,11.6Zm8.455-2.118-.2,1.143a3.38,3.38,0,0,1,2.751-1.318,2.27,2.27,0,0,1,1.964.98,4.1,4.1,0,0,1,.47,2.729L182.5,19h-2.9l1.011-6.01a3.108,3.108,0,0,0,.018-.563q-.062-.836-.984-.836a1.807,1.807,0,0,0-1.4.678L177.063,19h-2.892l1.652-9.51Zm6.117,4.746a6.917,6.917,0,0,1,1.371-3.6,3.4,3.4,0,0,1,2.865-1.31,2.592,2.592,0,0,1,2.013,1.02l.923-4.834h2.9L192.373,19H189.8l.123-1.028a2.968,2.968,0,0,1-2.364,1.213,2.62,2.62,0,0,1-2.149-1.015,4.476,4.476,0,0,1-.831-2.676,8.231,8.231,0,0,1,.035-1.081Zm2.883.2a6.9,6.9,0,0,0-.062.984q0,1.459.984,1.485a1.844,1.844,0,0,0,1.521-.817l.65-3.647a1.171,1.171,0,0,0-1.16-.835,1.478,1.478,0,0,0-1.305.7A4.507,4.507,0,0,0,187.521,14.43Z" transform="translate(-6379 6716)" fill="#fff"/>
      <path id="Trazado_121824" data-name="Trazado 121824" d="M102.5,0A102.5,102.5,0,1,1,0,102.5,102.5,102.5,0,0,1,102.5,0Z" transform="translate(-6372.5 6488.5)" fill="#c7ffdd"/>
      <g id="Grupo_84403" data-name="Grupo 84403" transform="translate(-6670.258 6007.025)">
        <g id="Grupo_84247" data-name="Grupo 84247" transform="translate(346.882 669.319)">
          <path id="Trazado_121827" data-name="Trazado 121827" d="M800.423,1315.754H659.479V1338.1h107.6Z" transform="translate(-659.479 -1315.754)" fill="#826be9"/>
        </g>
        <g id="Grupo_84258" data-name="Grupo 84258" transform="translate(356.851 502.592)">
          <g id="Grupo_84248" data-name="Grupo 84248" transform="translate(0 0)">
            <rect id="Rectángulo_34520" data-name="Rectángulo 34520" width="84.91" height="52.94" rx="4" fill="#ab9df1"/>
          </g>
          <g id="Grupo_84257" data-name="Grupo 84257" transform="translate(12.719 11.344)">
            <g id="Grupo_84249" data-name="Grupo 84249">
              <rect id="Rectángulo_34521" data-name="Rectángulo 34521" width="11.001" height="30.252" fill="#826be9"/>
            </g>
            <g id="Grupo_84250" data-name="Grupo 84250" transform="translate(0 17.532)">
              <rect id="Rectángulo_34522" data-name="Rectángulo 34522" width="11.001" height="12.719" fill="#583ae2"/>
            </g>
            <g id="Grupo_84251" data-name="Grupo 84251" transform="translate(16.157)">
              <rect id="Rectángulo_34523" data-name="Rectángulo 34523" width="11.001" height="30.252" fill="#826be9"/>
            </g>
            <g id="Grupo_84252" data-name="Grupo 84252" transform="translate(16.157 8.594)">
              <rect id="Rectángulo_34524" data-name="Rectángulo 34524" width="11.001" height="21.657" fill="#d5cef8"/>
            </g>
            <g id="Grupo_84253" data-name="Grupo 84253" transform="translate(32.314)">
              <rect id="Rectángulo_34525" data-name="Rectángulo 34525" width="11.001" height="30.252" fill="#d5cef8"/>
            </g>
            <g id="Grupo_84254" data-name="Grupo 84254" transform="translate(32.314 25.439)">
              <rect id="Rectángulo_34526" data-name="Rectángulo 34526" width="11.001" height="4.813" fill="#583ae2"/>
            </g>
            <g id="Grupo_84255" data-name="Grupo 84255" transform="translate(48.471)">
              <rect id="Rectángulo_34527" data-name="Rectángulo 34527" width="11.001" height="30.252" fill="#d5cef8"/>
            </g>
            <g id="Grupo_84256" data-name="Grupo 84256" transform="translate(48.471 17.532)">
              <rect id="Rectángulo_34528" data-name="Rectángulo 34528" width="11.001" height="12.719" fill="#826be9"/>
            </g>
          </g>
        </g>
        <g id="Grupo_84289" data-name="Grupo 84289" transform="translate(292.223 533.359)">
          <g id="Grupo_84259" data-name="Grupo 84259" transform="translate(0 6.36)">
            <rect id="Rectángulo_34529" data-name="Rectángulo 34529" width="82.848" height="106.912" fill="#826be9"/>
          </g>
          <g id="Grupo_84260" data-name="Grupo 84260" transform="translate(0 0)">
            <path id="Rectángulo_34530" data-name="Rectángulo 34530" d="M6,0H74.848a8,8,0,0,1,8,8v5.751a0,0,0,0,1,0,0H0a0,0,0,0,1,0,0V6A6,6,0,0,1,6,0Z" fill="#40327b"/>
          </g>
          <g id="Grupo_84261" data-name="Grupo 84261" transform="translate(5.488 21.703)">
            <path id="Trazado_121828" data-name="Trazado 121828" d="M426.78,841.713h-7.116V758.5h7.116v.482h-6.634v82.251h6.634Z" transform="translate(-419.664 -758.498)" fill="#f1ead7"/>
          </g>
          <g id="Grupo_84262" data-name="Grupo 84262" transform="translate(5.729 38.433)">
            <rect id="Rectángulo_34531" data-name="Rectángulo 34531" width="6.875" height="0.482" fill="#f1ead7"/>
          </g>
          <g id="Grupo_84263" data-name="Grupo 84263" transform="translate(5.729 58.543)">
            <rect id="Rectángulo_34532" data-name="Rectángulo 34532" width="6.875" height="0.482" fill="#f1ead7"/>
          </g>
          <g id="Grupo_84264" data-name="Grupo 84264" transform="translate(5.729 74.7)">
            <rect id="Rectángulo_34533" data-name="Rectángulo 34533" width="6.875" height="0.482" fill="#f1ead7"/>
          </g>
          <g id="Grupo_84265" data-name="Grupo 84265" transform="translate(14.025 20.385)">
            <path id="Trazado_121829" data-name="Trazado 121829" d="M462.83,755.131a1.53,1.53,0,1,1,1.53-1.53A1.532,1.532,0,0,1,462.83,755.131Zm0-2.578a1.048,1.048,0,1,0,1.048,1.048A1.049,1.049,0,0,0,462.83,752.553Z" transform="translate(-461.3 -752.071)" fill="#f1ead7"/>
          </g>
          <g id="Grupo_84266" data-name="Grupo 84266" transform="translate(14.025 37.144)">
            <path id="Trazado_121830" data-name="Trazado 121830" d="M462.83,836.867a1.53,1.53,0,1,1,1.53-1.53A1.532,1.532,0,0,1,462.83,836.867Zm0-2.578a1.048,1.048,0,1,0,1.048,1.048A1.049,1.049,0,0,0,462.83,834.289Z" transform="translate(-461.3 -833.807)" fill="#f1ead7"/>
          </g>
          <g id="Grupo_84267" data-name="Grupo 84267" transform="translate(14.025 57.254)">
            <path id="Trazado_121831" data-name="Trazado 121831" d="M462.83,934.949a1.53,1.53,0,1,1,1.53-1.53A1.532,1.532,0,0,1,462.83,934.949Zm0-2.578a1.048,1.048,0,1,0,1.048,1.048A1.049,1.049,0,0,0,462.83,932.37Z" transform="translate(-461.3 -931.888)" fill="#f1ead7"/>
          </g>
          <g id="Grupo_84268" data-name="Grupo 84268" transform="translate(14.025 73.411)">
            <path id="Trazado_121832" data-name="Trazado 121832" d="M462.83,1013.75a1.53,1.53,0,1,1,1.53-1.53A1.532,1.532,0,0,1,462.83,1013.75Zm0-2.578a1.048,1.048,0,1,0,1.048,1.048A1.049,1.049,0,0,0,462.83,1011.171Z" transform="translate(-461.3 -1010.689)" fill="#f1ead7"/>
          </g>
          <g id="Grupo_84269" data-name="Grupo 84269" transform="translate(14.025 103.405)">
            <path id="Trazado_121833" data-name="Trazado 121833" d="M462.83,1160.036a1.53,1.53,0,1,1,1.53-1.53A1.532,1.532,0,0,1,462.83,1160.036Zm0-2.578a1.048,1.048,0,1,0,1.048,1.048A1.049,1.049,0,0,0,462.83,1157.457Z" transform="translate(-461.3 -1156.975)" fill="#f1ead7"/>
          </g>
          <g id="Grupo_84270" data-name="Grupo 84270" transform="translate(21.084 19.881)">
            <path id="Trazado_121834" data-name="Trazado 121834" d="M503.978,753.739h-6.188a2.063,2.063,0,0,1-2.063-2.063h0a2.063,2.063,0,0,1,2.063-2.063h6.188a2.063,2.063,0,0,1,2.063,2.063h0A2.063,2.063,0,0,1,503.978,753.739Z" transform="translate(-495.728 -749.614)" fill="#d5cef8"/>
          </g>
          <g id="Grupo_84271" data-name="Grupo 84271" transform="translate(61.878 19.881)">
            <path id="Trazado_121835" data-name="Trazado 121835" d="M699.73,753.739H696.75a2.063,2.063,0,0,1-2.062-2.063h0a2.063,2.063,0,0,1,2.063-2.063h2.979a2.063,2.063,0,0,1,2.063,2.063h0A2.063,2.063,0,0,1,699.73,753.739Z" transform="translate(-694.688 -749.614)" fill="#583ae2"/>
          </g>
          <g id="Grupo_84272" data-name="Grupo 84272" transform="translate(38.731 19.881)">
            <path id="Trazado_121836" data-name="Trazado 121836" d="M597.379,753.739H583.858a2.063,2.063,0,0,1-2.063-2.063h0a2.063,2.063,0,0,1,2.063-2.063h13.521a2.063,2.063,0,0,1,2.063,2.063h0A2.063,2.063,0,0,1,597.379,753.739Z" transform="translate(-581.795 -749.614)" fill="#583ae2"/>
          </g>
          <g id="Grupo_84273" data-name="Grupo 84273" transform="translate(21.084 36.153)">
            <path id="Trazado_121837" data-name="Trazado 121837" d="M503.978,833.1h-6.188a2.063,2.063,0,0,1-2.063-2.063h0a2.063,2.063,0,0,1,2.063-2.063h6.188a2.063,2.063,0,0,1,2.063,2.063h0A2.063,2.063,0,0,1,503.978,833.1Z" transform="translate(-495.728 -828.974)" fill="#d5cef8"/>
          </g>
          <g id="Grupo_84274" data-name="Grupo 84274" transform="translate(54.315 36.153)">
            <path id="Trazado_121838" data-name="Trazado 121838" d="M670.407,833.1H659.865a2.063,2.063,0,0,1-2.063-2.063h0a2.063,2.063,0,0,1,2.063-2.063h10.542a2.063,2.063,0,0,1,2.063,2.063h0A2.063,2.063,0,0,1,670.407,833.1Z" transform="translate(-657.802 -828.974)" fill="#583ae2"/>
          </g>
          <g id="Grupo_84275" data-name="Grupo 84275" transform="translate(34.377 36.153)">
            <path id="Trazado_121839" data-name="Trazado 121839" d="M575.684,833.1H562.621a2.063,2.063,0,0,1-2.063-2.063h0a2.063,2.063,0,0,1,2.063-2.063h13.063a2.063,2.063,0,0,1,2.063,2.063h0A2.063,2.063,0,0,1,575.684,833.1Z" transform="translate(-560.558 -828.974)" fill="#583ae2"/>
          </g>
          <g id="Grupo_84276" data-name="Grupo 84276" transform="translate(21.084 56.779)">
            <path id="Trazado_121840" data-name="Trazado 121840" d="M508.5,933.7H497.791a2.063,2.063,0,0,1-2.063-2.062h0a2.063,2.063,0,0,1,2.063-2.062H508.5a2.063,2.063,0,0,1,2.063,2.063h0A2.063,2.063,0,0,1,508.5,933.7Z" transform="translate(-495.728 -929.572)" fill="#2ff980"/>
          </g>
          <g id="Grupo_84277" data-name="Grupo 84277" transform="translate(50.018 56.779)">
            <path id="Trazado_121841" data-name="Trazado 121841" d="M653.746,933.7H638.907a2.063,2.063,0,0,1-2.063-2.062h0a2.063,2.063,0,0,1,2.063-2.062h14.839a2.063,2.063,0,0,1,2.063,2.063h0A2.063,2.063,0,0,1,653.746,933.7Z" transform="translate(-636.844 -929.572)" fill="#583ae2"/>
          </g>
          <g id="Grupo_84278" data-name="Grupo 84278" transform="translate(38.731 56.779)">
            <path id="Trazado_121842" data-name="Trazado 121842" d="M588.957,933.7h-5.1a2.063,2.063,0,0,1-2.063-2.062h0a2.063,2.063,0,0,1,2.063-2.062h5.1a2.062,2.062,0,0,1,2.063,2.063h0A2.062,2.062,0,0,1,588.957,933.7Z" transform="translate(-581.795 -929.572)" fill="#583ae2"/>
          </g>
          <g id="Grupo_84279" data-name="Grupo 84279" transform="translate(21.084 73.051)">
            <path id="Trazado_121843" data-name="Trazado 121843" d="M515.667,1013.057H497.791a2.062,2.062,0,0,1-2.063-2.062h0a2.063,2.063,0,0,1,2.063-2.063h17.876a2.063,2.063,0,0,1,2.063,2.063h0A2.062,2.062,0,0,1,515.667,1013.057Z" transform="translate(-495.728 -1008.932)" fill="#583ae2"/>
          </g>
          <g id="Grupo_84280" data-name="Grupo 84280" transform="translate(58.44 73.051)">
            <path id="Trazado_121844" data-name="Trazado 121844" d="M686.4,1013.057h-6.417a2.062,2.062,0,0,1-2.063-2.062h0a2.063,2.063,0,0,1,2.063-2.063H686.4a2.063,2.063,0,0,1,2.063,2.063h0A2.063,2.063,0,0,1,686.4,1013.057Z" transform="translate(-677.921 -1008.932)" fill="#583ae2"/>
          </g>
          <g id="Grupo_84281" data-name="Grupo 84281" transform="translate(45.721 73.051)">
            <path id="Trazado_121845" data-name="Trazado 121845" d="M624.48,1013.057h-6.532a2.062,2.062,0,0,1-2.063-2.062h0a2.063,2.063,0,0,1,2.063-2.063h6.532a2.063,2.063,0,0,1,2.063,2.063h0A2.062,2.062,0,0,1,624.48,1013.057Z" transform="translate(-615.886 -1008.932)" fill="#583ae2"/>
          </g>
          <g id="Grupo_84282" data-name="Grupo 84282" transform="translate(29.564 84.051)">
            <path id="Trazado_121846" data-name="Trazado 121846" d="M548.544,1066.709h-9.4a2.063,2.063,0,0,1-2.063-2.063h0a2.063,2.063,0,0,1,2.063-2.063h9.4a2.063,2.063,0,0,1,2.062,2.063h0A2.063,2.063,0,0,1,548.544,1066.709Z" transform="translate(-537.085 -1062.584)" fill="#2ff980"/>
          </g>
          <g id="Grupo_84283" data-name="Grupo 84283" transform="translate(60.847 84.051)">
            <path id="Trazado_121847" data-name="Trazado 121847" d="M695.731,1066.709h-4.01a2.063,2.063,0,0,1-2.063-2.063h0a2.063,2.063,0,0,1,2.063-2.063h4.01a2.063,2.063,0,0,1,2.063,2.063h0A2.063,2.063,0,0,1,695.731,1066.709Z" transform="translate(-689.658 -1062.584)" fill="#583ae2"/>
          </g>
          <g id="Grupo_84284" data-name="Grupo 84284" transform="translate(45.721 84.051)">
            <path id="Trazado_121848" data-name="Trazado 121848" d="M626.887,1066.709h-8.938a2.063,2.063,0,0,1-2.063-2.063h0a2.063,2.063,0,0,1,2.063-2.063h8.938a2.063,2.063,0,0,1,2.063,2.063h0A2.063,2.063,0,0,1,626.887,1066.709Z" transform="translate(-615.886 -1062.584)" fill="#583ae2"/>
          </g>
          <g id="Grupo_84285" data-name="Grupo 84285" transform="translate(21.084 102.156)">
            <path id="Trazado_121849" data-name="Trazado 121849" d="M508.848,1155.011H497.791a2.063,2.063,0,0,1-2.063-2.063h0a2.063,2.063,0,0,1,2.063-2.062h11.058a2.062,2.062,0,0,1,2.063,2.063h0A2.063,2.063,0,0,1,508.848,1155.011Z" transform="translate(-495.728 -1150.886)" fill="#583ae2"/>
          </g>
          <g id="Grupo_84286" data-name="Grupo 84286" transform="translate(61.878 102.156)">
            <path id="Trazado_121850" data-name="Trazado 121850" d="M699.73,1155.011H696.75a2.063,2.063,0,0,1-2.062-2.063h0a2.063,2.063,0,0,1,2.063-2.062h2.979a2.063,2.063,0,0,1,2.063,2.063h0A2.063,2.063,0,0,1,699.73,1155.011Z" transform="translate(-694.688 -1150.886)" fill="#9dbde7"/>
          </g>
          <g id="Grupo_84287" data-name="Grupo 84287" transform="translate(38.731 102.156)">
            <path id="Trazado_121851" data-name="Trazado 121851" d="M597.379,1155.011H583.858a2.063,2.063,0,0,1-2.063-2.063h0a2.063,2.063,0,0,1,2.063-2.062h13.521a2.062,2.062,0,0,1,2.063,2.063h0A2.063,2.063,0,0,1,597.379,1155.011Z" transform="translate(-581.795 -1150.886)" fill="#9dbde7"/>
          </g>
          <g id="Grupo_84288" data-name="Grupo 84288" transform="translate(15.314 76.23)">
            <path id="Trazado_121852" data-name="Trazado 121852" d="M478.914,1034.565H467.586v-10.124h.482v9.642h10.845Z" transform="translate(-467.586 -1024.441)" fill="#f1ead7"/>
          </g>
        </g>
        <g id="Grupo_84396" data-name="Grupo 84396" transform="translate(313.429 538.366)">
          <g id="Grupo_84290" data-name="Grupo 84290" transform="translate(77.225 55.889)">
            <path id="Trazado_121853" data-name="Trazado 121853" d="M911.349,952.409l-25.028,1.242a16.447,16.447,0,0,0-11.18,12l-2.181,31.265,17.3-1.925,7.642,39.377,63.872,1.6,4.809-45.477,18.3.415L981.7,963.044a15.259,15.259,0,0,0-2.767-5.874,19.071,19.071,0,0,0-16.356-7.492l-25.561,1.356Z" transform="translate(-872.96 -949.651)" fill="#40327b"/>
          </g>
          <g id="Grupo_84311" data-name="Grupo 84311" transform="translate(118.774 123.451)">
            <g id="Grupo_84307" data-name="Grupo 84307" transform="translate(0 0.454)">
              <g id="Grupo_84291" data-name="Grupo 84291">
                <path id="Trazado_121854" data-name="Trazado 121854" d="M1077.921,1302.484c.075.005.155.007.23.008a2.181,2.181,0,0,0,.323-.028,1.041,1.041,0,0,0,.106-.019.12.12,0,0,0,.041-.01.884.884,0,0,0,.156-.037,2.34,2.34,0,0,0,.33-.119,2.449,2.449,0,0,0,.954-.741c.346-.441.675-.843.889-1.06s.444-.46.677-.727l7.385.278,4.778.177.823.033,8.769.329a38.531,38.531,0,0,0,17.048-2.729,7.7,7.7,0,0,0-4.2-6.412l-13.49-8.364c-2.244-1.135-12.367-2.727-13.883-.729l-12.743,16.153a2.495,2.495,0,0,0,1.808,4Z" transform="translate(-1075.603 -1281.382)" fill="#f6a36b"/>
              </g>
              <g id="Grupo_84295" data-name="Grupo 84295" transform="translate(2.897 3.788)">
                <g id="Grupo_84294" data-name="Grupo 84294">
                  <g id="Grupo_84293" data-name="Grupo 84293">
                    <g id="Grupo_84292" data-name="Grupo 84292">
                      <path id="Trazado_121855" data-name="Trazado 121855" d="M1093.1,1321.592a2.7,2.7,0,0,0,.715.028.1.1,0,0,0,.065-.008,2.872,2.872,0,0,0,1.961-1.036c.947-1.137,2-2.566,3.082-4.081.338-.474.793-1.084,1.322-1.782,2.476-3.277,6.568-8.428,7.954-10.082a2.905,2.905,0,0,0,.64-1.4,2.935,2.935,0,0,0-.9-2.586,3.9,3.9,0,0,0-.33-.268,2.911,2.911,0,0,0-3.656.272c-1.427,1.338-2.965,2.965-3.935,3.9-.227.22-.441.433-.637.632-1.739,1.8-6.046,7.23-7.686,9.488a12.784,12.784,0,0,1-1.187,1.3,2.786,2.786,0,0,0-.66,1.145,2.587,2.587,0,0,0-.087.384,1.923,1.923,0,0,0-.028.26,2.916,2.916,0,0,0,1.086,2.47l.945.759A2.872,2.872,0,0,0,1093.1,1321.592Z" transform="translate(-1089.732 -1299.854)" fill="#f6a36b"/>
                    </g>
                  </g>
                </g>
              </g>
              <g id="Grupo_84299" data-name="Grupo 84299" transform="translate(6.981 6.851)">
                <g id="Grupo_84298" data-name="Grupo 84298">
                  <g id="Grupo_84297" data-name="Grupo 84297">
                    <g id="Grupo_84296" data-name="Grupo 84296">
                      <path id="Trazado_121856" data-name="Trazado 121856" d="M1114.185,1335.653l0,0a.6.6,0,0,0,.057-.045l1.691-1.445,0,0,.174-.146.174-.146,0,0,.6-.513,1.383-1.18,2.5-2.136,2.816-2.409c1.261-.935,6.692-7.9,6.692-7.9s-.028-.063-.1-.184a9.8,9.8,0,0,0-.725-1.116,19.174,19.174,0,0,0-3.3-3.409,1.206,1.206,0,0,0-1.489.092c-1.582.979-3.535,4.025-4.669,5.2-.037.04-.073.075-.109.11-1.277,1.229-5.845,6.409-6.759,7.514-.689.825-1.36,1.705-2.145,2.791-.236.326-.535.744-.835,1.171a2.763,2.763,0,0,0-.506,1.611c0,.024,0,.052,0,.08a2.749,2.749,0,0,0,.729,1.795,2.651,2.651,0,0,0,.461.4A2.779,2.779,0,0,0,1114.185,1335.653Z" transform="translate(-1109.65 -1314.795)" fill="#f6a36b"/>
                    </g>
                  </g>
                </g>
              </g>
              <g id="Grupo_84303" data-name="Grupo 84303" transform="translate(14.219 8.523)">
                <g id="Grupo_84302" data-name="Grupo 84302">
                  <g id="Grupo_84301" data-name="Grupo 84301">
                    <g id="Grupo_84300" data-name="Grupo 84300">
                      <path id="Trazado_121857" data-name="Trazado 121857" d="M1148.806,1341.2c.417-.372.8-.708,1.011-.854,2.42-1.691,8.467-7.567,10.888-9.258.274-.186.542-.377.813-.567a4.212,4.212,0,0,0,1.245-1.512,6.659,6.659,0,0,0,.436-1.012c.825-2.486.326-5.571-3.062-4.969,0,0-.008,0-.016,0a7.474,7.474,0,0,0-2.595,1.877c-1.121,1.064-2.386,2.418-3.5,3.646-1.28,1.408-2.37,2.643-2.836,3.085-.348.333-.693.665-1.027,1.008-.191.188-.374.377-.557.566q-.8.806-1.535,1.664a31.029,31.029,0,0,0-2.022,2.574c-.048.066-.1.128-.152.2v0c-.061.068-.125.14-.194.211a2.676,2.676,0,0,0-.639,1.108v0a2.188,2.188,0,0,0-.091.448,2.328,2.328,0,0,0,.093.966,2.05,2.05,0,0,0,.472.8,1.893,1.893,0,0,0,.328.284A2.39,2.39,0,0,0,1148.806,1341.2Z" transform="translate(-1144.953 -1322.951)" fill="#f6a36b"/>
                    </g>
                  </g>
                </g>
              </g>
              <g id="Grupo_84304" data-name="Grupo 84304" transform="translate(2.914 6.511)">
                <path id="Trazado_121858" data-name="Trazado 121858" d="M1090.3,1327.474a.482.482,0,0,1-.363-.8l11.728-13.371a.482.482,0,0,1,.725.636l-11.728,13.371A.482.482,0,0,1,1090.3,1327.474Z" transform="translate(-1089.814 -1313.139)" fill="#323232"/>
              </g>
              <g id="Grupo_84305" data-name="Grupo 84305" transform="translate(6.754 9.86)">
                <path id="Trazado_121859" data-name="Trazado 121859" d="M1109.026,1343.808a.482.482,0,0,1-.362-.8l11.728-13.371a.482.482,0,0,1,.725.636l-11.728,13.371A.48.48,0,0,1,1109.026,1343.808Z" transform="translate(-1108.544 -1329.473)" fill="#323232"/>
              </g>
              <g id="Grupo_84306" data-name="Grupo 84306" transform="translate(14.312 14.683)">
                <path id="Trazado_121860" data-name="Trazado 121860" d="M1145.886,1362.975a.482.482,0,0,1-.342-.823l8.991-9.017a.482.482,0,0,1,.683.681l-8.991,9.017A.482.482,0,0,1,1145.886,1362.975Z" transform="translate(-1145.404 -1352.993)" fill="#323232"/>
              </g>
            </g>
            <g id="Grupo_84308" data-name="Grupo 84308" transform="translate(21.581)">
              <path id="Trazado_121861" data-name="Trazado 121861" d="M1180.859,1282.644l10.472-3.475s17.9,8.117,12.775,16.91l-12.645.664Z" transform="translate(-1180.859 -1279.169)" fill="#f6a36b"/>
            </g>
            <g id="Grupo_84310" data-name="Grupo 84310" transform="translate(26.684 2.176)">
              <g id="Grupo_84309" data-name="Grupo 84309">
                <path id="Trazado_121862" data-name="Trazado 121862" d="M1213.736,1299.766l-.825.254a17.838,17.838,0,0,0-7.161-9.517l.472-.722A18.719,18.719,0,0,1,1213.736,1299.766Z" transform="translate(-1205.749 -1289.781)" fill="#f37d3d"/>
              </g>
            </g>
          </g>
          <g id="Grupo_84312" data-name="Grupo 84312" transform="translate(147.925 95.161)">
            <path id="Trazado_121863" data-name="Trazado 121863" d="M1217.783,1169.979l17.7-2.31,2.4-26.477,21.124,1.983s1.236,36.653-2.759,41.529-25.844,2.7-25.844,2.7C1234.4,1190.291,1229.8,1169.378,1217.783,1169.979Z" transform="translate(-1217.783 -1141.192)" fill="#40327b"/>
          </g>
          <g id="Grupo_84313" data-name="Grupo 84313" transform="translate(76.636 99.031)">
            <path id="Trazado_121864" data-name="Trazado 121864" d="M904.37,1188.688l-10.332-2.52-5.03-26.105-18.331,4.122s-2.292,34.926,2.169,39.379,23.931,1.306,23.931,1.306S899.422,1190.21,904.37,1188.688Z" transform="translate(-870.089 -1160.063)" fill="#f095b0"/>
          </g>
          <g id="Grupo_84314" data-name="Grupo 84314" transform="translate(96.697 86.31)">
            <path id="Trazado_121865" data-name="Trazado 121865" d="M982.339,1135.6a.489.489,0,0,1-.116-.014l-10.632-2.63a.481.481,0,0,1-.364-.422l-3.292-33.987a.482.482,0,0,1,.96-.093l3.259,33.647,10.3,2.548a.482.482,0,0,1-.115.95Z" transform="translate(-967.933 -1098.024)" fill="#323232"/>
          </g>
          <g id="Grupo_84315" data-name="Grupo 84315" transform="translate(82.584 120.181)">
            <path id="Trazado_121866" data-name="Trazado 121866" d="M900.117,1272.026,899.1,1271a28.412,28.412,0,0,1,15.273-7.779l.234,1.428A26.947,26.947,0,0,0,900.117,1272.026Z" transform="translate(-899.099 -1263.218)" fill="#ed7fa0"/>
          </g>
          <g id="Grupo_84317" data-name="Grupo 84317" transform="translate(151.65 83.458)">
            <g id="Grupo_84316" data-name="Grupo 84316">
              <path id="Trazado_121867" data-name="Trazado 121867" d="M1236.432,1123.883a.482.482,0,0,1-.19-.926l14.429-6.184-.38-32.173a.482.482,0,0,1,.964-.011l.383,32.495a.482.482,0,0,1-.292.449l-14.725,6.311A.483.483,0,0,1,1236.432,1123.883Z" transform="translate(-1235.949 -1084.112)" fill="#826be9"/>
            </g>
          </g>
          <g id="Grupo_84318" data-name="Grupo 84318" transform="translate(111.887 89.798)">
            <path id="Trazado_121868" data-name="Trazado 121868" d="M1058.4,1150.788c-5.85-11.48-11.361-23.321-16.38-35.193l1.333-.563c5.005,11.841,10.5,23.65,16.336,35.1Z" transform="translate(-1042.016 -1115.032)" fill="#ed7fa0"/>
          </g>
          <g id="Grupo_84319" data-name="Grupo 84319" transform="translate(168.42 116.808)">
            <path id="Trazado_121869" data-name="Trazado 121869" d="M1331.736,1258.229a21.164,21.164,0,0,0-14-10.043l.284-1.419a22.632,22.632,0,0,1,14.965,10.739Z" transform="translate(-1317.74 -1246.767)" fill="#ab9df1"/>
          </g>
          <g id="Grupo_84392" data-name="Grupo 84392" transform="translate(85.633 0)">
            <g id="Grupo_84320" data-name="Grupo 84320" transform="translate(27.518 37.236)">
              <path id="Trazado_121870" data-name="Trazado 121870" d="M1064.481,858.68l12.746,19.806-20.293,7.06-8.754-9.962Z" transform="translate(-1048.18 -858.68)" fill="#f6a36b"/>
            </g>
            <g id="Grupo_84321" data-name="Grupo 84321" transform="translate(22.568 56.814)">
              <path id="Trazado_121871" data-name="Trazado 121871" d="M1028.244,962.18a13.743,13.743,0,0,0,2,1.955c5.621,4.494,12.712,6.546,19.312,3.778,6.952-3.116,14.386-6.871,15.355-13.751l-24.031.975s-16.842-.787-16.842-.786C1025.419,957.273,1026.339,959.89,1028.244,962.18Z" transform="translate(-1024.036 -954.162)" fill="#f6a36b"/>
            </g>
            <g id="Grupo_84322" data-name="Grupo 84322">
              <path id="Trazado_121872" data-name="Trazado 121872" d="M969.363,695.553a6.414,6.414,0,0,0-6.512-4.912,7.023,7.023,0,0,0-9.253-7.184,5.569,5.569,0,0,0-7.739-2.271,6.63,6.63,0,0,0-11.722-1.053,6.782,6.782,0,0,0-10.283,5.81c-.108,0-.215,0-.324,0a7.542,7.542,0,0,0-6.229,10.99,9.062,9.062,0,1,0,12.648,1.179A7.509,7.509,0,0,0,931.538,693c-.007-.109-.025-.214-.037-.322a6.777,6.777,0,0,0,4.935-3.2,6.622,6.622,0,0,0,7.423-.578,5.58,5.58,0,0,0,5.079,2.693,7.045,7.045,0,0,0,7.334,5.577c.15-.009.3-.032.443-.05a6.333,6.333,0,0,0,1.337,3.845,6.411,6.411,0,0,0-2.277,6.534,6.492,6.492,0,0,0,.246.779,5.883,5.883,0,1,0,11.15,1.536,6.4,6.4,0,0,0-.084-7.729A6.41,6.41,0,0,0,969.363,695.553Z" transform="translate(-913.969 -677.07)" fill="#323232"/>
            </g>
            <g id="Grupo_84327" data-name="Grupo 84327" transform="translate(28.652 37.236)">
              <g id="Grupo_84326" data-name="Grupo 84326">
                <g id="Grupo_84325" data-name="Grupo 84325">
                  <g id="Grupo_84324" data-name="Grupo 84324">
                    <g id="Grupo_84323" data-name="Grupo 84323">
                      <path id="Trazado_121873" data-name="Trazado 121873" d="M1069.482,858.68l-15.771,14.544L1060,884.457C1064.193,877.736,1071.315,867.7,1069.482,858.68Z" transform="translate(-1053.711 -858.68)" fill="#f37d3d"/>
                    </g>
                  </g>
                </g>
              </g>
            </g>
            <g id="Grupo_84333" data-name="Grupo 84333" transform="translate(7.153 11.128)">
              <g id="Grupo_84332" data-name="Grupo 84332">
                <g id="Grupo_84331" data-name="Grupo 84331">
                  <g id="Grupo_84330" data-name="Grupo 84330">
                    <g id="Grupo_84329" data-name="Grupo 84329">
                      <g id="Grupo_84328" data-name="Grupo 84328">
                        <path id="Trazado_121874" data-name="Trazado 121874" d="M988.3,752.152a.015.015,0,0,0,0,.01,22.073,22.073,0,0,1-.637,4.083c-.1.393-.2.782-.321,1.172-.256.852-.556,1.689-.893,2.519q-.169.42-.355.835c-.194.444-.4.881-.62,1.316-.052.113-.106.223-.163.328q-.616,1.221-1.32,2.389a59.755,59.755,0,0,1-6.674,8.923,16.687,16.687,0,0,1-4.741,3.8,11.221,11.221,0,0,1-8.953.808,13.845,13.845,0,0,1-5.186-3.305A15.708,15.708,0,0,1,956.692,773c-4.441-6.091-4.311-14.579-7.224-21.395a7.594,7.594,0,0,1-.583-2.4,9.436,9.436,0,0,1,.119-2.4c1.072-6.279,7.908-13.276,16.087-14.952.755-.157,1.481-.272,2.182-.354a20.142,20.142,0,0,1,7.94.563c.017,0,.031.011.049.016a13.717,13.717,0,0,1,5.5,2.907C986.667,740.718,988.625,746.58,988.3,752.152Z" transform="translate(-948.854 -731.343)" fill="#f6a36b"/>
                      </g>
                    </g>
                  </g>
                </g>
              </g>
            </g>
            <g id="Grupo_84343" data-name="Grupo 84343" transform="translate(7.153 10.315)">
              <g id="Grupo_84342" data-name="Grupo 84342">
                <g id="Grupo_84337" data-name="Grupo 84337" transform="translate(5.52 12.96)">
                  <g id="Grupo_84336" data-name="Grupo 84336">
                    <g id="Grupo_84335" data-name="Grupo 84335">
                      <g id="Grupo_84334" data-name="Grupo 84334">
                        <path id="Trazado_121875" data-name="Trazado 121875" d="M975.775,791.029l.313-.415C976.19,790.536,976.1,790.654,975.775,791.029Z" transform="translate(-975.775 -790.591)" fill="#323232"/>
                      </g>
                    </g>
                  </g>
                </g>
                <g id="Grupo_84341" data-name="Grupo 84341">
                  <g id="Grupo_84340" data-name="Grupo 84340">
                    <g id="Grupo_84339" data-name="Grupo 84339">
                      <g id="Grupo_84338" data-name="Grupo 84338">
                        <path id="Trazado_121876" data-name="Trazado 121876" d="M987.885,753.955a28.319,28.319,0,0,1-1.307,3.422l-.126-.592-.3-1.388-.189-.888-1.181-5.522-.15-.7-.358-1.671a6.8,6.8,0,0,1-1.139.2,6.328,6.328,0,0,1-.757.036,6.8,6.8,0,0,1-3.674-1.142,6.648,6.648,0,0,1-2-2.119c-4.737-5.451-19.137-4.828-19.137-4.828l-.663-2.057-2.216,3.655c-.353.262-2.946,2.867-5.8,5.688a9.436,9.436,0,0,1,.119-2.4c1.072-6.279,7.793-14.081,15.972-15.757a20.474,20.474,0,0,1,14.413,1.886C987.6,734.51,990.61,745.179,987.885,753.955Z" transform="translate(-948.854 -727.38)" fill="#323232"/>
                      </g>
                    </g>
                  </g>
                </g>
              </g>
            </g>
            <g id="Grupo_84349" data-name="Grupo 84349" transform="translate(34.862 24.066)">
              <g id="Grupo_84348" data-name="Grupo 84348" transform="translate(0 0)">
                <g id="Grupo_84347" data-name="Grupo 84347">
                  <g id="Grupo_84346" data-name="Grupo 84346">
                    <g id="Grupo_84345" data-name="Grupo 84345">
                      <g id="Grupo_84344" data-name="Grupo 84344">
                        <ellipse id="Elipse_5395" data-name="Elipse 5395" cx="4.568" cy="6.265" rx="4.568" ry="6.265" transform="matrix(0.894, -0.449, 0.449, 0.894, 0, 4.102)" fill="#f6a36b"/>
                      </g>
                    </g>
                  </g>
                </g>
              </g>
            </g>
            <g id="Grupo_84355" data-name="Grupo 84355" transform="translate(40.507 27.531)">
              <g id="Grupo_84354" data-name="Grupo 84354">
                <g id="Grupo_84353" data-name="Grupo 84353">
                  <g id="Grupo_84352" data-name="Grupo 84352">
                    <g id="Grupo_84351" data-name="Grupo 84351">
                      <g id="Grupo_84350" data-name="Grupo 84350">
                        <path id="Trazado_121877" data-name="Trazado 121877" d="M1112.363,817.814l.6-.4a4.552,4.552,0,0,1,.512-5.565l-.513-.5A5.293,5.293,0,0,0,1112.363,817.814Z" transform="translate(-1111.527 -811.344)" fill="#323232"/>
                      </g>
                    </g>
                  </g>
                </g>
              </g>
            </g>
            <g id="Grupo_84361" data-name="Grupo 84361" transform="translate(40.677 30.413)">
              <g id="Grupo_84360" data-name="Grupo 84360">
                <g id="Grupo_84359" data-name="Grupo 84359">
                  <g id="Grupo_84358" data-name="Grupo 84358">
                    <g id="Grupo_84357" data-name="Grupo 84357">
                      <g id="Grupo_84356" data-name="Grupo 84356">
                        <path id="Trazado_121878" data-name="Trazado 121878" d="M1115.917,826.533a3.828,3.828,0,0,0,.88-.606l-.487-.528a3.36,3.36,0,0,1-3.641.552l-.308.649A4.105,4.105,0,0,0,1115.917,826.533Z" transform="translate(-1112.36 -825.399)" fill="#323232"/>
                      </g>
                    </g>
                  </g>
                </g>
              </g>
            </g>
            <g id="Grupo_84362" data-name="Grupo 84362" transform="translate(3.475 16.063)">
              <path id="Trazado_121879" data-name="Trazado 121879" d="M963.561,762.139a11.539,11.539,0,0,0-16.418-3.589,5.426,5.426,0,0,0-9.6,4.317,4.752,4.752,0,1,0,2.854,3.883,12.964,12.964,0,0,1,11.61,1.122,4.3,4.3,0,0,1,6.457-1.6,4.375,4.375,0,1,0,5.094-4.136Z" transform="translate(-930.919 -755.411)" fill="#323232"/>
            </g>
            <g id="Grupo_84390" data-name="Grupo 84390" transform="translate(10.515 34.605)">
              <g id="Grupo_84367" data-name="Grupo 84367" transform="translate(6.359 2.944)">
                <g id="Grupo_84366" data-name="Grupo 84366">
                  <g id="Grupo_84365" data-name="Grupo 84365">
                    <g id="Grupo_84364" data-name="Grupo 84364">
                      <g id="Grupo_84363" data-name="Grupo 84363">
                        <path id="Trazado_121880" data-name="Trazado 121880" d="M1000.187,868.09a.558.558,0,0,1-.6.065l-3.012-1.488a.558.558,0,0,1-.311-.513l.123-5.405a.558.558,0,0,1,1.115.025l-.115,5.05,2.694,1.331a.558.558,0,0,1,.1.934Z" transform="translate(-996.267 -860.204)" fill="#323232"/>
                      </g>
                    </g>
                  </g>
                </g>
              </g>
              <g id="Grupo_84372" data-name="Grupo 84372" transform="translate(0 3.187)">
                <g id="Grupo_84371" data-name="Grupo 84371">
                  <g id="Grupo_84370" data-name="Grupo 84370">
                    <g id="Grupo_84369" data-name="Grupo 84369">
                      <g id="Grupo_84368" data-name="Grupo 84368">
                        <path id="Trazado_121881" data-name="Trazado 121881" d="M965.265,863.382c.105.268.859-.4,1.959-.829s2.127-.465,2.022-.734a2.422,2.422,0,0,0-2.4-.238C965.743,862.012,965.159,863.113,965.265,863.382Z" transform="translate(-965.253 -861.39)" fill="#323232"/>
                      </g>
                    </g>
                  </g>
                </g>
              </g>
              <g id="Grupo_84377" data-name="Grupo 84377" transform="translate(10.563)">
                <g id="Grupo_84376" data-name="Grupo 84376">
                  <g id="Grupo_84375" data-name="Grupo 84375">
                    <g id="Grupo_84374" data-name="Grupo 84374">
                      <g id="Grupo_84373" data-name="Grupo 84373">
                        <path id="Trazado_121882" data-name="Trazado 121882" d="M1016.776,847.544c.074.279.9-.3,2.041-.6s2.167-.22,2.093-.5a2.422,2.422,0,0,0-2.361-.511C1017.407,846.239,1016.7,847.266,1016.776,847.544Z" transform="translate(-1016.771 -845.845)" fill="#323232"/>
                      </g>
                    </g>
                  </g>
                </g>
              </g>
              <g id="Grupo_84388" data-name="Grupo 84388" transform="translate(2.08 3.304)">
                <g id="Grupo_84382" data-name="Grupo 84382" transform="translate(0 3.011)">
                  <g id="Grupo_84381" data-name="Grupo 84381">
                    <g id="Grupo_84380" data-name="Grupo 84380">
                      <g id="Grupo_84379" data-name="Grupo 84379">
                        <g id="Grupo_84378" data-name="Grupo 84378">
                          <path id="Trazado_121883" data-name="Trazado 121883" d="M977.954,877.953a1.313,1.313,0,1,1-1.58-1.288A1.457,1.457,0,0,1,977.954,877.953Z" transform="translate(-975.396 -876.643)" fill="#323232"/>
                        </g>
                      </g>
                    </g>
                  </g>
                </g>
                <g id="Grupo_84387" data-name="Grupo 84387" transform="translate(10.306)">
                  <g id="Grupo_84386" data-name="Grupo 84386">
                    <g id="Grupo_84385" data-name="Grupo 84385">
                      <g id="Grupo_84384" data-name="Grupo 84384">
                        <g id="Grupo_84383" data-name="Grupo 84383">
                          <path id="Trazado_121884" data-name="Trazado 121884" d="M1028.219,863.268a1.313,1.313,0,1,1-1.58-1.288A1.457,1.457,0,0,1,1028.219,863.268Z" transform="translate(-1025.661 -861.958)" fill="#323232"/>
                        </g>
                      </g>
                    </g>
                  </g>
                </g>
              </g>
              <g id="Grupo_84389" data-name="Grupo 84389" transform="translate(10.33 11.263)">
                <path id="Trazado_121885" data-name="Trazado 121885" d="M1015.68,906.262l-.045-.964a9.2,9.2,0,0,0,4.383-1.486,23.919,23.919,0,0,0,3.74-3.033l.663.7a24.773,24.773,0,0,1-3.9,3.152A10.152,10.152,0,0,1,1015.68,906.262Z" transform="translate(-1015.635 -900.779)" fill="#f15f62"/>
              </g>
            </g>
            <g id="Grupo_84391" data-name="Grupo 84391" transform="translate(24.127 56.055)">
              <path id="Trazado_121886" data-name="Trazado 121886" d="M1033.719,953.917a9.362,9.362,0,0,1-2.077-.23l.214-.941a9.022,9.022,0,0,0,8.114-2.286l.673.691A10.037,10.037,0,0,1,1033.719,953.917Z" transform="translate(-1031.641 -950.461)" fill="#f37d3d"/>
            </g>
          </g>
          <g id="Grupo_84395" data-name="Grupo 84395" transform="translate(0 86.95)">
            <g id="Grupo_84393" data-name="Grupo 84393">
              <path id="Trazado_121887" data-name="Trazado 121887" d="M638.06,1167.473H518.423l-21.853-60.734a4.178,4.178,0,0,1,3.931-5.593H609.421a6.791,6.791,0,0,1,6.39,4.492Z" transform="translate(-496.32 -1101.146)" fill="#ab9df1"/>
            </g>
            <g id="Grupo_84394" data-name="Grupo 84394" transform="translate(56.548 26.386)">
              <circle id="Elipse_5396" data-name="Elipse 5396" cx="8.136" cy="8.136" r="8.136" transform="translate(0 16.062) rotate(-80.783)" fill="#583ae2"/>
            </g>
          </g>
        </g>
        <g id="Grupo_84399" data-name="Grupo 84399" transform="translate(266.258 558.443)">
          <g id="Grupo_84397" data-name="Grupo 84397" transform="translate(0 0)">
            <rect id="Rectángulo_34534" data-name="Rectángulo 34534" width="45.055" height="45.055" rx="22.527" fill="#40327b"/>
          </g>
          <g id="Grupo_84398" data-name="Grupo 84398" transform="translate(10.342 10.342)">
            <path id="Trazado_121888" data-name="Trazado 121888" d="M341.07,834.971h0a2.4,2.4,0,0,1-1.7-4.1h0l-3.742-3.742h0a2.4,2.4,0,0,1-4.1-1.7h-5.292a2.4,2.4,0,0,1-4.1,1.7h0l-3.742,3.742h0a2.4,2.4,0,0,1-1.7,4.1h0v5.292h0a2.4,2.4,0,0,1,1.7,4.1h0l3.742,3.742h0a2.4,2.4,0,0,1,4.1,1.7h5.292a2.4,2.4,0,0,1,4.1-1.7h0l3.742-3.742h0a2.4,2.4,0,0,1,1.7-4.1h0Zm-12.185,6.708a4.062,4.062,0,1,1,4.062-4.062A4.062,4.062,0,0,1,328.884,841.678Z" transform="translate(-316.699 -825.431)" fill="#2ff980"/>
          </g>
        </g>
        <g id="Grupo_84400" data-name="Grupo 84400" transform="translate(469.697 576.696)">
          <path id="Trazado_121889" data-name="Trazado 121889" d="M1271.184,873.446h-12.711l6.355-9.431h0Z" transform="translate(-1258.472 -864.015)" fill="#583ae2"/>
        </g>
        <g id="Grupo_84401" data-name="Grupo 84401" transform="translate(469.697 564.395)">
          <path id="Trazado_121890" data-name="Trazado 121890" d="M1271.184,813.451h-12.711l6.355-9.431h0Z" transform="translate(-1258.472 -804.02)" fill="#583ae2"/>
        </g>
        <g id="Grupo_84402" data-name="Grupo 84402" transform="translate(469.697 552.094)">
          <path id="Trazado_121891" data-name="Trazado 121891" d="M1271.184,753.456h-12.711l6.355-9.431h0Z" transform="translate(-1258.472 -744.025)" fill="#583ae2"/>
        </g>
      </g>
    </g>
  </g>
</svg>
