<svg xmlns="http://www.w3.org/2000/svg" xmlns:xlink="http://www.w3.org/1999/xlink" width="295" height="298" viewBox="0 0 295 298">
  <defs>
    <clipPath id="clip-path">
      <path id="Trazado_121951" data-name="Trazado 121951" d="M6297.314,2016.006l-.28,98.625-55.839-32.239.279-98.625Z" transform="translate(-6241.195 -1983.767)" fill="none"/>
    </clipPath>
  </defs>
  <g id="Grupo_84768" data-name="Grupo 84768" transform="translate(5788 -6465)">
    <g id="Grupo_84733" data-name="Grupo 84733">
      <rect id="Rectángulo_33900" data-name="Rectángulo 33900" width="295" height="298" rx="20" transform="translate(-5788 6465)" fill="#583ae2"/>
      <path id="Trazado_122049" data-name="Trazado 122049" d="M98.888,14.474h-1.67V19H94.133V6.2h5.036a5.621,5.621,0,0,1,3.56,1.01,3.421,3.421,0,0,1,1.283,2.853,4.155,4.155,0,0,1-.541,2.213A3.837,3.837,0,0,1,101.78,13.7l2.672,5.167V19h-3.3ZM97.218,12.1h1.951a1.751,1.751,0,0,0,1.323-.463,1.788,1.788,0,0,0,.444-1.291,1.809,1.809,0,0,0-.448-1.3,1.735,1.735,0,0,0-1.318-.471H97.218Zm13.122,7.075a4.889,4.889,0,0,1-3.542-1.305,4.507,4.507,0,0,1-1.354-3.4v-.246a5.84,5.84,0,0,1,.541-2.575,3.955,3.955,0,0,1,1.578-1.727,4.763,4.763,0,0,1,2.461-.611,4.117,4.117,0,0,1,3.164,1.244,4.887,4.887,0,0,1,1.16,3.467v1.151h-5.889a2.135,2.135,0,0,0,.694,1.257,2.066,2.066,0,0,0,1.389.457,2.662,2.662,0,0,0,2.2-.984l1.354,1.6a3.784,3.784,0,0,1-1.569,1.217A5.3,5.3,0,0,1,110.34,19.176Zm-.334-7.576q-1.3,0-1.547,1.723h2.988v-.229a1.467,1.467,0,0,0-.36-1.1A1.434,1.434,0,0,0,110.006,11.6Zm5.159,2.575a5.809,5.809,0,0,1,.976-3.56,3.211,3.211,0,0,1,2.725-1.3,2.731,2.731,0,0,1,2.145,1V5.5h2.971V19h-2.663l-.149-1.02a2.8,2.8,0,0,1-2.32,1.2,3.205,3.205,0,0,1-2.689-1.3A5.993,5.993,0,0,1,115.166,14.175Zm2.962.185q0,2.531,1.477,2.531a1.458,1.458,0,0,0,1.406-.826V12.443a1.419,1.419,0,0,0-1.389-.844q-1.371,0-1.485,2.215Z" transform="translate(-5749 6716)" fill="#fff"/>
      <path id="Trazado_121826" data-name="Trazado 121826" d="M102.5,0A102.5,102.5,0,1,1,0,102.5,102.5,102.5,0,0,1,102.5,0Z" transform="translate(-5743 6488.5)" fill="#c7ffdd"/>
      <g id="Grupo_84728" data-name="Grupo 84728" transform="translate(-11257.74 4687.527)">
        <g id="Grupo_84634" data-name="Grupo 84634" transform="translate(5598.348 1800.786)">
          <g id="Grupo_84569" data-name="Grupo 84569" transform="translate(0 5.74)">
            <rect id="Rectángulo_34562" data-name="Rectángulo 34562" width="82.973" height="112.197" transform="translate(82.973 112.197) rotate(180)" fill="#ab9df1"/>
          </g>
          <g id="Grupo_84628" data-name="Grupo 84628" transform="translate(8.052 20.022)">
            <g id="Grupo_84571" data-name="Grupo 84571" transform="translate(7.825 0.471)">
              <g id="Grupo_84570" data-name="Grupo 84570">
                <rect id="Rectángulo_34563" data-name="Rectángulo 34563" width="10.535" height="3.072" fill="#2ff980"/>
              </g>
            </g>
            <g id="Grupo_84573" data-name="Grupo 84573" transform="translate(32.795 8.245)">
              <g id="Grupo_84572" data-name="Grupo 84572">
                <rect id="Rectángulo_34564" data-name="Rectángulo 34564" width="26.295" height="3.072" fill="#583ae2"/>
              </g>
            </g>
            <g id="Grupo_84575" data-name="Grupo 84575" transform="translate(62.069 8.245)">
              <g id="Grupo_84574" data-name="Grupo 84574">
                <rect id="Rectángulo_34565" data-name="Rectángulo 34565" width="5.337" height="3.072" fill="#583ae2"/>
              </g>
            </g>
            <g id="Grupo_84577" data-name="Grupo 84577" transform="translate(7.582 22.592)">
              <g id="Grupo_84576" data-name="Grupo 84576">
                <rect id="Rectángulo_34566" data-name="Rectángulo 34566" width="6.803" height="3.072" fill="#40327b"/>
              </g>
            </g>
            <g id="Grupo_84579" data-name="Grupo 84579" transform="translate(17.843 22.592)">
              <g id="Grupo_84578" data-name="Grupo 84578">
                <rect id="Rectángulo_34567" data-name="Rectángulo 34567" width="24.195" height="3.072" fill="#583ae2"/>
              </g>
            </g>
            <g id="Grupo_84581" data-name="Grupo 84581" transform="translate(44.763 22.592)">
              <g id="Grupo_84580" data-name="Grupo 84580">
                <rect id="Rectángulo_34568" data-name="Rectángulo 34568" width="10.729" height="3.072" fill="#583ae2"/>
              </g>
            </g>
            <g id="Grupo_84583" data-name="Grupo 84583" transform="translate(12.799 29.028)">
              <g id="Grupo_84582" data-name="Grupo 84582">
                <rect id="Rectángulo_34569" data-name="Rectángulo 34569" width="14.44" height="3.072" fill="#583ae2"/>
              </g>
            </g>
            <g id="Grupo_84585" data-name="Grupo 84585" transform="translate(51.315 29.028)">
              <g id="Grupo_84584" data-name="Grupo 84584">
                <rect id="Rectángulo_34570" data-name="Rectángulo 34570" width="7.916" height="3.072" fill="#583ae2"/>
              </g>
            </g>
            <g id="Grupo_84587" data-name="Grupo 84587" transform="translate(28.79 29.028)">
              <g id="Grupo_84586" data-name="Grupo 84586">
                <rect id="Rectángulo_34571" data-name="Rectángulo 34571" width="20.484" height="3.072" fill="#583ae2"/>
              </g>
            </g>
            <g id="Grupo_84589" data-name="Grupo 84589" transform="translate(8.999 8.245)">
              <g id="Grupo_84588" data-name="Grupo 84588">
                <rect id="Rectángulo_34572" data-name="Rectángulo 34572" width="20.567" height="3.072" fill="#583ae2"/>
              </g>
            </g>
            <g id="Grupo_84591" data-name="Grupo 84591" transform="translate(22.244 0.471)">
              <g id="Grupo_84590" data-name="Grupo 84590">
                <rect id="Rectángulo_34573" data-name="Rectángulo 34573" width="24.759" height="3.072" fill="#583ae2"/>
              </g>
            </g>
            <g id="Grupo_84593" data-name="Grupo 84593" transform="translate(0.636 22.688)">
              <g id="Grupo_84592" data-name="Grupo 84592">
                <circle id="Elipse_5404" data-name="Elipse 5404" cx="1.536" cy="1.536" r="1.536" fill="#f3f1ff"/>
              </g>
            </g>
            <g id="Grupo_84595" data-name="Grupo 84595" transform="translate(7.582 41.378)">
              <g id="Grupo_84594" data-name="Grupo 84594">
                <rect id="Rectángulo_34574" data-name="Rectángulo 34574" width="6.803" height="3.072" fill="#2ff980"/>
              </g>
            </g>
            <g id="Grupo_84597" data-name="Grupo 84597" transform="translate(16.67 41.378)">
              <g id="Grupo_84596" data-name="Grupo 84596">
                <rect id="Rectángulo_34575" data-name="Rectángulo 34575" width="24.195" height="3.072" fill="#583ae2"/>
              </g>
            </g>
            <g id="Grupo_84599" data-name="Grupo 84599" transform="translate(43.589 41.378)">
              <g id="Grupo_84598" data-name="Grupo 84598">
                <rect id="Rectángulo_34576" data-name="Rectángulo 34576" width="10.729" height="3.072" fill="#583ae2"/>
              </g>
            </g>
            <g id="Grupo_84601" data-name="Grupo 84601" transform="translate(0 40.839)">
              <g id="Grupo_84600" data-name="Grupo 84600" transform="translate(0 0)">
                <circle id="Elipse_5405" data-name="Elipse 5405" cx="1.536" cy="1.536" r="1.536" transform="translate(0 2.172) rotate(-45)" fill="#f3f1ff"/>
              </g>
            </g>
            <g id="Grupo_84603" data-name="Grupo 84603" transform="translate(7.582 52.163)">
              <g id="Grupo_84602" data-name="Grupo 84602">
                <rect id="Rectángulo_34577" data-name="Rectángulo 34577" width="16.14" height="3.072" fill="#a8d8b6"/>
              </g>
            </g>
            <g id="Grupo_84605" data-name="Grupo 84605" transform="translate(26.007 52.163)">
              <g id="Grupo_84604" data-name="Grupo 84604">
                <rect id="Rectángulo_34578" data-name="Rectángulo 34578" width="14.858" height="3.072" fill="#583ae2"/>
              </g>
            </g>
            <g id="Grupo_84607" data-name="Grupo 84607" transform="translate(43.589 52.163)">
              <g id="Grupo_84606" data-name="Grupo 84606">
                <rect id="Rectángulo_34579" data-name="Rectángulo 34579" width="18.251" height="3.072" fill="#583ae2"/>
              </g>
            </g>
            <g id="Grupo_84609" data-name="Grupo 84609" transform="translate(0.324 51.948)">
              <g id="Grupo_84608" data-name="Grupo 84608" transform="translate(0 0)">
                <circle id="Elipse_5406" data-name="Elipse 5406" cx="1.536" cy="1.536" r="1.536" transform="translate(0 2.989) rotate(-76.717)" fill="#f1ead7"/>
              </g>
            </g>
            <g id="Grupo_84611" data-name="Grupo 84611" transform="translate(7.582 66.949)">
              <g id="Grupo_84610" data-name="Grupo 84610">
                <rect id="Rectángulo_34580" data-name="Rectángulo 34580" width="10.052" height="3.072" fill="#f095b0"/>
              </g>
            </g>
            <g id="Grupo_84613" data-name="Grupo 84613" transform="translate(19.919 66.949)">
              <g id="Grupo_84612" data-name="Grupo 84612">
                <rect id="Rectángulo_34581" data-name="Rectángulo 34581" width="20.946" height="3.072" fill="#583ae2"/>
              </g>
            </g>
            <g id="Grupo_84615" data-name="Grupo 84615" transform="translate(43.589 66.949)">
              <g id="Grupo_84614" data-name="Grupo 84614">
                <rect id="Rectángulo_34582" data-name="Rectángulo 34582" width="23.817" height="3.072" fill="#583ae2"/>
              </g>
            </g>
            <g id="Grupo_84617" data-name="Grupo 84617" transform="translate(0.324 66.734)">
              <g id="Grupo_84616" data-name="Grupo 84616" transform="translate(0 0)">
                <circle id="Elipse_5407" data-name="Elipse 5407" cx="1.536" cy="1.536" r="1.536" transform="translate(0 2.989) rotate(-76.717)" fill="#f1ead7"/>
              </g>
            </g>
            <g id="Grupo_84619" data-name="Grupo 84619" transform="translate(7.582 81.734)">
              <g id="Grupo_84618" data-name="Grupo 84618">
                <rect id="Rectángulo_34583" data-name="Rectángulo 34583" width="6.803" height="3.072" fill="#f095b0"/>
              </g>
            </g>
            <g id="Grupo_84621" data-name="Grupo 84621" transform="translate(16.67 81.734)">
              <g id="Grupo_84620" data-name="Grupo 84620">
                <rect id="Rectángulo_34584" data-name="Rectángulo 34584" width="24.195" height="3.072" fill="#583ae2"/>
              </g>
            </g>
            <g id="Grupo_84623" data-name="Grupo 84623" transform="translate(43.589 81.734)">
              <g id="Grupo_84622" data-name="Grupo 84622">
                <rect id="Rectángulo_34585" data-name="Rectángulo 34585" width="10.729" height="3.072" fill="#583ae2"/>
              </g>
            </g>
            <g id="Grupo_84625" data-name="Grupo 84625" transform="translate(0 81.195)">
              <g id="Grupo_84624" data-name="Grupo 84624" transform="translate(0 0)">
                <circle id="Elipse_5408" data-name="Elipse 5408" cx="1.536" cy="1.536" r="1.536" transform="translate(0 2.172) rotate(-45)" fill="#f1ead7"/>
              </g>
            </g>
            <g id="Grupo_84627" data-name="Grupo 84627" transform="translate(0.408 0)">
              <g id="Grupo_84626" data-name="Grupo 84626">
                <circle id="Elipse_5409" data-name="Elipse 5409" cx="1.536" cy="1.536" r="1.536" transform="matrix(0.924, -0.383, 0.383, 0.924, 0, 1.175)" fill="#f3f1ff"/>
              </g>
            </g>
          </g>
          <g id="Grupo_84629" data-name="Grupo 84629" transform="translate(0 0)">
            <rect id="Rectángulo_34586" data-name="Rectángulo 34586" width="82.973" height="7.828" transform="translate(82.973 7.828) rotate(180)" fill="#40327b"/>
          </g>
          <g id="Grupo_84633" data-name="Grupo 84633" transform="translate(4.449 2.042)">
            <g id="Grupo_84630" data-name="Grupo 84630" transform="translate(0 0.142)">
              <circle id="Elipse_5410" data-name="Elipse 5410" cx="1.991" cy="1.991" r="1.991" fill="#2ff980"/>
            </g>
            <g id="Grupo_84631" data-name="Grupo 84631" transform="translate(7.964 0.142)">
              <circle id="Elipse_5411" data-name="Elipse 5411" cx="1.991" cy="1.991" r="1.991" fill="#583ae2"/>
            </g>
            <g id="Grupo_84632" data-name="Grupo 84632" transform="translate(15.5)">
              <circle id="Elipse_5412" data-name="Elipse 5412" cx="1.991" cy="1.991" r="1.991" fill="#ab9df1"/>
            </g>
          </g>
        </g>
        <g id="Grupo_84654" data-name="Grupo 84654" transform="translate(5670.622 1830.63)">
          <g id="Grupo_84635" data-name="Grupo 84635" transform="translate(0 0.001)">
            <path id="Trazado_121938" data-name="Trazado 121938" d="M6297.313,2016.008l-.013,4.457-.267,94.169-55.838-32.24.267-93.815.013-4.808Z" transform="translate(-6241.195 -1983.771)" fill="#d5cef8"/>
          </g>
          <g id="Grupo_84652" data-name="Grupo 84652" transform="translate(0)" style="isolation: isolate">
            <g id="Grupo_84651" data-name="Grupo 84651" clip-path="url(#clip-path)">
              <g id="Grupo_84650" data-name="Grupo 84650" transform="translate(4.071 30.665)">
                <g id="Grupo_84636" data-name="Grupo 84636" transform="translate(10.379 41.385)">
                  <rect id="Rectángulo_34587" data-name="Rectángulo 34587" width="0.895" height="13.54" transform="translate(0 0.788) rotate(-61.699)" fill="#fff"/>
                </g>
                <g id="Grupo_84637" data-name="Grupo 84637" transform="translate(26.497 9.378)">
                  <rect id="Rectángulo_34588" data-name="Rectángulo 34588" width="0.896" height="59.606" fill="#fff"/>
                </g>
                <g id="Grupo_84638" data-name="Grupo 84638" transform="translate(18.601)">
                  <path id="Trazado_121939" data-name="Trazado 121939" d="M6361.809,2140.528l-4.149-2.4-.014,4.767,4.15,2.4.013-4.767m-4.771,2.719.017-6.163,5.362,3.1-.018,6.163-5.362-3.1m11.024-.826-16.646-9.61-.023,8.2,16.646,9.61.023-8.2" transform="translate(-6351.393 -2132.81)" fill="#583ae2"/>
                </g>
                <g id="Grupo_84639" data-name="Grupo 84639" transform="translate(12.26 22.698)">
                  <path id="Trazado_121940" data-name="Trazado 121940" d="M6330.943,2252.187l-2.757-4.772,2.774-1.581.362.628-2.409,1.373,2.394,4.144-.364.208m8.842,5.1-.362-.628,2.409-1.371-2.394-4.146.365-.208,2.756,4.774-2.774,1.579m-4.816-2.785-.5-.426,1.309-5.572.5.423-1.308,5.575m.238-10.7-14.636-.678,14.592,16.193,14.634.68-14.59-16.195" transform="translate(-6320.571 -2243.131)" fill="#40327b"/>
                </g>
                <g id="Grupo_84640" data-name="Grupo 84640" transform="translate(20.463 42.956)">
                  <path id="Trazado_121941" data-name="Trazado 121941" d="M6367.252,2348.072c-.919-.53-1.669-.1-1.672.953a3.667,3.667,0,0,0,1.661,2.877c.919.531,1.669.1,1.672-.953a3.669,3.669,0,0,0-1.661-2.877m-.013,4.526a5,5,0,0,1-2.265-3.923c0-1.441,1.026-2.023,2.28-1.3a5,5,0,0,1,2.265,3.923c0,1.44-1.026,2.023-2.28,1.3m5.91-3.681-12.683-7.323-.024,8.609,12.683,7.323.024-8.609" transform="translate(-6360.441 -2341.595)" fill="#2ff980"/>
                </g>
                <g id="Grupo_84641" data-name="Grupo 84641" transform="translate(15.403 59.882)">
                  <path id="Trazado_121942" data-name="Trazado 121942" d="M6352.673,2430.961l-10.9-6.291c-3.264-1.884-5.918-.372-5.928,3.378a12.978,12.978,0,0,0,5.89,10.2l10.9,6.291c3.264,1.885,5.918.372,5.929-3.376a12.979,12.979,0,0,0-5.89-10.2" transform="translate(-6335.848 -2423.86)" fill="#583ae2"/>
                </g>
                <g id="Grupo_84642" data-name="Grupo 84642" transform="translate(0 31.142)">
                  <path id="Trazado_121943" data-name="Trazado 121943" d="M6267.341,2290.451l-2.221,2.351,4.422,2.553-2.2-4.9m-3.387,2.375,3.391-3.592,3.359,7.489-6.75-3.9m9.735-1.332-12.682-7.322-.024,8.609,12.682,7.322.024-8.609" transform="translate(-6260.983 -2284.173)" fill="#826be9"/>
                </g>
                <g id="Grupo_84643" data-name="Grupo 84643" transform="translate(24.996 48.426)">
                  <path id="Trazado_121944" data-name="Trazado 121944" d="M6384.74,2373.017a3.664,3.664,0,0,1-1.661-2.877c0-1.056.753-1.483,1.672-.953a3.67,3.67,0,0,1,1.661,2.877c0,1.056-.754,1.483-1.672.953m.013-4.526c-1.254-.724-2.276-.141-2.28,1.3a5,5,0,0,0,2.265,3.923c1.254.724,2.276.141,2.28-1.3a5,5,0,0,0-2.265-3.923" transform="translate(-6382.473 -2368.18)" fill="#fff"/>
                </g>
                <g id="Grupo_84644" data-name="Grupo 84644" transform="translate(2.97 36.204)">
                  <path id="Trazado_121945" data-name="Trazado 121945" d="M6276.587,2312.342l2.221-2.351,2.2,4.9-4.422-2.552m2.225-3.568-3.391,3.592,6.75,3.9-3.359-7.489" transform="translate(-6275.421 -2308.774)" fill="#fff"/>
                </g>
                <g id="Grupo_84645" data-name="Grupo 84645" transform="translate(19.875 25.4)">
                  <path id="Trazado_121946" data-name="Trazado 121946" d="M6360.356,2256.264l-2.774,1.581,2.756,4.772.365-.208-2.394-4.144,2.409-1.373-.362-.628" transform="translate(-6357.582 -2256.264)" fill="#fff"/>
                </g>
                <g id="Grupo_84646" data-name="Grupo 84646" transform="translate(31.111 30.505)">
                  <path id="Trazado_121947" data-name="Trazado 121947" d="M6412.574,2281.077l-.364.208,2.394,4.146-2.409,1.371.362.628,2.774-1.579-2.757-4.775" transform="translate(-6412.194 -2281.077)" fill="#fff"/>
                </g>
                <g id="Grupo_84647" data-name="Grupo 84647" transform="translate(26.156 28.076)">
                  <path id="Trazado_121948" data-name="Trazado 121948" d="M6389.421,2269.27l-1.31,5.572.5.426,1.309-5.575-.5-.423" transform="translate(-6388.111 -2269.27)" fill="#fff"/>
                </g>
                <g id="Grupo_84648" data-name="Grupo 84648" transform="translate(24.246 4.273)">
                  <path id="Trazado_121949" data-name="Trazado 121949" d="M6379.437,2159.395l.013-4.767,4.15,2.4-.013,4.767-4.15-2.4m4.771-2.719-5.362-3.1-.017,6.163,5.361,3.1.018-6.163" transform="translate(-6378.829 -2153.58)" fill="#fff"/>
                </g>
                <g id="Grupo_84649" data-name="Grupo 84649" transform="translate(21.522 66.758)">
                  <path id="Trazado_121950" data-name="Trazado 121950" d="M6369.493,2463.938l-3.9-6.178.757-.479,3.434,5.438,5.738-3.443.461.768Z" transform="translate(-6365.591 -2457.282)" fill="#fff"/>
                </g>
              </g>
            </g>
          </g>
          <g id="Grupo_84653" data-name="Grupo 84653" transform="translate(0.267 0.001)">
            <path id="Trazado_121952" data-name="Trazado 121952" d="M6298.344,2016.008l-.013,4.457-55.838-31.886.013-4.808Z" transform="translate(-6242.493 -1983.771)" fill="#40327b"/>
          </g>
        </g>
        <g id="Grupo_84661" data-name="Grupo 84661" transform="translate(5642.736 1927.395)">
          <g id="Grupo_84655" data-name="Grupo 84655" transform="translate(0 0.526)">
            <path id="Trazado_121953" data-name="Trazado 121953" d="M6105.662,2479.1l12.055-16.276,14.719-6.182,8.538,27.377-26.789,9.126Z" transform="translate(-6105.662 -2456.645)" fill="#c16d55"/>
          </g>
          <g id="Grupo_84656" data-name="Grupo 84656" transform="translate(25.449 0)">
            <path id="Trazado_121954" data-name="Trazado 121954" d="M6230.679,2454.613l24.578-.526a3.2,3.2,0,0,1,3.247,2.869h0a3.2,3.2,0,0,1-2.463,3.441l-26.687,6.138Z" transform="translate(-6229.354 -2454.086)" fill="#c16d55"/>
          </g>
          <g id="Grupo_84657" data-name="Grupo 84657" transform="translate(20.444 7.297)">
            <path id="Trazado_121955" data-name="Trazado 121955" d="M6226.078,2489.553l.5,3.476a3.615,3.615,0,0,1-2.11,3.816l-.152.067.492,3.033a3.608,3.608,0,0,1-1.705,3.671l-.111.067.145,2.464a3.644,3.644,0,0,1-2.185,3.556l-1.051.457-14.867-12.806.736-6.476Z" transform="translate(-6205.029 -2489.553)" fill="#c16d55"/>
          </g>
          <g id="Grupo_84658" data-name="Grupo 84658" transform="translate(32.802 8.321)">
            <path id="Trazado_121956" data-name="Trazado 121956" d="M6265.542,2496.161a.448.448,0,0,1-.039-.894l8.39-.736a.448.448,0,1,1,.078.892l-8.39.736Z" transform="translate(-6265.094 -2494.529)" fill="#323232"/>
          </g>
          <g id="Grupo_84659" data-name="Grupo 84659" transform="translate(33.243 14.209)">
            <path id="Trazado_121957" data-name="Trazado 121957" d="M6267.687,2524.926a.448.448,0,0,1-.049-.893c2.025-.225,5.423-.656,5.918-.854a.448.448,0,1,1,.333.832,58.331,58.331,0,0,1-6.152.912A.384.384,0,0,1,6267.687,2524.926Z" transform="translate(-6267.239 -2523.147)" fill="#323232"/>
          </g>
          <g id="Grupo_84660" data-name="Grupo 84660" transform="translate(33.097 20.979)">
            <path id="Trazado_121958" data-name="Trazado 121958" d="M6266.973,2557.686a.448.448,0,0,1-.067-.891l4.857-.736a.448.448,0,1,1,.134.886l-4.857.736A.446.446,0,0,1,6266.973,2557.686Z" transform="translate(-6266.526 -2556.054)" fill="#323232"/>
          </g>
        </g>
        <g id="Grupo_84665" data-name="Grupo 84665" transform="translate(5528.917 1811.663)">
          <g id="Grupo_84662" data-name="Grupo 84662" transform="translate(8.723 5.474)">
            <rect id="Rectángulo_34589" data-name="Rectángulo 34589" width="43.139" height="43.139" rx="4" transform="translate(43.139 43.139) rotate(180)" fill="#40327b"/>
          </g>
          <g id="Grupo_84663" data-name="Grupo 84663" transform="translate(0)">
            <rect id="Rectángulo_34590" data-name="Rectángulo 34590" width="43.139" height="43.139" rx="6" transform="translate(43.139 43.139) rotate(180)" fill="#826be9"/>
          </g>
          <g id="Grupo_84664" data-name="Grupo 84664" transform="translate(6.089 6.4)">
            <path id="Trazado_121959" data-name="Trazado 121959" d="M5582.053,1945.194l9.321-9.072-6.2-6.375,27.844-7.057-7.81,27.643-6.2-6.375-9.322,9.072Z" transform="translate(-5582.053 -1922.689)" fill="#2ff980"/>
          </g>
        </g>
        <g id="Grupo_84666" data-name="Grupo 84666" transform="translate(5547.405 1869.345)">
          <path id="Trazado_121960" data-name="Trazado 121960" d="M5673.6,2211.554h-4.4a.672.672,0,1,1,0-1.343h4.4a.672.672,0,1,1,0,1.343Zm-9.774,0h-5.374a.672.672,0,1,1,0-1.343h5.374a.672.672,0,1,1,0,1.343Zm-10.747,0h-5.374a.672.672,0,1,1,0-1.343h5.374a.672.672,0,1,1,0,1.343Zm-10.094-.654a.672.672,0,0,1-.671-.672v-5.374a.672.672,0,1,1,1.343,0v5.374A.672.672,0,0,1,5642.986,2210.9Zm0-10.747a.672.672,0,0,1-.671-.672v-5.374a.672.672,0,0,1,1.343,0v5.374A.672.672,0,0,1,5642.986,2200.153Zm0-10.747a.672.672,0,0,1-.671-.672v-5.374a.672.672,0,1,1,1.343,0v5.374A.672.672,0,0,1,5642.986,2189.406Zm0-10.747a.672.672,0,0,1-.671-.672v-5.374a.672.672,0,1,1,1.343,0v5.374A.672.672,0,0,1,5642.986,2178.659Z" transform="translate(-5642.315 -2171.942)" fill="#583ae2"/>
        </g>
        <g id="Grupo_84676" data-name="Grupo 84676" transform="translate(5573.94 1790.961)">
          <g id="Grupo_84667" data-name="Grupo 84667" transform="translate(15.489 0.472)">
            <circle id="Elipse_5413" data-name="Elipse 5413" cx="2.232" cy="2.232" r="2.232" transform="matrix(0.973, -0.23, 0.23, 0.973, 0, 1.026)" fill="#45bbcc"/>
          </g>
          <g id="Grupo_84668" data-name="Grupo 84668" transform="translate(7.509 0)">
            <circle id="Elipse_5414" data-name="Elipse 5414" cx="2.232" cy="2.232" r="2.232" transform="translate(0 3.157) rotate(-45)" fill="#45bbcc"/>
          </g>
          <g id="Grupo_84669" data-name="Grupo 84669" transform="translate(0.471 0.472)">
            <circle id="Elipse_5415" data-name="Elipse 5415" cx="2.232" cy="2.232" r="2.232" transform="matrix(0.973, -0.23, 0.23, 0.973, 0, 1.026)" fill="#45bbcc"/>
          </g>
          <g id="Grupo_84670" data-name="Grupo 84670" transform="translate(15.489 8.183)">
            <circle id="Elipse_5416" data-name="Elipse 5416" cx="2.232" cy="2.232" r="2.232" transform="matrix(0.973, -0.23, 0.23, 0.973, 0, 1.026)" fill="#45bbcc"/>
          </g>
          <g id="Grupo_84671" data-name="Grupo 84671" transform="translate(7.509 7.712)">
            <circle id="Elipse_5417" data-name="Elipse 5417" cx="2.232" cy="2.232" r="2.232" transform="translate(0 3.157) rotate(-45)" fill="#45bbcc"/>
          </g>
          <g id="Grupo_84672" data-name="Grupo 84672" transform="translate(0.471 8.183)">
            <circle id="Elipse_5418" data-name="Elipse 5418" cx="2.232" cy="2.232" r="2.232" transform="matrix(0.973, -0.23, 0.23, 0.973, 0, 1.026)" fill="#45bbcc"/>
          </g>
          <g id="Grupo_84673" data-name="Grupo 84673" transform="translate(15.018 15.423)">
            <circle id="Elipse_5419" data-name="Elipse 5419" cx="2.232" cy="2.232" r="2.232" transform="translate(0 3.157) rotate(-45)" fill="#45bbcc"/>
          </g>
          <g id="Grupo_84674" data-name="Grupo 84674" transform="translate(7.98 15.895)">
            <circle id="Elipse_5420" data-name="Elipse 5420" cx="2.232" cy="2.232" r="2.232" transform="translate(0 1.026) rotate(-13.283)" fill="#45bbcc"/>
          </g>
          <g id="Grupo_84675" data-name="Grupo 84675" transform="translate(0 15.423)">
            <circle id="Elipse_5421" data-name="Elipse 5421" cx="2.232" cy="2.232" r="2.232" transform="translate(0 3.157) rotate(-45)" fill="#45bbcc"/>
          </g>
        </g>
        <g id="Grupo_84679" data-name="Grupo 84679" transform="translate(5606.576 1926.181)">
          <g id="Grupo_84678" data-name="Grupo 84678" transform="translate(0)">
            <g id="Grupo_84677" data-name="Grupo 84677">
              <path id="Trazado_121961" data-name="Trazado 121961" d="M5929.905,2448.186l10.358,6.2-7.071,14.746Z" transform="translate(-5929.905 -2448.186)" fill="#c16d55"/>
            </g>
          </g>
        </g>
        <g id="Grupo_84683" data-name="Grupo 84683" transform="translate(5593.816 1907.193)">
          <g id="Grupo_84682" data-name="Grupo 84682" transform="translate(0)">
            <g id="Grupo_84680" data-name="Grupo 84680" transform="translate(11.994 2.191)">
              <path id="Trazado_121962" data-name="Trazado 121962" d="M5926.188,2366.547c8.691,4.3,9.566,6.256,16.6,9.686l-3.869,6.163A44,44,0,0,1,5926.188,2366.547Z" transform="translate(-5926.188 -2366.547)" fill="#b75539"/>
            </g>
            <g id="Grupo_84681" data-name="Grupo 84681">
              <path id="Trazado_121963" data-name="Trazado 121963" d="M5875.936,2355.9a10.713,10.713,0,0,1,1.784,1.148c.774.364,1.49.709,2.165,1.043a43.988,43.988,0,0,0,12.731,15.849l-7.379,11.755-11.588,5.723-5.759-20.055S5874.143,2358.336,5875.936,2355.9Z" transform="translate(-5867.89 -2355.898)" fill="#c16d55"/>
            </g>
          </g>
        </g>
        <g id="Grupo_84686" data-name="Grupo 84686" transform="translate(5522.82 1919.039)">
          <g id="Grupo_84685" data-name="Grupo 84685" transform="translate(0 0)">
            <g id="Grupo_84684" data-name="Grupo 84684">
              <path id="Trazado_121964" data-name="Trazado 121964" d="M5522.82,2505.265h80.144l23.3-52.008a20.334,20.334,0,0,0-9.334-26.437h0a14.07,14.07,0,0,1-20.347-6.346l-2.159-4.98-12.026-1.722a29.517,29.517,0,0,0-22.14,5.79l-1.284.984q-1.288.986-2.475,2.083a35.264,35.264,0,0,0-9.164,14.088Z" transform="translate(-5522.82 -2413.473)" fill="#40327b"/>
            </g>
          </g>
        </g>
        <g id="Grupo_84687" data-name="Grupo 84687" transform="translate(5563.593 1929.604)">
          <path id="Trazado_121965" data-name="Trazado 121965" d="M5733.1,2467.211h0a18.219,18.219,0,0,1,25.266,7.6l32.225,54.728-23.978,17.533-43.563-49.51C5717.47,2488.776,5724.057,2472.361,5733.1,2467.211Z" transform="translate(-5720.996 -2464.822)" fill="#40327b"/>
        </g>
        <g id="Grupo_84688" data-name="Grupo 84688" transform="translate(5564.328 1968.372)">
          <path id="Trazado_121966" data-name="Trazado 121966" d="M5759.758,2686.785a.447.447,0,0,1-.307-.121l-34.744-32.639a.448.448,0,0,1,.613-.653l34.744,32.639a.448.448,0,0,1-.307.774Z" transform="translate(-5724.566 -2653.251)" fill="#ab9df1"/>
        </g>
        <g id="Grupo_84689" data-name="Grupo 84689" transform="translate(5583.637 1933.408)">
          <path id="Trazado_121967" data-name="Trazado 121967" d="M5850.174,2524.39a.447.447,0,0,1-.354-.173l-31.31-40.182a.448.448,0,0,1,.707-.551l31.31,40.182a.448.448,0,0,1-.353.723Z" transform="translate(-5818.416 -2483.312)" fill="#ab9df1"/>
        </g>
        <g id="Grupo_84725" data-name="Grupo 84725" transform="translate(5589.134 1868.874)">
          <g id="Grupo_84690" data-name="Grupo 84690" transform="translate(0 7.352)">
            <path id="Trazado_121968" data-name="Trazado 121968" d="M5851.208,2210.261c-6.138,5.15-7.929,16.33-3.97,23.262,2.1,3.68,5.536,7.14,5.581,11.633,8.359-8.5,11.44-20.8,13.188-32.6.435-2.934,0-7.143-3.791-7.174C5858.96,2205.358,5854.46,2207.533,5851.208,2210.261Z" transform="translate(-5845.132 -2205.384)" fill="#562a2f"/>
          </g>
          <g id="Grupo_84691" data-name="Grupo 84691" transform="translate(30.437 3.887)">
            <circle id="Elipse_5422" data-name="Elipse 5422" cx="7.165" cy="7.165" r="7.165" transform="matrix(1, -0.022, 0.022, 1, 0, 0.309)" fill="#562a2f"/>
          </g>
          <g id="Grupo_84694" data-name="Grupo 84694" transform="translate(5.539 6.129)">
            <g id="Grupo_84693" data-name="Grupo 84693">
              <g id="Grupo_84692" data-name="Grupo 84692">
                <path id="Trazado_121969" data-name="Trazado 121969" d="M5876.395,2226.965s-6.92-8.45-3.291-14.583,25.554-15.073,30.218-12.484,7.6,14.86,7.6,14.86Z" transform="translate(-5872.051 -2199.439)" fill="#562a2f"/>
              </g>
            </g>
          </g>
          <g id="Grupo_84697" data-name="Grupo 84697" transform="translate(14.603 13.97)">
            <g id="Grupo_84696" data-name="Grupo 84696">
              <g id="Grupo_84695" data-name="Grupo 84695">
                <path id="Trazado_121970" data-name="Trazado 121970" d="M5948.788,2255.078c2.159,11.062-2.789,20.51-13.539,20.317-10.946-.2-16.875-4.32-18.857-15.087-1.208-6.562,1.216-19.946,11.938-22.155C5939.07,2235.94,5945.732,2239.423,5948.788,2255.078Z" transform="translate(-5916.109 -2237.55)" fill="#c16d55"/>
              </g>
            </g>
          </g>
          <g id="Grupo_84700" data-name="Grupo 84700" transform="translate(35.745 30.261)">
            <g id="Grupo_84699" data-name="Grupo 84699">
              <g id="Grupo_84698" data-name="Grupo 84698">
                <path id="Trazado_121971" data-name="Trazado 121971" d="M6020.9,2317.934c.282.824.085,1.638-.44,1.817s-1.178-.344-1.459-1.168-.085-1.638.44-1.817S6020.615,2317.11,6020.9,2317.934Z" transform="translate(-6018.869 -2316.731)" fill="#323232"/>
              </g>
            </g>
          </g>
          <g id="Grupo_84703" data-name="Grupo 84703" transform="translate(32.473 26.248)">
            <g id="Grupo_84702" data-name="Grupo 84702">
              <g id="Grupo_84701" data-name="Grupo 84701">
                <path id="Trazado_121972" data-name="Trazado 121972" d="M6008.7,2299.028s-3.769-.387-5.734,1.547c0,0,.333-2.892,2.267-3.311C6006.813,2296.922,6008.7,2299.028,6008.7,2299.028Z" transform="translate(-6002.965 -2297.227)" fill="#323232"/>
              </g>
            </g>
          </g>
          <g id="Grupo_84709" data-name="Grupo 84709" transform="translate(36.925 39.794)">
            <g id="Grupo_84708" data-name="Grupo 84708">
              <g id="Grupo_84707" data-name="Grupo 84707">
                <g id="Grupo_84706" data-name="Grupo 84706">
                  <g id="Grupo_84705" data-name="Grupo 84705">
                    <g id="Grupo_84704" data-name="Grupo 84704">
                      <path id="Trazado_121973" data-name="Trazado 121973" d="M6024.757,2364.223a6.024,6.024,0,0,0,7.98,1.057.724.724,0,0,0,.122-1.009.735.735,0,0,0-1.009-.122,4.664,4.664,0,0,1-5.961-.812.738.738,0,0,0-1.009-.123.725.725,0,0,0-.122,1.009Z" transform="translate(-6024.604 -2363.065)" fill="#bb435b"/>
                    </g>
                  </g>
                </g>
              </g>
            </g>
          </g>
          <g id="Grupo_84712" data-name="Grupo 84712" transform="translate(9.354 11.526)">
            <g id="Grupo_84711" data-name="Grupo 84711">
              <g id="Grupo_84710" data-name="Grupo 84710">
                <path id="Trazado_121974" data-name="Trazado 121974" d="M5914.671,2225.672s-8.232,16.32-13.805,18.382l-1.66,7.136-8.61-7.917,9.217-15.1Z" transform="translate(-5890.597 -2225.672)" fill="#562a2f"/>
              </g>
            </g>
          </g>
          <g id="Grupo_84715" data-name="Grupo 84715" transform="translate(7.374 30.759)">
            <g id="Grupo_84714" data-name="Grupo 84714">
              <g id="Grupo_84713" data-name="Grupo 84713">
                <path id="Trazado_121975" data-name="Trazado 121975" d="M5891.388,2324.571c.523,3.4-.545,6.524-3.4,6.962a6.574,6.574,0,0,1-6.93-5.375c-.523-3.4,1.364-6.516,4.216-6.955S5890.864,2321.168,5891.388,2324.571Z" transform="translate(-5880.974 -2319.152)" fill="#c16d55"/>
              </g>
            </g>
          </g>
          <g id="Grupo_84719" data-name="Grupo 84719" transform="translate(9.904 34.14)">
            <g id="Grupo_84718" data-name="Grupo 84718">
              <g id="Grupo_84717" data-name="Grupo 84717">
                <g id="Grupo_84716" data-name="Grupo 84716">
                  <path id="Trazado_121976" data-name="Trazado 121976" d="M5897.911,2339.133a.594.594,0,0,1-.471-.26c-1.892-2.8-3.2-2.01-3.251-1.975a.6.6,0,0,1-.818-.166.587.587,0,0,1,.144-.811,2.314,2.314,0,0,1,1.693-.294,5.377,5.377,0,0,1,3.215,2.58.593.593,0,0,1-.512.926Z" transform="translate(-5893.269 -2335.584)" fill="#323232"/>
                </g>
              </g>
            </g>
          </g>
          <g id="Grupo_84720" data-name="Grupo 84720" transform="translate(6.384 0)">
            <path id="Trazado_121977" data-name="Trazado 121977" d="M5899.552,2169.652c-4.16.066-8,2.111-11.666,4.069s-7.566,3.93-11.725,3.83c3.535,2.316,7.187,4.682,11.334,5.493a24.888,24.888,0,0,0,10.983-.76c2.844-.74,10.38-2.443,10.207-6.358C5908.506,2171.873,5902.926,2169.6,5899.552,2169.652Z" transform="translate(-5876.162 -2169.651)" fill="#562a2f"/>
          </g>
          <g id="Grupo_84721" data-name="Grupo 84721" transform="translate(44.133 26.957)">
            <path id="Trazado_121978" data-name="Trazado 121978" d="M6059.637,2300.672c.477.035,6.517,5.613,6.517,5.613l-4.986,4.536Z" transform="translate(-6059.637 -2300.672)" fill="#c16d55"/>
          </g>
          <g id="Grupo_84724" data-name="Grupo 84724" transform="translate(44.819 27.222)">
            <g id="Grupo_84723" data-name="Grupo 84723">
              <g id="Grupo_84722" data-name="Grupo 84722">
                <path id="Trazado_121979" data-name="Trazado 121979" d="M6064.631,2311.9a.663.663,0,0,1-.863-.993l3.608-4-4.187-3.8a.663.663,0,1,1,.891-.982l4.676,4.242a.663.663,0,0,1,.047.935l-4.051,4.488A.652.652,0,0,1,6064.631,2311.9Z" transform="translate(-6062.972 -2301.96)" fill="#323232"/>
              </g>
            </g>
          </g>
        </g>
        <g id="Grupo_84726" data-name="Grupo 84726" transform="translate(5599.112 1949.103)">
          <path id="Trazado_121980" data-name="Trazado 121980" d="M5899,2619.826h0a15.539,15.539,0,0,1-1.064-22.478l38.743-37.755,20.7,12.212L5921.4,2617.67A15.539,15.539,0,0,1,5899,2619.826Z" transform="translate(-5893.63 -2559.593)" fill="#40327b"/>
        </g>
        <g id="Grupo_84727" data-name="Grupo 84727" transform="translate(5605.032 1968.372)">
          <path id="Trazado_121981" data-name="Trazado 121981" d="M5922.853,2670.846a.448.448,0,0,1-.321-.759l16.177-16.7a.448.448,0,1,1,.643.623l-16.177,16.7A.447.447,0,0,1,5922.853,2670.846Z" transform="translate(-5922.405 -2653.251)" fill="#ab9df1"/>
        </g>
      </g>
    </g>
  </g>
</svg>
