<svg xmlns="http://www.w3.org/2000/svg" width="295" height="298" viewBox="0 0 295 298">
  <g id="Grupo_84765" data-name="Grupo 84765" transform="translate(-180 -18150)">
    <g id="Grupo_84729" data-name="Grupo 84729">
      <rect id="Rectángulo_33889" data-name="Rectángulo 33889" width="295" height="298" rx="20" transform="translate(180 18150)" fill="#583ae2"/>
      <path id="Trazado_122046" data-name="Trazado 122046" d="M27.539,14.658V19H24.454V6.2H29.56a5.948,5.948,0,0,1,2.6.541,4.074,4.074,0,0,1,1.749,1.538,4.2,4.2,0,0,1,.62,2.263,3.7,3.7,0,0,1-1.34,2.993,5.561,5.561,0,0,1-3.678,1.121Zm0-2.382H29.56a1.906,1.906,0,0,0,1.367-.448,1.665,1.665,0,0,0,.47-1.266,2.059,2.059,0,0,0-.483-1.433A1.712,1.712,0,0,0,29.6,8.585H27.539ZM39.158,19H36.187V5.5h2.971Zm7.181,0a3.344,3.344,0,0,1-.281-.853,2.754,2.754,0,0,1-2.285,1.028,3.374,3.374,0,0,1-2.285-.813,2.588,2.588,0,0,1-.94-2.043,2.66,2.66,0,0,1,1.143-2.338,5.821,5.821,0,0,1,3.322-.791h.914v-.5q0-1.316-1.134-1.316a.927.927,0,0,0-1.055,1.042H40.775a2.655,2.655,0,0,1,1.173-2.239,4.931,4.931,0,0,1,2.993-.86,4.323,4.323,0,0,1,2.874.888A3.086,3.086,0,0,1,48.9,12.637v4.21a4.311,4.311,0,0,0,.4,2V19Zm-1.854-1.934a1.652,1.652,0,0,0,.918-.237,1.487,1.487,0,0,0,.523-.536V14.772h-.861q-1.547,0-1.547,1.389a.848.848,0,0,0,.272.655A.986.986,0,0,0,44.484,17.066Zm9.5-9.94V9.49h1.564v2.057H53.985V15.9a1.111,1.111,0,0,0,.193.747,1.037,1.037,0,0,0,.765.211,4.345,4.345,0,0,0,.738-.053v2.118a5.466,5.466,0,0,1-1.67.255,3.1,3.1,0,0,1-2.259-.721,2.954,2.954,0,0,1-.729-2.188v-4.72H49.81V9.49h1.213V7.126ZM62.071,19a3.344,3.344,0,0,1-.281-.853A2.754,2.754,0,0,1,59.5,19.176a3.374,3.374,0,0,1-2.285-.813,2.588,2.588,0,0,1-.94-2.043,2.66,2.66,0,0,1,1.143-2.338,5.821,5.821,0,0,1,3.322-.791h.914v-.5q0-1.316-1.134-1.316a.927.927,0,0,0-1.055,1.042H56.507a2.655,2.655,0,0,1,1.173-2.239,4.931,4.931,0,0,1,2.993-.86,4.323,4.323,0,0,1,2.874.888,3.086,3.086,0,0,1,1.081,2.435v4.21a4.311,4.311,0,0,0,.4,2V19Zm-1.854-1.934a1.652,1.652,0,0,0,.918-.237,1.487,1.487,0,0,0,.523-.536V14.772H60.8q-1.547,0-1.547,1.389a.848.848,0,0,0,.272.655A.986.986,0,0,0,60.216,17.066ZM66.922,19V11.547h-1.38V9.49h1.38V8.734a3.286,3.286,0,0,1,.958-2.522,3.785,3.785,0,0,1,2.689-.9,5.89,5.89,0,0,1,1.389.185l.009,2.18a2.706,2.706,0,0,0-.729-.079q-1.345,0-1.345,1.16V9.49h1.854v2.057H69.893V19Zm5.493-4.843a5.613,5.613,0,0,1,.554-2.536A3.96,3.96,0,0,1,74.56,9.912a4.791,4.791,0,0,1,2.435-.6,4.373,4.373,0,0,1,3.366,1.323,5.076,5.076,0,0,1,1.23,3.6v.105a4.925,4.925,0,0,1-1.235,3.529,4.384,4.384,0,0,1-3.344,1.305,4.434,4.434,0,0,1-3.261-1.217,4.761,4.761,0,0,1-1.327-3.3Zm2.962.185a3.538,3.538,0,0,0,.413,1.934,1.376,1.376,0,0,0,1.222.615q1.582,0,1.617-2.435v-.3q0-2.558-1.635-2.558-1.485,0-1.608,2.206Zm13.271-2.171-.976-.07a1.752,1.752,0,0,0-1.793.879V19H82.918V9.49H85.7l.1,1.222a2.294,2.294,0,0,1,2.083-1.4,2.888,2.888,0,0,1,.826.105ZM92.516,9.49l.1,1.116a3.27,3.27,0,0,1,2.716-1.292,2.407,2.407,0,0,1,2.435,1.433,3.165,3.165,0,0,1,2.795-1.433q2.892,0,2.971,3.5V19h-2.971V13a1.813,1.813,0,0,0-.246-1.063,1.048,1.048,0,0,0-.9-.334,1.4,1.4,0,0,0-1.31.782l.009.123V19H95.144V13.015a1.906,1.906,0,0,0-.237-1.081A1.045,1.045,0,0,0,94,11.6a1.42,1.42,0,0,0-1.3.782V19H89.739V9.49ZM110.578,19a3.344,3.344,0,0,1-.281-.853,2.754,2.754,0,0,1-2.285,1.028,3.374,3.374,0,0,1-2.285-.813,2.588,2.588,0,0,1-.94-2.043,2.66,2.66,0,0,1,1.143-2.338,5.821,5.821,0,0,1,3.322-.791h.914v-.5q0-1.316-1.134-1.316a.927.927,0,0,0-1.055,1.042h-2.962a2.655,2.655,0,0,1,1.173-2.239,4.931,4.931,0,0,1,2.993-.86,4.323,4.323,0,0,1,2.874.888,3.086,3.086,0,0,1,1.081,2.435v4.21a4.311,4.311,0,0,0,.4,2V19Zm-1.854-1.934a1.652,1.652,0,0,0,.918-.237,1.487,1.487,0,0,0,.523-.536V14.772H109.3q-1.547,0-1.547,1.389a.848.848,0,0,0,.272.655A.986.986,0,0,0,108.723,17.066ZM118.945,19l1.292-7.453H118.9l.352-2.057,1.336-.009.114-.835a3.881,3.881,0,0,1,1.213-2.417,3.937,3.937,0,0,1,2.769-.932,8.524,8.524,0,0,1,1.433.194l-.22,2.2a2.8,2.8,0,0,0-.686-.105,1.8,1.8,0,0,0-1.059.293,1.311,1.311,0,0,0-.532.844l-.132.77h1.8l-.352,2.057h-1.8L121.845,19Zm12.647-6.829a8.273,8.273,0,0,0-.9-.088,2.233,2.233,0,0,0-1.986.9L127.637,19h-2.892L126.4,9.49l2.7-.009-.22,1.248a2.64,2.64,0,0,1,2.2-1.441,4.144,4.144,0,0,1,.9.123Zm5.071-2.856a3.994,3.994,0,0,1,2.206.637,3.59,3.59,0,0,1,1.367,1.727,5.33,5.33,0,0,1,.312,2.461l-.018.193a5.636,5.636,0,0,1-1.626,3.533,4.575,4.575,0,0,1-3.41,1.31,3.977,3.977,0,0,1-2.188-.628,3.612,3.612,0,0,1-1.367-1.709,5.179,5.179,0,0,1-.321-2.443,5.863,5.863,0,0,1,1.6-3.727A4.547,4.547,0,0,1,136.664,9.314ZM134.51,14.4l-.026.518q-.123,1.957,1.2,1.992,1.705.053,1.978-2.764l.035-.8a2.155,2.155,0,0,0-.294-1.259,1.073,1.073,0,0,0-.918-.487,1.512,1.512,0,0,0-1.314.654A4.278,4.278,0,0,0,134.51,14.4ZM145.3,9.481l-.2,1.143a3.38,3.38,0,0,1,2.751-1.318,2.27,2.27,0,0,1,1.964.98,4.1,4.1,0,0,1,.47,2.729l-1,5.985h-2.9l1.011-6.01a3.108,3.108,0,0,0,.018-.563q-.062-.836-.984-.836a1.807,1.807,0,0,0-1.4.678L143.844,19h-2.892L142.6,9.49Zm11.065-2.355-.413,2.364h1.521l-.36,2.057H155.6l-.738,4.368a1.164,1.164,0,0,0,.057.677q.119.229.593.246a6.873,6.873,0,0,0,.756-.044l-.211,2.145a4.673,4.673,0,0,1-1.556.22,2.563,2.563,0,0,1-2.013-.791,2.7,2.7,0,0,1-.545-2.1l.773-4.72h-1.178l.352-2.057h1.178l.413-2.364Zm7.049,7.5h-5.142l.4-2.285h5.142Zm6.275,4.553a4.421,4.421,0,0,1-2.272-.6,3.793,3.793,0,0,1-1.507-1.652,4.44,4.44,0,0,1-.4-2.333l.026-.246a5.829,5.829,0,0,1,1.63-3.713,4.51,4.51,0,0,1,3.415-1.314,3.678,3.678,0,0,1,2.092.621,3.468,3.468,0,0,1,1.274,1.664,5.1,5.1,0,0,1,.264,2.381l-.167,1.206h-5.66a1.854,1.854,0,0,0,.422,1.213,1.549,1.549,0,0,0,1.178.492,2.993,2.993,0,0,0,2.259-.967l1.213,1.6a3.578,3.578,0,0,1-1.5,1.2,5.263,5.263,0,0,1-2.1.451Zm.7-7.576a1.487,1.487,0,0,0-1.068.385,3.229,3.229,0,0,0-.787,1.347h2.892l.053-.254a1.929,1.929,0,0,0,.018-.577A1.017,1.017,0,0,0,170.4,11.6Zm8.455-2.118-.2,1.143A3.38,3.38,0,0,1,181.4,9.306a2.27,2.27,0,0,1,1.964.98,4.1,4.1,0,0,1,.47,2.729l-1,5.985h-2.9l1.011-6.01a3.108,3.108,0,0,0,.018-.563q-.062-.836-.984-.836a1.807,1.807,0,0,0-1.4.678L177.392,19H174.5l1.652-9.51Zm6.117,4.746a6.917,6.917,0,0,1,1.371-3.6,3.4,3.4,0,0,1,2.865-1.31,2.592,2.592,0,0,1,2.013,1.02L192.14,5.5h2.9L192.7,19h-2.575l.123-1.028a2.968,2.968,0,0,1-2.364,1.213,2.62,2.62,0,0,1-2.149-1.015,4.476,4.476,0,0,1-.831-2.676,8.231,8.231,0,0,1,.035-1.081Zm2.883.2a6.9,6.9,0,0,0-.062.984q0,1.459.984,1.485a1.844,1.844,0,0,0,1.521-.817l.65-3.647a1.171,1.171,0,0,0-1.16-.835,1.478,1.478,0,0,0-1.305.7A4.507,4.507,0,0,0,187.851,14.43Z" transform="translate(219 18401)" fill="#e8e8e8"/>
      <path id="Trazado_121823" data-name="Trazado 121823" d="M102.5,0A102.5,102.5,0,1,1,0,102.5,102.5,102.5,0,0,1,102.5,0Z" transform="translate(213 18173.891)" fill="#c7ffdd"/>
      <g id="Grupo_84245" data-name="Grupo 84245" transform="translate(-1950.584 16334.543)">
        <g id="Grupo_84009" data-name="Grupo 84009" transform="translate(2167.584 1875.459)">
          <g id="Grupo_83966" data-name="Grupo 83966" transform="translate(0 0)">
            <g id="Grupo_83965" data-name="Grupo 83965">
              <rect id="Rectángulo_34493" data-name="Rectángulo 34493" width="175.375" height="117.196" fill="#f3f1ff"/>
            </g>
          </g>
          <g id="Grupo_83968" data-name="Grupo 83968" transform="translate(0 0)">
            <g id="Grupo_83967" data-name="Grupo 83967">
              <rect id="Rectángulo_34494" data-name="Rectángulo 34494" width="175.375" height="7.832" fill="#40327b"/>
            </g>
          </g>
          <g id="Grupo_84001" data-name="Grupo 84001" transform="translate(13.985 16.922)">
            <g id="Grupo_83970" data-name="Grupo 83970" transform="translate(30.375 1.359)">
              <g id="Grupo_83969" data-name="Grupo 83969">
                <rect id="Rectángulo_34495" data-name="Rectángulo 34495" width="0.785" height="88.572" fill="#40327b"/>
              </g>
            </g>
            <g id="Grupo_83972" data-name="Grupo 83972" transform="translate(40.444 23.332)">
              <g id="Grupo_83971" data-name="Grupo 83971">
                <rect id="Rectángulo_34496" data-name="Rectángulo 34496" width="0.785" height="50.515" fill="#40327b"/>
              </g>
            </g>
            <g id="Grupo_83974" data-name="Grupo 83974">
              <g id="Grupo_83973" data-name="Grupo 83973">
                <rect id="Rectángulo_34497" data-name="Rectángulo 34497" width="13.985" height="4.531" fill="#583ae2"/>
              </g>
            </g>
            <g id="Grupo_83976" data-name="Grupo 83976" transform="translate(0 23.106)">
              <g id="Grupo_83975" data-name="Grupo 83975">
                <rect id="Rectángulo_34498" data-name="Rectángulo 34498" width="13.985" height="4.531" fill="#583ae2"/>
              </g>
            </g>
            <g id="Grupo_83978" data-name="Grupo 83978" transform="translate(40.277 23.106)">
              <g id="Grupo_83977" data-name="Grupo 83977">
                <rect id="Rectángulo_34499" data-name="Rectángulo 34499" width="13.985" height="4.531" fill="#2ff980"/>
              </g>
            </g>
            <g id="Grupo_83980" data-name="Grupo 83980" transform="translate(40.277 69.544)">
              <g id="Grupo_83979" data-name="Grupo 83979">
                <rect id="Rectángulo_34500" data-name="Rectángulo 34500" width="13.985" height="4.531" fill="#2ff980"/>
              </g>
            </g>
            <g id="Grupo_83982" data-name="Grupo 83982" transform="translate(40.277 46.211)">
              <g id="Grupo_83981" data-name="Grupo 83981">
                <rect id="Rectángulo_34501" data-name="Rectángulo 34501" width="9.79" height="4.531" fill="#2ff980"/>
              </g>
            </g>
            <g id="Grupo_83984" data-name="Grupo 83984" transform="translate(62.374 46.211)">
              <g id="Grupo_83983" data-name="Grupo 83983">
                <rect id="Rectángulo_34502" data-name="Rectángulo 34502" width="21.817" height="4.531" fill="#2ff980"/>
              </g>
            </g>
            <g id="Grupo_83986" data-name="Grupo 83986" transform="translate(30.488 0.453)">
              <g id="Grupo_83985" data-name="Grupo 83985">
                <rect id="Rectángulo_34503" data-name="Rectángulo 34503" width="26.572" height="4.531" fill="#40327b"/>
              </g>
            </g>
            <g id="Grupo_83988" data-name="Grupo 83988" transform="translate(59.018 23.332)">
              <g id="Grupo_83987" data-name="Grupo 83987">
                <rect id="Rectángulo_34504" data-name="Rectángulo 34504" width="26.572" height="4.531" fill="#40327b"/>
              </g>
            </g>
            <g id="Grupo_83990" data-name="Grupo 83990" transform="translate(92.862 23.332)">
              <g id="Grupo_83989" data-name="Grupo 83989">
                <rect id="Rectángulo_34505" data-name="Rectángulo 34505" width="48.669" height="4.531" fill="#40327b"/>
              </g>
            </g>
            <g id="Grupo_83992" data-name="Grupo 83992" transform="translate(95.799 46.211)">
              <g id="Grupo_83991" data-name="Grupo 83991">
                <rect id="Rectángulo_34506" data-name="Rectángulo 34506" width="26.572" height="4.531" fill="#40327b"/>
              </g>
            </g>
            <g id="Grupo_83994" data-name="Grupo 83994" transform="translate(0 46.211)">
              <g id="Grupo_83993" data-name="Grupo 83993">
                <rect id="Rectángulo_34507" data-name="Rectángulo 34507" width="13.985" height="4.531" fill="#583ae2"/>
              </g>
            </g>
            <g id="Grupo_83996" data-name="Grupo 83996" transform="translate(0 69.317)">
              <g id="Grupo_83995" data-name="Grupo 83995">
                <rect id="Rectángulo_34508" data-name="Rectángulo 34508" width="13.985" height="4.531" fill="#583ae2"/>
              </g>
            </g>
            <g id="Grupo_83998" data-name="Grupo 83998" transform="translate(30.488 87.213)">
              <g id="Grupo_83997" data-name="Grupo 83997">
                <rect id="Rectángulo_34509" data-name="Rectángulo 34509" width="13.985" height="4.531" fill="#f77066"/>
              </g>
            </g>
            <g id="Grupo_84000" data-name="Grupo 84000" transform="translate(0 86.986)">
              <g id="Grupo_83999" data-name="Grupo 83999">
                <rect id="Rectángulo_34510" data-name="Rectángulo 34510" width="13.985" height="4.531" fill="#583ae2"/>
              </g>
            </g>
          </g>
          <g id="Grupo_84008" data-name="Grupo 84008" transform="translate(5.827 2.085)">
            <g id="Grupo_84003" data-name="Grupo 84003" transform="translate(0 0.202)">
              <g id="Grupo_84002" data-name="Grupo 84002" transform="translate(0 0)">
                <circle id="Elipse_5391" data-name="Elipse 5391" cx="1.591" cy="1.591" r="1.591" transform="translate(0 3.141) rotate(-80.783)" fill="#2ff980"/>
              </g>
            </g>
            <g id="Grupo_84005" data-name="Grupo 84005" transform="translate(6.275 0.114)">
              <g id="Grupo_84004" data-name="Grupo 84004" transform="translate(0 0)">
                <circle id="Elipse_5392" data-name="Elipse 5392" cx="1.591" cy="1.591" r="1.591" transform="translate(0 3.097) rotate(-76.718)" fill="#583ae2"/>
              </g>
            </g>
            <g id="Grupo_84007" data-name="Grupo 84007" transform="translate(12.297 0)">
              <g id="Grupo_84006" data-name="Grupo 84006">
                <circle id="Elipse_5393" data-name="Elipse 5393" cx="1.591" cy="1.591" r="1.591" transform="translate(0 3.097) rotate(-76.718)" fill="#d5cef8"/>
              </g>
            </g>
          </g>
        </g>
        <g id="Grupo_84022" data-name="Grupo 84022" transform="translate(2279.679 1855.965)">
          <g id="Grupo_84011" data-name="Grupo 84011" transform="translate(0 0)">
            <g id="Grupo_84010" data-name="Grupo 84010">
              <path id="Trazado_121757" data-name="Trazado 121757" d="M2834.529,1855.965h-64.7v30.867h12.146l3.52,7.346,3.52-7.346h45.515Z" transform="translate(-2769.828 -1855.965)" fill="#ab9df1"/>
            </g>
          </g>
          <g id="Grupo_84021" data-name="Grupo 84021" transform="translate(12.527 7.686)">
            <g id="Grupo_84014" data-name="Grupo 84014" transform="translate(0 0.254)">
              <g id="Grupo_84013" data-name="Grupo 84013">
                <g id="Grupo_84012" data-name="Grupo 84012">
                  <path id="Trazado_121758" data-name="Trazado 121758" d="M2844.758,1913.875l-7.625-7.625,7.625-7.625,1,1-6.621,6.621,6.621,6.621Z" transform="translate(-2837.133 -1898.625)" fill="#2ff980"/>
                </g>
              </g>
            </g>
            <g id="Grupo_84017" data-name="Grupo 84017" transform="translate(31.018 0.254)">
              <g id="Grupo_84016" data-name="Grupo 84016">
                <g id="Grupo_84015" data-name="Grupo 84015">
                  <path id="Trazado_121759" data-name="Trazado 121759" d="M3004.782,1913.875l-1-1,6.621-6.621-6.621-6.621,1-1,7.625,7.625Z" transform="translate(-3003.779 -1898.625)" fill="#2ff980"/>
                </g>
              </g>
            </g>
            <g id="Grupo_84020" data-name="Grupo 84020" transform="translate(17.352 0)">
              <g id="Grupo_84019" data-name="Grupo 84019">
                <g id="Grupo_84018" data-name="Grupo 84018">
                  <rect id="Rectángulo_34511" data-name="Rectángulo 34511" width="15.582" height="1.42" transform="matrix(0.229, -0.974, 0.974, 0.229, 0, 15.17)" fill="#2ff980"/>
                </g>
              </g>
            </g>
          </g>
        </g>
        <g id="Grupo_84243" data-name="Grupo 84243" transform="translate(2266.792 1877.955)">
          <g id="Grupo_84024" data-name="Grupo 84024" transform="translate(47.583)">
            <g id="Grupo_84023" data-name="Grupo 84023">
              <path id="Trazado_121760" data-name="Trazado 121760" d="M2967.363,2011.984s-16.141-9.229-9.546-27.058,28.48-9.786,31.3-2.936c3.838,9.334,2.46,26.533-7.775,31.148Z" transform="translate(-2956.234 -1974.108)" fill="#a38abf"/>
            </g>
          </g>
          <g id="Grupo_84033" data-name="Grupo 84033" transform="translate(18.468 137.049)">
            <g id="Grupo_84026" data-name="Grupo 84026">
              <g id="Grupo_84025" data-name="Grupo 84025">
                <path id="Trazado_121761" data-name="Trazado 121761" d="M2836.4,2725.421l-7.979,3.077-11.923,10.449c-2.8,2.457-5.487,4.394-8.854,1.8a19.714,19.714,0,0,1-7.4-13.488c-.373-2.877-1.468-9.979,2.33-11.242,4.074-1.355,10.888-3.578,13.843-4.283,1.758-.42,7.012-1.314,7.012-1.314l-.99,2.76,4.949-1.515c2.13-.652,4.176-.055,4.673,1.364Z" transform="translate(-2799.809 -2710.417)" fill="#ab9df1"/>
              </g>
            </g>
            <g id="Grupo_84028" data-name="Grupo 84028" transform="translate(3.613 5.864)">
              <g id="Grupo_84027" data-name="Grupo 84027">
                <path id="Trazado_121762" data-name="Trazado 121762" d="M2829.585,2767.026a.307.307,0,0,1-.135-.031,20.782,20.782,0,0,1-6.944-5.969c-2.735-3.714-5.166-10.01-1.217-18.916a.311.311,0,0,1,.569.252c-3.069,6.921-2.687,13.07,1.135,18.275a20.537,20.537,0,0,0,6.728,5.8.312.312,0,0,1-.136.592Z" transform="translate(-2819.218 -2741.924)" fill="#323232"/>
              </g>
            </g>
            <g id="Grupo_84030" data-name="Grupo 84030" transform="translate(16.459 7.751)">
              <g id="Grupo_84029" data-name="Grupo 84029">
                <path id="Trazado_121763" data-name="Trazado 121763" d="M2893.864,2765.253a.312.312,0,0,1-.309-.278,23.564,23.564,0,0,0-5.247-12.407.311.311,0,1,1,.479-.4,24.188,24.188,0,0,1,5.387,12.738.311.311,0,0,1-.276.343Z" transform="translate(-2888.236 -2752.058)" fill="#323232"/>
              </g>
            </g>
            <g id="Grupo_84032" data-name="Grupo 84032" transform="translate(19.879 5.817)">
              <g id="Grupo_84031" data-name="Grupo 84031">
                <path id="Trazado_121764" data-name="Trazado 121764" d="M2912.237,2754.864a.311.311,0,0,1-.309-.278,23.561,23.561,0,0,0-5.248-12.407.311.311,0,1,1,.479-.4,24.186,24.186,0,0,1,5.387,12.738.311.311,0,0,1-.276.343Z" transform="translate(-2906.609 -2741.67)" fill="#323232"/>
              </g>
            </g>
          </g>
          <g id="Grupo_84035" data-name="Grupo 84035" transform="translate(37.291 100.671)">
            <g id="Grupo_84034" data-name="Grupo 84034">
              <rect id="Rectángulo_34512" data-name="Rectángulo 34512" width="54.851" height="26.233" fill="#9dbde7"/>
            </g>
          </g>
          <g id="Grupo_84037" data-name="Grupo 84037" transform="translate(40.778 98.87)">
            <g id="Grupo_84036" data-name="Grupo 84036">
              <path id="Trazado_121765" data-name="Trazado 121765" d="M2919.671,2538.857l9.232,23.091,73.79-21.293a18.228,18.228,0,0,0,10.575-24.16h0a18.228,18.228,0,0,0-24.626-9.437Z" transform="translate(-2919.671 -2505.296)" fill="#b5e4eb"/>
            </g>
          </g>
          <g id="Grupo_84039" data-name="Grupo 84039" transform="translate(70.897 114.139)">
            <g id="Grupo_84038" data-name="Grupo 84038">
              <path id="Trazado_121766" data-name="Trazado 121766" d="M3081.8,2599.614a.311.311,0,0,1-.147-.585l21.728-11.659a.311.311,0,0,1,.294.549l-21.729,11.659A.31.31,0,0,1,3081.8,2599.614Z" transform="translate(-3081.49 -2587.333)" fill="#323232"/>
            </g>
          </g>
          <g id="Grupo_84048" data-name="Grupo 84048" transform="translate(79.67 133.074)">
            <g id="Grupo_84041" data-name="Grupo 84041">
              <g id="Grupo_84040" data-name="Grupo 84040">
                <path id="Trazado_121767" data-name="Trazado 121767" d="M3128.625,2704.066l7.979,3.077,11.923,10.448c2.8,2.457,5.487,4.394,8.854,1.8a19.712,19.712,0,0,0,7.4-13.488c.373-2.877,1.468-9.978-2.33-11.242-4.075-1.356-10.888-3.578-13.843-4.283-1.758-.42-7.012-1.314-7.012-1.314l.99,2.76-4.949-1.515c-2.13-.652-4.176-.055-4.673,1.364Z" transform="translate(-3128.625 -2689.062)" fill="#ab9df1"/>
              </g>
            </g>
            <g id="Grupo_84043" data-name="Grupo 84043" transform="translate(22.303 5.864)">
              <g id="Grupo_84042" data-name="Grupo 84042">
                <path id="Trazado_121768" data-name="Trazado 121768" d="M3248.761,2745.67a.311.311,0,0,1-.136-.591,20.545,20.545,0,0,0,6.727-5.8c3.823-5.205,4.2-11.354,1.136-18.276a.311.311,0,1,1,.569-.252c3.948,8.906,1.517,15.2-1.217,18.916a20.789,20.789,0,0,1-6.944,5.969A.31.31,0,0,1,3248.761,2745.67Z" transform="translate(-3248.45 -2720.568)" fill="#323232"/>
              </g>
            </g>
            <g id="Grupo_84045" data-name="Grupo 84045" transform="translate(14.195 7.751)">
              <g id="Grupo_84044" data-name="Grupo 84044">
                <path id="Trazado_121769" data-name="Trazado 121769" d="M3205.2,2743.9l-.034,0a.311.311,0,0,1-.276-.343,24.192,24.192,0,0,1,5.388-12.738.311.311,0,1,1,.479.4,23.561,23.561,0,0,0-5.247,12.406A.311.311,0,0,1,3205.2,2743.9Z" transform="translate(-3204.89 -2730.704)" fill="#323232"/>
              </g>
            </g>
            <g id="Grupo_84047" data-name="Grupo 84047" transform="translate(10.775 5.817)">
              <g id="Grupo_84046" data-name="Grupo 84046">
                <path id="Trazado_121770" data-name="Trazado 121770" d="M3186.829,2733.509l-.034,0a.311.311,0,0,1-.276-.343,24.188,24.188,0,0,1,5.388-12.738.311.311,0,0,1,.479.4,23.565,23.565,0,0,0-5.248,12.407A.311.311,0,0,1,3186.829,2733.509Z" transform="translate(-3186.517 -2720.315)" fill="#323232"/>
              </g>
            </g>
          </g>
          <g id="Grupo_84050" data-name="Grupo 84050" transform="translate(0 99.665)">
            <g id="Grupo_84049" data-name="Grupo 84049">
              <path id="Trazado_121771" data-name="Trazado 121771" d="M2795.6,2543.128l-9.232,23.091-73.79-21.293a18.228,18.228,0,0,1-10.575-24.16h0a18.228,18.228,0,0,1,24.626-9.437Z" transform="translate(-2700.588 -2509.567)" fill="#b5e4eb"/>
            </g>
          </g>
          <g id="Grupo_84052" data-name="Grupo 84052" transform="translate(36.715 106.455)">
            <g id="Grupo_84051" data-name="Grupo 84051">
              <path id="Trazado_121772" data-name="Trazado 121772" d="M2950.088,2583.5a.312.312,0,0,1-.289-.427l4.353-10.891-56.128-25.542a.311.311,0,0,1,.258-.566l56.4,25.665a.311.311,0,0,1,.16.4l-4.462,11.167A.311.311,0,0,1,2950.088,2583.5Z" transform="translate(-2897.841 -2546.048)" fill="#40327b"/>
            </g>
          </g>
          <g id="Grupo_84054" data-name="Grupo 84054" transform="translate(46.784 145.142)">
            <g id="Grupo_84053" data-name="Grupo 84053">
              <path id="Trazado_121773" data-name="Trazado 121773" d="M2971.329,2759.554a.323.323,0,0,1-.08-.01l-19.079-5.035a.311.311,0,0,1,.159-.6l19.079,5.035a.311.311,0,0,1-.079.612Z" transform="translate(-2951.939 -2753.897)" fill="#40327b"/>
            </g>
          </g>
          <g id="Grupo_84056" data-name="Grupo 84056" transform="translate(84.139 79.039)">
            <g id="Grupo_84055" data-name="Grupo 84055">
              <path id="Trazado_121774" data-name="Trazado 121774" d="M3164.677,2425.1s8.587-1.6,7.622-18.549-20.933-2.084-19.6,5.459S3164.677,2425.1,3164.677,2425.1Z" transform="translate(-3152.633 -2398.754)" fill="#d7c4e3"/>
            </g>
          </g>
          <g id="Grupo_84058" data-name="Grupo 84058" transform="translate(25.411 39.135)">
            <g id="Grupo_84057" data-name="Grupo 84057">
              <path id="Trazado_121775" data-name="Trazado 121775" d="M2915.5,2232.061l-3.18-34.979c-1-5.691-7.156-9.456-12.793-10.721L2894,2185.12l-30.89-.757-7.473.328a14.308,14.308,0,0,0-12.927,9.711l-5.6,35.353,12.646-.666c.892,13.589,1.775,20.536,1.775,20.536l45.5-.454.076-10.827Z" transform="translate(-2837.11 -2184.363)" fill="#40327b"/>
            </g>
          </g>
          <g id="Grupo_84060" data-name="Grupo 84060" transform="translate(86.56 61.635)">
            <g id="Grupo_84059" data-name="Grupo 84059" transform="translate(0 0)">
              <rect id="Rectángulo_34513" data-name="Rectángulo 34513" width="34.233" height="0.622" transform="translate(0 33.945) rotate(-82.566)" fill="#323232"/>
            </g>
          </g>
          <g id="Grupo_84062" data-name="Grupo 84062" transform="translate(51.412 38.68)">
            <g id="Grupo_84061" data-name="Grupo 84061">
              <path id="Trazado_121776" data-name="Trazado 121776" d="M2985.587,2181.923l-8.782.454s.976,6.363,10.3,9.085c13.477,3.937,20.594-8.328,20.594-8.328Z" transform="translate(-2976.805 -2181.923)" fill="#40327b"/>
            </g>
          </g>
          <g id="Grupo_84064" data-name="Grupo 84064" transform="translate(58.227 27.136)">
            <g id="Grupo_84063" data-name="Grupo 84063">
              <path id="Trazado_121777" data-name="Trazado 121777" d="M3026.1,2119.9l-12.487,3.8-.2,7.339A28.636,28.636,0,0,0,3026.1,2119.9Z" transform="translate(-3013.42 -2119.9)" fill="#b75539"/>
            </g>
          </g>
          <g id="Grupo_84066" data-name="Grupo 84066" transform="translate(58.154 26.303)">
            <g id="Grupo_84065" data-name="Grupo 84065">
              <path id="Trazado_121778" data-name="Trazado 121778" d="M3028.079,2130.663l.448-15.24-2.742.833a28.637,28.637,0,0,1-12.683,11.135l-.073,2.724Z" transform="translate(-3013.029 -2115.423)" fill="#c16d55"/>
            </g>
          </g>
          <g id="Grupo_84068" data-name="Grupo 84068" transform="translate(36.035 61.144)">
            <g id="Grupo_84067" data-name="Grupo 84067" transform="translate(0 0)">
              <rect id="Rectángulo_34514" data-name="Rectángulo 34514" width="0.622" height="19.128" transform="translate(0 0.044) rotate(-4.086)" fill="#323232"/>
            </g>
          </g>
          <g id="Grupo_84070" data-name="Grupo 84070" transform="translate(85.182 87.175)">
            <g id="Grupo_84069" data-name="Grupo 84069">
              <path id="Trazado_121779" data-name="Trazado 121779" d="M3158.789,2449.94l-.551-.289a13.1,13.1,0,0,1,6.327-5.753,18.128,18.128,0,0,1,8.458-1.391l-.039.621a17.5,17.5,0,0,0-8.166,1.338A12.479,12.479,0,0,0,3158.789,2449.94Z" transform="translate(-3158.238 -2442.467)" fill="#323232"/>
            </g>
          </g>
          <g id="Grupo_84097" data-name="Grupo 84097" transform="translate(76.347 90.948)">
            <g id="Grupo_84075" data-name="Grupo 84075" transform="translate(0 1.165)">
              <g id="Grupo_84074" data-name="Grupo 84074">
                <g id="Grupo_84073" data-name="Grupo 84073">
                  <g id="Grupo_84072" data-name="Grupo 84072">
                    <g id="Grupo_84071" data-name="Grupo 84071">
                      <path id="Trazado_121780" data-name="Trazado 121780" d="M3112.638,2483.111a4.029,4.029,0,0,0,.208.346c1.037,1.541,4.342,2.731,5.415.66a5.2,5.2,0,0,0,.415-2.211c.1-2.617-.793-7.388-1.085-10.856a2.247,2.247,0,0,0-2.458-2.045c-1.062.1-2.272-.115-3.268.362-1.434.687-1.057,2.622-1.025,3.968a30.533,30.533,0,0,0,.557,5.119A17.517,17.517,0,0,0,3112.638,2483.111Z" transform="translate(-3110.772 -2468.995)" fill="#c16d55"/>
                    </g>
                  </g>
                </g>
              </g>
            </g>
            <g id="Grupo_84080" data-name="Grupo 84080" transform="translate(5.89)">
              <g id="Grupo_84079" data-name="Grupo 84079">
                <g id="Grupo_84078" data-name="Grupo 84078">
                  <g id="Grupo_84077" data-name="Grupo 84077">
                    <g id="Grupo_84076" data-name="Grupo 84076">
                      <path id="Trazado_121781" data-name="Trazado 121781" d="M3144.844,2462.737a2.087,2.087,0,0,0-2.078,2.333,32.375,32.375,0,0,1,.49,4.346c-.1,1.619-.428,3.212-.612,4.822-.118,1.031-.549,3.387.2,4.267.787.918,3.382,1.5,4.324.55.96-.971.9-2.645,1-3.907.136-1.765.119-3.525.148-5.295.006-.329.022-2.959.122-4.925a2.084,2.084,0,0,0-2.077-2.187Z" transform="translate(-3142.415 -2462.737)" fill="#c16d55"/>
                    </g>
                  </g>
                </g>
              </g>
            </g>
            <g id="Grupo_84085" data-name="Grupo 84085" transform="translate(11.139 0.257)">
              <g id="Grupo_84084" data-name="Grupo 84084">
                <g id="Grupo_84083" data-name="Grupo 84083">
                  <g id="Grupo_84082" data-name="Grupo 84082">
                    <g id="Grupo_84081" data-name="Grupo 84081">
                      <path id="Trazado_121782" data-name="Trazado 121782" d="M3171.024,2478.887a2.176,2.176,0,0,0,2.234,2.39c2.025.154,2.318-2.313,2.57-3.766.287-1.659.637-3.305.994-4.95a20.992,20.992,0,0,0,.842-4.629c-.048-2.522-2.346-3.808-4.642-3.815-2.819-.009-2.479,2.511-2.271,4.673.215,2.231.051,4.507.119,6.75C3170.9,2476.656,3170.971,2477.771,3171.024,2478.887Z" transform="translate(-3170.617 -2464.117)" fill="#c16d55"/>
                    </g>
                  </g>
                </g>
              </g>
            </g>
            <g id="Grupo_84090" data-name="Grupo 84090" transform="translate(16.048 1.348)">
              <g id="Grupo_84089" data-name="Grupo 84089">
                <g id="Grupo_84088" data-name="Grupo 84088">
                  <g id="Grupo_84087" data-name="Grupo 84087">
                    <g id="Grupo_84086" data-name="Grupo 84086">
                      <path id="Trazado_121783" data-name="Trazado 121783" d="M3197.03,2482.607a2.151,2.151,0,0,0,.693,2.211,3.032,3.032,0,0,0,3.468-.3,3.794,3.794,0,0,0,.9-1.666l2.542-7.648c.758-2.28-2.452-7.253-5.479-4.329-1.212,1.171-1.042,3.1-1.156,4.639a60.543,60.543,0,0,1-.865,6.476C3197.092,2482.188,3197.056,2482.4,3197.03,2482.607Z" transform="translate(-3196.99 -2469.978)" fill="#c16d55"/>
                    </g>
                  </g>
                </g>
              </g>
            </g>
            <g id="Grupo_84092" data-name="Grupo 84092" transform="translate(5.633 2.009)">
              <g id="Grupo_84091" data-name="Grupo 84091">
                <path id="Trazado_121784" data-name="Trazado 121784" d="M3142.1,2487.4a.311.311,0,0,1-.311-.293l-.757-13.25a.311.311,0,1,1,.621-.036l.757,13.25a.311.311,0,0,1-.293.329Z" transform="translate(-3141.036 -2473.531)" fill="#323232"/>
              </g>
            </g>
            <g id="Grupo_84094" data-name="Grupo 84094" transform="translate(11.16 1.403)">
              <g id="Grupo_84093" data-name="Grupo 84093">
                <path id="Trazado_121785" data-name="Trazado 121785" d="M3171.042,2483.086h-.01a.311.311,0,0,1-.3-.321l.378-12.189a.3.3,0,0,1,.321-.3.311.311,0,0,1,.3.321l-.378,12.19A.311.311,0,0,1,3171.042,2483.086Z" transform="translate(-3170.73 -2470.274)" fill="#323232"/>
              </g>
            </g>
            <g id="Grupo_84096" data-name="Grupo 84096" transform="translate(15.93 2.993)">
              <g id="Grupo_84095" data-name="Grupo 84095">
                <path id="Trazado_121786" data-name="Trazado 121786" d="M3196.668,2490.645l-.04,0a.312.312,0,0,1-.269-.348l1.439-11.205a.311.311,0,1,1,.617.079l-1.439,11.205A.311.311,0,0,1,3196.668,2490.645Z" transform="translate(-3196.356 -2478.817)" fill="#323232"/>
              </g>
            </g>
          </g>
          <g id="Grupo_84099" data-name="Grupo 84099" transform="translate(25.099 79.039)">
            <g id="Grupo_84098" data-name="Grupo 84098">
              <path id="Trazado_121787" data-name="Trazado 121787" d="M2843.131,2425.1s-8.588-1.6-7.622-18.549,20.933-2.084,19.6,5.459S2843.131,2425.1,2843.131,2425.1Z" transform="translate(-2835.434 -2398.754)" fill="#d7c4e3"/>
            </g>
          </g>
          <g id="Grupo_84126" data-name="Grupo 84126" transform="translate(28.833 90.948)">
            <g id="Grupo_84104" data-name="Grupo 84104" transform="translate(15.887 1.165)">
              <g id="Grupo_84103" data-name="Grupo 84103">
                <g id="Grupo_84102" data-name="Grupo 84102">
                  <g id="Grupo_84101" data-name="Grupo 84101">
                    <g id="Grupo_84100" data-name="Grupo 84100">
                      <path id="Trazado_121788" data-name="Trazado 121788" d="M2946.9,2483.111a4.031,4.031,0,0,1-.209.346c-1.037,1.541-4.342,2.731-5.415.66a5.2,5.2,0,0,1-.415-2.211c-.1-2.617.793-7.388,1.085-10.856a2.247,2.247,0,0,1,2.458-2.045c1.062.1,2.272-.115,3.267.362,1.434.687,1.057,2.622,1.025,3.968a30.584,30.584,0,0,1-.557,5.119A17.553,17.553,0,0,1,2946.9,2483.111Z" transform="translate(-2940.849 -2468.995)" fill="#c16d55"/>
                    </g>
                  </g>
                </g>
              </g>
            </g>
            <g id="Grupo_84109" data-name="Grupo 84109" transform="translate(11.879)">
              <g id="Grupo_84108" data-name="Grupo 84108">
                <g id="Grupo_84107" data-name="Grupo 84107">
                  <g id="Grupo_84106" data-name="Grupo 84106">
                    <g id="Grupo_84105" data-name="Grupo 84105">
                      <path id="Trazado_121789" data-name="Trazado 121789" d="M2922.918,2462.737a2.087,2.087,0,0,1,2.078,2.333,32.375,32.375,0,0,0-.49,4.346c.1,1.619.428,3.212.612,4.822.118,1.031.549,3.387-.2,4.267-.787.918-3.382,1.5-4.323.55-.96-.971-.9-2.645-1-3.907-.136-1.765-.119-3.525-.148-5.295-.006-.329-.022-2.959-.122-4.925a2.084,2.084,0,0,1,2.077-2.187Z" transform="translate(-2919.318 -2462.737)" fill="#c16d55"/>
                    </g>
                  </g>
                </g>
              </g>
            </g>
            <g id="Grupo_84114" data-name="Grupo 84114" transform="translate(5.612 0.257)">
              <g id="Grupo_84113" data-name="Grupo 84113">
                <g id="Grupo_84112" data-name="Grupo 84112">
                  <g id="Grupo_84111" data-name="Grupo 84111">
                    <g id="Grupo_84110" data-name="Grupo 84110">
                      <path id="Trazado_121790" data-name="Trazado 121790" d="M2892.286,2478.887a2.176,2.176,0,0,1-2.234,2.39c-2.026.154-2.318-2.313-2.57-3.766-.287-1.659-.637-3.305-.994-4.95a20.993,20.993,0,0,1-.843-4.629c.048-2.522,2.347-3.808,4.642-3.815,2.819-.009,2.479,2.511,2.271,4.673-.215,2.231-.051,4.507-.119,6.75C2892.406,2476.656,2892.339,2477.771,2892.286,2478.887Z" transform="translate(-2885.645 -2464.117)" fill="#c16d55"/>
                    </g>
                  </g>
                </g>
              </g>
            </g>
            <g id="Grupo_84119" data-name="Grupo 84119" transform="translate(0 1.348)">
              <g id="Grupo_84118" data-name="Grupo 84118">
                <g id="Grupo_84117" data-name="Grupo 84117">
                  <g id="Grupo_84116" data-name="Grupo 84116">
                    <g id="Grupo_84115" data-name="Grupo 84115">
                      <path id="Trazado_121791" data-name="Trazado 121791" d="M2863.206,2482.607a2.15,2.15,0,0,1-.694,2.211,3.032,3.032,0,0,1-3.468-.3,3.8,3.8,0,0,1-.9-1.666l-2.542-7.648c-.758-2.28,2.452-7.253,5.48-4.329,1.212,1.171,1.042,3.1,1.156,4.639a60.482,60.482,0,0,0,.865,6.476C2863.144,2482.188,2863.18,2482.4,2863.206,2482.607Z" transform="translate(-2855.495 -2469.978)" fill="#c16d55"/>
                    </g>
                  </g>
                </g>
              </g>
            </g>
            <g id="Grupo_84121" data-name="Grupo 84121" transform="translate(16.786 2.009)">
              <g id="Grupo_84120" data-name="Grupo 84120">
                <path id="Trazado_121792" data-name="Trazado 121792" d="M2945.992,2487.4h-.018a.311.311,0,0,1-.293-.328l.757-13.25a.311.311,0,0,1,.622.035l-.757,13.25A.311.311,0,0,1,2945.992,2487.4Z" transform="translate(-2945.681 -2473.53)" fill="#323232"/>
              </g>
            </g>
            <g id="Grupo_84123" data-name="Grupo 84123" transform="translate(11.638 1.403)">
              <g id="Grupo_84122" data-name="Grupo 84122">
                <path id="Trazado_121793" data-name="Trazado 121793" d="M2918.71,2483.086a.311.311,0,0,1-.311-.3l-.379-12.189a.311.311,0,0,1,.3-.321.305.305,0,0,1,.321.3l.379,12.189a.311.311,0,0,1-.3.321Z" transform="translate(-2918.02 -2470.274)" fill="#323232"/>
              </g>
            </g>
            <g id="Grupo_84125" data-name="Grupo 84125" transform="translate(5.808 2.993)">
              <g id="Grupo_84124" data-name="Grupo 84124">
                <path id="Trazado_121794" data-name="Trazado 121794" d="M2888.449,2490.644a.311.311,0,0,1-.308-.271l-1.438-11.205a.311.311,0,1,1,.617-.08l1.438,11.206a.311.311,0,0,1-.269.348A.275.275,0,0,1,2888.449,2490.644Z" transform="translate(-2886.7 -2478.816)" fill="#323232"/>
              </g>
            </g>
          </g>
          <g id="Grupo_84131" data-name="Grupo 84131" transform="translate(22.502 81.421)">
            <g id="Grupo_84128" data-name="Grupo 84128">
              <g id="Grupo_84127" data-name="Grupo 84127">
                <path id="Trazado_121795" data-name="Trazado 121795" d="M2893.316,2455.811h-58.207c-3.749,0-6.945-2.3-7.544-5.439l-5.985-31.312c-.752-3.937,2.836-7.509,7.544-7.509H2899.3c4.708,0,8.3,3.572,7.544,7.509l-5.985,31.313C2900.261,2453.507,2897.065,2455.811,2893.316,2455.811Z" transform="translate(-2821.481 -2411.551)" fill="#826be9"/>
              </g>
            </g>
            <g id="Grupo_84130" data-name="Grupo 84130" transform="translate(36.241 15.807)">
              <g id="Grupo_84129" data-name="Grupo 84129" transform="translate(0 0)">
                <circle id="Elipse_5394" data-name="Elipse 5394" cx="4.968" cy="4.968" r="4.968" transform="translate(0 3.802) rotate(-22.5)" fill="#2ff980"/>
              </g>
            </g>
          </g>
          <g id="Grupo_84145" data-name="Grupo 84145" transform="translate(48.808 2.583)">
            <g id="Grupo_84135" data-name="Grupo 84135" transform="translate(3.904 7.363)">
              <g id="Grupo_84134" data-name="Grupo 84134">
                <g id="Grupo_84133" data-name="Grupo 84133">
                  <g id="Grupo_84132" data-name="Grupo 84132">
                    <path id="Trazado_121796" data-name="Trazado 121796" d="M2983.792,2042.863a12.541,12.541,0,0,0,14.771,12.977c7.969-1.5,10.411-6.6,11.026-14.68.683-8.975-4.04-13.316-12.143-13.6S2984.085,2031.053,2983.792,2042.863Z" transform="translate(-2983.788 -2027.543)" fill="#c16d55"/>
                  </g>
                </g>
              </g>
            </g>
            <g id="Grupo_84144" data-name="Grupo 84144">
              <g id="Grupo_84139" data-name="Grupo 84139">
                <g id="Grupo_84138" data-name="Grupo 84138">
                  <g id="Grupo_84137" data-name="Grupo 84137">
                    <g id="Grupo_84136" data-name="Grupo 84136">
                      <path id="Trazado_121797" data-name="Trazado 121797" d="M2965.973,2006.455a4.683,4.683,0,0,1-1.22,1.973s-2.312-5.945-1.886-7.773a16.85,16.85,0,0,1,6.771-10.57,9.684,9.684,0,0,1,9.9-1.3,11.323,11.323,0,0,1,6.279-.009,11.132,11.132,0,0,1,5.787,4.238,10.875,10.875,0,0,1,2.33,6.864c-.173,2.372-1.123,6.489-2.53,6.739-1.817-.429-7.085-6.7-7.658-9.11,0,0-7.828,5.23-12.779,6.036l1.019-2.9S2968.608,2005.858,2965.973,2006.455Z" transform="translate(-2962.815 -1987.985)" fill="#433931"/>
                    </g>
                  </g>
                </g>
              </g>
              <g id="Grupo_84143" data-name="Grupo 84143" transform="translate(6.037 19.73)">
                <g id="Grupo_84142" data-name="Grupo 84142">
                  <g id="Grupo_84141" data-name="Grupo 84141">
                    <g id="Grupo_84140" data-name="Grupo 84140">
                      <path id="Trazado_121798" data-name="Trazado 121798" d="M2995.25,2093.988" transform="translate(-2995.25 -2093.988)" fill="#433931"/>
                    </g>
                  </g>
                </g>
              </g>
            </g>
          </g>
          <g id="Grupo_84147" data-name="Grupo 84147" transform="translate(47.615 0.222)">
            <g id="Grupo_84146" data-name="Grupo 84146">
              <path id="Trazado_121799" data-name="Trazado 121799" d="M2972.8,1981.289c.333,0,12.544,6.98,14.088,11.647s-2,19.191-12.646,22.075l1.553,3.661,11.315-2.44.16-2.344a16.578,16.578,0,0,1,1-4.62c2.844-7.693,10.769-34.064-14.245-33.969-4.94.019-9.915,1.487-13.2,5.36-2.687,3.169-3.881,7.334-4.27,11.4a35.955,35.955,0,0,0,.181,8.137c.14,1.053.334,2.093.566,3.129.654,2.922,2.864,5.175,4.466,7.6q1.3,1.965,2.612,3.922c.271.4,1.394,2.642,1.877,2.714l9.1,1.553-.777-4.215s-19.19-6.212-11.647-22.851A21.944,21.944,0,0,1,2972.8,1981.289Z" transform="translate(-2956.405 -1975.299)" fill="#40327b"/>
            </g>
          </g>
          <g id="Grupo_84186" data-name="Grupo 84186" transform="translate(49.955 20.173)">
            <g id="Grupo_84166" data-name="Grupo 84166" transform="translate(0 1.356)">
              <g id="Grupo_84154" data-name="Grupo 84154">
                <g id="Grupo_84153" data-name="Grupo 84153">
                  <g id="Grupo_84152" data-name="Grupo 84152">
                    <g id="Grupo_84151" data-name="Grupo 84151">
                      <g id="Grupo_84150" data-name="Grupo 84150">
                        <g id="Grupo_84149" data-name="Grupo 84149">
                          <g id="Grupo_84148" data-name="Grupo 84148">
                            <path id="Trazado_121800" data-name="Trazado 121800" d="M2977.669,2093.868a4.351,4.351,0,1,1-4.6-4.087,3.609,3.609,0,0,1,.556.006A4.349,4.349,0,0,1,2977.669,2093.868Z" transform="translate(-2968.974 -2089.773)" fill="#c16d55"/>
                          </g>
                        </g>
                      </g>
                    </g>
                  </g>
                </g>
              </g>
              <g id="Grupo_84165" data-name="Grupo 84165" transform="translate(1.333 1.752)">
                <g id="Grupo_84159" data-name="Grupo 84159" transform="translate(0.377)">
                  <g id="Grupo_84158" data-name="Grupo 84158">
                    <g id="Grupo_84157" data-name="Grupo 84157">
                      <g id="Grupo_84156" data-name="Grupo 84156">
                        <g id="Grupo_84155" data-name="Grupo 84155">
                          <path id="Trazado_121801" data-name="Trazado 121801" d="M2980.616,2103.509a.339.339,0,0,1-.33-.315,4.1,4.1,0,0,0-1.944-3.367.339.339,0,0,1,.312-.6,4.777,4.777,0,0,1,2.308,3.921.339.339,0,0,1-.314.361Z" transform="translate(-2978.16 -2099.188)" fill="#323232"/>
                        </g>
                      </g>
                    </g>
                  </g>
                </g>
                <g id="Grupo_84164" data-name="Grupo 84164" transform="translate(0 1.781)">
                  <g id="Grupo_84163" data-name="Grupo 84163">
                    <g id="Grupo_84162" data-name="Grupo 84162">
                      <g id="Grupo_84161" data-name="Grupo 84161">
                        <g id="Grupo_84160" data-name="Grupo 84160">
                          <path id="Trazado_121802" data-name="Trazado 121802" d="M2978.69,2109.939a.335.335,0,0,1-.237-.1c-.647-.672-1.864-.3-1.876-.294a.339.339,0,0,1-.207-.645,2.69,2.69,0,0,1,2.571.47.339.339,0,0,1-.251.573Z" transform="translate(-2976.136 -2108.755)" fill="#323232"/>
                        </g>
                      </g>
                    </g>
                  </g>
                </g>
              </g>
            </g>
            <g id="Grupo_84185" data-name="Grupo 84185" transform="translate(23.386)">
              <g id="Grupo_84173" data-name="Grupo 84173">
                <g id="Grupo_84172" data-name="Grupo 84172">
                  <g id="Grupo_84171" data-name="Grupo 84171">
                    <g id="Grupo_84170" data-name="Grupo 84170">
                      <g id="Grupo_84169" data-name="Grupo 84169">
                        <g id="Grupo_84168" data-name="Grupo 84168">
                          <g id="Grupo_84167" data-name="Grupo 84167">
                            <path id="Trazado_121803" data-name="Trazado 121803" d="M3094.624,2087.089a4.351,4.351,0,1,0,4.1-4.592,3.6,3.6,0,0,0-.552.07A4.348,4.348,0,0,0,3094.624,2087.089Z" transform="translate(-3094.617 -2082.49)" fill="#c16d55"/>
                          </g>
                        </g>
                      </g>
                    </g>
                  </g>
                </g>
              </g>
              <g id="Grupo_84184" data-name="Grupo 84184" transform="translate(4.344 1.501)">
                <g id="Grupo_84178" data-name="Grupo 84178">
                  <g id="Grupo_84177" data-name="Grupo 84177">
                    <g id="Grupo_84176" data-name="Grupo 84176">
                      <g id="Grupo_84175" data-name="Grupo 84175">
                        <g id="Grupo_84174" data-name="Grupo 84174">
                          <path id="Trazado_121804" data-name="Trazado 121804" d="M3118.292,2095.1a.339.339,0,0,1-.331-.323,4.776,4.776,0,0,1,1.84-4.161.339.339,0,0,1,.379.562h0a4.1,4.1,0,0,0-1.542,3.569.339.339,0,0,1-.323.354Z" transform="translate(-3117.955 -2090.556)" fill="#323232"/>
                        </g>
                      </g>
                    </g>
                  </g>
                </g>
                <g id="Grupo_84183" data-name="Grupo 84183" transform="translate(0.126 1.806)">
                  <g id="Grupo_84182" data-name="Grupo 84182">
                    <g id="Grupo_84181" data-name="Grupo 84181">
                      <g id="Grupo_84180" data-name="Grupo 84180">
                        <g id="Grupo_84179" data-name="Grupo 84179">
                          <path id="Trazado_121805" data-name="Trazado 121805" d="M3118.965,2101.613a.339.339,0,0,1-.262-.543,2.689,2.689,0,0,1,2.5-.764.339.339,0,0,1-.131.665c-.021,0-1.266-.231-1.829.509A.337.337,0,0,1,3118.965,2101.613Z" transform="translate(-3118.633 -2100.256)" fill="#323232"/>
                        </g>
                      </g>
                    </g>
                  </g>
                </g>
              </g>
            </g>
          </g>
          <g id="Grupo_84211" data-name="Grupo 84211" transform="translate(58.028 20.812)">
            <g id="Grupo_84190" data-name="Grupo 84190" transform="translate(4.735 2.174)">
              <g id="Grupo_84189" data-name="Grupo 84189">
                <g id="Grupo_84188" data-name="Grupo 84188">
                  <g id="Grupo_84187" data-name="Grupo 84187">
                    <path id="Trazado_121806" data-name="Trazado 121806" d="M3039.76,2104.335a.478.478,0,0,1-.325-.176l-1.538-1.907a.478.478,0,0,1-.084-.442l1.2-3.871a.478.478,0,0,1,.913.284l-1.128,3.627,1.378,1.709a.478.478,0,0,1-.419.776Z" transform="translate(-3037.791 -2097.603)" fill="#323232"/>
                  </g>
                </g>
              </g>
            </g>
            <g id="Grupo_84194" data-name="Grupo 84194" transform="translate(10.742 3.37)">
              <g id="Grupo_84193" data-name="Grupo 84193">
                <g id="Grupo_84192" data-name="Grupo 84192">
                  <g id="Grupo_84191" data-name="Grupo 84191">
                    <path id="Trazado_121807" data-name="Trazado 121807" d="M3070.065,2105.313c.011.7.382,1.265.829,1.259s.8-.582.789-1.283-.382-1.266-.829-1.259S3070.054,2104.611,3070.065,2105.313Z" transform="translate(-3070.065 -2104.03)" fill="#323232"/>
                  </g>
                </g>
              </g>
            </g>
            <g id="Grupo_84198" data-name="Grupo 84198" transform="translate(0.446 3.657)">
              <g id="Grupo_84197" data-name="Grupo 84197">
                <g id="Grupo_84196" data-name="Grupo 84196">
                  <g id="Grupo_84195" data-name="Grupo 84195">
                    <path id="Trazado_121808" data-name="Trazado 121808" d="M3014.75,2106.854c.011.7.382,1.265.828,1.258s.8-.582.79-1.283-.382-1.266-.829-1.259S3014.739,2106.152,3014.75,2106.854Z" transform="translate(-3014.75 -2105.571)" fill="#323232"/>
                  </g>
                </g>
              </g>
            </g>
            <g id="Grupo_84202" data-name="Grupo 84202">
              <g id="Grupo_84201" data-name="Grupo 84201">
                <g id="Grupo_84200" data-name="Grupo 84200">
                  <g id="Grupo_84199" data-name="Grupo 84199">
                    <path id="Trazado_121809" data-name="Trazado 121809" d="M3014.452,2085.926a4.533,4.533,0,0,0-1.917.383c-.311.139-.2.521.155.528l3.487.07c.355.007.481-.37.176-.521A4.532,4.532,0,0,0,3014.452,2085.926Z" transform="translate(-3012.352 -2085.925)" fill="#323232"/>
                  </g>
                </g>
              </g>
            </g>
            <g id="Grupo_84206" data-name="Grupo 84206" transform="translate(9.257 0.181)">
              <g id="Grupo_84205" data-name="Grupo 84205">
                <g id="Grupo_84204" data-name="Grupo 84204">
                  <g id="Grupo_84203" data-name="Grupo 84203">
                    <path id="Trazado_121810" data-name="Trazado 121810" d="M3064.185,2086.9a4.534,4.534,0,0,0-1.917.383c-.311.139-.2.521.155.528l3.487.07c.356.007.481-.37.176-.521A4.533,4.533,0,0,0,3064.185,2086.9Z" transform="translate(-3062.085 -2086.9)" fill="#323232"/>
                  </g>
                </g>
              </g>
            </g>
            <g id="Grupo_84210" data-name="Grupo 84210" transform="translate(3.997 11.093)">
              <g id="Grupo_84209" data-name="Grupo 84209">
                <g id="Grupo_84208" data-name="Grupo 84208">
                  <g id="Grupo_84207" data-name="Grupo 84207">
                    <path id="Trazado_121811" data-name="Trazado 121811" d="M3040.642,2145.525a3.42,3.42,0,0,1-6.818.554Z" transform="translate(-3033.824 -2145.525)" fill="#bb435b"/>
                  </g>
                </g>
              </g>
            </g>
          </g>
          <g id="Grupo_84246" data-name="Grupo 84246">
            <g id="Grupo_84213" data-name="Grupo 84213" transform="translate(65.613 33.053)">
              <g id="Grupo_84212" data-name="Grupo 84212">
                <path id="Trazado_121812" data-name="Trazado 121812" d="M3053.3,2160.082l-.2-.589c3.662-1.259,8.541-3.972,11.253-7.807l.508.359C3062.065,2156,3057.058,2158.791,3053.3,2160.082Z" transform="translate(-3053.102 -2151.686)" fill="#ab9df1"/>
              </g>
            </g>
            <g id="Grupo_84220" data-name="Grupo 84220" transform="translate(59.185 40.02)">
              <g id="Grupo_84215" data-name="Grupo 84215">
                <g id="Grupo_84214" data-name="Grupo 84214">
                  <path id="Trazado_121813" data-name="Trazado 121813" d="M3020.487,2194.2a2.958,2.958,0,0,1-1.077-.2,1.23,1.23,0,0,1-.82-.966,3.848,3.848,0,0,1,1.28-2.847,4.3,4.3,0,0,1,3.042-1.052c.018,0,1.934.307,2.253.856a.434.434,0,0,1,.021.412h0C3024.406,2192.021,3022.56,2194.2,3020.487,2194.2Zm2.178-4.455a3.77,3.77,0,0,0-2.388.908,3.3,3.3,0,0,0-1.074,2.27.614.614,0,0,0,.431.492c1.94.751,4.018-1.36,4.929-3.162a6.544,6.544,0,0,0-1.695-.5C3022.8,2189.745,3022.733,2189.742,3022.665,2189.742Zm1.959.385h0Z" transform="translate(-3018.568 -2189.119)" fill="#ab9df1"/>
                </g>
              </g>
              <g id="Grupo_84217" data-name="Grupo 84217" transform="translate(6.15 0.848)">
                <g id="Grupo_84216" data-name="Grupo 84216">
                  <path id="Trazado_121814" data-name="Trazado 121814" d="M3055.354,2197.861a3.245,3.245,0,0,1-.4-.023,3.362,3.362,0,0,1-2.379-1.492,5.611,5.611,0,0,1-.955-2.312l-.016-.293.292-.033a10.381,10.381,0,0,1,3.142.281,4.211,4.211,0,0,1,1.944.935,1.674,1.674,0,0,1,.646,1.57C3057.415,2197.523,3056.248,2197.861,3055.354,2197.861Zm-3.062-3.559a6.005,6.005,0,0,0,.809,1.706,2.768,2.768,0,0,0,1.934,1.212c.731.09,1.832-.113,1.988-.854a1.141,1.141,0,0,0-.456-.981,3.585,3.585,0,0,0-1.654-.786A10.817,10.817,0,0,0,3052.292,2194.3Z" transform="translate(-3051.608 -2193.674)" fill="#ab9df1"/>
                </g>
              </g>
              <g id="Grupo_84219" data-name="Grupo 84219" transform="translate(2.561 1.002)">
                <g id="Grupo_84218" data-name="Grupo 84218">
                  <path id="Trazado_121815" data-name="Trazado 121815" d="M3040.566,2206.191c-.451-.978-.955-1.958-1.442-2.906a34.012,34.012,0,0,1-2.786-6.482,23.3,23.3,0,0,1-.628,3.69,10.763,10.763,0,0,1-2.96,5.257l-.422-.458a10.154,10.154,0,0,0,2.781-4.96,31.486,31.486,0,0,0,.793-5.818l.62-.012c.341,3.026,1.772,5.808,3.156,8.5.491.954,1,1.94,1.455,2.93Z" transform="translate(-3032.327 -2194.503)" fill="#ab9df1"/>
                </g>
              </g>
            </g>
            <g id="Grupo_84222" data-name="Grupo 84222" transform="translate(53.981 4.951)">
              <g id="Grupo_84221" data-name="Grupo 84221">
                <path id="Trazado_121816" data-name="Trazado 121816" d="M2991.161,2008.331l-.549-.294c1.723-3.216,3.688-6.432,7.056-7.331l.161.6C2994.7,2002.142,2992.819,2005.235,2991.161,2008.331Z" transform="translate(-2990.612 -2000.706)" fill="#ab9df1"/>
              </g>
            </g>
            <g id="Grupo_84224" data-name="Grupo 84224" transform="translate(67.354 5.828)">
              <g id="Grupo_84223" data-name="Grupo 84223">
                <path id="Trazado_121817" data-name="Trazado 121817" d="M3074.7,2017.237a14.1,14.1,0,0,0-4.859-6.821,42.314,42.314,0,0,0-7.387-4.445l.284-.554a42.76,42.76,0,0,1,7.494,4.515,14.481,14.481,0,0,1,5.067,7.136Z" transform="translate(-3062.452 -2005.416)" fill="#ab9df1"/>
              </g>
            </g>
            <g id="Grupo_84226" data-name="Grupo 84226" transform="translate(50.811 19.506)">
              <g id="Grupo_84225" data-name="Grupo 84225">
                <path id="Trazado_121818" data-name="Trazado 121818" d="M2974.917,2080.1a5.961,5.961,0,0,1-1.343-.676l.348-.516a5.318,5.318,0,0,0,1.2.605Z" transform="translate(-2973.575 -2078.909)" fill="#ab9df1"/>
              </g>
            </g>
            <g id="Grupo_84228" data-name="Grupo 84228" transform="translate(51.267 16.615)">
              <g id="Grupo_84227" data-name="Grupo 84227" transform="translate(0 0)">
                <rect id="Rectángulo_34515" data-name="Rectángulo 34515" width="0.622" height="1.269" transform="translate(0 0.53) rotate(-58.369)" fill="#ab9df1"/>
              </g>
            </g>
            <g id="Grupo_84230" data-name="Grupo 84230" transform="translate(52.8 14.426)">
              <g id="Grupo_84229" data-name="Grupo 84229" transform="translate(0 0)">
                <rect id="Rectángulo_34516" data-name="Rectángulo 34516" width="0.622" height="1.126" transform="matrix(0.395, -0.919, 0.919, 0.395, 0, 0.572)" fill="#ab9df1"/>
              </g>
            </g>
            <g id="Grupo_84232" data-name="Grupo 84232" transform="translate(55.393 10.729)">
              <g id="Grupo_84231" data-name="Grupo 84231">
                <path id="Trazado_121819" data-name="Trazado 121819" d="M2999.416,2033.143a3.619,3.619,0,0,0-1.222-.821l.234-.577a4.238,4.238,0,0,1,1.434.963Z" transform="translate(-2998.194 -2031.745)" fill="#ab9df1"/>
              </g>
            </g>
            <g id="Grupo_84234" data-name="Grupo 84234" transform="translate(57.316 8.406)">
              <g id="Grupo_84233" data-name="Grupo 84233" transform="translate(0 0)">
                <rect id="Rectángulo_34517" data-name="Rectángulo 34517" width="0.622" height="1.479" transform="matrix(0.607, -0.794, 0.794, 0.607, 0, 0.495)" fill="#ab9df1"/>
              </g>
            </g>
            <g id="Grupo_84236" data-name="Grupo 84236" transform="translate(72.271 9.883)">
              <g id="Grupo_84235" data-name="Grupo 84235">
                <path id="Trazado_121820" data-name="Trazado 121820" d="M3089.09,2028.36l-.217-.583a1.457,1.457,0,0,0,.713-.575l.524.336A2.082,2.082,0,0,1,3089.09,2028.36Z" transform="translate(-3088.873 -2027.202)" fill="#ab9df1"/>
              </g>
            </g>
            <g id="Grupo_84238" data-name="Grupo 84238" transform="translate(74.967 12.367)">
              <g id="Grupo_84237" data-name="Grupo 84237" transform="translate(0 0)">
                <rect id="Rectángulo_34518" data-name="Rectángulo 34518" width="1.158" height="0.622" transform="translate(0 0.518) rotate(-26.566)" fill="#ab9df1"/>
              </g>
            </g>
            <g id="Grupo_84240" data-name="Grupo 84240" transform="translate(78.016 15.58)">
              <g id="Grupo_84239" data-name="Grupo 84239" transform="translate(0 0)">
                <rect id="Rectángulo_34519" data-name="Rectángulo 34519" width="1.046" height="0.622" transform="translate(0 0.166) rotate(-9.158)" fill="#ab9df1"/>
              </g>
            </g>
            <g id="Grupo_84242" data-name="Grupo 84242" transform="translate(53.725 33.738)">
              <g id="Grupo_84241" data-name="Grupo 84241">
                <path id="Trazado_121821" data-name="Trazado 121821" d="M2998.185,2162.21a43.694,43.694,0,0,1-8.956-6.387l.423-.457a43.05,43.05,0,0,0,8.829,6.3Z" transform="translate(-2989.229 -2155.366)" fill="#ab9df1"/>
              </g>
            </g>
          </g>
        </g>
        <g id="Grupo_84244" data-name="Grupo 84244" transform="translate(2230.955 1974.021)">
          <path id="Trazado_121822" data-name="Trazado 121822" d="M2557.221,2535.248h-4.861a.608.608,0,0,1,0-1.216h4.861a.608.608,0,1,1,0,1.216Zm-9.722,0h-4.861a.608.608,0,0,1,0-1.216h4.861a.608.608,0,0,1,0,1.216Zm-9.723,0h-4.861a.608.608,0,1,1,0-1.216h4.861a.608.608,0,1,1,0,1.216Zm-9.722,0h-4.861a.608.608,0,0,1,0-1.216h4.861a.608.608,0,0,1,0,1.216Zm-9.723,0h-4.861a.608.608,0,0,1,0-1.216h4.861a.608.608,0,0,1,0,1.216Zm-9.671-.052a.608.608,0,0,1-.608-.607v-4.861a.608.608,0,1,1,1.215,0v4.861A.608.608,0,0,1,2508.66,2535.2Zm0-9.723a.608.608,0,0,1-.608-.608V2520a.608.608,0,0,1,1.215,0v4.861A.608.608,0,0,1,2508.66,2525.473Zm0-9.723a.608.608,0,0,1-.608-.607v-4.861a.608.608,0,1,1,1.215,0v4.861A.608.608,0,0,1,2508.66,2515.75Zm0-9.722a.607.607,0,0,1-.608-.608v-4.861a.608.608,0,0,1,1.215,0v4.861A.607.607,0,0,1,2508.66,2506.028Zm0-9.722a.608.608,0,0,1-.608-.608v-4.861a.608.608,0,0,1,1.215,0v4.861A.608.608,0,0,1,2508.66,2496.306Z" transform="translate(-2508.052 -2490.229)" fill="#583ae2"/>
        </g>
      </g>
    </g>
  </g>
</svg>
