<svg xmlns="http://www.w3.org/2000/svg" xmlns:xlink="http://www.w3.org/1999/xlink" width="85" height="85" viewBox="0 0 85 85">
  <defs>
    <clipPath id="clip-path">
      <rect id="Rectángulo_33888" data-name="Rectángulo 33888" width="85" height="85" transform="translate(180 17272)" fill="#fff" stroke="#707070" stroke-width="1"/>
    </clipPath>
  </defs>
  <g id="Enmascarar_grupo_111" data-name="Enmascarar grupo 111" transform="translate(-180 -17272)" clip-path="url(#clip-path)">
    <g id="wifi-router_1_" data-name="wifi-router (1)" transform="translate(179.989 17272)">
      <path id="Trazado_118858" data-name="Trazado 118858" d="M51.352,26.557A24.785,24.785,0,1,1,26.567,1.773,24.785,24.785,0,0,1,51.352,26.557Zm0,0" fill="#64a6f0"/>
      <path id="Trazado_118859" data-name="Trazado 118859" d="M20.371,35.409a4.426,4.426,0,1,1,0,8.851H9.235a24.584,24.584,0,0,1-5.789-8.8l.106-.053Zm0,0" fill="#afe381"/>
      <path id="Trazado_118860" data-name="Trazado 118860" d="M50.785,21.246H38.074a2.656,2.656,0,0,1-2.655-2.655v-1.77a2.655,2.655,0,0,1,2.655-2.655A2.656,2.656,0,0,0,40.73,11.51V6.234A24.759,24.759,0,0,1,50.785,21.246Zm0,0" fill="#afe381"/>
      <path id="Trazado_118861" data-name="Trazado 118861" d="M23.912,19.476a4.426,4.426,0,0,1,0,8.851H1.853c-.053-.584-.071-1.168-.071-1.771A24.785,24.785,0,0,1,26.567,1.773V6.2a4.426,4.426,0,0,1-4.426,4.425,4.426,4.426,0,1,0,0,8.852Zm0,0" fill="#afe381"/>
      <path id="Trazado_118862" data-name="Trazado 118862" d="M83.218,63.734V77.9H33.648V63.734Zm0,0" fill="#c1cad4"/>
      <path id="Trazado_118863" data-name="Trazado 118863" d="M79.677,56.653v7.081H72.6V56.653Zm0,0" fill="#f1f2f2"/>
      <path id="Trazado_118864" data-name="Trazado 118864" d="M44.27,56.653v7.081H37.189V56.653Zm0,0" fill="#f1f2f2"/>
      <path id="Trazado_118865" data-name="Trazado 118865" d="M37.189,77.9H44.27v1.77a3.54,3.54,0,1,1-7.081,0Zm0,0" fill="#f1f2f2"/>
      <path id="Trazado_118866" data-name="Trazado 118866" d="M72.6,77.9h7.082v1.77a3.541,3.541,0,1,1-7.082,0Zm0,0" fill="#f1f2f2"/>
      <path id="Trazado_118867" data-name="Trazado 118867" d="M8.864,79.667a3.541,3.541,0,1,1-3.54-3.54A3.541,3.541,0,0,1,8.864,79.667Zm0,0" fill="#f1f2f2"/>
      <path id="Trazado_118868" data-name="Trazado 118868" d="M83.218,5.313a3.541,3.541,0,1,1-3.54-3.54A3.541,3.541,0,0,1,83.218,5.313Zm0,0" fill="#f1f2f2"/>
      <g id="Grupo_81620" data-name="Grupo 81620">
        <path id="Trazado_118869" data-name="Trazado 118869" d="M83.218,61.964H81.447V56.653a1.77,1.77,0,0,0-1.77-1.771H77.907V30.1h-3.54V54.883H72.6a1.77,1.77,0,0,0-1.771,1.771v5.311H46.041V56.653a1.77,1.77,0,0,0-1.771-1.771H42.5V30.1H38.959V54.883h-1.77a1.77,1.77,0,0,0-1.771,1.771v5.311H33.648a1.77,1.77,0,0,0-1.77,1.77V77.9a1.77,1.77,0,0,0,1.77,1.77h1.771a5.311,5.311,0,0,0,10.622,0H70.825a5.311,5.311,0,0,0,10.622,0h1.771a1.77,1.77,0,0,0,1.771-1.77V63.734a1.77,1.77,0,0,0-1.771-1.77Zm-8.851-3.541h3.54v3.541h-3.54Zm-35.407,0H42.5v3.541H38.959ZM40.73,81.438a1.771,1.771,0,0,1-1.771-1.771H42.5a1.771,1.771,0,0,1-1.771,1.771Zm35.406,0a1.77,1.77,0,0,1-1.77-1.771h3.54a1.771,1.771,0,0,1-1.771,1.771Zm5.311-5.311H35.419V65.5H81.447Zm0,0" fill="#272d33"/>
        <path id="Trazado_118870" data-name="Trazado 118870" d="M38.959,69.045H42.5v3.541H38.959Zm0,0" fill="#272d33"/>
        <path id="Trazado_118871" data-name="Trazado 118871" d="M46.041,69.045h3.54v3.541h-3.54Zm0,0" fill="#272d33"/>
        <path id="Trazado_118872" data-name="Trazado 118872" d="M53.122,69.045H77.907v3.541H53.122Zm0,0" fill="#272d33"/>
        <path id="Trazado_118873" data-name="Trazado 118873" d="M23.912,17.706H22.141a2.655,2.655,0,1,1,0-5.311,6.2,6.2,0,0,0,6.2-6.2V3.61A22.761,22.761,0,0,1,38.959,7.2V11.51a.885.885,0,0,1-.885.885,4.426,4.426,0,0,0-4.426,4.426v1.77a4.426,4.426,0,0,0,4.426,4.426H49.28a23.388,23.388,0,0,1,.3,3.54h3.541a26.965,26.965,0,0,0-.607-5.692A26.405,26.405,0,0,0,42.5,5.361V5.313h-.064c-.233-.177-.451-.354-.69-.531A26.537,26.537,0,0,0,.012,26.557c0,.657.019,1.294.074,1.9a26.2,26.2,0,0,0,1.705,7.639,26.571,26.571,0,0,0,24.776,17.02v-3.54a22.826,22.826,0,0,1-12.245-3.54h6.049a6.2,6.2,0,1,0,0-12.393H4.687a22.658,22.658,0,0,1-.848-3.54H23.912a6.2,6.2,0,0,0,0-12.393Zm24.56,1.771h-10.4a.885.885,0,0,1-.885-.886v-1.77a.885.885,0,0,1,.885-.886A4.426,4.426,0,0,0,42.5,11.51V9.985a22.839,22.839,0,0,1,5.971,9.491ZM23.026,39.834a2.641,2.641,0,0,1-2.655,2.655H10.011a23.12,23.12,0,0,1-3.845-5.311H20.371a2.656,2.656,0,0,1,2.655,2.655Zm2.767-14.051a2.64,2.64,0,0,1-1.881.773H3.553A23.028,23.028,0,0,1,24.8,3.633V6.2a2.656,2.656,0,0,1-2.655,2.655,6.2,6.2,0,1,0,0,12.392h1.771a2.656,2.656,0,0,1,1.881,4.538Zm0,0" fill="#272d33"/>
        <path id="Trazado_118874" data-name="Trazado 118874" d="M54.676,54.682l2.517,2.488a1.77,1.77,0,0,1,2.479,0l2.519-2.488a5.391,5.391,0,0,0-7.515,0Zm0,0" fill="#272d33"/>
        <path id="Trazado_118875" data-name="Trazado 118875" d="M67.195,49.667a12.362,12.362,0,0,0-17.527,0l2.508,2.5a8.822,8.822,0,0,1,12.5,0Zm0,0" fill="#272d33"/>
        <path id="Trazado_118876" data-name="Trazado 118876" d="M72.2,44.657a19.453,19.453,0,0,0-27.54,0l2.507,2.5a15.912,15.912,0,0,1,22.526,0Zm0,0" fill="#272d33"/>
        <path id="Trazado_118877" data-name="Trazado 118877" d="M15.945,63.734H5.323A1.77,1.77,0,0,0,3.553,65.5v9.178a5.311,5.311,0,1,0,3.54,0V67.275H17.715A1.771,1.771,0,0,0,19.486,65.5V54.883h-3.54ZM5.323,81.437a1.77,1.77,0,1,1,1.77-1.771A1.77,1.77,0,0,1,5.323,81.437Zm0,0" fill="#272d33"/>
        <path id="Trazado_118878" data-name="Trazado 118878" d="M67.285,17.706V7.084h7.407a5.311,5.311,0,1,0,0-3.54H65.514a1.77,1.77,0,0,0-1.77,1.77V15.935H54.892v3.541H65.514a1.771,1.771,0,0,0,1.771-1.771ZM79.677,3.543a1.77,1.77,0,1,1-1.771,1.77A1.77,1.77,0,0,1,79.677,3.543Zm0,0" fill="#272d33"/>
      </g>
    </g>
  </g>
</svg>
