<svg xmlns="http://www.w3.org/2000/svg" xmlns:xlink="http://www.w3.org/1999/xlink" width="77" height="77" viewBox="0 0 77 77">
  <defs>
    <clipPath id="clip-path">
      <rect id="Rectángulo_33916" data-name="Rectángulo 33916" width="77" height="77" transform="translate(237 18848)" fill="#2ff980" stroke="#707070" stroke-width="1"/>
    </clipPath>
  </defs>
  <g id="Enmascarar_grupo_112" data-name="Enmascarar grupo 112" transform="translate(-237 -18848)" clip-path="url(#clip-path)">
    <g id="privado" transform="translate(237 18848)">
      <path id="Trazado_118879" data-name="Trazado 118879" d="M61.809,22.348c0-.028,0-.055,0-.082a18.132,18.132,0,0,0-35.137-6.292,7.261,7.261,0,0,0-10.887,6.291c0,.011,0,.023,0,.034A15.678,15.678,0,0,0,1.128,37.943h0A15.677,15.677,0,0,0,16.805,53.62h4.648V42.551H55.546V53.62h4.648A15.677,15.677,0,0,0,75.872,37.943h0A15.68,15.68,0,0,0,61.809,22.348Z" fill="#d1e7f8"/>
      <g id="Grupo_81625" data-name="Grupo 81625">
        <path id="Trazado_118880" data-name="Trazado 118880" d="M50.566,27.822H35.458l-5.28,5.28v9.449h4.787V35.085l2.476-2.476H48.583l2.476,2.476v7.466h4.787V33.1Z" fill="#9bc9ff"/>
        <path id="Trazado_118881" data-name="Trazado 118881" d="M27.559,15a7.225,7.225,0,0,1,3.625.971,18.149,18.149,0,0,1,14.751-11.7A18.155,18.155,0,0,0,27.057,15.02C27.223,15.009,27.39,15,27.559,15Z" fill="#9bc9ff"/>
        <rect id="Rectángulo_34239" data-name="Rectángulo 34239" width="4.512" height="11.07" transform="translate(55.547 42.552)" fill="#9bc9ff"/>
        <path id="Trazado_118882" data-name="Trazado 118882" d="M5.64,37.943h0A15.678,15.678,0,0,1,20.3,22.3c0-.011,0-.023,0-.034a7.265,7.265,0,0,1,5-6.9,7.264,7.264,0,0,0-9.516,6.9c0,.011,0,.023,0,.034A15.678,15.678,0,0,0,1.128,37.943h0A15.677,15.677,0,0,0,16.805,53.62h4.512A15.677,15.677,0,0,1,5.64,37.943Z" fill="#9bc9ff"/>
      </g>
      <path id="Trazado_118883" data-name="Trazado 118883" d="M51.2,72.864H25.8l-4.346-4.346V42.551H55.546V68.518Z" fill="#ffb655"/>
      <path id="Trazado_118884" data-name="Trazado 118884" d="M45.353,53.008a4.6,4.6,0,1,0-6.828,4.019v6.739h4.461V57.028A4.6,4.6,0,0,0,45.353,53.008Z" fill="#ff7956"/>
      <path id="Trazado_118885" data-name="Trazado 118885" d="M46.054,27.822H30.946l-5.28,5.28v9.449h4.787V35.085l2.476-2.476H44.071l2.476,2.476v7.466h4.787V33.1Z" fill="#e0e0e2"/>
      <g id="Grupo_81626" data-name="Grupo 81626">
        <path id="Trazado_118886" data-name="Trazado 118886" d="M43.1,53.008a4.6,4.6,0,1,0-6.828,4.019v6.739H40.73V57.028A4.6,4.6,0,0,0,43.1,53.008Z" fill="#ff7956"/>
        <path id="Trazado_118887" data-name="Trazado 118887" d="M25.965,68.518V42.551H21.454V68.518L25.8,72.864h4.512Z" fill="#ff7956"/>
      </g>
      <g id="Grupo_81627" data-name="Grupo 81627">
        <path id="Trazado_118888" data-name="Trazado 118888" d="M48.583,32.609H44.071l2.476,2.476v7.466h4.512V35.085Z" fill="#c6c5ca"/>
        <path id="Trazado_118889" data-name="Trazado 118889" d="M35.458,27.822H30.946l-5.28,5.28v9.449h4.512V33.1Z" fill="#c6c5ca"/>
      </g>
      <path id="Trazado_118890" data-name="Trazado 118890" d="M36.159,53.008a4.6,4.6,0,0,1,3.469-4.457,4.6,4.6,0,0,0-3.359,8.476v6.738h2.256V57.027A4.6,4.6,0,0,1,36.159,53.008Z" fill="#ff3f62"/>
      <g id="Grupo_81628" data-name="Grupo 81628">
        <path id="Trazado_118891" data-name="Trazado 118891" d="M60.195,48.733v2.256a13.1,13.1,0,0,0,10.53-5.351L68.9,44.3A10.84,10.84,0,0,1,60.195,48.733Z" fill="#fff"/>
        <path id="Trazado_118892" data-name="Trazado 118892" d="M69.638,43.158l1.973,1.094a13.02,13.02,0,0,0,.986-2.261l-2.144-.7A10.768,10.768,0,0,1,69.638,43.158Z" fill="#fff"/>
        <path id="Trazado_118893" data-name="Trazado 118893" d="M73.24,37.943H70.984a10.861,10.861,0,0,1-.191,2.03l2.216.424A13.1,13.1,0,0,0,73.24,37.943Z" fill="#fff"/>
        <path id="Trazado_118894" data-name="Trazado 118894" d="M47.688,7.293,47.1,9.472a13.167,13.167,0,0,1,1.957.694l.92-2.06A15.471,15.471,0,0,0,47.688,7.293Z" fill="#fff"/>
        <path id="Trazado_118895" data-name="Trazado 118895" d="M43.68,6.768V9.023a13.333,13.333,0,0,1,2.07.162L46.1,6.957A15.582,15.582,0,0,0,43.68,6.768Z" fill="#fff"/>
        <path id="Trazado_118896" data-name="Trazado 118896" d="M51.424,8.844,50.293,10.8a13.3,13.3,0,0,1,6.628,11.455l2.256,0A15.565,15.565,0,0,0,51.424,8.844Z" fill="#fff"/>
      </g>
      <path id="Trazado_118897" data-name="Trazado 118897" d="M8.427,47.936l1.451-1.728a10.9,10.9,0,0,1-1.433-1.453L6.7,46.181A13.159,13.159,0,0,0,8.427,47.936Z"/>
      <path id="Trazado_118898" data-name="Trazado 118898" d="M12.783,47.955a10.79,10.79,0,0,1-1.81-.939l-1.223,1.9a13.039,13.039,0,0,0,2.189,1.135Z"/>
      <path id="Trazado_118899" data-name="Trazado 118899" d="M7.652,43.649a10.8,10.8,0,0,1-.913-1.822l-2.1.815a13.036,13.036,0,0,0,1.1,2.2Z"/>
      <path id="Trazado_118900" data-name="Trazado 118900" d="M3.778,38.634a13.023,13.023,0,0,0,.362,2.439l2.19-.542a10.756,10.756,0,0,1-.3-2.016Z"/>
      <path id="Trazado_118901" data-name="Trazado 118901" d="M20.326,68.985l5.007,5.007H51.667l5.007-5.007V41.423H20.326Zm2.256-25.306H54.418V68.051l-3.685,3.685H26.267l-3.686-3.686Z"/>
      <rect id="Rectángulo_34240" data-name="Rectángulo 34240" width="2.256" height="2.256" transform="translate(38.538 67.977)"/>
      <rect id="Rectángulo_34241" data-name="Rectángulo 34241" width="2.256" height="2.256" transform="translate(46.057 67.977)"/>
      <rect id="Rectángulo_34242" data-name="Rectángulo 34242" width="2.256" height="2.256" transform="translate(42.297 67.977)"/>
      <rect id="Rectángulo_34243" data-name="Rectángulo 34243" width="2.256" height="9.332" transform="translate(24.085 55.643)"/>
      <g id="Grupo_81629" data-name="Grupo 81629">
        <rect id="Rectángulo_34244" data-name="Rectángulo 34244" width="2.256" height="2.256" transform="translate(50.659 46.311)" fill="#fff"/>
        <rect id="Rectángulo_34245" data-name="Rectángulo 34245" width="2.256" height="2.256" transform="translate(50.659 50.071)" fill="#fff"/>
        <rect id="Rectángulo_34246" data-name="Rectángulo 34246" width="2.256" height="8.482" transform="translate(50.659 53.831)" fill="#fff"/>
      </g>
      <path id="Trazado_118902" data-name="Trazado 118902" d="M24.538,32.635v6.908h2.256V33.569l4.619-4.619H45.587l4.619,4.619v5.974h2.256V32.635l-5.94-5.941H30.479Z"/>
      <path id="Trazado_118903" data-name="Trazado 118903" d="M47.675,39.543V34.618l-3.137-3.137H32.462l-3.137,3.137v4.925h2.256V35.552L33.4,33.737H43.6l1.815,1.815v3.991Z"/>
      <path id="Trazado_118904" data-name="Trazado 118904" d="M35.141,57.643v7.25h6.717v-7.25a5.725,5.725,0,1,0-6.717,0Zm3.359-8.1a3.469,3.469,0,0,1,1.682,6.5l-.58.322v6.274H37.4V56.364l-.58-.322a3.469,3.469,0,0,1,1.683-6.5Z"/>
      <rect id="Rectángulo_34247" data-name="Rectángulo 34247" width="8.281" height="2.256" transform="translate(34.815 37.664)"/>
      <path id="Trazado_118905" data-name="Trazado 118905" d="M72.638,26.647a16.769,16.769,0,0,0-9.721-5.29,19.261,19.261,0,0,0-36.838-6.915,8.389,8.389,0,0,0-11.362,6.825,16.806,16.806,0,0,0,2.089,33.481h1.64V52.492h-1.64a14.549,14.549,0,0,1-.982-29.065h6.484V21.171h-5.3a6.133,6.133,0,0,1,9.1-4.221l1.158.668.464-1.254a17,17,0,0,1,32.951,5.9l-.006,1.1,1.019.1a14.55,14.55,0,0,1-1.5,29.023h-1.64v2.256h1.64a16.805,16.805,0,0,0,12.443-28.1Z"/>
    </g>
  </g>
</svg>
