<svg xmlns="http://www.w3.org/2000/svg" xmlns:xlink="http://www.w3.org/1999/xlink" width="48" height="48" viewBox="0 0 48 48">
  <defs>
    <clipPath id="clip-path">
      <rect id="Rectángulo_33894" data-name="Rectángulo 33894" width="48" height="48" transform="translate(619 17699.617)" fill="#40327b" stroke="#707070" stroke-width="1"/>
    </clipPath>
  </defs>
  <g id="Enmascarar_grupo_62" data-name="Enmascarar grupo 62" transform="translate(-619 -17699.617)" clip-path="url(#clip-path)">
    <g id="app" transform="translate(619 17699.617)">
      <path id="Trazado_113831" data-name="Trazado 113831" d="M21.773,3.75a.75.75,0,0,0,0-1.5h-.008a.75.75,0,0,0,.008,1.5Z" fill="#40327b"/>
      <path id="Trazado_113832" data-name="Trazado 113832" d="M24,3.75h2.25a.75.75,0,0,0,0-1.5H24a.75.75,0,0,0,0,1.5Z" fill="#40327b"/>
      <path id="Trazado_113833" data-name="Trazado 113833" d="M37.5,42.75V4.5A4.5,4.5,0,0,0,33.01,0L33,0H15a4.5,4.5,0,0,0-4.5,4.5V42.75A5.257,5.257,0,0,0,15.75,48h16.5A5.257,5.257,0,0,0,37.5,42.75ZM36,37.5H12V6H36ZM12,39H36v.75a3.754,3.754,0,0,1-3.75,3.75H15.75A3.754,3.754,0,0,1,12,39.75ZM15,1.5H32.993L33,1.5a3,3,0,0,1,3,3H12v0a3,3,0,0,1,3-3Zm17.25,45H15.75a3.756,3.756,0,0,1-3.675-3.007A5.233,5.233,0,0,0,15.75,45h16.5a5.233,5.233,0,0,0,3.675-1.507A3.756,3.756,0,0,1,32.25,46.5Z" fill="#40327b"/>
      <path id="Trazado_113834" data-name="Trazado 113834" d="M21.75,41.25A2.25,2.25,0,1,0,24,39,2.253,2.253,0,0,0,21.75,41.25ZM24,40.5a.75.75,0,1,1-.75.75A.75.75,0,0,1,24,40.5Z" fill="#40327b"/>
      <path id="Trazado_113835" data-name="Trazado 113835" d="M17.25,32.249h13.5A3.754,3.754,0,0,0,34.5,28.5V15a3.754,3.754,0,0,0-3.75-3.75H17.25A3.754,3.754,0,0,0,13.5,15V28.5A3.754,3.754,0,0,0,17.25,32.249ZM15,15a2.253,2.253,0,0,1,2.25-2.25h13.5A2.253,2.253,0,0,1,33,15V28.5a2.253,2.253,0,0,1-2.25,2.25H17.25A2.253,2.253,0,0,1,15,28.5Z" fill="#40327b"/>
      <path id="Trazado_113836" data-name="Trazado 113836" d="M21,24a.75.75,0,0,0,.53-1.28l-.969-.969.969-.97a.75.75,0,1,0-1.06-1.061l-1.5,1.5a.749.749,0,0,0,0,1.061l1.5,1.5A.748.748,0,0,0,21,24Z" fill="#40327b"/>
      <path id="Trazado_113837" data-name="Trazado 113837" d="M26.474,23.782a.75.75,0,0,0,1.061,0l1.5-1.5a.749.749,0,0,0,0-1.06l-1.5-1.5a.75.75,0,0,0-1.061,1.06l.969.97-.969.969a.749.749,0,0,0,0,1.06Z" fill="#40327b"/>
      <path id="Trazado_113838" data-name="Trazado 113838" d="M23.015,24.713a.748.748,0,0,0,.949-.474l1.5-4.5a.75.75,0,0,0-1.423-.475l-1.5,4.5A.75.75,0,0,0,23.015,24.713Z" fill="#40327b"/>
      <path id="Trazado_113839" data-name="Trazado 113839" d="M24,30a8.25,8.25,0,1,0-8.25-8.25A8.26,8.26,0,0,0,24,30Zm0-15a6.75,6.75,0,1,1-6.75,6.75A6.757,6.757,0,0,1,24,15Z" fill="#40327b"/>
    </g>
  </g>
</svg>
