<svg xmlns="http://www.w3.org/2000/svg" width="580" height="170" viewBox="0 0 580 170"><g transform="translate(-790 -24056.406)"><path d="M0,0H506a64.2,64.2,0,0,1,64.2,64.2v0a64.2,64.2,0,0,1-64.2,64.2H0a0,0,0,0,1,0,0V0A0,0,0,0,1,0,0Z" transform="translate(799.801 24076)" fill="#b5e4eb"/><path d="M0,140.968H69.025c10.28-34.711,37.569-59.528,69.62-59.528a61.536,61.536,0,0,1,9.674.767V.4q-4.8-.4-9.674-.4C69.409,0,11.839,60.816,0,140.968Z" transform="translate(930.968 24056.406) rotate(90)" fill="#daf1f5"/><g transform="translate(1302 24168.406)" fill="none" stroke="#583ae2" stroke-width="15"><circle cx="29" cy="29" r="29" stroke="none"/><circle cx="29" cy="29" r="21.5" fill="none"/></g><circle cx="9" cy="9" r="9" transform="translate(1352 24163.582)" fill="#40327b"/></g></svg>