<svg xmlns="http://www.w3.org/2000/svg" width="545" height="255.594" viewBox="0 0 545 255.594"><g transform="translate(-790 -24056.406)"><path d="M0,0H428A107,107,0,0,1,535,107v0A107,107,0,0,1,428,214H0a0,0,0,0,1,0,0V0A0,0,0,0,1,0,0Z" transform="translate(800 24076)" fill="#b5e4eb"/><path d="M0,140.968H108.783c16.2-34.711,59.207-59.528,109.72-59.528a151.841,151.841,0,0,1,15.246.767V.4Q226.192.005,218.5,0C109.387,0,18.657,60.816,0,140.968Z" transform="translate(930.968 24056.406) rotate(90)" fill="#daf1f5"/><g transform="translate(1267 24254)" fill="none" stroke="#583ae2" stroke-width="15"><circle cx="29" cy="29" r="29" stroke="none"/><circle cx="29" cy="29" r="21.5" fill="none"/></g><circle cx="9" cy="9" r="9" transform="translate(1317 24223)" fill="#40327b"/></g></svg>