<svg xmlns="http://www.w3.org/2000/svg" width="570" height="180" viewBox="0 0 570 180"><g transform="translate(-790 -24056.406)"><path d="M0,0H491a69.2,69.2,0,0,1,69.2,69.2v0a69.2,69.2,0,0,1-69.2,69.2H0a0,0,0,0,1,0,0V0A0,0,0,0,1,0,0Z" transform="translate(799.801 24076)" fill="#b5e4eb"/><path d="M0,140.968H73.679c10.973-34.711,40.1-59.528,74.314-59.528a70.021,70.021,0,0,1,10.326.767V.4Q153.2.005,147.993,0C74.088,0,12.637,60.816,0,140.968Z" transform="translate(930.968 24056.406) rotate(90)" fill="#daf1f5"/><g transform="translate(1292 24178.406)" fill="none" stroke="#583ae2" stroke-width="15"><circle cx="29" cy="29" r="29" stroke="none"/><circle cx="29" cy="29" r="21.5" fill="none"/></g><circle cx="9" cy="9" r="9" transform="translate(1342 24170.633)" fill="#40327b"/></g></svg>