<svg xmlns="http://www.w3.org/2000/svg" xmlns:xlink="http://www.w3.org/1999/xlink" width="152.102" height="173.596" viewBox="0 0 152.102 173.596">
  <defs>
    <clipPath id="clip-path">
      <path id="Trazado_118929" data-name="Trazado 118929" d="M259.1,162.409s-17.851,34.125-39.871,34.125-39.871-34.125-39.871-34.125,17.851-27.671,39.871-27.671S259.1,162.409,259.1,162.409Z" transform="translate(-179.353 -134.738)" fill="none"/>
    </clipPath>
    <clipPath id="clip-path-2">
      <rect id="Rectángulo_34249" data-name="Rectángulo 34249" width="15.955" height="25.183" fill="none"/>
    </clipPath>
  </defs>
  <g id="Grupo_81674" data-name="Grupo 81674" transform="translate(-106.518 -78.865)">
    <g id="Grupo_81665" data-name="Grupo 81665" transform="translate(106.518 78.866)">
      <path id="Trazado_118916" data-name="Trazado 118916" d="M259.082,135.544c0,25.534-18.3,46.232-40.869,46.232s-40.869-20.7-40.869-46.232,18.3-56.678,40.869-56.678S259.082,110.01,259.082,135.544Z" transform="translate(-142.162 -78.866)" fill="#6453ed"/>
      <g id="Grupo_81653" data-name="Grupo 81653" transform="translate(0 75.4)">
        <path id="Trazado_118917" data-name="Trazado 118917" d="M173.2,231.5a137.451,137.451,0,0,0-19.109,6.911,94.263,94.263,0,0,0-16.108,9.891c-10.977,8.154-22.064,17.978-27.705,30.735-3.446,7.79-4.765,15.611-2.921,24.044a29.41,29.41,0,0,0,9.546,15.392,46.053,46.053,0,0,0,16.548,8.93,41.318,41.318,0,0,0,9.8,1.577,12.837,12.837,0,0,0,4.158-.326c2.8-.743,5.837-1.579,7.876-3.78a9.334,9.334,0,0,0,.7-12.285c-2.874-3.974-7.5-4.83-11.991-6.013-2.04-.538-4.089-1.042-6.092-1.711-.362-.121-1.216-.475-1.785-.711q-.9-.457-1.786-.957c-.433-.246-.853-.51-1.268-.784-.3-.25-1.364-1.078-1.745-1.452-.276-.27-.788-.906-1.142-1.347-.246-.407-.475-.824-.693-1.246q-.167-.541-.311-1.087c-.039-.155-.072-.311-.107-.467-.061-.384-.151-.978-.164-1.284a22.758,22.758,0,0,1,.107-3.105c-.149,1.769.419-1.7.627-2.43.148-.517,1.094-2.89,1.023-2.837.434-.885.907-1.751,1.389-2.61a55.277,55.277,0,0,1,4-6.008c-.209.315,1.57-1.912,1.905-2.3q1.262-1.466,2.54-2.916a121.672,121.672,0,0,1,11.791-11.577c1.038-.893,2.1-1.757,3.17-2.613.24-.191.483-.379.724-.567-.288.232,1.143-.859,1.293-.969,2.23-1.632,4.455-3.266,6.749-4.809a101.84,101.84,0,0,1,14.271-8.4C185.792,241.037,180.73,229.24,173.2,231.5Z" transform="translate(-106.518 -230.935)" fill="#6453ed"/>
        <path id="Trazado_118918" data-name="Trazado 118918" d="M333.814,279.665c-5.405-12.859-16.309-22.886-27.134-31.241a94.236,94.236,0,0,0-15.923-10.187,137.533,137.533,0,0,0-18.978-7.262c-7.492-2.395-12.77,9.306-5.53,12.785a101.773,101.773,0,0,1,14.113,8.666c2.265,1.585,4.46,3.26,6.659,4.933.148.113,1.569,1.238,1.273.991.238.194.478.386.715.582,1.054.876,2.1,1.758,3.122,2.671A121.888,121.888,0,0,1,303.707,273.4q1.253,1.472,2.486,2.962c.327.394,2.061,2.647,1.863,2.337a55.282,55.282,0,0,1,3.884,6.079c.465.867.922,1.742,1.341,2.634-.068-.047.833,2.338.97,2.856.195.736.7,4.215.582,2.44a22.935,22.935,0,0,1,.049,3.108c-.02.306-.12.9-.187,1.28-.039.155-.075.311-.116.465-.1.362-.213.722-.331,1.079-.226.419-.464.832-.717,1.234-.362.435-.886,1.061-1.167,1.326-.388.366-1.466,1.173-1.771,1.419-.42.266-.845.523-1.282.762q-.89.484-1.8.923c-.574.225-1.434.563-1.8.678-2.014.631-4.073,1.1-6.121,1.6a28.9,28.9,0,0,0-5.776,1.846,11.614,11.614,0,0,0-5.726,3.073,9.5,9.5,0,0,0-.122,13.167,10.5,10.5,0,0,0,6.19,3.226c5.294.908,10.4,1.22,15.6-.293a46.077,46.077,0,0,0,16.71-8.624,29.41,29.41,0,0,0,9.829-15.214C338.29,295.361,337.116,287.518,333.814,279.665Z" transform="translate(-185.169 -230.655)" fill="#6453ed"/>
      </g>
      <g id="Grupo_81655" data-name="Grupo 81655" transform="translate(41.487 73.189)">
        <g id="Grupo_81654" data-name="Grupo 81654" transform="translate(0 0)">
          <path id="Trazado_118919" data-name="Trazado 118919" d="M255.623,244.033c-1.943-4.515-4-7.8-7.161-9.686-7.395-4.408-15.394-5.936-23.084-8.061a9.069,9.069,0,0,0-1.886,0c-7.69,2.125-15.69,3.654-23.086,8.061-3.159,1.883-5.215,5.17-7.159,9.686a40.474,40.474,0,0,0-3.211,10.742l2.581,59.759,66.548-.78-.325-58.979A40.4,40.4,0,0,0,255.623,244.033Z" transform="translate(-190.036 -226.203)" fill="#6453ed"/>
        </g>
      </g>
      <g id="Grupo_81661" data-name="Grupo 81661" transform="translate(36.18 27.754)">
        <g id="Grupo_81660" data-name="Grupo 81660" clip-path="url(#clip-path)">
          <path id="Trazado_118920" data-name="Trazado 118920" d="M259.1,162.409s-17.851,34.125-39.871,34.125-39.871-34.125-39.871-34.125,17.851-27.671,39.871-27.671S259.1,162.409,259.1,162.409Z" transform="translate(-179.353 -134.738)" fill="#3e1774"/>
          <rect id="Rectángulo_34248" data-name="Rectángulo 34248" width="15.955" height="25.183" transform="translate(31.893 45.435)" fill="#ef8c48"/>
          <g id="Grupo_81657" data-name="Grupo 81657" transform="translate(31.893 45.435)">
            <g id="Grupo_81656" data-name="Grupo 81656" clip-path="url(#clip-path-2)">
              <path id="Trazado_118921" data-name="Trazado 118921" d="M258.793,150.072c0,18.521-11.633,33.534-25.981,33.534s-25.981-15.016-25.981-33.534,11.634-33.533,25.983-33.531S258.793,131.555,258.793,150.072Z" transform="translate(-225.075 -171.015)" fill="#3e1774" opacity="0.4" style="mix-blend-mode: multiply;isolation: isolate"/>
            </g>
          </g>
          <path id="Trazado_118922" data-name="Trazado 118922" d="M258.793,137.772c0,18.522-11.633,33.534-25.981,33.534s-25.981-15.016-25.981-33.534,11.634-33.533,25.983-33.531S258.793,119.256,258.793,137.772Z" transform="translate(-193.182 -119.39)" fill="#ef8c48"/>
          <path id="Trazado_118923" data-name="Trazado 118923" d="M247.789,204.526c1.068,6.143,11.752,5.92,11.752-.268" transform="translate(-213.794 -169.724)" fill="none" stroke="#7f312f" stroke-miterlimit="10" stroke-width="0.835"/>
          <g id="Grupo_81659" data-name="Grupo 81659" transform="translate(6.448 13.871)">
            <g id="Grupo_81658" data-name="Grupo 81658">
              <path id="Trazado_118924" data-name="Trazado 118924" d="M257.786,163.08c-6.007-.594-12.079-.382-18.111-.373H211.839c-6.031-.008-12.1-.221-18.111.373a1.438,1.438,0,0,0-.341,2.823,13.368,13.368,0,0,0,3.491,10.713,2.244,2.244,0,0,0,1.34.621,2.9,2.9,0,0,0,3.938,1.4c5.337-2.571,11.2.256,16.656-1.756a11.949,11.949,0,0,0,6.944-6.524,11.949,11.949,0,0,0,6.944,6.524c5.456,2.012,11.32-.815,16.656,1.756a2.9,2.9,0,0,0,3.939-1.4,2.242,2.242,0,0,0,1.339-.621,13.364,13.364,0,0,0,3.491-10.713A1.438,1.438,0,0,0,257.786,163.08Z" transform="translate(-192.334 -162.663)" fill="#3e1774"/>
              <path id="Trazado_118925" data-name="Trazado 118925" d="M283.349,171.747l-11.68,1.358S275.666,180.744,283.349,171.747Z" transform="translate(-232.26 -167.234)" fill="#2ff980"/>
            </g>
            <path id="Trazado_118926" data-name="Trazado 118926" d="M224.055,171.747l11.679,1.358S231.738,180.744,224.055,171.747Z" transform="translate(-208.298 -167.234)" fill="#2ff980"/>
          </g>
          <path id="Trazado_118927" data-name="Trazado 118927" d="M219.224,154.764c16,0,30.277.326,39.672,8.016.131-.241.2-.371.2-.371s-17.851-27.671-39.871-27.671-39.871,27.671-39.871,27.671.068.13.2.371C188.946,155.09,203.228,154.764,219.224,154.764Z" transform="translate(-179.353 -134.738)" fill="#3e1774" opacity="0.4" style="mix-blend-mode: multiply;isolation: isolate"/>
          <path id="Trazado_118928" data-name="Trazado 118928" d="M267.574,115.234a30.728,30.728,0,0,0-8.451-5.687c-3.726-1.852-8.122-3.624-12.351-2.844a10.688,10.688,0,0,0-7.326,5.817,4.458,4.458,0,0,0,.925,4.95c1.217,5.726,4.3,11.47,9.984,13.741a4.437,4.437,0,0,0,5.257-2,5.035,5.035,0,0,0,.509-1.006c3.137,2.607,6.792,4.61,10.768,3.664,3.308-.786,5.266-4.315,5.507-7.448C272.672,120.839,269.883,117.6,267.574,115.234Z" transform="translate(-209.408 -120.534)" fill="#240a4c"/>
        </g>
      </g>
      <g id="Grupo_81664" data-name="Grupo 81664" transform="translate(54.362 91.892)">
        <g id="Grupo_81662" data-name="Grupo 81662">
          <path id="Trazado_118930" data-name="Trazado 118930" d="M220.871,266.312a2.458,2.458,0,1,1-2.458-2.457A2.457,2.457,0,0,1,220.871,266.312Z" transform="translate(-215.956 -263.855)" fill="#3e1774" opacity="0.3"/>
          <line id="Línea_259" data-name="Línea 259" y2="30.016" transform="translate(2.457 2.457)" fill="none" stroke="#fff" stroke-linecap="round" stroke-linejoin="round" stroke-width="4"/>
        </g>
        <g id="Grupo_81663" data-name="Grupo 81663" transform="translate(38.462)">
          <path id="Trazado_118931" data-name="Trazado 118931" d="M298.3,266.312a2.457,2.457,0,1,1-2.457-2.457A2.457,2.457,0,0,1,298.3,266.312Z" transform="translate(-293.384 -263.855)" fill="#3e1774" opacity="0.3"/>
          <line id="Línea_260" data-name="Línea 260" y2="30.016" transform="translate(2.457 2.457)" fill="none" stroke="#fff" stroke-linecap="round" stroke-linejoin="round" stroke-width="4"/>
        </g>
      </g>
      <path id="Trazado_118932" data-name="Trazado 118932" d="M253.641,192.334a2.2,2.2,0,0,0,3.974,1.656" transform="translate(-180.546 -135.969)" fill="none" stroke="#7f312f" stroke-miterlimit="10" stroke-width="0.835" opacity="0.3"/>
    </g>
    <g id="Grupo_81667" data-name="Grupo 81667" transform="translate(125.04 187.981)">
      <path id="Trazado_118933" data-name="Trazado 118933" d="M147.645,424.442H255.022a3.841,3.841,0,0,0,3.842-3.84H143.8A3.841,3.841,0,0,0,147.645,424.442Z" transform="translate(-143.804 -359.961)" fill="#3e1774"/>
      <g id="Grupo_81666" data-name="Grupo 81666" transform="translate(7.374)">
        <path id="Rectángulo_34250" data-name="Rectángulo 34250" d="M7.963,0H92.347a7.964,7.964,0,0,1,7.964,7.964V56.517a7.964,7.964,0,0,1-7.964,7.964H7.966A7.966,7.966,0,0,1,0,56.515V7.963A7.963,7.963,0,0,1,7.963,0Z" fill="#3e1774"/>
        <path id="Trazado_118934" data-name="Trazado 118934" d="M224.622,361.107c-34.568,0-62.591-25.912-62.591-57.875,0-1.571.071-3.128.2-4.667a3.955,3.955,0,0,0-3.585,3.937V359.07a3.955,3.955,0,0,0,3.956,3.956H255a3.955,3.955,0,0,0,3.957-3.956v-7.449A65.984,65.984,0,0,1,224.622,361.107Z" transform="translate(-158.649 -298.545)" fill="#3e1774" opacity="0.5" style="mix-blend-mode: multiply;isolation: isolate"/>
      </g>
    </g>
    <g id="Grupo_81673" data-name="Grupo 81673" transform="translate(170.748 200.057)">
      <g id="Grupo_81668" data-name="Grupo 81668">
        <path id="Trazado_118935" data-name="Trazado 118935" d="M259.414,332.6c0-5.395-5.282-9.768-11.8-9.768s-11.8,4.373-11.8,9.768c0,4.144,3.119,7.683,7.517,9.1v1.937a1.59,1.59,0,0,0,2.936.848,1.585,1.585,0,0,0,2.687,0,1.59,1.59,0,0,0,2.936-.849v-1.937C256.3,340.288,259.414,336.749,259.414,332.6Z" transform="translate(-235.82 -322.837)" fill="#2ff980"/>
      </g>
      <g id="Grupo_81669" data-name="Grupo 81669" transform="translate(3.048 5.774)">
        <path id="Trazado_118936" data-name="Trazado 118936" d="M247.574,334.708a5.965,5.965,0,0,0-4.33.327,3.458,3.458,0,0,0-.515,4.875c1.329,1.492,3.77.969,4.965-.375.948-1.067,2.135-3.071.935-4.261A2.563,2.563,0,0,0,247.574,334.708Z" transform="translate(-241.955 -334.46)" fill="#3e1774"/>
        <path id="Trazado_118937" data-name="Trazado 118937" d="M263.331,335.274c-1.2,1.19-.014,3.195.934,4.261,1.195,1.344,3.636,1.867,4.965.375a3.458,3.458,0,0,0-.515-4.875,5.965,5.965,0,0,0-4.33-.327A2.552,2.552,0,0,0,263.331,335.274Z" transform="translate(-252.458 -334.46)" fill="#3e1774"/>
      </g>
      <g id="Grupo_81672" data-name="Grupo 81672" transform="translate(9.844 12.69)">
        <g id="Grupo_81670" data-name="Grupo 81670">
          <path id="Trazado_118938" data-name="Trazado 118938" d="M256.772,349.92c.084-.186.138-.466.205-.615a.629.629,0,0,0-.221-.841.617.617,0,0,0-.842.221c-.083.187-.138.467-.2.615a.63.63,0,0,0,.221.841.617.617,0,0,0,.842-.221Z" transform="translate(-255.636 -348.384)" fill="#3e1774"/>
        </g>
        <g id="Grupo_81671" data-name="Grupo 81671" transform="translate(2.542)">
          <path id="Trazado_118939" data-name="Trazado 118939" d="M261.032,349.92c-.083-.186-.139-.466-.205-.615a.629.629,0,0,1,.221-.841.618.618,0,0,1,.842.221c.083.187.138.467.205.615a.629.629,0,0,1-.222.841.616.616,0,0,1-.841-.221Z" transform="translate(-260.753 -348.384)" fill="#3e1774"/>
        </g>
      </g>
    </g>
    <path id="Trazado_118940" data-name="Trazado 118940" d="M257.757,374.8a2.2,2.2,0,0,0-3.162,1.173l-7.942-4.443,8.461-4.732a2.256,2.256,0,0,0,.145.321,4.461,4.461,0,1,0-1.8-3.219,2.2,2.2,0,0,0,.2.291l-10.062,5.628-10.061-5.628a2.147,2.147,0,0,0,.2-.291,4.461,4.461,0,1,0-1.8,3.219,2.314,2.314,0,0,0,.145-.321l8.461,4.732-7.942,4.443a2.279,2.279,0,0,0-.145-.321,4.461,4.461,0,1,0,1.8,3.219,2.193,2.193,0,0,0-.2-.292l9.543-5.339,9.544,5.339a2.054,2.054,0,0,0-.2.292,3.167,3.167,0,1,0,4.817-4.072Z" transform="translate(-61.024 -141.783)" fill="#2ff980"/>
  </g>
</svg>
