<svg xmlns="http://www.w3.org/2000/svg" xmlns:xlink="http://www.w3.org/1999/xlink" width="85" height="85" viewBox="0 0 85 85">
  <defs>
    <clipPath id="clip-path">
      <rect id="Rectángulo_34417" data-name="Rectángulo 34417" width="85" height="85" transform="translate(285 14109)" fill="#2ff980" stroke="#707070" stroke-width="1"/>
    </clipPath>
  </defs>
  <g id="Enmascarar_grupo_125" data-name="Enmascarar grupo 125" transform="translate(-285 -14109)" clip-path="url(#clip-path)">
    <g id="documentos" transform="translate(285 14109)">
      <g id="Grupo_83859" data-name="Grupo 83859">
        <path id="Trazado_121494" data-name="Trazado 121494" d="M70.987,22.661h-.011l-.494.29V31.5h7.491l.41-.349v-1.1A7.418,7.418,0,0,0,70.987,22.661Z" fill="#ffa90f"/>
        <path id="Trazado_121495" data-name="Trazado 121495" d="M61.082,2.428l-.529-1.19h-36.3a2.743,2.743,0,0,0-2.743,2.743V8.715l1.141.934H53.082l9.991,9.712V31.73h7.111l.791-.577V11.662l-1.234-.545Z" fill="#62ddfc"/>
        <g id="Grupo_83858" data-name="Grupo 83858">
          <path id="Trazado_121496" data-name="Trazado 121496" d="M30.016,3.981a2.743,2.743,0,0,1,2.743-2.743H24.251a2.743,2.743,0,0,0-2.743,2.743V8.715l1.141.934h8.507l-1.141-.934V3.981Z" fill="#00d2fc"/>
        </g>
        <path id="Trazado_121497" data-name="Trazado 121497" d="M14.039,22.661h-.152a7.277,7.277,0,0,0-7.256,7.256v1.235l.717.2H14.6V23.128Z" fill="#ffa90f"/>
        <path id="Trazado_121498" data-name="Trazado 121498" d="M60.552,1.238V8.919A2.743,2.743,0,0,0,63.3,11.662h7.681Z" fill="#00d2fc"/>
        <path id="Trazado_121499" data-name="Trazado 121499" d="M53.722,10.286l-.639-1.571h-36.3a2.743,2.743,0,0,0-2.743,2.743V31.153l1.076,1.076H60.552l2.954-1.076V19.139l-1.539-.718Z" fill="#dbedff"/>
        <path id="Trazado_121500" data-name="Trazado 121500" d="M22.546,11.458a2.743,2.743,0,0,1,2.743-2.743H16.782a2.743,2.743,0,0,0-2.743,2.743V31.153l1.076,1.076h8.507l-1.076-1.076Z" fill="#b5dcff"/>
        <path id="Trazado_121501" data-name="Trazado 121501" d="M53.083,8.715V16.4a2.743,2.743,0,0,0,2.743,2.743h7.681Z" fill="#b5dcff"/>
        <path id="Trazado_121502" data-name="Trazado 121502" d="M65.035,8.919V5.72L60.552,1.238V8.919A2.743,2.743,0,0,0,63.3,11.662h4.482A2.743,2.743,0,0,1,65.035,8.919Z" fill="#00c2fb"/>
        <path id="Trazado_121503" data-name="Trazado 121503" d="M57.565,16.4V13.2L53.083,8.715V16.4a2.743,2.743,0,0,0,2.743,2.743h4.482A2.743,2.743,0,0,1,57.565,16.4Z" fill="#8bcaff"/>
        <path id="Trazado_121504" data-name="Trazado 121504" d="M78.383,31.153H6.631v50.39a2.205,2.205,0,0,0,2.205,2.205H76.178a2.205,2.205,0,0,0,2.205-2.205Z" fill="#ffd086"/>
        <path id="Trazado_121505" data-name="Trazado 121505" d="M17.207,81.543V31.153H6.631v50.39a2.205,2.205,0,0,0,2.205,2.205H19.412a2.2,2.2,0,0,1-2.205-2.205Z" fill="#ffc365"/>
        <path id="Trazado_121506" data-name="Trazado 121506" d="M70.342,53.125H43.919a1.411,1.411,0,0,0-1.411,1.411v20.8a1.411,1.411,0,0,0,1.411,1.411H70.342a1.411,1.411,0,0,0,1.411-1.411v-20.8A1.411,1.411,0,0,0,70.342,53.125Z" fill="#dbedff"/>
        <path id="Trazado_121507" data-name="Trazado 121507" d="M49.138,75.335v-20.8a1.411,1.411,0,0,1,1.411-1.411H43.919a1.411,1.411,0,0,0-1.411,1.411v20.8a1.411,1.411,0,0,0,1.411,1.411h6.631A1.411,1.411,0,0,1,49.138,75.335Z" fill="#b5dcff"/>
      </g>
      <g id="Grupo_83860" data-name="Grupo 83860">
        <path id="Trazado_121508" data-name="Trazado 121508" d="M12.786,21.5a8.512,8.512,0,0,0-7.407,8.428V81.55A3.454,3.454,0,0,0,8.829,85H76.171a3.454,3.454,0,0,0,3.45-3.45V59.013a1.245,1.245,0,0,0-2.49,0V81.55a.961.961,0,0,1-.96.96H8.829a.961.961,0,0,1-.96-.96V32.4H77.131V53.2a1.245,1.245,0,1,0,2.49,0V30.065a8.653,8.653,0,0,0-7.408-8.552V11.669a1.251,1.251,0,0,0-.365-.881L61.426.365A1.257,1.257,0,0,0,60.545,0h-36.3a3.992,3.992,0,0,0-3.988,3.988v3.49H16.774a3.992,3.992,0,0,0-3.988,3.988Zm0,8.418H7.869a6.021,6.021,0,0,1,4.917-5.9Zm59.427-5.877a6.162,6.162,0,0,1,4.916,5.877H72.214ZM61.79,4.251l6.172,6.172H63.288a1.5,1.5,0,0,1-1.5-1.5ZM22.746,3.988a1.5,1.5,0,0,1,1.5-1.5H59.3V8.926a3.992,3.992,0,0,0,3.988,3.988h6.436v17h-4.98V19.146a1.251,1.251,0,0,0-.365-.881L53.956,7.842a1.26,1.26,0,0,0-.881-.365H22.746ZM60.493,17.9H55.818a1.5,1.5,0,0,1-1.5-1.5V11.728ZM15.277,11.465a1.5,1.5,0,0,1,1.5-1.5H51.83V16.4a3.992,3.992,0,0,0,3.988,3.988h6.436v9.523H15.277Z"/>
        <path id="Trazado_121509" data-name="Trazado 121509" d="M65.921,70.577h-17.6a1.245,1.245,0,1,0,0,2.49h17.6a1.245,1.245,0,1,0,0-2.49Z"/>
        <path id="Trazado_121510" data-name="Trazado 121510" d="M65.921,65.991h-17.6a1.245,1.245,0,1,0,0,2.49h17.6a1.245,1.245,0,1,0,0-2.49Z"/>
        <path id="Trazado_121511" data-name="Trazado 121511" d="M65.921,61.4h-17.6a1.245,1.245,0,1,0,0,2.49h17.6a1.245,1.245,0,1,0,0-2.49Z"/>
        <path id="Trazado_121512" data-name="Trazado 121512" d="M65.921,56.818h-17.6a1.245,1.245,0,1,0,0,2.49h17.6a1.245,1.245,0,1,0,0-2.49Z"/>
        <path id="Trazado_121513" data-name="Trazado 121513" d="M55.185,24.839H20.933a1.245,1.245,0,0,0,0,2.49H55.185a1.245,1.245,0,0,0,0-2.49Z"/>
        <path id="Trazado_121514" data-name="Trazado 121514" d="M20.933,22.743H49.761a1.245,1.245,0,0,0,0-2.49H20.933a1.245,1.245,0,1,0,0,2.49Z"/>
        <path id="Trazado_121515" data-name="Trazado 121515" d="M54.217,51.887H43.911a2.659,2.659,0,0,0-2.656,2.656v20.8A2.659,2.659,0,0,0,43.911,78H70.334a2.659,2.659,0,0,0,2.656-2.656v-20.8a2.659,2.659,0,0,0-2.656-2.656H60.028a1.245,1.245,0,0,0,0,2.49H70.334a.166.166,0,0,1,.166.166v20.8a.166.166,0,0,1-.166.166H43.911a.166.166,0,0,1-.166-.166v-20.8a.166.166,0,0,1,.166-.166H54.217a1.245,1.245,0,0,0,0-2.49Z"/>
      </g>
    </g>
  </g>
</svg>
