<svg id="Grupo_83888" data-name="Grupo 83888" xmlns="http://www.w3.org/2000/svg" xmlns:xlink="http://www.w3.org/1999/xlink" width="289" height="549" viewBox="0 0 289 549">
  <defs>
    <clipPath id="clip-path">
      <rect id="Rectángulo_34424" data-name="Rectángulo 34424" width="289" height="549" transform="translate(0 0)" fill="none"/>
    </clipPath>
  </defs>
  <g id="Grupo_83861" data-name="Grupo 83861" transform="translate(40.28 36.555)" opacity="0.8">
    <path id="Trazado_121516" data-name="Trazado 121516" d="M56.386,78.755h-19.7L68.427,33.292h19.7Z" transform="translate(-36.685 -33.292)" fill="#6ac9d6" opacity="0.8"/>
    <path id="Trazado_121517" data-name="Trazado 121517" d="M85.368,78.755h-19.7L97.413,33.292h19.7Z" transform="translate(-33.844 -33.292)" fill="#6ac9d6" opacity="0.5"/>
    <path id="Trazado_121518" data-name="Trazado 121518" d="M114.354,78.755H94.648l31.747-45.463h19.7Z" transform="translate(-31.005 -33.292)" fill="#6ac9d6" opacity="0.5"/>
    <path id="Trazado_121519" data-name="Trazado 121519" d="M143.335,78.755h-19.7l31.742-45.463h19.705Z" transform="translate(-28.164 -33.292)" fill="#6ac9d6" opacity="0.5"/>
    <path id="Trazado_121520" data-name="Trazado 121520" d="M172.326,78.755H152.62l31.746-45.463h19.7Z" transform="translate(-25.323 -33.292)" fill="#6ac9d6" opacity="0.5"/>
    <path id="Trazado_121521" data-name="Trazado 121521" d="M201.3,78.755H181.6L213.35,33.292h19.7Z" transform="translate(-22.483 -33.292)" fill="#6ac9d6" opacity="0.5"/>
    <path id="Trazado_121522" data-name="Trazado 121522" d="M229.967,78.755h-19.7l31.748-45.463h19.7Z" transform="translate(-19.674 -33.292)" fill="#6ac9d6" opacity="0.5"/>
  </g>
  <path id="Trazado_121523" data-name="Trazado 121523" d="M84.1,319.068a9.659,9.659,0,0,0-15.9,6.921l-20.172.183a6.009,6.009,0,1,0,.012,1.1l20.166-.183A9.668,9.668,0,1,0,84.1,319.068Z" transform="translate(3.536 31.044)" fill="#2ff980" opacity="0.8"/>
  <g id="Grupo_83862" data-name="Grupo 83862" transform="translate(39.788 94.975)">
    <path id="Trazado_121524" data-name="Trazado 121524" d="M41.241,153.257a5,5,0,1,1,5.006-5A5,5,0,0,1,41.241,153.257Z" transform="translate(-36.237 -80.937)" fill="#2ff980" opacity="0.8"/>
    <path id="Trazado_121525" data-name="Trazado 121525" d="M41.241,140.4a5,5,0,1,1,5.006-5A5,5,0,0,1,41.241,140.4Z" transform="translate(-36.237 -82.196)" fill="#2ff980" opacity="0.8"/>
    <rect id="Rectángulo_34418" data-name="Rectángulo 34418" width="96.981" height="11.612" transform="translate(0.684)" fill="#2ff980" opacity="0.8"/>
    <rect id="Rectángulo_34419" data-name="Rectángulo 34419" width="79.035" height="5.806" transform="translate(0.684 16.706)" fill="#2ff980" opacity="0.5"/>
    <rect id="Rectángulo_34420" data-name="Rectángulo 34420" width="79.035" height="5.806" transform="translate(0.684 26.139)" fill="#2ff980" opacity="0.5"/>
    <rect id="Rectángulo_34421" data-name="Rectángulo 34421" width="51.927" height="5.806" transform="translate(0.684 35.573)" fill="#2ff980" opacity="0.5"/>
  </g>
  <g id="Grupo_83863" data-name="Grupo 83863" transform="translate(46.933 431.923)" opacity="0.8">
    <path id="Trazado_121526" data-name="Trazado 121526" d="M51.677,413.985H42.744l14.391-20.613h8.933Z" transform="translate(-42.744 -393.372)" fill="#2ff980" opacity="0.8"/>
    <path id="Trazado_121527" data-name="Trazado 121527" d="M64.817,413.985h-8.93l14.391-20.613h8.933Z" transform="translate(-41.456 -393.372)" fill="#2ff980" opacity="0.5"/>
    <path id="Trazado_121528" data-name="Trazado 121528" d="M77.959,413.985H69.024l14.394-20.613h8.932Z" transform="translate(-40.169 -393.372)" fill="#2ff980" opacity="0.5"/>
    <path id="Trazado_121529" data-name="Trazado 121529" d="M91.1,413.985H82.167l14.391-20.613h8.935Z" transform="translate(-38.881 -393.372)" fill="#2ff980" opacity="0.5"/>
    <path id="Trazado_121530" data-name="Trazado 121530" d="M104.244,413.985H95.309L109.7,393.372h8.93Z" transform="translate(-37.593 -393.372)" fill="#2ff980" opacity="0.5"/>
    <path id="Trazado_121531" data-name="Trazado 121531" d="M117.381,413.985h-8.931l14.395-20.613h8.931Z" transform="translate(-36.305 -393.372)" fill="#2ff980" opacity="0.5"/>
  </g>
  <g id="Grupo_83886" data-name="Grupo 83886">
    <g id="Grupo_83885" data-name="Grupo 83885" clip-path="url(#clip-path)">
      <path id="Trazado_121532" data-name="Trazado 121532" d="M109.511,664.668c-.148-4.162,31.645-4.024,31.494,0s-15.391,8.623-15.391,8.623l-11.047-2.3Z" transform="translate(10.732 64.837)" fill="#153556"/>
      <path id="Trazado_121533" data-name="Trazado 121533" d="M140.363,603.327s-.507,88.505-.612,93.826a34.753,34.753,0,0,0,1.508,9.348s-30.31,3.776-29.44-10.318c.909-14.718-4.917-73.233-4.906-93.3C106.923,584.9,140.363,603.327,140.363,603.327Z" transform="translate(10.478 58.31)" fill="#fff"/>
      <path id="Trazado_121534" data-name="Trazado 121534" d="M108.911,690.524c.591-2.319.659-26.13.659-26.13s2.544,3.567,16.355,3.567,15.139-3.567,15.139-3.567-1.149,21.908,1.371,33.178l-18.544,4.137Z" transform="translate(10.673 65.111)" fill="#0e263f"/>
      <path id="Trazado_121535" data-name="Trazado 121535" d="M144.528,706.664c-.5-10.758-1.93-12.155-4.461-16.683,0,0,.524-14.959-12.922-14.959-10.9,0-15.585,5.5-17.508,14.461,0,0-9.132,7.5-8.042,18.376l17.018,6.871Z" transform="translate(9.947 66.152)" fill="#0e263f"/>
      <path id="Trazado_121536" data-name="Trazado 121536" d="M144.084,711.916c-.907,4.783-5.215,11.352-23.439,11.352s-19.179-8.363-19.286-11.352a57.164,57.164,0,0,1,.483-7.469s3.923-9.861,21.93-9.861c16.793,0,20.772,10.161,20.772,10.161Z" transform="translate(9.932 68.069)" fill="#fff"/>
      <g id="Grupo_83864" data-name="Grupo 83864" transform="translate(111.277 772.517)">
        <path id="Trazado_121537" data-name="Trazado 121537" d="M120.645,722.388c-18.226,0-19.179-8.363-19.286-11.352a57.163,57.163,0,0,1,.483-7.469c.1,3.118,7.691,5.826,20.8,5.826s21.725-2.69,21.906-5.526l-.46,7.169C143.177,715.818,138.868,722.388,120.645,722.388Z" transform="translate(-101.345 -703.567)" fill="#e2e2e2"/>
      </g>
      <g id="Grupo_83865" data-name="Grupo 83865" transform="translate(118.874 757.611)">
        <path id="Trazado_121538" data-name="Trazado 121538" d="M108.814,694.539a.542.542,0,0,1-.452-.238.548.548,0,0,1,.139-.763c7.439-5.124,23.213-4.316,29.119.009a.549.549,0,0,1-.649.886c-5.643-4.131-20.726-4.9-27.846.01A.554.554,0,0,1,108.814,694.539Z" transform="translate(-108.264 -689.992)" fill="#fff"/>
      </g>
      <g id="Grupo_83866" data-name="Grupo 83866" transform="translate(123.505 752.416)">
        <path id="Trazado_121539" data-name="Trazado 121539" d="M113.031,688.913a.549.549,0,0,1-.287-1.018c5.645-3.444,15.724-3.52,22.947-.178a.549.549,0,0,1-.461,1c-6.925-3.206-16.551-3.155-21.914.119A.551.551,0,0,1,113.031,688.913Z" transform="translate(-112.482 -685.26)" fill="#fff"/>
      </g>
      <path id="Trazado_121540" data-name="Trazado 121540" d="M110.719,666.058s2.038-8.367,14.777-8.367c11.1,0,14.075,8.59,14.075,8.59l-10.108,6.129s-14.868-1.487-14.94-1.264S110.719,666.058,110.719,666.058Z" transform="translate(10.85 64.454)" fill="#0e263f"/>
      <g id="Grupo_83867" data-name="Grupo 83867" transform="translate(123.857 747.058)">
        <path id="Trazado_121541" data-name="Trazado 121541" d="M135.4,684.335a.541.541,0,0,1-.293-.086c-5.77-3.664-15.8-3.733-21.466-.146a.549.549,0,1,1-.587-.928c5.98-3.785,16.559-3.716,22.642.148a.548.548,0,0,1-.3,1.011Z" transform="translate(-112.802 -680.381)" fill="#fff"/>
      </g>
      <g id="Grupo_83868" data-name="Grupo 83868" transform="translate(123.857 741.011)">
        <path id="Trazado_121542" data-name="Trazado 121542" d="M135.4,678.829a.542.542,0,0,1-.293-.087c-5.769-3.664-15.8-3.734-21.466-.145a.55.55,0,0,1-.587-.929c5.98-3.785,16.56-3.718,22.642.148a.549.549,0,0,1-.3,1.012Z" transform="translate(-112.802 -674.873)" fill="#fff"/>
      </g>
      <g id="Grupo_83869" data-name="Grupo 83869" transform="translate(123.857 734.964)">
        <path id="Trazado_121543" data-name="Trazado 121543" d="M135.4,673.321a.551.551,0,0,1-.293-.086c-5.771-3.665-15.8-3.734-21.466-.145a.55.55,0,0,1-.587-.929c5.979-3.784,16.559-3.718,22.642.147a.549.549,0,0,1-.3,1.012Z" transform="translate(-112.802 -669.366)" fill="#fff"/>
      </g>
      <g id="Grupo_83870" data-name="Grupo 83870" transform="translate(123.857 728.916)">
        <path id="Trazado_121544" data-name="Trazado 121544" d="M135.4,667.814a.541.541,0,0,1-.293-.086c-5.769-3.665-15.8-3.735-21.466-.146a.55.55,0,0,1-.587-.929c5.98-3.785,16.56-3.717,22.642.148a.549.549,0,0,1-.3,1.012Z" transform="translate(-112.802 -663.858)" fill="#fff"/>
      </g>
      <path id="Trazado_121545" data-name="Trazado 121545" d="M165.511,603.936s.506,88.5.61,93.827a34.7,34.7,0,0,1-1.506,9.346s30.31,3.778,29.44-10.316c-.909-14.72,4.916-73.234,4.906-93.3C198.952,585.5,165.511,603.936,165.511,603.936Z" transform="translate(16.132 58.37)" fill="#fff"/>
      <path id="Trazado_121546" data-name="Trazado 121546" d="M195.577,664.668c.148-4.162-31.644-4.024-31.493,0s15.391,8.623,15.391,8.623l11.046-2.3Z" transform="translate(16.08 64.837)" fill="#153556"/>
      <path id="Trazado_121547" data-name="Trazado 121547" d="M196.358,690.524c-.591-2.319-.659-26.13-.659-26.13s-2.543,3.567-16.354,3.567-15.139-3.567-15.139-3.567,1.147,21.908-1.371,33.178l18.544,4.137Z" transform="translate(15.958 65.111)" fill="#0e263f"/>
      <path id="Trazado_121548" data-name="Trazado 121548" d="M161.589,706.664c.5-10.758,1.931-12.155,4.462-16.683,0,0-.525-14.959,12.921-14.959,10.9,0,15.586,5.5,17.508,14.461,0,0,9.133,7.5,8.042,18.376L187.5,714.73Z" transform="translate(15.836 66.152)" fill="#0e263f"/>
      <path id="Trazado_121549" data-name="Trazado 121549" d="M162.049,711.916c.908,4.783,5.217,11.352,23.439,11.352s19.18-8.363,19.286-11.352a56.954,56.954,0,0,0-.483-7.469s-3.923-9.861-21.929-9.861c-16.794,0-20.773,10.161-20.773,10.161Z" transform="translate(15.836 68.069)" fill="#fff"/>
      <g id="Grupo_83871" data-name="Grupo 83871" transform="translate(177.425 772.517)">
        <path id="Trazado_121550" data-name="Trazado 121550" d="M185.488,722.388c18.226,0,19.18-8.363,19.286-11.352a56.953,56.953,0,0,0-.483-7.469c-.1,3.118-7.691,5.826-20.8,5.826s-21.725-2.69-21.906-5.526l.46,7.169C162.957,715.818,167.266,722.388,185.488,722.388Z" transform="translate(-161.589 -703.567)" fill="#e2e2e2"/>
      </g>
      <g id="Grupo_83872" data-name="Grupo 83872" transform="translate(183.447 757.613)">
        <path id="Trazado_121551" data-name="Trazado 121551" d="M196.1,694.539a.551.551,0,0,1-.311-.1c-7.119-4.907-22.2-4.142-27.846-.01a.549.549,0,1,1-.649-.886c5.906-4.323,21.679-5.131,29.118-.009a.549.549,0,0,1-.312,1Z" transform="translate(-167.073 -689.993)" fill="#fff"/>
      </g>
      <g id="Grupo_83873" data-name="Grupo 83873" transform="translate(184.867 752.416)">
        <path id="Trazado_121552" data-name="Trazado 121552" d="M191.346,688.913a.55.55,0,0,1-.284-.08c-5.365-3.272-14.99-3.326-21.915-.119a.549.549,0,0,1-.461-1c7.223-3.342,17.3-3.266,22.947.178a.549.549,0,0,1-.287,1.018Z" transform="translate(-168.367 -685.26)" fill="#fff"/>
      </g>
      <path id="Trazado_121553" data-name="Trazado 121553" d="M194.134,666.058s-2.039-8.367-14.777-8.367c-11.1,0-14.076,8.59-14.076,8.59l10.109,6.129s14.867-1.487,14.94-1.264S194.134,666.058,194.134,666.058Z" transform="translate(16.198 64.454)" fill="#0e263f"/>
      <g id="Grupo_83874" data-name="Grupo 83874" transform="translate(184.892 747.058)">
        <path id="Trazado_121554" data-name="Trazado 121554" d="M168.939,684.335a.548.548,0,0,1-.294-1.011c6.083-3.865,16.662-3.933,22.642-.148a.549.549,0,1,1-.587.928c-5.666-3.587-15.7-3.518-21.466.146A.546.546,0,0,1,168.939,684.335Z" transform="translate(-168.39 -680.38)" fill="#fff"/>
      </g>
      <g id="Grupo_83875" data-name="Grupo 83875" transform="translate(184.892 741.011)">
        <path id="Trazado_121555" data-name="Trazado 121555" d="M168.939,678.829a.549.549,0,0,1-.294-1.012c6.081-3.865,16.66-3.932,22.642-.148a.55.55,0,0,1-.587.929c-5.667-3.588-15.7-3.518-21.466.145A.545.545,0,0,1,168.939,678.829Z" transform="translate(-168.389 -674.874)" fill="#fff"/>
      </g>
      <g id="Grupo_83876" data-name="Grupo 83876" transform="translate(184.892 734.964)">
        <path id="Trazado_121556" data-name="Trazado 121556" d="M168.939,673.321a.549.549,0,0,1-.294-1.012c6.082-3.865,16.663-3.931,22.642-.147a.55.55,0,0,1-.587.929c-5.666-3.589-15.7-3.519-21.466.145A.554.554,0,0,1,168.939,673.321Z" transform="translate(-168.39 -669.366)" fill="#fff"/>
      </g>
      <g id="Grupo_83877" data-name="Grupo 83877" transform="translate(184.892 728.917)">
        <path id="Trazado_121557" data-name="Trazado 121557" d="M168.939,667.814a.549.549,0,0,1-.294-1.012c6.081-3.864,16.66-3.932,22.642-.148a.55.55,0,0,1-.587.929c-5.667-3.588-15.7-3.518-21.466.146A.546.546,0,0,1,168.939,667.814Z" transform="translate(-168.389 -663.859)" fill="#fff"/>
      </g>
      <path id="Trazado_121558" data-name="Trazado 121558" d="M165.5,615.686s4.483,2.675,14.915,2.675a70.2,70.2,0,0,0,18-2.228l.362-8.228L181.7,605.428l-16.2,3.251Z" transform="translate(16.219 59.332)" fill="#c1c1c1" opacity="0.4"/>
      <path id="Trazado_121559" data-name="Trazado 121559" d="M140.307,615.686s-4.484,2.675-14.916,2.675a70.2,70.2,0,0,1-18-2.228l-.361-8.228,17.071-2.476,16.2,3.251Z" transform="translate(10.489 59.332)" fill="#c1c1c1" opacity="0.4"/>
      <path id="Trazado_121560" data-name="Trazado 121560" d="M154.983,434.017c-.1-4.237,2.31-5.592,2.287.352-.171,44.381,10.569,138.493,12.28,177.481.042.962,1.461,1.855,1.5,2.755.427,9.527.74,15.425.853,15.979.878,4.323,34.912,3.547,35.125-.891.029-.6.418-6.228,1.017-15.52.071-1.1,1.075-2.342,1.152-3.549,3.127-49.166,10.689-180.588,5.111-238.963,0,0-60.491-.19-123.613-.19-3.13,47.534,10.1,193.009,14.693,242.8.126,1.351,1.356,2.9,1.467,4.105.7,7.633,1.134,12.291,1.163,12.99.27,5.389,34.679,5.171,34.875-1.082l.209-12.709,1.7-3.713Z" transform="translate(8.842 36.404)" fill="#583ae2"/>
      <path id="Trazado_121561" data-name="Trazado 121561" d="M89.456,393.517s24.458,10.864,66.667,10.864,59.716-10.864,59.716-10.864l-56.218-5.677Z" transform="translate(8.767 38.008)" fill="#40327b"/>
      <path id="Trazado_121562" data-name="Trazado 121562" d="M129.774,188.307c-8.522-19.965-7.992-67.242-7.992-82.618S155.17,74.005,155.17,74.005s33.142,16.478,33.142,31.8-.9,69.97-8.145,82.5Z" transform="translate(11.934 7.252)" fill="#40327b"/>
      <path id="Trazado_121563" data-name="Trazado 121563" d="M221.487,220.341s10.943,60.434,9.127,69.2S195.042,319.695,194.525,320s-4.457-13.31-4.457-13.31l18.464-21.175L191.405,242.86Z" transform="translate(18.627 21.593)" fill="#0e263f"/>
      <path id="Trazado_121564" data-name="Trazado 121564" d="M83.2,221.992S70.915,280.4,72.733,289.179s35.731,32.4,36.244,32.7,4.456-13.315,4.456-13.315L94.974,287.393,112.1,244.739Z" transform="translate(7.11 21.755)" fill="#0e263f"/>
      <path id="Trazado_121565" data-name="Trazado 121565" d="M243.875,236.133c-.539-14.309-6.548-36.524-18.622-44.166h0c-8.1-7.273-37.383-19.174-45.479-21.546-13.094-3.836-23.127,2.938-40.8-3.111,0,0-32.473,12.589-43.524,20.081-14.715,9.978-29.479,47.7-29.938,59.788,0,0,21.231,5.073,39.485,10.015a143.828,143.828,0,0,1-1.565,30.4c-.885,5.852-11.328,71.665-15.108,104.485-.237,2.068,4.551,6.638,4.316,8.513-.8,6.334-1.677,13.263-.843,14.541,1.072,1.645,31.068,3.576,66.212,3.6,31.447.019,59.1-2.817,60.305-3.89,1.122-.858.137-4.922-.33-12.208-.093-1.474,4.729-5.241,4.623-6.914-1.726-27.245-11-89.407-11.229-93.173a260.333,260.333,0,0,1,.744-44.656C231.995,254.72,243.875,236.133,243.875,236.133Z" transform="translate(6.421 16.396)" fill="#583ae2"/>
      <path id="Trazado_121566" data-name="Trazado 121566" d="M134.174,142.27c.047,6.349-.365,19.428-1.749,27.494s40.37,7.808,39.65,2.623c-.54-1.416-1.969-19.114-1.535-28.469Z" transform="translate(12.974 13.942)" fill="#583ae2"/>
      <path id="Trazado_121567" data-name="Trazado 121567" d="M134.015,142.621a37.869,37.869,0,0,1,.047,6.349s10.826,12.8,18.547,12.795S170.2,149.919,170.2,149.919s-.17-7.92.182-11.228Z" transform="translate(13.133 13.592)" fill="#c1c1c1" style="mix-blend-mode: color-burn;isolation: isolate"/>
      <path id="Trazado_121568" data-name="Trazado 121568" d="M192.431,110.017c-.886,6.611-6,15.1-10.916,12.548-3.956-2.064-7.294-5.5-6.419-12.111s4.339-9.856,9.589-10.92C190.351,98.392,193.3,103.41,192.431,110.017Z" transform="translate(17.146 9.738)" fill="#ed906b"/>
      <path id="Trazado_121569" data-name="Trazado 121569" d="M190.188,101.675c-1.063-1.311-6.733-2.012-8.373,2.961l.613-4.693a7.522,7.522,0,0,1,4-.513A5.165,5.165,0,0,1,190.188,101.675Z" transform="translate(17.818 9.736)" fill="#ffaf99"/>
      <path id="Trazado_121570" data-name="Trazado 121570" d="M113.168,110.068c.883,6.611,6.016,15.085,10.927,12.531,3.954-2.072,7.276-5.5,6.395-12.116s-4.345-9.855-9.6-10.908C115.233,98.439,112.289,103.455,113.168,110.068Z" transform="translate(11.075 9.743)" fill="#ed906b"/>
      <path id="Trazado_121571" data-name="Trazado 121571" d="M114.569,101.722c1.064-1.314,6.734-2.021,8.377,2.943l-.614-4.683a7.506,7.506,0,0,0-3.993-.509A5.134,5.134,0,0,0,114.569,101.722Z" transform="translate(11.228 9.74)" fill="#ffaf99"/>
      <path id="Trazado_121572" data-name="Trazado 121572" d="M188.323,99.81a33.333,33.333,0,0,1-66.666.041c-.012-24.715,14.9-36.608,33.313-36.617S188.3,75.612,188.323,99.81Z" transform="translate(11.922 6.197)" fill="#ffaf99"/>
      <path id="Trazado_121573" data-name="Trazado 121573" d="M188.323,96.545c.008,17.825.016,32.746-6.775,42.443-4.091,5.838-14.713,15.873-22.411,18.423-1.916.629-7.4.318-9.3-.352-7.645-2.7-17.444-12.473-21.357-18.038-6.8-9.691-6.809-24.608-6.825-42.436" transform="translate(11.922 9.461)" fill="#ffaf99"/>
      <path id="Trazado_121574" data-name="Trazado 121574" d="M160.351,107.119a20.562,20.562,0,0,1,3.35-1.242,25.222,25.222,0,0,1,3.472-.751,23.142,23.142,0,0,1,3.553-.271,18.267,18.267,0,0,1,3.558.332.766.766,0,0,1-.09,1.519l-.036,0c-1.127.067-2.237.11-3.348.214s-2.218.213-3.324.371-2.208.347-3.313.549-2.214.462-3.276.708l-.038.009a.768.768,0,0,1-.507-1.439Z" transform="translate(15.672 10.276)" fill="#0e263f"/>
      <path id="Trazado_121575" data-name="Trazado 121575" d="M142.836,107.985c-1.08-.153-2.216-.305-3.325-.423s-2.232-.208-3.347-.264-2.229-.09-3.342-.087-2.225.044-3.352.075h-.035a.766.766,0,0,1-.221-1.5,18.237,18.237,0,0,1,3.515-.636,23.244,23.244,0,0,1,3.562-.033,25.286,25.286,0,0,1,3.522.45,20.691,20.691,0,0,1,3.441.948.768.768,0,0,1-.38,1.479Z" transform="translate(12.608 10.296)" fill="#0e263f"/>
      <path id="Trazado_121576" data-name="Trazado 121576" d="M146.741,130.831c2.137-1.011,9.819-1.09,11.648-.012s-3.851,2.544-5.822,2.544S145.038,131.763,146.741,130.831Z" transform="translate(14.349 12.744)" fill="#ed906b"/>
      <path id="Trazado_121577" data-name="Trazado 121577" d="M157.24,145.619s-2.891-.357-4.877-.357a40.576,40.576,0,0,0-4.421.331c-1.492-.444,2.9-1,4.515-1.006S158.637,145.235,157.24,145.619Z" transform="translate(14.468 14.17)" fill="#ed906b"/>
      <path id="Trazado_121578" data-name="Trazado 121578" d="M165.182,138.151c-3.073,1.934-8.425-1.972-11.843-.523h-.344c-3.422-1.449-8.774,2.456-11.842.523C143.479,140.74,162.673,141.663,165.182,138.151Z" transform="translate(13.833 13.455)" fill="#ed906b"/>
      <path id="Trazado_121579" data-name="Trazado 121579" d="M163.87,138.907c-2.884.912-6.657,4.973-10.827,3.681-3.047,1.142-8.893-2.521-10.62-3.772l10.62,1.293Z" transform="translate(13.957 13.604)" fill="#ed906b"/>
      <path id="Trazado_121580" data-name="Trazado 121580" d="M146.2,139.516a29.815,29.815,0,0,0,3.83.6c.906.089,1.838.527,2.753.541a22.639,22.639,0,0,0,2.455-.464,10.033,10.033,0,0,0,3.072-.674,11.681,11.681,0,0,1-5.531,1.37A20.047,20.047,0,0,1,146.2,139.516Z" transform="translate(14.327 13.673)" fill="#c1c1c1" style="mix-blend-mode: color-burn;isolation: isolate"/>
      <path id="Trazado_121581" data-name="Trazado 121581" d="M187.03,219.111l1.986,30.24,2.686,1.229,1.29,20.668,1.125-24.552,2.257-.421-4.182.773Z" transform="translate(18.329 21.473)" fill="#c1c1c1" style="mix-blend-mode: color-burn;isolation: isolate"/>
      <path id="Trazado_121582" data-name="Trazado 121582" d="M116.477,219.111l-2.794,31.469h-4.458l-4.908,29.265s2.664-18.277,2.265-29.835c-.159-4.7-.63-3.96-.63-3.96l5.362,1Z" transform="translate(10.223 21.473)" fill="#c1c1c1" style="mix-blend-mode: color-burn;isolation: isolate"/>
      <path id="Trazado_121583" data-name="Trazado 121583" d="M182.241,107.554s2.814,3.942,2.707,5.521S181,117.849,181,117.849Z" transform="translate(17.738 10.54)" fill="#ffaf99"/>
      <rect id="Rectángulo_34422" data-name="Rectángulo 34422" width="199.848" height="5.327" rx="1" transform="translate(64.967 376.925)" fill="#c1c1c1"/>
      <path id="Trazado_121584" data-name="Trazado 121584" d="M141.772,119.836c0,2.925-1.738,5.3-3.878,5.3s-3.876-2.373-3.876-5.3,1.735-5.3,3.876-5.3S141.772,116.906,141.772,119.836Z" transform="translate(13.134 11.224)" fill="#0e263f"/>
      <path id="Trazado_121585" data-name="Trazado 121585" d="M169.711,119.836c0,2.925-1.735,5.3-3.878,5.3s-3.877-2.373-3.877-5.3,1.736-5.3,3.877-5.3S169.711,116.906,169.711,119.836Z" transform="translate(15.872 11.224)" fill="#0e263f"/>
      <path id="Trazado_121586" data-name="Trazado 121586" d="M121.818,121.287c4.173,6.032,15.763,13.936,25.365,7.374s9.638-6.682,17.58.293,20.468-3.2,24.383-8.68c0,0-1.173,15.724-12.721,25.085s-17.038,13.013-21.21,13.013-27.771-8.445-32.8-29.4S121.818,121.287,121.818,121.287Z" transform="translate(11.761 11.48)" fill="#583ae2"/>
      <g id="Grupo_83878" data-name="Grupo 83878" transform="translate(138.899 192.271)">
        <path id="Trazado_121587" data-name="Trazado 121587" d="M132.5,202.876a.549.549,0,0,1-.534-.423c-.562-2.383-1.213-4.8-1.842-7.145-1.739-6.467-3.538-13.155-3.621-19.643a.549.549,0,0,1,.542-.556.58.58,0,0,1,.556.542c.082,6.35,1.862,12.97,3.584,19.371.631,2.35,1.285,4.779,1.851,7.179a.549.549,0,0,1-.408.66A.566.566,0,0,1,132.5,202.876Z" transform="translate(-126.502 -175.11)" fill="#efefef"/>
      </g>
      <g id="Grupo_83879" data-name="Grupo 83879" transform="translate(184.849 192.532)">
        <path id="Trazado_121588" data-name="Trazado 121588" d="M170.838,216.635a.55.55,0,0,1-.537-.436c-1.73-8.176-2.819-14.551-1.043-22.159a42.6,42.6,0,0,1,3.511-8.865,35.423,35.423,0,0,0,3.53-9.371.549.549,0,1,1,1.082.188,36.813,36.813,0,0,1-3.624,9.665,41.766,41.766,0,0,0-3.429,8.634c-1.724,7.387-.653,13.646,1.049,21.682a.55.55,0,0,1-.424.651A.576.576,0,0,1,170.838,216.635Z" transform="translate(-168.35 -175.348)" fill="#efefef"/>
      </g>
      <g id="Grupo_83880" data-name="Grupo 83880" transform="translate(185.116 226.466)">
        <path id="Trazado_121589" data-name="Trazado 121589" d="M170.814,214.155a1.1,1.1,0,0,1-1.076-.886l-1.123-5.7a1.1,1.1,0,1,1,2.154-.425l1.123,5.7a1.1,1.1,0,0,1-.865,1.29A1.085,1.085,0,0,1,170.814,214.155Z" transform="translate(-168.594 -206.254)" fill="#efefef"/>
      </g>
      <path id="Trazado_121590" data-name="Trazado 121590" d="M134.837,152.162c-3.686-10.113-7.991-45.559,8.057-51.127s25.366-.867,30.467,3.5,2.861,38.383-1.276,48.712l17.4-13.687,1.775-48.084S157.517,75.5,156.595,74.72,118.555,93.9,118.555,93.9s-2.278,31.633-1.887,35.389,3.674,14.142,3.674,14.142Z" transform="translate(11.429 7.32)" fill="#c1c1c1" style="mix-blend-mode: color-burn;isolation: isolate"/>
      <path id="Trazado_121591" data-name="Trazado 121591" d="M188.075,191.172c9.967-28.183,18.319-69.777,13.909-93.946-4.642-25.444-40.317-52.455-46.07-52.455s-42.788,23.487-46.262,52.845,4.257,65.764,17.054,93.556h4.337s-7.486-54.383-5.587-76.332c1.761-20.355,19.886-23.878,31.9-23.878s25.447,3.523,27.8,20.84c2.456,18.122-5.93,77.8-5.93,77.8Z" transform="translate(10.664 4.388)" fill="#583ae2"/>
      <rect id="Rectángulo_34423" data-name="Rectángulo 34423" width="199.848" height="133.178" rx="3" transform="translate(64.967 243.747)" fill="#ededed"/>
      <path id="Trazado_121592" data-name="Trazado 121592" d="M60.876,287.066c5.907-.226,9.346-1.62,10.284-4.955-.03-3.014-7.751-2.827-7.643-3.149,1.972-.506,7.876.323,9.343-4.8.9-3.819-8.06-4.494-11.431-4.717-.071-.236,6.96,1.3,9.719-1.318a3.875,3.875,0,0,0,.427-5.49c-1.311-1.472-9.9-3.363-9.99-3.579,2.45.025,4.97.676,5.726-.436,2.747-4.025-2.528-7.193-6.684-8.416-9.446-2.78-15.8.617-13.207,7.674-.5,1.817-7.407,5.926-2.973,10.368-.5,1.3-5.658,3.551-1.77,11.386-2.184,4.549-.92,8.366,3.422,11.683,1.879,1.428,3.544,5.207,8.578,9.487a26.845,26.845,0,0,0,6.3,3.734" transform="translate(4.041 24.426)" fill="#ffaf99"/>
      <path id="Trazado_121593" data-name="Trazado 121593" d="M60.641,258.337l-9.774-1.7S57.891,256.421,60.641,258.337Z" transform="translate(4.985 25.15)" fill="#f29a86"/>
      <path id="Trazado_121594" data-name="Trazado 121594" d="M63.4,267.991,48.71,266.4S59.022,266.2,63.4,267.991Z" transform="translate(4.774 26.107)" fill="#f29a86"/>
      <path id="Trazado_121595" data-name="Trazado 121595" d="M47.373,276.337l15.542.045S53.114,274.566,47.373,276.337Z" transform="translate(4.643 27.005)" fill="#f29a86"/>
      <path id="Trazado_121596" data-name="Trazado 121596" d="M60.405,283.716l-14.367-.289s8.045,1.973,14.367,1.678Z" transform="translate(4.512 27.776)" fill="#f29a86"/>
      <path id="Trazado_121597" data-name="Trazado 121597" d="M184.618,348.135c3.361,12.892,24.211,21.732,38.641,6.622l-5.631-6.622Z" transform="translate(18.093 34.117)" fill="#583ae2"/>
      <path id="Trazado_121598" data-name="Trazado 121598" d="M189.361,348.135a9.787,9.787,0,0,0,7.919,5.5s1.6,5.035,17.156,4.223c7.516-.392,9.365-.676,14.577-3.519,10.733-1.343,7.857-6.2,7.857-6.2Z" transform="translate(18.557 34.117)" fill="#ffaf99"/>
      <g id="Grupo_83881" data-name="Grupo 83881" transform="translate(142.578 213.567)">
        <path id="Trazado_121599" data-name="Trazado 121599" d="M132.171,201.524a1.1,1.1,0,0,1-1.063-.828l-1.222-4.824a1.1,1.1,0,0,1,2.129-.539l1.221,4.824a1.1,1.1,0,0,1-1.065,1.367Z" transform="translate(-129.852 -194.506)" fill="#efefef"/>
      </g>
      <g id="Grupo_83884" data-name="Grupo 83884" transform="translate(136.234 277.825)">
        <g id="Grupo_83882" data-name="Grupo 83882">
          <path id="Trazado_121600" data-name="Trazado 121600" d="M185.561,261.64a1.1,1.1,0,0,0-1.226-1.089,37.889,37.889,0,0,1-4.712.167c-5.419-.094-15.818-1.2-24.562-7.481a1.083,1.083,0,0,0-1.211-.045,45.463,45.463,0,0,1-24.314,6.645,29.211,29.211,0,0,1-4.155-.323,1.109,1.109,0,0,0-.874.222,1.075,1.075,0,0,0-.41.8,87.3,87.3,0,0,0,10.595,41.8c3.619,6.6,9.279,12.958,18.36,20.606a1.093,1.093,0,0,0,.682.259,1.114,1.114,0,0,0,.685-.226c8.668-6.578,14.757-12.922,18.611-19.393A92.208,92.208,0,0,0,185.561,261.64Z" transform="translate(-124.075 -253.028)" fill="#583ae2"/>
        </g>
        <g id="Grupo_83883" data-name="Grupo 83883" transform="translate(26.511 19.197)">
          <path id="Trazado_121601" data-name="Trazado 121601" d="M148.22,298.7a4.28,4.28,0,0,1,4.323-4.141,4.234,4.234,0,0,1,0,8.466A4.312,4.312,0,0,1,148.22,298.7Zm.512-28.189h7.674l-1.54,20.7h-4.6Z" transform="translate(-148.22 -270.512)" fill="#2ff980"/>
        </g>
      </g>
    </g>
  </g>
  <path id="Trazado_121602" data-name="Trazado 121602" d="M220.551,167.028a9.6,9.6,0,0,0-7.612,15.457L197.76,195.576a5.978,5.978,0,1,0,.714.825l15.174-13.088a9.607,9.607,0,1,0,6.9-16.284Z" transform="translate(18.393 16.369)" fill="#2ff980" opacity="0.8"/>
  <g id="Grupo_83887" data-name="Grupo 83887" transform="translate(167.091 418.935)">
    <rect id="Rectángulo_34425" data-name="Rectángulo 34425" width="96.981" height="11.612" fill="#2ff980" opacity="0.8"/>
    <rect id="Rectángulo_34426" data-name="Rectángulo 34426" width="79.036" height="5.806" transform="translate(17.946 16.706)" fill="#2ff980" opacity="0.5"/>
    <rect id="Rectángulo_34427" data-name="Rectángulo 34427" width="79.036" height="5.807" transform="translate(17.946 26.139)" fill="#2ff980" opacity="0.5"/>
    <rect id="Rectángulo_34428" data-name="Rectángulo 34428" width="51.927" height="5.807" transform="translate(45.054 35.572)" fill="#2ff980" opacity="0.5"/>
  </g>
  <path id="Trazado_121603" data-name="Trazado 121603" d="M218.007,162.659a5,5,0,1,1,5.006-5A5,5,0,0,1,218.007,162.659Z" transform="translate(20.874 14.96)" fill="#2ff980" opacity="0.5"/>
</svg>
