<svg xmlns="http://www.w3.org/2000/svg" xmlns:xlink="http://www.w3.org/1999/xlink" width="85" height="85" viewBox="0 0 85 85">
  <defs>
    <clipPath id="clip-path">
      <rect id="Rectángulo_34050" data-name="Rectángulo 34050" width="85" height="85" transform="translate(915 14961)" fill="#2ff980" stroke="#707070" stroke-width="1"/>
    </clipPath>
  </defs>
  <g id="Enmascarar_grupo_91" data-name="Enmascarar grupo 91" transform="translate(-915 -14961)" clip-path="url(#clip-path)">
    <g id="sirena" transform="translate(915 14961)">
      <g id="Grupo_81059" data-name="Grupo 81059">
        <path id="Trazado_114928" data-name="Trazado 114928" d="M67.264,61.752l-4.9-39.187a5.5,5.5,0,0,0-5.458-4.818H28.093a5.5,5.5,0,0,0-5.458,4.818l-4.9,39.187v3.2H67.264v-3.2Z" fill="#fd445f"/>
        <g id="Grupo_81058" data-name="Grupo 81058">
          <path id="Trazado_114929" data-name="Trazado 114929" d="M39.739,42.5,30.6,45.929a1.375,1.375,0,0,1-1.858-1.288V34.858A1.375,1.375,0,0,1,30.6,33.571L39.739,37h5.5l9.143-3.429a1.375,1.375,0,0,1,1.858,1.288v9.783a1.375,1.375,0,0,1-1.858,1.288L45.24,42.5Z" fill="#f6f6f6"/>
          <path id="Trazado_114930" data-name="Trazado 114930" d="M54.383,33.571,50.577,35a1.375,1.375,0,0,1,1.845,1.291v6.929A1.374,1.374,0,0,1,50.7,44.546l3.686,1.382a1.375,1.375,0,0,0,1.858-1.288V34.858a1.375,1.375,0,0,0-1.858-1.288Z" fill="#e2dff4"/>
        </g>
        <path id="Trazado_114931" data-name="Trazado 114931" d="M62.365,22.566a5.5,5.5,0,0,0-5.458-4.818H53.089a5.5,5.5,0,0,1,5.458,4.818l4.9,39.187v3.2h3.818v-3.2Z" fill="#e30f5a"/>
        <path id="Trazado_114932" data-name="Trazado 114932" d="M39.739,37h5.5v27.95h-5.5Z" fill="#e2dff4"/>
        <path id="Trazado_114933" data-name="Trazado 114933" d="M14.986,72.106V63.127a1.375,1.375,0,0,1,1.375-1.375H68.639a1.375,1.375,0,0,1,1.375,1.375v8.979Z" fill="#e2dff4"/>
        <path id="Trazado_114934" data-name="Trazado 114934" d="M68.639,61.752H64.82A1.375,1.375,0,0,1,66.2,63.127v8.979h3.818V63.127A1.375,1.375,0,0,0,68.639,61.752Z" fill="#bebcdd"/>
        <path id="Trazado_114935" data-name="Trazado 114935" d="M75.515,75.5l-1.99-3.98A2.751,2.751,0,0,0,71.064,70H13.936a2.75,2.75,0,0,0-2.46,1.52L9.485,75.5V78.94H75.515Z" fill="#f6f6f6"/>
        <path id="Trazado_114936" data-name="Trazado 114936" d="M73.525,71.524A2.751,2.751,0,0,0,71.064,70H67.246a2.75,2.75,0,0,1,2.46,1.52L71.7,75.5V78.94h3.818V75.5Z" fill="#e2dff4"/>
        <path id="Trazado_114937" data-name="Trazado 114937" d="M76.937,75.5H58.991L45.3,77.2,31.488,75.5H8.063a1.328,1.328,0,0,0-1.328,1.328v5.595a1.328,1.328,0,0,0,1.328,1.328H25.987L41.77,82.344l11.72,1.411H76.937a1.328,1.328,0,0,0,1.328-1.328V76.832A1.328,1.328,0,0,0,76.937,75.5Z" fill="#ffc649"/>
        <path id="Trazado_114938" data-name="Trazado 114938" d="M53.491,83.755l5.5-8.251h-27.5l-5.5,8.251Z" fill="#335373"/>
        <path id="Trazado_114939" data-name="Trazado 114939" d="M76.937,75.5H73.118a1.328,1.328,0,0,1,1.328,1.328v5.595a1.328,1.328,0,0,1-1.328,1.328h3.818a1.328,1.328,0,0,0,1.328-1.328V76.832A1.328,1.328,0,0,0,76.937,75.5Z" fill="#ffa742"/>
      </g>
      <g id="Grupo_81060" data-name="Grupo 81060">
        <path id="Trazado_114940" data-name="Trazado 114940" d="M76.937,74.259h-.653l-1.646-3.292a3.97,3.97,0,0,0-3.379-2.2V63.127a2.623,2.623,0,0,0-2.62-2.62h-.276L63.6,22.411A6.756,6.756,0,0,0,56.907,16.5H36.468a1.245,1.245,0,0,0,0,2.49H56.907A4.262,4.262,0,0,1,61.13,22.72l4.723,37.787H46.485V44.3l7.461,2.8a2.62,2.62,0,0,0,3.54-2.454V34.858a2.62,2.62,0,0,0-3.54-2.454l-8.932,3.35H39.965L31.033,32.4a2.62,2.62,0,0,0-3.54,2.454v9.783a2.621,2.621,0,0,0,3.54,2.454l7.461-2.8v16.21H19.147L23.87,22.72a4.262,4.262,0,0,1,4.223-3.728h3.4a1.245,1.245,0,0,0,0-2.49h-3.4A6.756,6.756,0,0,0,21.4,22.411l-4.762,38.1h-.276a2.623,2.623,0,0,0-2.62,2.62v5.637a3.97,3.97,0,0,0-3.379,2.2L8.716,74.259H8.063A2.576,2.576,0,0,0,5.49,76.832v5.595A2.576,2.576,0,0,0,8.063,85H12.5a1.245,1.245,0,1,0,0-2.49H8.063a.083.083,0,0,1-.083-.083V76.832a.083.083,0,0,1,.083-.083h21.1l-3.84,5.761H17.476a1.245,1.245,0,0,0,0,2.49H76.937a2.576,2.576,0,0,0,2.573-2.573V76.832A2.576,2.576,0,0,0,76.937,74.259ZM54.82,34.736a.13.13,0,0,1,.176.122v9.783a.13.13,0,0,1-.176.122l-8.335-3.126V37.862ZM43.994,42.5V55.006h-3.01V38.245h3.01ZM30.159,44.763a.13.13,0,0,1-.176-.122V34.858a.12.12,0,0,1,.056-.107.126.126,0,0,1,.073-.024.13.13,0,0,1,.047.01l8.335,3.126v3.775ZM40.984,57.5h3.01v3.01h-3.01ZM16.361,63H68.639a.13.13,0,0,1,.13.13v5.631H16.231V63.127a.13.13,0,0,1,.13-.13ZM12.589,72.08a1.5,1.5,0,0,1,1.346-.832H71.064a1.5,1.5,0,0,1,1.346.832L73.5,74.259h-62Zm19.565,4.669H56.665L52.824,82.51H28.314ZM77.02,82.427a.083.083,0,0,1-.083.083H55.817l3.84-5.761H76.937a.083.083,0,0,1,.083.083Z"/>
        <path id="Trazado_114941" data-name="Trazado 114941" d="M58.369,12.246a1.245,1.245,0,0,0,1.7-.456l2.75-4.764a1.245,1.245,0,1,0-2.157-1.245l-2.75,4.764a1.245,1.245,0,0,0,.456,1.7Z"/>
        <path id="Trazado_114942" data-name="Trazado 114942" d="M42.489,7.991a1.245,1.245,0,0,0,1.245-1.245v-5.5a1.245,1.245,0,0,0-2.49,0v5.5A1.245,1.245,0,0,0,42.489,7.991Z"/>
        <path id="Trazado_114943" data-name="Trazado 114943" d="M24.909,11.79a1.245,1.245,0,1,0,2.157-1.245l-2.75-4.764a1.245,1.245,0,1,0-2.157,1.245Z"/>
        <path id="Trazado_114944" data-name="Trazado 114944" d="M27.493,23.248a1.245,1.245,0,0,0,1.245,1.245h27.5a1.245,1.245,0,0,0,0-2.49h-27.5a1.245,1.245,0,0,0-1.245,1.245Z"/>
      </g>
    </g>
  </g>
</svg>
