<svg xmlns="http://www.w3.org/2000/svg" xmlns:xlink="http://www.w3.org/1999/xlink" width="52" height="52" viewBox="0 0 52 52">
  <defs>
    <clipPath id="clip-path">
      <rect id="Rectángulo_34102" data-name="Rectángulo 34102" width="52" height="52" transform="translate(213 17748)" fill="#583ae2" stroke="#707070" stroke-width="1"/>
    </clipPath>
  </defs>
  <g id="Enmascarar_grupo_92" data-name="Enmascarar grupo 92" transform="translate(-213 -17748)" clip-path="url(#clip-path)">
    <g id="prevencion" transform="translate(213.001 17748.002)">
      <path id="Trazado_115025" data-name="Trazado 115025" d="M49.4,7.574a2.59,2.59,0,0,0-2.513-2.617C35.83,4.652,29.057,1.329,27.237.313a2.59,2.59,0,0,0-2.484.005C22.941,1.329,16.168,4.651,5.114,4.957A2.59,2.59,0,0,0,2.6,7.574v12.1a33.908,33.908,0,0,0,3.16,14.24,6.594,6.594,0,0,0,.252,5.818,6.787,6.787,0,0,0,6.071,3.6h.231A33.155,33.155,0,0,0,20,49.128l4.655,2.536A2.86,2.86,0,0,0,26,52a2.9,2.9,0,0,0,1.354-.338L32,49.13a33.168,33.168,0,0,0,7.685-5.8h.231a6.786,6.786,0,0,0,6.066-3.6,6.592,6.592,0,0,0,.253-5.818A33.908,33.908,0,0,0,49.4,19.673ZM31.166,47.606l-4.637,2.526a1.127,1.127,0,0,1-1.052.005l-4.644-2.531a31.6,31.6,0,0,1-6.014-4.274h2.687a29.455,29.455,0,0,0,4.151,2.746l3.1,1.694a2.642,2.642,0,0,0,2.486,0l3.094-1.69a29.413,29.413,0,0,0,4.152-2.75h2.687a31.626,31.626,0,0,1-6.013,4.274Zm-10.7-4.274H31.535c-.654.433-1.329.843-2.025,1.224l-3.086,1.686a.894.894,0,0,1-.841,0l-3.1-1.69C21.791,44.175,21.117,43.765,20.463,43.332Zm24-4.42A5.075,5.075,0,0,1,39.916,41.6H12.083A5.075,5.075,0,0,1,7.54,38.912,4.914,4.914,0,0,1,7.77,33.8L21.685,12.7a5.191,5.191,0,0,1,8.628,0L44.228,33.8A4.914,4.914,0,0,1,44.458,38.912ZM31.76,11.749a6.924,6.924,0,0,0-11.521,0L9.2,28.49a28.482,28.482,0,0,1-1.4-8.817l.008-9.639A49.206,49.206,0,0,0,26,5.527a49.262,49.262,0,0,0,18.2,4.507v9.639A28.492,28.492,0,0,1,42.8,28.5Zm15.905,7.924a32.2,32.2,0,0,1-2.5,12.4L44,30.307a30.2,30.2,0,0,0,1.932-10.635V10.036A1.752,1.752,0,0,0,44.309,8.3,47.46,47.46,0,0,1,26.747,3.964a1.773,1.773,0,0,0-1.512.008A47.466,47.466,0,0,1,7.681,8.3a1.75,1.75,0,0,0-1.615,1.731v9.637A30.2,30.2,0,0,0,8,30.307L6.835,32.071a32.2,32.2,0,0,1-2.5-12.4V7.574a.867.867,0,0,1,.829-.884c11.135-.308,18-3.5,20.427-4.853a.867.867,0,0,1,.811-.005C28.835,3.19,35.7,6.383,46.835,6.69a.867.867,0,0,1,.83.884Z" fill="#583ae2"/>
      <path id="Trazado_115026" data-name="Trazado 115026" d="M26,13.866a2.6,2.6,0,0,0-2.6,2.6v13a2.6,2.6,0,1,0,5.2,0v-13A2.6,2.6,0,0,0,26,13.866Zm.867,15.6a.867.867,0,0,1-1.733,0v-13a.867.867,0,1,1,1.733,0Z" fill="#583ae2"/>
      <path id="Trazado_115027" data-name="Trazado 115027" d="M26,33.8a2.6,2.6,0,1,0,2.6,2.6A2.6,2.6,0,0,0,26,33.8Zm0,3.467a.867.867,0,1,1,.867-.867A.867.867,0,0,1,26,37.265Z" fill="#583ae2"/>
    </g>
  </g>
</svg>
