<svg xmlns="http://www.w3.org/2000/svg" xmlns:xlink="http://www.w3.org/1999/xlink" width="52" height="52" viewBox="0 0 52 52">
  <defs>
    <clipPath id="clip-path">
      <rect id="Rectángulo_34104" data-name="Rectángulo 34104" width="52" height="52" transform="translate(528 17748)" fill="#583ae2" stroke="#707070" stroke-width="1"/>
    </clipPath>
  </defs>
  <g id="Enmascarar_grupo_93" data-name="Enmascarar grupo 93" transform="translate(-528 -17748)" clip-path="url(#clip-path)">
    <path id="prevencion_1_" data-name="prevencion (1)" d="M31.247,22.1v5.466a.728.728,0,0,1-1.456,0V12.377a.775.775,0,0,0-.474-.769,1.061,1.061,0,0,0-.751,0,.775.775,0,0,0-.474.769V21.4a.728.728,0,0,1-1.456,0V9.86a.775.775,0,0,0-.474-.769,1.061,1.061,0,0,0-.751,0,.775.775,0,0,0-.474.769V21.71a.728.728,0,1,1-1.456,0V12.842A.775.775,0,0,0,23,12.073a1.061,1.061,0,0,0-.751,0,.775.775,0,0,0-.474.769v10.1a.728.728,0,0,1-1.456,0V17.279a.775.775,0,0,0-.474-.769,1.061,1.061,0,0,0-.751,0,.775.775,0,0,0-.474.769v6.94c0,1.027-.023,1.972-.041,2.743a12.767,12.767,0,0,0,.092,2.723A18.51,18.51,0,0,0,20.4,33.719l5.275.07,5.3.071c.3-.49.586-.941.845-1.346a7.308,7.308,0,0,0,1.486-3.434c.074-.675.114-1.739.122-2.973.008-1.3-.019-2.8-.077-4.247a1.163,1.163,0,0,0-.82-1.011,1.6,1.6,0,0,0-.523-.105,1.119,1.119,0,0,0-.436.07.552.552,0,0,0-.336.557V22.1Zm1.858,13.3V39a1.545,1.545,0,0,1-1.544,1.544H19.324A1.545,1.545,0,0,1,17.781,39v-3.6a1.547,1.547,0,0,1,1.1-1.48,16.693,16.693,0,0,1-1.629-3.957,13.554,13.554,0,0,1-.121-3.041c.016-.662.035-1.475.035-2.708v-6.94a2.171,2.171,0,0,1,1.391-2.117,2.456,2.456,0,0,1,1.765-.025V12.843a2.171,2.171,0,0,1,1.391-2.117,2.463,2.463,0,0,1,1.765-.026V9.86a2.171,2.171,0,0,1,1.391-2.117,2.457,2.457,0,0,1,1.831,0A2.173,2.173,0,0,1,28.094,9.86v.375a2.456,2.456,0,0,1,1.765.025,2.173,2.173,0,0,1,1.391,2.117v7.018a2.625,2.625,0,0,1,.8-.1,3.085,3.085,0,0,1,1.007.2A2.578,2.578,0,0,1,34.816,21.8c.059,1.449.086,2.972.077,4.309-.008,1.3-.05,2.414-.128,3.12a8.4,8.4,0,0,1-1.709,4.061c-.17.265-.354.553-.56.885a1.631,1.631,0,0,1,.157.137,1.55,1.55,0,0,1,.45,1.091ZM31.648,39v-3.6a.091.091,0,0,0-.026-.061.087.087,0,0,0-.061-.026H19.324a.091.091,0,0,0-.061.026.087.087,0,0,0-.026.061V39a.091.091,0,0,0,.026.061.087.087,0,0,0,.061.026H31.561A.089.089,0,0,0,31.648,39ZM45.466,9.912c-.781,9.533-1.9,17.337-4.7,23.525C37.987,39.6,33.514,44.2,26,47.352,18.493,44.2,14.021,39.6,11.237,33.437,8.445,27.25,7.321,19.444,6.54,9.912L26,4.5ZM26.2,3.042l20.19,5.619a.729.729,0,0,1,.578.77c-.8,9.952-1.931,18.094-4.87,24.6-2.971,6.582-7.753,11.458-15.816,14.775a.723.723,0,0,1-.551,0c-8.063-3.318-12.845-8.193-15.816-14.775-2.939-6.51-4.076-14.652-4.871-24.6h0a.725.725,0,0,1,.53-.756L25.8,3.045a.708.708,0,0,1,.4,0ZM24.622,51.493a36.6,36.6,0,0,1-7.7-4.237,28.981,28.981,0,0,1-6.269-6.2A39.679,39.679,0,0,1,4.287,25.921,119.046,119.046,0,0,1,2.148,9.661l-.19-2.387a.728.728,0,0,1,.578-.77L25.81.028a.718.718,0,0,1,.4,0L49.517,6.517a.726.726,0,0,1,.53.756h0l-.19,2.387a119.046,119.046,0,0,1-2.139,16.26,39.679,39.679,0,0,1-6.367,15.133,28.958,28.958,0,0,1-6.269,6.2,36.582,36.582,0,0,1-7.7,4.237l-1.1.455a.723.723,0,0,1-.551,0Zm-6.846-5.41a27.541,27.541,0,0,1-5.956-5.893A38.27,38.27,0,0,1,5.7,25.609,118.191,118.191,0,0,1,3.6,9.548L3.454,7.757,26,1.482,48.552,7.757l-.144,1.791A118.165,118.165,0,0,1,46.3,25.609a38.271,38.271,0,0,1-6.117,14.581,27.541,27.541,0,0,1-5.956,5.893,35.179,35.179,0,0,1-7.4,4.067L26,50.492l-.829-.341a35.1,35.1,0,0,1-7.4-4.067Z" transform="translate(527.998 17747.998)" fill="#583ae2" fill-rule="evenodd"/>
  </g>
</svg>
