<svg xmlns="http://www.w3.org/2000/svg" xmlns:xlink="http://www.w3.org/1999/xlink" width="52" height="52" viewBox="0 0 52 52">
  <defs>
    <clipPath id="clip-path">
      <rect id="Rectángulo_34108" data-name="Rectángulo 34108" width="52" height="52" transform="translate(1158 17748)" fill="#583ae2" stroke="#707070" stroke-width="1"/>
    </clipPath>
  </defs>
  <g id="Enmascarar_grupo_95" data-name="Enmascarar grupo 95" transform="translate(-1158 -17748)" clip-path="url(#clip-path)">
    <path id="recuperacion" d="M51.851,25.531l-6.19-8.742a.812.812,0,0,0-1.326,0l-6.191,8.742a.813.813,0,0,0,.663,1.282h2.5a16.765,16.765,0,1,1-10.48-16.374.812.812,0,0,0,.879-.179l4.617-4.617a.812.812,0,0,0-.191-1.291A24.552,24.552,0,1,0,49.085,26.813h2.1a.812.812,0,0,0,.663-1.282Zm-3.565-.343a.813.813,0,0,0-.812.813A22.913,22.913,0,1,1,34.38,5.287L30.93,8.736A18.4,18.4,0,1,0,42.951,26a.813.813,0,0,0-.812-.812h-1.76L45,18.664l4.619,6.524Zm-15.3-7.667a3.259,3.259,0,0,0-2.318.969l-7.934,8.05-4.292-4.292a3.285,3.285,0,0,0-4.646,4.646l6.623,6.623a3.289,3.289,0,0,0,4.646,0c2.7-2.7,4.1-4.129,5.712-5.783,1.234-1.263,2.509-2.569,4.543-4.623a3.278,3.278,0,0,0-2.324-5.59h-.009Zm1.662,3.274a1.644,1.644,0,0,1-.482,1.172c-2.039,2.059-3.374,3.426-4.552,4.632-1.612,1.65-3,3.076-5.7,5.77a1.662,1.662,0,0,1-2.348,0l-6.623-6.623A1.66,1.66,0,1,1,17.288,23.4l4.871,4.871a.813.813,0,0,0,1.153,0l8.506-8.63a1.642,1.642,0,0,1,1.168-.488h0a1.653,1.653,0,0,1,1.653,1.649Z" transform="translate(1158 17748)" fill="#583ae2"/>
  </g>
</svg>
