<svg xmlns="http://www.w3.org/2000/svg" xmlns:xlink="http://www.w3.org/1999/xlink" width="523" height="295" viewBox="0 0 523 295">
  <defs>
    <filter id="Rectángulo_34114" x="0" y="0" width="523" height="295" filterUnits="userSpaceOnUse">
      <feOffset dy="3" input="SourceAlpha"/>
      <feGaussianBlur stdDeviation="3" result="blur"/>
      <feFlood flood-opacity="0.161"/>
      <feComposite operator="in" in2="blur"/>
      <feComposite in="SourceGraphic"/>
    </filter>
  </defs>
  <g id="Grupo_84779" data-name="Grupo 84779" transform="translate(-1746 8921)">
    <g transform="matrix(1, 0, 0, 1, 1746, -8921)" filter="url(#Rectángulo_34114)">
      <rect id="Rectángulo_34114-2" data-name="Rectángulo 34114" width="505" height="277" rx="20" transform="translate(9 6)" fill="#fff"/>
    </g>
    <g id="Grupo_82704" data-name="Grupo 82704" transform="translate(1608.612 -9056.668)">
      <path id="Trazado_120111" data-name="Trazado 120111" d="M636.044,418.384c-24.077,0-374.818.086-375.02-.542l-.034-.079a.425.425,0,0,1-.034-.116c-.134-.314-54.041-88.492,29.764-149.877,32.791-24.018-2.052-39.874,24.023-66.612,29.967-30.726,62.67,3.265,95.992-10.669A53.548,53.548,0,0,0,428.444,178a65.761,65.761,0,0,1,10.883-8.983q.9-.6,1.815-1.161a72.656,72.656,0,0,1,7.261-3.918q2.517-1.18,5.128-2.182h0a84.241,84.241,0,0,1,8.5-2.751,96.672,96.672,0,0,1,12.677-2.472q2.828-.366,5.7-.578c37.233-2.783,79.134,12.87,100.757,35.747,4.353,4.607,24.15,28.443,8.545,61.206-9.853,20.686,31.423,40.442,46.089,64.063C673.092,377.023,636.383,417.6,636.044,418.384Z" transform="translate(-46.449)" fill="#daf1f5"/>
      <g id="Grupo_82643" data-name="Grupo 82643" transform="translate(268.135 206.051)" opacity="0.8">
        <path id="Trazado_120112" data-name="Trazado 120112" d="M788.512,521.1a53.16,53.16,0,0,1-.853,9.51,52.814,52.814,0,0,1-100.235,11.865,51.9,51.9,0,0,1-2.689-7.593,53.174,53.174,0,0,1-.622-25.017c.008-.042.018-.082.026-.124a52.938,52.938,0,0,1,20.608-31.409q1.627-1.181,3.35-2.239a52.516,52.516,0,0,1,27.617-7.793q2.015,0,3.99.15a52.441,52.441,0,0,1,26.149,9.294h0a53,53,0,0,1,14.482,15.123q1.213,1.916,2.265,3.937a52.557,52.557,0,0,1,5.907,24.3Z" transform="translate(-682.915 -468.302)" fill="#d7e5ff"/>
        <g id="Grupo_82642" data-name="Grupo 82642" transform="translate(1.198 7.299)">
          <path id="Trazado_120113" data-name="Trazado 120113" d="M724.009,538c-2.107,3.337.88,9.131-5.441,7.551s-10.184-2.283-10.535,1.227,4.741,3.513,4.741,7.2-2.283,4.907-5.794,3.155-4.522-4.3-8.6-2.718-6.453.527-7.374-2.634a4.622,4.622,0,0,0-.656-1.383c.008-.042.018-.082.026-.124a52.937,52.937,0,0,1,20.608-31.409q1.627-1.181,3.35-2.239a6.945,6.945,0,0,1,5.291,2.76c3.687,4.567,6.144,2.283,5.267,7.551s.527,5.97,3.511,5.794,6.5-.176,6.847,2.107S726.116,534.662,724.009,538Z" transform="translate(-690.346 -516.133)" fill="#aec3ff"/>
          <path id="Trazado_120114" data-name="Trazado 120114" d="M774.133,785.814s-3.187,3.7-5.932,1.578-1.915-3.46-5.938-2.126-5.79-.878-7.852.8-.388,1.886-1.815,5.438-4.372,4.122-2.094,7.669,6.513,1.721,8.745,3.6,1.5,3.712,4.289,4.476,5.447-1.95,5.5,1.415-1.02,6.65,2.443,9.778,2.815,3.835,6.375,5.359,7.816.151,7.276-1.99-5.129-2.57-5.22-4.986,2.35-2.213,1.372-5.32,1.753-4.782.83-6.791-6.184-2.7-5.571-4.719,5.372-.308,5.632-4.586-2.63-5.8-2.2-9.976S774.62,783.249,774.133,785.814Z" transform="translate(-740.1 -739.565)" fill="#aec3ff"/>
          <path id="Trazado_120115" data-name="Trazado 120115" d="M1125.841,679.964a53.172,53.172,0,0,1-.853,9.51,52.509,52.509,0,0,1-8.333,20.255,6.026,6.026,0,0,1-4.222-.113c-6.584-2.634-1.712-9.745.922-13.3s-4.082-1.975-8.955-5.267.527-12.115-4.477-10.666-11.062,3.292-13.958-1.58,2.634-5.662.132-9.745,1.449-6.453,6.453-6.848,4.345-3.951,10.535-4.477,6.057,7.374,12.9,6.848,6.539,1.053,6.539,1.053a3.193,3.193,0,0,1,1.43.3A52.9,52.9,0,0,1,1125.841,679.964Z" transform="translate(-1021.443 -634.463)" fill="#aec3ff"/>
          <path id="Trazado_120116" data-name="Trazado 120116" d="M1134.639,545.921c-5.694,2.771-7.98-4.764-12.847-2.5-4.906,2.283-4.048-2.107-7.909-4.917s-11.588,2.283-11.238-2.107,6.144-3.16,7.374-6.671,6.848-2.634,6.848-2.634a3.805,3.805,0,0,1,1.022-.232s0,0,0,0a53,53,0,0,1,14.483,15.122Q1133.587,543.9,1134.639,545.921Z" transform="translate(-1036.148 -524.716)" fill="#aec3ff"/>
          <path id="Trazado_120117" data-name="Trazado 120117" d="M931.294,519.628s2.985-4.307-1.756-5.577-4.653.393-8.34,0-5.136,2.461-2.37,5.577,5,9.1,7.506,5.909S928.353,519.935,931.294,519.628Z" transform="translate(-880.775 -513.564)" fill="#aec3ff"/>
        </g>
      </g>
      <g id="Grupo_82645" data-name="Grupo 82645" transform="translate(296.656 263.422)">
        <path id="Trazado_120118" data-name="Trazado 120118" d="M1361.908,1143.806l-8.087,96.155s-.847,5.829,3.488,5.839c7.129.017,35.481,0,35.481,0s-5.365-1.214-5.3-3.944c.077-3.218,9.452-98.961,9.452-98.961Z" transform="translate(-1274.094 -1091.482)" fill="#7599ea"/>
        <path id="Trazado_120119" data-name="Trazado 120119" d="M1407.581,1235.019c-1.4,0-28.851.051-35.793-.039-3.025-.038-3.556-2.69-3.581-4.407a8.6,8.6,0,0,1,.092-1.431l.21-2.5.536-6.37.473-5.628.609-7.232.512-6.1,5.746-68.325,35.035-.909s-3.949,40.068-6.742,69.234c-.312,3.25-.609,6.366-.883,9.274q-.134,1.393-.258,2.721c-.259,2.76-.5,5.294-.7,7.531-.109,1.179-.209,2.275-.3,3.279-.356,3.933-.565,6.445-.568,6.923a4.028,4.028,0,0,0,.068.778C1402.612,1234.88,1407.055,1235.019,1407.581,1235.019Z" transform="translate(-1286.215 -1082.407)" fill="#90aff4"/>
        <path id="Trazado_120120" data-name="Trazado 120120" d="M876.7,824.069l19.7,79.124,2.7,10.836,9.174,36.854H1078.72L1044.9,824.069Z" transform="translate(-873.973 -824.069)" fill="#aec3ff"/>
        <path id="Trazado_120121" data-name="Trazado 120121" d="M862.5,824.068l-2.73.91,30.671,128.657,3.63-2.752Z" transform="translate(-859.772 -824.068)" fill="#90aff4"/>
        <path id="Trazado_120122" data-name="Trazado 120122" d="M1049.966,1613.214h169.4l4.678-2.752H1053.6Z" transform="translate(-1019.295 -1483.648)" fill="#7599ea"/>
        <rect id="Rectángulo_34288" data-name="Rectángulo 34288" width="36.677" height="1.743" transform="translate(126.835 154.355) rotate(180)" fill="#aec3ff"/>
        <path id="Trazado_120123" data-name="Trazado 120123" d="M1408.092,1627.525l-.189,1.332-34.493,6.969.473-5.628.226-2.673Z" transform="translate(-1290.58 -1497.959)" fill="#5888dd"/>
        <path id="Trazado_120124" data-name="Trazado 120124" d="M1407.586,1713.725c-1.4,0-28.851.051-35.793-.039-3.025-.038-3.556-2.69-3.581-4.406l34.33-6.459c-.356,3.933-.565,6.445-.568,6.923a4.025,4.025,0,0,0,.068.778C1402.617,1713.586,1407.06,1713.725,1407.586,1713.725Z" transform="translate(-1286.221 -1561.113)" fill="#5888dd" opacity="0.4"/>
        <path id="Trazado_120125" data-name="Trazado 120125" d="M876.7,824.068h168.2l27.291,101.918H902.074Z" transform="translate(-873.971 -824.068)" fill="#c2d5ff"/>
        <path id="Trazado_120126" data-name="Trazado 120126" d="M1100.5,949.966H943.008l-5.628-22.419-2.177-8.675-.888-3.537L928.531,892.3l-.3-1.2-3.057-12.178-1.368-5.449-1.167-4.648-2.735-10.9h155.218l3,10.9,1.281,4.648,1.5,5.449,9.9,35.9h0l.839,3.041.39,1.412,6.833,24.784Z" transform="translate(-910.207 -852.464)" fill="#739af0"/>
        <path id="Trazado_120127" data-name="Trazado 120127" d="M1078.13,868.819H922.643l-2.735-10.9h155.218Z" transform="translate(-910.211 -852.463)" fill="#40327b"/>
        <g id="Grupo_82644" data-name="Grupo 82644" transform="translate(16.077 9.022)">
          <path id="Trazado_120128" data-name="Trazado 120128" d="M959.508,881.376a1.029,1.029,0,0,1,1.023-1.362,1.861,1.861,0,0,1,1.7,1.362,1.029,1.029,0,0,1-1.023,1.362A1.861,1.861,0,0,1,959.508,881.376Z" transform="translate(-959.466 -880.014)" fill="#e9f3fe"/>
          <path id="Trazado_120129" data-name="Trazado 120129" d="M987.576,881.376a1.029,1.029,0,0,1,1.023-1.362,1.861,1.861,0,0,1,1.7,1.362,1.029,1.029,0,0,1-1.023,1.362A1.861,1.861,0,0,1,987.576,881.376Z" transform="translate(-983.008 -880.014)" fill="#e9f3fe"/>
          <path id="Trazado_120130" data-name="Trazado 120130" d="M1017.8,881.376a1.029,1.029,0,0,1,1.022-1.362,1.861,1.861,0,0,1,1.7,1.362,1.029,1.029,0,0,1-1.023,1.362A1.861,1.861,0,0,1,1017.8,881.376Z" transform="translate(-1008.358 -880.014)" fill="#e9f3fe"/>
        </g>
        <path id="Trazado_120131" data-name="Trazado 120131" d="M1097.944,1456.079l-57.649,25.193-6.255-25.193Z" transform="translate(-1005.938 -1354.161)" fill="#90aff4" opacity="0.5"/>
      </g>
      <g id="Grupo_82651" data-name="Grupo 82651" transform="translate(333.963 226.174)">
        <g id="Grupo_82646" data-name="Grupo 82646">
          <path id="Trazado_120132" data-name="Trazado 120132" d="M1095.692,603.932a6.654,6.654,0,0,0-4.571,6.091V668.8a37.05,37.05,0,0,0,15.277,30.143l34.528,22.128a7.3,7.3,0,0,0,7.719,0l34.528-22.128a37.05,37.05,0,0,0,15.277-30.143V610.179a6.706,6.706,0,0,0-4.8-6.173c-41.944-14.359-58.758-14.743-97.961-.075Z" transform="translate(-1091.121 -593.083)" fill="#826be9"/>
          <path id="Trazado_120133" data-name="Trazado 120133" d="M1472.773,604.13c-20.417-6.99-34.879-10.658-48.867-10.9V722.3a7.189,7.189,0,0,0,3.86-1.1l34.528-22.128a37.05,37.05,0,0,0,15.277-30.143V610.3a6.706,6.706,0,0,0-4.8-6.172Z" transform="translate(-1370.241 -593.206)" fill="#583ae2"/>
        </g>
        <g id="Grupo_82649" data-name="Grupo 82649" transform="translate(27.087 24.18)">
          <g id="Grupo_82647" data-name="Grupo 82647" transform="translate(9.468)">
            <path id="Trazado_120134" data-name="Trazado 120134" d="M1338.429,844.515h-7.853a12.787,12.787,0,0,1-12.773-12.773v-1.527a12.788,12.788,0,0,1,12.773-12.774h7.853a12.788,12.788,0,0,1,12.774,12.774v1.527A12.788,12.788,0,0,1,1338.429,844.515Zm-7.853-21.967a7.674,7.674,0,0,0-7.665,7.667v1.527a7.674,7.674,0,0,0,7.665,7.665h7.853a7.674,7.674,0,0,0,7.667-7.665v-1.527a7.675,7.675,0,0,0-7.667-7.667Z" transform="translate(-1317.803 -817.441)" fill="#2ff980"/>
          </g>
          <path id="Rectángulo_34289" data-name="Rectángulo 34289" d="M6.13,0H45.3a7.853,7.853,0,0,1,7.853,7.853V20.465A25.748,25.748,0,0,1,27.408,46.213h0A27.408,27.408,0,0,1,0,18.8V6.13A6.13,6.13,0,0,1,6.13,0Z" transform="translate(0 16.539)" fill="#2ff980"/>
          <g id="Grupo_82648" data-name="Grupo 82648" transform="translate(17.744 21.571)">
            <circle id="Elipse_5315" data-name="Elipse 5315" cx="6.931" cy="6.931" r="6.931" transform="translate(0 4.588) rotate(-19.33)" fill="#40327b"/>
            <path id="Trazado_120135" data-name="Trazado 120135" d="M1416.1,1026.051h0a1.506,1.506,0,0,1,1.5,1.5V1039.1a1.506,1.506,0,0,1-1.5,1.5h0a1.506,1.506,0,0,1-1.5-1.5v-11.552A1.506,1.506,0,0,1,1416.1,1026.051Z" transform="translate(-1407.261 -1013.982)" fill="#40327b"/>
          </g>
        </g>
      </g>
      <g id="Grupo_82654" data-name="Grupo 82654" transform="translate(442.816 178.407)">
        <g id="Grupo_82652" data-name="Grupo 82652" transform="translate(22.366 20.367)">
          <path id="Trazado_120140" data-name="Trazado 120140" d="M1906.084,426.144a1.821,1.821,0,0,0-1.251,1.667V443.9a10.141,10.141,0,0,0,4.181,8.25l9.45,6.056a2,2,0,0,0,2.113,0l9.45-6.056a10.141,10.141,0,0,0,4.182-8.25V427.854a1.836,1.836,0,0,0-1.313-1.69c-11.48-3.93-16.082-4.035-26.812-.02Z" transform="translate(-1904.833 -423.175)" fill="#6ac9d6"/>
          <path id="Trazado_120141" data-name="Trazado 120141" d="M2009.29,426.2c-5.588-1.913-9.546-2.917-13.375-2.983v35.326a1.967,1.967,0,0,0,1.056-.3l9.45-6.056a10.141,10.141,0,0,0,4.182-8.25V427.888a1.836,1.836,0,0,0-1.313-1.689Z" transform="translate(-1981.227 -423.209)" fill="#45bbcc" opacity="0.4"/>
        </g>
        <g id="Grupo_82653" data-name="Grupo 82653" transform="translate(0 0)">
          <path id="Trazado_120142" data-name="Trazado 120142" d="M1969.691,300.208l3.71.488-2.644,2.648.683,3.68-3.336-1.7-3.288,1.786.582-3.7-2.715-2.575,3.7-.589,1.61-3.378Z" transform="translate(-1930.988 -296.875)" fill="#2ff980"/>
          <path id="Trazado_120143" data-name="Trazado 120143" d="M1969.691,696.687l3.71.488-2.644,2.648.683,3.68-3.336-1.7-3.288,1.786.582-3.7-2.715-2.575,3.7-.589,1.61-3.378Z" transform="translate(-1930.988 -629.418)" fill="#2ff980"/>
          <path id="Trazado_120144" data-name="Trazado 120144" d="M1800.255,397.568l3.71.488-2.644,2.648.683,3.679-3.336-1.7-3.288,1.786.582-3.7-2.715-2.575,3.7-.588,1.61-3.378Z" transform="translate(-1788.875 -378.535)" fill="#2ff980"/>
          <path id="Trazado_120145" data-name="Trazado 120145" d="M2141.475,397.568l3.71.488-2.644,2.648.683,3.679-3.336-1.7-3.288,1.786.583-3.7-2.715-2.575,3.7-.588,1.61-3.378Z" transform="translate(-2075.07 -378.535)" fill="#2ff980"/>
          <path id="Trazado_120146" data-name="Trazado 120146" d="M1800.255,600.5l3.71.488-2.644,2.648.683,3.679-3.336-1.7-3.288,1.786.582-3.7-2.715-2.576,3.7-.588,1.61-3.378Z" transform="translate(-1788.875 -548.742)" fill="#2ff980"/>
          <path id="Trazado_120147" data-name="Trazado 120147" d="M2141.475,600.5l3.71.488-2.644,2.648.683,3.679-3.336-1.7-3.288,1.786.583-3.7-2.715-2.576,3.7-.588,1.61-3.378Z" transform="translate(-2075.07 -548.742)" fill="#2ff980"/>
          <path id="Trazado_120148" data-name="Trazado 120148" d="M1873.709,326.405l3.71.488-2.644,2.648.683,3.679-3.336-1.7-3.289,1.786.583-3.7-2.715-2.575,3.7-.588,1.611-3.378Z" transform="translate(-1850.484 -318.848)" fill="#2ff980"/>
          <path id="Trazado_120149" data-name="Trazado 120149" d="M2070.678,326.405l3.71.488-2.644,2.648.683,3.679-3.336-1.7-3.289,1.786.583-3.7-2.715-2.575,3.7-.588,1.61-3.378Z" transform="translate(-2015.69 -318.848)" fill="#2ff980"/>
          <path id="Trazado_120150" data-name="Trazado 120150" d="M1873.709,671.207l3.71.488-2.644,2.648.683,3.68-3.336-1.7-3.289,1.786.583-3.7-2.715-2.576,3.7-.588,1.611-3.378Z" transform="translate(-1850.484 -608.046)" fill="#2ff980"/>
          <path id="Trazado_120151" data-name="Trazado 120151" d="M2070.678,671.207l3.71.488-2.644,2.648.683,3.68-3.336-1.7-3.289,1.786.583-3.7-2.715-2.576,3.7-.588,1.61-3.378Z" transform="translate(-2015.69 -608.046)" fill="#2ff980"/>
          <path id="Trazado_120152" data-name="Trazado 120152" d="M1773.145,504.313l3.71.488-2.644,2.648.683,3.679-3.336-1.7-3.288,1.786.583-3.7-2.715-2.575,3.7-.588,1.61-3.378Z" transform="translate(-1766.138 -468.065)" fill="#2ff980"/>
          <path id="Trazado_120153" data-name="Trazado 120153" d="M2174.708,504.313l3.71.488-2.644,2.648.683,3.679-3.336-1.7-3.289,1.786.583-3.7-2.715-2.575,3.7-.588,1.611-3.378Z" transform="translate(-2102.944 -468.065)" fill="#2ff980"/>
        </g>
      </g>
      <g id="Grupo_82668" data-name="Grupo 82668" transform="translate(223.692 287.495)">
        <g id="Grupo_82662" data-name="Grupo 82662" transform="translate(13.584 16.434)">
          <g id="Grupo_82661" data-name="Grupo 82661">
            <g id="Grupo_82657" data-name="Grupo 82657" transform="translate(6.865)">
              <g id="Grupo_82655" data-name="Grupo 82655" transform="translate(3.456)">
                <path id="Trazado_120154" data-name="Trazado 120154" d="M570.412,1075.358a.351.351,0,1,1-.5,0A.351.351,0,0,1,570.412,1075.358Z" transform="translate(-567.515 -1075.257)" fill="#d5e5fb"/>
                <path id="Trazado_120155" data-name="Trazado 120155" d="M563.33,1082.506a.351.351,0,1,1-.5,0A.351.351,0,0,1,563.33,1082.506Z" transform="translate(-561.575 -1081.252)" fill="#d5e5fb"/>
                <path id="Trazado_120156" data-name="Trazado 120156" d="M555.66,1089.751a.351.351,0,1,1,0,.5A.351.351,0,0,1,555.66,1089.751Z" transform="translate(-555.558 -1087.327)" fill="#d5e5fb"/>
              </g>
              <g id="Grupo_82656" data-name="Grupo 82656" transform="translate(0 3.488)">
                <path id="Trazado_120157" data-name="Trazado 120157" d="M548.981,1096.991a.351.351,0,1,1-.5,0A.35.35,0,0,1,548.981,1096.991Z" transform="translate(-546.084 -1096.889)" fill="#d5e5fb"/>
                <path id="Trazado_120158" data-name="Trazado 120158" d="M541.9,1104.138a.351.351,0,1,1-.5,0A.351.351,0,0,1,541.9,1104.138Z" transform="translate(-540.145 -1102.884)" fill="#d5e5fb"/>
                <path id="Trazado_120159" data-name="Trazado 120159" d="M534.229,1111.383a.351.351,0,1,1,0,.5A.351.351,0,0,1,534.229,1111.383Z" transform="translate(-534.127 -1108.958)" fill="#d5e5fb"/>
              </g>
            </g>
            <g id="Grupo_82660" data-name="Grupo 82660" transform="translate(0 6.93)">
              <g id="Grupo_82658" data-name="Grupo 82658" transform="translate(3.456)">
                <path id="Trazado_120160" data-name="Trazado 120160" d="M527.838,1118.333a.351.351,0,1,1-.5,0A.35.35,0,0,1,527.838,1118.333Z" transform="translate(-524.941 -1118.231)" fill="#d5e5fb"/>
                <path id="Trazado_120161" data-name="Trazado 120161" d="M520.756,1125.48a.351.351,0,1,1-.5,0A.351.351,0,0,1,520.756,1125.48Z" transform="translate(-519.002 -1124.226)" fill="#d5e5fb"/>
                <path id="Trazado_120162" data-name="Trazado 120162" d="M513.086,1132.724a.351.351,0,1,1,0,.5A.35.35,0,0,1,513.086,1132.724Z" transform="translate(-512.984 -1130.3)" fill="#d5e5fb"/>
              </g>
              <g id="Grupo_82659" data-name="Grupo 82659" transform="translate(0 3.488)">
                <path id="Trazado_120163" data-name="Trazado 120163" d="M506.407,1139.964a.351.351,0,1,1-.5,0A.35.35,0,0,1,506.407,1139.964Z" transform="translate(-503.511 -1139.862)" fill="#d5e5fb"/>
                <path id="Trazado_120164" data-name="Trazado 120164" d="M499.326,1147.112a.351.351,0,1,1-.5,0A.351.351,0,0,1,499.326,1147.112Z" transform="translate(-497.571 -1145.858)" fill="#d5e5fb"/>
                <path id="Trazado_120165" data-name="Trazado 120165" d="M491.655,1154.356a.351.351,0,1,1,0,.5A.35.35,0,0,1,491.655,1154.356Z" transform="translate(-491.554 -1151.932)" fill="#d5e5fb"/>
              </g>
            </g>
          </g>
        </g>
        <g id="Grupo_82665" data-name="Grupo 82665" transform="translate(26.253 0)">
          <g id="Grupo_82663" data-name="Grupo 82663" transform="translate(0)">
            <circle id="Elipse_5316" data-name="Elipse 5316" cx="7.646" cy="7.646" r="7.646" transform="translate(0 15.089) rotate(-80.643)" fill="#c6dcf7"/>
          </g>
          <g id="Grupo_82664" data-name="Grupo 82664" transform="translate(4.493 3.266)">
            <path id="Trazado_120166" data-name="Trazado 120166" d="M609.392,996.051a2.454,2.454,0,1,1,2.454,2.454A2.454,2.454,0,0,1,609.392,996.051Z" transform="translate(-607.551 -993.597)" fill="#ebf3fa"/>
            <path id="Trazado_120167" data-name="Trazado 120167" d="M602.272,1024.035a4.3,4.3,0,0,0-4.295,4.295h8.59A4.3,4.3,0,0,0,602.272,1024.035Z" transform="translate(-597.977 -1019.127)" fill="#ebf3fa"/>
          </g>
        </g>
        <g id="Grupo_82667" data-name="Grupo 82667" transform="translate(0 30.439)">
          <path id="Trazado_120168" data-name="Trazado 120168" d="M414.673,1164.05l-.284-.7a1.99,1.99,0,0,0-1.845-1.245h-5.227v17.478h21.624V1165.42H416.7A2.19,2.19,0,0,1,414.673,1164.05Z" transform="translate(-407.317 -1162.103)" fill="#c6dcf7"/>
          <g id="Grupo_82666" data-name="Grupo 82666" transform="translate(6.423 5.305)">
            <path id="Trazado_120169" data-name="Trazado 120169" d="M454.773,1197.673h-.723a2.056,2.056,0,0,0,.033-.362v-.247a2.068,2.068,0,0,0-2.066-2.066h-1.27a2.068,2.068,0,0,0-2.066,2.066v.247a2.059,2.059,0,0,0,.032.362h-.8a.76.76,0,0,0-.76.76v3.315a3.4,3.4,0,0,0,3.4,3.4h2.006a3.192,3.192,0,0,0,3.192-3.193v-3.307A.974.974,0,0,0,454.773,1197.673Zm-3.082,3.337v1.54a.243.243,0,0,1-.486,0v-1.54a1.121,1.121,0,1,1,.486,0Zm1.565-3.7a1.23,1.23,0,0,1-.054.362h-3.641a1.23,1.23,0,0,1-.054-.362v-.247a1.241,1.241,0,0,1,1.24-1.24h1.27a1.241,1.241,0,0,1,1.24,1.24Z" transform="translate(-447.15 -1194.998)" fill="#ebf3fa"/>
          </g>
        </g>
      </g>
      <g id="Grupo_82671" data-name="Grupo 82671" transform="translate(235.393 314.071)">
        <g id="Grupo_82669" data-name="Grupo 82669">
          <path id="Trazado_120170" data-name="Trazado 120170" d="M762.968,1142.6s.408-4.45-4.564-4.45a5.841,5.841,0,0,1,2.286,1.226,5.879,5.879,0,0,0-6.622,1c-3.451,2.861-1.307,10.035-2.356,11.4s-5.136,1.635-4.637,6.039,12.97,9.921,12.169,13.565c0,0,4.887-7.184,1.393-10.462a6.476,6.476,0,0,1,1.877,3.511s.462-3.723-1.907-4.914c-2.1-1.054-3.814-4.908-3.633-5.6S762.968,1142.6,762.968,1142.6Z" transform="translate(-703.952 -1138.15)" fill="#2c3a64"/>
          <path id="Trazado_120171" data-name="Trazado 120171" d="M788.1,1298.232s3.714,15.367,7.361,18.438c2.192,1.847,8.708,6.084,8.708,6.084l-2.71.984s-9.038-3.052-11.062-5.432-7.564-14.3-7.564-14.3Z" transform="translate(-733.974 -1272.417)" fill="#ffb27d"/>
          <path id="Trazado_120172" data-name="Trazado 120172" d="M830.625,1453.935l-.873-2.162a6.131,6.131,0,0,0-5.685-3.835h-16.1v53.838h66.61v-43.621H836.881A6.747,6.747,0,0,1,830.625,1453.935Z" transform="translate(-755.057 -1397.981)" fill="#583ae2"/>
          <path id="Trazado_120173" data-name="Trazado 120173" d="M586.972,1390.09c.033.059.067.12.1.18.813,1.413,2.677,4.875,4.731,8.663.971,1.8,1.988,3.668,2.953,5.429,1.663,3.038,3.175,5.744,4.057,7.174.9,1.454,1.558,2.475,1.826,2.884l0,0a.677.677,0,0,1,.087.422,22.028,22.028,0,0,0,.059,3.81,29.225,29.225,0,0,0,9.549,18.929l2.471.365s-3.5-12.955-4.527-20.278a14.085,14.085,0,0,1-.189-2.9,30.327,30.327,0,0,0-.8-7.926,177.557,177.557,0,0,0-5.053-18.346c-.115-.359-3.59-12.928-3.59-12.928-2.916,2.549-13.554,3.6-13.554,3.6S583.3,1383.551,586.972,1390.09Z" transform="translate(-567.759 -1337.278)" fill="#2f539b"/>
          <path id="Trazado_120174" data-name="Trazado 120174" d="M737.466,1751.949H727.153a5.663,5.663,0,0,1,.292-2.764c.516-1.144,1.252-1.181.094-2.974.655.675,2.762.954,4.253.753a12.626,12.626,0,0,0,1.788,2.722C734.253,1750.17,737.258,1750,737.466,1751.949Z" transform="translate(-687.229 -1648.155)" fill="#233862"/>
          <path id="Trazado_120175" data-name="Trazado 120175" d="M599.017,1434.013c.033.059.067.12.1.18.813,1.413,5.209,9.532,7.262,13.32a54.923,54.923,0,0,1-.725-19.581Z" transform="translate(-579.804 -1381.202)" fill="#233862"/>
          <path id="Trazado_120176" data-name="Trazado 120176" d="M795.3,1161.489c.067-.271-5.89,2.693-6.192,3.028-2.794,3.1-2,7.144-.4,7.182,1.025.025.827,1.729.827,1.729l11.423-4.832S799.579,1160.576,795.3,1161.489Z" transform="translate(-737.685 -1157.664)" fill="#2c3a64"/>
          <path id="Trazado_120177" data-name="Trazado 120177" d="M782.058,1283.923s1.738,3.472,1.521,6.29c0,0-2.1,3.309-7.532,4.146C776.047,1294.36,780.721,1283.92,782.058,1283.923Z" transform="translate(-728.286 -1260.416)" fill="#40327b"/>
          <path id="Trazado_120178" data-name="Trazado 120178" d="M514.237,1368.738l.035-1.929c-3.843.485-13.251-4.592-13.251-4.592s-4.02,2.674-4.571,10.311c-.269,3.727-1.968,19.49-2.156,24.2-.069,1.706-.091,2.924-.1,3.41a.012.012,0,0,1,0,0,.671.671,0,0,1-.164.4,22.03,22.03,0,0,0-2.082,3.192c-5.864,10.91-2.8,25.735-2.8,25.735l1.362-.346s4.958-15.369,8.2-22.016a13.909,13.909,0,0,1,1.468-2.512,30.327,30.327,0,0,0,3.77-7.018C506.345,1391.853,514.237,1368.738,514.237,1368.738Z" transform="translate(-486.984 -1326.084)" fill="#2f539b"/>
          <path id="Trazado_120179" data-name="Trazado 120179" d="M490.243,1751.562H479.931a5.662,5.662,0,0,1,.292-2.764c.516-1.144,1.325-1.664,1.131-3.049a3.713,3.713,0,0,0,3.214,1.23,11.309,11.309,0,0,0,1.789,2.32C487.031,1749.783,490.036,1749.61,490.243,1751.562Z" transform="translate(-479.874 -1647.767)" fill="#233862"/>
          <path id="Trazado_120180" data-name="Trazado 120180" d="M597.816,1266.174c-1.385.236.226,1.338-1.679,1.544-2.712.3-5.511.5-6.978,1.083a1.575,1.575,0,0,0-1,.814c-.636,1.912-4.662,5.2-4.662,5.2-17.958-.817-19.114-8.821-19.114-8.821,11.655-11.319,21.57-17.489,29.764-18.253a14.579,14.579,0,0,1,5.944.625c2.866,1.276,4.437,5.159,4.437,5.159S603.079,1265.277,597.816,1266.174Z" transform="translate(-550.751 -1230.016)" fill="#40327b"/>
          <path id="Trazado_120181" data-name="Trazado 120181" d="M724.72,1295.968c-2.712.3-5.511.5-6.978,1.083a28.6,28.6,0,0,1,3.627-15.693S724.126,1292.579,724.72,1295.968Z" transform="translate(-679.335 -1258.265)" fill="#291c5e"/>
          <path id="Trazado_120182" data-name="Trazado 120182" d="M732.736,1271.915s-6.819-.373-8.031,3.909,2.273,21.371,3.024,23.135c1.367,3.211,8.262,12.775,8.262,12.775l2.21-1.145s-4.439-14-5.429-15.386C731.217,1293.028,734.778,1273.778,732.736,1271.915Z" transform="translate(-685.011 -1250.338)" fill="#ffb27d"/>
          <path id="Trazado_120183" data-name="Trazado 120183" d="M796.677,1510.231a10.056,10.056,0,0,1,1.029,1.056c.459.561.055.763,1.372,3.3,0,0-.067.352-.353.288s-1.28-1.049-1.79-.978c0,0-.364.3-.4,1.295a24.006,24.006,0,0,1-.2,3.375c-.162.387-1.346-1.621-1.928-3.072-.511-1.272-.013-5.563-.013-5.563Z" transform="translate(-743.487 -1449.979)" fill="#ffb27d"/>
          <path id="Trazado_120184" data-name="Trazado 120184" d="M717.684,1274.972c.018.1,6.453,1.184,10.478-.859,0,0,3.363-10.534-1.443-10.031s-7.651,2.018-7.772,4.318A44.275,44.275,0,0,1,717.684,1274.972Z" transform="translate(-679.335 -1243.76)" fill="#40327b"/>
          <path id="Trazado_120185" data-name="Trazado 120185" d="M784.817,1235.125a4.286,4.286,0,0,0,1.294,3c.855.88,2.09,1.567,2.958.7a9.435,9.435,0,0,0,1.342-1.621c.75-1.289,1.643-2.606,1.643-2.606l-3.86-3.381-.23-.2a9.835,9.835,0,0,1-2.875,3.263A.9.9,0,0,0,784.817,1235.125Z" transform="translate(-735.636 -1216.039)" fill="#ffb27d"/>
          <path id="Trazado_120186" data-name="Trazado 120186" d="M809.291,1235.65s-.892,1.314-1.642,2.6c-2.4-1.479-2.4-4.449-2.217-5.987Z" transform="translate(-752.872 -1217.09)" fill="#ed985f"/>
          <path id="Trazado_120187" data-name="Trazado 120187" d="M808.566,1201.471s-5.825-3.241-3.751-6.838,2.719-6.437,6.526-4.52,3.732,3.7,3.331,5.072S810.135,1202.222,808.566,1201.471Z" transform="translate(-752.041 -1181.217)" fill="#ffb27d"/>
          <path id="Trazado_120188" data-name="Trazado 120188" d="M812.472,1190.555c-.267-1.6-1.078-1.749-1.643-1.643a4.659,4.659,0,0,0-5.666-2.169,7.931,7.931,0,0,1-4.591,2.757s.676,1.258,3.461,2.036a4.759,4.759,0,0,0,2.747-.219,15.554,15.554,0,0,1-3.953,1.49c3.67.336,7.162-3.019,7.524-3.378a5.223,5.223,0,0,1,.289,2.4c-.242,1.082-1.2,3.041-.616,3.294C810.025,1195.128,812.872,1192.95,812.472,1190.555Z" transform="translate(-748.856 -1178.683)" fill="#2c3a64"/>
          <path id="Trazado_120189" data-name="Trazado 120189" d="M917.287,1449.768s-1.626,1.219-.4,2.016,3.412,1.012,3.421.489C920.338,1450.518,919.463,1449.27,917.287,1449.768Z" transform="translate(-846.031 -1399.424)" fill="#ffb27d"/>
        </g>
        <g id="Grupo_82670" data-name="Grupo 82670" transform="translate(73.662 66.698)">
          <path id="Trazado_120190" data-name="Trazado 120190" d="M958.806,1559.521h-2.1a6.02,6.02,0,0,0,.094-1.05v-.718a6.007,6.007,0,0,0-6-6h-3.689a6.006,6.006,0,0,0-6,6v.718a6,6,0,0,0,.093,1.05h-2.333a2.208,2.208,0,0,0-2.207,2.209v9.63a9.869,9.869,0,0,0,9.869,9.87h5.827a9.272,9.272,0,0,0,9.273-9.273v-9.607A2.828,2.828,0,0,0,958.806,1559.521Zm-8.951,9.692v4.474a.706.706,0,0,1-1.412,0v-4.474a3.256,3.256,0,1,1,1.412,0Zm4.547-10.742a3.576,3.576,0,0,1-.157,1.05H943.667a3.577,3.577,0,0,1-.158-1.05v-.718a3.605,3.605,0,0,1,3.6-3.6H950.8a3.605,3.605,0,0,1,3.6,3.6Z" transform="translate(-936.664 -1551.753)" fill="#2ff980"/>
        </g>
      </g>
      <g id="Grupo_82678" data-name="Grupo 82678" transform="translate(489.031 328.723)">
        <g id="Grupo_82672" data-name="Grupo 82672" transform="translate(0 21.014)">
          <path id="Trazado_120191" data-name="Trazado 120191" d="M2141.369,1427.542h-80.853c-11.273-12.955-10.805-28.725,4.575-43.047a29.1,29.1,0,0,1,11.473-6.266,103.559,103.559,0,0,1,15.37-2.139c.023-.009,9.042-1.265,11.614-4.394,7.991-9.718,10.044-11.109,10.044-11.109,8.145-1.592,15.093-2.06,20.243.821,0,0,0,0,0,0,4.772,2.672,8,8.22,9.211,18.415q.344,2.892.468,6.295c.295,8.274,1.919,15.634,2.883,21.867,0,0,0,0,0,0C2147.8,1417.016,2148.784,1423.881,2141.369,1427.542Z" transform="translate(-2052.719 -1359.316)" fill="#583ae2"/>
        </g>
        <path id="Trazado_120192" data-name="Trazado 120192" d="M2249.567,1371.745c-4.942,2.692-5.489,11.561-13.224,13.851s-20.866,2.082-28.314,10.161c-7.186,7.795-15.111-12.036-11.7-17.614a103.989,103.989,0,0,1,15.37-2.13c.023-.009,11.032-.053,13.6-3.168,7.991-9.674,8.055-12.264,8.055-12.264,8.145-1.585,15.093-2.05,20.243.817,0,0,0,0,0,0C2259.279,1367.263,2254.51,1369.053,2249.567,1371.745Z" transform="translate(-2172.487 -1338.303)" fill="#40327b"/>
        <path id="Trazado_120193" data-name="Trazado 120193" d="M2416.4,1513.943c-11.343-14.159-34.645,5.143-40.675,4.6-5.544-.5,10.811-19.853,31.093-22.733,8.2-1.164,6.235-9.637,6.231-9.9.229,1.919.386,4,.468,6.266C2413.808,1500.413,2415.432,1507.739,2416.4,1513.943Z" transform="translate(-2322.717 -1444.482)" fill="#40327b"/>
        <g id="Grupo_82677" data-name="Grupo 82677" transform="translate(11.706)">
          <g id="Grupo_82676" data-name="Grupo 82676">
            <path id="Trazado_120194" data-name="Trazado 120194" d="M2208.3,1671.416c-.793,1.529-.972,4.342-1.207,5.3s-4.393,4.2-4.75,4.034c-.909-.41-.04-1.994.515-3.152.023-.047.044-.093.065-.139.548-1.167.077-3.772.36-5.117s-1.08-4.966-1.08-4.966l2.3-2.9s1.614,3.071,2.768,3.629a2.828,2.828,0,0,1,.563.359A2.245,2.245,0,0,1,2208.3,1671.416Z" transform="translate(-2189.587 -1594.248)" fill="#ffb27d"/>
            <path id="Trazado_120195" data-name="Trazado 120195" d="M2369.235,1229.031a9.716,9.716,0,0,0-5.884,2.718,12.541,12.541,0,0,0-2.835,3.888c-1.515,3.458-.993,7.48-1.859,9.687s-1.386,2.591,0,3.591,1.618,1.951-.038,3.01-2.878,4.36,1.742,4.647,13.575-1.39,14.726-2.244,4.3-2.124,5.8-4.41c3.013-4.569.613-7.638-1.715-8.412C2375.629,1240.327,2376.932,1228.386,2369.235,1229.031Z" transform="translate(-2319.748 -1229.005)" fill="#163560"/>
            <path id="Trazado_120196" data-name="Trazado 120196" d="M2339.536,1347.847s-4.58,10.341-5.534,11.24-5.423,2.657-5.021,4.163,3.766,2.962,5.172,2.611,4.97-6.427,4.97-6.427Z" transform="translate(-2296.115 -1328.683)" fill="#739af0"/>
            <path id="Trazado_120197" data-name="Trazado 120197" d="M2331.425,1400.134s.248-1.778,4.588-2.352c2.409-.318,6.439-7.037,6.439-7.037l-4.03,10.594-3.905,1.689Z" transform="translate(-2298.187 -1364.663)" fill="#5a7de0"/>
            <path id="Trazado_120198" data-name="Trazado 120198" d="M2204.838,1467.887s-22.607-1.583-25.7,2.006c-2.458,2.847,2.018,33.947,2.018,33.947s6.152.179,6.637-1.45c0,0-1.148-15.1-.187-17.71a14.521,14.521,0,0,0,.354-6.225s12.036,1.8,15.855.888S2204.838,1467.887,2204.838,1467.887Z" transform="translate(-2169.836 -1429.073)" fill="#233862"/>
            <path id="Trazado_120199" data-name="Trazado 120199" d="M2135.948,1722.739c-1.591.656-3.542,2.69-4.338,3.267s-6.063.371-6.232.018c-.447-.935,1.4-1.6,2.566-2.14l.052-.024,0,0c1.158-.583,2.453-2.818,3.522-3.651,1.084-.845,2.378-4.491,2.378-4.491l3.626-.735s-.746,3.388-.225,4.559a2.9,2.9,0,0,1,.125.335A2.249,2.249,0,0,1,2135.948,1722.739Z" transform="translate(-2125.309 -1636.612)" fill="#ffb27d"/>
            <path id="Trazado_120200" data-name="Trazado 120200" d="M2208.826,1476.544s-24.666,2.506-26.833,5.024-10.69,35.255-10.69,35.255a5.3,5.3,0,0,0,4.8.092s6.526-11.105,9.414-14.592,3.914-12.593,5.453-13.572c.413-.263,14.925,1.37,20.248-2.716S2208.826,1476.544,2208.826,1476.544Z" transform="translate(-2163.886 -1436.626)" fill="#2a4e96"/>
            <path id="Trazado_120201" data-name="Trazado 120201" d="M2353.88,1353.97a28.449,28.449,0,0,1-2.059,3.383c-1.847,2.574-3.984,4.425-6.3,4.906-3.365.7-14.646-5.849-14.074-9.461.31-1.966,6.579-5.5,7.59-6.926s1.618-8.576,2.158-11.494c.4-2.172,1.748-2.4,3.431-2.975,7.149-2.449,12.239.142,12.239.142C2360.135,1333.385,2358.316,1345.485,2353.88,1353.97Z" transform="translate(-2298.187 -1314.007)" fill="#739af0"/>
            <path id="Trazado_120202" data-name="Trazado 120202" d="M2423.944,1244.05a31.167,31.167,0,0,0,.538-3.624c.11-1.337-1.921-5.694-5.073-5.514a6.683,6.683,0,0,0-2.661,1.3c-1,.818-2.384,2.513-.268,6.6l.581,1.395Z" transform="translate(-2368.596 -1233.955)" fill="#163560"/>
            <g id="Grupo_82673" data-name="Grupo 82673" transform="translate(44.077 2.832)">
              <path id="Trazado_120203" data-name="Trazado 120203" d="M2427.612,1302.691c.1.746.768,1.173,2.248,1.078,1.5-.1,3.627-1.005,3.451-1.7a20.533,20.533,0,0,1-1.094-5.646l-.273.076-4.582,1.287s.221,1.456.333,2.836A18.017,18.017,0,0,1,2427.612,1302.691Z" transform="translate(-2422.73 -1288.385)" fill="#ffb27d"/>
              <path id="Trazado_120204" data-name="Trazado 120204" d="M2427.362,1298.185s.221,1.456.333,2.836c2.6-.278,3.789-2.762,4.249-4.123Z" transform="translate(-2422.73 -1288.782)" fill="#f4a269"/>
              <path id="Trazado_120205" data-name="Trazado 120205" d="M2406.126,1260.894s6-1.508,5-5.227-.894-6.418-4.763-5.613-4.23,2.423-4.2,3.745S2404.541,1261.19,2406.126,1260.894Z" transform="translate(-2401.592 -1249.372)" fill="#ffb27d"/>
              <path id="Trazado_120206" data-name="Trazado 120206" d="M2411.2,1247.89s2.012,3.836,5.81,4.249a3.321,3.321,0,0,1,2.832,1.706,34.884,34.884,0,0,0-1.783-6.747S2411.878,1245.483,2411.2,1247.89Z" transform="translate(-2409.178 -1246.568)" fill="#163560"/>
              <path id="Trazado_120207" data-name="Trazado 120207" d="M2401.352,1254.656a10.447,10.447,0,0,0-1.718,2.284c-.6,1.4.57,4.346,1.053,4.981,0,0-2.79-4.734-1.857-6.783A1.409,1.409,0,0,1,2401.352,1254.656Z" transform="translate(-2398.639 -1252.826)" fill="#163560"/>
            </g>
            <path id="Trazado_120208" data-name="Trazado 120208" d="M2260.852,1467.148s-1.194,1.264-1.339,1.332a8.255,8.255,0,0,1-2.269.275c-.482.121-.4-.179-.043-.422s1.23-.148.873-.237a9.722,9.722,0,0,0-3.014-.254,2.707,2.707,0,0,1-2.13-.172,9.452,9.452,0,0,1,3.4-1.392c.771.044,2.988-.062,2.988-.062Z" transform="translate(-2232.348 -1427.964)" fill="#ffb27d"/>
            <path id="Trazado_120209" data-name="Trazado 120209" d="M2414.081,1352.217s.717,17.584-1.35,20.049c-2,2.389-10.566.768-14.266-.035a1.038,1.038,0,0,0-.825.238c-.289.26-.415-1.76-.415-1.76s11.167-1.634,11.918-1.846c1.078-.3.328-12.413.328-12.413Z" transform="translate(-2353.376 -1332.348)" fill="#ffb27d"/>
            <path id="Trazado_120210" data-name="Trazado 120210" d="M2379.3,1470.568s-1,1.014-1.382,1.532-3.042,1.457-3.1,1.179,1.191-1.122,1.3-1.436a5.586,5.586,0,0,1,2.308-2.077C2379.258,1469.585,2379.3,1470.568,2379.3,1470.568Z" transform="translate(-2334.577 -1430.922)" fill="#ffb27d"/>
            <path id="Trazado_120211" data-name="Trazado 120211" d="M2363.306,1466.887s-4.1.949-4.8,1.234-2.174,2.375-1.587,2.688c.37.2,1.989-.657,2.812-.835s3.15.226,4.216-1.879C2364.066,1467.858,2363.306,1466.887,2363.306,1466.887Z" transform="translate(-2319.457 -1428.526)" fill="#ffb27d"/>
            <path id="Trazado_120212" data-name="Trazado 120212" d="M2135.948,1748.19c-1.591.656-3.542,2.69-4.338,3.267s-6.063.371-6.232.018c-.447-.935,1.4-1.6,2.566-2.14l.052-.024,0,0,.165-.054a6.483,6.483,0,0,0,4.161,0c1.474-.632,3.658-2.976,5.1-3.929A2.249,2.249,0,0,1,2135.948,1748.19Z" transform="translate(-2125.309 -1662.063)" fill="#2a4e96"/>
            <path id="Trazado_120213" data-name="Trazado 120213" d="M2208.3,1692.159c-.793,1.529-.972,4.342-1.207,5.3s-4.393,4.2-4.75,4.034c-.909-.41-.04-1.994.515-3.152a2.579,2.579,0,0,0,1.269-.472,9.208,9.208,0,0,0,2.958-4.847c.129-1.256.048-3.057.745-3.816A2.245,2.245,0,0,1,2208.3,1692.159Z" transform="translate(-2189.587 -1614.99)" fill="#193b72"/>
            <g id="Grupo_82675" data-name="Grupo 82675" transform="translate(15.31 29.443)">
              <g id="Grupo_82674" data-name="Grupo 82674">
                <path id="Trazado_120214" data-name="Trazado 120214" d="M2243.5,1424.958h-17.873l-5.376-13.37h17.845Z" transform="translate(-2220.247 -1411.589)" fill="#ef8035"/>
                <path id="Trazado_120215" data-name="Trazado 120215" d="M2252.287,1491.265h23.6v.521H2252.5Z" transform="translate(-2247.12 -1478.416)" fill="#ed7d2b"/>
              </g>
              <path id="Trazado_120216" data-name="Trazado 120216" d="M2281.385,1448.616a.619.619,0,0,1,.607-.851,1.219,1.219,0,0,1,1.095.851.619.619,0,0,1-.607.851A1.22,1.22,0,0,1,2281.385,1448.616Z" transform="translate(-2271.497 -1441.931)" fill="#fff"/>
            </g>
            <path id="Trazado_120217" data-name="Trazado 120217" d="M2422.987,1476.82a28.407,28.407,0,0,1-2.059,3.383c-5.728-.214-7.109-2.529-7.109-2.529Z" transform="translate(-2367.293 -1436.857)" fill="#5a7de0"/>
            <path id="Trazado_120218" data-name="Trazado 120218" d="M2415.477,1392.136s6.54-1.5,7.352-2.907,1.95-10.767,1.95-10.767l2.729,3.5-.552,8.231s-3.113,3.079-3.314,2.967S2415.477,1392.136,2415.477,1392.136Z" transform="translate(-2368.685 -1354.361)" fill="#5a7de0"/>
            <path id="Trazado_120219" data-name="Trazado 120219" d="M2424.449,1337.758a5.78,5.78,0,0,1,2.148,1.873c1.136,2.078,2.351,18.173-.88,20.832s-12.607,2.129-13.71.246a5.557,5.557,0,0,1,.557-2.714s8.441-1.115,8.818-1.647-.273-11.935.125-12.971S2424.449,1337.758,2424.449,1337.758Z" transform="translate(-2365.772 -1320.221)" fill="#739af0"/>
          </g>
        </g>
        <path id="Trazado_120220" data-name="Trazado 120220" d="M2315.446,1477.463s-2.436,2.283-12.633,2.611c-7.973.256-16.37,3.47-20.293,8.991a15.75,15.75,0,0,0-2.14,5.783c-.532,3.138,19.351,8.016,19.67,7.561s13.1-11.432,13.1-11.432Z" transform="translate(-2243.659 -1437.397)" fill="#583ae2"/>
      </g>
      <g id="Grupo_82679" data-name="Grupo 82679" transform="translate(445.868 285.224)">
        <path id="Trazado_120221" data-name="Trazado 120221" d="M1926.182,1087.079s9.915,10.28,10.384,14.15-4.75,9.909-4.75,9.909Z" transform="translate(-1903.424 -1066.468)" fill="#40327b"/>
        <path id="Trazado_120222" data-name="Trazado 120222" d="M1828.657,1738.6s-.35,5.453-1.405,5.529c-.14.01-5.352,0-5.352,0l-6.652-.053a2.158,2.158,0,0,1,1.992-1.937c1.945-.335,5.2-1.694,6.386-4.262C1824.872,1735.173,1828.657,1738.6,1828.657,1738.6Z" transform="translate(-1810.38 -1611.445)" fill="#0e2644"/>
        <path id="Trazado_120223" data-name="Trazado 120223" d="M1920.538,1738.8s-.35,5.453-1.405,5.529c-.14.01-5.351,0-5.351,0l-6.652-.053a2.159,2.159,0,0,1,1.992-1.937c1.945-.335,5.2-1.694,6.387-4.261C1916.753,1735.372,1920.538,1738.8,1920.538,1738.8Z" transform="translate(-1887.444 -1611.612)" fill="#0e2644"/>
        <path id="Trazado_120224" data-name="Trazado 120224" d="M1853.5,1341.042s1.716,11.131,8.163,30.9,7.313,28.323,7.313,28.323l6.963-.18s.106-21.588-2.863-31.527-.568-35.811-.568-35.811Z" transform="translate(-1842.466 -1272.518)" fill="#163560"/>
        <path id="Trazado_120225" data-name="Trazado 120225" d="M1832.556,1336.224a270.112,270.112,0,0,0,2.574,37.363c2.857,20.6,1.854,29.332,1.854,29.332l6.948.246s4.2-20.588,3.029-30.9,5.763-35.349,5.763-35.349Z" transform="translate(-1824.89 -1275.436)" fill="#1c468a"/>
        <path id="Trazado_120226" data-name="Trazado 120226" d="M1869.439,1049.942l-3.708,2.419-5.348-1.009c.075-.432.432-2.221.757-3.842.02-.1.039-.191.058-.285.279-1.379.519-2.564.519-2.564l5-2.194,1.865-.818c0,.029-.148,1.531-.168,1.75A12.737,12.737,0,0,0,1869.439,1049.942Z" transform="translate(-1848.236 -1028.365)" fill="#ffb27d"/>
        <path id="Trazado_120227" data-name="Trazado 120227" d="M1857.757,1076.576c.1-.043,6.447-1.9,7.135-1.671s1.093,1.562,1.093,1.562l-10.374,2.322A5.149,5.149,0,0,1,1857.757,1076.576Z" transform="translate(-1844.234 -1056.24)" fill="#40327b"/>
        <path id="Trazado_120228" data-name="Trazado 120228" d="M1849.218,1127.083c-1.085,4.9-18.97,5.442-23.57.983-.523-.508-.544-2.868-.339-6.049.4-6.215,1.663-15.563,1.722-20.34a37.793,37.793,0,0,1,.778-6.808,55.283,55.283,0,0,1,2.286-8.145s8.741-2.805,10.374-2.321C1848.337,1086.733,1850.3,1122.184,1849.218,1127.083Z" transform="translate(-1818.717 -1064.176)" fill="#583ae2"/>
        <path id="Trazado_120229" data-name="Trazado 120229" d="M1825.935,1171.983c.4-6.215,1.663-15.563,1.722-20.34a37.8,37.8,0,0,1,.778-6.808l5.256-.916S1838.783,1164.913,1825.935,1171.983Z" transform="translate(-1819.343 -1114.142)" fill="#40327b"/>
        <path id="Trazado_120230" data-name="Trazado 120230" d="M1835.877,1260.02a1.236,1.236,0,0,1-.4,1.43,2.4,2.4,0,0,0-1.073,2.184c.171.681,1.818,1.795,2.391,1.617s1.738-1.072,1.614-1.431.79-3.149-.6-4.226A1.125,1.125,0,0,0,1835.877,1260.02Z" transform="translate(-1826.421 -1210.837)" fill="#ffb27d"/>
        <path id="Trazado_120231" data-name="Trazado 120231" d="M1800.451,1091.343s-5.127.948-9.223,6.956-6.792,10.477-6.045,12.647,7.588,9.707,8.77,9.709a3.169,3.169,0,0,0,3.2-2.787s-4.811-7.245-3.858-8.327c.407-.462,6.278-5.207,7.11-3.056C1801.784,1110.045,1800.451,1091.343,1800.451,1091.343Z" transform="translate(-1785.058 -1070.044)" fill="#583ae2"/>
        <path id="Trazado_120232" data-name="Trazado 120232" d="M1871.98,1047.721c-1.1,1.857-5.194,3.455-6.9,4.043.02-.1.039-.191.058-.285.279-1.379.519-2.564.519-2.564l5-2.194C1871.762,1046.708,1872.434,1046.956,1871.98,1047.721Z" transform="translate(-1852.175 -1032.617)" fill="#fca56b"/>
        <path id="Trazado_120233" data-name="Trazado 120233" d="M1851.78,989.555s8.044,2.529,9.542-2.505,3.545-8.1-1.528-9.925-6.647-.2-7.555,1.354S1849.726,988.768,1851.78,989.555Z" transform="translate(-1840.182 -973.566)" fill="#ffb27d"/>
        <path id="Trazado_120234" data-name="Trazado 120234" d="M1857.873,963.695s.5,5.863,1.713,5.611,2.313-.438,2.131,1.328-1.867,3.8,1.868,4.124,9.127-9.3,8.1-11.128C1868.741,958.36,1853.608,957.265,1857.873,963.695Z" transform="translate(-1845.5 -959.266)" fill="#163560"/>
      </g>
      <g id="Grupo_82702" data-name="Grupo 82702" transform="translate(494.65 257.669)">
        <g id="Grupo_82701" data-name="Grupo 82701" transform="translate(8.524)">
          <g id="Grupo_82687" data-name="Grupo 82687" transform="translate(19.859 16.649)">
            <g id="Grupo_82686" data-name="Grupo 82686">
              <g id="Grupo_82682" data-name="Grupo 82682">
                <g id="Grupo_82680" data-name="Grupo 82680">
                  <path id="Trazado_120235" data-name="Trazado 120235" d="M2263.69,891.749a.382.382,0,1,0,.54,0A.382.382,0,0,0,2263.69,891.749Z" transform="translate(-2263.577 -891.638)" fill="#d5e5fb"/>
                  <path id="Trazado_120236" data-name="Trazado 120236" d="M2271.4,899.53a.382.382,0,1,0,.54,0A.382.382,0,0,0,2271.4,899.53Z" transform="translate(-2270.043 -898.165)" fill="#d5e5fb"/>
                  <path id="Trazado_120237" data-name="Trazado 120237" d="M2279.75,907.417a.382.382,0,1,0,0,.54A.382.382,0,0,0,2279.75,907.417Z" transform="translate(-2276.594 -904.778)" fill="#d5e5fb"/>
                </g>
                <g id="Grupo_82681" data-name="Grupo 82681" transform="translate(3.762 3.798)">
                  <path id="Trazado_120238" data-name="Trazado 120238" d="M2287.021,915.3a.382.382,0,1,0,.54,0A.382.382,0,0,0,2287.021,915.3Z" transform="translate(-2286.907 -915.189)" fill="#d5e5fb"/>
                  <path id="Trazado_120239" data-name="Trazado 120239" d="M2294.73,923.081a.382.382,0,1,0,.54,0A.381.381,0,0,0,2294.73,923.081Z" transform="translate(-2293.374 -921.716)" fill="#d5e5fb"/>
                  <path id="Trazado_120240" data-name="Trazado 120240" d="M2303.081,930.968a.382.382,0,1,0,0,.54A.382.382,0,0,0,2303.081,930.968Z" transform="translate(-2299.925 -928.328)" fill="#d5e5fb"/>
                </g>
              </g>
              <g id="Grupo_82685" data-name="Grupo 82685" transform="translate(7.474 7.545)">
                <g id="Grupo_82683" data-name="Grupo 82683">
                  <path id="Trazado_120241" data-name="Trazado 120241" d="M2310.039,938.534a.382.382,0,1,0,.54,0A.382.382,0,0,0,2310.039,938.534Z" transform="translate(-2309.926 -938.424)" fill="#d5e5fb"/>
                  <path id="Trazado_120242" data-name="Trazado 120242" d="M2317.748,946.316a.382.382,0,1,0,.54,0A.382.382,0,0,0,2317.748,946.316Z" transform="translate(-2316.392 -944.951)" fill="#d5e5fb"/>
                  <path id="Trazado_120243" data-name="Trazado 120243" d="M2326.1,954.2a.382.382,0,1,0,0,.54A.382.382,0,0,0,2326.1,954.2Z" transform="translate(-2322.943 -951.563)" fill="#d5e5fb"/>
                </g>
                <g id="Grupo_82684" data-name="Grupo 82684" transform="translate(3.762 3.798)">
                  <path id="Trazado_120244" data-name="Trazado 120244" d="M2333.37,962.084a.382.382,0,1,0,.54,0A.382.382,0,0,0,2333.37,962.084Z" transform="translate(-2333.257 -961.974)" fill="#d5e5fb"/>
                  <path id="Trazado_120245" data-name="Trazado 120245" d="M2341.08,969.866a.382.382,0,1,0,.54,0A.382.382,0,0,0,2341.08,969.866Z" transform="translate(-2339.723 -968.501)" fill="#d5e5fb"/>
                  <path id="Trazado_120246" data-name="Trazado 120246" d="M2349.43,977.753a.382.382,0,1,0,0,.54A.382.382,0,0,0,2349.43,977.753Z" transform="translate(-2346.275 -975.113)" fill="#d5e5fb"/>
                </g>
              </g>
            </g>
          </g>
          <g id="Grupo_82695" data-name="Grupo 82695" transform="translate(0 20.624)">
            <g id="Grupo_82694" data-name="Grupo 82694">
              <g id="Grupo_82690" data-name="Grupo 82690" transform="translate(2.382)">
                <g id="Grupo_82688" data-name="Grupo 82688" transform="translate(1.199)">
                  <path id="Trazado_120247" data-name="Trazado 120247" d="M2168.052,916.295a.382.382,0,1,0,.287.458A.382.382,0,0,0,2168.052,916.295Z" transform="translate(-2166.787 -916.285)" fill="#d5e5fb"/>
                  <path id="Trazado_120248" data-name="Trazado 120248" d="M2165.595,926.97a.382.382,0,1,0,.286.457A.382.382,0,0,0,2165.595,926.97Z" transform="translate(-2164.726 -925.239)" fill="#d5e5fb"/>
                  <path id="Trazado_120249" data-name="Trazado 120249" d="M2163.391,938.242a.382.382,0,1,0-.458.286A.382.382,0,0,0,2163.391,938.242Z" transform="translate(-2162.637 -934.309)" fill="#d5e5fb"/>
                </g>
                <g id="Grupo_82689" data-name="Grupo 82689" transform="translate(0 5.21)">
                  <path id="Trazado_120250" data-name="Trazado 120250" d="M2160.616,948.6a.382.382,0,1,0,.286.458A.382.382,0,0,0,2160.616,948.6Z" transform="translate(-2159.351 -948.59)" fill="#d5e5fb"/>
                  <path id="Trazado_120251" data-name="Trazado 120251" d="M2158.158,959.276a.382.382,0,1,0,.286.458A.382.382,0,0,0,2158.158,959.276Z" transform="translate(-2157.29 -957.544)" fill="#d5e5fb"/>
                  <path id="Trazado_120252" data-name="Trazado 120252" d="M2155.955,970.549a.382.382,0,1,0-.458.286A.382.382,0,0,0,2155.955,970.549Z" transform="translate(-2155.201 -966.616)" fill="#d5e5fb"/>
                </g>
              </g>
              <g id="Grupo_82693" data-name="Grupo 82693" transform="translate(0 10.349)">
                <g id="Grupo_82691" data-name="Grupo 82691" transform="translate(1.199)">
                  <path id="Trazado_120253" data-name="Trazado 120253" d="M2153.278,980.473a.382.382,0,1,0,.286.458A.382.382,0,0,0,2153.278,980.473Z" transform="translate(-2152.013 -980.463)" fill="#d5e5fb"/>
                  <path id="Trazado_120254" data-name="Trazado 120254" d="M2150.821,991.148a.382.382,0,1,0,.287.458A.382.382,0,0,0,2150.821,991.148Z" transform="translate(-2149.952 -989.417)" fill="#d5e5fb"/>
                  <path id="Trazado_120255" data-name="Trazado 120255" d="M2148.618,1002.422a.382.382,0,1,0-.458.286A.382.382,0,0,0,2148.618,1002.422Z" transform="translate(-2147.864 -998.489)" fill="#d5e5fb"/>
                </g>
                <g id="Grupo_82692" data-name="Grupo 82692" transform="translate(0 5.21)">
                  <path id="Trazado_120256" data-name="Trazado 120256" d="M2145.842,1012.779a.382.382,0,1,0,.286.458A.382.382,0,0,0,2145.842,1012.779Z" transform="translate(-2144.577 -1012.769)" fill="#d5e5fb"/>
                  <path id="Trazado_120257" data-name="Trazado 120257" d="M2143.385,1023.454a.382.382,0,1,0,.287.458A.382.382,0,0,0,2143.385,1023.454Z" transform="translate(-2142.516 -1021.723)" fill="#d5e5fb"/>
                  <path id="Trazado_120258" data-name="Trazado 120258" d="M2141.181,1034.727a.382.382,0,1,0-.458.287A.382.382,0,0,0,2141.181,1034.727Z" transform="translate(-2140.427 -1030.794)" fill="#d5e5fb"/>
                </g>
              </g>
            </g>
          </g>
          <g id="Grupo_82698" data-name="Grupo 82698" transform="translate(2.678)">
            <g id="Grupo_82696" data-name="Grupo 82696">
              <path id="Trazado_120259" data-name="Trazado 120259" d="M2173.681,796.718a8.325,8.325,0,1,0-8.325,8.325A8.325,8.325,0,0,0,2173.681,796.718Z" transform="translate(-2157.031 -788.393)" fill="#c6dcf7"/>
            </g>
            <g id="Grupo_82697" data-name="Grupo 82697" transform="translate(3.649 2.313)">
              <path id="Trazado_120260" data-name="Trazado 120260" d="M2197.429,805.408a2.672,2.672,0,1,0-2.672,2.672A2.672,2.672,0,0,0,2197.429,805.408Z" transform="translate(-2190.081 -802.736)" fill="#ebf3fa"/>
              <path id="Trazado_120261" data-name="Trazado 120261" d="M2184.334,835.873a4.676,4.676,0,0,1,4.676,4.676h-9.352A4.676,4.676,0,0,1,2184.334,835.873Z" transform="translate(-2179.658 -830.529)" fill="#ebf3fa"/>
            </g>
          </g>
          <g id="Grupo_82700" data-name="Grupo 82700" transform="translate(23.282 31.896)">
            <path id="Trazado_120262" data-name="Trazado 120262" d="M2292.812,988.305l-.308-.764a2.167,2.167,0,0,0-2.009-1.355H2284.8v19.028h23.542V989.8h-13.322A2.385,2.385,0,0,1,2292.812,988.305Z" transform="translate(-2284.803 -986.186)" fill="#c6dcf7"/>
            <g id="Grupo_82699" data-name="Grupo 82699" transform="translate(6.993 5.775)">
              <path id="Trazado_120263" data-name="Trazado 120263" d="M2336.468,1024.912h-.787a2.253,2.253,0,0,0,.036-.394v-.269a2.252,2.252,0,0,0-2.25-2.249h-1.383a2.251,2.251,0,0,0-2.249,2.249v.269a2.253,2.253,0,0,0,.035.394H2329a.828.828,0,0,0-.827.828v3.61a3.7,3.7,0,0,0,3.7,3.7h2.184a3.475,3.475,0,0,0,3.476-3.476v-3.6A1.06,1.06,0,0,0,2336.468,1024.912Zm-3.355,3.633v1.677a.265.265,0,0,1-.529,0v-1.677a1.22,1.22,0,1,1,.529,0Zm1.7-4.026a1.346,1.346,0,0,1-.059.394h-3.965a1.346,1.346,0,0,1-.059-.394v-.269a1.351,1.351,0,0,1,1.35-1.35h1.383a1.351,1.351,0,0,1,1.35,1.35Z" transform="translate(-2328.169 -1022)" fill="#ebf3fa"/>
            </g>
          </g>
        </g>
        <path id="Trazado_120264" data-name="Trazado 120264" d="M2087.566,1070.414c0,4.252,7.2,12.012,7.2,12.012s7.2-7.761,7.2-12.012a7.215,7.215,0,1,0-14.4,0Zm3.023-.78a4.177,4.177,0,1,1,4.177,4.177A4.178,4.178,0,0,1,2090.589,1069.634Z" transform="translate(-2087.566 -1018.481)" fill="#c6dcf7"/>
      </g>
      <g id="Grupo_82703" data-name="Grupo 82703" transform="translate(317.853 286.948)">
        <path id="Trazado_120265" data-name="Trazado 120265" d="M1055.962,1084.849c-.178-.735.144-1.31.824-1.312a1.6,1.6,0,0,1,1.451,1.308c.178.734-.14,1.31-.824,1.311A1.594,1.594,0,0,1,1055.962,1084.849Zm1.7,0c-.111-.459-.422-.807-.759-.806s-.474.337-.361.808.418.806.759.806S1057.771,1085.312,1057.658,1084.846Z" transform="translate(-1045.481 -1065.22)" fill="#f99746"/>
        <path id="Trazado_120266" data-name="Trazado 120266" d="M991.871,970.718l-.42.109-.227-.456.682-.218h.384l.617,2.55h-.556Z" transform="translate(-991.224 -970.121)" fill="#2f539b"/>
        <path id="Trazado_120267" data-name="Trazado 120267" d="M1007.362,971.282c-.178-.734.144-1.31.824-1.312a1.6,1.6,0,0,1,1.451,1.308c.178.734-.14,1.31-.824,1.311A1.594,1.594,0,0,1,1007.362,971.282Zm1.7,0c-.111-.459-.422-.807-.759-.806s-.475.337-.361.808.418.806.759.806S1009.172,971.746,1009.059,971.28Z" transform="translate(-1004.719 -969.968)" fill="#2f539b"/>
        <path id="Trazado_120268" data-name="Trazado 120268" d="M1081.71,1189.785c-.178-.734.144-1.31.824-1.311a1.6,1.6,0,0,1,1.451,1.307c.178.735-.14,1.31-.824,1.312A1.594,1.594,0,0,1,1081.71,1189.785Zm1.7,0c-.111-.46-.422-.806-.759-.806s-.474.337-.361.808.419.806.759.806S1083.52,1190.249,1083.407,1189.783Z" transform="translate(-1067.077 -1153.235)" fill="#2f539b"/>
        <path id="Trazado_120269" data-name="Trazado 120269" d="M1009.762,1044.611l-.42.109-.227-.456.683-.218h.384l.618,2.55h-.556Z" transform="translate(-1006.23 -1032.098)" fill="#2f539b"/>
        <path id="Trazado_120270" data-name="Trazado 120270" d="M1025.254,1045.175c-.178-.734.144-1.31.824-1.312a1.6,1.6,0,0,1,1.451,1.308c.178.734-.14,1.31-.824,1.311A1.594,1.594,0,0,1,1025.254,1045.175Zm1.7,0c-.111-.459-.422-.806-.759-.806s-.474.338-.361.808.418.806.759.806S1027.064,1045.638,1026.951,1045.172Z" transform="translate(-1019.725 -1031.944)" fill="#2f539b"/>
        <path id="Trazado_120271" data-name="Trazado 120271" d="M1020.068,1007.438l-.42.109-.228-.456.683-.218h.384l.617,2.551h-.556Z" transform="translate(-1014.874 -1000.919)" fill="#f99746"/>
        <path id="Trazado_120272" data-name="Trazado 120272" d="M1035.56,1008c-.178-.734.144-1.31.824-1.311a1.6,1.6,0,0,1,1.451,1.308c.178.734-.14,1.31-.824,1.311A1.594,1.594,0,0,1,1035.56,1008Zm1.7,0c-.111-.46-.422-.806-.759-.806s-.474.337-.361.808.418.806.759.806S1037.37,1008.466,1037.257,1008Z" transform="translate(-1028.37 -1000.767)" fill="#f99746"/>
        <path id="Trazado_120273" data-name="Trazado 120273" d="M1019.377,1084.32l-.42.109-.228-.456.683-.218h.384l.617,2.55h-.556Z" transform="translate(-1014.294 -1065.403)" fill="#2f539b"/>
        <path id="Trazado_120274" data-name="Trazado 120274" d="M1034.869,1084.884c-.178-.734.144-1.31.824-1.312a1.6,1.6,0,0,1,1.451,1.308c.178.734-.14,1.31-.824,1.311A1.594,1.594,0,0,1,1034.869,1084.884Zm1.7,0c-.111-.46-.422-.806-.759-.806s-.474.338-.361.808.418.806.759.806S1036.678,1085.347,1036.566,1084.881Z" transform="translate(-1027.79 -1065.25)" fill="#2f539b"/>
        <path id="Trazado_120275" data-name="Trazado 120275" d="M1067.2,971.265c-.178-.734.144-1.31.824-1.312a1.6,1.6,0,0,1,1.451,1.308c.178.734-.14,1.31-.824,1.311A1.594,1.594,0,0,1,1067.2,971.265Zm1.7,0c-.111-.459-.422-.806-.759-.806s-.475.338-.361.808.418.806.759.806S1069.009,971.728,1068.9,971.262Z" transform="translate(-1054.907 -969.953)" fill="#f99746"/>
        <path id="Trazado_120276" data-name="Trazado 120276" d="M1030.615,970.736l-.42.109-.227-.456.682-.218h.384l.618,2.55h-.556Z" transform="translate(-1023.72 -970.136)" fill="#2f539b"/>
        <path id="Trazado_120277" data-name="Trazado 120277" d="M1046.106,971.3c-.178-.734.144-1.31.824-1.312a1.6,1.6,0,0,1,1.451,1.308c.178.734-.14,1.31-.824,1.311A1.594,1.594,0,0,1,1046.106,971.3Zm1.7,0c-.111-.46-.422-.806-.759-.806s-.475.337-.361.808.419.806.759.806S1047.916,971.764,1047.8,971.3Z" transform="translate(-1037.215 -969.983)" fill="#2f539b"/>
        <path id="Trazado_120278" data-name="Trazado 120278" d="M1074.332,1161.553c-.178-.734.144-1.31.824-1.312a1.6,1.6,0,0,1,1.451,1.308c.178.734-.14,1.311-.824,1.311A1.594,1.594,0,0,1,1074.332,1161.553Zm1.7,0c-.111-.459-.422-.806-.759-.806s-.474.338-.361.808.418.807.759.806S1076.142,1162.017,1076.029,1161.55Z" transform="translate(-1060.889 -1129.556)" fill="#f99746"/>
        <path id="Trazado_120279" data-name="Trazado 120279" d="M1028.132,1121.315l-.42.109-.228-.456.683-.218h.384l.617,2.55h-.556Z" transform="translate(-1021.638 -1096.432)" fill="#2f539b"/>
        <path id="Trazado_120280" data-name="Trazado 120280" d="M1043.624,1121.88c-.178-.734.144-1.31.824-1.312a1.6,1.6,0,0,1,1.451,1.308c.178.734-.14,1.31-.824,1.312A1.6,1.6,0,0,1,1043.624,1121.88Zm1.7,0c-.111-.46-.422-.806-.759-.806s-.474.337-.361.808.418.806.759.806S1045.434,1122.343,1045.321,1121.877Z" transform="translate(-1035.133 -1096.28)" fill="#2f539b"/>
        <path id="Trazado_120281" data-name="Trazado 120281" d="M1064.717,1121.844c-.178-.734.144-1.31.824-1.312a1.6,1.6,0,0,1,1.451,1.308c.178.734-.14,1.31-.824,1.311A1.594,1.594,0,0,1,1064.717,1121.844Zm1.7,0c-.111-.459-.422-.806-.759-.806s-.474.338-.361.808.418.806.759.806S1066.527,1122.308,1066.414,1121.841Z" transform="translate(-1052.825 -1096.25)" fill="#2f539b"/>
        <path id="Trazado_120282" data-name="Trazado 120282" d="M1084.312,1121.22l-.42.109-.227-.456.683-.218h.384l.618,2.551h-.556Z" transform="translate(-1068.758 -1096.353)" fill="#2f539b"/>
        <path id="Trazado_120283" data-name="Trazado 120283" d="M1037.747,1161.024l-.42.109-.227-.456.683-.218h.384l.618,2.55h-.556Z" transform="translate(-1029.702 -1129.738)" fill="#2f539b"/>
        <path id="Trazado_120284" data-name="Trazado 120284" d="M1053.239,1161.589c-.178-.735.144-1.31.824-1.312a1.6,1.6,0,0,1,1.451,1.308c.178.734-.14,1.31-.824,1.312A1.594,1.594,0,0,1,1053.239,1161.589Zm1.7,0c-.111-.46-.422-.806-.759-.806s-.474.337-.361.808.418.806.759.806S1055.049,1162.052,1054.936,1161.586Z" transform="translate(-1043.198 -1129.585)" fill="#2f539b"/>
        <path id="Trazado_120285" data-name="Trazado 120285" d="M1092.983,1249.6c-.178-.734.144-1.31.824-1.312a1.6,1.6,0,0,1,1.451,1.308c.178.734-.14,1.31-.824,1.311A1.594,1.594,0,0,1,1092.983,1249.6Zm1.7,0c-.111-.459-.422-.807-.759-.806s-.474.337-.36.808.418.806.759.806S1094.793,1250.063,1094.68,1249.6Z" transform="translate(-1076.533 -1203.404)" fill="#2f539b"/>
        <path id="Trazado_120286" data-name="Trazado 120286" d="M1112.578,1248.976l-.42.109-.227-.456.683-.218H1113l.617,2.55h-.556Z" transform="translate(-1092.466 -1203.507)" fill="#2f539b"/>
        <path id="Trazado_120287" data-name="Trazado 120287" d="M1056.4,1249.071l-.42.109-.227-.456.682-.218h.384l.618,2.55h-.556Z" transform="translate(-1045.346 -1203.586)" fill="#2f539b"/>
        <path id="Trazado_120288" data-name="Trazado 120288" d="M1071.891,1249.635c-.178-.734.144-1.31.824-1.312a1.6,1.6,0,0,1,1.451,1.308c.178.734-.14,1.31-.824,1.311A1.594,1.594,0,0,1,1071.891,1249.635Zm1.7,0c-.111-.459-.422-.806-.759-.806s-.474.338-.361.808.418.806.759.806S1073.7,1250.1,1073.587,1249.632Z" transform="translate(-1058.842 -1203.433)" fill="#2f539b"/>
        <path id="Trazado_120289" data-name="Trazado 120289" d="M1128.07,1249.54c-.178-.734.144-1.31.824-1.312a1.6,1.6,0,0,1,1.451,1.308c.178.734-.14,1.31-.824,1.312A1.594,1.594,0,0,1,1128.07,1249.54Zm1.7,0c-.111-.459-.422-.806-.759-.806s-.474.338-.361.808.418.806.759.806S1129.88,1250,1129.767,1249.537Z" transform="translate(-1105.962 -1203.353)" fill="#f99746"/>
        <path id="Trazado_120290" data-name="Trazado 120290" d="M1149.163,1249.5c-.178-.734.144-1.31.824-1.311a1.6,1.6,0,0,1,1.451,1.308c.178.734-.14,1.31-.824,1.311A1.594,1.594,0,0,1,1149.163,1249.5Zm1.7,0c-.111-.46-.422-.806-.759-.806s-.474.337-.361.808.419.806.759.806S1150.973,1249.968,1150.86,1249.5Z" transform="translate(-1123.653 -1203.324)" fill="#f99746"/>
        <path id="Trazado_120291" data-name="Trazado 120291" d="M1066.921,1277.922c-.178-.734.144-1.31.824-1.312a1.6,1.6,0,0,1,1.451,1.308c.178.734-.14,1.31-.824,1.312A1.6,1.6,0,0,1,1066.921,1277.922Zm1.7,0c-.111-.459-.422-.806-.759-.806s-.475.337-.361.808.418.806.759.806S1068.731,1278.385,1068.618,1277.919Z" transform="translate(-1054.674 -1227.158)" fill="#2f539b"/>
        <path id="Trazado_120292" data-name="Trazado 120292" d="M1086.516,1277.3l-.42.109-.227-.456.683-.218h.384l.618,2.55H1087Z" transform="translate(-1070.607 -1227.261)" fill="#2f539b"/>
        <path id="Trazado_120293" data-name="Trazado 120293" d="M1102.009,1277.863c-.178-.734.144-1.31.824-1.312a1.6,1.6,0,0,1,1.451,1.308c.178.734-.14,1.31-.824,1.311A1.594,1.594,0,0,1,1102.009,1277.863Zm1.7,0c-.111-.459-.422-.806-.759-.806s-.474.338-.36.808.418.806.759.806S1103.818,1278.326,1103.705,1277.86Z" transform="translate(-1084.103 -1227.109)" fill="#2f539b"/>
        <path id="Trazado_120294" data-name="Trazado 120294" d="M1123.1,1277.827c-.178-.734.144-1.31.824-1.311a1.6,1.6,0,0,1,1.451,1.307c.178.734-.14,1.31-.824,1.312A1.594,1.594,0,0,1,1123.1,1277.827Zm1.7,0c-.111-.46-.422-.807-.759-.806s-.474.337-.361.808.418.806.759.806S1124.911,1278.291,1124.8,1277.825Z" transform="translate(-1101.794 -1227.079)" fill="#2f539b"/>
        <path id="Trazado_120295" data-name="Trazado 120295" d="M1731.1,1249.6c-.178-.734.144-1.31.824-1.312a1.6,1.6,0,0,1,1.451,1.308c.178.734-.14,1.31-.824,1.311A1.594,1.594,0,0,1,1731.1,1249.6Zm1.7,0c-.111-.459-.422-.807-.759-.806s-.474.337-.36.808.418.806.759.806S1732.908,1250.063,1732.8,1249.6Z" transform="translate(-1611.745 -1203.404)" fill="#2f539b"/>
        <path id="Trazado_120296" data-name="Trazado 120296" d="M1750.694,1248.976l-.42.109-.227-.456.682-.218h.384l.618,2.55h-.556Z" transform="translate(-1627.679 -1203.507)" fill="#2f539b"/>
        <path id="Trazado_120297" data-name="Trazado 120297" d="M1694.514,1249.071l-.42.109-.227-.456.683-.218h.384l.618,2.55H1695Z" transform="translate(-1580.558 -1203.586)" fill="#2f539b"/>
        <path id="Trazado_120298" data-name="Trazado 120298" d="M1710.006,1249.635c-.178-.734.144-1.31.824-1.312a1.6,1.6,0,0,1,1.451,1.308c.178.734-.14,1.31-.824,1.311A1.594,1.594,0,0,1,1710.006,1249.635Zm1.7,0c-.111-.459-.422-.806-.759-.806s-.474.338-.361.808.418.806.759.806S1711.815,1250.1,1711.7,1249.632Z" transform="translate(-1594.054 -1203.433)" fill="#2f539b"/>
        <path id="Trazado_120299" data-name="Trazado 120299" d="M1766.186,1249.54c-.178-.734.144-1.31.824-1.312a1.6,1.6,0,0,1,1.451,1.308c.178.734-.14,1.31-.824,1.312A1.594,1.594,0,0,1,1766.186,1249.54Zm1.7,0c-.111-.459-.422-.806-.759-.806s-.474.338-.36.808.418.806.759.806S1768,1250,1767.883,1249.537Z" transform="translate(-1641.175 -1203.353)" fill="#f99746"/>
        <path id="Trazado_120300" data-name="Trazado 120300" d="M1787.278,1249.5c-.178-.734.144-1.31.824-1.311a1.6,1.6,0,0,1,1.451,1.308c.178.734-.14,1.31-.824,1.311A1.594,1.594,0,0,1,1787.278,1249.5Zm1.7,0c-.111-.46-.422-.806-.759-.806s-.474.337-.361.808.418.806.759.806S1789.088,1249.968,1788.975,1249.5Z" transform="translate(-1658.865 -1203.324)" fill="#f99746"/>
        <path id="Trazado_120301" data-name="Trazado 120301" d="M1646.744,1277.922c-.178-.734.144-1.31.824-1.312a1.6,1.6,0,0,1,1.451,1.308c.178.734-.14,1.31-.824,1.312A1.594,1.594,0,0,1,1646.744,1277.922Zm1.7,0c-.111-.459-.422-.806-.759-.806s-.475.337-.361.808.419.806.759.806S1648.554,1278.385,1648.441,1277.919Z" transform="translate(-1540.994 -1227.158)" fill="#2f539b"/>
        <path id="Trazado_120302" data-name="Trazado 120302" d="M1666.338,1277.3l-.42.109-.228-.456.683-.218h.384l.617,2.55h-.556Z" transform="translate(-1556.926 -1227.261)" fill="#2f539b"/>
        <path id="Trazado_120303" data-name="Trazado 120303" d="M1681.831,1277.863c-.178-.734.144-1.31.824-1.312a1.6,1.6,0,0,1,1.451,1.308c.177.734-.14,1.31-.824,1.311A1.594,1.594,0,0,1,1681.831,1277.863Zm1.7,0c-.111-.459-.422-.806-.759-.806s-.474.338-.361.808.418.806.759.806S1683.641,1278.326,1683.528,1277.86Z" transform="translate(-1570.423 -1227.109)" fill="#2f539b"/>
        <path id="Trazado_120304" data-name="Trazado 120304" d="M1702.923,1277.827c-.178-.734.144-1.31.824-1.311a1.6,1.6,0,0,1,1.451,1.307c.178.734-.14,1.31-.824,1.312A1.594,1.594,0,0,1,1702.923,1277.827Zm1.7,0c-.111-.46-.422-.807-.759-.806s-.474.337-.36.808.418.806.759.806S1704.733,1278.291,1704.62,1277.825Z" transform="translate(-1588.113 -1227.079)" fill="#2f539b"/>
        <path id="Trazado_120305" data-name="Trazado 120305" d="M1119.772,1352.047c-.178-.734.144-1.31.824-1.312a1.6,1.6,0,0,1,1.451,1.308c.178.734-.14,1.31-.824,1.311A1.594,1.594,0,0,1,1119.772,1352.047Zm1.7,0c-.111-.46-.422-.806-.759-.806s-.474.338-.361.808.418.806.759.806S1121.582,1352.511,1121.469,1352.045Z" transform="translate(-1099.001 -1289.331)" fill="#f99746"/>
        <path id="Trazado_120306" data-name="Trazado 120306" d="M1139.367,1351.424l-.42.109-.227-.456.682-.218h.384l.618,2.551h-.556Z" transform="translate(-1114.935 -1289.434)" fill="#f99746"/>
        <path id="Trazado_120307" data-name="Trazado 120307" d="M1073.573,1311.81l-.42.109-.227-.456.682-.218h.384l.618,2.55h-.556Z" transform="translate(-1059.751 -1256.208)" fill="#2f539b"/>
        <path id="Trazado_120308" data-name="Trazado 120308" d="M1089.064,1312.375c-.178-.734.144-1.31.824-1.311a1.6,1.6,0,0,1,1.451,1.307c.178.735-.14,1.31-.824,1.312A1.594,1.594,0,0,1,1089.064,1312.375Zm1.7,0c-.111-.459-.422-.806-.759-.806s-.475.337-.361.808.418.806.759.806S1090.874,1312.839,1090.761,1312.373Z" transform="translate(-1073.245 -1256.056)" fill="#2f539b"/>
        <path id="Trazado_120309" data-name="Trazado 120309" d="M1110.157,1312.339c-.178-.734.144-1.31.824-1.312a1.6,1.6,0,0,1,1.451,1.308c.178.734-.14,1.31-.824,1.312A1.594,1.594,0,0,1,1110.157,1312.339Zm1.7,0c-.111-.46-.422-.806-.759-.806s-.475.337-.361.808.418.806.759.806S1111.967,1312.8,1111.854,1312.336Z" transform="translate(-1090.937 -1256.025)" fill="#2f539b"/>
        <path id="Trazado_120310" data-name="Trazado 120310" d="M1129.752,1311.715l-.42.109-.227-.456.682-.218h.384l.618,2.55h-.556Z" transform="translate(-1106.87 -1256.128)" fill="#2f539b"/>
        <path id="Trazado_120311" data-name="Trazado 120311" d="M1691.02,1311.81l-.42.109-.227-.456.682-.218h.384l.617,2.55h-.556Z" transform="translate(-1577.628 -1256.208)" fill="#2f539b"/>
        <path id="Trazado_120312" data-name="Trazado 120312" d="M1706.511,1312.375c-.178-.734.144-1.31.824-1.311a1.6,1.6,0,0,1,1.451,1.307c.178.735-.14,1.31-.824,1.312A1.594,1.594,0,0,1,1706.511,1312.375Zm1.7,0c-.111-.459-.422-.806-.759-.806s-.474.337-.361.808.418.806.759.806S1708.321,1312.839,1708.208,1312.373Z" transform="translate(-1591.123 -1256.056)" fill="#2f539b"/>
        <path id="Trazado_120313" data-name="Trazado 120313" d="M1727.6,1312.339c-.178-.734.144-1.31.824-1.312a1.6,1.6,0,0,1,1.451,1.308c.178.734-.14,1.31-.824,1.312A1.6,1.6,0,0,1,1727.6,1312.339Zm1.7,0c-.111-.46-.422-.806-.759-.806s-.475.337-.361.808.418.806.759.806S1729.414,1312.8,1729.3,1312.336Z" transform="translate(-1608.814 -1256.025)" fill="#2f539b"/>
        <path id="Trazado_120314" data-name="Trazado 120314" d="M1747.2,1311.715l-.42.109-.227-.456.682-.218h.384l.618,2.55h-.556Z" transform="translate(-1624.747 -1256.128)" fill="#2f539b"/>
        <path id="Trazado_120315" data-name="Trazado 120315" d="M1083.188,1351.519l-.42.109-.227-.456.682-.218h.384l.618,2.55h-.556Z" transform="translate(-1067.815 -1289.514)" fill="#2f539b"/>
        <path id="Trazado_120316" data-name="Trazado 120316" d="M1098.679,1352.083c-.178-.734.144-1.31.824-1.312a1.6,1.6,0,0,1,1.451,1.308c.178.734-.14,1.31-.824,1.311A1.594,1.594,0,0,1,1098.679,1352.083Zm1.7,0c-.111-.459-.422-.806-.759-.806s-.475.337-.361.807.418.807.759.806S1100.489,1352.547,1100.376,1352.081Z" transform="translate(-1081.31 -1289.361)" fill="#2f539b"/>
        <path id="Trazado_120317" data-name="Trazado 120317" d="M1154.858,1351.989c-.178-.734.144-1.31.824-1.311a1.6,1.6,0,0,1,1.451,1.308c.178.734-.14,1.31-.824,1.311A1.594,1.594,0,0,1,1154.858,1351.989Zm1.7,0c-.111-.459-.422-.806-.759-.806s-.474.337-.361.808.418.806.759.806S1156.669,1352.453,1156.556,1351.987Z" transform="translate(-1128.43 -1289.282)" fill="#2f539b"/>
        <path id="Trazado_120318" data-name="Trazado 120318" d="M1175.951,1351.954c-.178-.734.144-1.31.824-1.311a1.6,1.6,0,0,1,1.451,1.307c.178.734-.14,1.31-.824,1.312A1.594,1.594,0,0,1,1175.951,1351.954Zm1.7,0c-.111-.459-.422-.806-.759-.806s-.474.338-.36.808.418.806.759.806S1177.761,1352.418,1177.648,1351.951Z" transform="translate(-1146.121 -1289.253)" fill="#2f539b"/>
        <path id="Trazado_120319" data-name="Trazado 120319" d="M1127.9,1380.083c-.178-.734.144-1.31.824-1.312a1.6,1.6,0,0,1,1.451,1.308c.178.734-.14,1.31-.824,1.311A1.593,1.593,0,0,1,1127.9,1380.083Zm1.7,0c-.111-.459-.422-.806-.759-.806s-.475.337-.361.808.418.806.759.806S1129.715,1380.547,1129.6,1380.081Z" transform="translate(-1105.823 -1312.846)" fill="#f99746"/>
        <path id="Trazado_120320" data-name="Trazado 120320" d="M1147.5,1379.461l-.42.109-.227-.456.682-.219h.384l.618,2.55h-.556Z" transform="translate(-1121.756 -1312.95)" fill="#f99746"/>
        <path id="Trazado_120321" data-name="Trazado 120321" d="M1106.812,1380.12c-.178-.734.143-1.31.824-1.311a1.6,1.6,0,0,1,1.451,1.307c.178.734-.14,1.31-.824,1.312A1.594,1.594,0,0,1,1106.812,1380.12Zm1.7,0c-.111-.46-.422-.807-.759-.806s-.475.337-.361.808.418.806.759.806S1108.622,1380.584,1108.509,1380.118Z" transform="translate(-1088.132 -1312.877)" fill="#2f539b"/>
        <path id="Trazado_120322" data-name="Trazado 120322" d="M1162.992,1380.026c-.178-.734.144-1.31.824-1.312a1.6,1.6,0,0,1,1.451,1.307c.178.735-.14,1.31-.824,1.312A1.594,1.594,0,0,1,1162.992,1380.026Zm1.7,0c-.111-.46-.422-.807-.759-.806s-.475.337-.361.808.418.806.759.806S1164.8,1380.489,1164.689,1380.023Z" transform="translate(-1135.252 -1312.797)" fill="#2f539b"/>
        <path id="Trazado_120323" data-name="Trazado 120323" d="M1184.084,1379.989c-.178-.734.144-1.31.824-1.311a1.6,1.6,0,0,1,1.451,1.308c.178.734-.14,1.31-.824,1.312A1.594,1.594,0,0,1,1184.084,1379.989Zm1.7,0c-.111-.459-.422-.806-.759-.806s-.475.338-.361.808.418.806.759.806S1185.894,1380.453,1185.781,1379.987Z" transform="translate(-1152.943 -1312.767)" fill="#2f539b"/>
        <path id="Trazado_120324" data-name="Trazado 120324" d="M1256.66,1380.083c-.178-.734.144-1.31.824-1.312a1.6,1.6,0,0,1,1.451,1.308c.178.734-.14,1.31-.824,1.311A1.594,1.594,0,0,1,1256.66,1380.083Zm1.7,0c-.111-.459-.422-.806-.759-.806s-.474.337-.36.808.418.806.759.806S1258.47,1380.547,1258.357,1380.081Z" transform="translate(-1213.815 -1312.846)" fill="#f99746"/>
        <path id="Trazado_120325" data-name="Trazado 120325" d="M1276.255,1379.461l-.42.109-.227-.456.683-.219h.384l.617,2.55h-.556Z" transform="translate(-1229.748 -1312.95)" fill="#f99746"/>
        <path id="Trazado_120326" data-name="Trazado 120326" d="M1235.567,1380.12c-.178-.734.144-1.31.824-1.311a1.6,1.6,0,0,1,1.451,1.307c.178.734-.14,1.31-.824,1.312A1.594,1.594,0,0,1,1235.567,1380.12Zm1.7,0c-.111-.46-.422-.807-.759-.806s-.475.337-.361.808.419.806.759.806S1237.377,1380.584,1237.264,1380.118Z" transform="translate(-1196.124 -1312.877)" fill="#2f539b"/>
        <path id="Trazado_120327" data-name="Trazado 120327" d="M1291.747,1380.026c-.178-.734.144-1.31.824-1.312a1.6,1.6,0,0,1,1.451,1.307c.178.735-.14,1.31-.824,1.312A1.594,1.594,0,0,1,1291.747,1380.026Zm1.7,0c-.111-.46-.422-.807-.759-.806s-.474.337-.36.808.418.806.759.806S1293.557,1380.489,1293.444,1380.023Z" transform="translate(-1243.244 -1312.797)" fill="#2f539b"/>
        <path id="Trazado_120328" data-name="Trazado 120328" d="M1312.84,1379.989c-.178-.734.144-1.31.824-1.311a1.6,1.6,0,0,1,1.451,1.308c.178.734-.14,1.31-.824,1.312A1.594,1.594,0,0,1,1312.84,1379.989Zm1.7,0c-.111-.459-.422-.806-.759-.806s-.474.338-.361.808.418.806.759.806S1314.65,1380.453,1314.536,1379.987Z" transform="translate(-1260.935 -1312.767)" fill="#2f539b"/>
        <path id="Trazado_120329" data-name="Trazado 120329" d="M1549.792,1380.083c-.178-.734.144-1.31.824-1.312a1.6,1.6,0,0,1,1.451,1.308c.178.734-.14,1.31-.824,1.311A1.594,1.594,0,0,1,1549.792,1380.083Zm1.7,0c-.111-.459-.422-.806-.759-.806s-.474.337-.361.808.418.806.759.806S1551.6,1380.547,1551.49,1380.081Z" transform="translate(-1459.677 -1312.846)" fill="#f99746"/>
        <path id="Trazado_120330" data-name="Trazado 120330" d="M1569.387,1379.461l-.42.109-.227-.456.683-.219h.384l.618,2.55h-.556Z" transform="translate(-1475.609 -1312.95)" fill="#f99746"/>
        <path id="Trazado_120331" data-name="Trazado 120331" d="M1528.7,1380.12c-.178-.734.144-1.31.824-1.311a1.6,1.6,0,0,1,1.451,1.307c.178.734-.14,1.31-.824,1.312A1.594,1.594,0,0,1,1528.7,1380.12Zm1.7,0c-.111-.46-.422-.807-.759-.806s-.475.337-.361.808.418.806.759.806S1530.51,1380.584,1530.4,1380.118Z" transform="translate(-1441.986 -1312.877)" fill="#2f539b"/>
        <path id="Trazado_120332" data-name="Trazado 120332" d="M1584.88,1380.026c-.178-.734.144-1.31.824-1.312a1.6,1.6,0,0,1,1.451,1.307c.178.735-.14,1.31-.824,1.312A1.594,1.594,0,0,1,1584.88,1380.026Zm1.7,0c-.111-.46-.422-.807-.759-.806s-.474.337-.36.808.419.806.759.806S1586.689,1380.489,1586.576,1380.023Z" transform="translate(-1489.106 -1312.797)" fill="#2f539b"/>
        <path id="Trazado_120333" data-name="Trazado 120333" d="M1605.972,1379.989c-.178-.734.144-1.31.824-1.311a1.6,1.6,0,0,1,1.451,1.308c.178.734-.14,1.31-.824,1.312A1.594,1.594,0,0,1,1605.972,1379.989Zm1.7,0c-.111-.459-.422-.806-.759-.806s-.474.338-.36.808.418.806.759.806S1607.782,1380.453,1607.669,1379.987Z" transform="translate(-1506.797 -1312.767)" fill="#2f539b"/>
        <path id="Trazado_120334" data-name="Trazado 120334" d="M1678.548,1380.083c-.178-.734.144-1.31.824-1.312a1.6,1.6,0,0,1,1.451,1.308c.178.734-.14,1.31-.824,1.311A1.593,1.593,0,0,1,1678.548,1380.083Zm1.7,0c-.111-.459-.422-.806-.759-.806s-.475.337-.36.808.418.806.759.806S1680.358,1380.547,1680.245,1380.081Z" transform="translate(-1567.669 -1312.846)" fill="#f99746"/>
        <path id="Trazado_120335" data-name="Trazado 120335" d="M1698.143,1379.461l-.42.109-.227-.456.683-.219h.384l.618,2.55h-.556Z" transform="translate(-1583.602 -1312.95)" fill="#f99746"/>
        <path id="Trazado_120336" data-name="Trazado 120336" d="M1657.455,1380.12c-.178-.734.144-1.31.824-1.311a1.6,1.6,0,0,1,1.451,1.307c.178.734-.14,1.31-.824,1.312A1.594,1.594,0,0,1,1657.455,1380.12Zm1.7,0c-.111-.46-.422-.807-.759-.806s-.474.337-.361.808.419.806.759.806S1659.265,1380.584,1659.152,1380.118Z" transform="translate(-1549.978 -1312.877)" fill="#2f539b"/>
        <path id="Trazado_120337" data-name="Trazado 120337" d="M1713.635,1380.026c-.178-.734.144-1.31.824-1.312a1.6,1.6,0,0,1,1.451,1.307c.178.735-.14,1.31-.824,1.312A1.594,1.594,0,0,1,1713.635,1380.026Zm1.7,0c-.111-.46-.422-.807-.759-.806s-.474.337-.36.808.418.806.759.806S1715.445,1380.489,1715.332,1380.023Z" transform="translate(-1597.098 -1312.797)" fill="#2f539b"/>
        <path id="Trazado_120338" data-name="Trazado 120338" d="M1734.728,1379.989c-.178-.734.144-1.31.824-1.311a1.6,1.6,0,0,1,1.451,1.308c.178.734-.14,1.31-.824,1.312A1.594,1.594,0,0,1,1734.728,1379.989Zm1.7,0c-.111-.459-.422-.806-.759-.806s-.475.338-.361.808.418.806.759.806S1736.538,1380.453,1736.425,1379.987Z" transform="translate(-1614.789 -1312.767)" fill="#2f539b"/>
        <path id="Trazado_120339" data-name="Trazado 120339" d="M1197.044,1351.917c-.178-.734.144-1.31.824-1.312a1.6,1.6,0,0,1,1.451,1.308c.178.734-.14,1.31-.824,1.311A1.594,1.594,0,0,1,1197.044,1351.917Zm1.7,0c-.111-.46-.422-.807-.759-.806s-.475.337-.361.808.419.806.759.806S1198.854,1352.381,1198.741,1351.915Z" transform="translate(-1163.813 -1289.222)" fill="#2f539b"/>
        <path id="Trazado_120340" data-name="Trazado 120340" d="M1218.137,1351.883c-.178-.734.144-1.31.824-1.312a1.6,1.6,0,0,1,1.451,1.308c.178.734-.14,1.311-.824,1.312A1.594,1.594,0,0,1,1218.137,1351.883Zm1.7,0c-.111-.459-.422-.806-.759-.806s-.475.337-.361.807.418.806.759.806S1219.947,1352.346,1219.834,1351.88Z" transform="translate(-1181.504 -1289.192)" fill="#2f539b"/>
        <path id="Trazado_120341" data-name="Trazado 120341" d="M1603.719,1351.917c-.178-.734.144-1.31.824-1.312a1.6,1.6,0,0,1,1.451,1.308c.178.734-.14,1.31-.824,1.311A1.594,1.594,0,0,1,1603.719,1351.917Zm1.7,0c-.111-.46-.422-.807-.759-.806s-.474.337-.361.808.418.806.759.806S1605.529,1352.381,1605.416,1351.915Z" transform="translate(-1504.907 -1289.222)" fill="#2f539b"/>
        <path id="Trazado_120342" data-name="Trazado 120342" d="M1624.813,1351.883c-.178-.734.144-1.31.824-1.312a1.6,1.6,0,0,1,1.451,1.308c.178.734-.14,1.311-.824,1.312A1.594,1.594,0,0,1,1624.813,1351.883Zm1.7,0c-.111-.459-.422-.806-.759-.806s-.475.337-.361.807.418.806.759.806S1626.622,1352.346,1626.51,1351.88Z" transform="translate(-1522.599 -1289.192)" fill="#2f539b"/>
      </g>
    </g>
  </g>
</svg>
