<svg xmlns="http://www.w3.org/2000/svg" xmlns:xlink="http://www.w3.org/1999/xlink" width="523" height="295" viewBox="0 0 523 295">
  <defs>
    <filter id="Rectángulo_34120" x="0" y="0" width="523" height="295" filterUnits="userSpaceOnUse">
      <feOffset dy="3" input="SourceAlpha"/>
      <feGaussianBlur stdDeviation="3" result="blur"/>
      <feFlood flood-opacity="0.161"/>
      <feComposite operator="in" in2="blur"/>
      <feComposite in="SourceGraphic"/>
    </filter>
  </defs>
  <g id="Grupo_84782" data-name="Grupo 84782" transform="translate(-1746 7598)">
    <g transform="matrix(1, 0, 0, 1, 1746, -7598)" filter="url(#Rectángulo_34120)">
      <rect id="Rectángulo_34120-2" data-name="Rectángulo 34120" width="505" height="277" rx="20" transform="translate(9 6)" fill="#fff"/>
    </g>
    <g id="Grupo_82913" data-name="Grupo 82913" transform="translate(1572.349 -7787.413)">
      <g id="Grupo_82809" data-name="Grupo 82809" transform="translate(210.497 205.912)">
        <path id="Trazado_120718" data-name="Trazado 120718" d="M242.831,472.556s-32.449-49.094,2.891-106.854,82.806-28.713,80.508-95.94,98.1-73.747,133.573-54.254,66.8,8.326,109.177,9.686c68.725,2.205,87.963,70.017,68.909,103.018-27.035,46.823,84.693,52.329,20.379,144.343Z" transform="translate(-229.229 -205.912)" fill="#daf1f5"/>
      </g>
      <g id="Grupo_82810" data-name="Grupo 82810" transform="translate(419.654 257.649)">
        <path id="Trazado_120719" data-name="Trazado 120719" d="M1417.315,560.63l8.738-.959a1.948,1.948,0,0,1,1.832.883q.755,1.18,1.619,2.312a32.7,32.7,0,0,0,3.448,3.872,1.922,1.922,0,0,1,.468,2.116l-3.374,8.546a1.887,1.887,0,0,0,.923,2.4l7.516,3.749a1.866,1.866,0,0,0,2.395-.656l4.571-7.118a1.874,1.874,0,0,1,2.1-.805,33.958,33.958,0,0,0,10.652,1.091,1.935,1.935,0,0,1,1.933,1.348l1.528,4.914a1.954,1.954,0,0,0,2.217,1.325l8.179-1.63a1.708,1.708,0,0,0,.472-.155,1.875,1.875,0,0,0,1.051-1.912l-.709-6.529-.176-1.591a33.581,33.581,0,0,0,3.971-2.607,34.068,34.068,0,0,0,4.664-4.293,1.874,1.874,0,0,1,2.093-.5l6.881,2.726a1.942,1.942,0,0,0,2.454-.943l2.867-5.746.817-1.649a1.967,1.967,0,0,0-.692-2.536l-5.946-3.825a1.871,1.871,0,0,1-.834-2.042,33.705,33.705,0,0,0,.928-7.15,5.923,5.923,0,0,0,.02-.606,1.011,1.011,0,0,1,.014-.2,1.917,1.917,0,0,1,1.356-1.638l7.974-2.5a1.423,1.423,0,0,0,.26-.1,1.95,1.95,0,0,0,1.057-2.109l-1.613-8.156a1.94,1.94,0,0,0-2.111-1.55l-9.114,1a1.875,1.875,0,0,1-1.879-.992,34.3,34.3,0,0,0-2.84-4.372q-.855-1.121-1.785-2.149a1.976,1.976,0,0,1-.368-2.048l3.241-8.215a1.886,1.886,0,0,0-.912-2.381l-7.441-3.7a1.972,1.972,0,0,0-2.544.7l-3.618,5.631a1.936,1.936,0,0,1-2.255.791,33.885,33.885,0,0,0-10.273-1.875,1.925,1.925,0,0,1-1.809-1.359l-2.249-7.187a1.99,1.99,0,0,0-2.275-1.353l-8.127,1.6a1.9,1.9,0,0,0-1.526,2.08l.038.381.827,7.585a1.945,1.945,0,0,1-1.057,1.952l-.008.006a33.7,33.7,0,0,0-5.048,3.187c-.862.657-1.673,1.349-2.462,2.071a1.908,1.908,0,0,1-2.009.387l-6.985-2.767a1.974,1.974,0,0,0-2.5.951l-3.687,7.408a2.133,2.133,0,0,0-.19.652,1.965,1.965,0,0,0,.874,1.842l4.758,3.042a1.963,1.963,0,0,1,.885,1.714,2.09,2.09,0,0,1-.1.534,33.757,33.757,0,0,0-1.753,13.233,1.9,1.9,0,0,1-1.025,1.819,1.929,1.929,0,0,1-.3.123l-6.458,2.019a1.932,1.932,0,0,0-1.317,2.211l.036.189,1.565,7.951A1.967,1.967,0,0,0,1417.315,560.63Zm55.959-24.649a22.577,22.577,0,0,1,1.174,4.038,17.749,17.749,0,0,1-1.29,9.586c-.132.27-.27.532-.408.794-8.592,15.844-30.99,12.624-34.629-5.29a18.405,18.405,0,0,1,.68-8.36,11.976,11.976,0,0,1,.673-1.648,20.869,20.869,0,0,1,4.186-5.726A18.21,18.21,0,0,1,1473.274,535.981Z" transform="translate(-1413.535 -498.859)" fill="#b5e4eb"/>
      </g>
      <g id="Grupo_82811" data-name="Grupo 82811" transform="translate(531.655 266.749)">
        <path id="Trazado_120720" data-name="Trazado 120720" d="M2050.058,588.748l5.427-.6a1.21,1.21,0,0,1,1.137.548q.469.733,1.005,1.436a20.311,20.311,0,0,0,2.141,2.4,1.193,1.193,0,0,1,.291,1.314l-2.1,5.307a1.172,1.172,0,0,0,.573,1.488l4.668,2.328a1.158,1.158,0,0,0,1.487-.408l2.839-4.42a1.163,1.163,0,0,1,1.3-.5,21.1,21.1,0,0,0,6.615.678,1.2,1.2,0,0,1,1.2.837l.949,3.052a1.214,1.214,0,0,0,1.377.823l5.079-1.012a1.055,1.055,0,0,0,.294-.1,1.165,1.165,0,0,0,.653-1.187l-.441-4.054-.109-.988a20.875,20.875,0,0,0,2.466-1.619,21.208,21.208,0,0,0,2.9-2.666,1.164,1.164,0,0,1,1.3-.31l4.273,1.693a1.206,1.206,0,0,0,1.523-.585l1.781-3.568.507-1.024a1.221,1.221,0,0,0-.43-1.575l-3.692-2.375a1.162,1.162,0,0,1-.518-1.268,20.951,20.951,0,0,0,.576-4.44,3.684,3.684,0,0,0,.012-.377.622.622,0,0,1,.009-.126,1.19,1.19,0,0,1,.842-1.017l4.952-1.552a.892.892,0,0,0,.162-.063,1.212,1.212,0,0,0,.657-1.31l-1-5.065a1.2,1.2,0,0,0-1.311-.963l-5.66.624a1.165,1.165,0,0,1-1.167-.616,21.252,21.252,0,0,0-1.764-2.715q-.531-.7-1.108-1.335a1.227,1.227,0,0,1-.228-1.272l2.013-5.1a1.172,1.172,0,0,0-.566-1.479l-4.621-2.3a1.224,1.224,0,0,0-1.58.434l-2.247,3.5a1.2,1.2,0,0,1-1.4.492,21.044,21.044,0,0,0-6.38-1.165,1.2,1.2,0,0,1-1.123-.844l-1.4-4.463a1.236,1.236,0,0,0-1.413-.84l-5.047,1a1.182,1.182,0,0,0-.947,1.292l.023.237.513,4.71a1.207,1.207,0,0,1-.656,1.212l0,0a20.9,20.9,0,0,0-3.135,1.979c-.535.408-1.04.838-1.529,1.286a1.185,1.185,0,0,1-1.248.24l-4.337-1.718a1.226,1.226,0,0,0-1.55.59l-2.29,4.6a1.319,1.319,0,0,0-.118.4,1.221,1.221,0,0,0,.543,1.144l2.954,1.889a1.219,1.219,0,0,1,.55,1.064,1.314,1.314,0,0,1-.062.332,20.959,20.959,0,0,0-1.089,8.217,1.181,1.181,0,0,1-.636,1.13,1.224,1.224,0,0,1-.189.076l-4.011,1.254a1.2,1.2,0,0,0-.818,1.373l.022.118.972,4.937A1.221,1.221,0,0,0,2050.058,588.748Zm34.75-15.307a14.058,14.058,0,0,1,.729,2.508,11.023,11.023,0,0,1-.8,5.953c-.082.167-.168.33-.253.493-5.336,9.839-19.245,7.84-21.5-3.285a11.427,11.427,0,0,1,.423-5.192,7.437,7.437,0,0,1,.418-1.023,12.95,12.95,0,0,1,2.6-3.556A11.308,11.308,0,0,1,2084.809,573.441Z" transform="translate(-2047.711 -550.388)" fill="#40327b"/>
      </g>
      <g id="Grupo_82812" data-name="Grupo 82812" transform="translate(499.232 241.606)">
        <path id="Trazado_120721" data-name="Trazado 120721" d="M1867.253,438.375l3.706-1.244a.867.867,0,0,1,.88.211q.439.441.922.851a14.538,14.538,0,0,0,1.865,1.356.855.855,0,0,1,.4.875l-.658,4.032a.839.839,0,0,0,.628.954l3.62.918a.829.829,0,0,0,.978-.512l1.313-3.525a.833.833,0,0,1,.836-.549,15.1,15.1,0,0,0,4.732-.534.861.861,0,0,1,.968.4l1.129,1.991a.869.869,0,0,0,1.089.366l3.4-1.482a.758.758,0,0,0,.191-.112.834.834,0,0,0,.276-.93l-.926-2.77-.227-.674a14.974,14.974,0,0,0,1.479-1.508,15.176,15.176,0,0,0,1.62-2.307.833.833,0,0,1,.862-.414l3.248.534a.863.863,0,0,0,.977-.642l.7-2.768.2-.794a.875.875,0,0,0-.541-1.036l-2.945-1.1a.832.832,0,0,1-.555-.808,15,15,0,0,0-.273-3.194,2.651,2.651,0,0,0-.049-.265.449.449,0,0,1-.013-.09.852.852,0,0,1,.434-.84l3.228-1.84a.622.622,0,0,0,.1-.069.866.866,0,0,0,.26-1.016l-1.472-3.391a.863.863,0,0,0-1.064-.474l-3.865,1.3a.834.834,0,0,1-.91-.253,15.206,15.206,0,0,0-1.648-1.631q-.478-.406-.979-.765a.878.878,0,0,1-.354-.855l.631-3.875a.839.839,0,0,0-.621-.948l-3.583-.9a.876.876,0,0,0-1.039.544l-1.04,2.789a.861.861,0,0,1-.905.557,15.064,15.064,0,0,0-4.641.157.855.855,0,0,1-.914-.419l-1.657-2.91a.885.885,0,0,0-1.117-.373l-3.379,1.465a.846.846,0,0,0-.466,1.048l.052.162,1.077,3.217a.865.865,0,0,1-.274.948l0,0a14.975,14.975,0,0,0-1.892,1.862c-.312.367-.6.744-.874,1.133a.848.848,0,0,1-.836.358l-3.3-.542a.878.878,0,0,0-.995.649l-.9,3.568a.934.934,0,0,0-.021.3.873.873,0,0,0,.554.718l2.355.872a.873.873,0,0,1,.547.661.937.937,0,0,1,.007.242,15.012,15.012,0,0,0,.49,5.915.845.845,0,0,1-.273.887.868.868,0,0,1-.12.082l-2.615,1.488a.859.859,0,0,0-.363,1.085l.034.079,1.432,3.306A.875.875,0,0,0,1867.253,438.375Zm21.982-16a10.046,10.046,0,0,1,.892,1.643,7.891,7.891,0,0,1,.346,4.287c-.032.13-.067.257-.1.383a8.155,8.155,0,0,1-16.042-2.72,5.342,5.342,0,0,1,.137-.78,9.277,9.277,0,0,1,1.277-2.884A8.1,8.1,0,0,1,1889.235,422.373Z" transform="translate(-1864.124 -408.018)" fill="#583ae2"/>
      </g>
      <g id="Grupo_82841" data-name="Grupo 82841" transform="translate(333.011 305.102)">
        <g id="Grupo_82824" data-name="Grupo 82824" transform="translate(0)">
          <g id="Grupo_82813" data-name="Grupo 82813" transform="translate(86.087 55.563)">
            <path id="Trazado_120722" data-name="Trazado 120722" d="M1419.2,1083.145l-8.74,103.914s-.916,6.3,3.77,6.31c7.7.018,38.344,0,38.344,0s-5.8-1.311-5.728-4.262c.083-3.478,10.214-106.946,10.214-106.946Z" transform="translate(-1410.385 -1082.162)" fill="#32256a"/>
          </g>
          <g id="Grupo_82814" data-name="Grupo 82814" transform="translate(88.606 53.677)">
            <path id="Trazado_120723" data-name="Trazado 120723" d="M1467.2,1182.735c-1.515,0-31.179.055-38.681-.042-3.27-.041-3.843-2.907-3.87-4.762a9.289,9.289,0,0,1,.1-1.547l.227-2.7.579-6.884.511-6.082.657-7.815.554-6.6,6.209-73.838,37.862-.982s-4.267,43.3-7.286,74.82c-.337,3.512-.657,6.879-.954,10.022q-.144,1.505-.278,2.94c-.28,2.982-.536,5.721-.758,8.139-.117,1.274-.226,2.458-.323,3.544-.385,4.25-.611,6.965-.614,7.481a4.359,4.359,0,0,0,.074.841C1461.827,1182.585,1466.628,1182.735,1467.2,1182.735Z" transform="translate(-1424.645 -1071.486)" fill="#4d3e8d"/>
          </g>
          <g id="Grupo_82815" data-name="Grupo 82815" transform="translate(2.951 0)">
            <path id="Trazado_120724" data-name="Trazado 120724" d="M939.642,767.552,960.93,853.06l2.915,11.711,9.915,39.827h184.2l-36.544-137.046Z" transform="translate(-939.642 -767.552)" fill="#4d3e8d"/>
          </g>
          <g id="Grupo_82816" data-name="Grupo 82816">
            <path id="Trazado_120725" data-name="Trazado 120725" d="M925.886,767.551l-2.95.983,33.145,139.037L960,904.6Z" transform="translate(-922.935 -767.551)" fill="#32256a"/>
          </g>
          <g id="Grupo_82817" data-name="Grupo 82817" transform="translate(33.145 137.046)">
            <path id="Trazado_120726" data-name="Trazado 120726" d="M1110.614,1546.519H1293.68l5.055-2.974h-184.2Z" transform="translate(-1110.614 -1543.545)" fill="#40327b"/>
          </g>
          <g id="Grupo_82818" data-name="Grupo 82818" transform="translate(97.433 164.926)">
            <rect id="Rectángulo_34323" data-name="Rectángulo 34323" width="39.637" height="1.884" transform="translate(39.637 1.884) rotate(180)" fill="#4d3e8d"/>
          </g>
          <g id="Grupo_82819" data-name="Grupo 82819" transform="translate(89.512 140.02)">
            <path id="Trazado_120727" data-name="Trazado 120727" d="M1467.261,1560.383l-.2,1.44-37.276,7.531.512-6.082.244-2.889Z" transform="translate(-1429.78 -1560.383)" fill="#32256a"/>
          </g>
          <g id="Grupo_82820" data-name="Grupo 82820" transform="translate(88.607 153.142)">
            <path id="Trazado_120728" data-name="Trazado 120728" d="M1467.2,1646.468c-1.515,0-31.179.055-38.681-.042-3.27-.041-3.843-2.907-3.87-4.762l37.1-6.98c-.385,4.25-.611,6.965-.614,7.481a4.369,4.369,0,0,0,.074.841C1461.833,1646.318,1466.633,1646.468,1467.2,1646.468Z" transform="translate(-1424.651 -1634.684)" fill="#40327b"/>
          </g>
          <g id="Grupo_82821" data-name="Grupo 82821" transform="translate(2.95)">
            <path id="Trazado_120729" data-name="Trazado 120729" d="M939.641,767.551h181.773l29.493,110.142H967.06Z" transform="translate(-939.641 -767.551)" fill="#40327b"/>
          </g>
          <g id="Grupo_82822" data-name="Grupo 82822" transform="translate(10.479 5.9)">
            <path id="Trazado_120730" data-name="Trazado 120730" d="M1177.435,900.428H1007.24l-6.082-24.228-2.353-9.375L997.846,863,991.6,838.1l-.324-1.3-3.3-13.161-1.478-5.889-1.261-5.023-2.956-11.776h167.742l3.247,11.776,1.384,5.023,1.623,5.889,10.695,38.8v0l.907,3.287.421,1.526,7.384,26.783Z" transform="translate(-982.271 -800.959)" fill="#583ae2"/>
          </g>
          <g id="Grupo_82823" data-name="Grupo 82823" transform="translate(30.37 110.142)">
            <path id="Trazado_120731" data-name="Trazado 120731" d="M1163.959,1391.2l-62.3,27.225-6.76-27.225Z" transform="translate(-1094.898 -1391.203)" fill="#40327b"/>
          </g>
        </g>
        <g id="Grupo_82840" data-name="Grupo 82840" transform="translate(73.24 17.679)">
          <g id="Grupo_82829" data-name="Grupo 82829" transform="translate(11.642)">
            <g id="Grupo_82826" data-name="Grupo 82826" transform="translate(0.058 0.058)">
              <g id="Grupo_82825" data-name="Grupo 82825">
                <path id="Trazado_120732" data-name="Trazado 120732" d="M1433.637,918.413c-13.905,0-27.094-11.313-29.4-25.218s7.131-25.218,21.036-25.218,27.094,11.313,29.4,25.218S1447.543,918.413,1433.637,918.413Zm-7.643-46.088c-11.508,0-19.317,9.362-17.409,20.87s12.823,20.87,24.331,20.87,19.317-9.362,17.409-20.87S1437.5,872.326,1425.994,872.326Z" transform="translate(-1403.891 -867.978)" fill="#e6f0ff"/>
              </g>
            </g>
            <g id="Grupo_82828" data-name="Grupo 82828">
              <g id="Grupo_82827" data-name="Grupo 82827">
                <path id="Trazado_120733" data-name="Trazado 120733" d="M1433.375,918.2c-13.937,0-27.156-11.338-29.467-25.275s7.146-25.275,21.083-25.275a31.057,31.057,0,0,1,29.467,25.275,1.842,1.842,0,0,1-1.861,2.231,2.741,2.741,0,0,1-2.6-2.231,25.572,25.572,0,0,0-24.264-20.812c-11.476,0-19.264,9.336-17.361,20.812s12.788,20.812,24.264,20.812a2.741,2.741,0,0,1,2.6,2.232A1.842,1.842,0,0,1,1433.375,918.2Z" transform="translate(-1403.56 -867.652)" fill="#2ff980"/>
              </g>
            </g>
          </g>
          <g id="Grupo_82837" data-name="Grupo 82837" transform="translate(0 67.521)">
            <g id="Grupo_82830" data-name="Grupo 82830" transform="translate(0 0)">
              <path id="Trazado_120734" data-name="Trazado 120734" d="M1426.944,1252.367l.4,2.412a1.979,1.979,0,0,1-2,2.392h-84.486a2.947,2.947,0,0,1-2.789-2.392l-.4-2.412a1.979,1.979,0,0,1,2-2.392h84.486A2.947,2.947,0,0,1,1426.944,1252.367Z" transform="translate(-1337.641 -1249.975)" fill="#e6f0ff"/>
            </g>
            <g id="Grupo_82836" data-name="Grupo 82836">
              <g id="Grupo_82831" data-name="Grupo 82831" transform="translate(0 0)">
                <path id="Trazado_120735" data-name="Trazado 120735" d="M1399.65,1249.975l1.194,7.2h-59.981a2.947,2.947,0,0,1-2.789-2.392l-.4-2.412a1.979,1.979,0,0,1,2-2.392Z" transform="translate(-1337.641 -1249.975)" fill="#2ff980"/>
              </g>
              <g id="Grupo_82832" data-name="Grupo 82832" transform="translate(31.701)">
                <path id="Trazado_120736" data-name="Trazado 120736" d="M1535,1249.975l-5.443,7.2h-12.417l5.443-7.2Z" transform="translate(-1517.139 -1249.975)" fill="#25d26a"/>
              </g>
              <g id="Grupo_82833" data-name="Grupo 82833" transform="translate(51.694)">
                <path id="Trazado_120737" data-name="Trazado 120737" d="M1640.66,1249.975l1.193,7.2h-11.509l5.443-7.2Z" transform="translate(-1630.345 -1249.975)" fill="#25d26a"/>
              </g>
              <g id="Grupo_82834" data-name="Grupo 82834" transform="translate(11.707)">
                <path id="Trazado_120738" data-name="Trazado 120738" d="M1421.792,1249.975l-5.443,7.2h-12.417l5.443-7.2Z" transform="translate(-1403.932 -1249.975)" fill="#25d26a"/>
              </g>
              <g id="Grupo_82835" data-name="Grupo 82835" transform="translate(0 0)">
                <path id="Trazado_120739" data-name="Trazado 120739" d="M1347.216,1249.975l-5.443,7.2h-.91a2.947,2.947,0,0,1-2.789-2.392l-.4-2.412a1.979,1.979,0,0,1,2-2.392Z" transform="translate(-1337.641 -1249.975)" fill="#25d26a"/>
              </g>
            </g>
          </g>
          <g id="Grupo_82838" data-name="Grupo 82838" transform="translate(22.919 20.325)">
            <path id="Trazado_120740" data-name="Trazado 120740" d="M1472.364,985.091h-4.709l-.24-1.445H1474l.206,1.244-2.88,8.12h-1.846Z" transform="translate(-1467.416 -983.486)" fill="#e6f0ff"/>
            <path id="Trazado_120741" data-name="Trazado 120741" d="M1515.187,987.581c-.444-2.676.829-4.843,3.29-4.843s4.422,2.14,4.87,4.843c.444,2.676-.829,4.843-3.29,4.843S1515.635,990.283,1515.187,987.581Zm6.461,0c-.306-1.846-1.507-3.358-2.951-3.358s-2.124,1.472-1.811,3.358c.306,1.846,1.493,3.358,2.951,3.358S1521.958,989.454,1521.648,987.581Z" transform="translate(-1506.678 -982.738)" fill="#e6f0ff"/>
            <path id="Trazado_120742" data-name="Trazado 120742" d="M1567.325,985.435a1.878,1.878,0,0,1,1.823-2.394,2.752,2.752,0,0,1,2.591,2.394,1.878,1.878,0,0,1-1.823,2.395A2.753,2.753,0,0,1,1567.325,985.435Zm3.224,0a1.487,1.487,0,0,0-1.256-1.365c-.629,0-.9.615-.777,1.365a1.477,1.477,0,0,0,1.256,1.365C1570.4,986.8,1570.674,986.184,1570.549,985.435Zm4.2-2.288h1.324l-5.3,9.365h-1.324Zm-.967,7.077a1.878,1.878,0,0,1,1.823-2.395,2.752,2.752,0,0,1,2.591,2.395,1.878,1.878,0,0,1-1.823,2.394A2.752,2.752,0,0,1,1573.778,990.225Zm3.224,0a1.487,1.487,0,0,0-1.256-1.365c-.629,0-.9.615-.777,1.365a1.476,1.476,0,0,0,1.256,1.364C1576.854,991.589,1577.126,990.974,1577,990.225Z" transform="translate(-1549.65 -982.987)" fill="#e6f0ff"/>
          </g>
          <g id="Grupo_82839" data-name="Grupo 82839" transform="translate(34.897 61.71)">
            <path id="Trazado_120743" data-name="Trazado 120743" d="M1535.238,1217.772h.507l.4,2.425h1.517l.076.462h-2.025Z" transform="translate(-1535.238 -1217.648)" fill="#e6f0ff"/>
            <path id="Trazado_120744" data-name="Trazado 120744" d="M1550.07,1222.67a.94.94,0,0,1,.974-1.138,1.385,1.385,0,0,1,1.348,1.138.941.941,0,0,1-.979,1.134A1.383,1.383,0,0,1,1550.07,1222.67Zm1.822,0a.826.826,0,0,0-.784-.7.545.545,0,0,0-.539.7.828.828,0,0,0,.78.7A.547.547,0,0,0,1551.892,1222.67Z" transform="translate(-1547.438 -1220.744)" fill="#e6f0ff"/>
            <path id="Trazado_120745" data-name="Trazado 120745" d="M1567.133,1223.812l-.044-.268a.736.736,0,0,1-.653.313.851.851,0,0,1-.888-.68c-.08-.483.257-.714.764-.714a1.971,1.971,0,0,1,.617.091l-.007-.041a.549.549,0,0,0-.613-.466,1.364,1.364,0,0,0-.6.136l-.2-.4a1.679,1.679,0,0,1,.8-.181,1.018,1.018,0,0,1,1.109.919l.214,1.291Zm-.139-.911a1.55,1.55,0,0,0-.513-.087c-.313,0-.478.128-.441.346a.438.438,0,0,0,.474.322c.33,0,.547-.185.5-.458Z" transform="translate(-1560.16 -1220.802)" fill="#e6f0ff"/>
            <path id="Trazado_120746" data-name="Trazado 120746" d="M1579.13,1218.99a.863.863,0,0,1,.823-1.13,1.087,1.087,0,0,1,.806.383l-.194-1.171h.5l.5,3.01h-.5l-.06-.363a.715.715,0,0,1-.674.409A1.283,1.283,0,0,1,1579.13,1218.99Zm1.76,0a.8.8,0,0,0-.746-.7c-.342,0-.583.264-.51.705a.794.794,0,0,0,.742.7A.546.546,0,0,0,1580.891,1218.99Z" transform="translate(-1571.362 -1217.072)" fill="#e6f0ff"/>
            <path id="Trazado_120747" data-name="Trazado 120747" d="M1593.767,1217.212h.536l.078.474h-.536Zm.155.808h.5l.361,2.177h-.5Z" transform="translate(-1583.43 -1217.187)" fill="#e6f0ff"/>
            <path id="Trazado_120748" data-name="Trazado 120748" d="M1601.155,1221.577h.5l.056.338a.642.642,0,0,1,.617-.383.911.911,0,0,1,.914.837l.23,1.385h-.5l-.205-1.237a.555.555,0,0,0-.554-.532c-.288,0-.457.2-.4.54l.2,1.229h-.5Z" transform="translate(-1589.514 -1220.744)" fill="#e6f0ff"/>
            <path id="Trazado_120749" data-name="Trazado 120749" d="M1616.214,1224.163l.123-.375a1.614,1.614,0,0,0,.813.231c.445,0,.65-.231.578-.668l-.028-.169a.752.752,0,0,1-.7.4,1.2,1.2,0,0,1-1.16-1.027.813.813,0,0,1,.82-1.022,1.126,1.126,0,0,1,.824.371l-.054-.326h.5l.287,1.732a.99.99,0,0,1-.14.82,1.057,1.057,0,0,1-.846.293A2.111,2.111,0,0,1,1616.214,1224.163Zm1.387-1.608a.745.745,0,0,0-.739-.6.489.489,0,0,0-.518.606.727.727,0,0,0,.718.6A.506.506,0,0,0,1617.6,1222.554Z" transform="translate(-1601.591 -1220.744)" fill="#e6f0ff"/>
          </g>
        </g>
      </g>
      <g id="Grupo_82867" data-name="Grupo 82867" transform="translate(263.246 363.6)">
        <g id="Grupo_82862" data-name="Grupo 82862" transform="translate(0 0)">
          <g id="Grupo_82842" data-name="Grupo 82842" transform="translate(44.957)">
            <path id="Trazado_120750" data-name="Trazado 120750" d="M799.1,1103.428s.426-4.643-4.762-4.643a6.1,6.1,0,0,1,2.385,1.279,6.135,6.135,0,0,0-6.91,1.043c-3.6,2.985-1.364,10.472-2.459,11.893s-5.359,1.706-4.838,6.3,13.534,10.353,12.7,14.155c0,0,5.1-7.5,1.453-10.918a6.758,6.758,0,0,1,1.958,3.664s.482-3.885-1.99-5.128c-2.188-1.1-3.98-5.122-3.791-5.84S799.1,1103.428,799.1,1103.428Z" transform="translate(-782.469 -1098.785)" fill="#2c3a64"/>
          </g>
          <g id="Grupo_82843" data-name="Grupo 82843" transform="translate(50.98 26.938)">
            <path id="Trazado_120751" data-name="Trazado 120751" d="M822.072,1251.316s3.876,16.035,7.681,19.241c2.287,1.927,9.087,6.348,9.087,6.348l-2.828,1.026s-9.432-3.185-11.543-5.668-7.893-14.923-7.893-14.923Z" transform="translate(-816.575 -1251.316)" fill="#ffb27d"/>
          </g>
          <g id="Grupo_82844" data-name="Grupo 82844" transform="translate(55.089 52.13)">
            <path id="Trazado_120752" data-name="Trazado 120752" d="M863.482,1400.219l-.911-2.256a6.4,6.4,0,0,0-5.932-4h-16.8v56.181h69.508v-45.519H870.011A7.041,7.041,0,0,1,863.482,1400.219Z" transform="translate(-839.836 -1393.961)" fill="#583ae2"/>
          </g>
          <g id="Grupo_82845" data-name="Grupo 82845" transform="translate(17.633 39.951)">
            <path id="Trazado_120753" data-name="Trazado 120753" d="M630.167,1340.158c.034.061.07.125.107.188.848,1.474,2.794,5.087,4.937,9.039,1.014,1.875,2.075,3.828,3.082,5.665,1.735,3.17,3.313,5.994,4.234,7.486.937,1.517,1.626,2.583,1.9,3.009l0,0a.7.7,0,0,1,.091.44,23.029,23.029,0,0,0,.061,3.976,30.5,30.5,0,0,0,9.965,19.752l2.579.381s-3.649-13.518-4.724-21.161a14.708,14.708,0,0,1-.2-3.03,31.645,31.645,0,0,0-.832-8.271,185.238,185.238,0,0,0-5.273-19.145c-.12-.374-3.746-13.491-3.746-13.491-3.043,2.66-14.144,3.758-14.144,3.758S626.33,1333.334,630.167,1340.158Z" transform="translate(-627.75 -1325)" fill="#2f539b"/>
          </g>
          <g id="Grupo_82846" data-name="Grupo 82846" transform="translate(41.602 102.323)">
            <path id="Trazado_120754" data-name="Trazado 120754" d="M774.292,1684.153H763.531a5.911,5.911,0,0,1,.3-2.885c.539-1.194,1.306-1.232.1-3.1.684.7,2.882,1,4.438.786a13.181,13.181,0,0,0,1.866,2.84C770.94,1682.3,774.076,1682.116,774.292,1684.153Z" transform="translate(-763.472 -1678.165)" fill="#233862"/>
          </g>
          <g id="Grupo_82847" data-name="Grupo 82847" transform="translate(20.049 48.764)">
            <path id="Trazado_120755" data-name="Trazado 120755" d="M641.433,1381.243c.034.061.07.125.107.188.848,1.474,5.435,9.946,7.578,13.9a57.313,57.313,0,0,1-.756-20.433Z" transform="translate(-641.433 -1374.898)" fill="#233862"/>
          </g>
          <g id="Grupo_82848" data-name="Grupo 82848" transform="translate(51.725 3.915)">
            <path id="Trazado_120756" data-name="Trazado 120756" d="M829.183,1121.029c.07-.283-6.146,2.81-6.462,3.159-2.916,3.234-2.084,7.454-.416,7.5,1.07.026.863,1.8.863,1.8l11.92-5.042S833.653,1120.077,829.183,1121.029Z" transform="translate(-820.791 -1120.954)" fill="#2c3a64"/>
          </g>
          <g id="Grupo_82849" data-name="Grupo 82849" transform="translate(49.839 24.53)">
            <path id="Trazado_120757" data-name="Trazado 120757" d="M816.385,1237.682s1.814,3.624,1.588,6.564c0,0-2.187,3.453-7.86,4.327C810.113,1248.573,814.99,1237.679,816.385,1237.682Z" transform="translate(-810.113 -1237.682)" fill="#aec3ff"/>
          </g>
          <g id="Grupo_82850" data-name="Grupo 82850" transform="translate(1.427 37.705)">
            <path id="Trazado_120758" data-name="Trazado 120758" d="M563,1319.088l.037-2.013c-4.01.506-13.827-4.792-13.827-4.792s-4.2,2.79-4.77,10.759c-.28,3.89-2.054,20.339-2.25,25.251-.072,1.78-.1,3.051-.1,3.558a.008.008,0,0,1,0,0,.7.7,0,0,1-.17.414,22.971,22.971,0,0,0-2.173,3.331c-6.119,11.385-2.919,26.855-2.919,26.855l1.421-.361s5.174-16.037,8.556-22.974a14.513,14.513,0,0,1,1.531-2.622,31.641,31.641,0,0,0,3.934-7.323C554.764,1343.209,563,1319.088,563,1319.088Z" transform="translate(-535.987 -1312.283)" fill="#2f539b"/>
          </g>
          <g id="Grupo_82851" data-name="Grupo 82851" transform="translate(0 102.245)">
            <path id="Trazado_120759" data-name="Trazado 120759" d="M538.73,1683.792H527.969a5.909,5.909,0,0,1,.3-2.885c.539-1.194,1.382-1.737,1.18-3.181a3.876,3.876,0,0,0,3.354,1.283,11.81,11.81,0,0,0,1.867,2.42C535.378,1681.935,538.514,1681.755,538.73,1683.792Z" transform="translate(-527.91 -1677.726)" fill="#233862"/>
          </g>
          <g id="Grupo_82852" data-name="Grupo 82852" transform="translate(14.22 18.431)">
            <path id="Trazado_120760" data-name="Trazado 120760" d="M643.321,1222.448c-1.446.247.236,1.4-1.752,1.612-2.83.309-5.751.52-7.282,1.13a1.643,1.643,0,0,0-1.048.849c-.664,1.995-4.865,5.422-4.865,5.422-18.739-.853-19.946-9.2-19.946-9.2,12.162-11.811,22.508-18.249,31.059-19.047a15.216,15.216,0,0,1,6.2.652c2.991,1.332,4.63,5.383,4.63,5.383S648.813,1221.511,643.321,1222.448Z" transform="translate(-608.428 -1203.147)" fill="#aec3ff"/>
          </g>
          <g id="Grupo_82853" data-name="Grupo 82853" transform="translate(38.77 24.099)">
            <path id="Trazado_120761" data-name="Trazado 120761" d="M756.026,1250.484c-2.83.309-5.751.52-7.282,1.131-4.424-8.817,3.785-16.376,3.785-16.376S755.406,1246.948,756.026,1250.484Z" transform="translate(-747.435 -1235.239)" fill="#94b0ed"/>
          </g>
          <g id="Grupo_82854" data-name="Grupo 82854" transform="translate(41.157 22.508)">
            <path id="Trazado_120762" data-name="Trazado 120762" d="M769.6,1226.241s-7.116-.389-8.38,4.079,2.372,22.3,3.156,24.141c1.427,3.351,8.622,13.331,8.622,13.331l2.306-1.195s-4.632-14.61-5.666-16.056C768.011,1248.273,771.727,1228.185,769.6,1226.241Z" transform="translate(-760.952 -1226.233)" fill="#ffb27d"/>
          </g>
          <g id="Grupo_82855" data-name="Grupo 82855" transform="translate(52.889 62.562)">
            <path id="Trazado_120763" data-name="Trazado 120763" d="M830,1453.342a10.51,10.51,0,0,1,1.074,1.1c.479.585.058.8,1.432,3.444,0,0-.07.368-.369.3s-1.336-1.094-1.868-1.021c0,0-.38.313-.422,1.351a25.031,25.031,0,0,1-.211,3.522c-.169.4-1.4-1.692-2.012-3.206-.533-1.327-.014-5.806-.014-5.806Z" transform="translate(-827.382 -1453.031)" fill="#ffb27d"/>
          </g>
          <g id="Grupo_82856" data-name="Grupo 82856" transform="translate(40.018 21.189)">
            <path id="Trazado_120764" data-name="Trazado 120764" d="M754.5,1230.143c.018.1,6.734,1.235,10.934-.9,0,0,3.509-10.993-1.505-10.467s-7.984,2.105-8.11,4.506A46.216,46.216,0,0,1,754.5,1230.143Z" transform="translate(-754.503 -1218.761)" fill="#aec3ff"/>
          </g>
          <g id="Grupo_82857" data-name="Grupo 82857" transform="translate(51.314 15.627)">
            <path id="Trazado_120765" data-name="Trazado 120765" d="M818.471,1191.559a4.471,4.471,0,0,0,1.351,3.13c.892.918,2.181,1.635,3.086.73a9.827,9.827,0,0,0,1.4-1.692c.783-1.345,1.715-2.719,1.715-2.719L822,1187.48l-.241-.211a10.265,10.265,0,0,1-3,3.4A.935.935,0,0,0,818.471,1191.559Z" transform="translate(-818.463 -1187.269)" fill="#ffb27d"/>
          </g>
          <g id="Grupo_82858" data-name="Grupo 82858" transform="translate(54.772 15.838)">
            <path id="Trazado_120766" data-name="Trazado 120766" d="M842.145,1191.992s-.931,1.371-1.714,2.718c-2.5-1.543-2.506-4.642-2.313-6.248Z" transform="translate(-838.044 -1188.462)" fill="#ed985f"/>
          </g>
          <g id="Grupo_82859" data-name="Grupo 82859" transform="translate(54.605 8.64)">
            <path id="Trazado_120767" data-name="Trazado 120767" d="M841.479,1160.2s-6.078-3.382-3.914-7.135,2.838-6.717,6.81-4.716,3.894,3.864,3.476,5.292S843.116,1160.988,841.479,1160.2Z" transform="translate(-837.099 -1147.71)" fill="#ffb27d"/>
          </g>
          <g id="Grupo_82860" data-name="Grupo 82860" transform="translate(53.966 8.132)">
            <path id="Trazado_120768" data-name="Trazado 120768" d="M845.9,1149.087c-.278-1.666-1.125-1.825-1.715-1.714a4.861,4.861,0,0,0-5.912-2.264,8.276,8.276,0,0,1-4.791,2.877s.706,1.313,3.612,2.125a4.966,4.966,0,0,0,2.867-.229,16.223,16.223,0,0,1-4.125,1.555c3.83.351,7.474-3.151,7.852-3.525a5.451,5.451,0,0,1,.3,2.509c-.252,1.129-1.254,3.173-.642,3.437C843.345,1153.859,846.316,1151.586,845.9,1149.087Z" transform="translate(-833.481 -1144.831)" fill="#2c3a64"/>
          </g>
          <g id="Grupo_82861" data-name="Grupo 82861" transform="translate(73.462 52.42)">
            <path id="Trazado_120769" data-name="Trazado 120769" d="M944.769,1395.715s-1.7,1.272-.418,2.1,3.56,1.056,3.57.511C947.952,1396.5,947.039,1395.2,944.769,1395.715Z" transform="translate(-943.874 -1395.6)" fill="#ffb27d"/>
          </g>
        </g>
        <g id="Grupo_82863" data-name="Grupo 82863" transform="translate(67.084 69.923)">
          <path id="Trazado_120770" data-name="Trazado 120770" d="M913.974,1516.373h35.915c1.481,0,2.621-2.264,2.64-3.866.058-5.032-5.341-13.071-17.582-9.512,0,0-3.454-9.323-15.592-8.193-7.127.664-11.1,7.935-11.576,14.417A6.488,6.488,0,0,0,913.974,1516.373Z" transform="translate(-907.759 -1494.707)" fill="#826be9"/>
        </g>
        <g id="Grupo_82866" data-name="Grupo 82866" transform="translate(80.837 79.101)">
          <g id="Grupo_82864" data-name="Grupo 82864" transform="translate(5.155 4.888)">
            <rect id="Rectángulo_34324" data-name="Rectángulo 34324" width="6.956" height="15.981" transform="translate(6.956 15.981) rotate(180)" fill="#2ff980"/>
          </g>
          <g id="Grupo_82865" data-name="Grupo 82865">
            <path id="Trazado_120771" data-name="Trazado 120771" d="M1002.895,1554.791H985.629l8.633-8.115Z" transform="translate(-985.629 -1546.676)" fill="#2ff980"/>
          </g>
        </g>
      </g>
      <g id="Grupo_82870" data-name="Grupo 82870" transform="translate(498.259 367.642)">
        <g id="Grupo_82868" data-name="Grupo 82868">
          <path id="Trazado_120772" data-name="Trazado 120772" d="M1875.573,1130.047l-9.077,2.085-4.509,8.149-3.372-18.61Z" transform="translate(-1858.615 -1121.671)" fill="#d5cef8"/>
        </g>
        <g id="Grupo_82869" data-name="Grupo 82869" transform="translate(6.066 8.668)">
          <rect id="Rectángulo_34325" data-name="Rectángulo 34325" width="1.658" height="9.593" transform="matrix(0.799, -0.602, 0.602, 0.799, 0, 0.998)" fill="#d5cef8"/>
        </g>
      </g>
      <g id="Grupo_82896" data-name="Grupo 82896" transform="translate(346.305 246.031)">
        <g id="Grupo_82891" data-name="Grupo 82891">
          <g id="Grupo_82871" data-name="Grupo 82871" transform="translate(27.195 73.843)">
            <path id="Trazado_120773" data-name="Trazado 120773" d="M1152.467,860.714a1.06,1.06,0,0,0-.189,1.134.01.01,0,0,0,0,.006,7.051,7.051,0,0,0,2.228,2.444c.134.108.253.207.358.3.027.024.055.048.08.072l.062.056c.979.9.611,1.109,2.37,2.941,2.006,2.087,3.387,2.125,3.78,1.935.332-.162-.343-1.269-1.091-2.513-.036-.06-.072-.121-.109-.181-.1-.165-.2-.333-.3-.5-.877-1.5-.652-2.2-.444-4.429.169-1.811,2.817-10.117,2.817-10.117l-3.844-.662s-1.158,6.614-2.433,7.633c-.682.543-1.446.55-2.1.952q-.07.042-.136.086A5.052,5.052,0,0,0,1152.467,860.714Z" transform="translate(-1152.194 -851.198)" fill="#ffb27d"/>
          </g>
          <g id="Grupo_82872" data-name="Grupo 82872" transform="translate(27.195 82.514)">
            <path id="Trazado_120774" data-name="Trazado 120774" d="M1152.467,901.14a1.06,1.06,0,0,0-.189,1.134.01.01,0,0,0,0,.006,8.165,8.165,0,0,0,2.231,2.436c.133.11.25.211.354.306.027.024.055.048.08.072l.062.056c.979.9.611,1.109,2.37,2.941,2.006,2.087,3.387,2.125,3.78,1.935.332-.162-.343-1.269-1.091-2.513a8.55,8.55,0,0,1-3.576-2.635c-1.164-1.485-1.954-3.379-2.746-4.541l-.226-.042A5.051,5.051,0,0,0,1152.467,901.14Z" transform="translate(-1152.194 -900.295)" fill="#233862"/>
          </g>
          <g id="Grupo_82873" data-name="Grupo 82873" transform="translate(55.391 72.673)">
            <path id="Trazado_120775" data-name="Trazado 120775" d="M1314.923,852.858c.238,1.187,1.929.989,3.819.527s1.441.087,4.13-.211,3.5-1.3,3.586-1.7c.073-.355-1.256-.48-2.681-.644-.179-.02-.359-.042-.539-.065-1.609-.2-2.788-1.24-4.25-2.093-1.385-.808-3.451-4.1-3.451-4.1l-3.689.292s1.936,2.94,2.684,4.218a4.455,4.455,0,0,1,.362,2.513A4.739,4.739,0,0,0,1314.923,852.858Z" transform="translate(-1311.848 -844.573)" fill="#ffb27d"/>
          </g>
          <g id="Grupo_82874" data-name="Grupo 82874" transform="translate(58.409 78.93)">
            <path id="Trazado_120776" data-name="Trazado 120776" d="M1332.813,882.557c1.89-.462,1.441.087,4.13-.211s3.5-1.3,3.586-1.7c.073-.355-1.256-.48-2.681-.644l-.013.027a7.58,7.58,0,0,1-3.852,1.2c-1.824.045-3.757-.478-5.017-.458a4.734,4.734,0,0,0,.028,1.262C1329.232,883.217,1330.923,883.019,1332.813,882.557Z" transform="translate(-1328.938 -880.002)" fill="#233862"/>
          </g>
          <g id="Grupo_82875" data-name="Grupo 82875" transform="translate(31.677 51.462)">
            <path id="Trazado_120777" data-name="Trazado 120777" d="M1190.226,730.379l-3.448,9.278-4.5,12.115a7.288,7.288,0,0,1-2.391-.219,10.364,10.364,0,0,1-2.313-1.126s1.25-13.008,3.582-20.474a13.3,13.3,0,0,1,2.006-4.339C1186.775,721.342,1190.226,730.379,1190.226,730.379Z" transform="translate(-1177.572 -724.467)" fill="#94b0ed"/>
          </g>
          <g id="Grupo_82876" data-name="Grupo 82876" transform="translate(7.474 40.786)">
            <path id="Trazado_120778" data-name="Trazado 120778" d="M1073.881,665.874c-1.963-.633-7.084-.01-12.638,1a3.768,3.768,0,0,1-3.89-1.757h0l-13.979-1.092s-4.613,10.229-2.088,16.747a2.452,2.452,0,0,0,2.443,1.576h0s8.447.012,11.149.012c6.952,0,14.713-4.779,15.717-4.979,1.643-.329,2.3,2.958,3.944,6.409s15.447,15.282,15.447,15.282a12.156,12.156,0,0,0,3-.307,2.95,2.95,0,0,0,1.287-.813S1078.975,667.517,1073.881,665.874Z" transform="translate(-1040.53 -664.021)" fill="#aec3ff"/>
          </g>
          <g id="Grupo_82877" data-name="Grupo 82877" transform="translate(0.051)">
            <path id="Trazado_120779" data-name="Trazado 120779" d="M1021.26,433.906a4.96,4.96,0,0,0-2.67-.695,7.409,7.409,0,0,1-1.289-.078c-5.335-.782-8.548,6.967-8.736,9.309-.346,4.3-2.62,4.954-5.821,7.647-6.418,5.4-4.536,11.671-1.027,14,2.106,1.4,5.817,0,5.817,0,.052.037,10.151-5.645,15.129-8.386C1030.125,454.643,1024.258,435.69,1021.26,433.906Z" transform="translate(-998.5 -433.077)" fill="#233862"/>
          </g>
          <g id="Grupo_82878" data-name="Grupo 82878" transform="translate(13.231 12.467)">
            <path id="Trazado_120780" data-name="Trazado 120780" d="M1079.938,511.494a6.581,6.581,0,0,1-4.1.126c-1.555-.687-2.732-3.244-2.709-3.246.707-.033,1.484-.651,2.081-4.707l.3.108,5.063,1.822s-.367,1.625-.6,3.171C1079.769,510.066,1079.662,511.31,1079.938,511.494Z" transform="translate(-1073.127 -503.667)" fill="#ffb27d"/>
          </g>
          <g id="Grupo_82879" data-name="Grupo 82879" transform="translate(15.614 12.575)">
            <path id="Trazado_120781" data-name="Trazado 120781" d="M1091.682,506.1s-.2.876-.5,2.514a5.717,5.717,0,0,1-4.566-4.336Z" transform="translate(-1086.619 -504.278)" fill="#ed975d"/>
          </g>
          <g id="Grupo_82880" data-name="Grupo 82880" transform="translate(15.107 3.824)">
            <path id="Trazado_120782" data-name="Trazado 120782" d="M1090.071,466.916s-6.927-.93-6.281-5.234.186-7.324,4.636-6.912,5.061,2.183,5.2,3.672S1091.89,467.047,1090.071,466.916Z" transform="translate(-1083.748 -454.732)" fill="#ffb27d"/>
          </g>
          <g id="Grupo_82881" data-name="Grupo 82881" transform="translate(13.119 3.444)">
            <path id="Trazado_120783" data-name="Trazado 120783" d="M1084.1,454.308s-4.434,3.821-7.45,4.129-4.158-.66-4.158-.66a11.775,11.775,0,0,0,2.847-3.858,2.122,2.122,0,0,1,1.749-1.25C1079.244,452.483,1083.326,452.4,1084.1,454.308Z" transform="translate(-1072.494 -452.577)" fill="#233862"/>
          </g>
          <g id="Grupo_82882" data-name="Grupo 82882" transform="translate(21.956 4.003)">
            <path id="Trazado_120784" data-name="Trazado 120784" d="M1122.528,456.574a10.917,10.917,0,0,1,1.951,2.5,8.382,8.382,0,0,1,.227,4.457s2.311-4.494,1-6.678C1124.321,454.537,1122.528,456.574,1122.528,456.574Z" transform="translate(-1122.528 -455.746)" fill="#233862"/>
          </g>
          <g id="Grupo_82883" data-name="Grupo 82883" transform="translate(7.287 17.011)">
            <path id="Trazado_120785" data-name="Trazado 120785" d="M1058.056,542.884c-.209,14.022-.057,11.091-1.591,12.422a5.888,5.888,0,0,1-2.776.6c-4.3.286-11.857-.423-12.145-1.217-.992-2.749-.292-3.6-1.119-7.812-.086-.448-.193-.932-.318-1.46-.69-2.891-1.361-3.874,1.086-8.519,2.219-4.207,4.525-7.622,4.733-7.5,5.856,3.476,6.328.554,6.328.554S1058.159,536.044,1058.056,542.884Z" transform="translate(-1039.468 -529.397)" fill="#583ae2"/>
          </g>
          <g id="Grupo_82884" data-name="Grupo 82884" transform="translate(31.677 56.948)">
            <path id="Trazado_120786" data-name="Trazado 120786" d="M1186.778,765.236l-4.5,12.115a7.29,7.29,0,0,1-2.391-.219,10.364,10.364,0,0,1-2.313-1.126s1.25-13.008,3.582-20.474Z" transform="translate(-1177.572 -755.532)" fill="#aec3ff"/>
          </g>
          <g id="Grupo_82885" data-name="Grupo 82885" transform="translate(20.072 17.567)">
            <path id="Trazado_120787" data-name="Trazado 120787" d="M1111.865,532.549s6.026,1.021,6.733,3.616,3.037,18.341,3.037,18.341-1.7,1.659-3.114.244-4.453-14.733-4.453-14.733Z" transform="translate(-1111.865 -532.549)" fill="#583ae2"/>
          </g>
          <g id="Grupo_82886" data-name="Grupo 82886" transform="translate(8.244 28.652)">
            <path id="Trazado_120788" data-name="Trazado 120788" d="M1058.151,610.18c-4.3.286-11.857-.423-12.145-1.217-.992-2.749-.292-3.6-1.119-7.812l2.074-5.84s-.343,6.5,1.575,8.213,7.851,3.3,8.784,4.731A5.23,5.23,0,0,1,1058.151,610.18Z" transform="translate(-1044.887 -595.311)" fill="#40327b"/>
          </g>
          <g id="Grupo_82887" data-name="Grupo 82887" transform="translate(16.581 40.13)">
            <path id="Trazado_120789" data-name="Trazado 120789" d="M1092.1,660.959s4.242-.945,4.926-.568a9.959,9.959,0,0,1,2.567,2.224c.209.477-1.524-.362-2.088-.513a5.017,5.017,0,0,0-1.8.395,5.988,5.988,0,0,1-3.229.324Z" transform="translate(-1092.097 -660.302)" fill="#ffb27d"/>
          </g>
          <g id="Grupo_82888" data-name="Grupo 82888" transform="translate(0 17.011)">
            <path id="Trazado_120790" data-name="Trazado 120790" d="M1011.95,529.4s-5.7.351-7.667,3.1c-2.775,3.871-8.281,20.368-5.126,22.569,3.553,2.478,16.173.648,16.173.648s.42-1.963-.164-2.912-10.079-2.483-10.517-2.922,5.478-8.545,5.478-9.86S1011.95,529.4,1011.95,529.4Z" transform="translate(-998.209 -529.398)" fill="#583ae2"/>
          </g>
          <g id="Grupo_82889" data-name="Grupo 82889" transform="translate(21.713 41.399)">
            <path id="Trazado_120791" data-name="Trazado 120791" d="M1121.153,667.489a8.2,8.2,0,0,0,1.18,1.283.87.87,0,0,0,.48.1l-.6-1.078Z" transform="translate(-1121.153 -667.489)" fill="#ffb27d"/>
          </g>
          <g id="Grupo_82890" data-name="Grupo 82890" transform="translate(21.507 40.218)">
            <path id="Trazado_120792" data-name="Trazado 120792" d="M1119.99,660.8l2.584,1.255a.461.461,0,0,1-.428.165,6.171,6.171,0,0,1-1.121-.308Z" transform="translate(-1119.99 -660.804)" fill="#ffb27d"/>
          </g>
        </g>
        <g id="Grupo_82895" data-name="Grupo 82895" transform="translate(16.581 28.474)">
          <g id="Grupo_82892" data-name="Grupo 82892" transform="translate(0 14.695)">
            <path id="Trazado_120793" data-name="Trazado 120793" d="M1119.089,677.507H1092.1v.6h26.752Z" transform="translate(-1092.097 -677.507)" fill="#233862"/>
          </g>
          <g id="Grupo_82893" data-name="Grupo 82893" transform="translate(6.312)">
            <path id="Trazado_120794" data-name="Trazado 120794" d="M1127.835,609.593h20.44l6.149-15.29h-20.409Z" transform="translate(-1127.835 -594.302)" fill="#233862"/>
          </g>
          <g id="Grupo_82894" data-name="Grupo 82894" transform="translate(19.606 6.672)">
            <path id="Trazado_120795" data-name="Trazado 120795" d="M1205.1,633.054a.708.708,0,0,0-.694-.973,1.394,1.394,0,0,0-1.252.973.708.708,0,0,0,.694.973A1.394,1.394,0,0,0,1205.1,633.054Z" transform="translate(-1203.112 -632.081)" fill="#fff"/>
          </g>
        </g>
      </g>
      <g id="Grupo_82911" data-name="Grupo 82911" transform="translate(558.694 328.704)">
        <g id="Grupo_82897" data-name="Grupo 82897" transform="translate(25.422 23.324)">
          <path id="Trazado_120796" data-name="Trazado 120796" d="M2344.759,1033.26s9.906,10.077,10.412,14.261-5.135,10.715-5.135,10.715Z" transform="translate(-2344.759 -1033.26)" fill="#40327b"/>
        </g>
        <g id="Grupo_82898" data-name="Grupo 82898" transform="translate(5.264 135.578)">
          <path id="Trazado_120797" data-name="Trazado 120797" d="M2245.117,1670.777s-.378,5.9-1.52,5.978c-.152.011-5.786,0-5.786,0l-7.193-.057a2.334,2.334,0,0,1,2.154-2.1c2.1-.361,5.626-1.832,6.905-4.608C2241.024,1667.074,2245.117,1670.777,2245.117,1670.777Z" transform="translate(-2230.619 -1668.872)" fill="#0e2644"/>
        </g>
        <g id="Grupo_82899" data-name="Grupo 82899" transform="translate(21.284 135.613)">
          <path id="Trazado_120798" data-name="Trazado 120798" d="M2335.831,1670.974s-.379,5.9-1.52,5.978c-.152.011-5.786,0-5.786,0l-7.193-.057a2.334,2.334,0,0,1,2.154-2.095c2.1-.362,5.626-1.832,6.905-4.608C2331.738,1667.271,2335.831,1670.974,2335.831,1670.974Z" transform="translate(-2321.332 -1669.069)" fill="#0e2644"/>
        </g>
        <g id="Grupo_82900" data-name="Grupo 82900" transform="translate(11.934 65.12)">
          <path id="Trazado_120799" data-name="Trazado 120799" d="M2268.388,1278.893s1.855,12.035,8.826,33.408,7.908,30.624,7.908,30.624l7.529-.195s.115-23.341-3.1-34.088-.614-38.721-.614-38.721Z" transform="translate(-2268.388 -1269.921)" fill="#163560"/>
        </g>
        <g id="Grupo_82901" data-name="Grupo 82901" transform="translate(8.28 65.727)">
          <path id="Trazado_120800" data-name="Trazado 120800" d="M2247.708,1273.355a292.075,292.075,0,0,0,2.783,40.4c3.089,22.268,2,31.715,2,31.715l7.513.266s4.538-22.26,3.275-33.405,6.231-38.221,6.231-38.221Z" transform="translate(-2247.7 -1273.355)" fill="#1c468a"/>
        </g>
        <g id="Grupo_82902" data-name="Grupo 82902" transform="translate(13.134 14.365)">
          <path id="Trazado_120801" data-name="Trazado 120801" d="M2284.972,991.494l-4.009,2.616-5.783-1.091c.081-.467.467-2.4.819-4.154.021-.1.042-.207.063-.308.3-1.491.561-2.772.561-2.772l5.408-2.372,2.017-.884c-.006.031-.16,1.655-.181,1.892A13.774,13.774,0,0,0,2284.972,991.494Z" transform="translate(-2275.181 -982.528)" fill="#ffb27d"/>
        </g>
        <g id="Grupo_82903" data-name="Grupo 82903" transform="translate(12.302 20.159)">
          <path id="Trazado_120802" data-name="Trazado 120802" d="M2272.789,1017.168c.113-.047,6.971-2.055,7.715-1.807s1.182,1.689,1.182,1.689l-11.217,2.51A5.569,5.569,0,0,1,2272.789,1017.168Z" transform="translate(-2270.469 -1015.34)" fill="#40327b"/>
        </g>
        <g id="Grupo_82904" data-name="Grupo 82904" transform="translate(6.997 21.809)">
          <path id="Trazado_120803" data-name="Trazado 120803" d="M2266.415,1070.891c-1.174,5.3-20.511,5.884-25.485,1.062-.566-.55-.588-3.1-.367-6.541.433-6.72,1.8-16.828,1.861-21.993a40.924,40.924,0,0,1,.841-7.361,59.748,59.748,0,0,1,2.472-8.807s9.451-3.033,11.217-2.51C2265.463,1027.262,2267.588,1065.594,2266.415,1070.891Z" transform="translate(-2240.433 -1024.682)" fill="#583ae2"/>
        </g>
        <g id="Grupo_82905" data-name="Grupo 82905" transform="translate(7.128 32.196)">
          <path id="Trazado_120804" data-name="Trazado 120804" d="M2241.172,1113.84c.433-6.72,1.8-16.828,1.861-21.993a40.9,40.9,0,0,1,.841-7.361l5.684-.99S2255.823,1107.574,2241.172,1113.84Z" transform="translate(-2241.172 -1083.496)" fill="#40327b"/>
        </g>
        <g id="Grupo_82906" data-name="Grupo 82906" transform="translate(8.599 52.298)">
          <path id="Trazado_120805" data-name="Trazado 120805" d="M2251.127,1198.2a1.336,1.336,0,0,1-.429,1.546,2.592,2.592,0,0,0-1.159,2.362c.185.736,1.966,1.941,2.585,1.748s1.879-1.158,1.745-1.547.854-3.4-.651-4.57A1.217,1.217,0,0,0,2251.127,1198.2Z" transform="translate(-2249.501 -1197.316)" fill="#ffb27d"/>
        </g>
        <g id="Grupo_82907" data-name="Grupo 82907" transform="translate(0 23.343)">
          <path id="Trazado_120806" data-name="Trazado 120806" d="M2217.3,1033.369s-5.389.711-9.818,7.207-7.344,11.327-6.536,13.674,8.2,10.5,9.482,10.5a3.427,3.427,0,0,0,3.463-3.013s-4.686-8.319-3.655-9.489c.44-.5,6.272-5.145,7.172-2.819C2218.9,1053.276,2217.3,1033.369,2217.3,1033.369Z" transform="translate(-2200.814 -1033.369)" fill="#583ae2"/>
        </g>
        <g id="Grupo_82908" data-name="Grupo 82908" transform="translate(13.952 15.249)">
          <path id="Trazado_120807" data-name="Trazado 120807" d="M2287.278,988.615c-1.191,2.007-5.616,3.736-7.462,4.371.021-.1.042-.207.063-.308.3-1.491.561-2.772.561-2.772l5.408-2.372C2287.042,987.52,2287.769,987.789,2287.278,988.615Z" transform="translate(-2279.816 -987.533)" fill="#fca56b"/>
        </g>
        <g id="Grupo_82909" data-name="Grupo 82909" transform="translate(11.459 2.973)">
          <path id="Trazado_120808" data-name="Trazado 120808" d="M2266.781,932.34s8.7,2.734,10.317-2.709,3.833-8.756-1.653-10.731-7.186-.221-8.169,1.464S2264.561,931.489,2266.781,932.34Z" transform="translate(-2265.701 -918.025)" fill="#ffb27d"/>
        </g>
        <g id="Grupo_82910" data-name="Grupo 82910" transform="translate(12.565)">
          <path id="Trazado_120809" data-name="Trazado 120809" d="M2272.773,905.98s.542,6.339,1.853,6.067,2.5-.473,2.3,1.437-2.018,4.112,2.02,4.459,9.868-10.058,8.762-12.032C2284.523,900.212,2268.16,899.028,2272.773,905.98Z" transform="translate(-2271.959 -901.192)" fill="#163560"/>
        </g>
      </g>
    </g>
  </g>
</svg>
