<svg xmlns="http://www.w3.org/2000/svg" width="820" height="245.558" viewBox="0 0 820 245.558">
  <g id="Grupo_83090" data-name="Grupo 83090" transform="translate(-390 -4180)">
    <g id="Grupo_82753" data-name="Grupo 82753" transform="translate(363.63 4099.255)">
      <circle id="Elipse_5317" data-name="Elipse 5317" cx="96.366" cy="96.366" r="96.366" transform="translate(52.784 107.158)" fill="#583ae2"/>
      <g id="Grupo_82722" data-name="Grupo 82722" transform="translate(26.37 80.745)">
        <g id="Grupo_82719" data-name="Grupo 82719">
          <g id="Grupo_82718" data-name="Grupo 82718">
            <path id="Trazado_120373" data-name="Trazado 120373" d="M147.085,319.675a118.246,118.246,0,1,1,83.591-201.807L228.1,120.45a114.692,114.692,0,1,0,33.556,81.01v-1.826h32.556v3.651H265.288a118.117,118.117,0,0,1-118.2,116.39Z" transform="translate(-24.306 -78.681)" fill="#40327b"/>
            <path id="Trazado_120374" data-name="Trazado 120374" d="M149.149,326.3a122.81,122.81,0,1,1,86.819-209.6l3.226,3.226-9.035,9.037-3.228-3.228a110.123,110.123,0,1,0,32.22,77.782v-6.39h41.683v12.779H271.768A122.676,122.676,0,0,1,149.149,326.3Z" transform="translate(-26.37 -80.745)" fill="#40327b"/>
          </g>
        </g>
        <g id="Grupo_82721" data-name="Grupo 82721" transform="translate(254.172 101.403)">
          <g id="Grupo_82720" data-name="Grupo 82720">
            <path id="Trazado_120375" data-name="Trazado 120375" d="M171.624,169.684l-2.491-2.674,13.187-12.255L169.133,142.5l2.491-2.674,16.058,14.932Z" transform="translate(-162.679 -133.375)" fill="#40327b"/>
            <path id="Trazado_120376" data-name="Trazado 120376" d="M174.311,179.046l-8.712-9.354,12.938-12.021L165.6,145.645l8.712-9.354,22.993,21.38Z" transform="translate(-165.598 -136.29)" fill="#40327b"/>
          </g>
        </g>
      </g>
      <g id="Grupo_82725" data-name="Grupo 82725" transform="translate(186.416 82.785)">
        <g id="Grupo_82724" data-name="Grupo 82724" transform="translate(0)">
          <circle id="Elipse_5318" data-name="Elipse 5318" cx="31.889" cy="31.889" r="31.889" transform="translate(0 45.098) rotate(-45)" fill="#583ae2"/>
          <g id="Grupo_82723" data-name="Grupo 82723" transform="translate(10.47 10.471)">
            <path id="Trazado_120377" data-name="Trazado 120377" d="M154.4,156.853a34.628,34.628,0,1,1,34.626-34.628A34.668,34.668,0,0,1,154.4,156.853Zm0-63.778a29.151,29.151,0,1,0,29.149,29.151A29.185,29.185,0,0,0,154.4,93.075Z" transform="translate(-119.774 -87.598)" fill="#40327b"/>
          </g>
        </g>
      </g>
      <circle id="Elipse_5319" data-name="Elipse 5319" cx="96.366" cy="96.366" r="96.366" transform="translate(340.005 299.89) rotate(-90)" fill="#583ae2"/>
      <g id="Grupo_82730" data-name="Grupo 82730" transform="translate(313.592 80.745)">
        <g id="Grupo_82727" data-name="Grupo 82727">
          <g id="Grupo_82726" data-name="Grupo 82726">
            <path id="Trazado_120378" data-name="Trazado 120378" d="M304.417,319.675a118.247,118.247,0,1,1,83.59-201.807l-2.581,2.581a114.691,114.691,0,1,0,33.556,81.01v-1.826h33.065v3.651H422.618a118.115,118.115,0,0,1-118.2,116.39Z" transform="translate(-181.638 -78.681)" fill="#40327b"/>
            <path id="Trazado_120379" data-name="Trazado 120379" d="M306.481,326.3a122.812,122.812,0,1,1,86.817-209.6l3.226,3.226-9.035,9.037-3.228-3.228a110.13,110.13,0,1,0,32.22,77.782v-6.39h42.191v12.779H429.1A122.676,122.676,0,0,1,306.481,326.3Z" transform="translate(-183.702 -80.745)" fill="#40327b"/>
          </g>
        </g>
        <g id="Grupo_82729" data-name="Grupo 82729" transform="translate(251.008 101.403)">
          <g id="Grupo_82728" data-name="Grupo 82728">
            <path id="Trazado_120380" data-name="Trazado 120380" d="M327.223,169.684l-2.49-2.674,13.187-12.255L324.733,142.5l2.49-2.674,16.058,14.932Z" transform="translate(-318.279 -133.375)" fill="#40327b"/>
            <path id="Trazado_120381" data-name="Trazado 120381" d="M329.91,179.046l-8.712-9.354,12.938-12.021L321.2,145.645l8.712-9.354,22.991,21.38Z" transform="translate(-321.197 -136.29)" fill="#40327b"/>
          </g>
        </g>
      </g>
      <g id="Grupo_82733" data-name="Grupo 82733" transform="translate(482.173 91.321)">
        <g id="Grupo_82732" data-name="Grupo 82732" transform="translate(0 0)">
          <circle id="Elipse_5320" data-name="Elipse 5320" cx="31.889" cy="31.889" r="31.889" transform="matrix(0.159, -0.987, 0.987, 0.159, 0, 62.964)" fill="#583ae2"/>
          <g id="Grupo_82731" data-name="Grupo 82731" transform="translate(1.935 1.935)">
            <path id="Trazado_120382" data-name="Trazado 120382" d="M311.734,156.853a34.628,34.628,0,1,1,34.628-34.628A34.667,34.667,0,0,1,311.734,156.853Zm0-63.778a29.151,29.151,0,1,0,29.151,29.151A29.183,29.183,0,0,0,311.734,93.075Z" transform="translate(-277.106 -87.598)" fill="#40327b"/>
          </g>
        </g>
      </g>
      <circle id="Elipse_5321" data-name="Elipse 5321" cx="96.366" cy="96.366" r="96.366" transform="translate(627.225 299.89) rotate(-90)" fill="#583ae2"/>
      <g id="Grupo_82735" data-name="Grupo 82735" transform="translate(600.812 80.745)">
        <g id="Grupo_82734" data-name="Grupo 82734">
          <path id="Trazado_120383" data-name="Trazado 120383" d="M461.748,319.675a118.246,118.246,0,1,1,83.591-201.807l-2.581,2.581a114.695,114.695,0,1,0,33.554,81.01h3.651A118.117,118.117,0,0,1,461.748,319.675Z" transform="translate(-338.969 -78.681)" fill="#40327b"/>
          <path id="Trazado_120384" data-name="Trazado 120384" d="M463.812,326.3a122.809,122.809,0,1,1,86.819-209.6l3.226,3.226-9.035,9.037-3.226-3.228a110.135,110.135,0,1,0,32.216,77.782V198.96h12.779v4.564A122.678,122.678,0,0,1,463.812,326.3Z" transform="translate(-341.033 -80.745)" fill="#40327b"/>
        </g>
      </g>
      <g id="Grupo_82737" data-name="Grupo 82737" transform="translate(769.393 91.321)">
        <g id="Grupo_82736" data-name="Grupo 82736" transform="translate(0 0)">
          <circle id="Elipse_5322" data-name="Elipse 5322" cx="31.889" cy="31.889" r="31.889" transform="matrix(0.159, -0.987, 0.987, 0.159, 0, 62.964)" fill="#583ae2"/>
          <path id="Trazado_120385" data-name="Trazado 120385" d="M469.064,156.853a34.628,34.628,0,1,1,34.628-34.628A34.667,34.667,0,0,1,469.064,156.853Zm0-63.778a29.151,29.151,0,1,0,29.151,29.151A29.183,29.183,0,0,0,469.064,93.075Z" transform="translate(-432.502 -85.663)" fill="#40327b"/>
        </g>
      </g>
      <g id="Grupo_82750" data-name="Grupo 82750" transform="translate(216.893 118.476)">
        <path id="Trazado_120621" data-name="Trazado 120621" d="M138.546,120.961a6.788,6.788,0,0,1-5.867-2.664,11.791,11.791,0,0,1-1.946-7.111,11.787,11.787,0,0,1,1.946-7.111,7.794,7.794,0,0,1,11.735,0,11.787,11.787,0,0,1,1.946,7.111,11.791,11.791,0,0,1-1.946,7.111A6.794,6.794,0,0,1,138.546,120.961Zm-2.786-14.331a12.141,12.141,0,0,0,0,9.139,3.106,3.106,0,0,0,5.57,0,12.141,12.141,0,0,0,0-9.139,3.106,3.106,0,0,0-5.57,0Z" transform="translate(-130.733 -101.413)" fill="#fff"/>
        <path id="Trazado_120622" data-name="Trazado 120622" d="M140.285,101.65h7.651v18.9H143.88v-15.3h-3.595Z" transform="translate(-122.847 -101.217)" fill="#fff"/>
      </g>
      <g id="Grupo_82751" data-name="Grupo 82751" transform="translate(501.884 118.476)">
        <path id="Trazado_120623" data-name="Trazado 120623" d="M294.656,120.961a6.784,6.784,0,0,1-5.866-2.664,11.791,11.791,0,0,1-1.948-7.111,11.787,11.787,0,0,1,1.948-7.111,7.792,7.792,0,0,1,11.733,0,11.787,11.787,0,0,1,1.948,7.111,11.791,11.791,0,0,1-1.948,7.111A6.794,6.794,0,0,1,294.656,120.961Zm-2.786-14.331a12.164,12.164,0,0,0,0,9.139,3.108,3.108,0,0,0,5.572,0,12.164,12.164,0,0,0,0-9.139,3.107,3.107,0,0,0-5.572,0Z" transform="translate(-286.843 -101.413)" fill="#fff"/>
        <path id="Trazado_120624" data-name="Trazado 120624" d="M304.877,109.212a3.411,3.411,0,0,0,.717-1.959,2.17,2.17,0,0,0-.623-1.581,2.139,2.139,0,0,0-1.6-.637q-1.785,0-3.379,2.543l-3.379-2a10.449,10.449,0,0,1,2.9-3.111,7.127,7.127,0,0,1,4.029-1.053,6.482,6.482,0,0,1,4.3,1.555,5.226,5.226,0,0,1,1.851,4.23,5.677,5.677,0,0,1-.743,2.8,18.226,18.226,0,0,1-2.744,3.421l-3.406,3.542h7.463v3.784h-13.33v-3.136l5.542-5.678A23.962,23.962,0,0,0,304.877,109.212Z" transform="translate(-278.773 -101.413)" fill="#fff"/>
      </g>
      <g id="Grupo_82752" data-name="Grupo 82752" transform="translate(788.415 118.476)">
        <path id="Trazado_120625" data-name="Trazado 120625" d="M451.61,120.961a6.786,6.786,0,0,1-5.866-2.664,11.791,11.791,0,0,1-1.948-7.111,11.787,11.787,0,0,1,1.948-7.111,7.792,7.792,0,0,1,11.733,0,11.787,11.787,0,0,1,1.948,7.111,11.791,11.791,0,0,1-1.948,7.111A6.792,6.792,0,0,1,451.61,120.961Zm-2.784-14.331a12.141,12.141,0,0,0,0,9.139,3.106,3.106,0,0,0,5.57,0,12.141,12.141,0,0,0,0-9.139,3.106,3.106,0,0,0-5.57,0Z" transform="translate(-443.797 -101.413)" fill="#fff"/>
        <path id="Trazado_120626" data-name="Trazado 120626" d="M454.477,105.246v-3.6H466.05v2.919l-3.867,4.409a5.514,5.514,0,0,1,3.516,1.9,5.437,5.437,0,0,1,1.243,3.531,5.755,5.755,0,0,1-2.015,4.663,7.736,7.736,0,0,1-5.15,1.69,11.169,11.169,0,0,1-6.353-2.218l1.729-3.352a8.62,8.62,0,0,0,4.787,1.891,3.385,3.385,0,0,0,2.1-.621,2.117,2.117,0,0,0,.825-1.8,2.19,2.19,0,0,0-.947-1.866,4.376,4.376,0,0,0-2.622-.69,9.082,9.082,0,0,0-2.516.515v-3.111l3.624-4.27Z" transform="translate(-435.849 -101.217)" fill="#fff"/>
      </g>
    </g>
    <path id="Trazado_122087" data-name="Trazado 122087" d="M-37.617-6.035h-5.391v3.4h6.367V0h-9.795V-14.219h9.814v2.646h-6.387v3h5.391ZM-31.924,0h-3.3V-15h3.3Zm7.139.2a5.432,5.432,0,0,1-3.936-1.45,5.008,5.008,0,0,1-1.5-3.774V-5.3a6.489,6.489,0,0,1,.6-2.861,4.395,4.395,0,0,1,1.753-1.919,5.292,5.292,0,0,1,2.734-.679A4.574,4.574,0,0,1-21.621-9.38a5.43,5.43,0,0,1,1.289,3.853v1.279h-6.543a2.372,2.372,0,0,0,.771,1.4,2.3,2.3,0,0,0,1.543.508,2.958,2.958,0,0,0,2.441-1.094l1.5,1.777A4.2,4.2,0,0,1-22.358-.308,5.891,5.891,0,0,1-24.785.2Zm-.371-8.418q-1.445,0-1.719,1.914h3.32v-.254a1.63,1.63,0,0,0-.4-1.226A1.593,1.593,0,0,0-25.156-8.223Zm9.258-2.344.107,1.24a3.633,3.633,0,0,1,3.018-1.436A2.675,2.675,0,0,1-10.068-9.17a3.517,3.517,0,0,1,3.105-1.592q3.213,0,3.3,3.887V0h-3.3V-6.67a2.014,2.014,0,0,0-.273-1.182,1.164,1.164,0,0,0-1-.371,1.559,1.559,0,0,0-1.455.869l.01.137V0h-3.3V-6.65a2.117,2.117,0,0,0-.264-1.2,1.161,1.161,0,0,0-1.006-.371,1.578,1.578,0,0,0-1.445.869V0h-3.291V-10.566ZM3.33.2A5.432,5.432,0,0,1-.605-1.255a5.008,5.008,0,0,1-1.5-3.774V-5.3a6.489,6.489,0,0,1,.6-2.861A4.395,4.395,0,0,1,.244-10.083a5.292,5.292,0,0,1,2.734-.679A4.574,4.574,0,0,1,6.494-9.38,5.43,5.43,0,0,1,7.783-5.527v1.279H1.24a2.372,2.372,0,0,0,.771,1.4,2.3,2.3,0,0,0,1.543.508A2.958,2.958,0,0,0,6-3.437L7.5-1.66A4.2,4.2,0,0,1,5.757-.308,5.891,5.891,0,0,1,3.33.2ZM2.959-8.223q-1.445,0-1.719,1.914h3.32v-.254a1.63,1.63,0,0,0-.4-1.226A1.593,1.593,0,0,0,2.959-8.223Zm9.17-2.344.107,1.24a3.583,3.583,0,0,1,3.018-1.436,3.015,3.015,0,0,1,2.466.986,4.7,4.7,0,0,1,.845,2.969V0h-3.3V-6.67a1.783,1.783,0,0,0-.322-1.177,1.491,1.491,0,0,0-1.172-.376,1.569,1.569,0,0,0-1.436.762V0H9.043V-10.566Zm12.09-2.627v2.627h1.738v2.285H24.219v4.834a1.234,1.234,0,0,0,.215.83,1.152,1.152,0,0,0,.85.234,4.828,4.828,0,0,0,.82-.059V-.088A6.074,6.074,0,0,1,24.248.2a3.448,3.448,0,0,1-2.51-.8,3.282,3.282,0,0,1-.811-2.432V-8.281H19.58v-2.285h1.348v-2.627Zm2.324,7.813A6.236,6.236,0,0,1,27.158-8.2a4.4,4.4,0,0,1,1.768-1.9,5.323,5.323,0,0,1,2.705-.664,4.858,4.858,0,0,1,3.74,1.47,5.64,5.64,0,0,1,1.367,4v.117a5.472,5.472,0,0,1-1.372,3.921A4.871,4.871,0,0,1,31.65.2a4.927,4.927,0,0,1-3.623-1.353,5.29,5.29,0,0,1-1.475-3.667Zm3.291.205a3.932,3.932,0,0,0,.459,2.148,1.529,1.529,0,0,0,1.357.684q1.758,0,1.8-2.705v-.332q0-2.842-1.816-2.842-1.65,0-1.787,2.451ZM43.721-2.969a.76.76,0,0,0-.439-.674,6.685,6.685,0,0,0-1.67-.527,7.615,7.615,0,0,1-2.031-.718,3.4,3.4,0,0,1-1.221-1.079,2.577,2.577,0,0,1-.42-1.455,2.92,2.92,0,0,1,1.2-2.4,4.948,4.948,0,0,1,3.145-.942,5.482,5.482,0,0,1,3.359.947,2.962,2.962,0,0,1,1.27,2.49h-3.3q0-1.27-1.338-1.27a1.326,1.326,0,0,0-.869.288.892.892,0,0,0-.352.718.819.819,0,0,0,.43.713,4.06,4.06,0,0,0,1.372.449,11.857,11.857,0,0,1,1.655.42,3.007,3.007,0,0,1,2.383,2.939A2.767,2.767,0,0,1,45.61-.713,5.632,5.632,0,0,1,42.285.2a5.747,5.747,0,0,1-2.422-.488A4.05,4.05,0,0,1,38.2-1.621a3.007,3.007,0,0,1-.6-1.768h3.076a1.272,1.272,0,0,0,.488,1.069,2.009,2.009,0,0,0,1.2.337,1.58,1.58,0,0,0,1.011-.273A.875.875,0,0,0,43.721-2.969Z" transform="translate(514 4310)" fill="#fff"/>
    <path id="Trazado_122088" data-name="Trazado 122088" d="M-25.85-6.035H-31.24v3.4h6.367V0h-9.795V-14.219h9.814v2.646H-31.24v3h5.391Zm6.182,2.119,1.67-6.65h3.467L-17.979,0h-3.359l-3.447-10.566h3.477ZM-8.437.2a5.432,5.432,0,0,1-3.936-1.45,5.008,5.008,0,0,1-1.5-3.774V-5.3a6.489,6.489,0,0,1,.6-2.861,4.395,4.395,0,0,1,1.753-1.919,5.292,5.292,0,0,1,2.734-.679A4.574,4.574,0,0,1-5.273-9.38,5.43,5.43,0,0,1-3.984-5.527v1.279h-6.543a2.372,2.372,0,0,0,.771,1.4,2.3,2.3,0,0,0,1.543.508A2.958,2.958,0,0,0-5.771-3.437l1.5,1.777A4.2,4.2,0,0,1-6.011-.308,5.891,5.891,0,0,1-8.437.2Zm-.371-8.418q-1.445,0-1.719,1.914h3.32v-.254a1.63,1.63,0,0,0-.4-1.226A1.593,1.593,0,0,0-8.809-8.223Zm9.17-2.344.107,1.24a3.583,3.583,0,0,1,3.018-1.436,3.015,3.015,0,0,1,2.466.986A4.7,4.7,0,0,1,6.8-6.807V0H3.5V-6.67a1.783,1.783,0,0,0-.322-1.177A1.491,1.491,0,0,0,2-8.223a1.569,1.569,0,0,0-1.436.762V0H-2.725V-10.566Zm12.09-2.627v2.627h1.738v2.285H12.451v4.834a1.234,1.234,0,0,0,.215.83,1.152,1.152,0,0,0,.85.234,4.828,4.828,0,0,0,.82-.059V-.088A6.074,6.074,0,0,1,12.48.2a3.448,3.448,0,0,1-2.51-.8A3.282,3.282,0,0,1,9.16-3.037V-8.281H7.813v-2.285H9.16v-2.627Zm2.324,7.813A6.236,6.236,0,0,1,15.391-8.2a4.4,4.4,0,0,1,1.768-1.9,5.323,5.323,0,0,1,2.705-.664,4.858,4.858,0,0,1,3.74,1.47,5.64,5.64,0,0,1,1.367,4v.117A5.472,5.472,0,0,1,23.6-1.255,4.871,4.871,0,0,1,19.883.2,4.927,4.927,0,0,1,16.26-1.157a5.29,5.29,0,0,1-1.475-3.667Zm3.291.205a3.932,3.932,0,0,0,.459,2.148,1.529,1.529,0,0,0,1.357.684q1.758,0,1.8-2.705v-.332q0-2.842-1.816-2.842-1.65,0-1.787,2.451ZM31.953-2.969a.76.76,0,0,0-.439-.674,6.685,6.685,0,0,0-1.67-.527,7.615,7.615,0,0,1-2.031-.718,3.4,3.4,0,0,1-1.221-1.079,2.577,2.577,0,0,1-.42-1.455,2.92,2.92,0,0,1,1.2-2.4,4.948,4.948,0,0,1,3.145-.942,5.482,5.482,0,0,1,3.359.947,2.962,2.962,0,0,1,1.27,2.49h-3.3q0-1.27-1.338-1.27a1.326,1.326,0,0,0-.869.288.892.892,0,0,0-.352.718.819.819,0,0,0,.43.713,4.06,4.06,0,0,0,1.372.449,11.857,11.857,0,0,1,1.655.42,3.007,3.007,0,0,1,2.383,2.939A2.767,2.767,0,0,1,33.843-.713,5.632,5.632,0,0,1,30.518.2,5.747,5.747,0,0,1,28.1-.293a4.05,4.05,0,0,1-1.66-1.328,3.007,3.007,0,0,1-.6-1.768h3.076A1.272,1.272,0,0,0,29.4-2.319a2.009,2.009,0,0,0,1.2.337,1.58,1.58,0,0,0,1.011-.273A.875.875,0,0,0,31.953-2.969Z" transform="translate(800 4310)" fill="#fff"/>
    <path id="Trazado_122089" data-name="Trazado 122089" d="M-37.734-4.824V0h-3.428V-14.219h5.674a6.608,6.608,0,0,1,2.886.6,4.526,4.526,0,0,1,1.943,1.709,4.667,4.667,0,0,1,.688,2.515A4.114,4.114,0,0,1-31.46-6.069a6.179,6.179,0,0,1-4.087,1.245Zm0-2.646h2.246a2.118,2.118,0,0,0,1.519-.5,1.85,1.85,0,0,0,.522-1.406,2.287,2.287,0,0,0-.537-1.592,1.9,1.9,0,0,0-1.465-.605h-2.285Zm15.83-.117-1.084-.078a1.947,1.947,0,0,0-1.992.977V0h-3.291V-10.566h3.086l.107,1.357a2.548,2.548,0,0,1,2.314-1.553,3.209,3.209,0,0,1,.918.117Zm.42,2.207A6.236,6.236,0,0,1-20.869-8.2,4.4,4.4,0,0,1-19.1-10.1a5.323,5.323,0,0,1,2.705-.664,4.858,4.858,0,0,1,3.74,1.47,5.64,5.64,0,0,1,1.367,4v.117a5.472,5.472,0,0,1-1.372,3.921A4.871,4.871,0,0,1-16.377.2,4.927,4.927,0,0,1-20-1.157a5.29,5.29,0,0,1-1.475-3.667Zm3.291.205a3.932,3.932,0,0,0,.459,2.148,1.529,1.529,0,0,0,1.357.684q1.758,0,1.8-2.705v-.332q0-2.842-1.816-2.842-1.65,0-1.787,2.451ZM-5.371-2.344A1.464,1.464,0,0,0-4.3-2.72a1.379,1.379,0,0,0,.371-1.05H-.84A3.653,3.653,0,0,1-2.085-.918,4.631,4.631,0,0,1-5.293.2,4.689,4.689,0,0,1-8.926-1.25a5.7,5.7,0,0,1-1.328-4v-.137a6.436,6.436,0,0,1,.591-2.827,4.3,4.3,0,0,1,1.7-1.885,5.081,5.081,0,0,1,2.637-.659A4.573,4.573,0,0,1-2.051-9.619,4.053,4.053,0,0,1-.84-6.523H-3.926a1.807,1.807,0,0,0-.4-1.26A1.382,1.382,0,0,0-5.4-8.223q-1.279,0-1.494,1.631a11.508,11.508,0,0,0-.068,1.426,4.52,4.52,0,0,0,.381,2.207A1.319,1.319,0,0,0-5.371-2.344ZM5.664.2a5.432,5.432,0,0,1-3.936-1.45,5.008,5.008,0,0,1-1.5-3.774V-5.3a6.489,6.489,0,0,1,.6-2.861,4.395,4.395,0,0,1,1.753-1.919,5.292,5.292,0,0,1,2.734-.679A4.574,4.574,0,0,1,8.828-9.38a5.43,5.43,0,0,1,1.289,3.853v1.279H3.574a2.372,2.372,0,0,0,.771,1.4,2.3,2.3,0,0,0,1.543.508A2.958,2.958,0,0,0,8.33-3.437l1.5,1.777A4.2,4.2,0,0,1,8.091-.308,5.891,5.891,0,0,1,5.664.2ZM5.293-8.223q-1.445,0-1.719,1.914h3.32v-.254a1.63,1.63,0,0,0-.4-1.226A1.593,1.593,0,0,0,5.293-8.223Zm11.68,5.254a.76.76,0,0,0-.439-.674,6.685,6.685,0,0,0-1.67-.527,7.615,7.615,0,0,1-2.031-.718,3.4,3.4,0,0,1-1.221-1.079,2.577,2.577,0,0,1-.42-1.455,2.92,2.92,0,0,1,1.2-2.4,4.948,4.948,0,0,1,3.145-.942,5.482,5.482,0,0,1,3.359.947,2.962,2.962,0,0,1,1.27,2.49h-3.3q0-1.27-1.338-1.27a1.326,1.326,0,0,0-.869.288.892.892,0,0,0-.352.718.819.819,0,0,0,.43.713,4.06,4.06,0,0,0,1.372.449,11.857,11.857,0,0,1,1.655.42,3.007,3.007,0,0,1,2.383,2.939A2.767,2.767,0,0,1,18.862-.713,5.631,5.631,0,0,1,15.537.2a5.747,5.747,0,0,1-2.422-.488,4.05,4.05,0,0,1-1.66-1.328,3.007,3.007,0,0,1-.6-1.768h3.076a1.272,1.272,0,0,0,.488,1.069,2.009,2.009,0,0,0,1.2.337,1.58,1.58,0,0,0,1.011-.273A.875.875,0,0,0,16.973-2.969Zm4.3-2.412A6.236,6.236,0,0,1,21.885-8.2a4.4,4.4,0,0,1,1.768-1.9,5.323,5.323,0,0,1,2.705-.664,4.858,4.858,0,0,1,3.74,1.47,5.64,5.64,0,0,1,1.367,4v.117a5.472,5.472,0,0,1-1.372,3.921A4.871,4.871,0,0,1,26.377.2a4.927,4.927,0,0,1-3.623-1.353,5.29,5.29,0,0,1-1.475-3.667Zm3.291.205a3.932,3.932,0,0,0,.459,2.148,1.529,1.529,0,0,0,1.357.684q1.758,0,1.8-2.705v-.332q0-2.842-1.816-2.842-1.65,0-1.787,2.451ZM38.447-2.969a.76.76,0,0,0-.439-.674,6.685,6.685,0,0,0-1.67-.527,7.615,7.615,0,0,1-2.031-.718,3.4,3.4,0,0,1-1.221-1.079,2.577,2.577,0,0,1-.42-1.455,2.92,2.92,0,0,1,1.2-2.4,4.948,4.948,0,0,1,3.145-.942,5.482,5.482,0,0,1,3.359.947,2.962,2.962,0,0,1,1.27,2.49h-3.3q0-1.27-1.338-1.27a1.326,1.326,0,0,0-.869.288.892.892,0,0,0-.352.718.819.819,0,0,0,.43.713,4.06,4.06,0,0,0,1.372.449,11.857,11.857,0,0,1,1.655.42,3.007,3.007,0,0,1,2.383,2.939A2.767,2.767,0,0,1,40.337-.713,5.632,5.632,0,0,1,37.012.2,5.747,5.747,0,0,1,34.59-.293a4.05,4.05,0,0,1-1.66-1.328,3.007,3.007,0,0,1-.6-1.768H35.41A1.272,1.272,0,0,0,35.9-2.319a2.009,2.009,0,0,0,1.2.337,1.58,1.58,0,0,0,1.011-.273A.875.875,0,0,0,38.447-2.969Z" transform="translate(1084 4310)" fill="#fff"/>
  </g>
</svg>
