<svg xmlns="http://www.w3.org/2000/svg" width="369" height="68" viewBox="0 0 369 68">
  <g id="Grupo_80750" data-name="Grupo 80750" transform="translate(-180 -1521)">
    <path id="Rectángulo_33981" data-name="Rectángulo 33981" d="M0,0H335a34,34,0,0,1,34,34v0a34,34,0,0,1-34,34H0a0,0,0,0,1,0,0V0A0,0,0,0,1,0,0Z" transform="translate(180 1521)" fill="#40327b"/>
    <path id="hacker-working-in-the-darkness" d="M0,29.662H31.446c4.683-7.3,17.115-12.526,31.717-12.526q2.241,0,4.407.161V.084Q65.386,0,63.164,0C31.621,0,5.393,12.8,0,29.662Z" transform="translate(209.662 1521) rotate(90)" fill="#583ae2"/>
    <g id="Elipse_4717" data-name="Elipse 4717" transform="translate(196 1560)" fill="none" stroke="#2ff980" stroke-width="5">
      <ellipse cx="12" cy="12.5" rx="12" ry="12.5" stroke="none"/>
      <ellipse cx="12" cy="12.5" rx="9.5" ry="10" fill="none"/>
    </g>
    <circle id="Elipse_4718" data-name="Elipse 4718" cx="2.25" cy="2.25" r="2.25" transform="translate(193.331 1526)" fill="#2ff980"/>
  </g>
</svg>
