<svg xmlns="http://www.w3.org/2000/svg" xmlns:xlink="http://www.w3.org/1999/xlink" width="523" height="295" viewBox="0 0 523 295">
  <defs>
    <filter id="Rectángulo_34124" x="0" y="0" width="523" height="295" filterUnits="userSpaceOnUse">
      <feOffset dy="3" input="SourceAlpha"/>
      <feGaussianBlur stdDeviation="3" result="blur"/>
      <feFlood flood-opacity="0.161"/>
      <feComposite operator="in" in2="blur"/>
      <feComposite in="SourceGraphic"/>
    </filter>
  </defs>
  <g id="Grupo_84784" data-name="Grupo 84784" transform="translate(-1746 6712)">
    <g transform="matrix(1, 0, 0, 1, 1746, -6712)" filter="url(#Rectángulo_34124)">
      <rect id="Rectángulo_34124-2" data-name="Rectángulo 34124" width="505" height="277" rx="20" transform="translate(9 6)" fill="#fff"/>
    </g>
    <g id="Grupo_82952" data-name="Grupo 82952" transform="translate(1546.429 -6877.734)">
      <path id="Trazado_120860" data-name="Trazado 120860" d="M617.207,546.734c-16.558-14.124-36.52-99.3-104.9-54.939-35.33,22.921-94.9-19.677-144.214-4.964-45.285,13.512-49.65,58.031-45.268,72.538,8.851,29.3-18.693,33.664-44.244,46.254-40.08,19.749-10.377,89.891,27.487,90.223s266.954,0,266.954,0,55.071-1.258,77.944-31.617C675.579,631.56,659.975,583.216,617.207,546.734Z" transform="translate(0 -247.617)" fill="#daf1f5"/>
      <g id="Grupo_82940" data-name="Grupo 82940" transform="translate(328.641 281.403)">
        <path id="Trazado_120861" data-name="Trazado 120861" d="M1043.09,1701.359s.479,7.735,1.976,7.846c.2.015,7.59.015,7.59.015l9.435-.055a3.061,3.061,0,0,0-2.82-2.754c-2.758-.48-7.374-2.419-9.044-6.064C1048.469,1696.512,1043.09,1701.359,1043.09,1701.359Z" transform="translate(-979.668 -1542.394)" fill="#163560"/>
        <g id="Grupo_82937" data-name="Grupo 82937" transform="translate(24.498 28.412)">
          <path id="Trazado_120862" data-name="Trazado 120862" d="M1012.732,1180.086s4.11,1.056,6.723.269,7.11.505,7.834,1.458.458,1.331-.834,1.66-5.871,2.282-8.88,1.151a23.973,23.973,0,0,0-6.933-1.171Z" transform="translate(-977.209 -1139.8)" fill="#e49963"/>
          <path id="Trazado_120863" data-name="Trazado 120863" d="M813.045,946.569s4.617,32.817,12.263,35.757c3.773,1.45,20.445,4.738,25.377,5.068,0,0,1.208-.98.914-4.969,0,0-17.468-6.413-19.95-9.9-3.693-5.191,2.293-21.2-2.342-26.08S816.868,939.474,813.045,946.569Z" transform="translate(-813.045 -941.988)" fill="#40327b"/>
        </g>
        <path id="Trazado_120864" data-name="Trazado 120864" d="M735.452,1460v-7.155H724.187a.554.554,0,0,1-.553-.553v-1.146a.554.554,0,0,1,.553-.553h11.265v-40.731a2.084,2.084,0,0,1,2.078-2.078h2.229a2.084,2.084,0,0,1,2.078,2.078v40.731H753.1a.555.555,0,0,1,.553.553v1.146a.554.554,0,0,1-.553.553H741.837V1460c8.15.616,14.68,3.55,16.512,7.341h-39.41C720.771,1463.552,727.3,1460.617,735.452,1460Z" transform="translate(-710.364 -1300.561)" fill="#a6c7f9"/>
        <path id="Trazado_120865" data-name="Trazado 120865" d="M793.3,1283.076a57.525,57.525,0,0,0,4.51,6.453c4.963,6.265,10.365,11.431,11.306,16.313a22.1,22.1,0,0,0,.872,3.125c.393,1.119.879,2.294,1.44,3.51a108.129,108.129,0,0,0,8.4,14.359c5.436,8.054,10.547,14.775,10.547,14.775l9.374-.4c-.375-.939-4.464-12.06-9.933-25.651-2.221-5.517-4.582-11.385-6.861-17.045q-.455-1.134-.907-2.255c-.7-1.732-1.382-3.437-2.052-5.1-5.135-12.761-9.226-22.923-9.226-22.923s-20.525-7.775-22.656-2.737C786.352,1269.659,787.783,1273.729,793.3,1283.076Z" transform="translate(-767.242 -1180.943)" fill="#e58638"/>
        <path id="Trazado_120866" data-name="Trazado 120866" d="M885.69,1582.978s-6.52,4.19-5.887,5.55c.084.181,3.687,6.634,3.687,6.634l4.647,8.211a3.061,3.061,0,0,0,1.03-3.8c-.925-2.642-1.483-7.617.885-10.853C892.544,1585.312,885.69,1582.978,885.69,1582.978Z" transform="translate(-843.973 -1446.11)" fill="#163560"/>
        <path id="Trazado_120867" data-name="Trazado 120867" d="M817.586,1268.21s25.763,16.047,28.638,26.832-34.27,33.791-34.27,33.791-4.074-3.595-4.793-6.231c0,0,16.791-20.116,20.433-24.625,2.237-2.77-33.074-9.587-37.388-16.3s-2.769-12.356-2.769-12.356Z" transform="translate(-767.048 -1184.601)" fill="#ee9849"/>
        <path id="Rectángulo_34334" data-name="Rectángulo 34334" d="M7.19,0H49.371a7.19,7.19,0,0,1,7.19,7.19v0a7.19,7.19,0,0,1-7.19,7.19H7.19A7.19,7.19,0,0,1,0,7.19v0A7.19,7.19,0,0,1,7.19,0Z" transform="translate(0 104.216)" fill="#1c468a"/>
        <path id="Trazado_120868" data-name="Trazado 120868" d="M835.264,870.893a14.54,14.54,0,0,1,3.925,3.557c-6.172,1.6-16.4-4.123-16.4-4.123a15.14,15.14,0,0,0,5.445-8.535q.112-.444.2-.91a18.529,18.529,0,0,0,.334-3.212l2.835,2.54,4.714,4.224a40.5,40.5,0,0,1-.7,4.767Q835.465,869.991,835.264,870.893Z" transform="translate(-796.639 -843.525)" fill="#e49963"/>
        <path id="Trazado_120869" data-name="Trazado 120869" d="M783.519,950.042c.884,11.891-.6,29.967.4,33.1.866,2.7,11.051,1.1,14.988.2,1.457-.334,3.222-.811,5.045-1.375,5.084-1.574,10.624-3.822,11.218-5.491a1.4,1.4,0,0,0,.055-.192,1.526,1.526,0,0,0-.011-.7,11.9,11.9,0,0,1-1.052-3.877c-.1-2.352-.085-5.121-.174-8.1,0-.335-.009-.7-.046-1.035l0-.122c0-.064,0-.126,0-.191-.085-3.321-.259-6.812-.46-10.275-.128-2.175-.276-4.328-.446-6.392a85.468,85.468,0,0,0-1.832-13.058,20.969,20.969,0,0,0-6.736-10.4l-1.876-1.609a10.85,10.85,0,0,1-6.808-.907c-2.423-1.151-3.26-1.975-3.682-1.664C786.5,922.277,782.475,935.507,783.519,950.042Z" transform="translate(-763.88 -893.558)" fill="#583ae2"/>
        <path id="Trazado_120870" data-name="Trazado 120870" d="M859.483,1157.2c5.084-1.574,10.624-3.822,11.218-5.491a1.419,1.419,0,0,0,.055-.192c0-.233-.006-.466-.011-.7a11.907,11.907,0,0,1-1.051-3.877c-.1-2.352-.085-5.121-.174-8.1,0-.335-.009-.7-.046-1.035l0-.122c0-.064,0-.127,0-.191l-19.2-8.71S849.158,1144.264,859.483,1157.2Z" transform="translate(-819.44 -1068.767)" fill="#40327b"/>
        <path id="Trazado_120871" data-name="Trazado 120871" d="M861.652,876.906a40.486,40.486,0,0,1-.7,4.767c-4.6-1.487-6.692-5.646-7.389-7.409-.2-.5-.284-.806-.284-.806l.487-.1,3.169-.672Z" transform="translate(-821.976 -855.996)" fill="#d68d5d"/>
        <path id="Trazado_120872" data-name="Trazado 120872" d="M857.783,814.8s-10.114,1.141-10.728-5.169-2.332-10.412,4.1-11.407,7.922,1.29,8.639,3.346S860.4,814.343,857.783,814.8Z" transform="translate(-816.242 -793.94)" fill="#e49963"/>
        <path id="Trazado_120873" data-name="Trazado 120873" d="M834.068,790.2a10.392,10.392,0,0,1,9.848-9.243c6.306-.594,2.79-6.021,2.118-6.887,0,0-4.831.662-9.784,1.481C825.855,777.264,833.047,788.892,834.068,790.2Z" transform="translate(-803.211 -774.066)" fill="#2b478b"/>
        <g id="Grupo_82938" data-name="Grupo 82938" transform="translate(55.126 53.741)">
          <rect id="Rectángulo_34335" data-name="Rectángulo 34335" width="0.931" height="24.375" transform="translate(25.573 23.47) rotate(-161.999)" fill="#4a75cb"/>
          <rect id="Rectángulo_34336" data-name="Rectángulo 34336" width="25.579" height="1.53" transform="translate(25.573 23.47) rotate(-178.776)" fill="#4a75cb"/>
        </g>
        <g id="Grupo_82939" data-name="Grupo 82939" transform="translate(26.536 30.519)">
          <path id="Trazado_120874" data-name="Trazado 120874" d="M998.469,1209.9s3.969,1.5,6.653,1.008,7.011,1.286,7.625,2.313.309,1.374-1.012,1.558-6.086,1.621-8.952.166a23.978,23.978,0,0,0-6.762-1.929Z" transform="translate(-967.099 -1166.679)" fill="#e49963"/>
          <path id="Trazado_120875" data-name="Trazado 120875" d="M825.088,958.26s.971,33.126,8.246,36.891c3.59,1.858,19.8,6.963,24.664,7.835,0,0,1.309-.841,1.456-4.839,0,0-16.654-8.3-18.737-12.04-3.1-5.566,4.617-20.823.548-26.179S829.67,951.63,825.088,958.26Z" transform="translate(-825.088 -954.439)" fill="#583ae2"/>
        </g>
      </g>
      <rect id="Rectángulo_34337" data-name="Rectángulo 34337" width="165.323" height="213.794" rx="3" transform="translate(596.525 394.861) rotate(180)" fill="#583ae2"/>
      <rect id="Rectángulo_34338" data-name="Rectángulo 34338" width="133.105" height="169.746" transform="translate(580.551 373.221) rotate(180)" fill="#826be9"/>
      <g id="Grupo_82941" data-name="Grupo 82941" transform="translate(457.543 223.647)">
        <path id="Trazado_120876" data-name="Trazado 120876" d="M2011.052,726.956h0a7.023,7.023,0,0,1-7.023-7.023v-97.1a7.023,7.023,0,0,1,7.023-7.023h0a7.023,7.023,0,0,1,7.023,7.023v97.1A7.023,7.023,0,0,1,2011.052,726.956Z" transform="translate(-1906.919 -584.833)" fill="#2ff980"/>
        <path id="Trazado_120877" data-name="Trazado 120877" d="M1875.054,574.838h0a7.023,7.023,0,0,1-7.023-7.023V439.738a7.023,7.023,0,0,1,7.023-7.023h0a7.023,7.023,0,0,1,7.023,7.023V567.815A7.023,7.023,0,0,1,1875.054,574.838Z" transform="translate(-1793.932 -432.715)" fill="#2ff980"/>
        <path id="Trazado_120878" data-name="Trazado 120878" d="M1726.66,858.93h0a7.023,7.023,0,0,1-7.023-7.023v-70.22a7.023,7.023,0,0,1,7.023-7.023h0a7.023,7.023,0,0,1,7.023,7.023v70.22A7.023,7.023,0,0,1,1726.66,858.93Z" transform="translate(-1670.646 -716.807)" fill="#2ff980"/>
        <path id="Trazado_120879" data-name="Trazado 120879" d="M1582.262,668.006h0a7.023,7.023,0,0,1-7.023-7.023V551.88a7.023,7.023,0,0,1,7.023-7.023h0a7.023,7.023,0,0,1,7.023,7.023v109.1A7.023,7.023,0,0,1,1582.262,668.006Z" transform="translate(-1550.68 -525.883)" fill="#2ff980"/>
        <path id="Trazado_120880" data-name="Trazado 120880" d="M1444.137,879.165v53.727a7.023,7.023,0,0,1-7.023,7.023h0a7.023,7.023,0,0,1-7.023-7.023V879.165a7.023,7.023,0,0,1,7.023-7.023h0A7.023,7.023,0,0,1,1444.137,879.165Z" transform="translate(-1430.091 -797.791)" fill="#2ff980"/>
      </g>
      <g id="Grupo_82942" data-name="Grupo 82942" transform="translate(457.388 215.037)">
        <path id="Trazado_120881" data-name="Trazado 120881" d="M1573.135,493.452h11.9a1.23,1.23,0,0,1,0,2.461h-11.9a1.23,1.23,0,1,1,0-2.461Z" transform="translate(-1547.754 -474.565)" fill="#a6c7f9"/>
        <path id="Trazado_120882" data-name="Trazado 120882" d="M1627.424,519.916h2.709a1.23,1.23,0,0,1,0,2.461h-2.709a1.23,1.23,0,1,1,0-2.461Z" transform="translate(-1592.858 -496.552)" fill="#a6c7f9"/>
        <path id="Trazado_120883" data-name="Trazado 120883" d="M1862.824,381.829h11.895a1.23,1.23,0,1,1,0,2.461h-11.895a1.23,1.23,0,0,1,0-2.461Z" transform="translate(-1788.429 -381.829)" fill="#a6c7f9"/>
        <path id="Trazado_120884" data-name="Trazado 120884" d="M1917.114,408.293h2.709a1.234,1.234,0,0,1,1.231,1.23h0a1.234,1.234,0,0,1-1.231,1.231h-2.709a1.234,1.234,0,0,1-1.23-1.231h0A1.234,1.234,0,0,1,1917.114,408.293Z" transform="translate(-1833.532 -403.815)" fill="#a6c7f9"/>
        <path id="Trazado_120885" data-name="Trazado 120885" d="M2003.427,564.8h11.895a1.231,1.231,0,0,1,0,2.461h-11.895a1.231,1.231,0,1,1,0-2.461Z" transform="translate(-1905.241 -533.845)" fill="#a6c7f9"/>
        <path id="Trazado_120886" data-name="Trazado 120886" d="M2057.716,591.268h2.709a1.234,1.234,0,0,1,1.23,1.231h0a1.234,1.234,0,0,1-1.23,1.23h-2.709a1.234,1.234,0,0,1-1.231-1.23h0A1.234,1.234,0,0,1,2057.716,591.268Z" transform="translate(-1950.344 -555.831)" fill="#a6c7f9"/>
        <path id="Trazado_120887" data-name="Trazado 120887" d="M1719.95,723.73h11.9a1.231,1.231,0,1,1,0,2.461h-11.9a1.231,1.231,0,0,1,0-2.461Z" transform="translate(-1669.729 -665.88)" fill="#a6c7f9"/>
        <path id="Trazado_120888" data-name="Trazado 120888" d="M1774.24,750.194h2.709a1.234,1.234,0,0,1,1.231,1.23h0a1.234,1.234,0,0,1-1.231,1.231h-2.709a1.234,1.234,0,0,1-1.23-1.231h0A1.234,1.234,0,0,1,1774.24,750.194Z" transform="translate(-1714.833 -687.867)" fill="#a6c7f9"/>
        <path id="Trazado_120889" data-name="Trazado 120889" d="M1430.4,820.911h11.9a1.231,1.231,0,1,1,0,2.461h-11.9a1.231,1.231,0,0,1,0-2.461Z" transform="translate(-1429.174 -746.618)" fill="#a6c7f9"/>
        <path id="Trazado_120890" data-name="Trazado 120890" d="M1484.694,847.375h2.709a1.23,1.23,0,1,1,0,2.461h-2.709a1.23,1.23,0,0,1,0-2.461Z" transform="translate(-1474.278 -768.605)" fill="#a6c7f9"/>
      </g>
      <g id="Grupo_82943" data-name="Grupo 82943" transform="translate(341.41 263.703)">
        <path id="Trazado_120891" data-name="Trazado 120891" d="M1450.135,757.3a4.371,4.371,0,1,1,4.371-4.371A4.376,4.376,0,0,1,1450.135,757.3Zm0-7.05a2.679,2.679,0,1,0,2.679,2.679A2.682,2.682,0,0,0,1450.135,750.248Z" transform="translate(-1326.979 -735.173)" fill="#45bbcc"/>
        <path id="Trazado_120892" data-name="Trazado 120892" d="M865.021,684.533a.844.844,0,0,1-.6-.248L851.287,671.15H744.573a.846.846,0,1,1,0-1.692H851.988l13.631,13.631a.846.846,0,0,1-.6,1.444Z" transform="translate(-743.727 -669.458)" fill="#45bbcc"/>
      </g>
      <g id="Grupo_82944" data-name="Grupo 82944" transform="translate(485.331 369.254)">
        <path id="Trazado_120893" data-name="Trazado 120893" d="M1598.694,1302.023a4.371,4.371,0,1,1,4.371-4.371A4.376,4.376,0,0,1,1598.694,1302.023Zm0-7.05a2.679,2.679,0,1,0,2.679,2.679A2.682,2.682,0,0,0,1598.694,1294.973Z" transform="translate(-1594.323 -1293.281)" fill="#45bbcc"/>
        <path id="Trazado_120894" data-name="Trazado 120894" d="M1745.759,1350.023H1640.036l-13.631-13.631a.846.846,0,0,1,1.2-1.2l13.135,13.135h105.023a.846.846,0,0,1,0,1.692Z" transform="translate(-1620.771 -1327.898)" fill="#45bbcc"/>
      </g>
      <g id="Grupo_82945" data-name="Grupo 82945" transform="translate(414.897 189.528)">
        <path id="Trazado_120895" data-name="Trazado 120895" d="M1884.453,318.907a4.371,4.371,0,1,1,4.371-4.371A4.376,4.376,0,0,1,1884.453,318.907Zm0-7.05a2.679,2.679,0,1,0,2.679,2.679A2.682,2.682,0,0,0,1884.453,311.857Z" transform="translate(-1761.297 -296.782)" fill="#45bbcc"/>
        <path id="Trazado_120896" data-name="Trazado 120896" d="M1299.339,246.143a.843.843,0,0,1-.6-.248l-13.136-13.135H1178.891a.846.846,0,0,1,0-1.692h107.416l13.631,13.631a.846.846,0,0,1-.6,1.444Z" transform="translate(-1178.045 -231.068)" fill="#45bbcc"/>
      </g>
      <path id="Trazado_120897" data-name="Trazado 120897" d="M815.477,636.842H745.37a2.143,2.143,0,0,1-2.143-2.143h0a2.143,2.143,0,0,1,2.143-2.143h70.107a2.143,2.143,0,0,1,2.143,2.143h0A2.143,2.143,0,0,1,815.477,636.842Z" transform="translate(-401.901 -375.096)" fill="#583ae2"/>
      <path id="Trazado_120898" data-name="Trazado 120898" d="M948.4,596.842H905.37a2.143,2.143,0,0,1-2.143-2.143h0a2.143,2.143,0,0,1,2.143-2.143H948.4a2.143,2.143,0,0,1,2.143,2.143h0A2.143,2.143,0,0,1,948.4,596.842Z" transform="translate(-534.829 -341.864)" fill="#583ae2"/>
      <path id="Trazado_120899" data-name="Trazado 120899" d="M948.4,556.842H905.37a2.143,2.143,0,0,1-2.143-2.143h0a2.143,2.143,0,0,1,2.143-2.143H948.4a2.143,2.143,0,0,1,2.143,2.143h0A2.143,2.143,0,0,1,948.4,556.842Z" transform="translate(-534.829 -308.632)" fill="#583ae2"/>
      <path id="Trazado_120900" data-name="Trazado 120900" d="M1246.9,195.864H1176.8a2.143,2.143,0,0,1-2.143-2.143h0a2.143,2.143,0,0,1,2.143-2.143H1246.9a2.143,2.143,0,0,1,2.143,2.143h0A2.143,2.143,0,0,1,1246.9,195.864Z" transform="translate(-760.329 -8.732)" fill="#583ae2"/>
      <g id="Grupo_82948" data-name="Grupo 82948" transform="translate(516.891 390.981)">
        <g id="Grupo_82947" data-name="Grupo 82947" transform="translate(0 0)">
          <circle id="Elipse_5323" data-name="Elipse 5323" cx="15.256" cy="15.256" r="15.256" transform="translate(0 21.576) rotate(-45)" fill="#40327b"/>
          <path id="Trazado_120901" data-name="Trazado 120901" d="M1845.043,1472.984a12.9,12.9,0,0,1,9.192,21.943l-9.192-9.046-12.051,4.6a12.9,12.9,0,0,1,12.051-17.5Z" transform="translate(-1823.468 -1464.305)" fill="#fff"/>
          <g id="Grupo_82946" data-name="Grupo 82946" transform="translate(23.068 15.029)">
            <path id="Trazado_120902" data-name="Trazado 120902" d="M1917.576,1510.512h5.49a.393.393,0,0,1,.392.392h0a.393.393,0,0,1-.392.392h-5.49a.393.393,0,0,1-.392-.392h0A.393.393,0,0,1,1917.576,1510.512Z" transform="translate(-1917.184 -1510.512)" fill="#40327b"/>
            <path id="Trazado_120903" data-name="Trazado 120903" d="M1917.576,1517.851h5.49a.392.392,0,1,1,0,.784h-5.49a.392.392,0,1,1,0-.784Z" transform="translate(-1917.184 -1516.609)" fill="#40327b"/>
            <path id="Trazado_120904" data-name="Trazado 120904" d="M1936.622,1525.19h2.267a.392.392,0,1,1,0,.784h-2.267a.392.392,0,0,1,0-.784Z" transform="translate(-1933.007 -1522.706)" fill="#40327b"/>
          </g>
        </g>
        <path id="Trazado_120905" data-name="Trazado 120905" d="M1829.4,1477.257l6.035-6.035H1829.4Z" transform="translate(-1821.187 -1462.842)" fill="#40327b"/>
      </g>
      <g id="Grupo_82951" data-name="Grupo 82951" transform="translate(573.99 396.559)">
        <g id="Grupo_82950" data-name="Grupo 82950" transform="translate(0 0)">
          <circle id="Elipse_5324" data-name="Elipse 5324" cx="15.256" cy="15.256" r="15.256" transform="translate(0 30.475) rotate(-87.145)" fill="#40327b"/>
          <path id="Trazado_120906" data-name="Trazado 120906" d="M2136.643,1485.881a12.9,12.9,0,1,1,5.074,10.254l7.821-10.254-12.051,4.6A12.879,12.879,0,0,1,2136.643,1485.881Z" transform="translate(-2133.542 -1469.884)" fill="#fff"/>
          <g id="Grupo_82949" data-name="Grupo 82949" transform="translate(17.595 9.45)">
            <path id="Trazado_120907" data-name="Trazado 120907" d="M2222.7,1510.512h5.49a.393.393,0,0,1,.393.392h0a.393.393,0,0,1-.393.392h-5.49a.393.393,0,0,1-.392-.392h0A.393.393,0,0,1,2222.7,1510.512Z" transform="translate(-2222.304 -1510.512)" fill="#40327b"/>
            <path id="Trazado_120908" data-name="Trazado 120908" d="M2222.7,1517.851h5.49a.392.392,0,1,1,0,.784h-5.49a.392.392,0,0,1,0-.784Z" transform="translate(-2222.304 -1516.609)" fill="#40327b"/>
            <path id="Trazado_120909" data-name="Trazado 120909" d="M2241.742,1525.19h2.267a.392.392,0,1,1,0,.784h-2.267a.392.392,0,0,1,0-.784Z" transform="translate(-2238.127 -1522.706)" fill="#40327b"/>
          </g>
        </g>
        <path id="Trazado_120910" data-name="Trazado 120910" d="M2134.4,1477.257l6.035-6.035H2134.4Z" transform="translate(-2131.68 -1468.42)" fill="#40327b"/>
      </g>
    </g>
  </g>
</svg>
