<svg xmlns="http://www.w3.org/2000/svg" xmlns:xlink="http://www.w3.org/1999/xlink" width="96" height="96" viewBox="0 0 96 96">
  <defs>
    <clipPath id="clip-path">
      <rect id="Rectángulo_34005" data-name="Rectángulo 34005" width="96" height="96" transform="translate(1277 4042)" fill="#fff" stroke="#707070" stroke-width="1"/>
    </clipPath>
  </defs>
  <g id="Enmascarar_grupo_74" data-name="Enmascarar grupo 74" transform="translate(-1277 -4042)" clip-path="url(#clip-path)">
    <g id="control-de-calidad" transform="translate(1277 4042)">
      <g id="Grupo_80717" data-name="Grupo 80717">
        <g id="Grupo_80716" data-name="Grupo 80716">
          <path id="Trazado_114326" data-name="Trazado 114326" d="M80.156,12.647H15.86l-.485.188V93.656a.938.938,0,0,0,.938.938H79.688a.938.938,0,0,0,.938-.937V12.835Z" fill="#fff3de"/>
        </g>
      </g>
      <g id="Grupo_80718" data-name="Grupo 80718">
        <path id="Trazado_114327" data-name="Trazado 114327" d="M24.75,93.656V12.835l.485-.187H15.86l-.485.188V93.656a.938.938,0,0,0,.938.938h9.375A.938.938,0,0,1,24.75,93.656Z" fill="#ffe5c2"/>
      </g>
      <g id="Grupo_80748" data-name="Grupo 80748">
        <g id="Grupo_80719" data-name="Grupo 80719">
          <path id="Trazado_114328" data-name="Trazado 114328" d="M80.625,12.835H15.375V2.344a.938.938,0,0,1,.938-.937H79.688a.938.938,0,0,1,.938.937Z" fill="#583ae2"/>
        </g>
        <g id="Grupo_80720" data-name="Grupo 80720">
          <path id="Trazado_114329" data-name="Trazado 114329" d="M25.688,1.406H16.313a.938.938,0,0,0-.937.938V12.835H24.75V2.344a.938.938,0,0,1,.938-.937Z" fill="#40327b"/>
        </g>
        <g id="Grupo_80735" data-name="Grupo 80735">
          <g id="Grupo_80721" data-name="Grupo 80721">
            <path id="Trazado_114330" data-name="Trazado 114330" d="M32.022,56.01h-5.21a.562.562,0,0,1-.562-.562v-5.21a.562.562,0,0,1,.563-.562h5.21a.562.562,0,0,1,.563.563v5.21A.563.563,0,0,1,32.022,56.01Z" fill="#fff"/>
          </g>
          <g id="Grupo_80722" data-name="Grupo 80722">
            <path id="Trazado_114331" data-name="Trazado 114331" d="M32.022,66.459h-5.21a.562.562,0,0,1-.562-.562v-5.21a.562.562,0,0,1,.563-.562h5.21a.562.562,0,0,1,.563.563V65.9A.563.563,0,0,1,32.022,66.459Z" fill="#fff"/>
          </g>
          <g id="Grupo_80723" data-name="Grupo 80723">
            <path id="Trazado_114332" data-name="Trazado 114332" d="M32.022,76.908h-5.21a.562.562,0,0,1-.562-.562v-5.21a.562.562,0,0,1,.563-.562h5.21a.562.562,0,0,1,.563.563v5.21A.562.562,0,0,1,32.022,76.908Z" fill="#fff"/>
          </g>
          <g id="Grupo_80734" data-name="Grupo 80734">
            <g id="Grupo_80733" data-name="Grupo 80733">
              <g id="Grupo_80724" data-name="Grupo 80724">
                <path id="Trazado_114333" data-name="Trazado 114333" d="M32.022,87.356h-5.21a.562.562,0,0,1-.562-.562v-5.21a.562.562,0,0,1,.563-.562h5.21a.562.562,0,0,1,.563.563v5.21A.562.562,0,0,1,32.022,87.356Z" fill="#fff"/>
              </g>
              <g id="Grupo_80725" data-name="Grupo 80725">
                <path id="Trazado_114334" data-name="Trazado 114334" d="M32.022,56.01h-5.21a.562.562,0,0,1-.562-.562v-5.21a.562.562,0,0,1,.563-.562h5.21a.562.562,0,0,1,.563.563v5.21A.563.563,0,0,1,32.022,56.01Z" fill="#583ae2"/>
              </g>
              <g id="Grupo_80726" data-name="Grupo 80726">
                <path id="Trazado_114335" data-name="Trazado 114335" d="M29.29,55.448v-5.21a.562.562,0,0,1,.563-.562h-3.04a.562.562,0,0,0-.562.563v5.21a.562.562,0,0,0,.563.563h3.04A.563.563,0,0,1,29.29,55.448Z" fill="#40327b"/>
              </g>
              <g id="Grupo_80727" data-name="Grupo 80727">
                <path id="Trazado_114336" data-name="Trazado 114336" d="M32.022,66.459h-5.21a.562.562,0,0,1-.562-.562v-5.21a.562.562,0,0,1,.563-.562h5.21a.562.562,0,0,1,.563.563V65.9A.563.563,0,0,1,32.022,66.459Z" fill="#583ae2"/>
              </g>
              <g id="Grupo_80728" data-name="Grupo 80728">
                <path id="Trazado_114337" data-name="Trazado 114337" d="M29.29,65.9v-5.21a.562.562,0,0,1,.563-.562h-3.04a.562.562,0,0,0-.562.563V65.9a.562.562,0,0,0,.563.563h3.04A.563.563,0,0,1,29.29,65.9Z" fill="#40327b"/>
              </g>
              <g id="Grupo_80729" data-name="Grupo 80729">
                <path id="Trazado_114338" data-name="Trazado 114338" d="M32.022,76.908h-5.21a.562.562,0,0,1-.562-.562v-5.21a.562.562,0,0,1,.563-.562h5.21a.562.562,0,0,1,.563.563v5.21A.562.562,0,0,1,32.022,76.908Z" fill="#583ae2"/>
              </g>
              <g id="Grupo_80730" data-name="Grupo 80730">
                <path id="Trazado_114339" data-name="Trazado 114339" d="M29.29,76.345v-5.21a.562.562,0,0,1,.563-.562h-3.04a.562.562,0,0,0-.562.563v5.21a.562.562,0,0,0,.563.563h3.04A.562.562,0,0,1,29.29,76.345Z" fill="#40327b"/>
              </g>
              <g id="Grupo_80731" data-name="Grupo 80731">
                <path id="Trazado_114340" data-name="Trazado 114340" d="M32.022,87.356h-5.21a.562.562,0,0,1-.562-.562v-5.21a.562.562,0,0,1,.563-.562h5.21a.562.562,0,0,1,.563.563v5.21A.562.562,0,0,1,32.022,87.356Z" fill="#583ae2"/>
              </g>
              <g id="Grupo_80732" data-name="Grupo 80732">
                <path id="Trazado_114341" data-name="Trazado 114341" d="M29.29,86.794v-5.21a.562.562,0,0,1,.563-.562h-3.04a.562.562,0,0,0-.562.563v5.21a.562.562,0,0,0,.563.563h3.04A.562.562,0,0,1,29.29,86.794Z" fill="#40327b"/>
              </g>
            </g>
          </g>
        </g>
        <g id="Grupo_80740" data-name="Grupo 80740">
          <g id="Grupo_80736" data-name="Grupo 80736">
            <path id="Trazado_114342" data-name="Trazado 114342" d="M48.458,6l4.283,4.135a.66.66,0,0,0,.55.179l5.9-.828a.659.659,0,0,1,.741.539l1.034,5.863a.659.659,0,0,0,.34.468l5.256,2.8a.659.659,0,0,1,.283.871l-2.609,5.351a.66.66,0,0,0,0,.578L66.84,31.3a.659.659,0,0,1-.283.871l-5.256,2.8a.659.659,0,0,0-.34.468l-1.034,5.863a.66.66,0,0,1-.741.539l-5.9-.828a.659.659,0,0,0-.55.179l-4.283,4.135a.659.659,0,0,1-.916,0L43.26,41.184a.66.66,0,0,0-.55-.179l-5.9.828a.659.659,0,0,1-.741-.538l-1.034-5.863a.659.659,0,0,0-.34-.468l-5.256-2.8a.659.659,0,0,1-.283-.871l2.609-5.351a.66.66,0,0,0,0-.578L29.16,20.018a.659.659,0,0,1,.283-.871l5.256-2.8a.659.659,0,0,0,.34-.468l1.034-5.863a.659.659,0,0,1,.741-.538l5.9.828a.659.659,0,0,0,.55-.179L47.542,6a.659.659,0,0,1,.916,0Z" fill="#2ff980"/>
          </g>
          <g id="Grupo_80739" data-name="Grupo 80739">
            <g id="Grupo_80737" data-name="Grupo 80737">
              <circle id="Elipse_4796" data-name="Elipse 4796" cx="9.913" cy="9.913" r="9.913" transform="translate(38.087 15.745)" fill="#6ac9d6"/>
            </g>
            <g id="Grupo_80738" data-name="Grupo 80738">
              <path id="Trazado_114343" data-name="Trazado 114343" d="M43.924,25.658a9.917,9.917,0,0,1,6.994-9.475,9.913,9.913,0,1,0,0,18.951,9.916,9.916,0,0,1-6.994-9.475Z" fill="#45bbcc"/>
            </g>
          </g>
        </g>
        <g id="Grupo_80747" data-name="Grupo 80747">
          <g id="Grupo_80741" data-name="Grupo 80741">
            <path id="Trazado_114344" data-name="Trazado 114344" d="M17.791,18.826l2.3,4.652a.659.659,0,0,0,.5.361l5.133.746a.659.659,0,0,1,.365,1.125l-3.715,3.621a.659.659,0,0,0-.19.584l.877,5.113a.659.659,0,0,1-.957.7l-4.591-2.414a.659.659,0,0,0-.614,0L12.3,35.721a.659.659,0,0,1-.957-.7l.877-5.113a.66.66,0,0,0-.19-.584L8.318,25.708a.659.659,0,0,1,.365-1.125l5.133-.746a.66.66,0,0,0,.5-.361l2.3-4.652a.659.659,0,0,1,1.182,0Z" fill="#fed402"/>
          </g>
          <g id="Grupo_80743" data-name="Grupo 80743">
            <g id="Grupo_80742" data-name="Grupo 80742">
              <path id="Trazado_114345" data-name="Trazado 114345" d="M16.375,33.067l.877-5.113a.66.66,0,0,0-.19-.584l-3.576-3.486-4.8.7a.659.659,0,0,0-.365,1.125l3.715,3.621a.659.659,0,0,1,.19.584l-.877,5.113a.659.659,0,0,0,.957.7l4.166-2.19a.647.647,0,0,1-.092-.463Z" fill="#fac600"/>
            </g>
          </g>
          <g id="Grupo_80744" data-name="Grupo 80744">
            <path id="Trazado_114346" data-name="Trazado 114346" d="M79.391,18.826l2.3,4.652a.659.659,0,0,0,.5.361l5.133.746a.659.659,0,0,1,.365,1.125l-3.715,3.621a.659.659,0,0,0-.19.584l.877,5.113a.659.659,0,0,1-.957.7l-4.591-2.414a.659.659,0,0,0-.614,0L73.9,35.721a.659.659,0,0,1-.957-.7l.877-5.113a.66.66,0,0,0-.19-.584l-3.715-3.621a.659.659,0,0,1,.365-1.125l5.133-.746a.66.66,0,0,0,.5-.361l2.3-4.652A.659.659,0,0,1,79.391,18.826Z" fill="#fed402"/>
          </g>
          <g id="Grupo_80746" data-name="Grupo 80746">
            <g id="Grupo_80745" data-name="Grupo 80745">
              <path id="Trazado_114347" data-name="Trazado 114347" d="M77.29,33.54l.877-5.113a.66.66,0,0,0-.19-.584l-3.715-3.621a.658.658,0,0,1-.139-.2l-3.84.558a.659.659,0,0,0-.365,1.125l3.715,3.621a.659.659,0,0,1,.19.584l-.877,5.113a.659.659,0,0,0,.957.7l3.432-1.8a.65.65,0,0,1-.045-.376Z" fill="#fac600"/>
            </g>
          </g>
        </g>
      </g>
      <g id="Grupo_80749" data-name="Grupo 80749">
        <path id="Trazado_114348" data-name="Trazado 114348" d="M69.75,51.225H38.709a1.406,1.406,0,0,0,0,2.813H69.75a1.406,1.406,0,0,0,0-2.812Z"/>
        <path id="Trazado_114349" data-name="Trazado 114349" d="M69.75,61.674H38.709a1.406,1.406,0,0,0,0,2.813H69.75a1.406,1.406,0,0,0,0-2.812Z"/>
        <path id="Trazado_114350" data-name="Trazado 114350" d="M69.75,72.123H38.709a1.406,1.406,0,0,0,0,2.813H69.75a1.406,1.406,0,0,0,0-2.812Z"/>
        <path id="Trazado_114351" data-name="Trazado 114351" d="M69.75,82.571H38.709a1.406,1.406,0,0,0,0,2.813H69.75a1.406,1.406,0,0,0,0-2.812Z"/>
        <path id="Trazado_114352" data-name="Trazado 114352" d="M48,36.977a11.287,11.287,0,0,0,10.465-7,1.406,1.406,0,0,0-2.6-1.073,8.508,8.508,0,1,1,.3-5.631,1.406,1.406,0,0,0,2.7-.788A11.319,11.319,0,1,0,48,36.977Z"/>
        <path id="Trazado_114353" data-name="Trazado 114353" d="M51.486,22.357,47.37,26.473l-2.856-2.856A1.406,1.406,0,0,0,42.526,25.6l3.851,3.851a1.406,1.406,0,0,0,1.989,0l5.11-5.11a1.406,1.406,0,0,0-1.989-1.989Z"/>
        <path id="Trazado_114354" data-name="Trazado 114354" d="M33.991,50.238a1.971,1.971,0,0,0-1.969-1.969h-5.21a1.971,1.971,0,0,0-1.969,1.969v5.21a1.971,1.971,0,0,0,1.969,1.969h5.21a1.971,1.971,0,0,0,1.969-1.969ZM31.179,54.6H27.656V51.082h3.523Z"/>
        <path id="Trazado_114355" data-name="Trazado 114355" d="M33.991,60.686a1.971,1.971,0,0,0-1.969-1.969h-5.21a1.971,1.971,0,0,0-1.969,1.969V65.9a1.971,1.971,0,0,0,1.969,1.969h5.21A1.971,1.971,0,0,0,33.991,65.9Zm-2.813,4.366H27.656V61.53h3.523Z"/>
        <path id="Trazado_114356" data-name="Trazado 114356" d="M33.991,71.135a1.971,1.971,0,0,0-1.969-1.969h-5.21a1.971,1.971,0,0,0-1.969,1.969v5.21a1.971,1.971,0,0,0,1.969,1.969h5.21a1.971,1.971,0,0,0,1.969-1.969ZM31.179,75.5H27.656V71.979h3.523Z"/>
        <path id="Trazado_114357" data-name="Trazado 114357" d="M32.023,79.615h-5.21a1.971,1.971,0,0,0-1.969,1.969v5.21a1.971,1.971,0,0,0,1.969,1.969h5.21a1.971,1.971,0,0,0,1.969-1.969v-5.21A1.971,1.971,0,0,0,32.023,79.615Zm-.844,6.335H27.656V82.427h3.523Z"/>
        <path id="Trazado_114358" data-name="Trazado 114358" d="M89.187,24.6a2.053,2.053,0,0,0-1.668-1.406l-4.745-.69L82.031,21V2.344A2.346,2.346,0,0,0,79.688,0H16.313a2.346,2.346,0,0,0-2.344,2.344V21L13.226,22.5l-4.745.69a2.066,2.066,0,0,0-1.145,3.523l3.433,3.347-.811,4.726a2.066,2.066,0,0,0,3,2.178l1.013-.533V93.656A2.346,2.346,0,0,0,16.313,96H79.688a2.346,2.346,0,0,0,2.344-2.344V68.25a1.406,1.406,0,0,0-2.812,0V93.188H16.781V34.954l.419-.22,4.244,2.231a2.066,2.066,0,0,0,3-2.178l-.811-4.726,3.433-3.347a2.065,2.065,0,0,0-1.145-3.523l-4.745-.69-2.122-4.3A2.053,2.053,0,0,0,17.2,17.052h0a2.077,2.077,0,0,0-.419.047V14.241H33.9l-.183,1.04-4.935,2.624a2.059,2.059,0,0,0-.887,2.729l2.45,5.024L27.9,30.682a2.058,2.058,0,0,0,.887,2.729l4.935,2.624.971,5.5a2.059,2.059,0,0,0,2.322,1.687l5.535-.778,4.02,3.882a2.058,2.058,0,0,0,2.87,0l4.021-3.882,5.535.778a2.058,2.058,0,0,0,2.321-1.687l.971-5.5,4.935-2.624a2.058,2.058,0,0,0,.887-2.729l-2.45-5.023,2.45-5.024a2.058,2.058,0,0,0-.887-2.729l-4.935-2.625-.184-1.04h4.464a1.406,1.406,0,0,0,0-2.812H61.6l-.291-1.652A2.059,2.059,0,0,0,58.99,8.09l-5.535.778L49.435,4.985a2.058,2.058,0,0,0-2.87,0l-4.02,3.882L37.01,8.09a2.059,2.059,0,0,0-2.321,1.687L34.4,11.428H16.781V2.813H79.219v8.616H73.125a1.406,1.406,0,0,0,0,2.813h6.094V17.1a2.087,2.087,0,0,0-.418-.047h0A2.053,2.053,0,0,0,76.948,18.2l-2.122,4.3-4.745.69a2.066,2.066,0,0,0-1.145,3.523l3.434,3.347-.81,4.725a2.063,2.063,0,0,0,3,2.178L78.8,34.734l.418.22V61.688a1.406,1.406,0,0,0,2.813,0V36.433l1.013.532a2.066,2.066,0,0,0,3-2.178l-.81-4.726,3.434-3.347a2.053,2.053,0,0,0,.522-2.117ZM17.2,20.805,18.826,24.1a2.065,2.065,0,0,0,1.555,1.13l3.636.528-2.631,2.564a2.065,2.065,0,0,0-.594,1.828l.621,3.621-3.252-1.71a2.065,2.065,0,0,0-1.922,0l-3.252,1.71.621-3.621a2.066,2.066,0,0,0-.594-1.828l-2.631-2.564,3.636-.528a2.065,2.065,0,0,0,1.555-1.13Zm18.16-3.211a2.053,2.053,0,0,0,1.064-1.465l.909-5.152,5.181.728a2.053,2.053,0,0,0,1.723-.56L48,7.51l3.764,3.634a2.054,2.054,0,0,0,1.723.56l5.181-.728.909,5.153a2.054,2.054,0,0,0,1.064,1.465l4.62,2.456-2.294,4.7a2.055,2.055,0,0,0,0,1.81l2.293,4.7-4.619,2.456a2.053,2.053,0,0,0-1.065,1.465l-.909,5.152-5.181-.728a2.052,2.052,0,0,0-1.723.559L48,43.806l-3.764-3.634a2.051,2.051,0,0,0-1.43-.58,2.107,2.107,0,0,0-.292.02l-5.181.728-.909-5.153a2.053,2.053,0,0,0-1.064-1.465l-4.62-2.456,2.293-4.7a2.053,2.053,0,0,0,0-1.811l-2.293-4.7ZM82.986,28.322a2.066,2.066,0,0,0-.594,1.829l.621,3.621-3.252-1.71a2.065,2.065,0,0,0-1.922,0l-3.252,1.71.621-3.621a2.066,2.066,0,0,0-.594-1.828l-2.631-2.564,3.636-.528a2.066,2.066,0,0,0,1.555-1.13L78.8,20.805l1.626,3.3a2.065,2.065,0,0,0,1.555,1.129l3.636.528Z"/>
      </g>
    </g>
  </g>
</svg>
