<svg xmlns="http://www.w3.org/2000/svg" width="295" height="192.667" viewBox="0 0 295 192.667">
  <g id="Grupo_84773" data-name="Grupo 84773" transform="translate(-810 -6314.443)">
    <rect id="Imagen_24" data-name="Imagen 24" width="295" height="135" rx="19" transform="translate(810 6343.443)" fill="#583ae2"/>
    <g id="Grupo_82341" data-name="Grupo 82341" transform="translate(511.125 6205.201)">
      <g id="Grupo_82343" data-name="Grupo 82343" transform="translate(371.716 109.242)">
        <g id="Grupo_82342" data-name="Grupo 82342">
          <path id="Trazado_119600" data-name="Trazado 119600" d="M463.748,292.64l-85.966-49.632c-3.395-1.96-2.969-5.383.951-7.646l48.788-28.168c3.92-2.262,9.85-2.509,13.245-.549l85.965,49.632c3.395,1.96,2.969,5.383-.951,7.646l-48.787,28.168C473.072,294.354,467.143,294.6,463.748,292.64Z" transform="translate(-375.49 -116.711)" fill="#92b4d1" opacity="0.2"/>
          <path id="Trazado_119601" data-name="Trazado 119601" d="M463.748,287.386l-85.966-49.632a3.959,3.959,0,0,1-2.291-3.26c0-.039,0-4.219,0-4.258.027-1.487,1.125,1.094,3.242-.128l48.788-28.168c3.92-2.263,9.85-2.509,13.245-.549l85.965,49.632c1.133.654,1.955-2.123,2.249-1.24.1.294.035,4.191.042,4.5.033,1.523-1.066,3.136-3.242,4.392l-48.787,28.167C473.072,289.1,467.143,289.346,463.748,287.386Z" transform="translate(-375.49 -116.303)" fill="#2672ab"/>
          <path id="Trazado_119602" data-name="Trazado 119602" d="M463.748,282.854l-85.966-49.632c-3.395-1.96-2.969-5.383.951-7.646l48.788-28.168c3.92-2.263,9.85-2.509,13.245-.549l85.965,49.632c3.395,1.96,2.969,5.383-.951,7.646L476.992,282.3C473.072,284.567,467.143,284.814,463.748,282.854Z" transform="translate(-375.49 -115.951)" fill="#d1ebff"/>
          <path id="Trazado_119603" data-name="Trazado 119603" d="M471.187,294.347c3.395,1.96,9.324,1.714,13.245-.55v-4.18c-3.921,2.263-9.85,2.509-13.245.55Z" transform="translate(-382.929 -123.264)" fill="#3f92d1" opacity="0.5"/>
          <path id="Trazado_119604" data-name="Trazado 119604" d="M463.748,285.729,377.782,236.1c-1.642-.948-2.381-2.238-2.273-3.574a1.742,1.742,0,0,0-.018.234c0,.04,0,4.22,0,4.259a3.959,3.959,0,0,0,2.291,3.26l85.966,49.632Z" transform="translate(-375.49 -118.826)" fill="#3f92d1"/>
          <path id="Trazado_119605" data-name="Trazado 119605" d="M525.779,256.29l-48.787,28.168c-3.921,2.263-9.85,2.509-13.245.549l-85.966-49.632a4.057,4.057,0,0,1-2.265-3.008c-.177,1.387.564,2.736,2.265,3.719l85.966,49.632c3.395,1.96,9.324,1.714,13.245-.55L525.779,257c2.294-1.324,3.381-3.045,3.217-4.638C528.82,253.743,527.735,255.162,525.779,256.29Z" transform="translate(-375.49 -118.814)" fill="#fff"/>
          <path id="Trazado_119606" data-name="Trazado 119606" d="M447.355,269.221l-30.6-17.664c-.612-.354-.536-.971.172-1.38l11.487-6.632a2.655,2.655,0,0,1,2.391-.1L461.4,261.11c.613.354.536.972-.172,1.381l-11.487,6.631A2.657,2.657,0,0,1,447.355,269.221Z" transform="translate(-378.666 -119.657)" fill="#fff" opacity="0.3"/>
          <path id="Trazado_119607" data-name="Trazado 119607" d="M416.932,250.9l11.487-6.632a2.661,2.661,0,0,1,2.391-.1L461.4,261.836a.923.923,0,0,1,.283.248.64.64,0,0,0-.283-.974l-30.594-17.663a2.655,2.655,0,0,0-2.391.1l-11.487,6.632c-.563.325-.718.78-.454,1.132A1.33,1.33,0,0,1,416.932,250.9Z" transform="translate(-378.667 -119.657)" fill="#a8cff0"/>
          <path id="Trazado_119608" data-name="Trazado 119608" d="M437.714,203.744l5.273,3.043a2.674,2.674,0,0,0,2.42,0,.737.737,0,0,0-.007-1.4l-5.273-3.044a2.676,2.676,0,0,0-2.421,0A.738.738,0,0,0,437.714,203.744Zm9.027,5.212,2.5,1.442a2.676,2.676,0,0,0,2.421,0,.738.738,0,0,0-.007-1.4l-2.5-1.441a2.676,2.676,0,0,0-2.421,0A.737.737,0,0,0,446.741,208.956Zm6.253,3.61,2.5,1.442a2.676,2.676,0,0,0,2.421,0,.738.738,0,0,0-.008-1.4l-2.5-1.441a2.674,2.674,0,0,0-2.42,0A.737.737,0,0,0,452.994,212.565Zm6.252,3.611,2.5,1.441a2.674,2.674,0,0,0,2.42,0,.738.738,0,0,0-.007-1.4l-2.5-1.441a2.676,2.676,0,0,0-2.421,0A.738.738,0,0,0,459.246,216.176Zm6.253,3.61,2.5,1.441a2.676,2.676,0,0,0,2.421,0,.738.738,0,0,0-.007-1.4l-2.5-1.442a2.674,2.674,0,0,0-2.42,0A.738.738,0,0,0,465.5,219.786Zm6.253,3.61,2.5,1.442a2.676,2.676,0,0,0,2.42,0,.737.737,0,0,0-.007-1.4l-2.5-1.442a2.678,2.678,0,0,0-2.421,0A.738.738,0,0,0,471.752,223.4Zm6.252,3.61,2.5,1.442a2.678,2.678,0,0,0,2.421,0,.738.738,0,0,0-.007-1.4l-2.5-1.441a2.676,2.676,0,0,0-2.421,0A.738.738,0,0,0,478,227.005Zm6.253,3.61,2.5,1.442a2.676,2.676,0,0,0,2.421,0,.738.738,0,0,0-.008-1.4l-2.5-1.441a2.674,2.674,0,0,0-2.42,0A.737.737,0,0,0,484.257,230.615Zm6.253,3.611,2.5,1.441a2.674,2.674,0,0,0,2.42,0,.737.737,0,0,0-.007-1.4l-2.5-1.442a2.676,2.676,0,0,0-2.421,0A.738.738,0,0,0,490.509,234.226Zm6.252,3.61,2.5,1.441a2.676,2.676,0,0,0,2.421,0,.738.738,0,0,0-.007-1.4l-2.5-1.442a2.676,2.676,0,0,0-2.421,0A.738.738,0,0,0,496.761,237.835Zm6.253,3.61,2.5,1.442a2.676,2.676,0,0,0,2.421,0,.738.738,0,0,0-.008-1.4l-2.5-1.441a2.674,2.674,0,0,0-2.42,0A.737.737,0,0,0,503.014,241.445Zm6.252,3.61,2.5,1.442a2.674,2.674,0,0,0,2.42,0,.738.738,0,0,0-.007-1.4l-2.5-1.441a2.676,2.676,0,0,0-2.421,0A.738.738,0,0,0,509.266,245.055Zm6.383,3.685,2.5,1.442a2.678,2.678,0,0,0,2.421,0,.738.738,0,0,0-.007-1.4l-2.5-1.442a2.677,2.677,0,0,0-2.42,0A.737.737,0,0,0,515.649,248.74Zm-83.56-41.556,2.162,1.249a3.046,3.046,0,0,0,2.755,0l2.149-1.24a.84.84,0,0,0-.008-1.591l-2.162-1.248a3.048,3.048,0,0,0-2.756-.006l-2.148,1.241A.839.839,0,0,0,432.09,207.184Zm11.169,4.863,2.149-1.24a.839.839,0,0,0-.008-1.59l-2.163-1.249a3.043,3.043,0,0,0-2.755,0l-2.149,1.24a.839.839,0,0,0,.008,1.59l2.163,1.249A3.043,3.043,0,0,0,443.259,212.047Zm1.335,2.357,2.163,1.248a3.043,3.043,0,0,0,2.755,0l2.149-1.24a.839.839,0,0,0-.009-1.59l-2.162-1.249a3.043,3.043,0,0,0-2.755,0l-2.149,1.24A.84.84,0,0,0,444.595,214.4Zm6.253,3.61,2.162,1.248a3.046,3.046,0,0,0,2.755.006l2.149-1.24a.84.84,0,0,0-.008-1.591l-2.163-1.249a3.046,3.046,0,0,0-2.755,0l-2.149,1.24A.84.84,0,0,0,450.848,218.014Zm13.309,2.032-2.162-1.248a3.043,3.043,0,0,0-2.755-.006l-2.149,1.24a.84.84,0,0,0,.008,1.591l2.163,1.248a3.043,3.043,0,0,0,2.755.006l2.149-1.24A.84.84,0,0,0,464.157,220.046Zm6.253,3.61-2.162-1.248a3.046,3.046,0,0,0-2.755-.006l-2.149,1.241a.839.839,0,0,0,.008,1.59l2.163,1.249a3.046,3.046,0,0,0,2.755,0l2.148-1.24A.84.84,0,0,0,470.41,223.656Zm6.253,3.611-2.163-1.249a3.043,3.043,0,0,0-2.755,0l-2.149,1.24a.839.839,0,0,0,.009,1.59l2.162,1.249a3.043,3.043,0,0,0,2.755,0l2.149-1.24A.839.839,0,0,0,476.663,227.266Zm6.252,3.61-2.162-1.249a3.046,3.046,0,0,0-2.755,0l-2.149,1.24a.84.84,0,0,0,.008,1.591l2.163,1.248a3.046,3.046,0,0,0,2.755.006l2.149-1.241A.839.839,0,0,0,482.915,230.876Zm6.253,3.61-2.162-1.249a3.048,3.048,0,0,0-2.756,0l-2.148,1.24a.84.84,0,0,0,.008,1.591l2.162,1.248a3.043,3.043,0,0,0,2.755.006l2.149-1.24A.84.84,0,0,0,489.168,234.486Zm6.253,3.61-2.163-1.248a3.046,3.046,0,0,0-2.755-.006l-2.149,1.24a.84.84,0,0,0,.008,1.591l2.163,1.249a3.046,3.046,0,0,0,2.755,0l2.149-1.24A.84.84,0,0,0,495.42,238.1Zm-.805,5.188,2.163,1.249a3.043,3.043,0,0,0,2.755,0l2.149-1.24a.84.84,0,0,0-.009-1.591l-2.162-1.248a3.046,3.046,0,0,0-2.755-.006l-2.149,1.241A.839.839,0,0,0,494.615,243.283Zm13.31,2.033-2.163-1.249a3.043,3.043,0,0,0-2.755,0l-2.149,1.24a.839.839,0,0,0,.009,1.59l2.162,1.249a3.046,3.046,0,0,0,2.755.006l2.149-1.241A.839.839,0,0,0,507.925,245.316Zm9.157,5.287-4.937-2.851a3.046,3.046,0,0,0-2.755-.006l-2.149,1.241a.839.839,0,0,0,.008,1.59l4.938,2.851a3.043,3.043,0,0,0,2.755,0l2.149-1.24A.839.839,0,0,0,517.083,250.6ZM426.3,210.528l4.937,2.85a3.046,3.046,0,0,0,2.755.006l2.149-1.24a.84.84,0,0,0-.008-1.591l-4.938-2.851a3.043,3.043,0,0,0-2.755,0l-2.149,1.24A.84.84,0,0,0,426.3,210.528Zm9.027,5.212,2.163,1.249a3.046,3.046,0,0,0,2.755,0l2.149-1.24a.84.84,0,0,0-.009-1.591l-2.162-1.248a3.043,3.043,0,0,0-2.755-.006l-2.149,1.24A.84.84,0,0,0,435.326,215.74Zm8.415,4.858a3.043,3.043,0,0,0,2.755,0l2.149-1.24a.84.84,0,0,0-.008-1.591l-2.163-1.248a3.046,3.046,0,0,0-2.755-.006l-2.149,1.241a.839.839,0,0,0,.009,1.59Zm6.253,3.61a3.043,3.043,0,0,0,2.755,0l2.149-1.24a.839.839,0,0,0-.009-1.59l-2.162-1.249a3.043,3.043,0,0,0-2.755,0l-2.149,1.24a.839.839,0,0,0,.008,1.59Zm6.231-.469-2.149,1.24a.84.84,0,0,0,.008,1.591l2.162,1.248a3.048,3.048,0,0,0,2.756.006l2.148-1.241a.839.839,0,0,0-.008-1.59l-2.162-1.249A3.046,3.046,0,0,0,456.224,223.739Zm6.384,3.533-2.413,1.394a.759.759,0,0,0,.007,1.438l2.428,1.4a2.752,2.752,0,0,0,2.49,0l2.413-1.393a.759.759,0,0,0-.007-1.438l-2.428-1.4A2.752,2.752,0,0,0,462.608,227.272Zm6.253,3.611-2.413,1.393a.759.759,0,0,0,.007,1.438l2.428,1.4a2.752,2.752,0,0,0,2.49,0l2.413-1.394a.758.758,0,0,0-.008-1.437l-2.427-1.4A2.752,2.752,0,0,0,468.861,230.882Zm6.253,3.61-2.414,1.393a.759.759,0,0,0,.008,1.438l2.428,1.4a2.75,2.75,0,0,0,2.489,0l2.414-1.394a.758.758,0,0,0-.008-1.437l-2.428-1.4A2.75,2.75,0,0,0,475.114,234.492Zm6.252,3.61-2.413,1.394a.758.758,0,0,0,.007,1.437l2.428,1.4a2.752,2.752,0,0,0,2.49,0l2.413-1.393a.759.759,0,0,0-.007-1.438l-2.428-1.4A2.752,2.752,0,0,0,481.366,238.1Zm6.253,3.61-2.414,1.394a.758.758,0,0,0,.008,1.437l2.428,1.4a2.75,2.75,0,0,0,2.489,0l2.414-1.393a.759.759,0,0,0-.008-1.438l-2.427-1.4A2.752,2.752,0,0,0,487.619,241.712Zm8.765,7.848,2.413-1.394a.759.759,0,0,0-.007-1.438l-2.428-1.4a2.753,2.753,0,0,0-2.489,0l-2.414,1.394a.759.759,0,0,0,.007,1.438l2.428,1.4A2.752,2.752,0,0,0,496.384,249.559Zm6.253,3.61,2.413-1.394a.758.758,0,0,0-.007-1.437l-2.428-1.4a2.752,2.752,0,0,0-2.49,0l-2.413,1.393a.759.759,0,0,0,.007,1.438l2.428,1.4A2.752,2.752,0,0,0,502.637,253.169Zm8.787.854-2.428-1.4a2.75,2.75,0,0,0-2.489,0l-2.414,1.394a.758.758,0,0,0,.008,1.437l2.428,1.4a2.753,2.753,0,0,0,2.489,0l2.414-1.393A.759.759,0,0,0,511.424,254.023Zm-91.05-40.228,7.839,4.526a2.752,2.752,0,0,0,2.49,0l2.413-1.393a.759.759,0,0,0-.007-1.438l-7.84-4.526a2.753,2.753,0,0,0-2.489,0l-2.414,1.394A.759.759,0,0,0,420.374,213.795Zm11.664,6.733,2.428,1.4a2.755,2.755,0,0,0,2.49,0l2.413-1.394a.759.759,0,0,0-.008-1.438l-2.427-1.4a2.752,2.752,0,0,0-2.49,0l-2.413,1.394A.758.758,0,0,0,432.038,220.528Zm6.253,3.611,2.428,1.4a2.75,2.75,0,0,0,2.489,0l2.414-1.394a.758.758,0,0,0-.008-1.437l-2.428-1.4a2.75,2.75,0,0,0-2.489,0l-2.414,1.393A.759.759,0,0,0,438.291,224.139Zm6.252,3.61,2.428,1.4a2.752,2.752,0,0,0,2.49,0l2.413-1.394a.758.758,0,0,0-.007-1.437l-2.428-1.4a2.752,2.752,0,0,0-2.49,0l-2.413,1.393A.759.759,0,0,0,444.543,227.749Zm11.17,5.016,2.414-1.393a.759.759,0,0,0-.008-1.438l-2.428-1.4a2.75,2.75,0,0,0-2.489,0l-2.414,1.394a.758.758,0,0,0,.008,1.437l2.428,1.4A2.75,2.75,0,0,0,455.713,232.765Zm6.253,3.61,2.413-1.393a.759.759,0,0,0-.007-1.438l-2.428-1.4a2.752,2.752,0,0,0-2.49,0l-2.413,1.394a.758.758,0,0,0,.008,1.437l2.427,1.4A2.752,2.752,0,0,0,461.966,236.374Zm6.253,3.611,2.413-1.394a.759.759,0,0,0-.007-1.438l-2.428-1.4a2.755,2.755,0,0,0-2.49,0l-2.413,1.394a.759.759,0,0,0,.007,1.438l2.428,1.4A2.755,2.755,0,0,0,468.219,239.985Zm6.252,3.61,2.414-1.394a.758.758,0,0,0-.008-1.437l-2.428-1.4a2.753,2.753,0,0,0-2.489,0l-2.414,1.393a.759.759,0,0,0,.008,1.438l2.428,1.4A2.75,2.75,0,0,0,474.471,243.595Zm6.253,3.61,2.413-1.394a.758.758,0,0,0-.007-1.437l-2.428-1.4a2.752,2.752,0,0,0-2.49,0L475.8,244.36a.759.759,0,0,0,.007,1.438l2.428,1.4A2.752,2.752,0,0,0,480.724,247.2Zm6.253,3.61,2.413-1.393a.759.759,0,0,0-.008-1.438l-2.427-1.4a2.752,2.752,0,0,0-2.49,0l-2.413,1.394a.758.758,0,0,0,.007,1.437l2.428,1.4A2.752,2.752,0,0,0,486.977,250.814Zm1.335,2.2,2.428,1.4a2.75,2.75,0,0,0,2.489,0l2.414-1.393a.759.759,0,0,0-.008-1.438l-2.428-1.4a2.75,2.75,0,0,0-2.489,0l-2.414,1.394A.759.759,0,0,0,488.312,253.019Zm17.322,4.348-6.175-3.565a2.755,2.755,0,0,0-2.49,0l-2.413,1.394a.759.759,0,0,0,.007,1.438l6.175,3.565a2.752,2.752,0,0,0,2.49,0l2.413-1.394A.758.758,0,0,0,505.634,257.367Zm-91.027-40.056,11.124,6.422a3.108,3.108,0,0,0,2.812.006l2.092-1.207a.857.857,0,0,0-.009-1.624L419.5,214.485a3.11,3.11,0,0,0-2.813,0l-2.091,1.207A.857.857,0,0,0,414.606,217.311Zm15.272,8.817,2.1,1.215a3.107,3.107,0,0,0,2.813.006l2.091-1.207a.857.857,0,0,0-.008-1.624l-2.1-1.215a3.11,3.11,0,0,0-2.813-.006L429.87,224.5A.857.857,0,0,0,429.878,226.128Zm6.253,3.61,2.1,1.216a3.108,3.108,0,0,0,2.812,0l2.092-1.207a.857.857,0,0,0-.009-1.624l-2.1-1.215a3.11,3.11,0,0,0-2.813-.006l-2.092,1.208A.857.857,0,0,0,436.131,229.738Zm6.253,3.61,2.1,1.216a3.107,3.107,0,0,0,2.813,0l2.091-1.207a.857.857,0,0,0-.008-1.623l-2.1-1.216a3.107,3.107,0,0,0-2.813,0l-2.091,1.207A.857.857,0,0,0,442.384,233.348Zm6.252,3.611,2.1,1.215a3.11,3.11,0,0,0,2.813.006l2.091-1.208a.857.857,0,0,0-.008-1.623l-2.1-1.216a3.11,3.11,0,0,0-2.813,0l-2.091,1.207A.857.857,0,0,0,448.636,236.958Zm6.253,3.61,2.1,1.215a3.108,3.108,0,0,0,2.812.006l2.092-1.207a.857.857,0,0,0-.009-1.624l-2.1-1.216a3.108,3.108,0,0,0-2.812,0l-2.092,1.207A.857.857,0,0,0,454.889,240.568Zm6.252,3.61,2.1,1.216a3.11,3.11,0,0,0,2.813,0l2.091-1.207a.857.857,0,0,0-.008-1.624l-2.1-1.215a3.11,3.11,0,0,0-2.813-.006l-2.091,1.207A.857.857,0,0,0,461.141,244.178Zm6.253,3.61L469.5,249a3.108,3.108,0,0,0,2.812,0L474.4,247.8a.857.857,0,0,0-.009-1.624l-2.1-1.215a3.107,3.107,0,0,0-2.813,0l-2.091,1.207A.857.857,0,0,0,467.394,247.787Zm6.253,3.611,2.1,1.215a3.11,3.11,0,0,0,2.813.006l2.092-1.208a.857.857,0,0,0-.009-1.623l-2.1-1.216a3.105,3.105,0,0,0-2.812,0l-2.092,1.207A.857.857,0,0,0,473.647,251.4Zm6.252,3.61,2.1,1.215a3.11,3.11,0,0,0,2.813.006l2.091-1.208a.857.857,0,0,0-.008-1.623l-2.1-1.216a3.11,3.11,0,0,0-2.813,0l-2.091,1.207A.857.857,0,0,0,479.9,255.008Zm6.253,3.61,2.1,1.215a3.105,3.105,0,0,0,2.812.006l2.092-1.207a.857.857,0,0,0-.009-1.624l-2.1-1.215a3.105,3.105,0,0,0-2.812-.006l-2.092,1.207A.857.857,0,0,0,486.152,258.618Zm13.39,2.079-2.1-1.215a3.11,3.11,0,0,0-2.813-.005l-2.092,1.207a.857.857,0,0,0,.009,1.624l2.1,1.215a3.105,3.105,0,0,0,2.812.006l2.092-1.207A.857.857,0,0,0,499.542,260.7Zm-80.952-40.05-4.879-2.818a3.11,3.11,0,0,0-2.813-.006l-2.092,1.208a.857.857,0,0,0,.009,1.623l4.88,2.818a3.105,3.105,0,0,0,2.812,0l2.092-1.207A.857.857,0,0,0,418.59,220.646Zm6.253,3.61-2.1-1.216a3.108,3.108,0,0,0-2.812,0l-2.092,1.207a.857.857,0,0,0,.009,1.624l2.1,1.215a3.11,3.11,0,0,0,2.813.006l2.092-1.208A.857.857,0,0,0,424.843,224.256Zm6.253,3.61-2.1-1.215a3.107,3.107,0,0,0-2.813-.006l-2.091,1.207a.857.857,0,0,0,.008,1.624l2.1,1.215a3.108,3.108,0,0,0,2.813.006l2.091-1.207A.857.857,0,0,0,431.1,227.866Zm43.768,25.269-39.62-22.874a3.108,3.108,0,0,0-2.812-.006l-2.092,1.207a.857.857,0,0,0,.009,1.624l39.619,22.875a3.107,3.107,0,0,0,2.813,0l2.092-1.207A.857.857,0,0,0,474.863,253.135Zm6.253,3.611-2.1-1.216a3.11,3.11,0,0,0-2.813,0l-2.091,1.207a.857.857,0,0,0,.008,1.624l2.1,1.215a3.11,3.11,0,0,0,2.813.006l2.091-1.208A.857.857,0,0,0,481.116,256.745Zm6.252,3.61-2.1-1.216a3.108,3.108,0,0,0-2.812,0l-2.092,1.207a.857.857,0,0,0,.009,1.624l2.1,1.215a3.108,3.108,0,0,0,2.812.006l2.092-1.207A.857.857,0,0,0,487.368,260.355Zm6.383,3.685-2.1-1.216a3.106,3.106,0,0,0-2.812,0l-2.092,1.207a.857.857,0,0,0,.009,1.624l2.1,1.215a3.107,3.107,0,0,0,2.813,0l2.092-1.207A.857.857,0,0,0,493.751,264.04Z" transform="translate(-378.035 -116.458)" fill="#72b5e8"/>
          <path id="Trazado_119609" data-name="Trazado 119609" d="M437.714,203.112l5.273,3.044a2.674,2.674,0,0,0,2.42,0,.738.738,0,0,0-.007-1.4l-5.273-3.043a2.676,2.676,0,0,0-2.421,0A.738.738,0,0,0,437.714,203.112Zm9.027,5.213,2.5,1.441a2.676,2.676,0,0,0,2.421,0,.738.738,0,0,0-.007-1.4l-2.5-1.442a2.676,2.676,0,0,0-2.421,0A.738.738,0,0,0,446.741,208.325Zm6.253,3.61,2.5,1.441a2.676,2.676,0,0,0,2.421,0,.738.738,0,0,0-.008-1.4l-2.5-1.442a2.674,2.674,0,0,0-2.42,0A.737.737,0,0,0,452.994,211.934Zm6.252,3.61,2.5,1.442a2.677,2.677,0,0,0,2.42,0,.737.737,0,0,0-.007-1.4l-2.5-1.442a2.678,2.678,0,0,0-2.421,0A.738.738,0,0,0,459.246,215.544Zm6.253,3.61L468,220.6a2.676,2.676,0,0,0,2.421,0,.738.738,0,0,0-.007-1.4l-2.5-1.441a2.674,2.674,0,0,0-2.42,0A.737.737,0,0,0,465.5,219.154Zm6.253,3.611,2.5,1.441a2.674,2.674,0,0,0,2.42,0,.738.738,0,0,0-.007-1.4l-2.5-1.441a2.676,2.676,0,0,0-2.421,0A.738.738,0,0,0,471.752,222.764Zm6.252,3.61,2.5,1.441a2.676,2.676,0,0,0,2.421,0,.737.737,0,0,0-.007-1.4l-2.5-1.442a2.676,2.676,0,0,0-2.421,0A.738.738,0,0,0,478,226.374Zm6.253,3.61,2.5,1.442a2.679,2.679,0,0,0,2.421,0,.738.738,0,0,0-.008-1.4l-2.5-1.442a2.676,2.676,0,0,0-2.42,0A.737.737,0,0,0,484.257,229.984Zm6.253,3.61,2.5,1.442a2.674,2.674,0,0,0,2.42,0,.737.737,0,0,0-.007-1.4l-2.5-1.441a2.676,2.676,0,0,0-2.421,0A.738.738,0,0,0,490.509,233.594Zm6.252,3.61,2.5,1.442a2.676,2.676,0,0,0,2.421,0,.738.738,0,0,0-.007-1.4l-2.5-1.441a2.676,2.676,0,0,0-2.421,0A.737.737,0,0,0,496.761,237.2Zm6.253,3.611,2.5,1.441a2.676,2.676,0,0,0,2.421,0,.738.738,0,0,0-.008-1.4l-2.5-1.441a2.674,2.674,0,0,0-2.42,0A.738.738,0,0,0,503.014,240.814Zm6.252,3.61,2.5,1.441a2.674,2.674,0,0,0,2.42,0,.737.737,0,0,0-.007-1.4l-2.5-1.442a2.676,2.676,0,0,0-2.421,0A.738.738,0,0,0,509.266,244.424Zm6.383,3.684,2.5,1.442a2.676,2.676,0,0,0,2.421,0,.738.738,0,0,0-.007-1.4l-2.5-1.441a2.674,2.674,0,0,0-2.42,0A.737.737,0,0,0,515.649,248.108Zm-83.56-41.555,2.162,1.248a3.046,3.046,0,0,0,2.755.006l2.149-1.241a.839.839,0,0,0-.008-1.59l-2.162-1.249a3.048,3.048,0,0,0-2.756,0l-2.148,1.24A.84.84,0,0,0,432.09,206.553Zm11.169,4.863,2.149-1.24a.84.84,0,0,0-.008-1.591l-2.163-1.249a3.046,3.046,0,0,0-2.755,0l-2.149,1.24a.84.84,0,0,0,.008,1.591l2.163,1.248A3.043,3.043,0,0,0,443.259,211.416Zm1.335,2.356,2.163,1.249a3.046,3.046,0,0,0,2.755,0l2.149-1.24a.84.84,0,0,0-.009-1.591l-2.162-1.248a3.046,3.046,0,0,0-2.755-.006l-2.149,1.24A.84.84,0,0,0,444.595,213.772Zm6.253,3.61,2.162,1.249a3.043,3.043,0,0,0,2.755,0l2.149-1.24a.839.839,0,0,0-.008-1.59l-2.163-1.249a3.046,3.046,0,0,0-2.755-.006l-2.149,1.241A.839.839,0,0,0,450.848,217.382Zm13.309,2.033-2.162-1.249a3.043,3.043,0,0,0-2.755,0l-2.149,1.24a.839.839,0,0,0,.008,1.59l2.163,1.249a3.043,3.043,0,0,0,2.755,0l2.149-1.24A.839.839,0,0,0,464.157,219.415Zm6.253,3.61-2.162-1.249a3.046,3.046,0,0,0-2.755,0l-2.149,1.24a.84.84,0,0,0,.008,1.591l2.163,1.248a3.046,3.046,0,0,0,2.755.006l2.148-1.24A.84.84,0,0,0,470.41,223.025Zm6.253,3.61-2.163-1.248a3.043,3.043,0,0,0-2.755-.006l-2.149,1.24a.84.84,0,0,0,.009,1.591l2.162,1.248a3.043,3.043,0,0,0,2.755.006l2.149-1.24A.84.84,0,0,0,476.663,226.634Zm6.252,3.61L480.753,229a3.046,3.046,0,0,0-2.755-.006l-2.149,1.241a.839.839,0,0,0,.008,1.59l2.163,1.249a3.046,3.046,0,0,0,2.755,0l2.149-1.24A.84.84,0,0,0,482.915,230.244Zm6.253,3.611-2.162-1.249a3.045,3.045,0,0,0-2.756,0l-2.148,1.24a.839.839,0,0,0,.008,1.59l2.162,1.249a3.043,3.043,0,0,0,2.755,0l2.149-1.24A.839.839,0,0,0,489.168,233.855Zm6.253,3.61-2.163-1.249a3.043,3.043,0,0,0-2.755,0l-2.149,1.24a.84.84,0,0,0,.008,1.591l2.163,1.248a3.043,3.043,0,0,0,2.755,0l2.149-1.24A.839.839,0,0,0,495.42,237.464Zm-.805,5.188,2.163,1.248a3.046,3.046,0,0,0,2.755.006l2.149-1.24a.84.84,0,0,0-.009-1.591l-2.162-1.249a3.046,3.046,0,0,0-2.755,0l-2.149,1.24A.84.84,0,0,0,494.615,242.652Zm13.31,2.032-2.163-1.248a3.043,3.043,0,0,0-2.755-.006l-2.149,1.24a.84.84,0,0,0,.009,1.591l2.162,1.249a3.046,3.046,0,0,0,2.755,0l2.149-1.24A.84.84,0,0,0,507.925,244.684Zm9.157,5.287-4.937-2.851a3.046,3.046,0,0,0-2.755,0l-2.149,1.24a.84.84,0,0,0,.008,1.591l4.938,2.85a3.043,3.043,0,0,0,2.755.006l2.149-1.24A.84.84,0,0,0,517.083,249.971ZM426.3,209.9l4.937,2.851a3.043,3.043,0,0,0,2.755,0l2.149-1.24a.839.839,0,0,0-.008-1.59l-4.938-2.851a3.046,3.046,0,0,0-2.755-.006l-2.149,1.24A.84.84,0,0,0,426.3,209.9Zm9.027,5.213,2.163,1.248a3.043,3.043,0,0,0,2.755,0l2.149-1.24a.839.839,0,0,0-.009-1.59l-2.162-1.249a3.043,3.043,0,0,0-2.755,0l-2.149,1.24A.84.84,0,0,0,435.326,215.109Zm8.415,4.858a3.046,3.046,0,0,0,2.755.006l2.149-1.24a.84.84,0,0,0-.008-1.591l-2.163-1.249a3.046,3.046,0,0,0-2.755,0l-2.149,1.24a.84.84,0,0,0,.009,1.591Zm6.253,3.61a3.043,3.043,0,0,0,2.755.006l2.149-1.24a.84.84,0,0,0-.009-1.591l-2.162-1.248a3.043,3.043,0,0,0-2.755-.006l-2.149,1.24a.84.84,0,0,0,.008,1.591Zm6.231-.469-2.149,1.241a.839.839,0,0,0,.008,1.59l2.162,1.249a3.048,3.048,0,0,0,2.756,0l2.148-1.24a.84.84,0,0,0-.008-1.591l-2.162-1.248A3.046,3.046,0,0,0,456.224,223.107Zm6.384,3.534-2.413,1.393a.759.759,0,0,0,.007,1.438l2.428,1.4a2.752,2.752,0,0,0,2.49,0l2.413-1.394a.758.758,0,0,0-.007-1.437l-2.428-1.4A2.752,2.752,0,0,0,462.608,226.641Zm6.253,3.61-2.413,1.394a.758.758,0,0,0,.007,1.437l2.428,1.4a2.752,2.752,0,0,0,2.49,0l2.413-1.393a.759.759,0,0,0-.008-1.438l-2.427-1.4A2.752,2.752,0,0,0,468.861,230.25Zm6.253,3.61-2.414,1.394a.759.759,0,0,0,.008,1.438l2.428,1.4a2.75,2.75,0,0,0,2.489,0l2.414-1.393a.759.759,0,0,0-.008-1.438l-2.428-1.4A2.75,2.75,0,0,0,475.114,233.86Zm6.252,3.61-2.413,1.394a.759.759,0,0,0,.007,1.438l2.428,1.4a2.752,2.752,0,0,0,2.49,0l2.413-1.394a.758.758,0,0,0-.007-1.437l-2.428-1.4A2.755,2.755,0,0,0,481.366,237.47Zm6.253,3.611-2.414,1.393a.759.759,0,0,0,.008,1.438l2.428,1.4a2.75,2.75,0,0,0,2.489,0l2.414-1.394a.758.758,0,0,0-.008-1.437l-2.427-1.4A2.752,2.752,0,0,0,487.619,241.081Zm8.765,7.847,2.413-1.393a.759.759,0,0,0-.007-1.438l-2.428-1.4a2.75,2.75,0,0,0-2.489,0l-2.414,1.394a.758.758,0,0,0,.007,1.437l2.428,1.4A2.752,2.752,0,0,0,496.384,248.927Zm6.253,3.61,2.413-1.393a.759.759,0,0,0-.007-1.438l-2.428-1.4a2.752,2.752,0,0,0-2.49,0l-2.413,1.394a.758.758,0,0,0,.007,1.437l2.428,1.4A2.752,2.752,0,0,0,502.637,252.537Zm8.787.855L509,251.99a2.75,2.75,0,0,0-2.489,0l-2.414,1.393a.759.759,0,0,0,.008,1.438l2.428,1.4a2.75,2.75,0,0,0,2.489,0l2.414-1.394A.758.758,0,0,0,511.424,253.392Zm-91.05-40.229,7.839,4.526a2.752,2.752,0,0,0,2.49,0l2.413-1.394a.758.758,0,0,0-.007-1.437l-7.84-4.526a2.75,2.75,0,0,0-2.489,0l-2.414,1.394A.758.758,0,0,0,420.374,213.163Zm11.664,6.734,2.428,1.4a2.752,2.752,0,0,0,2.49,0l2.413-1.394a.758.758,0,0,0-.008-1.437l-2.427-1.4a2.752,2.752,0,0,0-2.49,0l-2.413,1.393A.759.759,0,0,0,432.038,219.9Zm6.253,3.61,2.428,1.4a2.75,2.75,0,0,0,2.489,0l2.414-1.393a.759.759,0,0,0-.008-1.438l-2.428-1.4a2.75,2.75,0,0,0-2.489,0l-2.414,1.394A.758.758,0,0,0,438.291,223.507Zm6.252,3.61,2.428,1.4a2.752,2.752,0,0,0,2.49,0l2.413-1.393a.759.759,0,0,0-.007-1.438l-2.428-1.4a2.752,2.752,0,0,0-2.49,0l-2.413,1.394A.758.758,0,0,0,444.543,227.117Zm11.17,5.017,2.414-1.394a.759.759,0,0,0-.008-1.438l-2.428-1.4a2.75,2.75,0,0,0-2.489,0l-2.414,1.393a.759.759,0,0,0,.008,1.438l2.428,1.4A2.75,2.75,0,0,0,455.713,232.134Zm6.253,3.61,2.413-1.394a.758.758,0,0,0-.007-1.437l-2.428-1.4a2.752,2.752,0,0,0-2.49,0l-2.413,1.393a.759.759,0,0,0,.008,1.438l2.427,1.4A2.752,2.752,0,0,0,461.966,235.743Zm6.253,3.61,2.413-1.394a.758.758,0,0,0-.007-1.437l-2.428-1.4a2.752,2.752,0,0,0-2.49,0l-2.413,1.393a.759.759,0,0,0,.007,1.438l2.428,1.4A2.752,2.752,0,0,0,468.219,239.353Zm6.252,3.61,2.414-1.393a.759.759,0,0,0-.008-1.438l-2.428-1.4a2.75,2.75,0,0,0-2.489,0l-2.414,1.394a.758.758,0,0,0,.008,1.437l2.428,1.4A2.75,2.75,0,0,0,474.471,242.963Zm6.253,3.611,2.413-1.394a.759.759,0,0,0-.007-1.438l-2.428-1.4a2.755,2.755,0,0,0-2.49,0l-2.413,1.394a.759.759,0,0,0,.007,1.438l2.428,1.4A2.755,2.755,0,0,0,480.724,246.574Zm6.253,3.61,2.413-1.394a.758.758,0,0,0-.008-1.437l-2.427-1.4a2.755,2.755,0,0,0-2.49,0l-2.413,1.393a.759.759,0,0,0,.007,1.438l2.428,1.4A2.752,2.752,0,0,0,486.977,250.183Zm1.335,2.2,2.428,1.4a2.75,2.75,0,0,0,2.489,0l2.414-1.394a.758.758,0,0,0-.008-1.437l-2.428-1.4a2.75,2.75,0,0,0-2.489,0l-2.414,1.393A.759.759,0,0,0,488.312,252.387Zm17.322,4.348-6.175-3.565a2.752,2.752,0,0,0-2.49,0l-2.413,1.394a.758.758,0,0,0,.007,1.437l6.175,3.565a2.752,2.752,0,0,0,2.49,0l2.413-1.393A.759.759,0,0,0,505.634,256.735Zm-91.027-40.056,11.124,6.423a3.108,3.108,0,0,0,2.812,0l2.092-1.207a.857.857,0,0,0-.009-1.624L419.5,213.854a3.11,3.11,0,0,0-2.813-.006l-2.091,1.208A.857.857,0,0,0,414.606,216.679Zm15.272,8.818,2.1,1.215a3.108,3.108,0,0,0,2.813,0l2.091-1.207a.857.857,0,0,0-.008-1.623l-2.1-1.216a3.107,3.107,0,0,0-2.813,0l-2.091,1.207A.857.857,0,0,0,429.878,225.5Zm6.253,3.61,2.1,1.215a3.108,3.108,0,0,0,2.812.006l2.092-1.208a.857.857,0,0,0-.009-1.623l-2.1-1.216a3.11,3.11,0,0,0-2.813,0l-2.092,1.207A.857.857,0,0,0,436.131,229.107Zm6.253,3.61,2.1,1.215a3.107,3.107,0,0,0,2.813.006l2.091-1.207a.857.857,0,0,0-.008-1.624l-2.1-1.215a3.108,3.108,0,0,0-2.813-.006l-2.091,1.207A.857.857,0,0,0,442.384,232.717Zm6.252,3.61,2.1,1.216a3.11,3.11,0,0,0,2.813,0l2.091-1.207a.857.857,0,0,0-.008-1.624l-2.1-1.215a3.11,3.11,0,0,0-2.813-.006l-2.091,1.208A.857.857,0,0,0,448.636,236.326Zm6.253,3.61,2.1,1.216a3.106,3.106,0,0,0,2.812,0l2.092-1.207a.857.857,0,0,0-.009-1.624l-2.1-1.215a3.106,3.106,0,0,0-2.812,0l-2.092,1.207A.857.857,0,0,0,454.889,239.936Zm6.252,3.611,2.1,1.215a3.107,3.107,0,0,0,2.813,0l2.091-1.207a.857.857,0,0,0-.008-1.623l-2.1-1.216a3.11,3.11,0,0,0-2.813,0l-2.091,1.207A.857.857,0,0,0,461.141,243.547Zm6.253,3.61,2.1,1.215a3.108,3.108,0,0,0,2.812.006l2.092-1.207a.857.857,0,0,0-.009-1.624l-2.1-1.216a3.11,3.11,0,0,0-2.813,0l-2.091,1.207A.857.857,0,0,0,467.394,247.156Zm6.253,3.61,2.1,1.216a3.11,3.11,0,0,0,2.813,0l2.092-1.207a.857.857,0,0,0-.009-1.624l-2.1-1.215a3.108,3.108,0,0,0-2.812-.006l-2.092,1.207A.857.857,0,0,0,473.647,250.766Zm6.252,3.61,2.1,1.216a3.11,3.11,0,0,0,2.813,0l2.091-1.207a.857.857,0,0,0-.008-1.624l-2.1-1.215a3.11,3.11,0,0,0-2.813-.006l-2.091,1.208A.857.857,0,0,0,479.9,254.376Zm6.253,3.61,2.1,1.216a3.105,3.105,0,0,0,2.812,0L493.16,258a.857.857,0,0,0-.009-1.623l-2.1-1.216a3.106,3.106,0,0,0-2.812,0l-2.092,1.207A.857.857,0,0,0,486.152,257.986Zm13.39,2.08-2.1-1.216a3.107,3.107,0,0,0-2.813,0l-2.092,1.207a.857.857,0,0,0,.009,1.624l2.1,1.215a3.105,3.105,0,0,0,2.812,0l2.092-1.207A.857.857,0,0,0,499.542,260.065ZM418.59,220.014l-4.879-2.818a3.11,3.11,0,0,0-2.813,0l-2.092,1.207a.857.857,0,0,0,.009,1.624l4.88,2.817a3.105,3.105,0,0,0,2.812.006l2.092-1.207A.857.857,0,0,0,418.59,220.014Zm6.253,3.61-2.1-1.215a3.108,3.108,0,0,0-2.812-.006l-2.092,1.207a.857.857,0,0,0,.009,1.624l2.1,1.216a3.11,3.11,0,0,0,2.813,0l2.092-1.207A.857.857,0,0,0,424.843,223.624Zm6.253,3.611-2.1-1.216a3.107,3.107,0,0,0-2.813,0l-2.091,1.207a.857.857,0,0,0,.008,1.623l2.1,1.216a3.107,3.107,0,0,0,2.813,0l2.091-1.207A.857.857,0,0,0,431.1,227.235ZM474.863,252.5l-39.62-22.875a3.108,3.108,0,0,0-2.812,0l-2.092,1.207a.857.857,0,0,0,.009,1.624l39.619,22.874a3.107,3.107,0,0,0,2.813.006l2.092-1.207A.857.857,0,0,0,474.863,252.5Zm6.253,3.61-2.1-1.215a3.11,3.11,0,0,0-2.813-.006l-2.091,1.208a.857.857,0,0,0,.008,1.623l2.1,1.216a3.11,3.11,0,0,0,2.813,0l2.091-1.207A.857.857,0,0,0,481.116,256.113Zm6.252,3.61-2.1-1.215a3.108,3.108,0,0,0-2.812-.006l-2.092,1.208a.857.857,0,0,0,.009,1.623l2.1,1.216a3.106,3.106,0,0,0,2.812,0l2.092-1.207A.857.857,0,0,0,487.368,259.723Zm6.383,3.685-2.1-1.215a3.106,3.106,0,0,0-2.812-.006l-2.092,1.207a.857.857,0,0,0,.009,1.624l2.1,1.215a3.107,3.107,0,0,0,2.813.006l2.092-1.207A.857.857,0,0,0,493.751,263.409Z" transform="translate(-378.035 -116.409)" fill="#a8cff0"/>
          <g id="Grupo_82341-2" data-name="Grupo 82341" transform="translate(61.244)">
            <path id="Trazado_119610" data-name="Trazado 119610" d="M530.53,239.2,447.7,191.347c-3.207-1.851-5.806-6.818-5.806-11.094V115.276c0-4.276,2.6-6.241,5.806-4.389l82.828,47.849c3.207,1.852,5.807,6.818,5.807,11.094v64.977C536.336,239.083,533.737,241.048,530.53,239.2Z" transform="translate(-441.896 -109.316)" fill="#a8cff0"/>
            <path id="Trazado_119611" data-name="Trazado 119611" d="M531.553,236.173,449.608,188.84a9.875,9.875,0,0,1-4.177-8.271V115.276a1.03,1.03,0,0,1,1.55-.886l.183.106,82.009,47.378c3.072,1.772,4.177,4.917,4.177,8.271v65.14a1.112,1.112,0,0,1-1.662.965Z" transform="translate(-442.171 -109.631)" fill="#03336e"/>
            <path id="Trazado_119612" data-name="Trazado 119612" d="M529.173,161.874,447.164,114.5l-.183-.106a1.03,1.03,0,0,0-1.55.886v65.292a9.875,9.875,0,0,0,4.177,8.271l81.945,47.333.135.077a1.112,1.112,0,0,0,1.662-.965v-65.14C533.35,166.792,532.245,163.646,529.173,161.874Zm3.525,73.411a.461.461,0,0,1-.461.459.457.457,0,0,1-.226-.061l-82.077-47.41a9.2,9.2,0,0,1-3.85-7.706V115.276a.375.375,0,0,1,.568-.324l82.195,47.487c3.184,1.834,3.851,5.2,3.851,7.705Z" transform="translate(-442.171 -109.631)" fill="#022652"/>
            <path id="Trazado_119613" data-name="Trazado 119613" d="M532.361,157.788l-82.829-47.849a3.924,3.924,0,0,0-3.4-.5c-.122.047-1.741.908-1.855.97l-.006,0a3.8,3.8,0,0,1,3.612.4l82.828,47.849c3.207,1.851,5.807,6.818,5.807,11.094v64.977c0,2.669-1.013,4.436-2.554,4.939a.961.961,0,0,0,.509-.172c.073-.042,1.831-1.034,1.9-1.083,1.1-.773,1.789-2.36,1.789-4.558V168.882C538.167,164.606,535.567,159.64,532.361,157.788Z" transform="translate(-442.081 -109.242)" fill="#3f92d1"/>
            <path id="Trazado_119614" data-name="Trazado 119614" d="M532.361,157.788l-82.829-47.849a3.924,3.924,0,0,0-3.4-.5c-.122.047-1.741.908-1.855.97l-.006,0a3.8,3.8,0,0,1,3.612.4l82.828,47.849Z" transform="translate(-442.081 -109.242)" fill="#4f9fdb"/>
            <path id="Trazado_119615" data-name="Trazado 119615" d="M531.026,158.586,448.2,110.737a3.851,3.851,0,0,0-3.5-.447,4.288,4.288,0,0,1,2.8.656l82.828,47.85c3.207,1.851,5.807,6.818,5.807,11.094v64.977c0,2.522-.909,4.231-2.309,4.836,1.791-.284,3.006-2.125,3.006-5.046V169.679C536.833,165.4,534.233,160.437,531.026,158.586Z" transform="translate(-442.114 -109.305)" fill="#fff" style="mix-blend-mode: screen;isolation: isolate"/>
          </g>
        </g>
      </g>
      <g id="Grupo_82344" data-name="Grupo 82344" transform="translate(326.947 207.654)">
        <path id="Trazado_119616" data-name="Trazado 119616" d="M362.618,271.971c-3.713,2.982-16.493,4.685-16.493,4.685s-1.126-8.541,2.588-11.523,7.021-1.162,10.861.726S366.332,268.989,362.618,271.971Z" transform="translate(-328.425 -219.65)" fill="#92b4d1" opacity="0.2"/>
        <path id="Trazado_119617" data-name="Trazado 119617" d="M362.022,239.1c-6.215-3.517-12.291-9.515-17.385-17.158l-.068-.04c-5.094,1.762-11.17.743-17.385-2.917l-.238-.139.336,11.612c1.18,18,7.319,25.837,17.2,42.573l.24.139c9.882-5.325,16.022-6.071,17.2-22.711l.336-11.226Z" transform="translate(-326.947 -216.174)" fill="#a8cff0"/>
        <path id="Trazado_119618" data-name="Trazado 119618" d="M365.534,236.2c-6.216-3.516-12.292-9.514-17.386-17.157l-.068-.04c-5.093,1.762-11.169.743-17.385-2.917l-.238-.14-3.439,2.711.172.1c6.215,3.66,12.292,4.679,17.385,2.917l.068.04c5.094,7.643,11.169,13.641,17.386,17.158l.237.134-.336,11.226c-.769,10.861-3.654,14.949-8.31,17.96,5.819-3.436,10.951-8.424,11.816-20.631l.336-11.226Z" transform="translate(-326.953 -215.949)" fill="#d1ebff"/>
        <path id="Trazado_119619" data-name="Trazado 119619" d="M367.251,236.6l-.237-.135c-6.216-3.516-12.292-9.514-17.386-17.157l-.068-.04-3.505,2.671.068.04c5.094,7.643,11.169,13.641,17.386,17.158l.237.134Z" transform="translate(-328.432 -216.207)" fill="#d1ebff"/>
        <path id="Trazado_119620" data-name="Trazado 119620" d="M364.508,240.727l-.336,11.226c-.769,10.861-3.654,14.949-8.31,17.96,5.819-3.436,10.951-8.424,11.816-20.631l.336-11.226Z" transform="translate(-329.195 -217.668)" fill="#72b5e8"/>
        <path id="Trazado_119621" data-name="Trazado 119621" d="M343.874,265.151c-7.091-11.762-10.658-17.678-11.517-30.587l-.2-6.777c4.552,2.058,8.917,2.715,12.849,1.932a57.276,57.276,0,0,0,12.848,12.9l-.2,6.55c-.86,11.917-4.427,13.716-11.518,17.291l-1.134.574Q344.429,266.076,343.874,265.151Z" transform="translate(-327.352 -216.869)" fill="#084c94"/>
        <path id="Trazado_119622" data-name="Trazado 119622" d="M346.723,265.951l-1.133.574-1.136-1.886c-7.09-11.762-10.657-17.679-11.517-30.588l-.173-6c-.2-.086-.4-.171-.6-.262l.2,6.777c.86,12.909,4.426,18.825,11.517,30.587q.556.924,1.135,1.887l1.134-.574c2.893-1.459,5.2-2.622,6.974-4.3A33.4,33.4,0,0,1,346.723,265.951Z" transform="translate(-327.352 -216.869)" fill="#001a46"/>
        <path id="Trazado_119623" data-name="Trazado 119623" d="M362.264,238.871c-6.215-3.517-12.292-9.514-17.385-17.157l-.069-.04c-5.093,1.762-11.17.743-17.385-2.917l-.227.24c6.2,3.645,12.269,4.657,17.353,2.9l.068.04c5.093,7.643,11.17,13.641,17.385,17.158l.238.134-.336,11.226c-.639,9.012-2.734,13.362-6.089,16.3,3.506-2.944,5.692-7.282,6.348-16.523l.335-11.226Z" transform="translate(-326.967 -216.167)" fill="#fff"/>
      </g>
      <g id="Grupo_82348" data-name="Grupo 82348" transform="translate(409.053 245.616)">
        <path id="Trazado_119624" data-name="Trazado 119624" d="M438.986,315.638l-21.5-12.376c-2.237-1.292-1.957-3.548.626-5.04h0c2.583-1.491,11.131-1.5,13.368-.208l19.063,11c3.435,2.027.034,4.809-2.827,6.262h0C445.132,316.768,441.224,316.93,438.986,315.638Z" transform="translate(-415.974 -260.217)" fill="#92b4d1" opacity="0.2"/>
        <path id="Trazado_119625" data-name="Trazado 119625" d="M447.39,288.042,416.3,276.448V299.5a2.029,2.029,0,0,0,1.213,2.009l21.023,12.176a7.9,7.9,0,0,0,7.105-.3h0a2.988,2.988,0,0,0,1.738-2.241l.01,0Z" transform="translate(-415.998 -258.614)" fill="#a8cff0"/>
        <path id="Trazado_119626" data-name="Trazado 119626" d="M438.537,290.253l-21.023-12.175c-1.821-1.051-1.593-2.889.51-4.1h0a7.9,7.9,0,0,1,7.105-.3l21.023,12.176c1.821,1.051,1.593,2.888-.51,4.1h0A7.9,7.9,0,0,1,438.537,290.253Z" transform="translate(-415.998 -258.344)" fill="#d1ebff"/>
        <path id="Trazado_119627" data-name="Trazado 119627" d="M445.643,289.937a7.9,7.9,0,0,1-7.105.294l-21.023-12.176a2.172,2.172,0,0,1-1.216-1.625,2.037,2.037,0,0,0,1.216,1.98l21.023,12.176a7.9,7.9,0,0,0,7.105-.3c1.226-.707,1.81-1.625,1.727-2.477A3.092,3.092,0,0,1,445.643,289.937Z" transform="translate(-415.998 -258.613)" fill="#fff"/>
        <g id="Grupo_82347" data-name="Grupo 82347" transform="translate(4.715)">
          <path id="Trazado_119628" data-name="Trazado 119628" d="M434.29,258.3h0a8.807,8.807,0,0,0-13.2,7.631v9.552h0l0,.014c0,.936,1.294,1.691,2.891,1.691s2.89-.754,2.89-1.684c0-.011,0-.021,0-.033h.031v-8.306a3.732,3.732,0,0,1,5.591-3.236h0a9.306,9.306,0,0,1,4.67,8.07v12.736h.03c.032.914,1.311,1.649,2.889,1.649s2.874-.744,2.889-1.667h0v-11.4A17.326,17.326,0,0,0,434.29,258.3Z" transform="translate(-421.087 -257.111)" fill="#084c94"/>
          <g id="Grupo_82345" data-name="Grupo 82345" transform="translate(12.494 5.329)">
            <path id="Trazado_119629" data-name="Trazado 119629" d="M435.173,263.159a5.156,5.156,0,0,0-.539-.27,10.148,10.148,0,0,1,4.478,8.4v14.945a3.506,3.506,0,0,0,1.129.414V271.925A10.141,10.141,0,0,0,435.173,263.159Z" transform="translate(-434.634 -262.889)" fill="#2672ab"/>
          </g>
          <g id="Grupo_82346" data-name="Grupo 82346" transform="translate(2.399 4.067)">
            <path id="Trazado_119630" data-name="Trazado 119630" d="M428.451,261.52a4.737,4.737,0,0,0-4.732,4.732v9.975l-.03,1.035a4.059,4.059,0,0,0,1.657-.2l.03-1.035v-9.976a4.739,4.739,0,0,1,3.344-4.524C428.63,261.524,428.54,261.52,428.451,261.52Z" transform="translate(-423.689 -261.52)" fill="#03336e"/>
          </g>
          <path id="Trazado_119631" data-name="Trazado 119631" d="M431.172,259.216a9.149,9.149,0,0,1,4.3,1.078,16.331,16.331,0,0,0-1.594-1.05,7.7,7.7,0,0,0-3.886-1.056,7.844,7.844,0,0,0-7.826,7.825v.022A9.451,9.451,0,0,1,431.172,259.216Z" transform="translate(-421.171 -257.194)" fill="#2672ab"/>
          <path id="Trazado_119632" data-name="Trazado 119632" d="M442.393,276.207l0,11.177a3.571,3.571,0,0,0,1.447-.5.952.952,0,0,0,.1-.392v-11.4C443.939,270.158,442.393,271.183,442.393,276.207Z" transform="translate(-422.743 -258.258)" fill="#03336e"/>
        </g>
        <path id="Trazado_119633" data-name="Trazado 119633" d="M432.9,295.688a6.279,6.279,0,0,0-2.85-4.917c-1.574-.909-2.851-.182-2.851,1.625a6.2,6.2,0,0,0,1.441,3.673v5.722l2.818,1.628V297.7C432.322,297.63,432.9,296.9,432.9,295.688Z" transform="translate(-416.847 -259.697)" fill="#084c94"/>
        <path id="Trazado_119634" data-name="Trazado 119634" d="M429.136,301.584v-5.723a6.2,6.2,0,0,1-1.441-3.673,2.034,2.034,0,0,1,.748-1.771c-.749.158-1.24.861-1.24,1.982a6.2,6.2,0,0,0,1.441,3.673v5.722l2.818,1.628v-.5Z" transform="translate(-416.847 -259.7)" fill="#001a46"/>
      </g>
      <g id="Grupo_82351" data-name="Grupo 82351" transform="translate(451.183 153.851)">
        <path id="Trazado_119635" data-name="Trazado 119635" d="M506.43,189.737a12.931,12.931,0,0,0-5.869-10.123,5.548,5.548,0,0,0-2.379-.792c0-.051.007-.1.007-.148,0-7.2-5.088-15.976-11.363-19.6-3.524-2.035-6.591-1.762-8.751-.319l-3.625,2.07c-2.048-1.063-3.879-1.056-5.169-.164l-4.876,2.922c1.322-.576,3.055-.389,4.957.708a11.225,11.225,0,0,1,1.186.8c1.482-4.368,5.755-5.679,10.8-2.766,6.275,3.624,11.363,12.4,11.363,19.6,0,.051-.006.1-.006.148a5.548,5.548,0,0,1,2.379.792,12.931,12.931,0,0,1,5.869,10.123,4.433,4.433,0,0,1-1.26,3.439l4.834-2.815-.006-.01C505.694,193.051,506.43,191.705,506.43,189.737Z" transform="translate(-461.869 -157.611)" fill="#72b5e8"/>
        <g id="Grupo_82349" data-name="Grupo 82349" transform="translate(2.746 2.969)">
          <path id="Trazado_119636" data-name="Trazado 119636" d="M496.322,182.927a5.577,5.577,0,0,0-2.379-.792c0-.051.007-.1.007-.148,0-7.2-5.088-15.976-11.363-19.6-3.008-1.736-5.74-1.971-7.771-.954,1.979-.787,4.541-.473,7.342,1.145,6.276,3.624,11.363,12.4,11.363,19.6,0,.051-.006.1-.006.148a5.548,5.548,0,0,1,2.379.792,12.931,12.931,0,0,1,5.869,10.123c0,1.881-.673,3.194-1.758,3.79,1.333-.465,2.187-1.862,2.187-3.98A12.932,12.932,0,0,0,496.322,182.927Z" transform="translate(-465.425 -160.83)" fill="#fff"/>
          <path id="Trazado_119637" data-name="Trazado 119637" d="M469.379,164.751a11.22,11.22,0,0,1,1.186.8c.046-.135.094-.267.146-.4a10.678,10.678,0,0,0-.9-.6c-2.008-1.159-3.83-1.3-5.175-.6A5.688,5.688,0,0,1,469.379,164.751Z" transform="translate(-464.633 -161.04)" fill="#fff"/>
        </g>
        <path id="Trazado_119638" data-name="Trazado 119638" d="M494.87,183.134a5.548,5.548,0,0,0-2.379-.792c0-.051.006-.1.006-.148,0-7.2-5.087-15.976-11.363-19.6-5.047-2.913-9.319-1.6-10.8,2.766a11.225,11.225,0,0,0-1.186-.8c-4.138-2.389-7.492-.476-7.492,4.272a16.508,16.508,0,0,0,7.492,12.923L494.87,196.6c3.242,1.871,5.869.374,5.869-3.346A12.931,12.931,0,0,0,494.87,183.134Z" transform="translate(-461.655 -157.877)" fill="#d1ebff"/>
        <path id="Trazado_119639" data-name="Trazado 119639" d="M497.665,195.677a3.455,3.455,0,0,1-1.689-.552l-25.725-14.852a14.662,14.662,0,0,1-6.545-11.284c0-1.025.219-3.409,2.238-3.409a5.036,5.036,0,0,1,2.416.776,9.578,9.578,0,0,1,.988.67l2.092,1.59.845-2.488a4.007,4.007,0,0,1,3.916-3.04,8.568,8.568,0,0,1,4.147,1.305c5.647,3.259,10.417,11.485,10.417,17.961,0,0-.006.065-.006.125l-.021,1.791,1.787.12a3.755,3.755,0,0,1,1.56.542,11.024,11.024,0,0,1,4.922,8.485,3.084,3.084,0,0,1-.481,1.879.994.994,0,0,1-.86.382Z" transform="translate(-461.814 -158.037)" fill="#3f92d1"/>
        <g id="Grupo_82350" data-name="Grupo 82350" transform="translate(1.892 5.58)">
          <path id="Trazado_119640" data-name="Trazado 119640" d="M472.745,168.187l.844-2.488a4.99,4.99,0,0,1,1.24-2.038,4.537,4.537,0,0,0-1.869,2.511l-.587,1.731Z" transform="translate(-464.38 -163.661)" fill="#2672ab"/>
          <path id="Trazado_119641" data-name="Trazado 119641" d="M498.294,195.429a3.453,3.453,0,0,1-1.688-.552l-25.725-14.852a14.662,14.662,0,0,1-6.545-11.284,4.5,4.5,0,0,1,.774-2.762c-1.246.56-1.4,2.375-1.4,3.235a14.662,14.662,0,0,0,6.545,11.284l25.725,14.852a3.455,3.455,0,0,0,1.689.552.994.994,0,0,0,.86-.382,1.346,1.346,0,0,0,.076-.124A1.364,1.364,0,0,1,498.294,195.429Z" transform="translate(-463.706 -163.841)" fill="#2672ab"/>
        </g>
      </g>
      <g id="Grupo_82356" data-name="Grupo 82356" transform="translate(360.172 146.995)">
        <path id="Trazado_119642" data-name="Trazado 119642" d="M396.392,199.067l-27.853-15.642c-1.525-.88-1.333-2.417.427-3.433h0c1.76-1.016,7.582-1.022,9.105-.142l26.192,14.7c2.34,1.381.024,3.276-1.925,4.265h0A6.61,6.61,0,0,1,396.392,199.067Z" transform="translate(-363.326 -152.434)" fill="#92b4d1" opacity="0.2"/>
        <path id="Trazado_119643" data-name="Trazado 119643" d="M396.842,197.645l-30.7-17.753a7.586,7.586,0,0,1-3.169-6.054V153.778c0-2.333,1.418-3.406,3.169-2.4l30.7,17.752a7.591,7.591,0,0,1,3.168,6.055V195.25C400.01,197.584,398.592,198.656,396.842,197.645Z" transform="translate(-362.973 -150.241)" fill="#a8cff0"/>
        <path id="Trazado_119644" data-name="Trazado 119644" d="M397.4,182.075,367.182,164.6a5.389,5.389,0,0,1-2.279-4.514v-5.214a.561.561,0,0,1,.846-.483l.1.057,30.254,17.5a4.873,4.873,0,0,1,2.28,4.514v5.131a.606.606,0,0,1-.907.526Z" transform="translate(-363.123 -150.499)" fill="#084c94"/>
        <path id="Trazado_119645" data-name="Trazado 119645" d="M397.4,196.459l-30.218-17.47a5.389,5.389,0,0,1-2.279-4.514v-5.214a.561.561,0,0,1,.846-.483l.1.057,30.254,17.5a4.873,4.873,0,0,1,2.28,4.514v5.131a.606.606,0,0,1-.907.526Z" transform="translate(-363.123 -151.617)" fill="#084c94"/>
        <path id="Trazado_119646" data-name="Trazado 119646" d="M397.981,181.7l-.074-.042L367.688,164.19a5.386,5.386,0,0,1-2.279-4.514v-5.214a.55.55,0,0,1,.019-.143.558.558,0,0,0-.526.557v5.214a5.389,5.389,0,0,0,2.279,4.514l30.218,17.47.075.042a.605.605,0,0,0,.876-.343A.592.592,0,0,1,397.981,181.7Z" transform="translate(-363.123 -150.499)" fill="#001a46"/>
        <path id="Trazado_119647" data-name="Trazado 119647" d="M397.981,196.088l-.074-.042-30.219-17.471a5.386,5.386,0,0,1-2.279-4.514v-5.214a.55.55,0,0,1,.019-.143.558.558,0,0,0-.526.557v5.214a5.389,5.389,0,0,0,2.279,4.514l30.218,17.47.075.042a.605.605,0,0,0,.876-.343A.592.592,0,0,1,397.981,196.088Z" transform="translate(-363.123 -151.617)" fill="#001a46"/>
        <path id="Trazado_119648" data-name="Trazado 119648" d="M398.435,168.31l-30.7-17.753a2.145,2.145,0,0,0-1.855-.272c-.066.026-1.544.779-1.606.813l0,0a2.074,2.074,0,0,1,1.972.219l30.7,17.752a7.591,7.591,0,0,1,3.169,6.055v20.061c0,1.456-.553,2.421-1.394,2.695a.53.53,0,0,0,.278-.094c.04-.023,1.593-.848,1.631-.875a2.927,2.927,0,0,0,.977-2.487V174.363A7.588,7.588,0,0,0,398.435,168.31Z" transform="translate(-363.074 -150.177)" fill="#3f92d1"/>
        <path id="Trazado_119649" data-name="Trazado 119649" d="M398.435,168.31l-30.7-17.753a2.145,2.145,0,0,0-1.855-.272c-.066.026-1.544.779-1.606.813l0,0a2.074,2.074,0,0,1,1.972.219l30.7,17.752Z" transform="translate(-363.074 -150.177)" fill="#4f9fdb"/>
        <path id="Trazado_119650" data-name="Trazado 119650" d="M397.113,169.053l-30.7-17.753a2.1,2.1,0,0,0-1.908-.243,2.339,2.339,0,0,1,1.528.358l30.7,17.753a7.586,7.586,0,0,1,3.169,6.054v20.061a2.663,2.663,0,0,1-1.26,2.64c.978-.155,1.64-1.159,1.64-2.754v-20.06A7.591,7.591,0,0,0,397.113,169.053Z" transform="translate(-363.092 -150.235)" fill="#fff" style="mix-blend-mode: screen;isolation: isolate"/>
        <g id="Grupo_82352" data-name="Grupo 82352" transform="translate(7.064 22.867)">
          <path id="Trazado_119651" data-name="Trazado 119651" d="M392,188.737a4.208,4.208,0,0,0,1.91,3.3c1.056.61,1.911.122,1.911-1.089a4.208,4.208,0,0,0-1.911-3.3C392.859,187.039,392,187.527,392,188.737Z" transform="translate(-372.293 -175.936)" fill="#001a46"/>
          <path id="Trazado_119652" data-name="Trazado 119652" d="M386.661,185.634a4.212,4.212,0,0,0,1.911,3.3c1.055.609,1.91.121,1.91-1.089a4.208,4.208,0,0,0-1.91-3.3C387.517,183.935,386.661,184.423,386.661,185.634Z" transform="translate(-371.878 -175.695)" fill="#001a46"/>
          <path id="Trazado_119653" data-name="Trazado 119653" d="M381.318,182.53a4.211,4.211,0,0,0,1.911,3.3c1.055.609,1.91.122,1.91-1.089a4.208,4.208,0,0,0-1.91-3.3C382.174,180.831,381.318,181.319,381.318,182.53Z" transform="translate(-371.463 -175.454)" fill="#001a46"/>
          <path id="Trazado_119654" data-name="Trazado 119654" d="M375.975,179.426a4.209,4.209,0,0,0,1.911,3.3c1.055.61,1.91.122,1.91-1.089a4.21,4.21,0,0,0-1.91-3.3C376.831,177.728,375.975,178.216,375.975,179.426Z" transform="translate(-371.047 -175.213)" fill="#001a46"/>
          <path id="Trazado_119655" data-name="Trazado 119655" d="M370.632,176.323a4.212,4.212,0,0,0,1.911,3.3c1.055.609,1.91.121,1.91-1.089a4.208,4.208,0,0,0-1.91-3.3C371.488,174.624,370.632,175.112,370.632,176.323Z" transform="translate(-370.632 -174.971)" fill="#001a46"/>
        </g>
        <g id="Grupo_82353" data-name="Grupo 82353" transform="translate(6.472 22.906)">
          <path id="Trazado_119656" data-name="Trazado 119656" d="M391.363,188.78a4.208,4.208,0,0,0,1.91,3.3c1.055.61,1.911.122,1.911-1.089a4.211,4.211,0,0,0-1.911-3.3C392.218,187.082,391.363,187.569,391.363,188.78Z" transform="translate(-371.652 -175.979)" fill="#a8cff0"/>
          <path id="Trazado_119657" data-name="Trazado 119657" d="M386.02,185.676a4.208,4.208,0,0,0,1.91,3.3c1.056.61,1.911.122,1.911-1.089a4.21,4.21,0,0,0-1.911-3.3C386.875,183.978,386.02,184.466,386.02,185.676Z" transform="translate(-371.237 -175.738)" fill="#a8cff0"/>
          <path id="Trazado_119658" data-name="Trazado 119658" d="M380.677,182.573a4.208,4.208,0,0,0,1.911,3.3c1.055.609,1.91.121,1.91-1.089a4.208,4.208,0,0,0-1.91-3.3C381.532,180.874,380.677,181.362,380.677,182.573Z" transform="translate(-370.822 -175.496)" fill="#a8cff0"/>
          <path id="Trazado_119659" data-name="Trazado 119659" d="M375.334,179.469a4.211,4.211,0,0,0,1.911,3.3c1.055.61,1.91.122,1.91-1.089a4.21,4.21,0,0,0-1.91-3.3C376.19,177.77,375.334,178.258,375.334,179.469Z" transform="translate(-370.406 -175.255)" fill="#a8cff0"/>
          <path id="Trazado_119660" data-name="Trazado 119660" d="M369.991,176.365a4.209,4.209,0,0,0,1.911,3.3c1.055.61,1.91.122,1.91-1.089a4.211,4.211,0,0,0-1.91-3.3C370.847,174.667,369.991,175.155,369.991,176.365Z" transform="translate(-369.991 -175.014)" fill="#a8cff0"/>
        </g>
        <g id="Grupo_82354" data-name="Grupo 82354" transform="translate(7.064 9.268)">
          <path id="Trazado_119661" data-name="Trazado 119661" d="M392,173.992a4.208,4.208,0,0,0,1.91,3.3c1.056.61,1.911.122,1.911-1.089a4.208,4.208,0,0,0-1.911-3.3C392.859,172.294,392,172.781,392,173.992Z" transform="translate(-372.293 -161.191)" fill="#001a46"/>
          <path id="Trazado_119662" data-name="Trazado 119662" d="M386.661,170.889a4.209,4.209,0,0,0,1.911,3.294c1.055.61,1.91.122,1.91-1.089a4.211,4.211,0,0,0-1.91-3.3C387.517,169.19,386.661,169.678,386.661,170.889Z" transform="translate(-371.878 -160.95)" fill="#001a46"/>
          <path id="Trazado_119663" data-name="Trazado 119663" d="M381.318,167.785a4.211,4.211,0,0,0,1.911,3.3c1.055.609,1.91.122,1.91-1.089a4.208,4.208,0,0,0-1.91-3.3C382.174,166.086,381.318,166.574,381.318,167.785Z" transform="translate(-371.463 -160.709)" fill="#001a46"/>
          <path id="Trazado_119664" data-name="Trazado 119664" d="M375.975,164.681a4.209,4.209,0,0,0,1.911,3.3c1.055.61,1.91.122,1.91-1.089a4.21,4.21,0,0,0-1.91-3.3C376.831,162.983,375.975,163.47,375.975,164.681Z" transform="translate(-371.047 -160.468)" fill="#001a46"/>
          <path id="Trazado_119665" data-name="Trazado 119665" d="M370.632,161.578a4.212,4.212,0,0,0,1.911,3.3c1.055.609,1.91.121,1.91-1.09a4.208,4.208,0,0,0-1.91-3.294C371.488,159.879,370.632,160.367,370.632,161.578Z" transform="translate(-370.632 -160.226)" fill="#001a46"/>
        </g>
        <g id="Grupo_82355" data-name="Grupo 82355" transform="translate(6.472 9.307)">
          <path id="Trazado_119666" data-name="Trazado 119666" d="M391.363,174.035a4.21,4.21,0,0,0,1.91,3.3c1.055.609,1.911.122,1.911-1.089a4.209,4.209,0,0,0-1.911-3.3C392.218,172.336,391.363,172.824,391.363,174.035Z" transform="translate(-371.652 -161.234)" fill="#a8cff0"/>
          <path id="Trazado_119667" data-name="Trazado 119667" d="M386.02,170.931a4.208,4.208,0,0,0,1.91,3.3c1.056.61,1.911.122,1.911-1.089a4.208,4.208,0,0,0-1.911-3.3C386.875,169.233,386.02,169.72,386.02,170.931Z" transform="translate(-371.237 -160.993)" fill="#a8cff0"/>
          <path id="Trazado_119668" data-name="Trazado 119668" d="M380.677,167.828a4.21,4.21,0,0,0,1.911,3.3c1.055.609,1.91.121,1.91-1.089a4.208,4.208,0,0,0-1.91-3.3C381.532,166.129,380.677,166.617,380.677,167.828Z" transform="translate(-370.822 -160.751)" fill="#a8cff0"/>
          <path id="Trazado_119669" data-name="Trazado 119669" d="M375.334,164.724a4.211,4.211,0,0,0,1.911,3.3c1.055.609,1.91.122,1.91-1.089a4.208,4.208,0,0,0-1.91-3.3C376.19,163.025,375.334,163.513,375.334,164.724Z" transform="translate(-370.406 -160.51)" fill="#a8cff0"/>
          <path id="Trazado_119670" data-name="Trazado 119670" d="M369.991,161.62a4.209,4.209,0,0,0,1.911,3.3c1.055.61,1.91.122,1.91-1.089a4.21,4.21,0,0,0-1.91-3.3C370.847,159.922,369.991,160.41,369.991,161.62Z" transform="translate(-369.991 -160.269)" fill="#a8cff0"/>
        </g>
      </g>
      <g id="Grupo_82367" data-name="Grupo 82367" transform="translate(532.851 169.708)">
        <g id="Grupo_82357" data-name="Grupo 82357">
          <path id="Trazado_119671" data-name="Trazado 119671" d="M578.5,231.883,553.375,217.24a7.588,7.588,0,0,1-3.168-6.055V178.406c0-2.333,1.418-3.406,3.168-2.4L578.5,190.655a7.589,7.589,0,0,1,3.169,6.055v32.779C581.667,231.822,580.249,232.894,578.5,231.883Z" transform="translate(-550.207 -174.869)" fill="#a8cff0"/>
          <path id="Trazado_119672" data-name="Trazado 119672" d="M579.057,230.312,554.416,215.95a5.388,5.388,0,0,1-2.28-4.514V179.5a.562.562,0,0,1,.847-.483l.1.057,24.677,14.387a4.873,4.873,0,0,1,2.279,4.514v31.848a.606.606,0,0,1-.907.527Z" transform="translate(-550.357 -175.127)" fill="#084c94"/>
          <path id="Trazado_119673" data-name="Trazado 119673" d="M579.637,229.94l-.074-.042-24.641-14.361a5.389,5.389,0,0,1-2.279-4.514V179.091a.55.55,0,0,1,.019-.143.559.559,0,0,0-.527.557v31.931a5.388,5.388,0,0,0,2.28,4.514l24.641,14.362.074.042a.606.606,0,0,0,.877-.343A.591.591,0,0,1,579.637,229.94Z" transform="translate(-550.357 -175.127)" fill="#001a46"/>
          <path id="Trazado_119674" data-name="Trazado 119674" d="M580.091,189.829l-25.122-14.644a2.145,2.145,0,0,0-1.855-.272c-.066.026-1.544.779-1.607.813l0,0a2.069,2.069,0,0,1,1.971.218L578.6,190.59a7.589,7.589,0,0,1,3.169,6.055v32.779c0,1.456-.552,2.421-1.394,2.7a.525.525,0,0,0,.278-.095c.04-.023,1.594-.848,1.631-.875a2.925,2.925,0,0,0,.977-2.487V195.883A7.589,7.589,0,0,0,580.091,189.829Z" transform="translate(-550.308 -174.805)" fill="#3f92d1"/>
          <path id="Trazado_119675" data-name="Trazado 119675" d="M580.091,189.829l-25.122-14.644a2.145,2.145,0,0,0-1.855-.272c-.066.026-1.544.779-1.607.813l0,0a2.069,2.069,0,0,1,1.971.218L578.6,190.59Z" transform="translate(-550.308 -174.805)" fill="#4f9fdb"/>
          <path id="Trazado_119676" data-name="Trazado 119676" d="M578.769,190.573l-25.123-14.645a2.1,2.1,0,0,0-1.908-.243,2.34,2.34,0,0,1,1.528.358l25.123,14.644a7.591,7.591,0,0,1,3.169,6.055V229.52a2.661,2.661,0,0,1-1.261,2.64c.978-.155,1.641-1.159,1.641-2.753v-32.78A7.586,7.586,0,0,0,578.769,190.573Z" transform="translate(-550.326 -174.863)" fill="#fff" style="mix-blend-mode: screen;isolation: isolate"/>
        </g>
        <g id="Grupo_82358" data-name="Grupo 82358" transform="translate(15.442 26.71)">
          <path id="Trazado_119677" data-name="Trazado 119677" d="M567.5,214.549a.615.615,0,0,1-.123-.013.554.554,0,0,1-.418-.662,42.572,42.572,0,0,0,.974-9.334v-.22a.553.553,0,1,1,1.107,0v.22a43.7,43.7,0,0,1-1,9.578A.554.554,0,0,1,567.5,214.549Z" transform="translate(-566.95 -203.766)" fill="#a8cff0"/>
        </g>
        <g id="Grupo_82359" data-name="Grupo 82359" transform="translate(11.495 22.947)">
          <path id="Trazado_119678" data-name="Trazado 119678" d="M563.225,217.973a.53.53,0,0,1-.13-.017.553.553,0,0,1-.409-.668,73.762,73.762,0,0,0,1.646-15.175,2.869,2.869,0,0,1,.925-2.3.553.553,0,1,1,.694.86,1.816,1.816,0,0,0-.514,1.443,74.964,74.964,0,0,1-1.677,15.436A.553.553,0,0,1,563.225,217.973Z" transform="translate(-562.671 -199.686)" fill="#a8cff0"/>
        </g>
        <g id="Grupo_82360" data-name="Grupo 82360" transform="translate(16.287 23.035)">
          <path id="Trazado_119679" data-name="Trazado 119679" d="M571.55,206.289a.552.552,0,0,1-.552-.553,6.392,6.392,0,0,0-2.854-4.92.553.553,0,1,1,.553-.958,7.4,7.4,0,0,1,3.407,5.878A.553.553,0,0,1,571.55,206.289Z" transform="translate(-567.866 -199.782)" fill="#a8cff0"/>
        </g>
        <g id="Grupo_82361" data-name="Grupo 82361" transform="translate(17.159 32.924)">
          <path id="Trazado_119680" data-name="Trazado 119680" d="M569.366,222.919a.542.542,0,0,1-.126-.015.553.553,0,0,1-.413-.664,109.733,109.733,0,0,0,1.948-11.247.553.553,0,0,1,1.1.126,111.091,111.091,0,0,1-1.97,11.371A.552.552,0,0,1,569.366,222.919Z" transform="translate(-568.812 -210.504)" fill="#a8cff0"/>
        </g>
        <g id="Grupo_82362" data-name="Grupo 82362" transform="translate(5.994 14.922)">
          <path id="Trazado_119681" data-name="Trazado 119681" d="M575.061,222.448a.547.547,0,0,1-.142-.018.554.554,0,0,1-.393-.677,50.9,50.9,0,0,0,1.58-13.031v-.22c0-5.585-3.961-12.417-8.83-15.228-2.265-1.309-4.362-1.536-5.906-.646S559,195.413,559,197.986a53.66,53.66,0,0,1-1.2,11.607.554.554,0,1,1-1.081-.24,52.559,52.559,0,0,0,1.173-11.367c0-2.985,1.038-5.228,2.924-6.317s4.39-.869,7.013.646c5.174,2.987,9.382,10.248,9.382,16.187v.22a51.979,51.979,0,0,1-1.616,13.315A.553.553,0,0,1,575.061,222.448Z" transform="translate(-556.707 -190.985)" fill="#a8cff0"/>
        </g>
        <g id="Grupo_82363" data-name="Grupo 82363" transform="translate(8.56 31.444)">
          <path id="Trazado_119682" data-name="Trazado 119682" d="M560.042,215.311a.553.553,0,0,1-.536-.692,48.106,48.106,0,0,0,1.033-5.245.563.563,0,0,1,.625-.47.553.553,0,0,1,.469.625,49.189,49.189,0,0,1-1.056,5.366A.554.554,0,0,1,560.042,215.311Z" transform="translate(-559.489 -208.899)" fill="#a8cff0"/>
        </g>
        <g id="Grupo_82364" data-name="Grupo 82364" transform="translate(9.807 20.062)">
          <path id="Trazado_119683" data-name="Trazado 119683" d="M561.394,207.443a.466.466,0,0,1-.062,0,.553.553,0,0,1-.489-.611,60.7,60.7,0,0,0,.358-6.684,5.76,5.76,0,0,1,.92-3.353.554.554,0,0,1,.9.641,4.675,4.675,0,0,0-.717,2.712,61.963,61.963,0,0,1-.364,6.805A.554.554,0,0,1,561.394,207.443Z" transform="translate(-560.84 -196.558)" fill="#a8cff0"/>
        </g>
        <g id="Grupo_82365" data-name="Grupo 82365" transform="translate(12.691 18.768)">
          <path id="Trazado_119684" data-name="Trazado 119684" d="M573.389,203.6a.555.555,0,0,1-.515-.35,12.86,12.86,0,0,0-5.034-6.229,4.328,4.328,0,0,0-3.18-.676.554.554,0,1,1-.278-1.072,5.391,5.391,0,0,1,4.011.789,13.813,13.813,0,0,1,5.509,6.779.555.555,0,0,1-.514.758Z" transform="translate(-563.968 -195.155)" fill="#a8cff0"/>
        </g>
        <g id="Grupo_82366" data-name="Grupo 82366" transform="translate(20.145 30.161)">
          <path id="Trazado_119685" data-name="Trazado 119685" d="M572.6,223.71a.548.548,0,0,1-.174-.029.554.554,0,0,1-.35-.7l.123-.367a45.618,45.618,0,0,0,2.109-14.333v-.22a.553.553,0,1,1,1.106,0v.22a46.737,46.737,0,0,1-2.164,14.681l-.123.369A.555.555,0,0,1,572.6,223.71Z" transform="translate(-572.05 -207.508)" fill="#a8cff0"/>
        </g>
      </g>
    </g>
  </g>
</svg>
