<svg xmlns="http://www.w3.org/2000/svg" xmlns:xlink="http://www.w3.org/1999/xlink" width="85" height="85" viewBox="0 0 85 85">
  <defs>
    <clipPath id="clip-path">
      <rect id="Rectángulo_34131" data-name="Rectángulo 34131" width="85" height="85" transform="translate(180 6436)" fill="#fff" stroke="#707070" stroke-width="1"/>
    </clipPath>
  </defs>
  <g id="Enmascarar_grupo_115" data-name="Enmascarar grupo 115" transform="translate(-180 -6436)" clip-path="url(#clip-path)">
    <g id="diagnostico" transform="translate(180.004 6436.004)">
      <g id="Grupo_83093" data-name="Grupo 83093">
        <g id="Grupo_83091" data-name="Grupo 83091">
          <path id="Trazado_121081" data-name="Trazado 121081" d="M43.1,8.441,65.653,47.5a10.3,10.3,0,0,1-8.918,15.446h-45.1A10.3,10.3,0,0,1,2.718,47.5L25.268,8.441a10.3,10.3,0,0,1,17.836,0Z" fill="#fe646f" fill-rule="evenodd"/>
          <path id="Trazado_121082" data-name="Trazado 121082" d="M43.1,8.441,65.653,47.5a10.3,10.3,0,0,1-8.918,15.446H54.056A10.3,10.3,0,0,0,62.974,47.5L40.425,8.441a10.216,10.216,0,0,0-7.578-5.063,10.523,10.523,0,0,1,1.339-.086A10.228,10.228,0,0,1,43.1,8.441Z" fill="#fd4755" fill-rule="evenodd"/>
          <path id="Trazado_121083" data-name="Trazado 121083" d="M38.455,11.125,61,50.182a4.93,4.93,0,0,1-4.269,7.394h-45.1a4.93,4.93,0,0,1-4.269-7.394l22.55-39.057a4.929,4.929,0,0,1,8.538,0Z" fill="#ffe177" fill-rule="evenodd"/>
          <path id="Trazado_121084" data-name="Trazado 121084" d="M14.315,57.576H11.636a4.93,4.93,0,0,1-4.269-7.394l22.55-39.057A4.86,4.86,0,0,1,34.186,8.66a5.042,5.042,0,0,1,1.339.179A4.855,4.855,0,0,0,32.6,11.125L10.046,50.182a4.929,4.929,0,0,0,4.269,7.394Z" fill="#ffd064" fill-rule="evenodd"/>
          <path id="Trazado_121085" data-name="Trazado 121085" d="M34.186,43.738a2.82,2.82,0,1,1-2.82,2.82,2.82,2.82,0,0,1,2.82-2.82Zm0-2.948a2.2,2.2,0,0,1-2.2-2.122L31.43,23.26a2.2,2.2,0,0,1,2.2-2.28h1.113a2.2,2.2,0,0,1,2.2,2.28l-.556,15.407A2.2,2.2,0,0,1,34.186,40.789Z" fill="#fe646f" fill-rule="evenodd"/>
          <path id="Trazado_121086" data-name="Trazado 121086" d="M34.186,43.738a2.82,2.82,0,1,1-.67,5.559,2.82,2.82,0,0,0,0-5.479,2.846,2.846,0,0,1,.67-.08Zm0-2.948a2.2,2.2,0,0,1-.67-.1,2.2,2.2,0,0,0,1.53-2.018L35.6,23.26a2.2,2.2,0,0,0-2.086-2.278l.113,0h1.113a2.2,2.2,0,0,1,2.2,2.28l-.556,15.407a2.2,2.2,0,0,1-2.2,2.122Z" fill="#fd4755" fill-rule="evenodd"/>
        </g>
        <g id="Grupo_83092" data-name="Grupo 83092">
          <path id="Trazado_121087" data-name="Trazado 121087" d="M65.3,60.763a16.793,16.793,0,0,1-2.834,3.12l7.706,7.554L73.1,68.413Z" fill="#a79ba7" fill-rule="evenodd"/>
          <path id="Trazado_121088" data-name="Trazado 121088" d="M65.349,60.711a1.936,1.936,0,0,1-.839,1.125l7.655,7.6.937-1.027Z" fill="#837683" fill-rule="evenodd"/>
          <path id="Trazado_121089" data-name="Trazado 121089" d="M79.926,81.241l3.311-3.412a1.522,1.522,0,0,0-.032-2.147l-9.17-8.9a1.522,1.522,0,0,0-2.147.032l-3.311,3.412a1.523,1.523,0,0,0,.032,2.147l9.17,8.9a1.523,1.523,0,0,0,2.147-.032Z" fill="#f1ba84" fill-rule="evenodd"/>
          <path id="Trazado_121090" data-name="Trazado 121090" d="M72.678,66.784l9.17,8.9a1.522,1.522,0,0,1,.032,2.147L78.57,81.241a1.5,1.5,0,0,1-.411.3,1.524,1.524,0,0,0,1.768-.3l3.311-3.412a1.522,1.522,0,0,0-.032-2.147l-9.17-8.9a1.524,1.524,0,0,0-1.735-.268A1.5,1.5,0,0,1,72.678,66.784Z" fill="#e3a76f" fill-rule="evenodd"/>
          <circle id="Elipse_5327" data-name="Elipse 5327" cx="16.696" cy="16.696" r="16.696" transform="translate(29.16 52.357) rotate(-45)" fill="#8ac9fe"/>
          <path id="Trazado_121091" data-name="Trazado 121091" d="M52.783,35.658a16.7,16.7,0,0,1,0,33.4q-.408,0-.811-.02a16.7,16.7,0,0,0,0-33.357c.269-.013.539-.02.811-.02Z" fill="#60b7ff" fill-rule="evenodd"/>
          <circle id="Elipse_5328" data-name="Elipse 5328" cx="11.986" cy="11.986" r="11.986" transform="matrix(0.305, -0.952, 0.952, 0.305, 37.686, 60.121)" fill="#eceff1"/>
          <path id="Trazado_121092" data-name="Trazado 121092" d="M52.783,40.366c.273,0,.543.01.811.028a11.99,11.99,0,0,0,0,23.925c-.268.018-.538.028-.811.028a11.991,11.991,0,0,1,0-23.981Z" fill="#d1d1d6" fill-rule="evenodd"/>
        </g>
      </g>
      <path id="Trazado_121093" data-name="Trazado 121093" d="M52.787,62.884A10.527,10.527,0,1,1,63.314,52.357,10.539,10.539,0,0,1,52.787,62.884Zm0-23.711A13.184,13.184,0,1,0,65.97,52.357,13.2,13.2,0,0,0,52.787,39.173ZM82.288,76.9l-3.312,3.411a.2.2,0,0,1-.269,0l-9.17-8.9a.183.183,0,0,1-.055-.133.179.179,0,0,1,.051-.135l3.31-3.411a.2.2,0,0,1,.135-.057h0a.186.186,0,0,1,.131.052l9.17,8.9A.2.2,0,0,1,82.288,76.9ZM37.417,52.357a15.37,15.37,0,1,0,15.37-15.37A15.387,15.387,0,0,0,37.417,52.357Zm-.362-8.795a18.07,18.07,0,0,1,13.36-9.074l-13.106-22.7a3.6,3.6,0,0,0-6.239,0L8.52,50.846a3.6,3.6,0,0,0,3.119,5.4H35.184a17.994,17.994,0,0,1-.424-3.891c0-.575.028-1.142.082-1.7a4.259,4.259,0,0,1-.652.052,4.148,4.148,0,1,1,2.865-7.143Zm-2.865,4.487a1.492,1.492,0,1,1,1.493-1.49A1.493,1.493,0,0,1,34.189,48.049ZM11.64,61.616H37.325A18.072,18.072,0,0,1,35.99,58.9H11.64a6.257,6.257,0,0,1-5.42-9.386L28.77,10.461a6.257,6.257,0,0,1,10.838,0L53.4,34.342a17.9,17.9,0,0,1,3.383.435L41.957,9.106a8.967,8.967,0,0,0-15.534,0L3.871,48.162A8.97,8.97,0,0,0,11.64,61.616Zm58.306,5.3-1.084,1.117-3.184-3.089q.545-.558,1.04-1.159ZM84.134,74.73l-9.172-8.9a2.837,2.837,0,0,0-2.024-.8,2.87,2.87,0,0,0-.941.176l-3.732-3.62a18.013,18.013,0,0,0-7.643-25.46L44.257,7.777a11.625,11.625,0,0,0-20.136,0L1.572,46.834A11.626,11.626,0,0,0,11.64,64.272H39.273a18,18,0,0,0,24.41,2.435l3.431,3.33a2.861,2.861,0,0,0-.287,1.291,2.826,2.826,0,0,0,.862,2l9.17,8.9a2.85,2.85,0,0,0,4.024-.06h0l3.31-3.411a2.85,2.85,0,0,0-.06-4.024ZM35.062,38.62a.874.874,0,0,1-1.746,0L32.76,23.212a.871.871,0,0,1,.873-.9h1.112a.87.87,0,0,1,.873.9Zm-.317-18.967a3.532,3.532,0,0,1,3.528,3.655l-.558,15.408a3.529,3.529,0,0,1-7.054,0l-.556-15.408a3.53,3.53,0,0,1,3.527-3.655Z" fill-rule="evenodd"/>
    </g>
  </g>
</svg>
