<svg xmlns="http://www.w3.org/2000/svg" xmlns:xlink="http://www.w3.org/1999/xlink" width="295" height="181.945" viewBox="0 0 295 181.945">
  <defs>
    <linearGradient id="linear-gradient" x1="0.407" y1="1.25" x2="0.533" y2="-0.209" gradientUnits="objectBoundingBox">
      <stop offset="0" stop-color="#01b3f9"/>
      <stop offset="1" stop-color="#015bea"/>
    </linearGradient>
    <linearGradient id="linear-gradient-2" x1="0.052" y1="1.128" x2="1.001" y2="-0.202" gradientUnits="objectBoundingBox">
      <stop offset="0" stop-color="#f6fbff"/>
      <stop offset="1" stop-color="#3d6dff"/>
    </linearGradient>
    <linearGradient id="linear-gradient-3" x1="0" y1="0.5" x2="1" y2="0.5" xlink:href="#linear-gradient"/>
    <linearGradient id="linear-gradient-4" x1="0.872" y1="0.001" x2="0.201" y2="0.9" gradientUnits="objectBoundingBox">
      <stop offset="0" stop-color="#8cb1ff"/>
      <stop offset="1" stop-color="#d7e5ff"/>
    </linearGradient>
    <linearGradient id="linear-gradient-5" x1="0.601" y1="0.237" x2="0.339" y2="0.918" gradientUnits="objectBoundingBox">
      <stop offset="0" stop-color="#01b0f9"/>
      <stop offset="1" stop-color="#1957c8"/>
    </linearGradient>
    <linearGradient id="linear-gradient-6" y1="0.5" x2="1" y2="0.5" gradientUnits="objectBoundingBox">
      <stop offset="0" stop-color="#dffeff"/>
      <stop offset="1" stop-color="#01b0f9"/>
    </linearGradient>
    <linearGradient id="linear-gradient-7" x1="0.001" y1="0.045" x2="1.261" y2="1.194" xlink:href="#linear-gradient-6"/>
    <linearGradient id="linear-gradient-8" x1="1.049" y1="-0.631" x2="0.369" y2="0.822" xlink:href="#linear-gradient-6"/>
    <linearGradient id="linear-gradient-9" x1="0.006" y1="-0.262" x2="0.825" y2="1.2" xlink:href="#linear-gradient-6"/>
    <linearGradient id="linear-gradient-10" x1="0.102" y1="0.024" x2="1.001" y2="1.099" xlink:href="#linear-gradient-6"/>
    <linearGradient id="linear-gradient-11" x1="0.5" y1="-0.2" x2="0.5" y2="0.798" xlink:href="#linear-gradient-6"/>
    <linearGradient id="linear-gradient-14" x1="0.5" y1="0.112" x2="0.5" y2="0.905" xlink:href="#linear-gradient"/>
    <radialGradient id="radial-gradient" cx="-0.495" cy="1.288" r="1.805" gradientTransform="translate(-0.697) scale(2.394 1)" gradientUnits="objectBoundingBox">
      <stop offset="0" stop-color="#419dff"/>
      <stop offset="0.526" stop-color="#1d4cd4"/>
      <stop offset="1" stop-color="#08137a"/>
    </radialGradient>
    <linearGradient id="linear-gradient-17" x1="0.5" y1="-0.013" x2="0.5" y2="1.112" xlink:href="#linear-gradient-6"/>
    <linearGradient id="linear-gradient-18" x1="0.061" y1="0.422" x2="1.377" y2="0.658" xlink:href="#linear-gradient-6"/>
    <linearGradient id="linear-gradient-19" x1="0.211" y1="-0.099" x2="0.803" y2="1.278" xlink:href="#linear-gradient-6"/>
    <linearGradient id="linear-gradient-20" x1="0.296" y1="-0.297" x2="0.705" y2="1.126" xlink:href="#linear-gradient-6"/>
    <linearGradient id="linear-gradient-21" x1="0.11" y1="0.074" x2="0.849" y2="0.81" xlink:href="#linear-gradient"/>
    <linearGradient id="linear-gradient-22" x1="0.547" y1="1.129" x2="0.456" y2="-0.087" xlink:href="#linear-gradient-2"/>
    <linearGradient id="linear-gradient-23" x1="0.597" y1="1.055" x2="-0.021" y2="-2.494" xlink:href="#linear-gradient"/>
    <linearGradient id="linear-gradient-24" x1="0.685" y1="1.563" x2="0.066" y2="-1.987" xlink:href="#linear-gradient"/>
    <linearGradient id="linear-gradient-25" x1="0.774" y1="2.07" x2="0.155" y2="-1.479" xlink:href="#linear-gradient"/>
    <linearGradient id="linear-gradient-26" x1="0.862" y1="2.576" x2="0.243" y2="-0.972" xlink:href="#linear-gradient"/>
    <linearGradient id="linear-gradient-27" x1="0.951" y1="3.084" x2="0.332" y2="-0.465" xlink:href="#linear-gradient"/>
    <linearGradient id="linear-gradient-28" x1="1.039" y1="3.592" x2="0.42" y2="0.042" xlink:href="#linear-gradient"/>
  </defs>
  <g id="Grupo_84772" data-name="Grupo 84772" transform="translate(-495 -6081.165)">
    <rect id="Imagen_23" data-name="Imagen 23" width="295" height="135" rx="19" transform="translate(495 6105.205)" fill="#583ae2"/>
    <g id="Grupo_82405" data-name="Grupo 82405" transform="translate(182.309 5962.545)">
      <g id="Grupo_82328" data-name="Grupo 82328" transform="translate(355.258 118.619)">
        <g id="Grupo_82327" data-name="Grupo 82327">
          <path id="Trazado_119506" data-name="Trazado 119506" d="M516.636,309.432c-.005.016-.008.031-.013.047a1.788,1.788,0,0,1-.2.4c-.016.023-.031.047-.047.07a2.449,2.449,0,0,1-.337.371,3.553,3.553,0,0,1-.3.221,3.191,3.191,0,0,1-.263.187l-61.169,35.548a4.626,4.626,0,0,1-.593.282l-.165.063c-.129.046-.265.083-.4.122s-.28.076-.425.106c-.169.035-.34.067-.514.089l-.127.018c-.236.025-.475.037-.714.039h-.112c-.236,0-.472-.015-.705-.04l-.105-.012a6.791,6.791,0,0,1-.683-.117c-.04-.009-.081-.019-.121-.03a5.778,5.778,0,0,1-.59-.18c-.034-.012-.069-.022-.1-.035a4.658,4.658,0,0,1-.648-.306l-91.785-52.992a2.9,2.9,0,0,1-.941-.819,1.607,1.607,0,0,1-.312-.932h0l-.006,2.191a2.125,2.125,0,0,0,1.252,1.751L448.3,348.461a4.606,4.606,0,0,0,.614.294l.034.012c.033.013.069.022.1.034.124.045.249.091.379.128.069.02.141.034.212.052l.121.03c.037.008.073.019.111.027.138.028.279.053.42.073.05.007.1.01.151.017l.105.011c.052.006.1.013.156.018q.208.017.417.022h.244c.063,0,.126,0,.189,0,.157-.005.315-.016.47-.031.018,0,.036-.005.054-.007.043,0,.083-.012.127-.018.121-.015.242-.028.361-.05.053-.01.1-.028.154-.038.145-.031.285-.067.425-.106.074-.021.153-.033.225-.056s.116-.045.174-.066.111-.04.165-.063a4.662,4.662,0,0,0,.593-.281l61.17-35.548.052-.031c.081-.048.139-.105.212-.157a3.264,3.264,0,0,0,.3-.221l.028-.02a2.432,2.432,0,0,0,.263-.283c.018-.022.029-.045.046-.068s.031-.046.047-.07.057-.077.078-.116a1.639,1.639,0,0,0,.113-.242c.005-.012.007-.025.011-.037s.008-.031.013-.046c.016-.052.034-.1.044-.156a1.414,1.414,0,0,0,.028-.244v-.037l.006-2.19A1.471,1.471,0,0,1,516.636,309.432Z" transform="translate(-355.258 -167.235)" fill="url(#linear-gradient)"/>
          <g id="Grupo_82320" data-name="Grupo 82320" transform="translate(0.006 86.299)">
            <path id="Trazado_119507" data-name="Trazado 119507" d="M515.458,294.269c1.665.962,1.669,2.52.019,3.478l-61.169,35.548a6.609,6.609,0,0,1-6,0L356.519,280.3c-1.661-.959-1.674-2.517-.02-3.478l61.17-35.548a6.623,6.623,0,0,1,6,0Z" transform="translate(-355.266 -240.558)" fill="url(#linear-gradient-2)"/>
          </g>
          <g id="Grupo_82323" data-name="Grupo 82323" transform="translate(30.137 94.8)" opacity="0.49" style="mix-blend-mode: overlay;isolation: isolate">
            <g id="Grupo_82322" data-name="Grupo 82322" style="isolation: isolate">
              <g id="Grupo_82321" data-name="Grupo 82321">
                <path id="Trazado_119508" data-name="Trazado 119508" d="M457.6,313.236l-38.481-22.217a1.81,1.81,0,0,0-1.637,0L396.023,303.49a.5.5,0,0,0,.005.948l38.481,22.217a1.8,1.8,0,0,0,1.637,0l21.459-12.47a.5.5,0,0,0-.005-.948" transform="translate(-395.687 -261.855)" fill="#e0e0e0"/>
                <path id="Trazado_119509" data-name="Trazado 119509" d="M446.123,254.1l-3.506-2.024a1.039,1.039,0,0,0-.947,0l-3.6,2.093a.291.291,0,0,0,0,.551l3.5,2.024a1.052,1.052,0,0,0,.952,0l3.6-2.093a.29.29,0,0,0,0-.549" transform="translate(-406.427 -251.962)" fill="#fff"/>
                <path id="Trazado_119510" data-name="Trazado 119510" d="M453.306,258.247l-3.5-2.024a1.045,1.045,0,0,0-.947,0l-3.6,2.093a.292.292,0,0,0,0,.552l3.506,2.024a1.052,1.052,0,0,0,.952,0l3.6-2.093a.29.29,0,0,0,0-.549" transform="translate(-408.255 -253.018)" fill="#fff"/>
                <path id="Trazado_119511" data-name="Trazado 119511" d="M460.485,262.391l-3.5-2.021a1.053,1.053,0,0,0-.952,0l-3.6,2.093a.294.294,0,0,0,0,.554l3.5,2.022a1.063,1.063,0,0,0,.956,0l3.6-2.093c.262-.152.256-.4-.007-.552" transform="translate(-410.083 -254.073)" fill="#fff"/>
                <path id="Trazado_119512" data-name="Trazado 119512" d="M467.668,266.539l-3.506-2.024a1.039,1.039,0,0,0-.947,0l-3.6,2.093a.291.291,0,0,0,0,.551l3.5,2.024a1.052,1.052,0,0,0,.952,0l3.6-2.093a.29.29,0,0,0,0-.549" transform="translate(-411.911 -255.129)" fill="#fff"/>
                <path id="Trazado_119513" data-name="Trazado 119513" d="M474.851,270.686l-3.505-2.024a1.046,1.046,0,0,0-.947,0l-3.6,2.093a.292.292,0,0,0,0,.552l3.5,2.024a1.052,1.052,0,0,0,.952,0l3.6-2.093a.29.29,0,0,0,0-.549" transform="translate(-413.74 -256.185)" fill="#fff"/>
                <path id="Trazado_119514" data-name="Trazado 119514" d="M482.03,274.83l-3.5-2.021a1.052,1.052,0,0,0-.952,0l-3.6,2.093a.294.294,0,0,0,0,.554l3.5,2.022a1.063,1.063,0,0,0,.956,0l3.6-2.093c.262-.152.256-.4-.007-.552" transform="translate(-415.568 -257.24)" fill="#fff"/>
                <path id="Trazado_119515" data-name="Trazado 119515" d="M489.213,278.978l-3.506-2.024a1.039,1.039,0,0,0-.947,0l-3.6,2.093a.291.291,0,0,0,0,.551l3.5,2.024a1.052,1.052,0,0,0,.952,0l3.6-2.093a.29.29,0,0,0,0-.549" transform="translate(-417.396 -258.295)" fill="#fff"/>
                <path id="Trazado_119516" data-name="Trazado 119516" d="M496.4,283.125l-3.506-2.024a1.046,1.046,0,0,0-.947,0l-3.6,2.093a.292.292,0,0,0,0,.552l3.5,2.024a1.053,1.053,0,0,0,.952,0l3.6-2.093a.29.29,0,0,0,0-.549" transform="translate(-419.225 -259.351)" fill="#fff"/>
                <path id="Trazado_119517" data-name="Trazado 119517" d="M503.575,287.269l-3.5-2.021a1.053,1.053,0,0,0-.952,0l-3.6,2.093a.294.294,0,0,0,0,.554l3.5,2.022a1.06,1.06,0,0,0,.956,0l3.6-2.093c.262-.152.256-.4-.007-.552" transform="translate(-421.053 -260.407)" fill="#fff"/>
                <path id="Trazado_119518" data-name="Trazado 119518" d="M510.758,291.417l-3.506-2.024a1.039,1.039,0,0,0-.947,0l-3.6,2.093a.291.291,0,0,0,0,.551l3.5,2.024a1.05,1.05,0,0,0,.952,0l3.6-2.093a.29.29,0,0,0,0-.549" transform="translate(-422.881 -261.462)" fill="#fff"/>
                <path id="Trazado_119519" data-name="Trazado 119519" d="M517.942,295.565l-3.506-2.025a1.044,1.044,0,0,0-.947,0l-3.6,2.093a.292.292,0,0,0,0,.552l3.505,2.024a1.05,1.05,0,0,0,.952,0l3.6-2.093a.289.289,0,0,0,0-.548" transform="translate(-424.71 -262.518)" fill="#fff"/>
                <path id="Trazado_119520" data-name="Trazado 119520" d="M525.12,299.708l-3.5-2.021a1.053,1.053,0,0,0-.952,0l-3.6,2.093a.293.293,0,0,0,0,.554l3.5,2.022a1.06,1.06,0,0,0,.956,0l3.6-2.093c.262-.152.256-.4-.007-.552" transform="translate(-426.538 -263.573)" fill="#fff"/>
                <path id="Trazado_119521" data-name="Trazado 119521" d="M532.3,303.856l-3.506-2.024a1.039,1.039,0,0,0-.947,0l-3.6,2.093a.291.291,0,0,0,0,.551l3.506,2.024a1.048,1.048,0,0,0,.951,0l3.6-2.093a.29.29,0,0,0,0-.549" transform="translate(-428.366 -264.629)" fill="#fff"/>
                <path id="Trazado_119522" data-name="Trazado 119522" d="M542.147,309.539l-6.277-3.624a1.045,1.045,0,0,0-.948,0l-3.6,2.093a.292.292,0,0,0,0,.552l6.278,3.624a1.051,1.051,0,0,0,.951,0l3.6-2.093a.29.29,0,0,0,0-.549" transform="translate(-430.167 -265.668)" fill="#fff"/>
                <path id="Trazado_119523" data-name="Trazado 119523" d="M535.7,314.38l-3.506-2.024a1.044,1.044,0,0,0-.947,0l-3.6,2.093a.292.292,0,0,0,0,.552l3.505,2.024a1.052,1.052,0,0,0,.952,0l3.6-2.093a.29.29,0,0,0,0-.549" transform="translate(-429.232 -267.308)" fill="#fff"/>
                <path id="Trazado_119524" data-name="Trazado 119524" d="M528.522,310.233l-3.5-2.022a1.052,1.052,0,0,0-.952,0l-3.6,2.093a.294.294,0,0,0,0,.554l3.5,2.021a1.06,1.06,0,0,0,.956,0l3.6-2.093c.262-.151.256-.4-.007-.551" transform="translate(-427.404 -266.253)" fill="#fff"/>
                <path id="Trazado_119525" data-name="Trazado 119525" d="M521.344,306.089l-3.506-2.024a1.039,1.039,0,0,0-.947,0l-3.6,2.093a.291.291,0,0,0,0,.551l3.505,2.024a1.052,1.052,0,0,0,.952,0l3.6-2.093a.29.29,0,0,0,0-.549" transform="translate(-425.576 -265.197)" fill="#fff"/>
                <path id="Trazado_119526" data-name="Trazado 119526" d="M514.16,301.941l-3.506-2.024a1.044,1.044,0,0,0-.947,0l-3.6,2.093a.292.292,0,0,0,0,.552l3.5,2.024a1.052,1.052,0,0,0,.952,0l3.6-2.093a.29.29,0,0,0,0-.549" transform="translate(-423.747 -264.142)" fill="#fff"/>
                <path id="Trazado_119527" data-name="Trazado 119527" d="M506.977,297.794l-3.5-2.022a1.053,1.053,0,0,0-.952,0l-3.6,2.093a.294.294,0,0,0,0,.554l3.5,2.021a1.059,1.059,0,0,0,.956,0l3.6-2.093c.262-.151.256-.4-.007-.551" transform="translate(-421.919 -263.086)" fill="#fff"/>
                <path id="Trazado_119528" data-name="Trazado 119528" d="M499.8,293.65l-3.506-2.024a1.041,1.041,0,0,0-.947,0l-3.6,2.093a.291.291,0,0,0,0,.551l3.5,2.024a1.052,1.052,0,0,0,.952,0l3.6-2.093a.29.29,0,0,0,0-.549" transform="translate(-420.091 -262.031)" fill="#fff"/>
                <path id="Trazado_119529" data-name="Trazado 119529" d="M492.615,289.5l-3.506-2.024a1.044,1.044,0,0,0-.947,0l-3.6,2.093a.292.292,0,0,0,0,.552l3.505,2.024a1.053,1.053,0,0,0,.952,0l3.6-2.093a.29.29,0,0,0,0-.549" transform="translate(-418.263 -260.975)" fill="#fff"/>
                <path id="Trazado_119530" data-name="Trazado 119530" d="M485.432,285.355l-3.5-2.022a1.052,1.052,0,0,0-.952,0l-3.6,2.093a.294.294,0,0,0,0,.554l3.5,2.021a1.051,1.051,0,0,0,.956,0l3.6-2.093c.262-.151.26-.4-.007-.551" transform="translate(-416.434 -259.919)" fill="#fff"/>
                <path id="Trazado_119531" data-name="Trazado 119531" d="M478.253,281.211l-3.505-2.024a1.041,1.041,0,0,0-.947,0l-3.6,2.093a.291.291,0,0,0,0,.551l3.5,2.024a1.053,1.053,0,0,0,.952,0l3.6-2.093a.29.29,0,0,0,0-.549" transform="translate(-414.606 -258.864)" fill="#fff"/>
                <path id="Trazado_119532" data-name="Trazado 119532" d="M471.07,277.063l-3.506-2.024a1.041,1.041,0,0,0-.947,0l-3.6,2.093a.292.292,0,0,0,0,.552l3.5,2.024a1.052,1.052,0,0,0,.952,0l3.6-2.093a.29.29,0,0,0,0-.549" transform="translate(-412.778 -257.808)" fill="#fff"/>
                <path id="Trazado_119533" data-name="Trazado 119533" d="M463.887,272.916l-3.5-2.022a1.052,1.052,0,0,0-.952,0l-3.6,2.093a.293.293,0,0,0,0,.554l3.5,2.021a1.051,1.051,0,0,0,.956,0l3.6-2.093c.262-.151.26-.4-.007-.551" transform="translate(-410.95 -256.753)" fill="#fff"/>
                <path id="Trazado_119534" data-name="Trazado 119534" d="M456.708,268.772l-3.5-2.024a1.041,1.041,0,0,0-.947,0l-3.6,2.093a.291.291,0,0,0,0,.551l3.506,2.024a1.053,1.053,0,0,0,.952,0l3.6-2.093a.29.29,0,0,0,0-.549" transform="translate(-409.121 -255.697)" fill="#fff"/>
                <path id="Trazado_119535" data-name="Trazado 119535" d="M449.525,264.624l-3.506-2.024a1.039,1.039,0,0,0-.947,0l-3.6,2.093a.291.291,0,0,0,0,.551l3.5,2.024a1.05,1.05,0,0,0,.952,0l3.6-2.093a.29.29,0,0,0,0-.549" transform="translate(-407.293 -254.641)" fill="#fff"/>
                <path id="Trazado_119536" data-name="Trazado 119536" d="M441.505,259.994l-6.277-3.624a1.041,1.041,0,0,0-.947,0l-3.6,2.093a.291.291,0,0,0,0,.551l6.277,3.624a1.052,1.052,0,0,0,.952,0l3.6-2.093a.29.29,0,0,0,0-.549" transform="translate(-404.545 -253.055)" fill="#fff"/>
                <path id="Trazado_119537" data-name="Trazado 119537" d="M435.561,265.137l-7.735-4.466a1.039,1.039,0,0,0-.947,0l-3.6,2.093a.291.291,0,0,0,0,.551l7.735,4.466a1.042,1.042,0,0,0,.951,0l3.6-2.093a.29.29,0,0,0,0-.549" transform="translate(-402.661 -254.15)" fill="#fff"/>
                <path id="Trazado_119538" data-name="Trazado 119538" d="M526.858,317.848l-7.73-4.464a1.043,1.043,0,0,0-.952,0l-3.6,2.093c-.266.154-.265.4,0,.554l7.73,4.463a1.041,1.041,0,0,0,.952,0l3.6-2.093a.289.289,0,0,0,0-.548" transform="translate(-425.903 -267.569)" fill="#fff"/>
                <path id="Trazado_119539" data-name="Trazado 119539" d="M443.892,269.947l-3.506-2.024a1.039,1.039,0,0,0-.947,0l-3.6,2.093a.291.291,0,0,0,0,.552l3.506,2.024a1.044,1.044,0,0,0,.951,0l3.6-2.093a.29.29,0,0,0,0-.549" transform="translate(-405.858 -255.996)" fill="#fff"/>
                <path id="Trazado_119540" data-name="Trazado 119540" d="M451.07,274.091l-3.5-2.021a1.041,1.041,0,0,0-.952,0l-3.6,2.093c-.266.154-.265.4,0,.554l3.5,2.022a1.053,1.053,0,0,0,.956,0l3.6-2.093c.261-.151.255-.4-.008-.551" transform="translate(-407.686 -257.051)" fill="#fff"/>
                <path id="Trazado_119541" data-name="Trazado 119541" d="M458.253,278.239l-3.5-2.024a1.041,1.041,0,0,0-.947,0l-3.6,2.092a.291.291,0,0,0,0,.552l3.506,2.024a1.04,1.04,0,0,0,.951,0l3.6-2.093a.289.289,0,0,0,0-.548" transform="translate(-409.514 -258.107)" fill="#fff"/>
                <path id="Trazado_119542" data-name="Trazado 119542" d="M465.437,282.386l-3.506-2.024a1.044,1.044,0,0,0-.947,0l-3.6,2.093a.291.291,0,0,0,0,.552l3.506,2.024a1.044,1.044,0,0,0,.951,0l3.6-2.093a.29.29,0,0,0,0-.549" transform="translate(-411.343 -259.163)" fill="#fff"/>
                <path id="Trazado_119543" data-name="Trazado 119543" d="M472.615,286.53l-3.5-2.021a1.041,1.041,0,0,0-.952,0l-3.6,2.093c-.266.154-.265.4,0,.554l3.5,2.022a1.055,1.055,0,0,0,.956,0l3.6-2.093c.261-.152.255-.4-.008-.552" transform="translate(-413.171 -260.218)" fill="#fff"/>
                <path id="Trazado_119544" data-name="Trazado 119544" d="M479.8,290.678l-3.5-2.024a1.041,1.041,0,0,0-.947,0l-3.6,2.093a.291.291,0,0,0,0,.551l3.506,2.024a1.041,1.041,0,0,0,.952,0l3.6-2.092a.29.29,0,0,0,0-.549" transform="translate(-414.999 -261.274)" fill="#fff"/>
                <path id="Trazado_119545" data-name="Trazado 119545" d="M486.982,294.825l-3.506-2.024a1.044,1.044,0,0,0-.947,0l-3.6,2.093a.291.291,0,0,0,0,.552l3.506,2.024a1.044,1.044,0,0,0,.951,0l3.6-2.093a.29.29,0,0,0,0-.549" transform="translate(-416.828 -262.33)" fill="#fff"/>
                <path id="Trazado_119546" data-name="Trazado 119546" d="M494.16,298.969l-3.5-2.021a1.046,1.046,0,0,0-.952,0l-3.6,2.093c-.266.154-.265.4,0,.554l3.5,2.021a1.05,1.05,0,0,0,.956,0l3.6-2.092c.261-.152.255-.4-.008-.552" transform="translate(-418.656 -263.385)" fill="#fff"/>
                <path id="Trazado_119547" data-name="Trazado 119547" d="M501.343,303.117l-3.5-2.024a1.041,1.041,0,0,0-.947,0l-3.6,2.093a.291.291,0,0,0,0,.551l3.506,2.024a1.041,1.041,0,0,0,.952,0l3.6-2.092a.29.29,0,0,0,0-.549" transform="translate(-420.484 -264.441)" fill="#fff"/>
                <path id="Trazado_119548" data-name="Trazado 119548" d="M508.523,307.262l-3.5-2.022a1.046,1.046,0,0,0-.947,0l-3.6,2.093a.291.291,0,0,0,0,.552l3.5,2.021a1.044,1.044,0,0,0,.956,0l3.6-2.093c.262-.152.26-.4-.007-.551" transform="translate(-422.313 -265.497)" fill="#fff"/>
                <path id="Trazado_119549" data-name="Trazado 119549" d="M515.705,311.408l-3.5-2.021a1.039,1.039,0,0,0-.951,0l-3.6,2.093c-.266.154-.265.4,0,.554l3.5,2.022a1.046,1.046,0,0,0,.952,0l3.6-2.093a.29.29,0,0,0,0-.549" transform="translate(-424.141 -266.552)" fill="#fff"/>
                <path id="Trazado_119550" data-name="Trazado 119550" d="M430.811,270.948l-6.7-3.866-.877-.506-2.795-1.613a1.041,1.041,0,0,0-.947,0l-3.606,2.1a.29.29,0,0,0,0,.549l2.8,1.614.877.506,6.7,3.866a1.044,1.044,0,0,0,.947,0l3.606-2.1a.29.29,0,0,0,0-.549" transform="translate(-400.781 -255.243)" fill="#fff"/>
                <path id="Trazado_119551" data-name="Trazado 119551" d="M518.577,321.62l-6.7-3.866-.871-.5-2.8-1.614a1.039,1.039,0,0,0-.947,0l-3.606,2.1a.29.29,0,0,0,0,.549l2.795,1.614.872.5,6.7,3.866a1.04,1.04,0,0,0,.947,0l3.606-2.1a.29.29,0,0,0,0-.549" transform="translate(-423.125 -268.143)" fill="#fff"/>
                <path id="Trazado_119552" data-name="Trazado 119552" d="M440.1,276.31l-3.506-2.024a1.039,1.039,0,0,0-.947,0l-3.606,2.1a.29.29,0,0,0,0,.549l3.5,2.024a1.041,1.041,0,0,0,.947,0l3.606-2.1a.289.289,0,0,0,0-.548" transform="translate(-404.892 -257.616)" fill="#fff"/>
                <path id="Trazado_119553" data-name="Trazado 119553" d="M447.281,280.457l-3.505-2.024a1.041,1.041,0,0,0-.947,0l-3.606,2.1a.29.29,0,0,0,0,.549l3.5,2.024a1.046,1.046,0,0,0,.947,0l3.606-2.1a.29.29,0,0,0,0-.549" transform="translate(-406.721 -258.672)" fill="#fff"/>
                <path id="Trazado_119554" data-name="Trazado 119554" d="M454.459,284.6l-3.5-2.021a1.041,1.041,0,0,0-.952,0l-3.606,2.1c-.261.151-.26.4.007.551l3.5,2.022a1.051,1.051,0,0,0,.951,0l3.606-2.1c.262-.151.256-.4-.007-.551" transform="translate(-408.548 -259.727)" fill="#fff"/>
                <path id="Trazado_119555" data-name="Trazado 119555" d="M461.643,288.749l-3.506-2.024a1.039,1.039,0,0,0-.947,0l-3.606,2.1a.29.29,0,0,0,0,.549l3.5,2.024a1.041,1.041,0,0,0,.947,0l3.606-2.1a.29.29,0,0,0,0-.549" transform="translate(-410.377 -260.783)" fill="#fff"/>
                <path id="Trazado_119556" data-name="Trazado 119556" d="M468.826,292.9l-3.5-2.024a1.046,1.046,0,0,0-.947,0l-3.606,2.1a.29.29,0,0,0,0,.549l3.5,2.024a1.045,1.045,0,0,0,.947,0l3.606-2.1a.29.29,0,0,0,0-.549" transform="translate(-412.206 -261.839)" fill="#fff"/>
                <path id="Trazado_119557" data-name="Trazado 119557" d="M476,297.04l-3.5-2.021a1.046,1.046,0,0,0-.952,0l-3.606,2.1c-.261.151-.26.4.008.551l3.5,2.021a1.049,1.049,0,0,0,.951,0l3.606-2.1c.262-.152.256-.4-.007-.552" transform="translate(-414.033 -262.894)" fill="#fff"/>
                <path id="Trazado_119558" data-name="Trazado 119558" d="M483.188,301.188l-3.506-2.024a1.039,1.039,0,0,0-.947,0l-3.606,2.1a.29.29,0,0,0,0,.549l3.506,2.024a1.039,1.039,0,0,0,.947,0l3.606-2.1a.29.29,0,0,0,0-.549" transform="translate(-415.862 -263.95)" fill="#fff"/>
                <path id="Trazado_119559" data-name="Trazado 119559" d="M490.367,305.333l-3.5-2.022a1.044,1.044,0,0,0-.947,0l-3.606,2.1a.29.29,0,0,0,0,.549l3.5,2.021a1.046,1.046,0,0,0,.952,0l3.606-2.1c.261-.152.259-.4-.008-.551" transform="translate(-417.691 -265.006)" fill="#fff"/>
                <path id="Trazado_119560" data-name="Trazado 119560" d="M497.549,309.479l-3.5-2.021a1.041,1.041,0,0,0-.952,0l-3.606,2.1c-.261.151-.259.4.007.551l3.5,2.022a1.044,1.044,0,0,0,.947,0l3.606-2.1a.29.29,0,0,0,0-.549" transform="translate(-419.518 -266.06)" fill="#fff"/>
                <path id="Trazado_119561" data-name="Trazado 119561" d="M504.733,313.627l-3.506-2.024a1.039,1.039,0,0,0-.947,0l-3.606,2.1a.29.29,0,0,0,0,.549l3.506,2.024a1.039,1.039,0,0,0,.947,0l3.606-2.1a.29.29,0,0,0,0-.549" transform="translate(-421.347 -267.116)" fill="#fff"/>
                <path id="Trazado_119562" data-name="Trazado 119562" d="M416.565,271.276l-3.5-2.024a1.041,1.041,0,0,0-.947,0l-3.606,2.1a.289.289,0,0,0,0,.548l3.506,2.025a1.044,1.044,0,0,0,.947,0l3.606-2.1a.29.29,0,0,0,0-.549" transform="translate(-398.901 -256.335)" fill="#fff"/>
                <path id="Trazado_119563" data-name="Trazado 119563" d="M423.749,275.424l-3.506-2.024a1.039,1.039,0,0,0-.947,0l-3.606,2.1a.29.29,0,0,0,0,.549l3.506,2.024a1.039,1.039,0,0,0,.947,0l3.606-2.1a.29.29,0,0,0,0-.549" transform="translate(-400.73 -257.391)" fill="#fff"/>
                <path id="Trazado_119564" data-name="Trazado 119564" d="M430.927,279.568l-3.5-2.022a1.05,1.05,0,0,0-.952,0l-3.606,2.1c-.261.152-.255.4.008.552l3.5,2.021a1.052,1.052,0,0,0,.952,0l3.606-2.1c.261-.151.255-.4-.008-.551" transform="translate(-402.558 -258.446)" fill="#fff"/>
                <path id="Trazado_119565" data-name="Trazado 119565" d="M439.443,284.485l-4.838-2.794a1.041,1.041,0,0,0-.947,0l-3.606,2.1a.29.29,0,0,0,0,.549l4.839,2.793a1.041,1.041,0,0,0,.947,0l3.606-2.1a.289.289,0,0,0,0-.548" transform="translate(-404.386 -259.501)" fill="#fff"/>
                <path id="Trazado_119566" data-name="Trazado 119566" d="M507.186,323.1l-3.552-2.05a1,1,0,0,0-.9,0l-1.159.674a.276.276,0,0,0,0,.522l3.551,2.05a1,1,0,0,0,.9,0l1.16-.673a.276.276,0,0,0,0-.523" transform="translate(-422.597 -269.524)" fill="#fff"/>
                <path id="Trazado_119567" data-name="Trazado 119567" d="M503.841,325.048,500.29,323a1,1,0,0,0-.906,0l-1.155.671a.276.276,0,0,0,0,.522l3.551,2.051a1,1,0,0,0,.9,0l1.155-.671a.277.277,0,0,0,0-.525" transform="translate(-421.746 -270.019)" fill="#fff"/>
                <path id="Trazado_119568" data-name="Trazado 119568" d="M513.536,327.263l-3.5-2.024a1.041,1.041,0,0,0-.947,0l-3.606,2.1a.29.29,0,0,0,0,.549l3.5,2.024a1.041,1.041,0,0,0,.947,0l3.606-2.1a.289.289,0,0,0,0-.548" transform="translate(-423.588 -270.588)" fill="#fff"/>
                <path id="Trazado_119569" data-name="Trazado 119569" d="M499.133,318.946l-3.5-2.021a1.05,1.05,0,0,0-.952,0l-3.606,2.1c-.261.152-.255.4.007.552l3.5,2.021a1.049,1.049,0,0,0,.951,0l3.606-2.1c.262-.151.256-.4-.007-.551" transform="translate(-419.922 -268.471)" fill="#fff"/>
                <path id="Trazado_119570" data-name="Trazado 119570" d="M491.954,314.8l-3.505-2.024a1.041,1.041,0,0,0-.947,0l-3.606,2.1a.289.289,0,0,0,0,.548l3.5,2.024a1.041,1.041,0,0,0,.947,0l3.606-2.1a.29.29,0,0,0,0-.549" transform="translate(-418.094 -267.415)" fill="#fff"/>
                <path id="Trazado_119571" data-name="Trazado 119571" d="M484.317,310.393l-4.834-2.791a1.039,1.039,0,0,0-.947,0l-3.606,2.1a.29.29,0,0,0,0,.549l4.833,2.791a1.041,1.041,0,0,0,.947,0l3.606-2.1a.29.29,0,0,0,0-.549" transform="translate(-415.811 -266.098)" fill="#fff"/>
                <path id="Trazado_119572" data-name="Trazado 119572" d="M468.492,301.255l-3.671-2.12-.13-.048a.726.726,0,0,0-.143-.109l-1.245-.719-3.833-2.213-1.522-.878-3.833-2.213-1.518-.876-3.837-2.216-5.184-2.993a1.046,1.046,0,0,0-.952,0l-3.606,2.1c-.261.152-.26.4.007.552l5.184,2.993,3.837,2.215,1.518.876,3.833,2.213,1.522.879,3.832,2.213,1.246.719a1.084,1.084,0,0,0,.189.083l.083.075,3.671,2.12a1.046,1.046,0,0,0,.947,0l3.606-2.1a.29.29,0,0,0,0-.549" transform="translate(-406.669 -260.819)" fill="#fff"/>
              </g>
            </g>
          </g>
          <path id="Trazado_119573" data-name="Trazado 119573" d="M580.448,182.1c0-.021,0-.042,0-.064,0-.1-.006-.206-.013-.308-.009-.133-.023-.264-.042-.394l0-.017c-.021-.14-.06-.273-.091-.408s-.045-.246-.08-.363l-.008-.028,0-.008c-.008-.028-.017-.056-.026-.083-.023-.07-.06-.131-.086-.2a4.99,4.99,0,0,0-.23-.531c-.014-.027-.022-.057-.037-.083-.059-.108-.121-.212-.188-.313-.033-.049-.069-.1-.1-.144l-.026-.037-.037-.052c-.05-.065-.1-.128-.155-.19s-.1-.107-.145-.158-.093-.093-.142-.137h0c-.046-.043-.094-.084-.142-.124s-.093-.075-.141-.11-.095-.068-.143-.1-.1-.061-.145-.09l-.009-.005L486.666,125.16q-.069-.04-.139-.076c-.05-.025-.1-.048-.15-.071l-.055-.022-.032-.013-.066-.028c-.053-.019-.106-.037-.159-.053l-.1-.028-.03-.007-.03-.008c-.059-.014-.119-.026-.177-.035-.041-.007-.081-.011-.122-.016l-.037,0-.03,0q-.1-.009-.208-.009l-.111,0-1.286.054a2.5,2.5,0,0,1,.35.01l.037.005a2.417,2.417,0,0,1,.329.058l.029.007a2.654,2.654,0,0,1,.329.109l.033.013a2.865,2.865,0,0,1,.344.168l91.785,52.993a3.278,3.278,0,0,1,.582.429h0a3.838,3.838,0,0,1,.479.537l.026.037a4.445,4.445,0,0,1,.327.541,4.987,4.987,0,0,1,.228.529c.037.1.083.186.113.285l0,.007c.04.129.061.265.091.4s.069.265.089.4a5.511,5.511,0,0,1,.059.784c0,.013,0,.025,0,.037a5.32,5.32,0,0,1-.061.8l0,.016a5.182,5.182,0,0,1-.194.81l-26.032,79.138a4.681,4.681,0,0,1-.214.537l-.005.013a4.375,4.375,0,0,1-.255.46l-.024.037a3.889,3.889,0,0,1-.278.373l-.043.051a3.406,3.406,0,0,1-.307.309c-.072.064-.148.118-.224.174-.056.041-.11.086-.167.124-.082.052-.168.092-.253.136-.056.028-.11.062-.167.086a2.786,2.786,0,0,1-.3.1c-.049.014-.1.036-.147.047a2.543,2.543,0,0,1-.456.062l1.285-.054a2.531,2.531,0,0,0,.456-.062c.051-.012.1-.034.151-.048a2.6,2.6,0,0,0,.291-.1c.057-.025.113-.059.169-.088.084-.043.169-.083.25-.134.058-.037.112-.083.168-.125.075-.055.151-.109.223-.172.01-.008.02-.014.029-.022q.123-.112.238-.239c.014-.016.027-.033.04-.048l.043-.05c.031-.037.063-.073.094-.112.048-.063.1-.129.142-.2.014-.021.028-.043.042-.065l.024-.037c.018-.028.037-.055.054-.083.035-.059.07-.119.1-.181s.063-.121.093-.183l.006-.013.005-.011c.025-.051.048-.1.071-.156s.05-.122.073-.183.045-.124.066-.187l0-.011,26.032-79.138c.019-.06.038-.119.055-.18s.036-.128.051-.193.031-.131.045-.2.027-.136.037-.2l.005-.034,0-.018c.008-.053.016-.106.023-.16.009-.076.017-.151.023-.227s.011-.162.014-.244c0-.055,0-.11,0-.166Z" transform="translate(-388.015 -124.786)" fill="url(#linear-gradient-3)"/>
          <path id="Trazado_119574" data-name="Trazado 119574" d="M567.219,178.225c1.665.961,2.443,3.47,1.738,5.61l-26.031,79.138c-.7,2.14-2.62,3.094-4.285,2.133l-91.785-52.993c-1.665-.961-2.443-3.47-1.739-5.61l26.032-79.138c.7-2.14,2.62-3.094,4.285-2.133Z" transform="translate(-378.068 -124.804)" fill="url(#linear-gradient-4)"/>
          <g id="Grupo_82326" data-name="Grupo 82326" transform="translate(71.151 7.046)">
            <g id="Grupo_82325" data-name="Grupo 82325" style="isolation: isolate">
              <g id="Grupo_82324" data-name="Grupo 82324">
                <path id="Trazado_119575" data-name="Trazado 119575" d="M566.657,187.349l-92.065-53.111-23.884,72.709,92.025,53.131.046-.023,23.877-72.706" transform="translate(-450.708 -134.238)" fill="url(#linear-gradient-5)"/>
              </g>
            </g>
          </g>
        </g>
      </g>
      <g id="Grupo_82339" data-name="Grupo 82339" transform="translate(380.142 136.698)">
        <g id="Grupo_82330" data-name="Grupo 82330" transform="translate(36.778 0)">
          <g id="Grupo_82329" data-name="Grupo 82329">
            <path id="Trazado_119576" data-name="Trazado 119576" d="M446.384,174.46l7.841-4.557a8.339,8.339,0,0,1-.8.4c-.085.037-.173.07-.26.105-.171.069-.347.132-.523.19-.253.083-.514.152-.778.212-.116.027-.227.06-.345.082-.148.028-.3.045-.455.066-.189.026-.376.054-.569.069-.111.009-.224.011-.335.016-.227.01-.457.015-.691.01-.1,0-.2,0-.3-.01-.308-.015-.619-.039-.936-.08l-.055-.006c-.34-.045-.687-.111-1.036-.186l-.219-.048c-.361-.085-.727-.181-1.1-.3h0l-7.842,4.557.188.058q.354.107.7.194c.071.018.14.031.21.047l.217.048c.1.021.2.046.293.065q.369.072.73.12h.014l.057.006c.236.031.47.056.7.072.079.005.156,0,.234.007.1.005.2.008.3.01s.189.01.282.01c.139,0,.273-.013.41-.019.111-.005.224-.007.334-.016.045,0,.092,0,.136-.007.148-.013.289-.042.434-.063s.306-.038.455-.066c.033-.006.067-.008.1-.014.085-.017.163-.048.246-.068.265-.06.525-.129.777-.212.055-.018.115-.027.169-.046.121-.042.237-.1.356-.144.086-.035.173-.067.258-.105A8.267,8.267,0,0,0,446.384,174.46Z" transform="translate(-437.979 -154.351)" fill="url(#linear-gradient-6)"/>
            <path id="Trazado_119577" data-name="Trazado 119577" d="M463.285,149.04l-7.841,4.557,24.088,3.2,7.841-4.557Z" transform="translate(-442.425 -149.04)" fill="url(#linear-gradient-7)"/>
            <path id="Trazado_119578" data-name="Trazado 119578" d="M536.355,232.474c.125-.629.244-1.271.359-1.919.019-.113.042-.22.062-.333l0-.028q.192-1.113.365-2.262l-7.841,4.557q-.172,1.151-.365,2.262c-.022.124-.046.242-.068.365-.114.648-.233,1.288-.358,1.916-.052.264-.109.519-.163.779-.1.478-.2.954-.3,1.421-.059.262-.122.517-.182.775-.117.5-.236.988-.359,1.471q-.1.408-.212.81c-.123.462-.248.917-.377,1.367-.07.246-.14.493-.212.735-.211.712-.427,1.412-.651,2.093l-.031.1c-.237.714-.482,1.407-.733,2.089q-.192.523-.389,1.034c-.051.132-.1.267-.153.4q-.294.747-.6,1.468c-.043.1-.088.2-.132.3q-.244.568-.494,1.12c-.072.157-.144.312-.215.466-.13.281-.263.558-.4.832s-.257.525-.388.783q-.173.346-.35.685-.2.379-.4.748c-.119.221-.239.441-.36.657-.136.242-.273.481-.411.718-.122.211-.245.421-.369.627-.139.233-.281.461-.422.688-.125.2-.25.4-.376.6-.139.216-.28.427-.42.638-.129.194-.258.389-.388.579-.142.207-.285.409-.429.611-.13.185-.262.37-.394.551-.145.2-.291.391-.438.585-.133.175-.265.352-.4.523-.148.189-.3.373-.444.557-.135.167-.269.335-.4.5-.15.18-.3.356-.453.532-.135.157-.27.316-.405.47-.153.173-.307.341-.461.509-.136.149-.272.3-.408.445-.155.164-.311.323-.466.483-.136.14-.272.282-.409.42-.157.157-.315.309-.473.461-.136.132-.273.267-.409.4-.159.15-.318.293-.476.438-.136.124-.271.25-.408.371-.161.143-.323.28-.485.418-.134.116-.268.234-.4.347-.162.135-.324.264-.486.4-.135.109-.269.22-.4.326-.163.128-.327.251-.49.375-.132.1-.265.205-.4.3-.168.124-.335.242-.5.362-.127.091-.255.185-.382.274-.177.125-.355.242-.531.361-.116.078-.233.159-.349.236-.2.135-.409.262-.611.391-.088.055-.176.113-.263.167q-.437.271-.87.522l7.842-4.557q.433-.252.869-.522c.087-.054.175-.112.263-.167.2-.128.407-.256.611-.391.116-.076.233-.157.349-.236.177-.119.354-.236.532-.361.127-.089.254-.183.382-.274.168-.12.335-.239.5-.363.133-.1.265-.2.4-.3.163-.124.326-.247.489-.375.134-.106.269-.217.4-.326.162-.131.323-.26.486-.4.135-.113.271-.232.405-.348.16-.137.321-.274.481-.415.137-.122.274-.25.412-.375.157-.145.315-.286.473-.435.136-.129.273-.263.41-.4.157-.153.314-.3.472-.461.137-.137.273-.28.41-.421.155-.16.309-.318.464-.482.137-.146.274-.3.411-.449.153-.167.3-.332.457-.5.137-.154.273-.315.409-.473.151-.175.3-.349.45-.529.136-.164.271-.333.407-.5.148-.183.3-.367.443-.555.134-.172.267-.349.4-.525.146-.192.292-.385.437-.583.133-.182.265-.368.4-.554.142-.2.286-.4.426-.608s.261-.387.391-.582.279-.42.417-.635c.044-.069.089-.133.133-.2.082-.13.162-.267.244-.4.141-.227.282-.455.422-.687.124-.206.246-.417.368-.628.138-.236.275-.474.411-.716.122-.217.242-.438.362-.659q.2-.369.4-.746.177-.34.351-.687c.13-.258.259-.517.387-.78.055-.116.113-.225.168-.341.077-.162.152-.329.228-.493s.143-.307.214-.463c.168-.367.332-.742.495-1.12.043-.1.089-.2.132-.3q.305-.719.6-1.465c.052-.131.1-.267.154-.4.1-.27.209-.537.312-.813.027-.071.051-.148.077-.219.25-.682.5-1.375.732-2.089.01-.033.021-.068.032-.1.224-.681.44-1.381.651-2.092.026-.089.056-.173.082-.263.045-.154.086-.317.13-.473q.192-.675.377-1.37c.072-.267.142-.534.211-.805.123-.485.242-.977.359-1.474.043-.182.089-.356.131-.54.017-.076.033-.157.05-.233.105-.467.205-.944.3-1.422C536.247,232.992,536.3,232.737,536.355,232.474Z" transform="translate(-455.291 -169.124)" fill="url(#linear-gradient-8)"/>
            <path id="Trazado_119579" data-name="Trazado 119579" d="M539.249,216.16c-.051-.048-.1-.094-.152-.142q-.618-.587-1.214-1.214c-.054-.057-.109-.113-.163-.171q-.586-.623-1.148-1.281l-.16-.187q-.546-.646-1.067-1.322c-.076-.1-.151-.2-.227-.3-.25-.329-.491-.667-.731-1.006-.153-.215-.307-.428-.455-.646s-.279-.424-.418-.637q-.462-.7-.9-1.425c-.16-.268-.321-.535-.476-.807-.119-.209-.238-.42-.353-.632-.265-.484-.526-.969-.772-1.461l0-.008q-.436-.877-.827-1.768l-.04-.092q-.367-.841-.692-1.691l-.067-.177q-.307-.817-.575-1.638c-.023-.071-.045-.142-.069-.212q-.258-.812-.475-1.624c-.02-.075-.04-.149-.059-.224q-.21-.811-.377-1.618c-.014-.072-.029-.142-.043-.213q-.161-.813-.276-1.618l-.027-.188q-.111-.822-.171-1.631c0-.047-.008-.094-.011-.141-.039-.578-.06-1.151-.059-1.717,0-.33.011-.654.027-.974,0-.094.011-.186.017-.28q.021-.34.054-.672c.01-.106.021-.212.033-.317.025-.215.054-.428.086-.639.015-.1.028-.2.044-.3.051-.3.107-.6.171-.889l-7.841,4.557c-.059.262-.111.527-.158.8-.005.03-.008.061-.013.092-.016.1-.029.2-.044.3-.022.147-.047.291-.066.441-.008.065-.013.133-.02.2-.013.105-.023.211-.033.318s-.022.193-.031.292c-.01.125-.016.253-.023.38-.006.092-.013.184-.017.277,0,.047-.007.092-.008.139-.011.26-.018.524-.019.791v.046q0,.381.01.767.012.409.038.823c0,.042.007.084.01.127s.007.094.011.141c.013.186.027.373.045.561q.039.419.093.84c.01.077.022.154.033.23l.027.188c.02.145.039.288.062.433q.068.436.151.874c.019.1.042.207.063.311.014.071.028.142.043.213.025.121.047.241.073.362q.1.453.212.906c.029.116.062.233.092.35.019.075.04.15.06.225.029.111.057.223.087.335.084.3.174.608.266.911.039.126.081.252.122.378q.033.106.068.212c.033.1.063.2.1.3q.148.439.306.878c.056.154.115.307.174.461.022.06.044.119.067.179s.051.137.078.206q.162.417.335.833c.09.217.183.434.278.65.014.031.027.063.041.095l.032.075q.188.425.386.848t.406.841l.006.012,0,.005q.263.528.541,1.05c.073.136.153.27.227.406q.174.318.354.632c.085.15.165.3.253.452.071.121.151.235.223.355q.434.723.9,1.427c.087.133.165.272.254.4.052.078.109.153.162.23.15.219.3.433.458.649.142.2.279.4.424.6.1.136.2.268.306.4.075.1.15.2.226.3s.14.187.212.279q.332.422.673.832c.06.072.122.141.182.212l.16.188c.1.121.206.244.311.363q.332.379.673.745c.054.058.109.114.162.171l.165.172c.122.129.244.259.367.385q.361.369.732.724l.113.105c.051.048.1.1.154.143.161.151.321.3.485.451q.38.342.768.669l.062.052,7.841-4.557C540.118,216.959,539.681,216.565,539.249,216.16Z" transform="translate(-458.709 -158.526)" fill="url(#linear-gradient-9)"/>
            <path id="Trazado_119580" data-name="Trazado 119580" d="M487.759,157.889l7.841-4.557,24.023,24.577-7.841,4.557Z" transform="translate(-450.652 -150.133)" fill="url(#linear-gradient-10)"/>
          </g>
          <path id="Trazado_119581" data-name="Trazado 119581" d="M475.086,158.353l24.023,24.577a18.841,18.841,0,0,0-.432,4.067c-.027,9.317,5.638,20.518,13.316,26.963-6.056,40.454-31.506,44.951-37.194,45.452a168.616,168.616,0,0,1-15.921-24.306c-7.772-14.265-17.562-36.735-20.9-63.878,7.69,2.428,13.4-2.206,13.426-11.524a26.34,26.34,0,0,0-.407-4.551Z" transform="translate(-437.979 -150.596)" fill="url(#linear-gradient-11)"/>
          <path id="Trazado_119582" data-name="Trazado 119582" d="M475.713,256.6a168.648,168.648,0,0,1-13.785-21.432,177.052,177.052,0,0,1-19.769-58.644c7.787,1.093,13.023-4.537,13.05-14.072,0-.721-.028-1.471-.086-2.226L475.984,163l20.808,21.288c-.062.686-.1,1.4-.1,2.119-.028,9.535,5.16,21.183,12.927,29.07-6.089,34.207-27.3,40.118-33.907,41.128m.272-94.251-21.423-2.845.018.244c.072.816.106,1.622.1,2.4-.026,9.37-5.216,14.862-12.909,13.675l-.208-.03.036.271A178.166,178.166,0,0,0,461.54,235.36a168.919,168.919,0,0,0,14.034,21.772l.138.181.143-.019c6.5-.949,28.205-6.765,34.324-41.636l.042-.225-.207-.209c-7.679-7.688-12.821-19.145-12.794-28.515a22.685,22.685,0,0,1,.117-2.274l.019-.223L476.082,162.45l-.1-.1" transform="translate(-438.892 -151.704)" fill="url(#linear-gradient-6)"/>
        </g>
        <g id="Grupo_82332" data-name="Grupo 82332" transform="translate(47.549 21.271)">
          <path id="Trazado_119583" data-name="Trazado 119583" d="M495.426,222.008q0-.069-.007-.139c0-.046-.007-.092-.011-.139s-.01-.093-.016-.14-.013-.1-.02-.144v-.007c-.007-.045-.015-.092-.024-.137s-.019-.1-.03-.15-.023-.1-.035-.15-.026-.1-.04-.152-.022-.079-.034-.119l0-.009-.007-.024c-.016-.049-.031-.1-.048-.148s-.034-.1-.051-.145-.034-.094-.053-.141-.036-.092-.056-.139-.03-.071-.046-.106l0-.008-.01-.022c-.021-.046-.042-.092-.063-.139s-.048-.1-.073-.151-.058-.115-.089-.171-.067-.122-.1-.182l-.018-.032-.021-.038q-.1-.172-.212-.338c-.059-.087-.119-.174-.181-.258h0c-.041-.057-.083-.113-.127-.167l-.11-.137-.111-.129c-.037-.042-.074-.083-.111-.124l-.022-.023-.009-.009c-.028-.031-.057-.061-.086-.09l-.121-.12-.126-.117c-.042-.038-.085-.075-.127-.111l-.065-.053-.014-.011-.048-.04c-.042-.034-.083-.065-.126-.1s-.083-.06-.124-.089l-.121-.081c-.04-.025-.08-.05-.121-.074l-.028-.016-29.053-16.774-.092-.051-.118-.061-.117-.054c-.039-.017-.077-.034-.115-.049l-.116-.044-.022-.007-.007,0-.086-.028c-.04-.012-.079-.023-.119-.033s-.079-.019-.118-.026-.084-.015-.125-.021l-.084-.008-.013,0-.031,0c-.045,0-.09,0-.134,0s-.1,0-.149.007-.111.013-.165.024H461.9a1.614,1.614,0,0,0-.192.053,1.394,1.394,0,0,0-.232.107l-7.841,4.557a1.414,1.414,0,0,1,.423-.16h0a1.669,1.669,0,0,1,.484-.025h.013a2.346,2.346,0,0,1,.531.116l.009,0a3.36,3.36,0,0,1,.579.267l29.053,16.774a4.413,4.413,0,0,1,.57.4l.014.012a5.567,5.567,0,0,1,.525.49l.009.01a6.7,6.7,0,0,1,.9,1.215l.018.031a7.147,7.147,0,0,1,.336.666l0,.01a6.325,6.325,0,0,1,.259.7l0,.01a5.47,5.47,0,0,1,.163.707v0a4.366,4.366,0,0,1,.056.7l-.064,22.647a3.243,3.243,0,0,1-.059.617l0,.017a2.286,2.286,0,0,1-.163.505l0,.008a1.7,1.7,0,0,1-.215.333c-.027.033-.051.068-.08.1a1.4,1.4,0,0,1-.312.257h0l7.841-4.557a1.412,1.412,0,0,0,.313-.258c.028-.031.054-.066.08-.1a1.58,1.58,0,0,0,.1-.128,1.82,1.82,0,0,0,.108-.2l0-.009,0-.008c.022-.047.042-.1.061-.145s.035-.1.05-.151.027-.1.038-.146c0-.02.008-.042.013-.063l0-.017c0-.02.008-.04.012-.06.007-.045.015-.09.02-.137s.01-.091.015-.138.006-.089.008-.135,0-.092,0-.139v-.008l.064-22.647C495.427,222.094,495.427,222.051,495.426,222.008Z" transform="translate(-452.735 -183.29)" fill="url(#linear-gradient-3)"/>
          <path id="Trazado_119584" data-name="Trazado 119584" d="M484.424,223.305a6.292,6.292,0,0,1,2.855,4.944l-.064,22.647c-.005,1.818-1.292,2.551-2.874,1.638l-29.054-16.773a6.3,6.3,0,0,1-2.859-4.948l.064-22.647c.005-1.817,1.292-2.551,2.879-1.635Z" transform="translate(-452.428 -184.846)" fill="url(#linear-gradient-14)"/>
          <path id="Trazado_119585" data-name="Trazado 119585" d="M473.751,225.13a8.463,8.463,0,0,1,3.839,6.643,2.528,2.528,0,0,1-1.384,2.572l-.02,6.938c0,1.568-1.114,2.2-2.484,1.41a5.43,5.43,0,0,1-2.464-4.268l.019-6.938a7.99,7.99,0,0,1-1.365-4.159C469.9,224.891,471.629,223.906,473.751,225.13Z" transform="translate(-456.874 -189.548)" fill="url(#radial-gradient)"/>
          <g id="Grupo_82331" data-name="Grupo 82331" transform="translate(7.122)">
            <path id="Trazado_119586" data-name="Trazado 119586" d="M471.193,189.345c.007-.032.013-.065.019-.1q.074-.351.175-.675c.013-.04.026-.08.039-.12a5.949,5.949,0,0,1,.229-.584c.008-.019.015-.039.024-.057a5.171,5.171,0,0,1,.327-.592c.017-.026.036-.049.054-.075a4.33,4.33,0,0,1,.312-.411c.041-.048.083-.093.125-.138a3.934,3.934,0,0,1,.306-.3c.044-.039.086-.078.132-.114a3.905,3.905,0,0,1,.47-.328l-3.372,1.96a3.824,3.824,0,0,0-.471.327c-.045.037-.088.076-.132.114a4.193,4.193,0,0,0-.3.3c-.043.045-.085.09-.125.138a4.448,4.448,0,0,0-.312.411c-.017.026-.037.049-.054.075l-.013.018a4.976,4.976,0,0,0-.307.557l-.007.017c-.009.019-.016.04-.025.059-.057.125-.113.252-.163.385-.024.064-.043.133-.066.2-.013.04-.027.079-.039.119s-.025.072-.036.11c-.04.134-.075.273-.108.414-.011.049-.019.1-.03.15-.007.033-.013.065-.019.1-.01.051-.022.1-.031.151-.022.127-.041.256-.057.388-.01.072-.016.146-.023.219,0,.026-.006.051-.008.078s-.007.062-.01.094c-.01.125-.018.252-.023.382s-.009.259-.01.391v.024l-.027,9.574a2.494,2.494,0,0,1-.045.47l0,.013a1.743,1.743,0,0,1-.123.385l0,.007a1.352,1.352,0,0,1-.164.254c-.02.025-.04.051-.061.075a1.068,1.068,0,0,1-.239.2l3.372-1.96a1.072,1.072,0,0,0,.239-.2c.022-.023.04-.05.06-.075a1.138,1.138,0,0,0,.079-.1,1.3,1.3,0,0,0,.082-.149l0-.007,0-.006c.016-.036.032-.072.047-.111s.026-.075.038-.115.02-.074.029-.112c0-.016.007-.032.01-.048l0-.013c0-.016.007-.031.01-.046.006-.034.011-.069.016-.1s.007-.069.01-.105.005-.069.007-.1,0-.07,0-.106v-.007l.028-9.574c0-.308.016-.6.042-.89,0-.026.005-.051.007-.078Q471.122,189.709,471.193,189.345Z" transform="translate(-463.258 -179.684)" fill="url(#linear-gradient-3)"/>
            <path id="Trazado_119587" data-name="Trazado 119587" d="M491.643,200.316q-.009-.3-.028-.6c-.006-.092-.015-.186-.022-.28,0-.039-.006-.079-.01-.118-.005-.069-.01-.139-.016-.208q-.029-.3-.068-.611t-.089-.627l0-.024-.005-.028c-.03-.193-.063-.385-.1-.579-.04-.216-.085-.434-.132-.651-.018-.079-.038-.159-.056-.239-.01-.046-.021-.092-.032-.137-.022-.093-.042-.186-.065-.279-.054-.221-.113-.442-.174-.663-.046-.165-.095-.33-.145-.495-.008-.029-.016-.058-.025-.087s-.015-.052-.023-.079c-.066-.215-.135-.432-.207-.647s-.145-.426-.223-.639c-.014-.041-.031-.082-.046-.123s-.025-.066-.037-.1c-.048-.13-.1-.259-.146-.389-.079-.2-.161-.406-.244-.608-.062-.149-.127-.3-.191-.445l-.031-.073-.035-.081q-.134-.3-.276-.606c-.1-.221-.211-.442-.32-.661-.017-.034-.036-.068-.053-.1s-.045-.086-.066-.129c-.089-.174-.177-.348-.269-.52-.116-.218-.241-.431-.362-.646-.061-.108-.12-.218-.183-.326-.025-.042-.047-.086-.072-.129-.109-.186-.23-.364-.343-.547-.167-.27-.331-.541-.506-.806-.028-.042-.052-.086-.08-.127q-.375-.561-.773-1.1c-.008-.01-.013-.019-.02-.029l0,0q-.274-.371-.558-.732-.225-.285-.455-.563l-.016-.02-.01-.013q-.238-.286-.482-.565t-.487-.539l-.077-.081c-.028-.03-.056-.058-.083-.087-.116-.124-.233-.248-.351-.368q-.262-.266-.527-.522c-.053-.051-.107-.1-.16-.148l-.124-.116c-.089-.082-.177-.166-.265-.247q-.275-.248-.555-.485c-.08-.067-.161-.131-.241-.2l-.126-.1c-.063-.051-.125-.1-.189-.154q-.271-.215-.547-.417c-.131-.1-.264-.189-.4-.282l-.075-.054-.071-.05q-.263-.181-.529-.35t-.527-.323c-.04-.025-.081-.048-.122-.072q-.2-.115-.4-.221c-.051-.028-.1-.052-.151-.079l-.2-.1-.156-.081c-.085-.042-.168-.08-.253-.119l-.18-.085-.072-.034q-.25-.112-.5-.212h0l-.025-.009q-.239-.1-.476-.18l-.068-.022-.183-.06c-.083-.027-.167-.057-.249-.081-.044-.013-.086-.023-.129-.036-.075-.022-.148-.042-.222-.061-.055-.015-.111-.032-.166-.045s-.119-.026-.18-.04-.147-.034-.22-.048l-.112-.025c-.07-.013-.139-.022-.209-.034s-.168-.03-.252-.042l-.086-.014c-.072-.01-.141-.014-.211-.022-.09-.01-.18-.02-.27-.028l-.076-.007c-.061,0-.12,0-.181-.006-.107-.005-.215-.01-.321-.01l-.086,0c-.046,0-.09.005-.136.006-.133,0-.265.009-.4.019-.039,0-.079,0-.118.005s-.057.01-.087.013c-.2.02-.391.048-.581.084-.018,0-.037,0-.054.008l-.01,0a6.366,6.366,0,0,0-.795.219c-.023.007-.048.011-.071.019l-.055.022c-.113.041-.223.088-.332.136-.053.022-.107.043-.159.067-.16.075-.317.156-.469.245l-3.372,1.96c.152-.089.309-.169.468-.244.052-.025.107-.045.16-.068.11-.048.219-.094.332-.136.042-.015.085-.028.127-.042a6.341,6.341,0,0,1,.795-.218l.064-.011c.19-.037.384-.063.581-.084l.2-.018c.13-.01.262-.016.4-.019.074,0,.148,0,.224,0,.105,0,.212.005.319.01.086,0,.172.007.259.014s.178.017.268.027.2.022.3.036c.083.013.168.028.253.042.107.019.213.037.321.06.073.015.147.032.221.049.114.026.23.054.344.085.074.019.148.04.222.061.125.037.252.076.379.118.061.019.121.038.183.06q.272.093.546.2l.022.008c.189.076.381.16.573.247.059.027.119.056.178.084q.206.1.412.2c.067.034.133.069.2.1.182.1.364.194.548.3.421.244.838.51,1.249.795l.075.053c.383.268.76.553,1.132.853l.125.1q.54.443,1.063.929l.123.115q.53.5,1.04,1.039l.082.086q.541.579,1.057,1.2l.016.02q.522.632,1.015,1.3l.024.034c.293.4.576.809.85,1.224.175.265.339.536.506.807.139.224.282.447.415.675.063.108.122.218.184.327.217.385.43.772.63,1.165.022.042.045.086.067.128.241.479.47.963.683,1.451l.031.072q.312.718.582,1.444c.013.033.025.065.037.1q.274.742.5,1.49c.009.028.016.057.025.084q.215.719.384,1.438c.01.046.021.092.032.137.113.492.209.982.288,1.469l.005.029c.078.493.136.983.177,1.469,0,.039.007.079.01.118.038.487.06.969.058,1.445l-.028,9.574a2.485,2.485,0,0,1-.044.47l0,.013a1.752,1.752,0,0,1-.124.386l0,.006a1.3,1.3,0,0,1-.165.254c-.02.025-.039.051-.06.075a1.068,1.068,0,0,1-.239.2l3.372-1.96a1.069,1.069,0,0,0,.239-.2c.022-.023.041-.049.061-.075a1.24,1.24,0,0,0,.078-.1,1.428,1.428,0,0,0,.083-.15l0-.007,0-.007c.016-.036.032-.072.046-.111s.027-.075.038-.115.021-.073.029-.112c0-.016.007-.032.01-.048l0-.013c0-.016.007-.03.009-.045.006-.034.011-.069.016-.1s.008-.07.011-.106,0-.068.006-.1,0-.07,0-.106v-.006l.027-9.574C491.652,200.691,491.649,200.5,491.643,200.316Z" transform="translate(-463.238 -177.575)" fill="url(#linear-gradient-3)"/>
            <path id="Trazado_119588" data-name="Trazado 119588" d="M474.557,181.915c6.9,3.981,12.488,13.664,12.466,21.592l-.028,9.574c0,1.387-.985,1.946-2.192,1.249a4.8,4.8,0,0,1-2.182-3.775l.028-9.574c.014-5.154-3.621-11.45-8.106-14.04s-8.144-.5-8.159,4.65l-.027,9.574c0,1.387-.985,1.946-2.192,1.249a4.8,4.8,0,0,1-2.182-3.775l.027-9.573C462.031,181.137,467.661,177.934,474.557,181.915Z" transform="translate(-461.982 -178.244)" fill="url(#linear-gradient-17)"/>
          </g>
        </g>
        <g id="Grupo_82337" data-name="Grupo 82337" transform="translate(0 59.033)">
          <path id="Trazado_119589" data-name="Trazado 119589" d="M465.249,230.056a1.066,1.066,0,0,1,.218-.047l.019,0a.822.822,0,0,1,.212.011l.011,0a.651.651,0,0,1,.189.072l-3.044-1.769-.007,0a.555.555,0,0,0-.067-.033.6.6,0,0,0-.07-.025c-.015,0-.031-.007-.045-.01l-.011,0-.017,0c-.026,0-.053-.007-.08-.01s-.058,0-.088,0l-.027,0-.019,0c-.017,0-.034,0-.052.005-.038.006-.077.014-.117.025-.016,0-.033.012-.048.017l-.047.016c-.021.007-.041.013-.062.021a1.664,1.664,0,0,0-.186.093l-35,20.206,3.044,1.769,35-20.206a1.512,1.512,0,0,1,.247-.114Z" transform="translate(-398.383 -228.234)" fill="url(#linear-gradient-18)"/>
          <path id="Trazado_119590" data-name="Trazado 119590" d="M418.258,267.249c-.008-2.814-1.006-4.8-2.612-5.729l-3.044-1.769c1.606.933,2.6,2.915,2.612,5.729,0,.324-.015.654-.04.985-.008.105-.021.21-.031.316q-.031.319-.078.64c-.034.236-.077.473-.122.711-.031.163-.059.325-.1.489s-.074.3-.113.458c-.054.212-.108.425-.17.637-.036.123-.075.246-.113.369q-.113.358-.24.715c-.035.1-.069.2-.107.3-.123.329-.253.657-.4.982-.017.038-.036.076-.053.114-.128.291-.265.578-.406.864l-.137.271q-.208.4-.434.8c-.03.052-.058.107-.088.159q-.271.465-.564.917c-.057.086-.116.171-.173.257q-.216.324-.444.64c-.082.114-.165.227-.25.338-.131.175-.267.347-.4.517-.114.142-.23.284-.347.423s-.228.261-.344.39q-.291.324-.593.631c-.125.127-.25.256-.378.378-.1.1-.2.189-.3.28-.166.152-.335.3-.5.441-.1.085-.2.171-.3.253-.185.147-.372.286-.561.423-.089.065-.178.133-.268.2-.28.192-.564.375-.851.54s-.549.3-.818.425l-.209.1c-.26.116-.518.222-.772.309l-.051.016c-.22.073-.434.129-.648.18-.122.03-.244.055-.364.078q-.242.046-.476.073c-.089.01-.179.021-.267.027-.2.013-.391.017-.581.011-.041,0-.083,0-.124,0a5,5,0,0,1-.661-.083c-.054-.01-.107-.025-.16-.037a4.407,4.407,0,0,1-.49-.142c-.051-.018-.1-.034-.151-.053a4.281,4.281,0,0,1-.587-.28L403,283.3l.049.028a4.261,4.261,0,0,0,.45.221c.028.012.059.019.087.031.05.019.1.036.151.053.078.028.154.06.235.084s.17.039.256.059c.053.012.105.026.159.037.03.006.057.015.088.02a4.9,4.9,0,0,0,.54.063h.033c.04,0,.083,0,.124,0,.144,0,.288.01.436,0,.047,0,.1-.01.145-.014.088-.006.177-.016.267-.027s.168-.012.255-.025c.072-.011.148-.034.221-.047.12-.023.241-.048.364-.078.068-.016.133-.024.2-.043.148-.04.3-.087.447-.138l.051-.016c.183-.063.367-.131.553-.209.072-.03.145-.068.218-.1s.139-.063.21-.1c.27-.127.542-.265.818-.425s.57-.347.85-.54c.091-.063.18-.131.27-.2.189-.136.376-.276.561-.423.1-.082.2-.167.3-.253q.255-.214.5-.441c.1-.092.2-.185.3-.28.061-.058.124-.112.184-.172s.128-.139.194-.206q.3-.307.593-.632c.061-.069.127-.131.188-.2s.1-.126.155-.188c.118-.139.233-.281.347-.423.074-.092.151-.179.224-.273s.119-.163.18-.243c.085-.113.168-.225.25-.339.055-.076.113-.149.168-.227.095-.135.184-.275.276-.412.057-.086.116-.171.173-.258.022-.035.047-.069.069-.1q.239-.375.464-.759c.01-.017.019-.036.03-.054.031-.054.06-.108.09-.162.1-.179.2-.358.3-.54.046-.086.087-.173.131-.259s.092-.18.138-.271.08-.154.118-.233c.1-.209.2-.42.288-.631.017-.039.036-.076.053-.115l.015-.032q.173-.4.328-.8c.019-.048.034-.1.052-.145.037-.1.071-.2.107-.3.048-.135.1-.269.145-.4.034-.1.063-.206.095-.31.039-.124.078-.247.113-.37.022-.078.049-.154.071-.232.037-.135.065-.27.1-.4.038-.153.078-.306.113-.458.012-.054.028-.108.039-.162.023-.11.035-.218.056-.327.046-.238.088-.475.122-.71.01-.066.025-.133.034-.2.019-.148.029-.294.043-.442.01-.105.023-.21.031-.315C418.243,267.9,418.259,267.573,418.258,267.249Z" transform="translate(-391.519 -236.258)" fill="url(#linear-gradient-19)"/>
          <path id="Trazado_119591" data-name="Trazado 119591" d="M416.708,251.576c.058.031.118.059.176.092L413.84,249.9l-.081-.046c-.031-.017-.064-.03-.1-.047q-.267-.145-.547-.267c-.034-.016-.066-.035-.1-.05s-.057-.019-.086-.03a7.146,7.146,0,0,0-.677-.239l-.019-.006h0c-.24-.07-.487-.124-.738-.171-.03-.005-.057-.015-.087-.02s-.079-.007-.118-.013q-.329-.053-.669-.078c-.036,0-.069-.01-.1-.013h-.036c-.278-.016-.563-.018-.851-.007-.028,0-.055,0-.083,0s-.075.009-.113.011c-.324.018-.651.046-.987.1h0c-.218.034-.438.075-.66.122-.071.015-.143.035-.215.052-.139.032-.278.063-.419.1l-.04.012c-.262.072-.526.153-.792.244-.05.017-.1.038-.151.056-.218.078-.436.16-.657.249-.028.012-.054.02-.082.031-.052.022-.106.05-.158.072q-.353.151-.712.324c-.088.042-.176.085-.265.13-.311.157-.622.321-.938.5-.474.274-.942.575-1.405.893-.15.1-.3.216-.446.324-.312.224-.621.454-.927.7-.169.135-.335.277-.5.417q-.422.354-.834.729c-.167.153-.333.306-.5.464-.1.1-.206.186-.306.285q-.415.409-.818.839h0q-.4.429-.792.877c-.087.1-.168.206-.253.308-.195.23-.385.464-.575.7-.122.152-.251.3-.371.452-.1.13-.195.267-.294.4q-.209.277-.413.56c-.092.127-.189.249-.278.377-.156.221-.3.45-.452.675-.1.143-.194.284-.287.429-.038.059-.079.116-.117.174q-.395.617-.765,1.252c-.016.028-.031.057-.048.086-.051.087-.1.177-.147.264-.169.3-.34.6-.5.9-.075.14-.142.284-.215.426s-.151.3-.226.444c-.064.13-.133.258-.2.388-.165.343-.32.689-.474,1.035-.029.066-.06.129-.089.195-.008.019-.017.037-.025.054q-.286.661-.543,1.327c-.031.08-.056.16-.086.239-.06.162-.116.324-.174.485-.081.224-.166.447-.241.671-.057.171-.1.341-.157.512-.064.2-.127.406-.186.609-.037.128-.082.256-.117.383-.062.224-.108.446-.164.669-.064.253-.13.5-.186.757-.02.089-.047.179-.066.268-.088.412-.162.823-.228,1.232-.014.085-.025.168-.039.253-.028.186-.06.372-.083.557-.032.245-.048.487-.072.73-.016.174-.038.347-.051.52-.041.548-.067,1.092-.066,1.629.013,4.645,1.659,7.917,4.311,9.458l3.044,1.77c-2.651-1.541-4.3-4.814-4.311-9.459,0-.536.025-1.08.066-1.628.013-.172.034-.347.051-.52.043-.427.09-.856.157-1.287.013-.083.024-.167.037-.25.081-.5.183-1,.294-1.5.056-.251.122-.5.186-.755.088-.35.178-.7.28-1.051.06-.2.123-.408.186-.611.125-.394.256-.788.4-1.181.058-.163.114-.324.174-.487.2-.542.42-1.083.653-1.62.029-.066.062-.132.091-.2.211-.476.435-.95.669-1.419.074-.149.15-.3.226-.446q.344-.67.716-1.325c.05-.087.1-.175.146-.262.3-.512.608-1.016.93-1.512.093-.145.191-.285.286-.428q.358-.534.731-1.053.2-.283.413-.56c.217-.288.44-.57.664-.85.19-.236.381-.472.576-.7.342-.4.687-.8,1.045-1.185h0c.366-.391.744-.76,1.125-1.125q.246-.236.5-.464.411-.376.833-.729c.168-.141.335-.282.5-.417.3-.243.614-.473.926-.7.149-.107.3-.221.446-.324.463-.318.931-.619,1.405-.893.315-.182.627-.347.937-.5.089-.045.177-.087.265-.13q.359-.173.711-.324c.08-.034.161-.071.241-.1.22-.09.438-.171.654-.248.051-.019.1-.04.154-.057q.4-.136.792-.243c.154-.043.306-.078.459-.114.072-.016.144-.037.215-.052q.335-.072.664-.122c.335-.051.663-.081.987-.1.066,0,.131-.008.2-.01.288-.01.573-.009.851.007.048,0,.094.009.141.013q.34.026.669.078l.2.034c.25.047.5.1.738.171l.022.007a7.115,7.115,0,0,1,.677.239c.063.025.125.053.187.08Q416.44,251.43,416.708,251.576Z" transform="translate(-388.64 -233.496)" fill="url(#linear-gradient-20)"/>
          <path id="Trazado_119592" data-name="Trazado 119592" d="M456.251,230.79c.9-.52,1.544.118,1.269,1.263l-1.657,6.929a2.947,2.947,0,0,1-1.261,1.785l-9.935,5.736a2.919,2.919,0,0,0-1.324,2.293,2.919,2.919,0,0,1-1.324,2.294l-20.732,11.97c-2.1,7.6-7.469,15.258-13.755,18.887-8.141,4.7-14.781.911-14.808-8.438s6.571-20.781,14.712-25.481c6.286-3.629,11.682-2.189,13.817,2.969Zm-48.739,44.468c4.926-2.844,8.921-9.769,8.906-15.429s-4.037-7.957-8.964-5.114-8.926,9.772-8.909,15.432,4.037,7.957,8.967,5.11" transform="translate(-389.68 -228.838)" fill="url(#linear-gradient-21)"/>
          <g id="Grupo_82336" data-name="Grupo 82336" transform="translate(36.437 5.606)">
            <g id="Grupo_82335" data-name="Grupo 82335" style="isolation: isolate">
              <g id="Grupo_82334" data-name="Grupo 82334">
                <path id="Trazado_119593" data-name="Trazado 119593" d="M442.515,252.485c-.641.37-1.168.075-1.17-.667a2.568,2.568,0,0,1,1.163-2.015c.646-.373,1.173-.078,1.176.665a2.567,2.567,0,0,1-1.168,2.017m3.515-2.029c-.646.373-1.168.075-1.17-.667a2.558,2.558,0,0,1,1.163-2.015c.641-.37,1.169-.075,1.171.667a2.57,2.57,0,0,1-1.164,2.015m3.51-2.027c-.646.373-1.169.075-1.171-.667a2.561,2.561,0,0,1,1.164-2.014c.646-.373,1.169-.075,1.17.667a2.558,2.558,0,0,1-1.163,2.014m3.51-2.026c-.646.373-1.169.075-1.171-.667a2.557,2.557,0,0,1,1.164-2.015c.646-.373,1.168-.075,1.17.667a2.561,2.561,0,0,1-1.163,2.015m3.509-2.027c-.646.373-1.168.075-1.17-.667a2.558,2.558,0,0,1,1.163-2.014c.646-.373,1.169-.075,1.171.666a2.557,2.557,0,0,1-1.164,2.015m3.51-2.027c-.641.37-1.169.075-1.17-.666a2.566,2.566,0,0,1,1.163-2.015c.646-.373,1.169-.075,1.171.667a2.561,2.561,0,0,1-1.164,2.014m4.135-6.48-25.843,14.92a1.854,1.854,0,0,0-.841,1.452l.01,3.556c0,.535.381.751.847.482l25.843-14.92a1.846,1.846,0,0,0,.837-1.454l-.01-3.556c0-.53-.376-.749-.842-.48" transform="translate(-437.521 -235.754)" fill="url(#linear-gradient-22)"/>
                <g id="Grupo_82333" data-name="Grupo 82333" transform="translate(3.824 3.753)">
                  <path id="Trazado_119594" data-name="Trazado 119594" d="M443.814,254.546a2.568,2.568,0,0,0-1.163,2.015c0,.742.529,1.037,1.17.667a2.567,2.567,0,0,0,1.168-2.017c0-.742-.53-1.038-1.176-.665" transform="translate(-442.651 -244.251)" fill="url(#linear-gradient-23)"/>
                  <path id="Trazado_119595" data-name="Trazado 119595" d="M448.529,251.825a2.558,2.558,0,0,0-1.163,2.015c0,.742.525,1.04,1.17.667a2.57,2.57,0,0,0,1.164-2.015c0-.742-.53-1.037-1.171-.667" transform="translate(-443.851 -243.558)" fill="url(#linear-gradient-24)"/>
                  <path id="Trazado_119596" data-name="Trazado 119596" d="M453.238,249.106a2.561,2.561,0,0,0-1.164,2.014c0,.742.526,1.04,1.171.667a2.558,2.558,0,0,0,1.163-2.014c0-.742-.525-1.041-1.17-.667" transform="translate(-445.05 -242.866)" fill="url(#linear-gradient-25)"/>
                  <path id="Trazado_119597" data-name="Trazado 119597" d="M457.947,246.387a2.557,2.557,0,0,0-1.164,2.015c0,.742.525,1.04,1.171.667a2.561,2.561,0,0,0,1.163-2.015c0-.742-.525-1.04-1.17-.667" transform="translate(-446.249 -242.174)" fill="url(#linear-gradient-26)"/>
                  <path id="Trazado_119598" data-name="Trazado 119598" d="M462.655,243.669a2.558,2.558,0,0,0-1.163,2.014c0,.742.525,1.04,1.17.667a2.557,2.557,0,0,0,1.164-2.015c0-.742-.525-1.04-1.171-.666" transform="translate(-447.448 -241.482)" fill="url(#linear-gradient-27)"/>
                  <path id="Trazado_119599" data-name="Trazado 119599" d="M467.364,240.95a2.566,2.566,0,0,0-1.163,2.015c0,.742.529,1.037,1.17.666a2.561,2.561,0,0,0,1.164-2.014c0-.742-.526-1.04-1.171-.667" transform="translate(-448.646 -240.789)" fill="url(#linear-gradient-28)"/>
                </g>
              </g>
            </g>
          </g>
        </g>
      </g>
    </g>
  </g>
</svg>
