<svg xmlns="http://www.w3.org/2000/svg" width="400" height="317.538" viewBox="0 0 400 317.538">
  <g id="Grupo_83774" data-name="Grupo 83774" transform="translate(-1020 -5811.461)">
    <rect id="Rectángulo_34130" data-name="Rectángulo 34130" width="400" height="283" rx="20" transform="translate(1020 5827)" fill="#daf1f5"/>
    <g id="Grupo_83157" data-name="Grupo 83157" transform="translate(853.218 5668.887)">
      <g id="window" transform="translate(293.015 206.792)">
        <rect id="Rectángulo_34341" data-name="Rectángulo 34341" width="210.564" height="209.753" transform="translate(0)" fill="#d5cef8"/>
      </g>
      <g id="shadow" transform="translate(277.316 346.88)">
        <g id="plant" transform="translate(0 0)">
          <g id="Grupo_83098" data-name="Grupo 83098" transform="translate(23.085 53.987)">
            <g id="Grupo_83097" data-name="Grupo 83097">
              <path id="Rectángulo_34342" data-name="Rectángulo 34342" d="M0,0H37.661a0,0,0,0,1,0,0V25.671A18.831,18.831,0,0,1,18.831,44.5h0A18.831,18.831,0,0,1,0,25.671V0A0,0,0,0,1,0,0Z" transform="translate(2.087)" fill="#40327b"/>
              <rect id="Rectángulo_34343" data-name="Rectángulo 34343" width="2.087" height="39.845" transform="translate(0 19.401)" fill="#583ae2"/>
              <rect id="Rectángulo_34344" data-name="Rectángulo 34344" width="2.087" height="39.845" transform="translate(39.749 19.401)" fill="#583ae2"/>
              <rect id="Rectángulo_34345" data-name="Rectángulo 34345" width="2.087" height="39.845" transform="translate(23.777 19.401)" fill="#583ae2"/>
            </g>
            <rect id="Rectángulo_34346" data-name="Rectángulo 34346" width="39.845" height="2.087" transform="translate(0 44.502)" fill="#583ae2"/>
          </g>
          <g id="Grupo_83099" data-name="Grupo 83099" transform="translate(45.127 9.624)">
            <path id="Trazado_121107" data-name="Trazado 121107" d="M800.6,1551.837c2.273,3.274-2.3,6.094-3.014,10.632s4.485,7.09-1.027,13.031c-3.4,3.659-6.261-1.2-9.02,4.406s-.585,6.553-3.687,8.571c-5.407,3.518-13.68-4.257-10.9-9.858s8.41-5.1,5.806-9.709-3.572-6.594.918-8.963c5.558-2.931,10.455-.239,10.9-4.527S797.6,1547.507,800.6,1551.837Z" transform="translate(-772.401 -1549.885)" fill="#ab9df1"/>
            <path id="Trazado_121108" data-name="Trazado 121108" d="M796.435,1628.084l-.936-.185c4.382-22.146,18.908-37.654,19.054-37.808l.692.656C815.1,1590.9,800.761,1606.218,796.435,1628.084Z" transform="translate(-791.988 -1583.979)" fill="#583ae2"/>
          </g>
          <g id="Grupo_83100" data-name="Grupo 83100">
            <path id="Trazado_121109" data-name="Trazado 121109" d="M476.037,1489.968c-2.349,4.789,4.272,7.6,6.127,13.463s-4.976,7.932,3.513,14.686c5.229,4.159,6.323,1.559,8.245,10.864,1.692,8.193,7.917.4,12.572,5.205,6.006,6.2,15.391-7.413,10.583-14.265s-10.419-5.081-7.9-11.7-.485-11.612-6.9-13.843c-7.944-2.762-10.8,3.906-12.255-1.679S479.144,1483.634,476.037,1489.968Z" transform="translate(-475.538 -1486.574)" fill="#826be9"/>
            <path id="Trazado_121110" data-name="Trazado 121110" d="M560.646,1584.289c-10.128-28.082-32.179-45.454-32.4-45.626l.783-1.008c.224.175,22.566,17.775,32.818,46.2Z" transform="translate(-520.234 -1529.89)" fill="#583ae2"/>
          </g>
        </g>
      </g>
      <g id="system" transform="translate(241.782 142.574)">
        <g id="Grupo_83141" data-name="Grupo 83141" transform="translate(0)">
          <g id="Grupo_83136" data-name="Grupo 83136" transform="translate(0.383)">
            <g id="Grupo_83101" data-name="Grupo 83101" transform="translate(21.96 19.226)">
              <path id="Trazado_121111" data-name="Trazado 121111" d="M469.1,431.445c-.668-.007-1.342-.022-2.006-.045l.046-1.326c.653.023,1.317.038,1.974.045Zm2.006,0-.018-1.327c.65-.009,1.313-.026,1.971-.051l.05,1.326C472.439,431.416,471.765,431.433,471.1,431.442Zm-6.016-.137c-.668-.039-1.342-.088-2-.143l.111-1.322c.649.055,1.312.1,1.969.141Zm10.023-.016-.082-1.324c.65-.04,1.312-.09,1.968-.147l.115,1.322C476.445,431.2,475.772,431.248,475.111,431.289Zm-14.022-.32c-.663-.072-1.334-.153-1.992-.241l.176-1.316c.648.087,1.307.167,1.959.238Zm18.02-.029-.147-1.319c.647-.072,1.306-.154,1.958-.244l.18,1.315C480.436,430.784,479.766,430.867,479.109,430.941Zm-22-.5c-.657-.1-1.322-.219-1.978-.34l.241-1.305c.645.119,1.3.232,1.945.334Zm25.973-.042-.213-1.31c.648-.105,1.3-.22,1.944-.34l.245,1.3C484.408,430.172,483.743,430.289,483.085,430.4Zm-29.92-.687c-.651-.137-1.31-.284-1.959-.438l.306-1.292c.638.151,1.286.3,1.926.43Zm33.864-.054-.277-1.3c.64-.137,1.287-.284,1.925-.437l.31,1.291C488.338,429.366,487.679,429.515,487.029,429.654Zm-37.769-.869c-.64-.168-1.291-.348-1.934-.534l.369-1.275c.633.183,1.273.36,1.9.526Zm41.672-.067-.342-1.282c.631-.168,1.27-.347,1.9-.532l.373,1.273C492.223,428.365,491.572,428.547,490.931,428.718Zm-45.527-1.05c-.637-.2-1.28-.415-1.912-.633l.433-1.255c.622.214,1.255.424,1.881.622Zm49.378-.08-.405-1.264c.624-.2,1.254-.411,1.872-.626l.436,1.253C496.058,427.171,495.417,427.385,494.782,427.588ZM441.6,426.355c-.625-.233-1.257-.478-1.877-.727l.495-1.232c.611.245,1.232.486,1.846.715Zm56.975-.087-.467-1.242c.611-.23,1.229-.472,1.838-.718l.5,1.23C499.823,425.789,499.194,426.034,498.573,426.268Zm-60.711-1.413c-.611-.263-1.229-.539-1.838-.819l.555-1.205c.6.276,1.207.547,1.807.806Zm64.424-.091-.529-1.217c.6-.26,1.2-.531,1.795-.806l.559,1.2C503.508,424.224,502.894,424.5,502.286,424.764Zm-68.078-1.592c-.6-.294-1.2-.6-1.794-.909l.614-1.176c.583.3,1.176.605,1.765.894Zm71.707-.092-.588-1.19c.586-.29,1.177-.591,1.754-.894l.618,1.175C507.111,422.479,506.511,422.785,505.915,423.08Zm-75.271-1.771c-.581-.322-1.168-.657-1.746-1l.672-1.145c.568.334,1.146.663,1.717.98Zm78.815-.092-.646-1.159c.571-.318,1.146-.648,1.708-.98l.675,1.143C510.623,420.558,510.039,420.894,509.459,421.217Zm-82.281-1.944c-.566-.351-1.135-.715-1.694-1.081l.728-1.11c.549.36,1.11.718,1.666,1.064Zm85.729-.092-.7-1.126c.555-.346,1.113-.7,1.659-1.064l.73,1.108C514.038,418.465,513.471,418.829,512.907,419.181Zm-89.089-2.112c-.548-.379-1.1-.771-1.637-1.163l.782-1.072c.529.386,1.071.771,1.611,1.144Zm92.434-.093-.757-1.09c.538-.374,1.078-.759,1.6-1.145l.784,1.071C517.348,416.2,516.8,416.6,516.253,416.976Zm-95.68-2.274c-.528-.406-1.059-.823-1.578-1.242l.834-1.033c.51.412,1.032.823,1.552,1.222Zm98.914-.094-.81-1.051c.52-.4,1.04-.812,1.547-1.223l.836,1.031C520.544,413.783,520.015,414.2,519.487,414.609ZM417.449,412.18c-.507-.43-1.017-.874-1.514-1.318l.883-.99c.49.437.991.873,1.49,1.3Zm105.153-.1-.86-1.01c.5-.423,1-.86,1.486-1.3l.885.989C523.615,411.21,523.107,411.654,522.6,412.084Zm-108.148-2.576c-.487-.456-.974-.924-1.447-1.39l.931-.946c.466.458.945.919,1.424,1.368Zm111.137-.1-.909-.967c.477-.449.955-.909,1.421-1.369l.933.944C526.561,408.485,526.075,408.953,525.59,409.409Zm-114-2.716c-.463-.478-.926-.969-1.377-1.459l.976-.9c.443.482.9.964,1.354,1.435Zm116.85-.1-.956-.921c.454-.472.909-.956,1.352-1.438l.978.9C529.369,405.618,528.906,406.11,528.444,406.589Zm-119.568-2.847c-.44-.5-.878-1.015-1.3-1.524l1.02-.85c.418.5.849,1.006,1.282,1.5Zm122.281-.111-1-.873c.43-.493.861-1,1.281-1.5l1.021.848C532.033,402.617,531.595,403.131,531.157,403.632Zm-124.849-2.969c-.414-.522-.826-1.055-1.226-1.586l1.06-.8c.393.522.8,1.047,1.206,1.56Zm127.414-.119-1.041-.823c.405-.513.811-1.04,1.205-1.565l1.062.8C534.547,399.486,534.135,400.022,533.723,400.543ZM403.9,397.461c-.387-.54-.772-1.093-1.146-1.644l1.1-.746c.368.541.747,1.085,1.128,1.617Zm132.238-.13-1.081-.77c.381-.534.76-1.08,1.127-1.623l1.1.743C536.907,396.233,536.521,396.789,536.134,397.331Zm-134.49-3.185c-.359-.558-.717-1.129-1.063-1.7l1.133-.691c.341.559.692,1.121,1.046,1.67ZM538.385,394l-1.117-.716c.353-.551.705-1.115,1.046-1.677l1.135.688C539.1,392.87,538.744,393.443,538.385,394ZM399.56,390.726c-.332-.577-.661-1.165-.978-1.747l1.166-.634c.311.573.635,1.151.962,1.718Zm140.909-.16-1.152-.66c.326-.57.65-1.151.962-1.728l1.167.631C541.13,389.4,540.8,389.988,540.469,390.567Zm-142.822-3.358c-.3-.592-.6-1.195-.89-1.793l1.2-.576c.283.588.577,1.181.875,1.763Zm144.734-.18-1.183-.6c.3-.585.592-1.182.875-1.774l1.2.572C542.984,385.828,542.684,386.435,542.381,387.03ZM395.913,383.6c-.273-.6-.542-1.221-.8-1.833l1.223-.516c.254.6.518,1.209.787,1.8Zm148.2-.2-1.211-.542c.268-.6.532-1.21.786-1.816l1.224.512C544.658,382.171,544.389,382.792,544.116,383.4Zm-149.757-3.482c-.243-.62-.482-1.251-.71-1.877l1.247-.454c.224.615.459,1.236.7,1.846Zm151.31-.231-1.237-.481c.239-.613.472-1.236.7-1.854l1.248.45C546.149,378.43,545.911,379.065,545.669,379.687Zm-152.683-3.54c-.212-.631-.42-1.274-.616-1.91l1.268-.392c.193.626.4,1.258.606,1.879Zm154.05-.247-1.259-.419c.208-.624.41-1.259.6-1.888l1.269.387C547.452,374.619,547.246,375.265,547.035,375.9ZM391.8,372.312c-.181-.642-.356-1.294-.52-1.938l1.286-.328c.162.634.334,1.275.512,1.906Zm156.408-.259-1.279-.355c.176-.631.345-1.273.505-1.908l1.287.324C548.56,370.759,548.387,371.412,548.209,372.054Zm-157.4-3.63c-.148-.647-.29-1.307-.423-1.962l1.3-.264c.13.643.27,1.293.416,1.929Zm158.378-.262-1.295-.291c.144-.642.282-1.291.409-1.931l1.3.259C549.474,366.849,549.334,367.509,549.188,368.161ZM390.012,364.49c-.116-.654-.225-1.32-.325-1.98l1.312-.2c.1.649.206,1.3.32,1.948Zm159.959-.264L548.664,364c.112-.648.218-1.3.313-1.949l1.313.194C550.193,362.9,550.086,363.567,549.972,364.226Zm-160.56-3.7c-.083-.661-.16-1.332-.227-1.994l1.321-.134c.066.651.141,1.311.223,1.961Zm161.148-.267-1.317-.162c.08-.653.153-1.313.217-1.962l1.321.129C550.715,358.922,550.641,359.593,550.56,360.256ZM389.007,356.53c-.051-.662-.094-1.336-.129-2l1.325-.069c.034.656.077,1.319.126,1.97Zm161.944-.268-1.324-.1c.048-.654.088-1.316.12-1.97l1.326.064C551.04,354.924,551,355.6,550.951,356.262ZM388.8,352.523c-.018-.666-.029-1.34-.031-2.006l1.327,0c0,.655.012,1.319.03,1.973Zm162.347-.268-1.327-.032c.016-.653.024-1.317.024-1.974q0-.264,0-.526l1.327-.009q0,.267,0,.535C551.17,350.916,551.162,351.591,551.146,352.255Zm-161.033-3.716-1.327-.028c.014-.665.036-1.34.066-2.005l1.326.06C390.148,347.22,390.126,347.884,390.113,348.538ZM549.8,347.75c-.02-.655-.048-1.318-.085-1.972l1.325-.073c.037.665.066,1.34.086,2Zm-159.513-3.155-1.324-.093c.047-.666.1-1.339.165-2l1.321.125C390.392,343.278,390.337,343.94,390.292,344.595Zm159.3-.787c-.052-.654-.113-1.316-.181-1.966l1.32-.138c.069.661.131,1.333.184,2Zm-158.923-3.143-1.318-.158c.079-.661.168-1.331.263-1.989l1.313.19C390.828,339.356,390.741,340.014,390.664,340.665Zm158.513-.783c-.084-.651-.178-1.309-.278-1.954l1.312-.2c.1.656.2,1.325.282,1.987Zm-157.947-3.124-1.309-.223c.112-.658.233-1.322.361-1.974l1.3.255C391.459,335.457,391.339,336.111,391.229,336.758Zm157.343-.777c-.116-.642-.241-1.294-.374-1.938l1.3-.268c.135.655.263,1.318.38,1.97Zm-156.585-3.1-1.3-.287c.144-.65.3-1.308.459-1.954l1.288.319C392.281,331.6,392.129,332.245,391.987,332.884Zm155.788-.769c-.147-.635-.305-1.28-.47-1.917l1.285-.332c.167.647.328,1.3.478,1.949Zm-154.838-3.062-1.28-.351c.176-.642.363-1.291.555-1.929l1.271.383C393.294,327.783,393.111,328.421,392.937,329.053Zm153.85-.76c-.179-.628-.369-1.264-.565-1.891l1.267-.4c.2.637.393,1.284.575,1.923Zm-152.709-3.027-1.261-.415c.209-.635.429-1.276.653-1.905l1.25.446C394.5,324.012,394.285,324.642,394.079,325.266Zm151.532-.741c-.211-.62-.432-1.246-.658-1.861l1.245-.458c.23.625.455,1.262.669,1.892Zm-150.2-2.989-1.238-.477c.241-.625.492-1.253.747-1.869l1.226.508C395.894,320.3,395.647,320.922,395.41,321.537Zm148.837-.715c-.239-.6-.49-1.216-.747-1.819l1.221-.52c.261.613.517,1.236.76,1.85Zm-147.322-2.942-1.213-.538c.271-.61.553-1.225.839-1.829l1.2.569C397.469,316.674,397.192,317.279,396.925,317.879Zm145.782-.678c-.27-.594-.552-1.193-.837-1.781l1.194-.579c.29.6.577,1.207.851,1.811ZM398.62,314.3l-1.185-.6c.3-.595.612-1.195.928-1.784l1.169.627C399.222,313.129,398.915,313.719,398.62,314.3Zm142.369-.644c-.3-.581-.611-1.165-.925-1.738l1.164-.638c.319.583.636,1.177.94,1.767Zm-140.5-2.842-1.153-.656c.329-.579.671-1.162,1.015-1.735l1.137.685C401.149,309.675,400.813,310.249,400.489,310.819Zm138.608-.612c-.328-.565-.668-1.134-1.01-1.691l1.131-.694c.348.567.694,1.145,1.027,1.719Zm-136.568-2.776-1.12-.712c.358-.563.728-1.129,1.1-1.682l1.1.74C403.245,306.321,402.881,306.878,402.529,307.431Zm134.507-.582c-.355-.547-.722-1.1-1.092-1.64l1.1-.749c.376.55.75,1.111,1.111,1.667Zm-132.3-2.7-1.083-.767c.385-.544.783-1.091,1.181-1.625l1.064.793C405.5,303.077,405.111,303.615,404.732,304.15ZM534.81,303.6c-.381-.529-.776-1.062-1.172-1.585l1.057-.8c.4.532.8,1.074,1.192,1.611Zm-127.716-2.613-1.044-.819c.412-.525.835-1.051,1.259-1.564l1.024.845C407.915,299.949,407.5,300.467,407.094,300.983Zm125.333-.528c-.408-.511-.828-1.024-1.25-1.526l1.016-.853c.428.51.855,1.032,1.27,1.551Zm-122.819-2.518-1-.87c.437-.5.885-1.008,1.334-1.5l.981.894C410.478,296.945,410.037,297.441,409.607,297.936Zm120.282-.5c-.432-.49-.878-.983-1.323-1.463l.974-.9c.453.489.905.989,1.345,1.488Zm-117.623-2.414-.959-.918c.461-.482.934-.964,1.405-1.432l.936.941C413.186,294.07,412.721,294.544,412.267,295.018Zm114.941-.48c-.457-.47-.926-.94-1.394-1.4l.928-.949c.475.465.952.943,1.417,1.42Zm-112.142-2.3-.912-.964c.483-.458.979-.916,1.473-1.361l.888.986C416.029,291.335,415.542,291.785,415.066,292.235Zm109.319-.457c-.479-.446-.97-.893-1.461-1.327l.88-.993c.5.442,1,.9,1.485,1.349ZM418,289.594l-.864-1.007c.5-.433,1.022-.866,1.538-1.287l.839,1.028C419,288.742,418.493,289.168,418,289.594Zm103.433-.434c-.5-.422-1.013-.844-1.525-1.254l.83-1.035c.521.418,1.042.847,1.551,1.275ZM421.053,287.1l-.814-1.049c.525-.407,1.063-.814,1.6-1.209l.788,1.068C422.1,286.3,421.57,286.7,421.053,287.1Zm97.3-.412c-.522-.4-1.056-.794-1.586-1.178l.778-1.075c.539.39,1.081.793,1.612,1.2Zm-94.121-1.927-.761-1.087c.545-.381,1.1-.761,1.656-1.129l.734,1.106C425.311,284.012,424.763,284.385,424.227,284.761Zm90.921-.39c-.54-.371-1.093-.741-1.643-1.1l.724-1.112c.559.364,1.121.74,1.67,1.117Zm-87.637-1.79-.707-1.124c.563-.354,1.138-.706,1.709-1.045l.678,1.141C428.63,281.887,428.065,282.233,427.511,282.581Zm84.325-.368c-.558-.344-1.128-.686-1.7-1.017l.669-1.146c.576.336,1.156.684,1.723,1.034Zm-80.94-1.646-.65-1.157c.579-.325,1.171-.648,1.757-.959l.621,1.173C432.048,279.929,431.467,280.247,430.9,280.567Zm77.524-.345c-.574-.316-1.161-.629-1.744-.932l.611-1.178c.593.308,1.19.626,1.773.947Zm-74.044-1.5-.592-1.188c.593-.3,1.2-.589,1.8-.871l.563,1.2C435.556,278.144,434.959,278.433,434.376,278.723Zm70.533-.322c-.591-.288-1.193-.572-1.789-.844l.551-1.207c.607.277,1.219.566,1.819.858Zm-66.968-1.346-.533-1.215c.606-.266,1.226-.528,1.842-.78l.5,1.228C439.146,276.536,438.537,276.794,437.94,277.055Zm63.369-.3c-.6-.258-1.219-.512-1.83-.755l.491-1.233c.621.247,1.247.505,1.861.767Zm-59.721-1.194-.472-1.24c.622-.237,1.256-.469,1.884-.69l.441,1.252C442.823,275.1,442.2,275.331,441.588,275.563Zm56.043-.269c-.615-.227-1.243-.45-1.866-.663l.428-1.256c.633.216,1.272.443,1.9.674Zm-52.319-1.041-.409-1.262c.633-.205,1.278-.406,1.917-.6l.378,1.272C446.568,273.854,445.934,274.051,445.311,274.253Zm48.57-.238c-.626-.2-1.262-.387-1.891-.567l.365-1.276c.639.183,1.286.377,1.922.576Zm-44.786-.886-.346-1.281c.642-.173,1.3-.341,1.944-.5l.314,1.289C450.37,272.794,449.727,272.959,449.1,273.129Zm40.991-.2c-.634-.164-1.279-.323-1.917-.472l.3-1.293c.648.151,1.3.313,1.949.48ZM452.93,272.2l-.282-1.3c.648-.141,1.309-.276,1.966-.4l.25,1.3C454.218,271.924,453.567,272.057,452.93,272.2Zm33.312-.162c-.641-.133-1.293-.259-1.938-.376l.237-1.306c.656.119,1.318.247,1.97.382Zm-29.435-.58-.217-1.309c.657-.109,1.325-.211,1.984-.3l.184,1.314C458.11,271.246,457.454,271.346,456.807,271.454Zm25.551-.124c-.646-.1-1.3-.195-1.954-.28l.172-1.316c.662.086,1.33.182,1.987.284Zm-21.642-.425-.152-1.318c.661-.076,1.332-.145,2-.205l.119,1.322C462.027,270.762,461.366,270.83,460.716,270.9Zm17.728-.086c-.65-.069-1.311-.13-1.965-.183l.107-1.323c.665.053,1.338.116,2,.186Zm-13.8-.27-.087-1.324c.665-.044,1.339-.08,2-.107l.055,1.326C465.965,270.47,465.3,270.506,464.647,270.549Zm9.862-.047c-.651-.037-1.315-.066-1.972-.086l.042-1.326c.668.021,1.343.051,2,.088Zm-5.92-.115-.023-1.327c.665-.011,1.34-.014,2.007-.01l-.009,1.327C469.907,270.372,469.243,270.375,468.589,270.386Z" transform="translate(-388.768 -269.047)" fill="#583ae2"/>
            </g>
            <path id="Trazado_121112" data-name="Trazado 121112" d="M749.918,678.566a14.188,14.188,0,0,0-27.13-7.438,9.907,9.907,0,0,0-16.505,7.4h-1.851a9.6,9.6,0,0,0-9.577,9.577h0a9.6,9.6,0,0,0,9.577,9.577h44.779a9.6,9.6,0,0,0,9.577-9.577h0A9.6,9.6,0,0,0,749.918,678.566Z" transform="translate(-626.366 -583.426)" fill="#ab9df1"/>
            <g id="Grupo_83111" data-name="Grupo 83111" transform="translate(68.754 141.714)">
              <rect id="Rectángulo_34347" data-name="Rectángulo 34347" width="67.26" height="57.604" rx="3" fill="#826be9"/>
              <g id="Grupo_83110" data-name="Grupo 83110" transform="translate(11.033 4.565)">
                <g id="Grupo_83109" data-name="Grupo 83109">
                  <path id="Trazado_121113" data-name="Trazado 121113" d="M812.134,1276.711H771.587a2.419,2.419,0,0,1-2.412-2.412h0a2.419,2.419,0,0,1,2.412-2.412h40.547a2.419,2.419,0,0,1,2.412,2.412h0A2.419,2.419,0,0,1,812.134,1276.711Z" transform="translate(-769.175 -1246.494)" fill="#fff"/>
                  <path id="Trazado_121114" data-name="Trazado 121114" d="M812.134,1327.825H771.587a2.419,2.419,0,0,1-2.412-2.412h0a2.419,2.419,0,0,1,2.412-2.412h40.547a2.419,2.419,0,0,1,2.412,2.412h0A2.419,2.419,0,0,1,812.134,1327.825Z" transform="translate(-769.175 -1289.838)" fill="#fff"/>
                  <g id="Grupo_83102" data-name="Grupo 83102" transform="translate(8.285 34.939)">
                    <path id="Trazado_121115" data-name="Trazado 121115" d="M825.375,1335.538a.849.849,0,1,1-.849-.849A.849.849,0,0,1,825.375,1335.538Z" transform="translate(-823.676 -1334.689)" fill="#80b2ff"/>
                    <path id="Trazado_121116" data-name="Trazado 121116" d="M844.531,1335.538a.849.849,0,1,1-.849-.849A.849.849,0,0,1,844.531,1335.538Z" transform="translate(-839.92 -1334.689)" fill="#80b2ff"/>
                    <path id="Trazado_121117" data-name="Trazado 121117" d="M863.687,1335.538a.849.849,0,1,1-.849-.849A.849.849,0,0,1,863.687,1335.538Z" transform="translate(-856.164 -1334.689)" fill="#80b2ff"/>
                    <path id="Trazado_121118" data-name="Trazado 121118" d="M882.844,1335.538a.849.849,0,1,1-.849-.849A.849.849,0,0,1,882.844,1335.538Z" transform="translate(-872.409 -1334.689)" fill="#80b2ff"/>
                    <path id="Trazado_121119" data-name="Trazado 121119" d="M902,1335.538a.849.849,0,1,1-.849-.849A.849.849,0,0,1,902,1335.538Z" transform="translate(-888.653 -1334.689)" fill="#80b2ff"/>
                    <path id="Trazado_121120" data-name="Trazado 121120" d="M921.156,1335.538a.849.849,0,1,1-.849-.849A.849.849,0,0,1,921.156,1335.538Z" transform="translate(-904.897 -1334.689)" fill="#80b2ff"/>
                    <path id="Trazado_121121" data-name="Trazado 121121" d="M940.312,1335.538a.849.849,0,1,1-.849-.849A.849.849,0,0,1,940.312,1335.538Z" transform="translate(-921.141 -1334.689)" fill="#80b2ff"/>
                    <path id="Trazado_121122" data-name="Trazado 121122" d="M959.469,1335.538a.849.849,0,1,1-.849-.849A.849.849,0,0,1,959.469,1335.538Z" transform="translate(-937.386 -1334.689)" fill="#80b2ff"/>
                    <path id="Trazado_121123" data-name="Trazado 121123" d="M978.625,1335.538a.849.849,0,1,1-.849-.849A.849.849,0,0,1,978.625,1335.538Z" transform="translate(-953.63 -1334.689)" fill="#80b2ff"/>
                  </g>
                  <g id="Grupo_83105" data-name="Grupo 83105" transform="translate(13.379)">
                    <circle id="Elipse_5331" data-name="Elipse 5331" cx="9.321" cy="9.321" r="9.321" fill="#fff"/>
                    <g id="Grupo_83104" data-name="Grupo 83104" transform="translate(4.139 3.065)">
                      <g id="Grupo_83103" data-name="Grupo 83103" transform="translate(2.255)">
                        <path id="Trazado_121124" data-name="Trazado 121124" d="M902.187,1130.893a2.945,2.945,0,0,0,2.287-1.12,2.87,2.87,0,0,0,.63-1.82,2.928,2.928,0,1,0-5.857,0,2.868,2.868,0,0,0,.63,1.82A2.955,2.955,0,0,0,902.187,1130.893Z" transform="translate(-899.247 -1125.013)" fill="#2ff980"/>
                      </g>
                      <path id="Trazado_121125" data-name="Trazado 121125" d="M894.775,1173.471c0,1.855-10.361,1.855-10.361,0l0-2.162c.409-2.956,9.516-3.08,10.36,0Z" transform="translate(-884.414 -1162.352)" fill="#2ff980"/>
                    </g>
                  </g>
                  <path id="Trazado_121126" data-name="Trazado 121126" d="M786.88,1329.927v-.129a.949.949,0,1,0-1.9,0v.129h-.144v1.711c0,.3,2.193.3,2.193,0v-1.711Zm-1.56-.129a.614.614,0,1,1,1.228,0v.129h-1.228Zm.772.991v.494a.157.157,0,0,1-.165.152.146.146,0,0,1-.152-.152v-.494a.288.288,0,0,1-.152-.254.3.3,0,0,1,.608,0A.305.305,0,0,1,786.092,1330.788Z" transform="translate(-782.456 -1294.797)" fill="#5896fa"/>
                  <g id="Grupo_83108" data-name="Grupo 83108" transform="translate(2.369 26.389)">
                    <g id="Grupo_83107" data-name="Grupo 83107">
                      <g id="Grupo_83106" data-name="Grupo 83106" transform="translate(0.487)">
                        <path id="Trazado_121127" data-name="Trazado 121127" d="M788.583,1279.683a.622.622,0,0,0,.483-.236.605.605,0,0,0,.133-.384.618.618,0,1,0-1.236,0,.6.6,0,0,0,.133.384A.624.624,0,0,0,788.583,1279.683Z" transform="translate(-787.963 -1278.442)" fill="#5896fa"/>
                      </g>
                      <path id="Trazado_121128" data-name="Trazado 121128" d="M786.957,1288.667c0,.392-2.2.392-2.2,0l.012-.456c.086-.624,2.008-.65,2.186,0Z" transform="translate(-784.759 -1286.321)" fill="#5896fa"/>
                    </g>
                    <path id="Trazado_121129" data-name="Trazado 121129" d="M831.958,1284.515h-8.886a.71.71,0,0,1-.708-.708h0a.71.71,0,0,1,.708-.708h8.886a.71.71,0,0,1,.708.708h0A.71.71,0,0,1,831.958,1284.515Z" transform="translate(-816.648 -1282.391)" fill="#80b2ff"/>
                    <path id="Trazado_121130" data-name="Trazado 121130" d="M909.052,1284.515h-8.886a.71.71,0,0,1-.708-.708h0a.71.71,0,0,1,.708-.708h8.886a.71.71,0,0,1,.708.708h0A.71.71,0,0,1,909.052,1284.515Z" transform="translate(-882.022 -1282.391)" fill="#80b2ff"/>
                  </g>
                </g>
                <rect id="Rectángulo_34348" data-name="Rectángulo 34348" width="12.186" height="4.134" rx="2.067" transform="translate(15.539 41.381)" fill="#583ae2"/>
              </g>
            </g>
            <g id="Grupo_83119" data-name="Grupo 83119" transform="translate(0 96.937)">
              <g id="Grupo_83117" data-name="Grupo 83117">
                <g id="Grupo_83113" data-name="Grupo 83113">
                  <g id="Grupo_83112" data-name="Grupo 83112">
                    <path id="Trazado_121131" data-name="Trazado 121131" d="M244.649,850.129h0c0-.066,0-.1,0-.1C244.649,850.039,244.649,850.129,244.649,850.129Z" transform="translate(-244.597 -839.421)" fill="#d9ffff"/>
                    <path id="Trazado_121132" data-name="Trazado 121132" d="M244.649,850.129h0c0-.066,0-.1,0-.1C244.649,850.039,244.649,850.129,244.649,850.129Z" transform="translate(-244.597 -839.421)" fill="#d9ffff"/>
                    <path id="Trazado_121133" data-name="Trazado 121133" d="M505.384,851.3s0-.09,0-.1c0,.007,0,.036,0,.1Z" transform="translate(-465.696 -840.41)" fill="#d9ffff"/>
                    <path id="Trazado_121134" data-name="Trazado 121134" d="M505.384,851.3s0-.09,0-.1c0,.007,0,.036,0,.1Z" transform="translate(-465.696 -840.41)" fill="#d9ffff"/>
                    <path id="Trazado_121135" data-name="Trazado 121135" d="M264.255,780.259c-4.619,4.948-11.989,9-19.876,10.73,0,.527-.015,3.445-.075,16.9-.08,17.943,17,26.712,19.647,28.057,2.569-1.182,19.861-9.937,19.941-27.88.06-13.451.073-16.369.076-16.9C276.1,789.368,268.83,785.248,264.255,780.259Z" transform="translate(-244.304 -780.259)" fill="#2e2165"/>
                  </g>
                </g>
                <g id="Grupo_83116" data-name="Grupo 83116" transform="translate(2.156 3.243)">
                  <g id="Grupo_83114" data-name="Grupo 83114">
                    <path id="Trazado_121136" data-name="Trazado 121136" d="M276.236,801.592a41.942,41.942,0,0,1-17.68,9.188l-.068,15.2c-.031,6.956,2.732,13.249,8.214,18.705a39.293,39.293,0,0,0,9.31,6.807l.263-.136V801.627Z" transform="translate(-258.488 -801.592)" fill="#40327b"/>
                  </g>
                  <g id="Grupo_83115" data-name="Grupo 83115" transform="translate(17.787 0.035)">
                    <path id="Trazado_121137" data-name="Trazado 121137" d="M375.5,801.825v49.732a39.31,39.31,0,0,0,9.108-6.588c5.53-5.406,8.35-11.674,8.381-18.631l.068-15.2A41.961,41.961,0,0,1,375.5,801.825Z" transform="translate(-375.499 -801.825)" fill="#583ae2"/>
                  </g>
                </g>
              </g>
              <g id="Grupo_83118" data-name="Grupo 83118" transform="translate(11.937 16.954)">
                <path id="Trazado_121138" data-name="Trazado 121138" d="M322.831,945.973v11.778c0,1.311,16.012,1.311,16.012,0V945.973Zm8.816,6.254v3.338a.81.81,0,1,1-1.62,0V952.22a1.97,1.97,0,1,1,1.62.008Z" transform="translate(-322.831 -937.736)" fill="#2ff980"/>
                <path id="Trazado_121139" data-name="Trazado 121139" d="M345.266,899.185h-1.621v-.793a4.983,4.983,0,1,0-9.966,0v.793h-1.621v-.793a6.6,6.6,0,1,1,13.208,0Z" transform="translate(-330.655 -891.788)" fill="#2ff980"/>
              </g>
            </g>
            <g id="Grupo_83126" data-name="Grupo 83126" transform="translate(109.547)">
              <g id="Grupo_83120" data-name="Grupo 83120">
                <rect id="Rectángulo_34349" data-name="Rectángulo 34349" width="28.924" height="36.105" fill="#40327b"/>
              </g>
              <g id="Grupo_83122" data-name="Grupo 83122" transform="translate(3.269 3.246)">
                <g id="Grupo_83121" data-name="Grupo 83121">
                  <rect id="Rectángulo_34350" data-name="Rectángulo 34350" width="28.925" height="36.105" transform="translate(0.482 0.482)" fill="#fff"/>
                  <path id="Trazado_121140" data-name="Trazado 121140" d="M1016.339,201H986.45V163.928h29.889Zm-28.925-.964h27.961V164.892H987.414Z" transform="translate(-986.45 -163.928)" fill="#583ae2"/>
                </g>
              </g>
              <g id="Grupo_83124" data-name="Grupo 83124" transform="translate(8.033 6.907)">
                <g id="Grupo_83123" data-name="Grupo 83123">
                  <rect id="Rectángulo_34351" data-name="Rectángulo 34351" width="28.924" height="36.105" transform="translate(0.482 0.482)" fill="#fff"/>
                  <path id="Trazado_121141" data-name="Trazado 121141" d="M1047.675,225.079h-29.888V188.011h29.888Zm-28.924-.964h27.961V188.975h-27.961Z" transform="translate(-1017.787 -188.011)" fill="#583ae2"/>
                </g>
              </g>
              <g id="Grupo_83125" data-name="Grupo 83125" transform="translate(11.981 11.117)">
                <rect id="Rectángulo_34352" data-name="Rectángulo 34352" width="28.924" height="36.105" fill="#583ae2"/>
                <rect id="Rectángulo_34353" data-name="Rectángulo 34353" width="14.962" height="2.348" transform="translate(9.463 5.928)" fill="#2ff980"/>
                <rect id="Rectángulo_34354" data-name="Rectángulo 34354" width="19.387" height="2.348" transform="translate(5.038 11.444)" fill="#2ff980"/>
                <rect id="Rectángulo_34355" data-name="Rectángulo 34355" width="19.387" height="2.348" transform="translate(5.038 16.961)" fill="#2ff980"/>
                <rect id="Rectángulo_34356" data-name="Rectángulo 34356" width="19.387" height="2.348" transform="translate(5.038 22.478)" fill="#2ff980"/>
                <rect id="Rectángulo_34357" data-name="Rectángulo 34357" width="19.387" height="2.348" transform="translate(5.038 27.995)" fill="#2ff980"/>
              </g>
            </g>
            <g id="Grupo_83129" data-name="Grupo 83129" transform="translate(4.803 18.17)">
              <circle id="Elipse_5332" data-name="Elipse 5332" cx="10.216" cy="10.216" r="10.216" transform="translate(29.049 28.805) rotate(-77.096)" fill="#fff"/>
              <g id="Grupo_83127" data-name="Grupo 83127" transform="translate(20.168)">
                <path id="Trazado_121142" data-name="Trazado 121142" d="M445.809,292.948a18.744,18.744,0,0,0,2.5-6.966l.761.112,1.5.221.019,0a20.985,20.985,0,0,0-.395-8.162l-2.236.554a18.749,18.749,0,0,0-3.162-6.692l1.853-1.377a20.9,20.9,0,0,0-6.05-5.5l-1.194,1.979a18.71,18.71,0,0,0-6.966-2.5l.334-2.283a21.119,21.119,0,0,0-8.162.395l.554,2.236a18.751,18.751,0,0,0-6.692,3.162l-1.377-1.853a20.9,20.9,0,0,0-5.5,6.05l1.979,1.194a18.711,18.711,0,0,0-2.5,6.966l-1.615-.238-.661-.092-.007,0a21.124,21.124,0,0,0,.395,8.162l2.236-.554a18.786,18.786,0,0,0,3.17,6.7l-1.853,1.377a20.854,20.854,0,0,0,6.042,5.494l1.194-1.98a18.758,18.758,0,0,0,6.974,2.508l-.262,1.774-.072.509a21.08,21.08,0,0,0,8.154-.4l-.553-2.236a18.947,18.947,0,0,0,6.7-3.165l1.377,1.853a21.012,21.012,0,0,0,5.487-6.047Zm-21.39-.967a10.213,10.213,0,1,1,14.019-3.478A10.213,10.213,0,0,1,424.42,291.982Z" transform="translate(-408.57 -262.106)" fill="#583ae2"/>
              </g>
              <g id="Grupo_83128" data-name="Grupo 83128" transform="translate(0 24.043)">
                <path id="Trazado_121143" data-name="Trazado 121143" d="M295.072,425.715a9.871,9.871,0,0,0-2.747-2.765l.225-.337.445-.665.005-.009a11.048,11.048,0,0,0-3.971-1.657l-.242,1.188a9.874,9.874,0,0,0-3.9-.008l-.236-1.192a11,11,0,0,0-3.982,1.634l.672,1.015a9.851,9.851,0,0,0-2.765,2.747l-1.01-.675a11.119,11.119,0,0,0-1.657,3.971l1.188.242a9.874,9.874,0,0,0-.008,3.9l-1.192.236a11,11,0,0,0,1.634,3.982l1.015-.672a9.85,9.85,0,0,0,2.747,2.765l-.478.714-.193.293,0,0a11.122,11.122,0,0,0,3.971,1.657l.242-1.188a9.89,9.89,0,0,0,3.9.006l.236,1.192a10.981,10.981,0,0,0,3.978-1.632l-.672-1.015a9.876,9.876,0,0,0,2.769-2.75l.784.526.226.149a11.1,11.1,0,0,0,1.653-3.968l-1.188-.242a9.976,9.976,0,0,0,.01-3.9l1.192-.236a11.061,11.061,0,0,0-1.636-3.976Zm-5.293,9.954a5.377,5.377,0,1,1,1.514-7.453A5.377,5.377,0,0,1,289.779,435.669Z" transform="translate(-275.899 -420.271)" fill="#40327b"/>
              </g>
            </g>
            <g id="Grupo_83130" data-name="Grupo 83130" transform="translate(165.275 52.433)">
              <rect id="Rectángulo_34358" data-name="Rectángulo 34358" width="26.729" height="15.985" rx="1" transform="translate(0)" fill="#583ae2"/>
              <rect id="Rectángulo_34359" data-name="Rectángulo 34359" width="26.729" height="2.758" transform="translate(0 3.019)" fill="#826be9"/>
              <path id="Trazado_121144" data-name="Trazado 121144" d="M1347.374,572.477h-3.93a.452.452,0,0,0-.452.452h0a.452.452,0,0,0,.452.452h3.93a.452.452,0,0,0,.452-.452h0A.452.452,0,0,0,1347.374,572.477Z" transform="translate(-1341.252 -559.559)" fill="#d5cef8"/>
              <path id="Trazado_121145" data-name="Trazado 121145" d="M1387.131,572.477h-3.93a.452.452,0,0,0-.452.452h0a.452.452,0,0,0,.452.452h3.93a.452.452,0,0,0,.452-.452h0A.452.452,0,0,0,1387.131,572.477Z" transform="translate(-1374.965 -559.559)" fill="#d5cef8"/>
              <path id="Trazado_121146" data-name="Trazado 121146" d="M1426.889,572.477h-3.93a.452.452,0,0,0-.452.452h0a.452.452,0,0,0,.452.452h3.93a.452.452,0,0,0,.452-.452h0A.452.452,0,0,0,1426.889,572.477Z" transform="translate(-1408.679 -559.559)" fill="#d5cef8"/>
              <path id="Trazado_121147" data-name="Trazado 121147" d="M1466.646,572.477h-3.93a.452.452,0,0,0-.452.452h0a.452.452,0,0,0,.452.452h3.93a.452.452,0,0,0,.452-.452h0A.452.452,0,0,0,1466.646,572.477Z" transform="translate(-1442.393 -559.559)" fill="#d5cef8"/>
              <path id="Trazado_121148" data-name="Trazado 121148" d="M1341.991,492.833h0a.5.5,0,0,0-.5.5v.175a.5.5,0,0,0,.5.5h0a.5.5,0,0,0,.5-.5v-.175A.5.5,0,0,0,1341.991,492.833Z" transform="translate(-1339.98 -492.022)" fill="#d1f5ff"/>
              <path id="Trazado_121149" data-name="Trazado 121149" d="M1351.852,493.42h0a.587.587,0,0,0,.587.587h2.08a.587.587,0,0,0,.587-.587h0a.587.587,0,0,0-.587-.587h-2.08A.587.587,0,0,0,1351.852,493.42Z" transform="translate(-1348.765 -492.022)" fill="#d1f5ff"/>
              <rect id="Rectángulo_34360" data-name="Rectángulo 34360" width="4.246" height="3.876" rx="1.938" transform="translate(2.034 7.261)" fill="#826be9"/>
            </g>
            <g id="Grupo_83135" data-name="Grupo 83135" transform="translate(162.236 96.849)">
              <g id="Grupo_83131" data-name="Grupo 83131" transform="translate(0 8.959)">
                <path id="Trazado_121150" data-name="Trazado 121150" d="M1330.539,841.949v-1.826a1.5,1.5,0,0,0-1.5-1.5h-15.982a1.5,1.5,0,0,0-1.5,1.5V872.4H1352.9V841.949Z" transform="translate(-1311.555 -838.622)" fill="#40327b"/>
                <path id="Trazado_121151" data-name="Trazado 121151" d="M1354.615,867.808h-40.538l-2.521,29.342h41.139Z" transform="translate(-1311.555 -863.371)" fill="#f3f1ff"/>
                <path id="Trazado_121152" data-name="Trazado 121152" d="M1352.9,890.962h-41.341l4.387-28.977a1.734,1.734,0,0,1,1.714-1.474h37.834a1.734,1.734,0,0,1,1.714,1.993Z" transform="translate(-1311.555 -857.184)" fill="#583ae2"/>
              </g>
              <g id="Grupo_83134" data-name="Grupo 83134" transform="translate(32.273 0)">
                <g id="Grupo_83132" data-name="Grupo 83132">
                  <circle id="Elipse_5333" data-name="Elipse 5333" cx="9.472" cy="9.472" r="9.472" transform="translate(0 13.396) rotate(-45)" fill="#583ae2"/>
                  <path id="Trazado_121153" data-name="Trazado 121153" d="M1557.2,822.854a9.819,9.819,0,1,1,9.82-9.819A9.831,9.831,0,0,1,1557.2,822.854Zm0-18.945a9.126,9.126,0,1,0,9.125,9.125A9.135,9.135,0,0,0,1557.2,803.91Z" transform="translate(-1543.804 -799.64)" fill="#fff"/>
                </g>
                <g id="Grupo_83133" data-name="Grupo 83133" transform="translate(8.836 6.991)">
                  <path id="Trazado_121154" data-name="Trazado 121154" d="M1581.988,856.532v6.707c0,.747,9.119.747,9.119,0v-6.707Zm5.021,3.562v1.9a.461.461,0,1,1-.923,0v-1.905a1.122,1.122,0,1,1,.923,0Z" transform="translate(-1581.988 -851.841)" fill="#45bbcc"/>
                  <path id="Trazado_121155" data-name="Trazado 121155" d="M1594.765,829.888h-.923v-.452a2.838,2.838,0,1,0-5.676,0v.452h-.923v-.452a3.761,3.761,0,1,1,7.522,0Z" transform="translate(-1586.444 -825.675)" fill="#45bbcc"/>
                </g>
              </g>
            </g>
          </g>
          <circle id="Elipse_5334" data-name="Elipse 5334" cx="3.626" cy="3.626" r="3.626" transform="translate(171.771 27.347)" fill="#8fd6e0"/>
          <circle id="Elipse_5335" data-name="Elipse 5335" cx="3.626" cy="3.626" r="3.626" transform="translate(75.983 47.465) rotate(-80.25)" fill="#8fd6e0"/>
          <circle id="Elipse_5336" data-name="Elipse 5336" cx="1.897" cy="1.897" r="1.897" transform="translate(198.929 90.891)" fill="#ab9df1"/>
          <circle id="Elipse_5337" data-name="Elipse 5337" cx="1.897" cy="1.897" r="1.897" transform="translate(0 97.759) rotate(-76.789)" fill="#8fd6e0"/>
          <circle id="Elipse_5338" data-name="Elipse 5338" cx="3.626" cy="3.626" r="3.626" transform="translate(27.118 163.79) rotate(-25.745)" fill="#8fd6e0"/>
          <g id="Grupo_83137" data-name="Grupo 83137" transform="translate(86.161 0.521)">
            <path id="Trazado_121156" data-name="Trazado 121156" d="M831.332,153.987h0a.628.628,0,0,1-.628-.628v-6.727a.628.628,0,0,1,.628-.628h0a.628.628,0,0,1,.628.628v6.727A.628.628,0,0,1,831.332,153.987Z" transform="translate(-827.341 -146.003)" fill="#8fd6e0"/>
            <path id="Trazado_121157" data-name="Trazado 121157" d="M808.578,168.757h0a.628.628,0,0,1,.628-.628h6.727a.628.628,0,0,1,.628.628h0a.628.628,0,0,1-.628.628h-6.727A.628.628,0,0,1,808.578,168.757Z" transform="translate(-808.578 -164.766)" fill="#8fd6e0"/>
          </g>
          <g id="Grupo_83138" data-name="Grupo 83138" transform="translate(157.675 86.899)">
            <path id="Trazado_121158" data-name="Trazado 121158" d="M1301.78,722.21h0a.628.628,0,0,1-.628-.628v-6.727a.628.628,0,0,1,.628-.628h0a.628.628,0,0,1,.628.628v6.727A.628.628,0,0,1,1301.78,722.21Z" transform="translate(-1297.788 -714.226)" fill="#ab9df1"/>
            <path id="Trazado_121159" data-name="Trazado 121159" d="M1279.025,736.981h0a.628.628,0,0,1,.628-.628h6.727a.628.628,0,0,1,.628.628h0a.628.628,0,0,1-.628.628h-6.727A.628.628,0,0,1,1279.025,736.981Z" transform="translate(-1279.025 -732.989)" fill="#ab9df1"/>
          </g>
          <g id="Grupo_83139" data-name="Grupo 83139" transform="translate(150.835 175.501)">
            <path id="Trazado_121160" data-name="Trazado 121160" d="M1256.787,1305.069h0a.628.628,0,0,1-.628-.628v-6.727a.628.628,0,0,1,.628-.628h0a.628.628,0,0,1,.628.628v6.727A.628.628,0,0,1,1256.787,1305.069Z" transform="translate(-1252.796 -1297.085)" fill="#ab9df1"/>
            <path id="Trazado_121161" data-name="Trazado 121161" d="M1234.033,1319.839h0a.628.628,0,0,1,.628-.628h6.727a.628.628,0,0,1,.628.628h0a.628.628,0,0,1-.628.628h-6.727A.629.629,0,0,1,1234.033,1319.839Z" transform="translate(-1234.033 -1315.848)" fill="#ab9df1"/>
          </g>
          <g id="Grupo_83140" data-name="Grupo 83140" transform="translate(96.506 130.94)">
            <path id="Trazado_121162" data-name="Trazado 121162" d="M878.965,1008.614a2.333,2.333,0,1,1,2.332-2.333A2.335,2.335,0,0,1,878.965,1008.614Zm0-4.023a1.69,1.69,0,1,0,1.69,1.69A1.692,1.692,0,0,0,878.965,1004.591Z" transform="translate(-876.632 -1003.949)" fill="#ab9df1"/>
          </g>
        </g>
      </g>
      <g id="male" transform="translate(364.589 291.678)">
        <g id="Grupo_83156" data-name="Grupo 83156">
          <g id="Grupo_83144" data-name="Grupo 83144" transform="translate(0 38.03)">
            <path id="Trazado_121163" data-name="Trazado 121163" d="M1168.717,2135.857h-7.871l-.814-17.113h9.5Z" transform="translate(-1143.253 -2005.473)" fill="#0e0e0e"/>
            <path id="Trazado_121164" data-name="Trazado 121164" d="M2068.59,2135.857h-7.871l-.814-17.113h9.5Z" transform="translate(-1906.333 -2005.473)" fill="#0e0e0e"/>
            <path id="Trazado_121165" data-name="Trazado 121165" d="M1285.312,1457.177q-1.3,4.037-2.848,8.286H1151.8s-16.863-68.635,0-81.188a11.137,11.137,0,0,1,1.552-.946c22.711-11.67,113.768-14.41,132.254.6.141.112.272.227.4.342C1292.817,1390.53,1298.739,1415.489,1285.312,1457.177Z" transform="translate(-1129.917 -1373.61)" fill="#583ae2"/>
            <path id="Trazado_121166" data-name="Trazado 121166" d="M1243.038,1709.511H1193.8l4.8-48.1C1207.19,1665.132,1230.046,1684.8,1243.038,1709.511Z" transform="translate(-1171.891 -1617.657)" fill="#40327b"/>
            <path id="Trazado_121167" data-name="Trazado 121167" d="M1791.272,1698.37q-1.3,4.037-2.848,8.286h-47.458c8.161-15.136,27.952-38.063,47.169-48.616Z" transform="translate(-1635.877 -1614.803)" fill="#40327b"/>
            <path id="Trazado_121168" data-name="Trazado 121168" d="M1221.419,1656.978H1203.3a6.07,6.07,0,0,0-6.018,5.274l-5.777,43.686H1085.634l-5.777-43.686a6.07,6.07,0,0,0-6.018-5.274h-18.116a6.07,6.07,0,0,0-5.976,7.137l10.057,72.75h157.533l10.057-72.75A6.07,6.07,0,0,0,1221.419,1656.978Z" transform="translate(-1049.651 -1613.902)" fill="#583ae2"/>
            <g id="Grupo_83143" data-name="Grupo 83143" transform="translate(31.669 66.246)">
              <g id="Grupo_83142" data-name="Grupo 83142">
                <path id="Trazado_121169" data-name="Trazado 121169" d="M1367.111,1811.331c8.525,2.854,6.863,20.9,0,23.679H1263.693c-7.724-1.993-8.376-25.87,2.763-24.073C1334.625,1823.754,1337.927,1803.306,1367.111,1811.331Z" transform="translate(-1257.978 -1809.403)" fill="#826be9"/>
              </g>
            </g>
          </g>
          <g id="Grupo_83155" data-name="Grupo 83155" transform="translate(52.974)">
            <path id="Trazado_121170" data-name="Trazado 121170" d="M1457.343,1389.647a95.861,95.861,0,0,0,.72,12.89h48.493l2.872-47.349c-2.881-17.295-10.766-21.486-23.247-21.486-11.17,0-18.61,9.112-23.131,21.31C1459.142,1365.549,1457.413,1378.388,1457.343,1389.647Z" transform="translate(-1448.341 -1301.737)" fill="#45bbcc"/>
            <path id="Trazado_121171" data-name="Trazado 121171" d="M1457.359,1509.433l17.548-1.056c-9.742-3.189-10.518-18.142-.614-27.445l-11.229-7.049C1459.157,1484.422,1457.429,1498.174,1457.359,1509.433Z" transform="translate(-1448.356 -1420.61)" fill="#268c9b"/>
            <path id="Trazado_121172" data-name="Trazado 121172" d="M1435.388,1724.415h66.625v-22.673H1442Z" transform="translate(-1429.725 -1613.831)" fill="#0e0e0e"/>
            <g id="Grupo_83147" data-name="Grupo 83147" transform="translate(48.949 87.768)">
              <g id="Grupo_83145" data-name="Grupo 83145">
                <path id="Trazado_121173" data-name="Trazado 121173" d="M1751.994,1716.421l-17.9,65.024h-13.954c4.417-27.67,3.428-45.658,7.584-68.635C1731.373,1693.949,1756.332,1698.941,1751.994,1716.421Z" transform="translate(-1720.144 -1700.799)" fill="#0e0e0e"/>
              </g>
              <g id="Grupo_83146" data-name="Grupo 83146" transform="translate(0 68.222)">
                <path id="Trazado_121174" data-name="Trazado 121174" d="M1778.953,2181.915c0-.043,0-.085,0-.128a8.728,8.728,0,0,1,17.456,0c0,.043,0,.086,0,.128Z" transform="translate(-1770.011 -2169.49)" fill="#b15626"/>
                <path id="Trazado_121175" data-name="Trazado 121175" d="M1739.494,2153.318l-3.173-.97c-2.094-4.12-11.025-3.61-9.781,1.4a6.554,6.554,0,0,1-5.348-1.223l-1.048,9.483h18.923Z" transform="translate(-1720.144 -2149.588)" fill="#b15626"/>
              </g>
            </g>
            <g id="Grupo_83150" data-name="Grupo 83150" transform="translate(1.716 87.768)">
              <g id="Grupo_83148" data-name="Grupo 83148">
                <path id="Trazado_121176" data-name="Trazado 121176" d="M1409.929,1716.421l17.9,65.024h13.954c-4.418-27.67-3.428-45.658-7.584-68.635C1430.55,1693.949,1405.59,1698.941,1409.929,1716.421Z" transform="translate(-1409.424 -1700.799)" fill="#0e0e0e"/>
              </g>
              <g id="Grupo_83149" data-name="Grupo 83149" transform="translate(5.959 68.222)">
                <path id="Trazado_121177" data-name="Trazado 121177" d="M1466.077,2181.915c0-.043,0-.085,0-.128a8.728,8.728,0,0,0-17.456,0c0,.043,0,.086,0,.128Z" transform="translate(-1448.624 -2169.49)" fill="#b15626"/>
                <path id="Trazado_121178" data-name="Trazado 121178" d="M1494.973,2153.318l3.173-.97c2.094-4.12,11.025-3.61,9.781,1.4a6.554,6.554,0,0,0,5.348-1.223l1.048,9.483H1495.4Z" transform="translate(-1487.927 -2149.588)" fill="#b15626"/>
              </g>
            </g>
            <path id="Trazado_121179" data-name="Trazado 121179" d="M1428.5,1343.708c6.545,3.973,7.478,15.767,4.122,20.466l-18.675,13.912,19.014,9.791-3.089,10.113s-19.846-1.615-29.561-11.58C1390.988,1376.843,1413.727,1348.739,1428.5,1343.708Z" transform="translate(-1398.136 -1310.223)" fill="#45bbcc"/>
            <path id="Trazado_121180" data-name="Trazado 121180" d="M1654.013,1363.344c-5.6-7.03-1.732-17.892,5.4-17.572,23.239,8.181,30.412,30.9,23.05,41.094-6.307,8.736-34.053,12.1-34.053,12.1V1389.4l19.278-4.165S1657.753,1369.835,1654.013,1363.344Z" transform="translate(-1610.369 -1311.967)" fill="#45bbcc"/>
            <g id="Grupo_83152" data-name="Grupo 83152" transform="translate(21.124 51.34)">
              <path id="Trazado_121181" data-name="Trazado 121181" d="M1551.043,1633.008a7.364,7.364,0,0,1,6.334-8.084c8.419-1.528,11.467,3.091,12.263,6.394a1.4,1.4,0,0,1-1.3,1.69,1.423,1.423,0,0,1-1.355-1.144,3.257,3.257,0,0,0-1.469-2.274c.87,1.706.507,3.418-1.864,3.418Z" transform="translate(-1548.886 -1599.776)" fill="#f7a594"/>
              <g id="Grupo_83151" data-name="Grupo 83151">
                <path id="Trazado_121182" data-name="Trazado 121182" d="M1558.265,1494.392l6.625-33.224h1.4l-7.171,36.57h-19.858l-2.169-3.346Z" transform="translate(-1537.098 -1461.168)" fill="#99c1ff"/>
                <path id="Trazado_121183" data-name="Trazado 121183" d="M1689.167,1461.168h49.305l-7.293,36.57H1682Z" transform="translate(-1659.97 -1461.168)" fill="#fff"/>
              </g>
            </g>
            <g id="Grupo_83154" data-name="Grupo 83154" transform="translate(35.946)">
              <g id="Grupo_83153" data-name="Grupo 83153" transform="translate(0 21.26)">
                <path id="Trazado_121184" data-name="Trazado 121184" d="M1634.6,1277.894c0,3.781,11.333,6.288,15.037,2.314a4.189,4.189,0,0,0,1.094-2.242l2.135-9.575-13.535-5.1-.4,1.251Z" transform="translate(-1634.6 -1263.288)" fill="#f7a594"/>
                <path id="Trazado_121185" data-name="Trazado 121185" d="M1677.948,1287.2l2.135-9.575-12.805-3.448C1663.963,1284.044,1675.791,1291.925,1677.948,1287.2Z" transform="translate(-1661.816 -1272.523)" fill="#f4856d"/>
              </g>
              <path id="Trazado_121186" data-name="Trazado 121186" d="M1658.876,1149.86c-.713,9.411,6.724,17.7,12.965,18.119s14.833-6.55,15.545-15.961-5.092-17.523-12.965-18.119S1659.588,1140.449,1658.876,1149.86Z" transform="translate(-1655.145 -1132.278)" fill="#f7a594"/>
              <path id="Trazado_121187" data-name="Trazado 121187" d="M1668.089,1125.765c8.629-5.465,13.379-.325,17.676,5.125,3.015,3.825,5.151,6.574,8.9,7.149-7.219,9.105-21.656,3.1-26.2-6.026-.448,5.194-6.57,9.5-10.809,9C1656.281,1135.233,1660.284,1123.55,1668.089,1125.765Z" transform="translate(-1653.924 -1123.432)" fill="#0e0e0e"/>
              <circle id="Elipse_5339" data-name="Elipse 5339" cx="3.756" cy="3.756" r="3.756" transform="translate(1.068 14.6) rotate(-9.217)" fill="#f7a594"/>
            </g>
          </g>
        </g>
      </g>
    </g>
  </g>
</svg>
