<svg xmlns="http://www.w3.org/2000/svg" xmlns:xlink="http://www.w3.org/1999/xlink" width="295" height="192.597" viewBox="0 0 295 192.597">
  <defs>
    <linearGradient id="linear-gradient" x1="0.087" y1="0.521" x2="1.244" y2="0.349" gradientUnits="objectBoundingBox">
      <stop offset="0.056" stop-color="#92a3b0"/>
      <stop offset="1" stop-color="#fff"/>
    </linearGradient>
    <linearGradient id="linear-gradient-2" x1="0.086" y1="0.52" x2="1.229" y2="0.351" xlink:href="#linear-gradient"/>
    <linearGradient id="linear-gradient-3" x1="0.085" y1="0.518" x2="1.215" y2="0.353" xlink:href="#linear-gradient"/>
    <linearGradient id="linear-gradient-4" x1="0.085" y1="0.517" x2="1.2" y2="0.355" xlink:href="#linear-gradient"/>
    <linearGradient id="linear-gradient-5" x1="0.084" y1="0.516" x2="1.185" y2="0.357" xlink:href="#linear-gradient"/>
    <linearGradient id="linear-gradient-6" x1="0.083" y1="0.515" x2="1.17" y2="0.359" xlink:href="#linear-gradient"/>
    <linearGradient id="linear-gradient-7" x1="0.082" y1="0.514" x2="1.156" y2="0.361" xlink:href="#linear-gradient"/>
    <linearGradient id="linear-gradient-8" x1="0.081" y1="0.513" x2="1.141" y2="0.363" xlink:href="#linear-gradient"/>
    <linearGradient id="linear-gradient-9" x1="0.081" y1="0.512" x2="1.126" y2="0.365" xlink:href="#linear-gradient"/>
    <linearGradient id="linear-gradient-10" x1="0.08" y1="0.51" x2="1.112" y2="0.367" xlink:href="#linear-gradient"/>
    <linearGradient id="linear-gradient-11" x1="0.079" y1="0.509" x2="1.097" y2="0.369" xlink:href="#linear-gradient"/>
    <linearGradient id="linear-gradient-12" x1="0.078" y1="0.508" x2="1.082" y2="0.371" xlink:href="#linear-gradient"/>
    <linearGradient id="linear-gradient-13" x1="0.077" y1="0.507" x2="1.068" y2="0.373" xlink:href="#linear-gradient"/>
    <linearGradient id="linear-gradient-14" x1="0.076" y1="0.505" x2="1.053" y2="0.374" xlink:href="#linear-gradient"/>
    <linearGradient id="linear-gradient-15" x1="0.075" y1="0.504" x2="1.038" y2="0.376" xlink:href="#linear-gradient"/>
    <linearGradient id="linear-gradient-16" x1="0.074" y1="0.503" x2="1.024" y2="0.378" xlink:href="#linear-gradient"/>
    <linearGradient id="linear-gradient-17" x1="0.073" y1="0.502" x2="1.009" y2="0.38" xlink:href="#linear-gradient"/>
    <linearGradient id="linear-gradient-18" x1="0.072" y1="0.501" x2="0.995" y2="0.382" xlink:href="#linear-gradient"/>
    <linearGradient id="linear-gradient-19" x1="0.071" y1="0.5" x2="0.981" y2="0.385" xlink:href="#linear-gradient"/>
    <linearGradient id="linear-gradient-20" x1="0.07" y1="0.499" x2="0.967" y2="0.387" xlink:href="#linear-gradient"/>
    <linearGradient id="linear-gradient-21" x1="0.069" y1="0.499" x2="0.953" y2="0.39" xlink:href="#linear-gradient"/>
    <linearGradient id="linear-gradient-22" x1="0.069" y1="0.499" x2="0.939" y2="0.393" xlink:href="#linear-gradient"/>
    <radialGradient id="radial-gradient" cx="0.5" cy="0.5" r="0.31" gradientTransform="matrix(-1.221, -0.709, -1.221, 0.701, 407.572, 127.868)" xlink:href="#linear-gradient"/>
  </defs>
  <g id="Grupo_84769" data-name="Grupo 84769" transform="translate(-810 -5342.443)">
    <rect id="Imagen_6" data-name="Imagen 6" width="295" height="133" rx="19" transform="translate(810 5370.443)" fill="#583ae2"/>
    <g id="Grupo_82230" data-name="Grupo 82230" transform="translate(522.221 5243.849)">
      <g id="Grupo_82232" data-name="Grupo 82232" transform="translate(360.191 98.594)">
        <g id="Grupo_82231" data-name="Grupo 82231">
          <path id="Trazado_119053" data-name="Trazado 119053" d="M456.851,301.61l-88.4-51.035c-3.491-2.015-3.053-5.535.978-7.863L419.6,213.749c4.031-2.328,10.128-2.58,13.619-.565l88.395,51.035c3.491,2.015,3.053,5.535-.977,7.862l-50.166,28.963C466.438,303.373,460.341,303.625,456.851,301.61Z" transform="translate(-366.099 -122.3)" fill="#92b4d1" opacity="0.2"/>
          <path id="Trazado_119054" data-name="Trazado 119054" d="M456.851,297.32l-88.4-51.035a4.07,4.07,0,0,1-2.355-3.352c0-.04,0-4.339,0-4.379.028-1.527,1.157,1.125,3.333-.131L419.6,209.459c4.031-2.328,10.128-2.58,13.619-.565l88.395,51.035c1.165.673,2.011-2.183,2.313-1.275.1.3.036,4.309.043,4.623.033,1.565-1.1,3.223-3.333,4.515L470.47,296.755C466.438,299.083,460.341,299.335,456.851,297.32Z" transform="translate(-366.099 -121.402)" fill="#2672ab"/>
          <path id="Trazado_119055" data-name="Trazado 119055" d="M456.851,291.884l-88.4-51.034c-3.491-2.016-3.053-5.536.978-7.863L419.6,204.023c4.031-2.327,10.128-2.58,13.619-.565l88.395,51.035c3.491,2.015,3.053,5.535-.977,7.863l-50.166,28.963C466.438,293.647,460.341,293.9,456.851,291.884Z" transform="translate(-366.099 -120.264)" fill="#d1ebff"/>
          <path id="Trazado_119056" data-name="Trazado 119056" d="M480.882,319.807c3.491,2.016,9.588,1.763,13.619-.565v-4.3c-4.031,2.328-10.128,2.581-13.619.565Z" transform="translate(-390.13 -143.89)" fill="#3f92d1" opacity="0.5"/>
          <path id="Trazado_119057" data-name="Trazado 119057" d="M456.851,301.173l-88.395-51.035c-1.688-.975-2.449-2.3-2.338-3.675a1.76,1.76,0,0,0-.018.241c0,.04,0,4.339,0,4.379a4.069,4.069,0,0,0,2.356,3.352l88.395,51.035Z" transform="translate(-366.099 -129.552)" fill="#3f92d1"/>
          <path id="Trazado_119058" data-name="Trazado 119058" d="M520.636,270.875l-50.167,28.963c-4.03,2.328-10.127,2.58-13.618.565l-88.4-51.035a4.173,4.173,0,0,1-2.329-3.093c-.182,1.426.58,2.813,2.329,3.824l88.4,51.034c3.491,2.016,9.588,1.763,13.618-.565l50.167-28.963c2.358-1.362,3.476-3.131,3.307-4.769C523.763,268.256,522.646,269.714,520.636,270.875Z" transform="translate(-366.099 -129.513)" fill="#fff"/>
          <path id="Trazado_119059" data-name="Trazado 119059" d="M446.989,286.027l-31.459-18.163c-.63-.364-.551-1,.176-1.419l11.811-6.819a2.731,2.731,0,0,1,2.457-.1l31.459,18.163c.63.364.551,1-.176,1.418l-11.811,6.819A2.729,2.729,0,0,1,446.989,286.027Z" transform="translate(-376.358 -132.235)" fill="#fff" opacity="0.3"/>
          <path id="Trazado_119060" data-name="Trazado 119060" d="M415.707,267.191l11.811-6.819a2.731,2.731,0,0,1,2.457-.1l31.459,18.163a.952.952,0,0,1,.291.255.658.658,0,0,0-.291-1l-31.459-18.163a2.732,2.732,0,0,0-2.457.1l-11.811,6.819c-.579.334-.739.8-.467,1.164A1.377,1.377,0,0,1,415.707,267.191Z" transform="translate(-376.36 -132.235)" fill="#a8cff0"/>
          <path id="Trazado_119061" data-name="Trazado 119061" d="M435.685,211.655l5.421,3.13a2.75,2.75,0,0,0,2.489,0,.759.759,0,0,0-.008-1.437l-5.421-3.13a2.753,2.753,0,0,0-2.489,0A.759.759,0,0,0,435.685,211.655Zm9.283,5.36,2.568,1.482a2.753,2.753,0,0,0,2.489,0,.759.759,0,0,0-.008-1.437l-2.568-1.482a2.75,2.75,0,0,0-2.489,0A.759.759,0,0,0,444.968,217.015Zm6.43,3.711,2.568,1.483a2.75,2.75,0,0,0,2.489,0,.758.758,0,0,0-.008-1.437l-2.568-1.482a2.75,2.75,0,0,0-2.489,0A.758.758,0,0,0,451.4,220.726Zm6.429,3.712,2.569,1.483a2.75,2.75,0,0,0,2.489,0,.758.758,0,0,0-.008-1.437l-2.568-1.483a2.754,2.754,0,0,0-2.49,0A.758.758,0,0,0,457.826,224.438Zm6.429,3.712,2.568,1.483a2.75,2.75,0,0,0,2.489,0,.758.758,0,0,0-.007-1.437l-2.569-1.483a2.75,2.75,0,0,0-2.489,0A.758.758,0,0,0,464.255,228.15Zm6.43,3.712,2.568,1.483a2.75,2.75,0,0,0,2.489,0,.758.758,0,0,0-.008-1.437l-2.568-1.483a2.75,2.75,0,0,0-2.489,0A.758.758,0,0,0,470.685,231.862Zm6.429,3.712,2.568,1.482a2.75,2.75,0,0,0,2.489,0,.758.758,0,0,0-.008-1.437l-2.568-1.483a2.753,2.753,0,0,0-2.489,0A.759.759,0,0,0,477.114,235.574Zm6.429,3.712,2.569,1.482a2.75,2.75,0,0,0,2.489,0,.759.759,0,0,0-.008-1.437l-2.568-1.482a2.753,2.753,0,0,0-2.489,0A.759.759,0,0,0,483.543,239.286Zm6.43,3.712,2.568,1.482a2.752,2.752,0,0,0,2.49,0,.759.759,0,0,0-.008-1.437l-2.569-1.482a2.752,2.752,0,0,0-2.489,0A.759.759,0,0,0,489.972,243Zm6.429,3.712,2.568,1.482a2.75,2.75,0,0,0,2.489,0,.759.759,0,0,0-.008-1.437l-2.568-1.482a2.75,2.75,0,0,0-2.489,0A.759.759,0,0,0,496.4,246.711Zm6.43,3.712,2.568,1.482a2.753,2.753,0,0,0,2.489,0,.759.759,0,0,0-.008-1.437l-2.568-1.482a2.75,2.75,0,0,0-2.489,0A.759.759,0,0,0,502.831,250.423Zm6.429,3.712,2.568,1.482a2.75,2.75,0,0,0,2.489,0,.758.758,0,0,0-.008-1.437l-2.568-1.482a2.75,2.75,0,0,0-2.489,0A.759.759,0,0,0,509.261,254.135Zm6.563,3.789,2.568,1.482a2.75,2.75,0,0,0,2.489,0,.758.758,0,0,0-.008-1.437l-2.568-1.483a2.75,2.75,0,0,0-2.489,0A.758.758,0,0,0,515.824,257.923ZM429.9,215.193l2.223,1.284a3.13,3.13,0,0,0,2.833,0l2.21-1.275a.863.863,0,0,0-.01-1.636l-2.223-1.283a3.132,3.132,0,0,0-2.833-.006l-2.209,1.276A.863.863,0,0,0,429.9,215.193Zm11.486,5,2.209-1.275a.863.863,0,0,0-.009-1.636L441.365,216a3.132,3.132,0,0,0-2.833-.006l-2.209,1.276a.863.863,0,0,0,.009,1.635l2.223,1.284A3.13,3.13,0,0,0,441.388,220.193Zm1.373,2.423,2.223,1.284a3.13,3.13,0,0,0,2.833,0l2.209-1.275a.864.864,0,0,0-.009-1.636l-2.223-1.283a3.132,3.132,0,0,0-2.833-.006l-2.21,1.276A.863.863,0,0,0,442.761,222.617Zm6.429,3.712,2.224,1.284a3.13,3.13,0,0,0,2.832,0l2.21-1.275a.864.864,0,0,0-.009-1.636l-2.223-1.284a3.132,3.132,0,0,0-2.833,0l-2.21,1.275A.864.864,0,0,0,449.19,226.329Zm13.686,2.09-2.223-1.284a3.13,3.13,0,0,0-2.832,0l-2.21,1.275a.864.864,0,0,0,.009,1.636l2.223,1.284a3.132,3.132,0,0,0,2.833,0l2.21-1.275A.863.863,0,0,0,462.876,228.418Zm6.429,3.712-2.223-1.284a3.13,3.13,0,0,0-2.833,0l-2.209,1.275a.863.863,0,0,0,.009,1.636l2.223,1.283a3.132,3.132,0,0,0,2.833.006l2.21-1.276A.863.863,0,0,0,469.305,232.13Zm6.43,3.712-2.223-1.284a3.13,3.13,0,0,0-2.833,0l-2.209,1.275a.863.863,0,0,0,.009,1.636l2.223,1.283a3.132,3.132,0,0,0,2.833.006l2.209-1.276A.863.863,0,0,0,475.735,235.842Zm6.429,3.712-2.223-1.284a3.13,3.13,0,0,0-2.833,0l-2.21,1.275a.863.863,0,0,0,.009,1.636l2.223,1.283a3.132,3.132,0,0,0,2.833.006l2.209-1.276A.863.863,0,0,0,482.164,239.555Zm6.429,3.711-2.223-1.283a3.129,3.129,0,0,0-2.833,0l-2.21,1.275a.863.863,0,0,0,.009,1.635l2.223,1.284a3.132,3.132,0,0,0,2.833.006l2.21-1.276A.864.864,0,0,0,488.593,243.266Zm6.429,3.712-2.223-1.283a3.132,3.132,0,0,0-2.833-.006l-2.209,1.276a.863.863,0,0,0,.009,1.635l2.223,1.284a3.13,3.13,0,0,0,2.833,0l2.21-1.275A.863.863,0,0,0,495.022,246.978Zm-.827,5.334,2.223,1.284a3.13,3.13,0,0,0,2.833,0l2.209-1.275a.863.863,0,0,0-.009-1.636l-2.223-1.283a3.132,3.132,0,0,0-2.833-.006l-2.209,1.276A.863.863,0,0,0,494.2,252.312Zm13.686,2.09-2.223-1.283a3.132,3.132,0,0,0-2.833-.006l-2.21,1.276a.863.863,0,0,0,.01,1.635l2.223,1.284a3.13,3.13,0,0,0,2.833,0l2.209-1.275A.864.864,0,0,0,507.881,254.4Zm9.417,5.437-5.077-2.932a3.13,3.13,0,0,0-2.833,0l-2.21,1.275a.863.863,0,0,0,.009,1.636l5.077,2.931a3.13,3.13,0,0,0,2.833,0l2.209-1.275A.863.863,0,0,0,517.3,259.839Zm-93.351-41.208,5.077,2.931a3.132,3.132,0,0,0,2.833.006l2.21-1.276a.863.863,0,0,0-.009-1.635l-5.078-2.932a3.128,3.128,0,0,0-2.832,0L423.938,217A.864.864,0,0,0,423.947,218.631Zm9.283,5.36,2.223,1.283a3.13,3.13,0,0,0,2.833,0L440.5,224a.863.863,0,0,0-.01-1.635l-2.223-1.284a3.132,3.132,0,0,0-2.833-.006l-2.209,1.276A.864.864,0,0,0,433.23,223.991Zm8.653,5a3.13,3.13,0,0,0,2.833,0l2.209-1.275a.863.863,0,0,0-.009-1.635l-2.223-1.284a3.132,3.132,0,0,0-2.833-.006l-2.209,1.276a.863.863,0,0,0,.009,1.635Zm6.429,3.712a3.13,3.13,0,0,0,2.833,0l2.209-1.275a.864.864,0,0,0-.009-1.636l-2.223-1.283a3.132,3.132,0,0,0-2.833-.006l-2.21,1.276a.863.863,0,0,0,.01,1.635Zm6.406-.483-2.21,1.276a.863.863,0,0,0,.009,1.635l2.224,1.284a3.128,3.128,0,0,0,2.832,0l2.21-1.275a.864.864,0,0,0-.009-1.636l-2.223-1.283A3.132,3.132,0,0,0,454.719,232.215Zm6.565,3.634-2.481,1.433a.78.78,0,0,0,.008,1.478l2.5,1.442a2.831,2.831,0,0,0,2.56,0l2.482-1.433a.78.78,0,0,0-.009-1.478l-2.5-1.441A2.83,2.83,0,0,0,461.283,235.849Zm6.429,3.712-2.481,1.433a.78.78,0,0,0,.008,1.478l2.5,1.441a2.828,2.828,0,0,0,2.56,0l2.481-1.433a.78.78,0,0,0-.008-1.478l-2.5-1.441A2.828,2.828,0,0,0,467.713,239.561Zm6.43,3.712-2.481,1.432a.78.78,0,0,0,.008,1.478l2.5,1.441a2.828,2.828,0,0,0,2.56,0l2.481-1.433a.78.78,0,0,0-.008-1.478l-2.5-1.441A2.828,2.828,0,0,0,474.142,243.273Zm6.429,3.712-2.481,1.432a.78.78,0,0,0,.008,1.479l2.5,1.441a2.828,2.828,0,0,0,2.56,0l2.481-1.433a.78.78,0,0,0-.008-1.478l-2.5-1.442A2.83,2.83,0,0,0,480.572,246.985ZM487,250.7l-2.482,1.433a.781.781,0,0,0,.008,1.478l2.5,1.441a2.83,2.83,0,0,0,2.561,0l2.481-1.433a.78.78,0,0,0-.008-1.478l-2.5-1.442A2.83,2.83,0,0,0,487,250.7Zm9.012,8.069,2.482-1.433a.781.781,0,0,0-.009-1.478l-2.5-1.441a2.831,2.831,0,0,0-2.56,0l-2.481,1.433a.781.781,0,0,0,.008,1.478l2.5,1.441A2.83,2.83,0,0,0,496.014,258.765Zm6.429,3.712,2.481-1.433a.78.78,0,0,0-.008-1.479l-2.5-1.441a2.831,2.831,0,0,0-2.56,0l-2.481,1.433a.78.78,0,0,0,.008,1.478l2.5,1.441A2.831,2.831,0,0,0,502.443,262.477Zm9.036.878-2.5-1.441a2.828,2.828,0,0,0-2.56,0l-2.481,1.433a.78.78,0,0,0,.008,1.478l2.5,1.441a2.828,2.828,0,0,0,2.56,0l2.481-1.433A.78.78,0,0,0,511.479,263.356ZM417.855,221.99l8.061,4.654a2.828,2.828,0,0,0,2.56,0l2.482-1.433a.78.78,0,0,0-.009-1.478l-8.061-4.654a2.831,2.831,0,0,0-2.56,0l-2.482,1.433A.781.781,0,0,0,417.855,221.99Zm11.994,6.924,2.5,1.441a2.828,2.828,0,0,0,2.56,0l2.481-1.433a.78.78,0,0,0-.008-1.478l-2.5-1.441a2.831,2.831,0,0,0-2.56,0l-2.481,1.433A.78.78,0,0,0,429.849,228.915Zm6.429,3.712,2.5,1.441a2.83,2.83,0,0,0,2.56,0l2.481-1.433a.781.781,0,0,0-.008-1.479l-2.5-1.441a2.831,2.831,0,0,0-2.56,0l-2.481,1.433A.78.78,0,0,0,436.279,232.627Zm6.429,3.712,2.5,1.441a2.831,2.831,0,0,0,2.56,0l2.481-1.433a.78.78,0,0,0-.008-1.478l-2.5-1.441a2.831,2.831,0,0,0-2.56,0L442.7,234.86A.781.781,0,0,0,442.708,236.339Zm11.486,5.158,2.482-1.433a.781.781,0,0,0-.008-1.478l-2.5-1.441a2.83,2.83,0,0,0-2.561,0l-2.481,1.433a.78.78,0,0,0,.008,1.478l2.5,1.442A2.831,2.831,0,0,0,454.194,241.5Zm6.43,3.711,2.481-1.433a.78.78,0,0,0-.008-1.478l-2.5-1.441a2.828,2.828,0,0,0-2.56,0l-2.481,1.433a.78.78,0,0,0,.008,1.478l2.5,1.442A2.831,2.831,0,0,0,460.623,245.208Zm6.429,3.712,2.481-1.433a.78.78,0,0,0-.008-1.478l-2.5-1.441a2.828,2.828,0,0,0-2.56,0L461.988,246a.78.78,0,0,0,.008,1.478l2.5,1.441A2.828,2.828,0,0,0,467.053,248.92Zm6.429,3.712,2.481-1.433a.78.78,0,0,0-.008-1.478l-2.5-1.441a2.828,2.828,0,0,0-2.56,0l-2.481,1.433a.78.78,0,0,0,.008,1.478l2.5,1.441A2.828,2.828,0,0,0,473.482,252.632Zm6.43,3.712,2.481-1.433a.78.78,0,0,0-.008-1.478l-2.5-1.442a2.828,2.828,0,0,0-2.56,0l-2.482,1.432a.781.781,0,0,0,.009,1.479l2.5,1.441A2.83,2.83,0,0,0,479.911,256.344Zm6.429,3.712,2.482-1.433a.781.781,0,0,0-.009-1.478l-2.5-1.441a2.831,2.831,0,0,0-2.56,0l-2.481,1.433a.781.781,0,0,0,.008,1.478l2.5,1.441A2.828,2.828,0,0,0,486.34,260.057Zm1.373,2.266,2.5,1.441a2.831,2.831,0,0,0,2.56,0l2.481-1.433a.78.78,0,0,0-.008-1.479l-2.5-1.441a2.831,2.831,0,0,0-2.56,0l-2.481,1.433A.781.781,0,0,0,487.713,262.322Zm17.812,4.471-6.349-3.665a2.83,2.83,0,0,0-2.56,0l-2.481,1.433a.78.78,0,0,0,.008,1.479l6.349,3.665a2.831,2.831,0,0,0,2.56,0l2.481-1.433A.78.78,0,0,0,505.524,266.794Zm-93.6-41.187,11.437,6.6a3.2,3.2,0,0,0,2.892.006l2.151-1.241a.881.881,0,0,0-.009-1.67l-11.438-6.6a3.2,3.2,0,0,0-2.892-.006l-2.151,1.241A.881.881,0,0,0,411.925,225.606Zm15.7,9.066,2.164,1.249a3.2,3.2,0,0,0,2.892.006l2.151-1.241a.881.881,0,0,0-.009-1.67l-2.164-1.249a3.2,3.2,0,0,0-2.891-.006L427.62,233A.881.881,0,0,0,427.628,234.672Zm6.43,3.712,2.164,1.249a3.2,3.2,0,0,0,2.892.006l2.151-1.241a.882.882,0,0,0-.01-1.67l-2.164-1.249a3.192,3.192,0,0,0-2.892-.006l-2.15,1.241A.881.881,0,0,0,434.058,238.384Zm6.429,3.712,2.164,1.249a3.2,3.2,0,0,0,2.892.006l2.15-1.242a.881.881,0,0,0-.009-1.669l-2.164-1.25a3.2,3.2,0,0,0-2.892,0l-2.151,1.241A.881.881,0,0,0,440.487,242.1Zm6.43,3.712,2.164,1.249a3.2,3.2,0,0,0,2.891.006l2.151-1.242a.881.881,0,0,0-.009-1.67L451.95,242.9a3.2,3.2,0,0,0-2.892,0l-2.151,1.241A.881.881,0,0,0,446.917,245.808Zm6.429,3.712,2.164,1.249a3.2,3.2,0,0,0,2.892,0l2.151-1.241a.881.881,0,0,0-.009-1.67l-2.163-1.249a3.2,3.2,0,0,0-2.892,0l-2.151,1.241A.881.881,0,0,0,453.345,249.52Zm6.429,3.712,2.164,1.249a3.2,3.2,0,0,0,2.892,0l2.151-1.241a.881.881,0,0,0-.009-1.67l-2.164-1.249a3.2,3.2,0,0,0-2.891-.006l-2.151,1.242A.881.881,0,0,0,459.775,253.233Zm6.429,3.712,2.164,1.249a3.2,3.2,0,0,0,2.892,0l2.15-1.241a.881.881,0,0,0-.009-1.67l-2.164-1.249a3.2,3.2,0,0,0-2.892-.006l-2.151,1.242A.882.882,0,0,0,466.2,256.945Zm6.43,3.711,2.164,1.25a3.2,3.2,0,0,0,2.891,0l2.151-1.241a.881.881,0,0,0-.009-1.67l-2.164-1.249a3.2,3.2,0,0,0-2.892-.006l-2.151,1.241A.881.881,0,0,0,472.634,260.656Zm6.429,3.712,2.164,1.249a3.2,3.2,0,0,0,2.892.006l2.151-1.241a.881.881,0,0,0-.009-1.67l-2.164-1.249a3.2,3.2,0,0,0-2.892-.006l-2.151,1.241A.881.881,0,0,0,479.062,264.368Zm6.43,3.712,2.164,1.249a3.2,3.2,0,0,0,2.892.006l2.151-1.241a.881.881,0,0,0-.009-1.67l-2.164-1.249a3.2,3.2,0,0,0-2.891-.006l-2.151,1.241A.881.881,0,0,0,485.492,268.08Zm13.77,2.138-2.164-1.249a3.2,3.2,0,0,0-2.892-.006l-2.151,1.241a.881.881,0,0,0,.009,1.67l2.163,1.249a3.2,3.2,0,0,0,2.892.006l2.151-1.241A.881.881,0,0,0,499.262,270.218Zm-83.241-41.183-5.017-2.9a3.2,3.2,0,0,0-2.892-.006l-2.15,1.242a.881.881,0,0,0,.009,1.67l5.017,2.9a3.2,3.2,0,0,0,2.892,0l2.151-1.241A.881.881,0,0,0,416.021,229.035Zm6.429,3.712-2.164-1.249a3.2,3.2,0,0,0-2.892-.006l-2.151,1.241a.882.882,0,0,0,.009,1.67l2.164,1.249a3.2,3.2,0,0,0,2.892.006l2.15-1.241A.881.881,0,0,0,422.45,232.747Zm6.429,3.712-2.164-1.249a3.2,3.2,0,0,0-2.892-.006l-2.151,1.241a.881.881,0,0,0,.01,1.67l2.164,1.249a3.2,3.2,0,0,0,2.891.006l2.151-1.241A.881.881,0,0,0,428.88,236.459Zm45,25.984-40.739-23.521a3.2,3.2,0,0,0-2.892-.006l-2.151,1.241a.881.881,0,0,0,.009,1.67l40.74,23.521a3.2,3.2,0,0,0,2.892.006l2.151-1.241A.881.881,0,0,0,473.884,262.443Zm6.429,3.712-2.164-1.249a3.2,3.2,0,0,0-2.892-.006l-2.15,1.241a.881.881,0,0,0,.009,1.67l2.164,1.249a3.2,3.2,0,0,0,2.892.006l2.151-1.241A.882.882,0,0,0,480.314,266.155Zm6.429,3.712-2.164-1.249a3.2,3.2,0,0,0-2.892-.006l-2.151,1.241a.881.881,0,0,0,.009,1.67l2.164,1.249a3.2,3.2,0,0,0,2.891.006l2.151-1.241A.881.881,0,0,0,486.743,269.867Zm6.563,3.789-2.164-1.249a3.2,3.2,0,0,0-2.892,0l-2.151,1.241a.881.881,0,0,0,.009,1.67l2.164,1.249a3.2,3.2,0,0,0,2.891.006l2.151-1.242A.881.881,0,0,0,493.306,273.655Z" transform="translate(-374.32 -121.902)" fill="#72b5e8"/>
          <path id="Trazado_119062" data-name="Trazado 119062" d="M435.685,210.9l5.421,3.13a2.75,2.75,0,0,0,2.489,0,.758.758,0,0,0-.008-1.437l-5.421-3.13a2.75,2.75,0,0,0-2.489,0A.759.759,0,0,0,435.685,210.9Zm9.283,5.359,2.568,1.483a2.75,2.75,0,0,0,2.489,0,.758.758,0,0,0-.008-1.437l-2.568-1.483a2.75,2.75,0,0,0-2.489,0A.758.758,0,0,0,444.968,216.257Zm6.43,3.712,2.568,1.482a2.75,2.75,0,0,0,2.489,0,.758.758,0,0,0-.008-1.437l-2.568-1.483a2.753,2.753,0,0,0-2.489,0A.759.759,0,0,0,451.4,219.969Zm6.429,3.712,2.569,1.482a2.75,2.75,0,0,0,2.489,0,.759.759,0,0,0-.008-1.437l-2.568-1.482a2.754,2.754,0,0,0-2.49,0A.759.759,0,0,0,457.826,223.681Zm6.429,3.712,2.568,1.482a2.75,2.75,0,0,0,2.489,0,.759.759,0,0,0-.007-1.437l-2.569-1.482a2.753,2.753,0,0,0-2.489,0A.759.759,0,0,0,464.255,227.393Zm6.43,3.712,2.568,1.482a2.75,2.75,0,0,0,2.489,0,.759.759,0,0,0-.008-1.437l-2.568-1.482a2.75,2.75,0,0,0-2.489,0A.759.759,0,0,0,470.685,231.105Zm6.429,3.712,2.568,1.482a2.753,2.753,0,0,0,2.489,0,.759.759,0,0,0-.008-1.437l-2.568-1.482a2.75,2.75,0,0,0-2.489,0A.759.759,0,0,0,477.114,234.817Zm6.429,3.712,2.569,1.482a2.75,2.75,0,0,0,2.489,0,.758.758,0,0,0-.008-1.437l-2.568-1.482a2.75,2.75,0,0,0-2.489,0A.759.759,0,0,0,483.543,238.529Zm6.43,3.711,2.568,1.483a2.752,2.752,0,0,0,2.49,0,.758.758,0,0,0-.008-1.437l-2.569-1.482a2.75,2.75,0,0,0-2.489,0A.758.758,0,0,0,489.972,242.241Zm6.429,3.712,2.568,1.483a2.75,2.75,0,0,0,2.489,0,.758.758,0,0,0-.008-1.437l-2.568-1.483a2.75,2.75,0,0,0-2.489,0A.758.758,0,0,0,496.4,245.953Zm6.43,3.712,2.568,1.482a2.748,2.748,0,0,0,2.489,0,.758.758,0,0,0-.008-1.437l-2.568-1.483a2.75,2.75,0,0,0-2.489,0A.758.758,0,0,0,502.831,249.665Zm6.429,3.712,2.568,1.482a2.75,2.75,0,0,0,2.489,0,.759.759,0,0,0-.008-1.437l-2.568-1.482a2.753,2.753,0,0,0-2.489,0A.759.759,0,0,0,509.261,253.377Zm6.563,3.79,2.568,1.482a2.753,2.753,0,0,0,2.489,0,.759.759,0,0,0-.008-1.437l-2.568-1.482a2.75,2.75,0,0,0-2.489,0A.759.759,0,0,0,515.824,257.166ZM429.9,214.436l2.223,1.283a3.129,3.129,0,0,0,2.833.006l2.21-1.275a.863.863,0,0,0-.01-1.636l-2.223-1.284a3.13,3.13,0,0,0-2.833,0l-2.209,1.275A.864.864,0,0,0,429.9,214.436Zm11.486,5,2.209-1.276a.863.863,0,0,0-.009-1.635l-2.223-1.284a3.13,3.13,0,0,0-2.833,0l-2.209,1.275a.863.863,0,0,0,.009,1.636l2.223,1.283A3.132,3.132,0,0,0,441.388,219.436Zm1.373,2.423,2.223,1.283a3.132,3.132,0,0,0,2.833.006l2.209-1.276a.863.863,0,0,0-.009-1.635l-2.223-1.284a3.129,3.129,0,0,0-2.833,0l-2.21,1.275A.863.863,0,0,0,442.761,221.86Zm6.429,3.712,2.224,1.283a3.13,3.13,0,0,0,2.832.006l2.21-1.276a.863.863,0,0,0-.009-1.635l-2.223-1.284a3.13,3.13,0,0,0-2.833,0l-2.21,1.275A.864.864,0,0,0,449.19,225.572Zm13.686,2.09-2.223-1.284a3.128,3.128,0,0,0-2.832,0l-2.21,1.275a.864.864,0,0,0,.009,1.636l2.223,1.283a3.132,3.132,0,0,0,2.833.006l2.21-1.276A.863.863,0,0,0,462.876,227.661Zm6.429,3.711-2.223-1.283a3.132,3.132,0,0,0-2.833-.006l-2.209,1.276a.863.863,0,0,0,.009,1.635l2.223,1.284a3.13,3.13,0,0,0,2.833,0l2.21-1.275A.863.863,0,0,0,469.305,231.373Zm6.43,3.712-2.223-1.283a3.132,3.132,0,0,0-2.833-.006l-2.209,1.276a.863.863,0,0,0,.009,1.635l2.223,1.284a3.129,3.129,0,0,0,2.833,0l2.209-1.275A.863.863,0,0,0,475.735,235.085Zm6.429,3.712-2.223-1.283a3.132,3.132,0,0,0-2.833-.006l-2.21,1.276a.863.863,0,0,0,.009,1.635l2.223,1.284a3.13,3.13,0,0,0,2.833,0l2.209-1.275A.864.864,0,0,0,482.164,238.8Zm6.429,3.712-2.223-1.283a3.13,3.13,0,0,0-2.833-.006l-2.21,1.276a.863.863,0,0,0,.009,1.635l2.223,1.284a3.129,3.129,0,0,0,2.833,0l2.21-1.275A.864.864,0,0,0,488.593,242.509Zm6.429,3.712-2.223-1.284a3.132,3.132,0,0,0-2.833,0l-2.209,1.275a.864.864,0,0,0,.009,1.636l2.223,1.284a3.134,3.134,0,0,0,2.833,0l2.21-1.275A.863.863,0,0,0,495.022,246.221Zm-.827,5.334,2.223,1.283a3.132,3.132,0,0,0,2.833.006l2.209-1.276a.863.863,0,0,0-.009-1.635l-2.223-1.284a3.13,3.13,0,0,0-2.833,0l-2.209,1.275A.863.863,0,0,0,494.2,251.555Zm13.686,2.09-2.223-1.284a3.13,3.13,0,0,0-2.833,0l-2.21,1.275a.863.863,0,0,0,.01,1.636l2.223,1.283a3.132,3.132,0,0,0,2.833.006l2.209-1.276A.863.863,0,0,0,507.881,253.645Zm9.417,5.436-5.077-2.931a3.132,3.132,0,0,0-2.833-.006l-2.21,1.276a.863.863,0,0,0,.009,1.635l5.077,2.932a3.132,3.132,0,0,0,2.833,0l2.209-1.275A.863.863,0,0,0,517.3,259.081Zm-93.351-41.207,5.077,2.931a3.129,3.129,0,0,0,2.833,0l2.21-1.275a.864.864,0,0,0-.009-1.636l-5.078-2.931a3.128,3.128,0,0,0-2.832,0l-2.21,1.275A.864.864,0,0,0,423.947,217.874Zm9.283,5.359,2.223,1.284a3.13,3.13,0,0,0,2.833,0l2.21-1.275a.863.863,0,0,0-.01-1.636l-2.223-1.283a3.132,3.132,0,0,0-2.833-.006l-2.209,1.276A.863.863,0,0,0,433.23,223.233Zm8.653,5a3.129,3.129,0,0,0,2.833.006l2.209-1.275a.863.863,0,0,0-.009-1.636l-2.223-1.283a3.127,3.127,0,0,0-2.833-.006l-2.209,1.275a.863.863,0,0,0,.009,1.636Zm6.429,3.712a3.132,3.132,0,0,0,2.833.006l2.209-1.276a.863.863,0,0,0-.009-1.635l-2.223-1.284a3.13,3.13,0,0,0-2.833,0l-2.21,1.275a.863.863,0,0,0,.01,1.636Zm6.406-.482-2.21,1.275a.864.864,0,0,0,.009,1.636l2.224,1.283a3.13,3.13,0,0,0,2.832.006l2.21-1.276a.863.863,0,0,0-.009-1.635l-2.223-1.284A3.13,3.13,0,0,0,454.719,231.458Zm6.565,3.633-2.481,1.433A.781.781,0,0,0,458.81,238l2.5,1.441a2.83,2.83,0,0,0,2.56,0l2.482-1.433a.781.781,0,0,0-.009-1.478l-2.5-1.441A2.832,2.832,0,0,0,461.283,235.091Zm6.429,3.712-2.481,1.433a.78.78,0,0,0,.008,1.478l2.5,1.441a2.831,2.831,0,0,0,2.56,0l2.481-1.433a.78.78,0,0,0-.008-1.479l-2.5-1.441A2.831,2.831,0,0,0,467.713,238.8Zm6.43,3.712-2.481,1.433a.78.78,0,0,0,.008,1.479l2.5,1.441a2.831,2.831,0,0,0,2.56,0l2.481-1.433a.78.78,0,0,0-.008-1.478l-2.5-1.441A2.83,2.83,0,0,0,474.142,242.515Zm6.429,3.712-2.481,1.433a.78.78,0,0,0,.008,1.478l2.5,1.442a2.83,2.83,0,0,0,2.56,0l2.481-1.433a.781.781,0,0,0-.008-1.478l-2.5-1.441A2.828,2.828,0,0,0,480.572,246.227Zm6.43,3.712-2.482,1.433a.78.78,0,0,0,.008,1.478l2.5,1.442a2.832,2.832,0,0,0,2.561,0l2.481-1.432a.78.78,0,0,0-.008-1.478l-2.5-1.441A2.828,2.828,0,0,0,487,249.939Zm9.012,8.068,2.482-1.433a.78.78,0,0,0-.009-1.478l-2.5-1.441a2.828,2.828,0,0,0-2.56,0l-2.481,1.433a.78.78,0,0,0,.008,1.478l2.5,1.441A2.828,2.828,0,0,0,496.014,258.008Zm6.429,3.712,2.481-1.433a.78.78,0,0,0-.008-1.478l-2.5-1.441a2.828,2.828,0,0,0-2.56,0l-2.481,1.433a.78.78,0,0,0,.008,1.478l2.5,1.441A2.828,2.828,0,0,0,502.443,261.72Zm9.036.878-2.5-1.441a2.831,2.831,0,0,0-2.56,0l-2.481,1.433a.78.78,0,0,0,.008,1.478l2.5,1.441a2.831,2.831,0,0,0,2.56,0l2.481-1.433A.78.78,0,0,0,511.479,262.6Zm-93.624-41.365,8.061,4.654a2.828,2.828,0,0,0,2.56,0l2.482-1.432a.781.781,0,0,0-.009-1.478l-8.061-4.654a2.828,2.828,0,0,0-2.56,0l-2.482,1.433A.78.78,0,0,0,417.855,221.233Zm11.994,6.924,2.5,1.442a2.83,2.83,0,0,0,2.56,0l2.481-1.433a.78.78,0,0,0-.008-1.478l-2.5-1.441a2.828,2.828,0,0,0-2.56,0l-2.481,1.433A.78.78,0,0,0,429.849,228.157Zm6.429,3.712,2.5,1.441a2.828,2.828,0,0,0,2.56,0l2.481-1.433a.78.78,0,0,0-.008-1.478l-2.5-1.441a2.828,2.828,0,0,0-2.56,0l-2.481,1.433A.78.78,0,0,0,436.279,231.869Zm6.429,3.712,2.5,1.441a2.828,2.828,0,0,0,2.56,0l2.481-1.433a.78.78,0,0,0-.008-1.478l-2.5-1.442a2.83,2.83,0,0,0-2.56,0L442.7,234.1A.78.78,0,0,0,442.708,235.581Zm11.486,5.158,2.482-1.433a.78.78,0,0,0-.008-1.478l-2.5-1.442a2.832,2.832,0,0,0-2.561,0l-2.481,1.432a.781.781,0,0,0,.008,1.479l2.5,1.441A2.828,2.828,0,0,0,454.194,240.739Zm6.43,3.712,2.481-1.433a.78.78,0,0,0-.008-1.478l-2.5-1.442a2.83,2.83,0,0,0-2.56,0l-2.481,1.433a.781.781,0,0,0,.008,1.479l2.5,1.441A2.828,2.828,0,0,0,460.623,244.451Zm6.429,3.712,2.481-1.433a.78.78,0,0,0-.008-1.479l-2.5-1.441a2.83,2.83,0,0,0-2.56,0l-2.481,1.433a.78.78,0,0,0,.008,1.479l2.5,1.441A2.831,2.831,0,0,0,467.053,248.163Zm6.429,3.712,2.481-1.433a.781.781,0,0,0-.008-1.478l-2.5-1.441a2.831,2.831,0,0,0-2.56,0l-2.481,1.433a.78.78,0,0,0,.008,1.479l2.5,1.441A2.83,2.83,0,0,0,473.482,251.875Zm6.43,3.712,2.481-1.433a.781.781,0,0,0-.008-1.478l-2.5-1.441a2.828,2.828,0,0,0-2.56,0l-2.482,1.433a.78.78,0,0,0,.009,1.478l2.5,1.442A2.832,2.832,0,0,0,479.911,255.587Zm6.429,3.712,2.482-1.433a.781.781,0,0,0-.009-1.478l-2.5-1.441a2.828,2.828,0,0,0-2.56,0l-2.481,1.433a.78.78,0,0,0,.008,1.478l2.5,1.442A2.833,2.833,0,0,0,486.34,259.3Zm1.373,2.265,2.5,1.442a2.831,2.831,0,0,0,2.56,0l2.481-1.432a.78.78,0,0,0-.008-1.478l-2.5-1.441a2.828,2.828,0,0,0-2.56,0l-2.481,1.433A.78.78,0,0,0,487.713,261.565Zm17.812,4.472-6.349-3.665a2.828,2.828,0,0,0-2.56,0l-2.481,1.433a.78.78,0,0,0,.008,1.478l6.349,3.665a2.828,2.828,0,0,0,2.56,0l2.481-1.433A.78.78,0,0,0,505.524,266.036Zm-93.6-41.187,11.437,6.6a3.2,3.2,0,0,0,2.892.006l2.151-1.242a.881.881,0,0,0-.009-1.669l-11.438-6.6a3.2,3.2,0,0,0-2.892,0l-2.151,1.241A.881.881,0,0,0,411.925,224.849Zm15.7,9.066,2.164,1.249a3.2,3.2,0,0,0,2.892.006l2.151-1.242a.881.881,0,0,0-.009-1.67l-2.164-1.249a3.193,3.193,0,0,0-2.891,0l-2.151,1.241A.881.881,0,0,0,427.628,233.915Zm6.43,3.712,2.164,1.249a3.2,3.2,0,0,0,2.892,0l2.151-1.241a.882.882,0,0,0-.01-1.67l-2.164-1.249a3.2,3.2,0,0,0-2.892-.006l-2.15,1.242A.881.881,0,0,0,434.058,237.627Zm6.429,3.712,2.164,1.249a3.2,3.2,0,0,0,2.892,0l2.15-1.241a.881.881,0,0,0-.009-1.67l-2.164-1.249a3.2,3.2,0,0,0-2.892-.006l-2.151,1.242C439.681,240.129,439.686,240.876,440.487,241.339Zm6.43,3.711,2.164,1.249a3.193,3.193,0,0,0,2.891.006l2.151-1.241a.881.881,0,0,0-.009-1.67l-2.164-1.249a3.2,3.2,0,0,0-2.892-.006l-2.151,1.242A.881.881,0,0,0,446.917,245.051Zm6.429,3.712,2.164,1.249a3.2,3.2,0,0,0,2.892.006l2.151-1.241a.881.881,0,0,0-.009-1.67l-2.163-1.249a3.2,3.2,0,0,0-2.892-.006l-2.151,1.241A.881.881,0,0,0,453.345,248.763Zm6.429,3.712,2.164,1.249a3.2,3.2,0,0,0,2.892.006l2.151-1.241a.881.881,0,0,0-.009-1.67l-2.164-1.249a3.2,3.2,0,0,0-2.891-.006l-2.151,1.241A.881.881,0,0,0,459.775,252.475Zm6.429,3.712,2.164,1.249a3.2,3.2,0,0,0,2.892.006l2.15-1.241a.881.881,0,0,0-.009-1.67l-2.164-1.25a3.2,3.2,0,0,0-2.892,0l-2.151,1.241A.882.882,0,0,0,466.2,256.187Zm6.43,3.712,2.164,1.249a3.2,3.2,0,0,0,2.891.006l2.151-1.242a.881.881,0,0,0-.009-1.669l-2.164-1.25a3.2,3.2,0,0,0-2.892,0l-2.151,1.241A.881.881,0,0,0,472.634,259.9Zm6.429,3.712,2.164,1.249a3.2,3.2,0,0,0,2.892.006l2.151-1.242a.881.881,0,0,0-.009-1.669L484.1,260.7a3.2,3.2,0,0,0-2.892,0l-2.151,1.241A.881.881,0,0,0,479.062,263.611Zm6.43,3.712,2.164,1.249a3.2,3.2,0,0,0,2.892,0l2.151-1.241a.881.881,0,0,0-.009-1.67l-2.164-1.249a3.193,3.193,0,0,0-2.891,0l-2.151,1.241A.881.881,0,0,0,485.492,267.323Zm13.77,2.137-2.164-1.249a3.2,3.2,0,0,0-2.892,0l-2.151,1.241a.881.881,0,0,0,.009,1.67l2.163,1.249a3.2,3.2,0,0,0,2.892.006l2.151-1.242A.881.881,0,0,0,499.262,269.46Zm-83.241-41.182-5.017-2.9a3.2,3.2,0,0,0-2.892-.006l-2.15,1.241a.881.881,0,0,0,.009,1.67l5.017,2.9a3.2,3.2,0,0,0,2.892.006l2.151-1.242A.881.881,0,0,0,416.021,228.278Zm6.429,3.711-2.164-1.249a3.2,3.2,0,0,0-2.892,0l-2.151,1.241a.882.882,0,0,0,.009,1.67l2.164,1.249a3.2,3.2,0,0,0,2.892.006l2.15-1.242A.881.881,0,0,0,422.45,231.989Zm6.429,3.712-2.164-1.249a3.2,3.2,0,0,0-2.892,0l-2.151,1.241a.881.881,0,0,0,.01,1.67l2.164,1.249a3.193,3.193,0,0,0,2.891,0l2.151-1.241A.881.881,0,0,0,428.88,235.7Zm45,25.984-40.739-23.521a3.2,3.2,0,0,0-2.892-.006L428.1,239.4a.881.881,0,0,0,.009,1.67l40.74,23.521a3.2,3.2,0,0,0,2.892.006l2.151-1.242A.881.881,0,0,0,473.884,261.686Zm6.429,3.712-2.164-1.25a3.2,3.2,0,0,0-2.892,0l-2.15,1.241a.881.881,0,0,0,.009,1.67l2.164,1.249a3.2,3.2,0,0,0,2.892.006l2.151-1.242A.881.881,0,0,0,480.314,265.4Zm6.429,3.711-2.164-1.249a3.2,3.2,0,0,0-2.892,0l-2.151,1.241a.881.881,0,0,0,.009,1.67l2.164,1.249a3.2,3.2,0,0,0,2.891.006l2.151-1.242A.881.881,0,0,0,486.743,269.109Zm6.563,3.79-2.164-1.249a3.2,3.2,0,0,0-2.892-.006l-2.151,1.241a.881.881,0,0,0,.009,1.67l2.164,1.249a3.2,3.2,0,0,0,2.891.006l2.151-1.241A.881.881,0,0,0,493.306,272.9Z" transform="translate(-374.32 -121.744)" fill="#a8cff0"/>
          <g id="Grupo_82230-2" data-name="Grupo 82230" transform="translate(62.974)">
            <path id="Trazado_119063" data-name="Trazado 119063" d="M536.888,232.384l-85.169-49.2c-3.3-1.9-5.971-7.011-5.971-11.407V104.961c0-4.4,2.673-6.417,5.971-4.513l85.169,49.2c3.3,1.9,5.97,7.011,5.97,11.407v66.814C542.858,232.267,540.185,234.287,536.888,232.384Z" transform="translate(-445.748 -98.832)" fill="#a8cff0"/>
            <path id="Trazado_119064" data-name="Trazado 119064" d="M538.544,229.969,454.284,181.3a10.152,10.152,0,0,1-4.295-8.5V105.656a1.059,1.059,0,0,1,1.594-.912l.187.109L536.1,153.572c3.159,1.821,4.295,5.056,4.295,8.5v66.981a1.142,1.142,0,0,1-1.708.991Z" transform="translate(-446.636 -99.851)" fill="#03336e"/>
            <path id="Trazado_119065" data-name="Trazado 119065" d="M536.1,153.571,451.77,104.853l-.187-.109a1.059,1.059,0,0,0-1.594.912v67.138a10.152,10.152,0,0,0,4.295,8.5l84.261,48.671.14.08a1.142,1.142,0,0,0,1.708-.991V162.076C540.393,158.628,539.257,155.392,536.1,153.571Zm3.624,75.486a.475.475,0,0,1-.474.473.458.458,0,0,1-.232-.064l-84.4-48.748a9.459,9.459,0,0,1-3.96-7.924V105.656a.389.389,0,0,1,.39-.387.384.384,0,0,1,.194.055l84.518,48.829c3.273,1.886,3.96,5.35,3.96,7.924Z" transform="translate(-446.636 -99.851)" fill="#022652"/>
            <path id="Trazado_119066" data-name="Trazado 119066" d="M539.177,148.513l-85.169-49.2a4.035,4.035,0,0,0-3.494-.513c-.125.048-1.789.933-1.907,1l-.006,0a3.907,3.907,0,0,1,3.714.411l85.169,49.2c3.3,1.9,5.97,7.011,5.97,11.407v66.814c0,2.744-1.041,4.561-2.626,5.078a.994.994,0,0,0,.523-.178c.075-.043,1.882-1.063,1.954-1.113,1.134-.795,1.84-2.426,1.84-4.686V159.92C545.148,155.523,542.474,150.416,539.177,148.513Z" transform="translate(-446.346 -98.594)" fill="#3f92d1"/>
            <path id="Trazado_119067" data-name="Trazado 119067" d="M539.177,148.513l-85.169-49.2a4.035,4.035,0,0,0-3.494-.513c-.125.048-1.789.933-1.907,1l-.006,0a3.907,3.907,0,0,1,3.714.411l85.169,49.2Z" transform="translate(-446.346 -98.594)" fill="#4f9fdb"/>
            <path id="Trazado_119068" data-name="Trazado 119068" d="M537.879,149.469l-85.169-49.2a3.96,3.96,0,0,0-3.6-.46,4.41,4.41,0,0,1,2.88.674l85.169,49.2c3.3,1.9,5.97,7.011,5.97,11.408v66.813c0,2.594-.934,4.351-2.374,4.973,1.842-.292,3.091-2.185,3.091-5.187V160.878C543.849,156.481,541.176,151.373,537.879,149.469Z" transform="translate(-446.453 -98.796)" fill="#fff" style="mix-blend-mode: screen;isolation: isolate"/>
          </g>
        </g>
      </g>
      <path id="Trazado_119069" data-name="Trazado 119069" d="M507.136,156.307l-71.2-40.457c-.182,9.477-.017,39.175-.07,48.88-.086,15.712-2.437,28.088-20.576,42.286-5.771,4.518-31.237,18.39-51.9,29.248-8.383,4.405-9.02,6.264-13.259,9.855-4.107,3.48-10.409,6.714-12.252,7.789l70.726,40.9c1.322-.784,8.2-4.235,12.721-8.062,4.239-3.591,4.876-7.42,13.259-11.826,20.663-10.859,56.066-32.6,62.35-36.372,8.063-4.837,10.126-7.883,10.126-20.6C507.063,208.182,506.949,165.61,507.136,156.307Z" transform="translate(0 -3.613)" fill="#001a46" opacity="0.1"/>
      <path id="Trazado_119070" data-name="Trazado 119070" d="M507.409,156.669l-71.2-40.457c-.182,4.534-.017,42.128-.07,51.832-.086,15.712-2.437,20.191-20.576,34.39-5.771,4.518-31.237,18.39-51.9,29.248-8.383,4.405-9.736,10.027-13.975,13.617-4.108,3.48-8.663,4.432-10.506,5.505l70.727,40.9c1.322-.784,6.456-1.953,10.975-5.78,4.239-3.59,5.592-9.212,13.975-13.616,20.663-10.859,46.128-24.731,51.9-29.249,18.14-14.2,20.49-18.677,20.576-34.39C507.389,198.908,507.222,161.027,507.409,156.669Z" transform="translate(-0.273 -3.688)" fill="#fff"/>
      <g id="Grupo_82233" data-name="Grupo 82233" transform="translate(442.301 126.715)">
        <path id="Trazado_119071" data-name="Trazado 119071" d="M469.951,134.162l2.079,1.2a4.082,4.082,0,0,1,1.578,1.559,4.475,4.475,0,0,1,.527,2.2v1.016q0,1.251-.527,1.6t-1.578-.263l-.667-.385v4.2l-1.411-.814ZM472.03,140q.346.2.519.079t.173-.651v-1.222a1.794,1.794,0,0,0-.173-.852,1.331,1.331,0,0,0-.519-.521l-.667-.385v3.166Z" transform="translate(-469.951 -134.162)" fill="#084c94"/>
        <path id="Trazado_119072" data-name="Trazado 119072" d="M476.215,137.779l2.092,1.207a4.188,4.188,0,0,1,1.591,1.5,4.105,4.105,0,0,1,.5,2.079v.633q0,1.606-.924,1.5v.029a2.588,2.588,0,0,1,.725,1.14,5.236,5.236,0,0,1,.213,1.58v1.811c0,.294.008.537.025.728a2.881,2.881,0,0,0,.128.612l-1.437-.829a3.763,3.763,0,0,1-.1-.531c-.017-.157-.025-.427-.025-.81v-1.885a2.5,2.5,0,0,0-.2-1.1,1.679,1.679,0,0,0-.687-.676l-.487-.281V148.9l-1.412-.814Zm1.924,5.528q.425.245.636.117c.142-.085.212-.325.212-.717v-.8a2.061,2.061,0,0,0-.173-.91,1.334,1.334,0,0,0-.546-.565l-.641-.37v2.945Z" transform="translate(-471.262 -134.919)" fill="#084c94"/>
        <path id="Trazado_119073" data-name="Trazado 119073" d="M482.756,141.555l1.411.815v10.307l-1.411-.814Z" transform="translate(-472.632 -135.71)" fill="#084c94"/>
        <path id="Trazado_119074" data-name="Trazado 119074" d="M485.4,143.083l1.425.822.923,8.529.025.014.924-7.462,1.3.749-1.361,9.522-1.873-1.082Z" transform="translate(-473.186 -136.03)" fill="#084c94"/>
        <path id="Trazado_119075" data-name="Trazado 119075" d="M492.609,147.467l1.912,1.1,1.463,11.151-1.411-.814-.257-2.195v.029l-1.6-.926-.257,1.869-1.309-.756Zm1.539,7.781-.629-5.458-.026-.015-.616,4.739Z" transform="translate(-474.388 -136.948)" fill="#084c94"/>
        <path id="Trazado_119076" data-name="Trazado 119076" d="M498.511,160.625a4.444,4.444,0,0,1-.532-2.177v-5.537q0-1.207.532-1.562t1.547.23a4,4,0,0,1,1.546,1.555,4.449,4.449,0,0,1,.532,2.177V156.4l-1.334-.77v-1.193a1.449,1.449,0,0,0-.707-1.365q-.7-.408-.705.55v5.757a1.437,1.437,0,0,0,.705,1.35q.707.407.707-.535V158.62l1.334.771v1.458q0,1.207-.532,1.562t-1.546-.23A4,4,0,0,1,498.511,160.625Z" transform="translate(-475.819 -137.732)" fill="#084c94"/>
        <path id="Trazado_119077" data-name="Trazado 119077" d="M505.35,160.52l-1.707-6.9,1.5.867.961,4.34.026.014.963-3.228,1.373.793-1.706,4.934v4.388l-1.412-.814Z" transform="translate(-477.005 -138.235)" fill="#084c94"/>
        <path id="Trazado_119078" data-name="Trazado 119078" d="M513.154,159.1l2.079,1.2a4.076,4.076,0,0,1,1.578,1.559,4.479,4.479,0,0,1,.527,2.2v1.016q0,1.251-.527,1.6t-1.578-.263l-.667-.385v4.2l-1.411-.815Zm2.079,5.839c.231.133.4.16.519.079s.174-.3.174-.651V163.15a1.791,1.791,0,0,0-.174-.851,1.328,1.328,0,0,0-.519-.522l-.667-.384v3.166Z" transform="translate(-478.996 -139.384)" fill="#084c94"/>
        <path id="Trazado_119079" data-name="Trazado 119079" d="M519.841,172.933a4.534,4.534,0,0,1-.552-2.234v-5.418q0-1.237.552-1.6t1.591.241a4.143,4.143,0,0,1,1.592,1.6,4.53,4.53,0,0,1,.552,2.233v5.418q0,1.237-.552,1.6t-1.592-.241A4.145,4.145,0,0,1,519.841,172.933Zm2.322-.47v-5.625a1.524,1.524,0,0,0-.731-1.439q-.731-.422-.731.594v5.625a1.525,1.525,0,0,0,.731,1.438Q522.163,173.478,522.163,172.462Z" transform="translate(-480.281 -140.315)" fill="#084c94"/>
        <path id="Trazado_119080" data-name="Trazado 119080" d="M525.91,166.47l1.412.815v8.835l2.322,1.341v1.472l-3.734-2.156Z" transform="translate(-481.667 -140.926)" fill="#084c94"/>
        <path id="Trazado_119081" data-name="Trazado 119081" d="M531.493,169.694l1.412.815v10.307L531.493,180Z" transform="translate(-482.836 -141.601)" fill="#084c94"/>
        <path id="Trazado_119082" data-name="Trazado 119082" d="M535.028,181.709a4.449,4.449,0,0,1-.532-2.177v-5.537q0-1.207.532-1.562t1.546.23a4,4,0,0,1,1.547,1.555,4.449,4.449,0,0,1,.532,2.177v1.09l-1.334-.77v-1.192a1.448,1.448,0,0,0-.706-1.365q-.706-.408-.706.549v5.757a1.434,1.434,0,0,0,.706,1.349q.706.408.706-.534V179.7l1.334.771v1.458q0,1.207-.532,1.562t-1.547-.23A4,4,0,0,1,535.028,181.709Z" transform="translate(-483.464 -142.146)" fill="#084c94"/>
        <path id="Trazado_119083" data-name="Trazado 119083" d="M541.867,181.6l-1.707-6.9,1.5.867.962,4.34.026.015.962-3.229,1.373.793-1.707,4.934v4.388l-1.411-.814Z" transform="translate(-484.65 -142.649)" fill="#084c94"/>
      </g>
      <g id="Grupo_82235" data-name="Grupo 82235" transform="translate(355.237 143.893)">
        <path id="Trazado_119084" data-name="Trazado 119084" d="M403.811,265.02l-2.2,1.18,50.1,29.007,2.235-1.187Z" transform="translate(-368.58 -178.736)" fill="#a8cff0"/>
        <path id="Trazado_119085" data-name="Trazado 119085" d="M409.694,261.847l-2.192,1.185,50.145,29.008,2.229-1.192Z" transform="translate(-369.813 -178.072)" fill="#a8cff0"/>
        <path id="Trazado_119086" data-name="Trazado 119086" d="M421.386,255.453q-1.084.6-2.173,1.2l50.251,29.012,2.214-1.2Z" transform="translate(-372.265 -176.733)" fill="#a8cff0"/>
        <path id="Trazado_119087" data-name="Trazado 119087" d="M415.553,258.659l-2.183,1.191,50.2,29.008q1.124-.6,2.222-1.2Z" transform="translate(-371.042 -177.404)" fill="#a8cff0"/>
        <path id="Trazado_119088" data-name="Trazado 119088" d="M427.186,252.226q-1.07.6-2.16,1.207l50.309,29.015q1.122-.614,2.2-1.211Z" transform="translate(-373.482 -176.058)" fill="#a8cff0"/>
        <path id="Trazado_119089" data-name="Trazado 119089" d="M380.967,264.157c-.775.41-2.487,1.206-3.179,1.571l39,22.429c.651-.429,2.313-1.254,3.055-1.669Z" transform="translate(-363.592 -178.555)" fill="#0fbab8"/>
        <path id="Trazado_119090" data-name="Trazado 119090" d="M374.074,267.8l-.987.519c-.42.221-.811.446-1.188.673l60.473,34.869q.8-.738,1.731-1.472Z" transform="translate(-362.359 -179.318)" fill="#a8cff0"/>
        <path id="Trazado_119091" data-name="Trazado 119091" d="M422,241.642c-.7.4-2.461,1.334-3.187,1.745l40.749,23.354c.746-.413,2.525-1.347,3.238-1.746Z" transform="translate(-372.181 -173.842)" fill="#0fbab8"/>
        <path id="Trazado_119092" data-name="Trazado 119092" d="M361.2,279.915c-.431.557-.882,1.111-1.365,1.659l60.832,35.152c.326-.237.648-.487.965-.754a9.477,9.477,0,0,0,.757-.723Z" transform="translate(-359.833 -181.855)" fill="#a8cff0"/>
        <path id="Trazado_119093" data-name="Trazado 119093" d="M468.817,160.131l36.865,20.629c0-1.048,0-2.872,0-3.88l-36.866-20.991v1.154C468.814,158.082,468.815,159.114,468.817,160.131Z" transform="translate(-382.649 -155.888)" fill="#0fbab8"/>
        <path id="Trazado_119094" data-name="Trazado 119094" d="M468.824,167.125l60.118,33.844q0-.74,0-1.486c0-.335,0-.655,0-.986l-60.118-33.8Q468.823,165.938,468.824,167.125Z" transform="translate(-382.651 -157.733)" fill="#a8cff0"/>
        <path id="Trazado_119095" data-name="Trazado 119095" d="M368.726,271.192a19.015,19.015,0,0,0-1.659,1.488L428.2,307.954c.441-.54.917-1.09,1.43-1.645Z" transform="translate(-361.348 -180.028)" fill="#a8cff0"/>
        <path id="Trazado_119096" data-name="Trazado 119096" d="M364.682,275.36c-.451.557-.879,1.121-1.305,1.693l61.285,35.39c.238-.313.479-.636.73-.974.183-.246.372-.5.562-.752Z" transform="translate(-360.575 -180.901)" fill="#a8cff0"/>
        <path id="Trazado_119097" data-name="Trazado 119097" d="M463.345,207.429c-.347.6-.727,1.2-1.131,1.8l61.6,34.975a19.824,19.824,0,0,0,1.155-1.826Z" transform="translate(-381.268 -166.679)" fill="#a8cff0"/>
        <path id="Trazado_119098" data-name="Trazado 119098" d="M465.851,202.267c-.247.67-.522,1.327-.822,1.975l61.545,34.906a18.02,18.02,0,0,0,.674-2.1Z" transform="translate(-381.857 -165.598)" fill="#a8cff0"/>
        <path id="Trazado_119099" data-name="Trazado 119099" d="M467.5,194.936c-.146.738-.311,2.788-.5,3.487l49.768,28.067c.107-.746.189-2.852.249-3.672Z" transform="translate(-382.269 -164.063)" fill="#0fbab8"/>
        <path id="Trazado_119100" data-name="Trazado 119100" d="M468.828,171.21c0,.845,0,1.656,0,2.428l60.122,33.891q0-1.216,0-2.474Z" transform="translate(-382.652 -159.096)" fill="#a8cff0"/>
        <path id="Trazado_119101" data-name="Trazado 119101" d="M468.826,177.724c0,.9,0,1.721-.006,2.427l60.134,33.941q0-1.191,0-2.475Z" transform="translate(-382.651 -160.46)" fill="#a8cff0"/>
        <path id="Trazado_119102" data-name="Trazado 119102" d="M468.761,184.218c-.017.822-.044,1.616-.08,2.389l60.24,34.044c0-.75,0-1.577,0-2.475Z" transform="translate(-382.622 -161.819)" fill="#a8cff0"/>
        <path id="Trazado_119103" data-name="Trazado 119103" d="M442.593,228.431q-.873.7-1.794,1.422l60.559,34.566c.78-.495,1.451-.936,2.02-1.327Z" transform="translate(-376.784 -171.076)" fill="#a8cff0"/>
        <path id="Trazado_119104" data-name="Trazado 119104" d="M437.646,232.183c-.584.4-1.249.845-1.978,1.316l60.208,34.4q1.125-.669,2.115-1.271Z" transform="translate(-375.71 -171.861)" fill="#a8cff0"/>
        <path id="Trazado_119105" data-name="Trazado 119105" d="M432.242,235.658q-.987.608-2.072,1.261l60.044,34.337q1.12-.643,2.154-1.246Z" transform="translate(-374.559 -172.589)" fill="#a8cff0"/>
        <path id="Trazado_119106" data-name="Trazado 119106" d="M460.064,212.141c-.434.551-.887,1.1-1.376,1.661L520.1,248.713q.809-.837,1.491-1.634Z" transform="translate(-380.529 -167.665)" fill="#a8cff0"/>
        <path id="Trazado_119107" data-name="Trazado 119107" d="M452.677,219.535c-.538.489-1.882,1.842-2.464,2.349l43.481,24.736c.618-.507,1.995-1.853,2.559-2.33Z" transform="translate(-378.755 -169.213)" fill="#0fbab8"/>
        <path id="Trazado_119108" data-name="Trazado 119108" d="M447.324,224.577q-.846.709-1.75,1.447l60.874,34.711c.627-.494,1.236-.976,1.819-1.443Z" transform="translate(-377.784 -170.269)" fill="#a8cff0"/>
        <g id="Grupo_82234" data-name="Grupo 82234" transform="translate(30.258 74.167)">
          <path id="Trazado_119109" data-name="Trazado 119109" d="M424.214,251.587a3,3,0,0,1-2.711,0,.826.826,0,0,1-.009-1.565,3,3,0,0,1,2.711,0A.826.826,0,0,1,424.214,251.587Z" transform="translate(-402.884 -249.695)" fill="#0fbab8"/>
          <path id="Trazado_119110" data-name="Trazado 119110" d="M418.506,254.733a3,3,0,0,1-2.712,0,.826.826,0,0,1-.008-1.565,3,3,0,0,1,2.711,0A.826.826,0,0,1,418.506,254.733Z" transform="translate(-401.689 -250.354)" fill="#0fbab8"/>
          <ellipse id="Elipse_5279" data-name="Elipse 5279" cx="1.107" cy="1.917" rx="1.107" ry="1.917" transform="matrix(0.005, -1, 1, 0.005, 9.02, 7.178)" fill="#0fbab8"/>
          <path id="Trazado_119111" data-name="Trazado 119111" d="M407.089,261.025a3,3,0,0,1-2.711-.006.826.826,0,0,1-.009-1.565,3,3,0,0,1,2.711,0A.826.826,0,0,1,407.089,261.025Z" transform="translate(-399.299 -251.671)" fill="#0fbab8"/>
          <path id="Trazado_119112" data-name="Trazado 119112" d="M401.381,264.171a3,3,0,0,1-2.712-.006.826.826,0,0,1-.008-1.565,3,3,0,0,1,2.711.006A.826.826,0,0,1,401.381,264.171Z" transform="translate(-398.104 -252.33)" fill="#0fbab8"/>
        </g>
      </g>
      <g id="Grupo_82245" data-name="Grupo 82245" transform="translate(378.691 102.878)">
        <g id="Grupo_82236" data-name="Grupo 82236" transform="translate(38.188)">
          <path id="Trazado_119113" data-name="Trazado 119113" d="M437.8,206.007s27.394-.794,37.672-5.933,15.417-20.161,15.417-27.672,1.186-25.7,1.186-25.7a81.591,81.591,0,0,1-26.091-15.022c-7.608-6.456-21.743-27.672-21.743-27.672v67.6C444.239,185.843,437.8,206.007,437.8,206.007Z" transform="translate(-437.797 -104.012)" opacity="0.1" fill="url(#linear-gradient)" style="mix-blend-mode: multiply;isolation: isolate"/>
          <path id="Trazado_119114" data-name="Trazado 119114" d="M437.8,206.351s26.787-.949,36.845-6.033c10.264-5.232,15.239-20.019,15.239-27.388s1.164-25.844,1.164-25.844a73.445,73.445,0,0,1-25.6-14.284c-7.464-6.333-21.33-27.147-21.33-27.147v66.953C444.117,186.569,437.8,206.351,437.8,206.351Z" transform="translate(-437.797 -104.356)" opacity="0.143" fill="url(#linear-gradient-2)" style="mix-blend-mode: multiply;isolation: isolate"/>
          <path id="Trazado_119115" data-name="Trazado 119115" d="M437.8,206.7s26.2-1.072,36.016-6.134c10.268-5.292,15.061-19.877,15.061-27.1s1.141-25.991,1.141-25.991a66.18,66.18,0,0,1-25.1-13.547c-7.319-6.21-20.918-26.623-20.918-26.623V173.6C443.995,187.3,437.8,206.7,437.8,206.7Z" transform="translate(-437.797 -104.7)" opacity="0.186" fill="url(#linear-gradient-3)" style="mix-blend-mode: multiply;isolation: isolate"/>
          <path id="Trazado_119116" data-name="Trazado 119116" d="M437.8,207.039s25.595-1.214,35.187-6.234c10.262-5.37,14.883-19.735,14.883-26.818s1.118-26.139,1.118-26.139-12.3-2.37-24.606-12.809c-7.176-6.088-20.506-26.1-20.506-26.1V174.6C443.873,188.021,437.8,207.039,437.8,207.039Z" transform="translate(-437.797 -105.044)" opacity="0.229" fill="url(#linear-gradient-4)" style="mix-blend-mode: multiply;isolation: isolate"/>
          <path id="Trazado_119117" data-name="Trazado 119117" d="M437.8,207.383s24.993-1.358,34.36-6.335c10.255-5.45,14.7-19.593,14.7-26.534s1.1-26.287,1.1-26.287-12.056-1.841-24.112-12.071c-7.031-5.966-20.094-25.574-20.094-25.574V175.6C443.751,188.748,437.8,207.383,437.8,207.383Z" transform="translate(-437.797 -105.388)" opacity="0.271" fill="url(#linear-gradient-5)" style="mix-blend-mode: multiply;isolation: isolate"/>
          <path id="Trazado_119118" data-name="Trazado 119118" d="M437.8,207.727s24.391-1.5,33.531-6.435c10.249-5.531,14.526-19.45,14.526-26.249s1.073-26.435,1.073-26.435-11.808-1.313-23.617-11.333c-6.886-5.844-19.681-25.049-19.681-25.049v64.366C443.629,189.474,437.8,207.727,437.8,207.727Z" transform="translate(-437.797 -105.732)" opacity="0.314" fill="url(#linear-gradient-6)" style="mix-blend-mode: multiply;isolation: isolate"/>
          <path id="Trazado_119119" data-name="Trazado 119119" d="M437.8,208.071s23.788-1.65,32.7-6.535c10.242-5.613,14.347-19.308,14.347-25.965s1.052-26.583,1.052-26.583-11.561-.785-23.123-10.6c-6.743-5.72-19.269-24.524-19.269-24.524v63.719C443.506,190.2,437.8,208.071,437.8,208.071Z" transform="translate(-437.797 -106.076)" opacity="0.357" fill="url(#linear-gradient-7)" style="mix-blend-mode: multiply;isolation: isolate"/>
          <path id="Trazado_119120" data-name="Trazado 119120" d="M437.8,208.415s23.184-1.8,31.875-6.636c10.234-5.7,14.169-19.166,14.169-25.68s1.029-26.731,1.029-26.731-11.314-.258-22.628-9.857c-6.6-5.6-18.857-24-18.857-24v63.072C443.384,190.927,437.8,208.415,437.8,208.415Z" transform="translate(-437.797 -106.42)" opacity="0.4" fill="url(#linear-gradient-8)" style="mix-blend-mode: multiply;isolation: isolate"/>
          <path id="Trazado_119121" data-name="Trazado 119121" d="M437.8,208.759s22.58-1.95,31.046-6.736c10.226-5.781,13.991-19.024,13.991-25.4s1.006-26.878,1.006-26.878-11.067.27-22.134-9.12c-6.454-5.476-18.445-23.475-18.445-23.475v62.426C443.262,191.653,437.8,208.759,437.8,208.759Z" transform="translate(-437.797 -106.764)" opacity="0.443" fill="url(#linear-gradient-9)" style="mix-blend-mode: multiply;isolation: isolate"/>
          <path id="Trazado_119122" data-name="Trazado 119122" d="M437.8,209.1s21.974-2.1,30.218-6.837c10.216-5.868,13.812-18.881,13.812-25.111s.984-27.026.984-27.026-10.819.8-21.639-8.382c-6.309-5.353-18.032-22.951-18.032-22.951v61.779C443.14,192.379,437.8,209.1,437.8,209.1Z" transform="translate(-437.797 -107.107)" opacity="0.486" fill="url(#linear-gradient-10)" style="mix-blend-mode: multiply;isolation: isolate"/>
          <path id="Trazado_119123" data-name="Trazado 119123" d="M437.8,209.447s21.368-2.256,29.39-6.937c10.206-5.957,13.635-18.739,13.635-24.826s.961-27.173.961-27.173-10.572,1.326-21.144-7.645c-6.165-5.231-17.62-22.426-17.62-22.426v61.132C443.018,193.105,437.8,209.447,437.8,209.447Z" transform="translate(-437.797 -107.451)" opacity="0.529" fill="url(#linear-gradient-11)" style="mix-blend-mode: multiply;isolation: isolate"/>
          <path id="Trazado_119124" data-name="Trazado 119124" d="M437.8,209.791s20.761-2.411,28.561-7.037c10.2-6.047,13.457-18.6,13.457-24.541s.938-27.321.938-27.321-10.325,1.854-20.65-6.907c-6.021-5.108-17.207-21.9-17.207-21.9v60.485C442.9,193.832,437.8,209.791,437.8,209.791Z" transform="translate(-437.797 -107.795)" opacity="0.571" fill="url(#linear-gradient-12)" style="mix-blend-mode: multiply;isolation: isolate"/>
          <path id="Trazado_119125" data-name="Trazado 119125" d="M437.8,210.135S457.95,207.567,465.53,203c10.182-6.139,13.277-18.455,13.277-24.257s.916-27.469.916-27.469-10.077,2.381-20.154-6.169c-5.878-4.987-16.8-21.376-16.8-21.376v59.839C442.773,194.558,437.8,210.135,437.8,210.135Z" transform="translate(-437.797 -108.139)" opacity="0.614" fill="url(#linear-gradient-13)" style="mix-blend-mode: multiply;isolation: isolate"/>
          <path id="Trazado_119126" data-name="Trazado 119126" d="M437.8,210.479s19.544-2.726,26.9-7.238c10.168-6.233,13.1-18.313,13.1-23.972s.894-27.617.894-27.617-9.83,2.91-19.66-5.431c-5.733-4.864-16.384-20.851-16.384-20.851v59.192C442.652,195.284,437.8,210.479,437.8,210.479Z" transform="translate(-437.797 -108.483)" opacity="0.657" fill="url(#linear-gradient-14)" style="mix-blend-mode: multiply;isolation: isolate"/>
          <path id="Trazado_119127" data-name="Trazado 119127" d="M437.8,210.823s18.934-2.886,26.077-7.339c10.153-6.33,12.921-18.17,12.921-23.687s.871-27.765.871-27.765-9.583,3.438-19.165-4.693c-5.588-4.741-15.972-20.326-15.972-20.326v58.545C442.529,196.011,437.8,210.823,437.8,210.823Z" transform="translate(-437.797 -108.827)" opacity="0.7" fill="url(#linear-gradient-15)" style="mix-blend-mode: multiply;isolation: isolate"/>
          <path id="Trazado_119128" data-name="Trazado 119128" d="M437.8,211.167s18.323-3.047,25.248-7.439c10.137-6.429,12.743-18.028,12.743-23.4s.848-27.913.848-27.913-9.335,3.966-18.67-3.956c-5.444-4.619-15.559-19.8-15.559-19.8v57.9C442.407,196.737,437.8,211.167,437.8,211.167Z" transform="translate(-437.797 -109.171)" opacity="0.743" fill="url(#linear-gradient-16)" style="mix-blend-mode: multiply;isolation: isolate"/>
          <path id="Trazado_119129" data-name="Trazado 119129" d="M437.8,211.511s17.711-3.21,24.42-7.54c10.119-6.531,12.565-17.886,12.565-23.118s.826-28.061.826-28.061-9.088,4.494-18.176-3.217c-5.3-4.5-15.147-19.278-15.147-19.278v57.252C442.285,197.463,437.8,211.511,437.8,211.511Z" transform="translate(-437.797 -109.515)" opacity="0.786" fill="url(#linear-gradient-17)" style="mix-blend-mode: multiply;isolation: isolate"/>
          <path id="Trazado_119130" data-name="Trazado 119130" d="M437.8,211.854s17.1-3.374,23.592-7.64c10.1-6.634,12.386-17.743,12.386-22.834s.8-28.208.8-28.208a15.83,15.83,0,0,1-17.681-2.48c-5.156-4.375-14.734-18.753-14.734-18.753v56.6C442.163,198.189,437.8,211.854,437.8,211.854Z" transform="translate(-437.797 -109.859)" opacity="0.829" fill="url(#linear-gradient-18)" style="mix-blend-mode: multiply;isolation: isolate"/>
          <path id="Trazado_119131" data-name="Trazado 119131" d="M437.8,212.2s16.485-3.539,22.763-7.74a28.026,28.026,0,0,0,12.208-22.549c0-4.948.781-28.355.781-28.355a14.66,14.66,0,0,1-17.187-1.743c-5.011-4.252-14.322-18.228-14.322-18.228v55.958C442.041,198.916,437.8,212.2,437.8,212.2Z" transform="translate(-437.797 -110.203)" opacity="0.871" fill="url(#linear-gradient-19)" style="mix-blend-mode: multiply;isolation: isolate"/>
          <path id="Trazado_119132" data-name="Trazado 119132" d="M437.8,212.542s15.87-3.706,21.935-7.841a27.679,27.679,0,0,0,12.03-22.264c0-4.806.759-28.5.759-28.5s-8.346,6.077-16.692-1c-4.867-4.13-13.91-17.7-13.91-17.7v55.311C441.919,199.642,437.8,212.542,437.8,212.542Z" transform="translate(-437.797 -110.547)" opacity="0.914" fill="url(#linear-gradient-20)" style="mix-blend-mode: multiply;isolation: isolate"/>
          <path id="Trazado_119133" data-name="Trazado 119133" d="M437.8,212.886s15.253-3.873,21.107-7.941a27.342,27.342,0,0,0,11.851-21.98c0-4.663.737-28.651.737-28.651s-8.1,6.6-16.2-.266c-4.722-4.008-13.5-17.179-13.5-17.179v54.665C441.8,200.368,437.8,212.886,437.8,212.886Z" transform="translate(-437.797 -110.891)" opacity="0.957" fill="url(#linear-gradient-21)" style="mix-blend-mode: multiply;isolation: isolate"/>
          <path id="Trazado_119134" data-name="Trazado 119134" d="M437.8,213.23s14.636-4.043,20.278-8.042a27.01,27.01,0,0,0,11.673-21.7c0-4.521.714-28.8.714-28.8s-7.851,7.133-15.7.471c-4.579-3.885-13.085-16.654-13.085-16.654V192.53C441.674,201.095,437.8,213.23,437.8,213.23Z" transform="translate(-437.797 -111.235)" fill="url(#linear-gradient-22)" style="mix-blend-mode: multiply;isolation: isolate"/>
        </g>
        <path id="Trazado_119135" data-name="Trazado 119135" d="M458.516,155.448c-9.985-5.649-19.748-15.286-27.93-27.565l-.111-.063c-8.182,2.83-17.945,1.194-27.931-4.687l-.381-.225.538,18.657c1.9,28.921,11.759,41.508,27.635,68.4l.387.223c15.876-8.556,25.741-9.754,27.635-36.487l.539-18.035Z" transform="translate(-392.149 -107.968)" fill="#a8cff0"/>
        <path id="Trazado_119136" data-name="Trazado 119136" d="M464.176,150.02c-9.986-5.649-19.748-15.285-27.931-27.564l-.111-.064c-8.182,2.83-17.944,1.194-27.93-4.687l-.382-.225-5.525,4.355.275.161c9.985,5.881,19.748,7.517,27.93,4.687l.111.063c8.182,12.279,17.944,21.916,27.931,27.565l.381.216-.539,18.035c-1.237,17.449-5.87,24.017-13.352,28.856,9.348-5.521,17.595-13.535,18.985-33.147l.539-18.034Z" transform="translate(-392.177 -106.832)" fill="#d1ebff"/>
        <path id="Trazado_119137" data-name="Trazado 119137" d="M472.027,151.538l-.382-.217c-9.986-5.649-19.748-15.285-27.931-27.564l-.111-.064-5.632,4.292.111.063c8.182,12.279,17.944,21.916,27.931,27.565l.381.216Z" transform="translate(-399.646 -108.132)" fill="#d1ebff"/>
        <path id="Trazado_119138" data-name="Trazado 119138" d="M470.243,163.2l-.539,18.035c-1.237,17.449-5.87,24.017-13.352,28.856,9.348-5.521,17.595-13.535,18.985-33.147l.539-18.034Z" transform="translate(-403.494 -115.506)" fill="#72b5e8"/>
        <path id="Trazado_119139" data-name="Trazado 119139" d="M430.154,200.337c-12.324-20.443-18.523-30.727-20.018-53.165l-.341-11.778c7.913,3.578,15.5,4.719,22.333,3.358a99.519,99.519,0,0,0,22.332,22.43l-.341,11.385c-1.5,20.713-7.695,23.839-20.021,30.053q-.968.489-1.971,1Z" transform="translate(-393.747 -110.582)" fill="#084c94"/>
        <ellipse id="Elipse_5280" data-name="Elipse 5280" cx="17.079" cy="29.582" rx="17.079" ry="29.582" transform="translate(7.797 41.144) rotate(-30.311)" fill="url(#radial-gradient)" style="mix-blend-mode: multiply;isolation: isolate"/>
        <path id="Trazado_119140" data-name="Trazado 119140" d="M435.109,201.729c-.645.327-1.3.657-1.971,1l-1.974-3.279C418.839,179,412.64,168.719,411.145,146.281l-.3-10.432c-.349-.149-.7-.3-1.048-.455l.341,11.778c1.5,22.438,7.694,32.722,20.018,53.165l1.974,3.28q1-.51,1.971-1c5.029-2.535,9.037-4.557,12.123-7.468C443.286,197.6,439.608,199.461,435.109,201.729Z" transform="translate(-393.747 -110.582)" fill="#001a46"/>
        <path id="Trazado_119141" data-name="Trazado 119141" d="M458.971,155.058c-9.986-5.65-19.749-15.286-27.931-27.565l-.111-.064c-8.182,2.83-17.944,1.194-27.93-4.687l-.364.386c9.968,5.855,19.711,7.483,27.879,4.657l.111.064c8.182,12.279,17.945,21.916,27.93,27.565l.382.216-.539,18.035c-1.026,14.48-4.392,21.467-9.783,26.191,5.634-4.73,9.146-11.7,10.2-26.546l.539-18.035Z" transform="translate(-392.248 -107.933)" fill="#fff"/>
        <g id="Grupo_82237" data-name="Grupo 82237" transform="translate(0 27.886)">
          <path id="Trazado_119142" data-name="Trazado 119142" d="M389.892,158.818a.4.4,0,0,1-.4-.4q0-.815.037-1.6a.395.395,0,1,1,.789.036q-.034.766-.036,1.562A.4.4,0,0,1,389.892,158.818Zm.236-3.944a.35.35,0,0,1-.05,0,.394.394,0,0,1-.343-.44q.1-.814.244-1.586a.4.4,0,0,1,.777.145q-.139.75-.237,1.539A.4.4,0,0,1,390.128,154.874Zm.784-3.868a.387.387,0,0,1-.111-.016.4.4,0,0,1-.269-.49c.152-.52.323-1.035.506-1.528a.4.4,0,0,1,.742.277c-.178.474-.342.97-.488,1.472A.4.4,0,0,1,390.912,151.006Zm1.468-3.661a.4.4,0,0,1-.349-.581c.255-.478.533-.946.828-1.39a.4.4,0,0,1,.659.437c-.281.424-.546.869-.789,1.324A.4.4,0,0,1,392.38,147.345Zm2.276-3.215a.39.39,0,0,1-.27-.107.4.4,0,0,1-.019-.559,13.677,13.677,0,0,1,1.18-1.12.4.4,0,0,1,.508.606,12.784,12.784,0,0,0-1.111,1.055A.4.4,0,0,1,394.657,144.13Zm3.091-2.436a.4.4,0,0,1-.194-.74,13.325,13.325,0,0,1,1.467-.708.4.4,0,0,1,.3.732,12.229,12.229,0,0,0-1.378.666A.39.39,0,0,1,397.748,141.694Zm3.684-1.38a.4.4,0,0,1-.081-.782,15,15,0,0,1,1.6-.249.409.409,0,0,1,.432.353.394.394,0,0,1-.353.433,14.272,14.272,0,0,0-1.519.236A.415.415,0,0,1,401.432,140.315Z" transform="translate(-389.497 -139.282)" fill="#a8cff0"/>
        </g>
        <g id="Grupo_82238" data-name="Grupo 82238" transform="translate(4.308 65.783)">
          <path id="Trazado_119143" data-name="Trazado 119143" d="M406.831,205.879a.4.4,0,0,1-.291-.128q-.536-.585-1.06-1.186a.4.4,0,1,1,.6-.52q.518.6,1.048,1.171a.4.4,0,0,1-.025.559A.392.392,0,0,1,406.831,205.879Zm-2.573-3a.394.394,0,0,1-.308-.148q-.5-.619-.98-1.253A.4.4,0,0,1,403.6,201q.478.627.968,1.239a.4.4,0,0,1-.308.643Zm-2.374-3.16a.4.4,0,0,1-.324-.168q-.455-.65-.9-1.312a.4.4,0,0,1,.658-.44q.436.655.889,1.3a.4.4,0,0,1-.1.55A.39.39,0,0,1,401.885,199.721Zm-2.173-3.3a.4.4,0,0,1-.337-.187q-.417-.677-.818-1.365a.4.4,0,0,1,.684-.4q.394.678.806,1.347a.395.395,0,0,1-.336.6Zm-1.971-3.427a.4.4,0,0,1-.349-.21q-.374-.7-.733-1.411a.4.4,0,1,1,.706-.356q.353.7.725,1.395a.4.4,0,0,1-.349.582Zm-1.758-3.542a.394.394,0,0,1-.359-.23q-.333-.725-.646-1.455a.4.4,0,0,1,.727-.312q.308.721.636,1.437a.395.395,0,0,1-.359.56Z" transform="translate(-394.946 -187.215)" fill="#a8cff0"/>
        </g>
        <g id="Grupo_82239" data-name="Grupo 82239" transform="translate(6.697 36.371)">
          <path id="Trazado_119144" data-name="Trazado 119144" d="M418.041,199.108c-11.069-6.392-20.074-21.925-20.074-34.628,0-6.213,2.121-10.859,5.975-13.084,3.886-2.244,9.034-1.743,14.495,1.409a32.424,32.424,0,0,1,5.371,3.933l-.527.589a31.637,31.637,0,0,0-5.24-3.837c-5.2-3.005-10.071-3.506-13.7-1.409-3.6,2.078-5.579,6.482-5.579,12.4,0,12.451,8.828,27.677,19.679,33.943Z" transform="translate(-397.967 -150.014)" fill="#f76195"/>
        </g>
        <path id="Trazado_119145" data-name="Trazado 119145" d="M424.8,212.069c-.031.651-.478.935-1,.634a2.044,2.044,0,0,1-.886-1.721c.032-.65.478-.934,1-.633A2.041,2.041,0,0,1,424.8,212.069Z" transform="translate(-396.494 -126.25)" fill="#eb4680"/>
        <g id="Grupo_82240" data-name="Grupo 82240" transform="translate(29.969 41.01)">
          <path id="Trazado_119146" data-name="Trazado 119146" d="M430.759,159.09l-3.057-.765a.4.4,0,1,1,.191-.767l1.6.4-.572-1.545a.4.4,0,0,1,.742-.275Z" transform="translate(-427.402 -155.882)" fill="#f76195"/>
        </g>
        <g id="Grupo_82244" data-name="Grupo 82244" transform="translate(11.605 41.787)">
          <g id="Grupo_82241" data-name="Grupo 82241" transform="translate(0.147)">
            <path id="Trazado_119147" data-name="Trazado 119147" d="M408.8,169.736c.217-7.922,5.975-11.071,13.039-6.992a26.818,26.818,0,0,1,9.3,9.847l2.606-.655c-2.969-5.385-7.205-10.134-11.9-12.848-8.89-5.132-16.132-1.075-16.241,9.035l2.085,1.894Z" transform="translate(-404.619 -156.864)" fill="#f5b500"/>
            <path id="Trazado_119148" data-name="Trazado 119148" d="M428.124,198.029a11.213,11.213,0,0,1-6.547-1.74c-6.691-3.863-12.216-12.86-12.966-20.745l-3.189-1.607c.006.058-1.066.275-1.06.333.923,9.814,8.884,20.865,17.215,25.674,3.025,1.747,5.073,2.665,7.5,2.408.1-.011.989-.263,1.089-.278Z" transform="translate(-404.361 -160.438)" fill="#f5b500"/>
            <path id="Trazado_119149" data-name="Trazado 119149" d="M438.821,179.611a24.951,24.951,0,0,1,2.528,10.284c0,4.734-1.929,7.843-4.926,8.861l2.019,4c3.711-1.277,6.093-5.146,6.093-11.019a31,31,0,0,0-3.123-12.774Z" transform="translate(-411.073 -161.49)" fill="#f5b500"/>
          </g>
          <path id="Trazado_119150" data-name="Trazado 119150" d="M428.822,184.177a11.126,11.126,0,0,1-2.29-2.742c-.378-.634-.365-1.322,0-1.536a2.925,2.925,0,0,0,1.169-1.3c.4.111.9-.037.9-.587a2.177,2.177,0,0,0-.58-1.482,7.284,7.284,0,0,0-3.683-6.468,3.434,3.434,0,0,0-2.238-.631c-.126.024-1.222.312-1.329.366-.75.372-.06,1.177-.115,2.48-.332-.074-.58.251-.58.813a2.656,2.656,0,0,0,.9,1.626,13.081,13.081,0,0,0,1.169,2.653c.368.64.382,1.343,0,1.54a3.016,3.016,0,0,1-2.29.1,1.722,1.722,0,0,0-.957-.039c-.081.023-1.065.278-1.139.315-.514.255.073.63.073,1.5v2.478a1.671,1.671,0,0,0,.757,1.307l10.618,7.028c.184.107,1.227-.264,1.358-.314a.5.5,0,0,0,.274-.511V188.29A5.9,5.9,0,0,0,428.822,184.177Z" transform="translate(-406.976 -159.488)" fill="#f5b500"/>
          <g id="Grupo_82242" data-name="Grupo 82242" transform="translate(0.408 0.204)">
            <path id="Trazado_119151" data-name="Trazado 119151" d="M407.892,169.994c.217-7.922,5.975-11.071,13.039-6.993a26.827,26.827,0,0,1,9.3,9.848l2.606-.655c-2.969-5.385-7.205-10.134-11.9-12.848-8.89-5.132-16.132-1.075-16.24,9.035Z" transform="translate(-404.691 -157.122)" fill="#fff"/>
            <path id="Trazado_119152" data-name="Trazado 119152" d="M427.5,198.287a11.214,11.214,0,0,1-6.547-1.74c-6.691-3.863-12.216-12.86-12.966-20.745L404.8,174.2c.857,9.855,7.775,21.169,16.155,26.007a13.646,13.646,0,0,0,8.59,2.13Z" transform="translate(-404.714 -160.696)" fill="#fff"/>
            <path id="Trazado_119153" data-name="Trazado 119153" d="M437.918,179.869a24.951,24.951,0,0,1,2.528,10.284c0,4.735-1.929,7.843-4.926,8.861l2.018,4c3.711-1.277,6.093-5.146,6.093-11.019a31.008,31.008,0,0,0-3.123-12.774Z" transform="translate(-411.145 -161.748)" fill="#fff"/>
          </g>
          <path id="Trazado_119154" data-name="Trazado 119154" d="M427.994,184.435a11.125,11.125,0,0,1-2.29-2.742c-.378-.634-.365-1.322,0-1.536a2.925,2.925,0,0,0,1.169-1.3c.4.111.9-.037.9-.587a2.175,2.175,0,0,0-.58-1.482,7.285,7.285,0,0,0-3.683-6.468c-2.764-1.6-3.585-.074-3.683,2.215-.332-.074-.58.251-.58.813a2.656,2.656,0,0,0,.9,1.626,13.06,13.06,0,0,0,1.169,2.653c.368.64.382,1.343,0,1.54a3.016,3.016,0,0,1-2.29.1c-1.161-.351-2.022.349-2.022,1.778v2.478a1.671,1.671,0,0,0,.757,1.307l11.493,6.635c.418.242.757.048.757-.432v-2.478A5.9,5.9,0,0,0,427.994,184.435Z" transform="translate(-406.862 -159.542)" fill="#fff"/>
          <g id="Grupo_82243" data-name="Grupo 82243" transform="translate(0 0.306)">
            <path id="Trazado_119155" data-name="Trazado 119155" d="M407.376,170.123c.217-7.922,5.975-11.071,13.039-6.993a26.827,26.827,0,0,1,9.3,9.848l2.606-.655c-2.969-5.385-7.205-10.134-11.9-12.848-8.89-5.132-16.132-1.075-16.241,9.035Z" transform="translate(-404.175 -157.251)" fill="#ffd70f"/>
            <path id="Trazado_119156" data-name="Trazado 119156" d="M426.985,198.416a11.214,11.214,0,0,1-6.547-1.74c-6.691-3.863-12.216-12.86-12.966-20.745l-3.189-1.607c.857,9.855,7.775,21.169,16.155,26.007a13.646,13.646,0,0,0,8.59,2.13Z" transform="translate(-404.198 -160.825)" fill="#ffd70f"/>
            <path id="Trazado_119157" data-name="Trazado 119157" d="M437.4,180a24.951,24.951,0,0,1,2.528,10.284c0,4.735-1.929,7.843-4.926,8.861l2.019,4c3.711-1.277,6.093-5.146,6.093-11.019a31.008,31.008,0,0,0-3.123-12.774Z" transform="translate(-410.629 -161.877)" fill="#ffd70f"/>
          </g>
          <path id="Trazado_119158" data-name="Trazado 119158" d="M427.478,184.564a11.126,11.126,0,0,1-2.291-2.742c-.378-.634-.365-1.322,0-1.536a2.925,2.925,0,0,0,1.169-1.3c.4.111.9-.037.9-.587a2.175,2.175,0,0,0-.579-1.482A7.285,7.285,0,0,0,423,170.444c-2.764-1.6-3.585-.074-3.683,2.215-.332-.074-.58.251-.58.813a2.656,2.656,0,0,0,.9,1.626,13.062,13.062,0,0,0,1.169,2.653c.368.64.382,1.343,0,1.54a3.016,3.016,0,0,1-2.29.1c-1.161-.351-2.022.349-2.022,1.778v2.478a1.67,1.67,0,0,0,.757,1.307l11.493,6.635c.418.242.757.048.757-.432v-2.478A5.9,5.9,0,0,0,427.478,184.564Z" transform="translate(-406.754 -159.569)" fill="#ffd70f"/>
        </g>
      </g>
      <g id="Grupo_82248" data-name="Grupo 82248" transform="translate(488.908 174.95)">
        <path id="Trazado_119159" data-name="Trazado 119159" d="M562.8,230.022l-30.728-17.769a7.6,7.6,0,0,1-3.172-6.06v-7.282c0-2.336,1.42-3.409,3.172-2.4L562.8,214.282a7.6,7.6,0,0,1,3.172,6.06v7.282C565.972,229.96,564.552,231.033,562.8,230.022Z" transform="translate(-528.9 -195.371)" fill="#0fbab8"/>
        <path id="Trazado_119160" data-name="Trazado 119160" d="M563.681,227.787,533.435,210.3a5.393,5.393,0,0,1-2.282-4.518v-5.219a.562.562,0,0,1,.847-.484l.1.058,30.281,17.512a4.876,4.876,0,0,1,2.282,4.518V227.3a.607.607,0,0,1-.908.527Z" transform="translate(-529.372 -196.181)" fill="#084c94"/>
        <path id="Trazado_119161" data-name="Trazado 119161" d="M564.262,227.415l-.074-.042-30.247-17.487a5.394,5.394,0,0,1-2.281-4.518v-5.219a.569.569,0,0,1,.02-.143.561.561,0,0,0-.527.558v5.219a5.393,5.393,0,0,0,2.282,4.518l30.246,17.487.074.042a.606.606,0,0,0,.878-.343A.592.592,0,0,1,564.262,227.415Z" transform="translate(-529.372 -196.182)" fill="#001a46"/>
        <path id="Trazado_119162" data-name="Trazado 119162" d="M564.612,213.319,533.883,195.55a2.143,2.143,0,0,0-1.856-.273c-.066.025-1.546.78-1.608.814l0,0a2.076,2.076,0,0,1,1.973.217l30.728,17.77a7.594,7.594,0,0,1,3.172,6.059v7.282c0,1.458-.553,2.423-1.395,2.7a.524.524,0,0,0,.277-.094c.04-.023,1.595-.849,1.633-.876a2.929,2.929,0,0,0,.977-2.49v-7.282A7.6,7.6,0,0,0,564.612,213.319Z" transform="translate(-529.217 -195.169)" fill="#0ba19f"/>
        <path id="Trazado_119163" data-name="Trazado 119163" d="M564.612,213.319,533.883,195.55a2.143,2.143,0,0,0-1.856-.273c-.066.025-1.546.78-1.608.814l0,0a2.076,2.076,0,0,1,1.973.217l30.728,17.77Z" transform="translate(-529.217 -195.169)" fill="#3ecfcd"/>
        <path id="Trazado_119164" data-name="Trazado 119164" d="M563.327,214.187,532.6,196.418a2.107,2.107,0,0,0-1.91-.244,2.34,2.34,0,0,1,1.53.359L562.947,214.3a7.6,7.6,0,0,1,3.171,6.059v7.282c0,1.378-.5,2.312-1.261,2.642.978-.156,1.641-1.161,1.641-2.756v-7.282A7.6,7.6,0,0,0,563.327,214.187Z" transform="translate(-529.274 -195.352)" fill="#fff" opacity="0.7"/>
        <g id="Grupo_82246" data-name="Grupo 82246" transform="translate(7.071 9.276)">
          <path id="Trazado_119165" data-name="Trazado 119165" d="M562.8,222.75a4.215,4.215,0,0,0,1.912,3.3c1.056.61,1.913.122,1.913-1.09a4.213,4.213,0,0,0-1.913-3.3C563.652,221.05,562.8,221.538,562.8,222.75Z" transform="translate(-543.067 -209.937)" fill="#001a46"/>
          <path id="Trazado_119166" data-name="Trazado 119166" d="M556.558,219.126a4.213,4.213,0,0,0,1.912,3.3c1.056.61,1.913.122,1.913-1.09a4.215,4.215,0,0,0-1.913-3.3C557.414,217.426,556.558,217.915,556.558,219.126Z" transform="translate(-541.761 -209.178)" fill="#001a46"/>
          <path id="Trazado_119167" data-name="Trazado 119167" d="M550.32,215.5a4.211,4.211,0,0,0,1.912,3.3c1.056.61,1.913.122,1.913-1.09a4.213,4.213,0,0,0-1.913-3.3C551.175,213.8,550.32,214.291,550.32,215.5Z" transform="translate(-540.455 -208.419)" fill="#001a46"/>
          <path id="Trazado_119168" data-name="Trazado 119168" d="M544.081,211.879a4.214,4.214,0,0,0,1.913,3.3c1.056.61,1.913.122,1.913-1.09a4.213,4.213,0,0,0-1.913-3.3C544.937,210.179,544.081,210.667,544.081,211.879Z" transform="translate(-539.149 -207.661)" fill="#001a46"/>
          <path id="Trazado_119169" data-name="Trazado 119169" d="M537.843,208.255a4.213,4.213,0,0,0,1.913,3.3c1.056.61,1.912.122,1.912-1.09a4.214,4.214,0,0,0-1.912-3.3C538.7,206.555,537.843,207.044,537.843,208.255Z" transform="translate(-537.843 -206.902)" fill="#001a46"/>
        </g>
        <g id="Grupo_82247" data-name="Grupo 82247" transform="translate(6.479 9.316)">
          <path id="Trazado_119170" data-name="Trazado 119170" d="M562.047,222.8a4.214,4.214,0,0,0,1.913,3.3c1.056.61,1.912.122,1.912-1.09a4.212,4.212,0,0,0-1.912-3.3C562.9,221.1,562.047,221.588,562.047,222.8Z" transform="translate(-542.319 -209.987)" fill="#a8cff0"/>
          <path id="Trazado_119171" data-name="Trazado 119171" d="M555.809,219.176a4.213,4.213,0,0,0,1.913,3.3c1.055.61,1.912.122,1.912-1.09a4.216,4.216,0,0,0-1.912-3.3C556.665,217.476,555.809,217.965,555.809,219.176Z" transform="translate(-541.013 -209.228)" fill="#a8cff0"/>
          <path id="Trazado_119172" data-name="Trazado 119172" d="M549.571,215.553a4.213,4.213,0,0,0,1.912,3.3c1.056.61,1.912.122,1.912-1.09a4.214,4.214,0,0,0-1.912-3.3C550.427,213.853,549.571,214.341,549.571,215.553Z" transform="translate(-539.707 -208.47)" fill="#a8cff0"/>
          <path id="Trazado_119173" data-name="Trazado 119173" d="M543.333,211.929a4.216,4.216,0,0,0,1.912,3.3c1.056.61,1.913.121,1.913-1.09a4.213,4.213,0,0,0-1.913-3.3C544.189,210.229,543.333,210.717,543.333,211.929Z" transform="translate(-538.401 -207.711)" fill="#a8cff0"/>
          <path id="Trazado_119174" data-name="Trazado 119174" d="M537.095,208.3a4.215,4.215,0,0,0,1.912,3.3c1.056.61,1.913.122,1.913-1.09a4.215,4.215,0,0,0-1.913-3.3C537.951,206.6,537.095,207.094,537.095,208.3Z" transform="translate(-537.095 -206.952)" fill="#a8cff0"/>
        </g>
      </g>
      <g id="Grupo_82252" data-name="Grupo 82252" transform="translate(492.025 213.902)">
        <path id="Trazado_119175" data-name="Trazado 119175" d="M558.819,318.013l-24.272-13.971c-2.526-1.458-2.209-4.005.708-5.689h0c2.916-1.684,12.564-1.694,15.089-.236l21.519,12.418c3.877,2.288.039,5.428-3.19,7.068h0C565.756,319.288,561.345,319.47,558.819,318.013Z" transform="translate(-532.842 -255.452)" fill="#92b4d1" opacity="0.2"/>
        <path id="Trazado_119176" data-name="Trazado 119176" d="M568.364,282.985,533.271,269.9v26.028a2.29,2.29,0,0,0,1.37,2.267l23.731,13.744c2.056,1.187,5.646,1.038,8.02-.332h0a3.372,3.372,0,0,0,1.961-2.53l.012,0Z" transform="translate(-532.928 -249.766)" fill="#72b5e8"/>
        <path id="Trazado_119177" data-name="Trazado 119177" d="M558.371,284.828,534.64,271.085c-2.056-1.187-1.8-3.26.576-4.631h0c2.373-1.37,5.965-1.519,8.02-.332l23.731,13.744c2.056,1.187,1.8,3.26-.576,4.631h0C564.017,285.866,560.427,286.015,558.371,284.828Z" transform="translate(-532.928 -248.808)" fill="#a8cff0"/>
        <path id="Trazado_119178" data-name="Trazado 119178" d="M566.392,285.12c-2.374,1.37-5.965,1.52-8.02.333l-23.731-13.744a2.453,2.453,0,0,1-1.374-1.834,2.3,2.3,0,0,0,1.374,2.234l23.731,13.744c2.056,1.187,5.646,1.038,8.02-.332,1.383-.8,2.041-1.835,1.949-2.8A3.485,3.485,0,0,1,566.392,285.12Z" transform="translate(-532.928 -249.762)" fill="#fff"/>
        <g id="Grupo_82251" data-name="Grupo 82251" transform="translate(5.323)">
          <path id="Trazado_119179" data-name="Trazado 119179" d="M554.479,245.778h0a9.942,9.942,0,0,0-14.9,8.615v10.782h0a.145.145,0,0,1,0,.015c0,1.057,1.461,1.908,3.263,1.908s3.264-.851,3.264-1.9c0-.013,0-.025,0-.037h.035v-9.377a4.213,4.213,0,0,1,6.312-3.653h0a10.507,10.507,0,0,1,5.272,9.11v14.376h.035c.036,1.032,1.48,1.862,3.26,1.862s3.244-.84,3.261-1.882h0V262.726A19.559,19.559,0,0,0,554.479,245.778Z" transform="translate(-539.575 -244.436)" fill="#2672ab"/>
          <g id="Grupo_82249" data-name="Grupo 82249" transform="translate(14.103 6.015)">
            <path id="Trazado_119180" data-name="Trazado 119180" d="M558.022,252.348a6.15,6.15,0,0,0-.609-.3,11.454,11.454,0,0,1,5.054,9.481V278.4a3.961,3.961,0,0,0,1.274.466V262.245A11.452,11.452,0,0,0,558.022,252.348Z" transform="translate(-557.413 -252.044)" fill="#3f92d1"/>
          </g>
          <g id="Grupo_82250" data-name="Grupo 82250" transform="translate(2.708 4.591)">
            <path id="Trazado_119181" data-name="Trazado 119181" d="M548.376,250.242a5.347,5.347,0,0,0-5.341,5.341v11.261L543,268.012a4.6,4.6,0,0,0,1.871-.225l.034-1.169V255.358a5.351,5.351,0,0,1,3.775-5.107C548.579,250.246,548.478,250.242,548.376,250.242Z" transform="translate(-543.001 -250.242)" fill="#084c94"/>
          </g>
          <path id="Trazado_119182" data-name="Trazado 119182" d="M551.162,247.015a10.321,10.321,0,0,1,4.853,1.218,18.339,18.339,0,0,0-1.8-1.185,8.69,8.69,0,0,0-4.387-1.192,8.854,8.854,0,0,0-8.835,8.835v.024A10.669,10.669,0,0,1,551.162,247.015Z" transform="translate(-539.872 -244.733)" fill="#3f92d1"/>
          <path id="Trazado_119183" data-name="Trazado 119183" d="M567.63,268.765l0,12.617a4.048,4.048,0,0,0,1.633-.568,1.07,1.07,0,0,0,.112-.442l0-12.87C569.375,261.938,567.63,263.094,567.63,268.765Z" transform="translate(-545.448 -248.505)" fill="#084c94"/>
        </g>
        <path id="Trazado_119184" data-name="Trazado 119184" d="M554.064,294.233a7.093,7.093,0,0,0-3.218-5.55c-1.777-1.025-3.218-.2-3.218,1.835a7,7,0,0,0,1.627,4.146v6.46l3.182,1.837V296.5C553.408,296.427,554.064,295.608,554.064,294.233Z" transform="translate(-535.938 -253.607)" fill="#084c94"/>
        <path id="Trazado_119185" data-name="Trazado 119185" d="M549.81,300.9v-6.46a7,7,0,0,1-1.627-4.146,2.3,2.3,0,0,1,.844-2c-.845.178-1.4.973-1.4,2.238a7,7,0,0,0,1.627,4.146v6.46l3.182,1.837v-.559Z" transform="translate(-535.938 -253.617)" fill="#001a46"/>
      </g>
    </g>
  </g>
</svg>
