<svg xmlns="http://www.w3.org/2000/svg" width="295" height="180.666" viewBox="0 0 295 180.666">
  <g id="Grupo_84771" data-name="Grupo 84771" transform="translate(-810 -5834.443)">
    <rect id="Imagen_22" data-name="Imagen 22" width="295" height="135" rx="19" transform="translate(810 5860.443)" fill="#583ae2"/>
    <g id="Grupo_82404" data-name="Grupo 82404" transform="translate(527.77 5725.201)">
      <g id="Grupo_82299" data-name="Grupo 82299" transform="translate(370.477 109.242)">
        <g id="Grupo_82297" data-name="Grupo 82297">
          <path id="Trazado_119423" data-name="Trazado 119423" d="M460.588,289.513,377.7,241.658c-3.273-1.89-2.862-5.19.917-7.373l47.041-27.159c3.779-2.181,9.5-2.419,12.77-.529l82.887,47.855c3.273,1.89,2.862,5.191-.917,7.373l-47.04,27.159C469.578,291.166,463.861,291.4,460.588,289.513Z" transform="translate(-375.49 -119.884)" fill="#92b4d1" opacity="0.2"/>
          <path id="Trazado_119424" data-name="Trazado 119424" d="M460.588,284.259,377.7,236.4a3.817,3.817,0,0,1-2.209-3.143c0-.037,0-4.068,0-4.106.026-1.433,1.085,1.055,3.126-.124l47.041-27.159c3.779-2.182,9.5-2.419,12.77-.529L521.315,249.2c1.093.63,1.885-2.047,2.169-1.2.094.284.034,4.041.04,4.334.032,1.468-1.028,3.023-3.126,4.235l-47.04,27.158C469.578,285.911,463.861,286.149,460.588,284.259Z" transform="translate(-375.49 -119.302)" fill="#2672ab"/>
          <path id="Trazado_119425" data-name="Trazado 119425" d="M460.588,279.727,377.7,231.872c-3.273-1.89-2.862-5.19.917-7.373l47.041-27.159c3.779-2.182,9.5-2.419,12.77-.529l82.887,47.855c3.273,1.89,2.862,5.19-.917,7.373L473.358,279.2C469.578,281.379,463.861,281.617,460.588,279.727Z" transform="translate(-375.49 -118.8)" fill="#d1ebff"/>
          <path id="Trazado_119426" data-name="Trazado 119426" d="M471.187,294.178c3.273,1.89,8.99,1.652,12.77-.53v-4.03c-3.78,2.182-9.5,2.42-12.77.53Z" transform="translate(-386.09 -129.221)" fill="#3f92d1" opacity="0.5"/>
          <path id="Trazado_119427" data-name="Trazado 119427" d="M460.588,283.824,377.7,235.969a3.7,3.7,0,0,1-2.192-3.446,1.68,1.68,0,0,0-.017.226c0,.038,0,4.069,0,4.107A3.817,3.817,0,0,0,377.7,240l82.888,47.855Z" transform="translate(-375.49 -122.897)" fill="#3f92d1"/>
          <path id="Trazado_119428" data-name="Trazado 119428" d="M520.4,255.434l-47.04,27.159c-3.78,2.182-9.5,2.419-12.77.529L377.7,235.267a3.912,3.912,0,0,1-2.184-2.9c-.171,1.337.544,2.638,2.184,3.585l82.888,47.855c3.273,1.89,8.99,1.652,12.77-.53l47.04-27.158c2.212-1.277,3.26-2.936,3.1-4.472C523.33,252.978,522.284,254.345,520.4,255.434Z" transform="translate(-375.49 -122.88)" fill="#fff"/>
          <path id="Trazado_119429" data-name="Trazado 119429" d="M446.245,268.29l-29.5-17.032c-.59-.341-.517-.936.165-1.33l11.076-6.395a2.56,2.56,0,0,1,2.3-.1l29.5,17.031c.591.341.517.937-.165,1.331l-11.075,6.394A2.562,2.562,0,0,1,446.245,268.29Z" transform="translate(-380.015 -124.08)" fill="#fff" opacity="0.3"/>
          <path id="Trazado_119430" data-name="Trazado 119430" d="M416.911,250.627l11.075-6.395a2.566,2.566,0,0,1,2.3-.1l29.5,17.032a.889.889,0,0,1,.273.239.617.617,0,0,0-.273-.939l-29.5-17.031a2.56,2.56,0,0,0-2.3.1l-11.075,6.395c-.542.313-.693.752-.438,1.091A1.283,1.283,0,0,1,416.911,250.627Z" transform="translate(-380.016 -124.08)" fill="#a8cff0"/>
          <path id="Trazado_119431" data-name="Trazado 119431" d="M436.658,203.684l5.084,2.935a2.578,2.578,0,0,0,2.333,0,.711.711,0,0,0-.007-1.347l-5.084-2.935a2.58,2.58,0,0,0-2.334,0A.712.712,0,0,0,436.658,203.684Zm8.7,5.025,2.408,1.391a2.58,2.58,0,0,0,2.334,0,.711.711,0,0,0-.007-1.347l-2.408-1.39a2.58,2.58,0,0,0-2.334,0A.711.711,0,0,0,445.362,208.709Zm6.029,3.48,2.408,1.391a2.58,2.58,0,0,0,2.334,0,.712.712,0,0,0-.008-1.348l-2.408-1.39a2.578,2.578,0,0,0-2.333,0A.711.711,0,0,0,451.391,212.189Zm6.028,3.481,2.409,1.39a2.578,2.578,0,0,0,2.333,0,.712.712,0,0,0-.007-1.348l-2.408-1.39a2.58,2.58,0,0,0-2.334,0A.712.712,0,0,0,457.419,215.671Zm6.029,3.48,2.408,1.39a2.58,2.58,0,0,0,2.334,0,.711.711,0,0,0-.007-1.347l-2.409-1.391a2.578,2.578,0,0,0-2.333,0A.712.712,0,0,0,463.448,219.151Zm6.029,3.48,2.408,1.391a2.581,2.581,0,0,0,2.333,0,.711.711,0,0,0-.007-1.347l-2.408-1.391a2.583,2.583,0,0,0-2.334,0A.711.711,0,0,0,469.477,222.632Zm6.028,3.48,2.408,1.391a2.583,2.583,0,0,0,2.334,0,.712.712,0,0,0-.007-1.348l-2.408-1.39a2.58,2.58,0,0,0-2.334,0A.711.711,0,0,0,475.505,226.112Zm6.029,3.48,2.408,1.391a2.58,2.58,0,0,0,2.334,0,.712.712,0,0,0-.008-1.348l-2.408-1.39a2.578,2.578,0,0,0-2.333,0A.711.711,0,0,0,481.534,229.592Zm6.029,3.481,2.408,1.39a2.578,2.578,0,0,0,2.333,0,.711.711,0,0,0-.007-1.347l-2.408-1.391a2.58,2.58,0,0,0-2.334,0A.712.712,0,0,0,487.563,233.074Zm6.028,3.48,2.408,1.39a2.58,2.58,0,0,0,2.334,0,.711.711,0,0,0-.007-1.347l-2.408-1.391a2.58,2.58,0,0,0-2.334,0A.712.712,0,0,0,493.591,236.554Zm6.029,3.48,2.408,1.391a2.58,2.58,0,0,0,2.334,0,.711.711,0,0,0-.008-1.347l-2.408-1.39a2.578,2.578,0,0,0-2.333,0A.711.711,0,0,0,499.62,240.035Zm6.028,3.48,2.409,1.391a2.578,2.578,0,0,0,2.333,0,.712.712,0,0,0-.007-1.348l-2.408-1.39a2.58,2.58,0,0,0-2.334,0A.711.711,0,0,0,505.649,243.515Zm6.154,3.553,2.408,1.391a2.583,2.583,0,0,0,2.334,0,.711.711,0,0,0-.007-1.347l-2.409-1.391a2.581,2.581,0,0,0-2.333,0A.711.711,0,0,0,511.8,247.069ZM431.235,207l2.084,1.2a2.937,2.937,0,0,0,2.656,0l2.072-1.2a.81.81,0,0,0-.008-1.534l-2.084-1.2a2.939,2.939,0,0,0-2.657-.005l-2.071,1.2A.809.809,0,0,0,431.235,207ZM442,211.689l2.072-1.2a.809.809,0,0,0-.008-1.533l-2.085-1.2a2.934,2.934,0,0,0-2.656,0l-2.072,1.2a.809.809,0,0,0,.008,1.533l2.085,1.2A2.934,2.934,0,0,0,442,211.689Zm1.288,2.273,2.085,1.2a2.934,2.934,0,0,0,2.656,0l2.072-1.2a.809.809,0,0,0-.009-1.533l-2.084-1.2a2.934,2.934,0,0,0-2.656,0l-2.072,1.2A.81.81,0,0,0,443.292,213.962Zm6.029,3.48,2.084,1.2a2.937,2.937,0,0,0,2.656.005l2.072-1.2a.81.81,0,0,0-.008-1.534l-2.085-1.2a2.937,2.937,0,0,0-2.656,0l-2.072,1.2A.81.81,0,0,0,449.322,217.443Zm12.833,1.959-2.084-1.2a2.934,2.934,0,0,0-2.656-.005l-2.072,1.2a.81.81,0,0,0,.008,1.534l2.085,1.2a2.934,2.934,0,0,0,2.656.005l2.072-1.2A.81.81,0,0,0,462.154,219.4Zm6.029,3.48-2.084-1.2a2.937,2.937,0,0,0-2.656-.005l-2.072,1.2a.809.809,0,0,0,.008,1.533l2.085,1.2a2.937,2.937,0,0,0,2.656,0l2.071-1.2A.81.81,0,0,0,468.183,222.882Zm6.029,3.481-2.085-1.2a2.934,2.934,0,0,0-2.656,0l-2.072,1.2a.809.809,0,0,0,.009,1.533l2.084,1.2a2.934,2.934,0,0,0,2.656,0l2.072-1.2A.809.809,0,0,0,474.212,226.364Zm6.028,3.48-2.084-1.2a2.937,2.937,0,0,0-2.656,0l-2.072,1.2a.81.81,0,0,0,.008,1.534l2.085,1.2a2.937,2.937,0,0,0,2.656.005l2.072-1.2A.809.809,0,0,0,480.24,229.844Zm6.029,3.48-2.084-1.2a2.939,2.939,0,0,0-2.657,0l-2.071,1.2a.81.81,0,0,0,.008,1.534l2.084,1.2a2.934,2.934,0,0,0,2.656.005l2.072-1.2A.81.81,0,0,0,486.269,233.325Zm6.029,3.48-2.085-1.2a2.937,2.937,0,0,0-2.656-.005l-2.072,1.2a.81.81,0,0,0,.008,1.534l2.085,1.2a2.937,2.937,0,0,0,2.656,0l2.072-1.2A.81.81,0,0,0,492.3,236.805Zm-.776,5,2.085,1.2a2.934,2.934,0,0,0,2.656,0l2.072-1.2a.81.81,0,0,0-.009-1.534l-2.084-1.2a2.937,2.937,0,0,0-2.656-.005l-2.072,1.2A.809.809,0,0,0,491.522,241.807Zm12.834,1.96-2.085-1.2a2.934,2.934,0,0,0-2.656,0l-2.072,1.2a.809.809,0,0,0,.009,1.533l2.084,1.2a2.937,2.937,0,0,0,2.656.005l2.072-1.2A.809.809,0,0,0,504.356,243.767Zm8.829,5.1-4.76-2.749a2.937,2.937,0,0,0-2.656-.005l-2.072,1.2a.809.809,0,0,0,.008,1.533l4.761,2.749a2.934,2.934,0,0,0,2.656,0l2.072-1.2A.809.809,0,0,0,513.185,248.865Zm-87.533-38.64,4.76,2.748a2.937,2.937,0,0,0,2.656.005l2.072-1.2a.81.81,0,0,0-.008-1.534l-4.761-2.749a2.934,2.934,0,0,0-2.656,0l-2.072,1.2A.81.81,0,0,0,425.652,210.225Zm8.7,5.025,2.085,1.2a2.937,2.937,0,0,0,2.656,0l2.072-1.2a.81.81,0,0,0-.009-1.534l-2.084-1.2a2.934,2.934,0,0,0-2.656-.005l-2.072,1.2A.81.81,0,0,0,434.356,215.25Zm8.113,4.685a2.934,2.934,0,0,0,2.656,0l2.072-1.2a.81.81,0,0,0-.008-1.534l-2.085-1.2a2.937,2.937,0,0,0-2.656-.005l-2.072,1.2a.809.809,0,0,0,.009,1.533Zm6.029,3.48a2.934,2.934,0,0,0,2.656,0l2.072-1.2a.809.809,0,0,0-.009-1.533l-2.084-1.2a2.934,2.934,0,0,0-2.656,0l-2.072,1.2a.809.809,0,0,0,.008,1.533Zm6.008-.453-2.072,1.2a.81.81,0,0,0,.008,1.534l2.084,1.2a2.939,2.939,0,0,0,2.657.005l2.071-1.2a.809.809,0,0,0-.008-1.533l-2.084-1.2A2.937,2.937,0,0,0,454.506,222.962Zm6.155,3.407-2.326,1.344a.732.732,0,0,0,.007,1.386l2.341,1.352a2.653,2.653,0,0,0,2.4,0l2.326-1.343a.732.732,0,0,0-.007-1.386l-2.341-1.352A2.653,2.653,0,0,0,460.661,226.369Zm6.029,3.481-2.326,1.343a.732.732,0,0,0,.007,1.386l2.341,1.352a2.653,2.653,0,0,0,2.4,0l2.326-1.344a.731.731,0,0,0-.008-1.385l-2.34-1.353A2.653,2.653,0,0,0,466.69,229.85Zm6.029,3.48-2.327,1.343a.732.732,0,0,0,.008,1.386l2.341,1.352a2.652,2.652,0,0,0,2.4,0l2.327-1.344a.731.731,0,0,0-.008-1.385l-2.341-1.352A2.651,2.651,0,0,0,472.719,233.331Zm6.028,3.48-2.326,1.344a.731.731,0,0,0,.007,1.385l2.341,1.352a2.653,2.653,0,0,0,2.4,0l2.326-1.343a.732.732,0,0,0-.007-1.386l-2.341-1.352A2.653,2.653,0,0,0,478.747,236.811Zm6.029,3.48-2.327,1.344a.731.731,0,0,0,.008,1.385l2.341,1.353a2.651,2.651,0,0,0,2.4,0l2.327-1.343a.732.732,0,0,0-.008-1.386l-2.341-1.352A2.653,2.653,0,0,0,484.776,240.292Zm8.451,7.567,2.326-1.344a.732.732,0,0,0-.007-1.386l-2.341-1.352a2.654,2.654,0,0,0-2.4,0l-2.327,1.344a.732.732,0,0,0,.007,1.386l2.341,1.352A2.653,2.653,0,0,0,493.228,247.858Zm6.029,3.48L501.583,250a.731.731,0,0,0-.007-1.385l-2.341-1.352a2.653,2.653,0,0,0-2.4,0l-2.326,1.343a.732.732,0,0,0,.007,1.386l2.341,1.352A2.653,2.653,0,0,0,499.257,251.339Zm8.473.823-2.341-1.352a2.651,2.651,0,0,0-2.4,0l-2.327,1.344a.731.731,0,0,0,.008,1.385l2.341,1.353a2.654,2.654,0,0,0,2.4,0l2.327-1.343A.732.732,0,0,0,507.729,252.162Zm-87.79-38.788,7.559,4.363a2.653,2.653,0,0,0,2.4,0l2.326-1.343a.732.732,0,0,0-.007-1.386l-7.559-4.364a2.654,2.654,0,0,0-2.4,0l-2.327,1.344A.732.732,0,0,0,419.939,213.375Zm11.246,6.492,2.341,1.353a2.656,2.656,0,0,0,2.4,0l2.326-1.344a.732.732,0,0,0-.008-1.386l-2.34-1.352a2.653,2.653,0,0,0-2.4,0l-2.326,1.344A.731.731,0,0,0,431.186,219.867Zm6.029,3.481,2.341,1.352a2.651,2.651,0,0,0,2.4,0l2.327-1.344a.731.731,0,0,0-.008-1.385l-2.341-1.353a2.651,2.651,0,0,0-2.4,0l-2.327,1.343A.732.732,0,0,0,437.215,223.348Zm6.028,3.48,2.341,1.352a2.653,2.653,0,0,0,2.4,0l2.326-1.344a.731.731,0,0,0-.007-1.385l-2.341-1.352a2.653,2.653,0,0,0-2.4,0l-2.326,1.343A.732.732,0,0,0,443.243,226.829Zm10.771,4.837,2.327-1.343a.732.732,0,0,0-.008-1.386l-2.341-1.352a2.651,2.651,0,0,0-2.4,0l-2.327,1.344a.731.731,0,0,0,.008,1.385l2.341,1.352A2.651,2.651,0,0,0,454.013,231.665Zm6.029,3.48,2.326-1.343a.732.732,0,0,0-.007-1.386l-2.341-1.352a2.653,2.653,0,0,0-2.4,0l-2.326,1.344a.731.731,0,0,0,.008,1.385l2.34,1.352A2.653,2.653,0,0,0,460.042,235.146Zm6.029,3.481,2.326-1.344a.732.732,0,0,0-.007-1.386l-2.341-1.352a2.656,2.656,0,0,0-2.4,0l-2.326,1.344a.732.732,0,0,0,.007,1.386l2.341,1.352A2.656,2.656,0,0,0,466.071,238.627Zm6.028,3.48,2.327-1.344a.731.731,0,0,0-.008-1.385l-2.341-1.353a2.654,2.654,0,0,0-2.4,0l-2.327,1.343a.732.732,0,0,0,.008,1.386L469.7,242.1A2.651,2.651,0,0,0,472.1,242.108Zm6.029,3.48,2.326-1.344a.731.731,0,0,0-.007-1.385l-2.341-1.352a2.653,2.653,0,0,0-2.4,0l-2.326,1.343a.732.732,0,0,0,.007,1.386l2.341,1.352A2.653,2.653,0,0,0,478.128,245.588Zm6.029,3.48,2.326-1.343a.732.732,0,0,0-.008-1.386l-2.34-1.352a2.653,2.653,0,0,0-2.4,0l-2.326,1.344a.731.731,0,0,0,.007,1.385l2.341,1.352A2.653,2.653,0,0,0,484.157,249.069Zm1.287,2.125,2.341,1.352a2.651,2.651,0,0,0,2.4,0l2.327-1.343a.732.732,0,0,0-.008-1.386l-2.341-1.352a2.651,2.651,0,0,0-2.4,0l-2.327,1.344A.732.732,0,0,0,485.444,251.194Zm16.7,4.193-5.953-3.438a2.656,2.656,0,0,0-2.4,0l-2.326,1.344a.732.732,0,0,0,.007,1.386l5.953,3.437a2.653,2.653,0,0,0,2.4,0l2.326-1.344A.731.731,0,0,0,502.146,255.387Zm-87.768-38.621,10.726,6.192a3,3,0,0,0,2.711.005l2.017-1.164a.827.827,0,0,0-.009-1.566L419.1,214.04a3,3,0,0,0-2.712,0L414.37,215.2A.827.827,0,0,0,414.378,216.765Zm14.725,8.5,2.029,1.171a3,3,0,0,0,2.712.005l2.016-1.164a.827.827,0,0,0-.008-1.566l-2.029-1.171a3,3,0,0,0-2.712-.005l-2.016,1.164A.827.827,0,0,0,429.1,225.266Zm6.029,3.48,2.029,1.172a3,3,0,0,0,2.711,0l2.017-1.164a.827.827,0,0,0-.009-1.566l-2.028-1.171a3,3,0,0,0-2.712-.005l-2.017,1.165A.826.826,0,0,0,435.132,228.747Zm6.029,3.48,2.028,1.172a3,3,0,0,0,2.712,0l2.016-1.164a.826.826,0,0,0-.008-1.565L445.88,229.5a3,3,0,0,0-2.712,0l-2.016,1.164A.826.826,0,0,0,441.161,232.227Zm6.028,3.481,2.029,1.171a3,3,0,0,0,2.712.005l2.016-1.165a.826.826,0,0,0-.008-1.565l-2.029-1.172a3,3,0,0,0-2.712,0l-2.016,1.164A.826.826,0,0,0,447.189,235.709Zm6.029,3.48,2.029,1.171a3,3,0,0,0,2.711.005l2.017-1.164a.827.827,0,0,0-.009-1.566l-2.029-1.172a3,3,0,0,0-2.711,0l-2.017,1.164A.827.827,0,0,0,453.218,239.189Zm6.028,3.48,2.029,1.172a3,3,0,0,0,2.712,0L466,242.682a.826.826,0,0,0-.008-1.566l-2.029-1.171a3,3,0,0,0-2.712-.005l-2.016,1.164A.827.827,0,0,0,459.246,242.67Zm6.029,3.48,2.029,1.172a3,3,0,0,0,2.711,0l2.017-1.164a.826.826,0,0,0-.009-1.566L470,243.425a3,3,0,0,0-2.712,0l-2.016,1.164A.826.826,0,0,0,465.275,246.15Zm6.029,3.481,2.028,1.171a3,3,0,0,0,2.712.005l2.017-1.165a.826.826,0,0,0-.009-1.565l-2.029-1.172a2.994,2.994,0,0,0-2.711,0l-2.017,1.164A.827.827,0,0,0,471.3,249.631Zm6.028,3.48,2.029,1.171a3,3,0,0,0,2.712.005l2.016-1.165a.826.826,0,0,0-.008-1.565l-2.029-1.172a3,3,0,0,0-2.712,0l-2.016,1.164A.827.827,0,0,0,477.333,253.112Zm6.029,3.48,2.029,1.171a2.994,2.994,0,0,0,2.711.005l2.017-1.164a.827.827,0,0,0-.009-1.566l-2.029-1.171a2.994,2.994,0,0,0-2.711-.005l-2.017,1.164A.827.827,0,0,0,483.362,256.592Zm12.911,2-2.028-1.171a3,3,0,0,0-2.712-.005l-2.017,1.164a.827.827,0,0,0,.009,1.566l2.029,1.171a2.994,2.994,0,0,0,2.711.005l2.017-1.164A.827.827,0,0,0,496.272,258.6Zm-78.054-38.616-4.7-2.717a3,3,0,0,0-2.712-.005l-2.017,1.165a.826.826,0,0,0,.009,1.565l4.7,2.717a2.994,2.994,0,0,0,2.711,0l2.017-1.164A.826.826,0,0,0,418.219,219.981Zm6.029,3.48-2.029-1.172a3,3,0,0,0-2.711,0l-2.017,1.164a.827.827,0,0,0,.009,1.566l2.028,1.171a3,3,0,0,0,2.712.005l2.017-1.165A.826.826,0,0,0,424.248,223.461Zm6.029,3.48-2.029-1.171a3,3,0,0,0-2.712-.005l-2.016,1.164a.826.826,0,0,0,.008,1.566l2.029,1.171a3,3,0,0,0,2.712.005l2.016-1.164A.827.827,0,0,0,430.277,226.942Zm42.2,24.364-38.2-22.055a3,3,0,0,0-2.711-.005l-2.017,1.164a.827.827,0,0,0,.009,1.566l38.2,22.056a3,3,0,0,0,2.712,0l2.017-1.164A.827.827,0,0,0,472.477,251.306Zm6.029,3.481-2.029-1.172a3,3,0,0,0-2.712,0l-2.016,1.164a.826.826,0,0,0,.008,1.566l2.029,1.171a3,3,0,0,0,2.712.005l2.016-1.165A.826.826,0,0,0,478.506,254.787Zm6.028,3.48-2.029-1.172a3,3,0,0,0-2.711,0l-2.017,1.164a.827.827,0,0,0,.009,1.566l2.029,1.171a3,3,0,0,0,2.711.005l2.017-1.164A.827.827,0,0,0,484.535,258.268Zm6.154,3.553-2.029-1.172a3,3,0,0,0-2.711,0l-2.017,1.164a.827.827,0,0,0,.009,1.566l2.028,1.171a3,3,0,0,0,2.712,0l2.017-1.164A.826.826,0,0,0,490.689,261.821Z" transform="translate(-379.116 -119.523)" fill="#72b5e8"/>
          <path id="Trazado_119432" data-name="Trazado 119432" d="M436.658,203.052l5.084,2.935a2.578,2.578,0,0,0,2.333,0,.712.712,0,0,0-.007-1.348l-5.084-2.934a2.58,2.58,0,0,0-2.334,0A.711.711,0,0,0,436.658,203.052Zm8.7,5.026,2.408,1.39a2.58,2.58,0,0,0,2.334,0,.711.711,0,0,0-.007-1.347l-2.408-1.391a2.58,2.58,0,0,0-2.334,0A.712.712,0,0,0,445.362,208.078Zm6.029,3.48,2.408,1.39a2.58,2.58,0,0,0,2.334,0,.711.711,0,0,0-.008-1.347l-2.408-1.391a2.578,2.578,0,0,0-2.333,0A.711.711,0,0,0,451.391,211.558Zm6.028,3.48,2.409,1.391a2.581,2.581,0,0,0,2.333,0,.711.711,0,0,0-.007-1.347l-2.408-1.391a2.582,2.582,0,0,0-2.334,0A.711.711,0,0,0,457.419,215.039Zm6.029,3.48,2.408,1.391a2.58,2.58,0,0,0,2.334,0,.712.712,0,0,0-.007-1.348l-2.409-1.39a2.578,2.578,0,0,0-2.333,0A.711.711,0,0,0,463.448,218.519ZM469.477,222l2.408,1.39a2.578,2.578,0,0,0,2.333,0,.712.712,0,0,0-.007-1.348l-2.408-1.39a2.58,2.58,0,0,0-2.334,0A.712.712,0,0,0,469.477,222Zm6.028,3.48,2.408,1.39a2.58,2.58,0,0,0,2.334,0,.711.711,0,0,0-.007-1.347l-2.408-1.391a2.58,2.58,0,0,0-2.334,0A.712.712,0,0,0,475.505,225.481Zm6.029,3.48,2.408,1.391a2.583,2.583,0,0,0,2.334,0,.711.711,0,0,0-.008-1.347l-2.408-1.391a2.581,2.581,0,0,0-2.333,0A.711.711,0,0,0,481.534,228.961Zm6.029,3.48,2.408,1.391a2.578,2.578,0,0,0,2.333,0,.711.711,0,0,0-.007-1.347l-2.408-1.39a2.58,2.58,0,0,0-2.334,0A.711.711,0,0,0,487.563,232.442Zm6.028,3.48L496,237.313a2.58,2.58,0,0,0,2.334,0,.712.712,0,0,0-.007-1.348l-2.408-1.39a2.58,2.58,0,0,0-2.334,0A.711.711,0,0,0,493.591,235.922Zm6.029,3.481,2.408,1.39a2.58,2.58,0,0,0,2.334,0,.712.712,0,0,0-.008-1.348l-2.408-1.39a2.578,2.578,0,0,0-2.333,0A.712.712,0,0,0,499.62,239.4Zm6.028,3.48,2.409,1.39a2.578,2.578,0,0,0,2.333,0,.711.711,0,0,0-.007-1.347l-2.408-1.391a2.58,2.58,0,0,0-2.334,0A.712.712,0,0,0,505.649,242.884Zm6.154,3.553,2.408,1.391a2.58,2.58,0,0,0,2.334,0,.712.712,0,0,0-.007-1.348l-2.409-1.39a2.578,2.578,0,0,0-2.333,0A.711.711,0,0,0,511.8,246.437Zm-80.568-40.067,2.084,1.2a2.937,2.937,0,0,0,2.656.005l2.072-1.2a.809.809,0,0,0-.008-1.533l-2.084-1.2a2.939,2.939,0,0,0-2.657,0l-2.071,1.2A.81.81,0,0,0,431.235,206.369ZM442,211.058l2.072-1.2a.81.81,0,0,0-.008-1.534l-2.085-1.2a2.937,2.937,0,0,0-2.656,0l-2.072,1.2a.81.81,0,0,0,.008,1.534l2.085,1.2A2.934,2.934,0,0,0,442,211.058Zm1.288,2.272,2.085,1.2a2.937,2.937,0,0,0,2.656,0l2.072-1.2a.81.81,0,0,0-.009-1.534l-2.084-1.2a2.937,2.937,0,0,0-2.656-.005l-2.072,1.2A.81.81,0,0,0,443.292,213.33Zm6.029,3.48,2.084,1.2a2.934,2.934,0,0,0,2.656,0l2.072-1.2a.809.809,0,0,0-.008-1.533l-2.085-1.2a2.937,2.937,0,0,0-2.656-.005l-2.072,1.2A.809.809,0,0,0,449.322,216.811Zm12.833,1.96-2.084-1.2a2.934,2.934,0,0,0-2.656,0l-2.072,1.2a.809.809,0,0,0,.008,1.533l2.085,1.2a2.934,2.934,0,0,0,2.656,0l2.072-1.2A.809.809,0,0,0,462.154,218.771Zm6.029,3.48-2.084-1.2a2.937,2.937,0,0,0-2.656,0l-2.072,1.2a.81.81,0,0,0,.008,1.534l2.085,1.2a2.937,2.937,0,0,0,2.656.005l2.071-1.2A.81.81,0,0,0,468.183,222.251Zm6.029,3.48-2.085-1.2a2.934,2.934,0,0,0-2.656-.005l-2.072,1.2a.81.81,0,0,0,.009,1.534l2.084,1.2a2.934,2.934,0,0,0,2.656.005l2.072-1.2A.81.81,0,0,0,474.212,225.732Zm6.028,3.48-2.084-1.2A2.937,2.937,0,0,0,475.5,228l-2.072,1.2a.809.809,0,0,0,.008,1.533l2.085,1.2a2.937,2.937,0,0,0,2.656,0l2.072-1.2A.81.81,0,0,0,480.24,229.212Zm6.029,3.481-2.084-1.2a2.936,2.936,0,0,0-2.657,0l-2.071,1.2a.809.809,0,0,0,.008,1.533l2.084,1.2a2.934,2.934,0,0,0,2.656,0l2.072-1.2A.809.809,0,0,0,486.269,232.694Zm6.029,3.48-2.085-1.2a2.934,2.934,0,0,0-2.656,0l-2.072,1.2a.81.81,0,0,0,.008,1.534l2.085,1.2a2.934,2.934,0,0,0,2.656,0l2.072-1.2A.809.809,0,0,0,492.3,236.174Zm-.776,5,2.085,1.2a2.937,2.937,0,0,0,2.656.005l2.072-1.2a.81.81,0,0,0-.009-1.534l-2.084-1.2a2.937,2.937,0,0,0-2.656,0l-2.072,1.2A.81.81,0,0,0,491.522,241.176Zm12.834,1.959-2.085-1.2a2.934,2.934,0,0,0-2.656-.005l-2.072,1.2a.81.81,0,0,0,.009,1.534l2.084,1.2a2.937,2.937,0,0,0,2.656,0l2.072-1.2A.81.81,0,0,0,504.356,243.135Zm8.829,5.1-4.76-2.749a2.937,2.937,0,0,0-2.656,0l-2.072,1.2a.81.81,0,0,0,.008,1.534l4.761,2.748a2.934,2.934,0,0,0,2.656.005l2.072-1.2A.81.81,0,0,0,513.185,248.233Zm-87.533-38.64,4.76,2.749a2.934,2.934,0,0,0,2.656,0l2.072-1.2a.809.809,0,0,0-.008-1.533l-4.761-2.749a2.937,2.937,0,0,0-2.656-.005l-2.072,1.2A.81.81,0,0,0,425.652,209.593Zm8.7,5.026,2.085,1.2a2.934,2.934,0,0,0,2.656,0l2.072-1.2a.809.809,0,0,0-.009-1.533l-2.084-1.2a2.934,2.934,0,0,0-2.656,0l-2.072,1.2A.81.81,0,0,0,434.356,214.619Zm8.113,4.684a2.937,2.937,0,0,0,2.656.005l2.072-1.2a.81.81,0,0,0-.008-1.534l-2.085-1.2a2.937,2.937,0,0,0-2.656,0l-2.072,1.2a.81.81,0,0,0,.009,1.534Zm6.029,3.48a2.934,2.934,0,0,0,2.656.005l2.072-1.2a.81.81,0,0,0-.009-1.534l-2.084-1.2a2.934,2.934,0,0,0-2.656-.005l-2.072,1.2a.81.81,0,0,0,.008,1.534Zm6.008-.453-2.072,1.2a.809.809,0,0,0,.008,1.533l2.084,1.2a2.939,2.939,0,0,0,2.657,0l2.071-1.2a.81.81,0,0,0-.008-1.534l-2.084-1.2A2.937,2.937,0,0,0,454.506,222.33Zm6.155,3.408-2.326,1.343a.732.732,0,0,0,.007,1.386l2.341,1.352a2.653,2.653,0,0,0,2.4,0l2.326-1.344a.731.731,0,0,0-.007-1.385l-2.341-1.352A2.653,2.653,0,0,0,460.661,225.738Zm6.029,3.48-2.326,1.344a.731.731,0,0,0,.007,1.385l2.341,1.352a2.653,2.653,0,0,0,2.4,0l2.326-1.343a.732.732,0,0,0-.008-1.386l-2.34-1.352A2.653,2.653,0,0,0,466.69,229.218Zm6.029,3.48-2.327,1.344a.732.732,0,0,0,.008,1.386l2.341,1.352a2.652,2.652,0,0,0,2.4,0l2.327-1.343a.732.732,0,0,0-.008-1.386l-2.341-1.352A2.651,2.651,0,0,0,472.719,232.7Zm6.028,3.48-2.326,1.344a.732.732,0,0,0,.007,1.386l2.341,1.352a2.653,2.653,0,0,0,2.4,0l2.326-1.344a.731.731,0,0,0-.007-1.385l-2.341-1.353A2.656,2.656,0,0,0,478.747,236.179Zm6.029,3.481L482.449,241a.732.732,0,0,0,.008,1.386l2.341,1.352a2.651,2.651,0,0,0,2.4,0l2.327-1.344a.731.731,0,0,0-.008-1.385l-2.341-1.352A2.653,2.653,0,0,0,484.776,239.661Zm8.451,7.566,2.326-1.343a.732.732,0,0,0-.007-1.386l-2.341-1.352a2.652,2.652,0,0,0-2.4,0l-2.327,1.344a.731.731,0,0,0,.007,1.385l2.341,1.352A2.653,2.653,0,0,0,493.228,247.226Zm6.029,3.48,2.326-1.343a.732.732,0,0,0-.007-1.386l-2.341-1.352a2.653,2.653,0,0,0-2.4,0l-2.326,1.344a.731.731,0,0,0,.007,1.385l2.341,1.352A2.653,2.653,0,0,0,499.257,250.707Zm8.473.824-2.341-1.352a2.651,2.651,0,0,0-2.4,0l-2.327,1.343a.732.732,0,0,0,.008,1.386l2.341,1.352a2.652,2.652,0,0,0,2.4,0l2.327-1.344A.731.731,0,0,0,507.729,251.531Zm-87.79-38.789,7.559,4.364a2.653,2.653,0,0,0,2.4,0l2.326-1.344a.731.731,0,0,0-.007-1.385l-7.559-4.364a2.651,2.651,0,0,0-2.4,0l-2.327,1.344A.731.731,0,0,0,419.939,212.743Zm11.246,6.493,2.341,1.352a2.653,2.653,0,0,0,2.4,0l2.326-1.344a.731.731,0,0,0-.008-1.385l-2.34-1.352a2.653,2.653,0,0,0-2.4,0l-2.326,1.343A.732.732,0,0,0,431.186,219.236Zm6.029,3.48,2.341,1.352a2.651,2.651,0,0,0,2.4,0l2.327-1.343a.732.732,0,0,0-.008-1.386l-2.341-1.352a2.651,2.651,0,0,0-2.4,0l-2.327,1.344A.731.731,0,0,0,437.215,222.716Zm6.028,3.48,2.341,1.353a2.653,2.653,0,0,0,2.4,0l2.326-1.343a.732.732,0,0,0-.007-1.386l-2.341-1.352a2.653,2.653,0,0,0-2.4,0l-2.326,1.344A.731.731,0,0,0,443.243,226.2Zm10.771,4.837,2.327-1.344a.732.732,0,0,0-.008-1.386l-2.341-1.352a2.651,2.651,0,0,0-2.4,0l-2.327,1.343a.732.732,0,0,0,.008,1.386l2.341,1.352A2.651,2.651,0,0,0,454.013,231.034Zm6.029,3.48,2.326-1.344a.731.731,0,0,0-.007-1.385l-2.341-1.352a2.653,2.653,0,0,0-2.4,0l-2.326,1.343a.732.732,0,0,0,.008,1.386l2.34,1.352A2.653,2.653,0,0,0,460.042,234.515Zm6.029,3.48,2.326-1.344a.731.731,0,0,0-.007-1.385l-2.341-1.352a2.653,2.653,0,0,0-2.4,0l-2.326,1.343a.732.732,0,0,0,.007,1.386l2.341,1.352A2.653,2.653,0,0,0,466.071,238Zm6.028,3.48,2.327-1.343a.732.732,0,0,0-.008-1.386l-2.341-1.352a2.651,2.651,0,0,0-2.4,0l-2.327,1.344a.731.731,0,0,0,.008,1.385l2.341,1.352A2.652,2.652,0,0,0,472.1,241.476Zm6.029,3.481,2.326-1.344a.732.732,0,0,0-.007-1.386l-2.341-1.352a2.656,2.656,0,0,0-2.4,0l-2.326,1.344a.732.732,0,0,0,.007,1.386l2.341,1.352A2.656,2.656,0,0,0,478.128,244.957Zm6.029,3.48,2.326-1.344a.731.731,0,0,0-.008-1.385l-2.34-1.353a2.656,2.656,0,0,0-2.4,0l-2.326,1.343a.732.732,0,0,0,.007,1.386l2.341,1.352A2.653,2.653,0,0,0,484.157,248.438Zm1.287,2.124,2.341,1.352a2.651,2.651,0,0,0,2.4,0l2.327-1.344a.731.731,0,0,0-.008-1.385l-2.341-1.352a2.651,2.651,0,0,0-2.4,0l-2.327,1.343A.732.732,0,0,0,485.444,250.562Zm16.7,4.193-5.953-3.437a2.653,2.653,0,0,0-2.4,0l-2.326,1.344a.731.731,0,0,0,.007,1.385l5.953,3.438a2.653,2.653,0,0,0,2.4,0l2.326-1.343A.732.732,0,0,0,502.146,254.755Zm-87.768-38.621,10.726,6.193a3,3,0,0,0,2.711,0l2.017-1.164a.827.827,0,0,0-.009-1.566L419.1,213.409a3,3,0,0,0-2.712-.005l-2.016,1.165A.826.826,0,0,0,414.378,216.133Zm14.725,8.5,2.029,1.171a3,3,0,0,0,2.712,0l2.016-1.164a.826.826,0,0,0-.008-1.565l-2.029-1.172a3,3,0,0,0-2.712,0l-2.016,1.164A.827.827,0,0,0,429.1,224.635Zm6.029,3.48,2.029,1.171a3,3,0,0,0,2.711.005l2.017-1.165a.826.826,0,0,0-.009-1.565l-2.028-1.172a3,3,0,0,0-2.712,0l-2.017,1.164A.827.827,0,0,0,435.132,228.116Zm6.029,3.48,2.028,1.171a3,3,0,0,0,2.712.005l2.016-1.164a.826.826,0,0,0-.008-1.566l-2.029-1.171a3,3,0,0,0-2.712-.005l-2.016,1.164A.826.826,0,0,0,441.161,231.6Zm6.028,3.48,2.029,1.172a3,3,0,0,0,2.712,0l2.016-1.164a.827.827,0,0,0-.008-1.566l-2.029-1.171a3,3,0,0,0-2.712-.005l-2.016,1.165A.826.826,0,0,0,447.189,235.077Zm6.029,3.48,2.029,1.172a2.994,2.994,0,0,0,2.711,0l2.017-1.164a.827.827,0,0,0-.009-1.566l-2.029-1.171a2.994,2.994,0,0,0-2.711,0l-2.017,1.164A.826.826,0,0,0,453.218,238.557Zm6.028,3.481,2.029,1.171a3,3,0,0,0,2.712,0L466,242.05a.826.826,0,0,0-.008-1.565l-2.029-1.172a3,3,0,0,0-2.712,0l-2.016,1.164A.827.827,0,0,0,459.246,242.039Zm6.029,3.48,2.029,1.171a3,3,0,0,0,2.711.005l2.017-1.164a.826.826,0,0,0-.009-1.566L470,242.794a3,3,0,0,0-2.712,0l-2.016,1.164A.826.826,0,0,0,465.275,245.519ZM471.3,249l2.028,1.172a3,3,0,0,0,2.712,0l2.017-1.164a.827.827,0,0,0-.009-1.566l-2.029-1.171a3,3,0,0,0-2.711-.005l-2.017,1.164A.827.827,0,0,0,471.3,249Zm6.028,3.48,2.029,1.172a3,3,0,0,0,2.712,0l2.016-1.164a.827.827,0,0,0-.008-1.566l-2.029-1.171a3,3,0,0,0-2.712-.005l-2.016,1.165A.826.826,0,0,0,477.333,252.48Zm6.029,3.48,2.029,1.172a2.994,2.994,0,0,0,2.711,0l2.017-1.164a.826.826,0,0,0-.009-1.565l-2.029-1.172a2.994,2.994,0,0,0-2.711,0l-2.017,1.164A.826.826,0,0,0,483.362,255.961Zm12.911,2.005-2.028-1.172a3,3,0,0,0-2.712,0l-2.017,1.164a.827.827,0,0,0,.009,1.566l2.029,1.171a2.994,2.994,0,0,0,2.711,0l2.017-1.164A.826.826,0,0,0,496.272,257.966Zm-78.054-38.617-4.7-2.717a3,3,0,0,0-2.712,0l-2.017,1.164a.827.827,0,0,0,.009,1.566l4.7,2.716a2.994,2.994,0,0,0,2.711.005l2.017-1.164A.827.827,0,0,0,418.219,219.349Zm6.029,3.48-2.029-1.171a3,3,0,0,0-2.711-.005l-2.017,1.164a.827.827,0,0,0,.009,1.566l2.028,1.172a3,3,0,0,0,2.712,0l2.017-1.164A.827.827,0,0,0,424.248,222.829Zm6.029,3.481-2.029-1.172a3,3,0,0,0-2.712,0l-2.016,1.164a.826.826,0,0,0,.008,1.565l2.029,1.172a3,3,0,0,0,2.712,0l2.016-1.164A.826.826,0,0,0,430.277,226.311Zm42.2,24.364-38.2-22.056a3,3,0,0,0-2.711,0l-2.017,1.164a.827.827,0,0,0,.009,1.566l38.2,22.055a3,3,0,0,0,2.712.005l2.017-1.164A.827.827,0,0,0,472.477,250.675Zm6.029,3.48-2.029-1.171a3,3,0,0,0-2.712-.005l-2.016,1.165a.826.826,0,0,0,.008,1.565l2.029,1.172a3,3,0,0,0,2.712,0l2.016-1.164A.827.827,0,0,0,478.506,254.155Zm6.028,3.48-2.029-1.171a3,3,0,0,0-2.711-.005l-2.017,1.165a.826.826,0,0,0,.009,1.565l2.029,1.172a2.994,2.994,0,0,0,2.711,0l2.017-1.164A.827.827,0,0,0,484.535,257.636Zm6.154,3.553-2.029-1.171a2.994,2.994,0,0,0-2.711-.005l-2.017,1.164a.827.827,0,0,0,.009,1.566l2.028,1.171a3,3,0,0,0,2.712.005l2.017-1.164A.827.827,0,0,0,490.689,261.189Z" transform="translate(-379.116 -119.453)" fill="#a8cff0"/>
          <g id="Grupo_82296" data-name="Grupo 82296" transform="translate(59.051)">
            <path id="Trazado_119433" data-name="Trazado 119433" d="M527.356,234.578l-79.862-46.136c-3.092-1.785-5.6-6.574-5.6-10.7v-62.65c0-4.123,2.506-6.017,5.6-4.232L527.356,157c3.092,1.786,5.6,6.574,5.6,10.7v62.65C532.955,234.467,530.448,236.362,527.356,234.578Z" transform="translate(-441.896 -109.347)" fill="#a8cff0"/>
            <path id="Trazado_119434" data-name="Trazado 119434" d="M528.469,231.807l-79.011-45.638a9.521,9.521,0,0,1-4.027-7.975V115.239a.993.993,0,0,1,1.495-.855l.176.1,79.073,45.682c2.962,1.708,4.027,4.741,4.027,7.975v62.808a1.072,1.072,0,0,1-1.6.93Z" transform="translate(-442.288 -109.797)" fill="#03336e"/>
            <path id="Trazado_119435" data-name="Trazado 119435" d="M526.175,160.169,447.1,114.487l-.176-.1a.993.993,0,0,0-1.495.855v62.955a9.521,9.521,0,0,0,4.027,7.975l79.011,45.638.131.075a1.072,1.072,0,0,0,1.6-.93V168.144C530.2,164.911,529.137,161.877,526.175,160.169Zm3.4,70.783a.445.445,0,0,1-.445.443.44.44,0,0,1-.218-.059l-79.138-45.712a8.869,8.869,0,0,1-3.713-7.43V115.239a.362.362,0,0,1,.548-.312l79.252,45.787c3.07,1.769,3.714,5.016,3.714,7.43Z" transform="translate(-442.288 -109.797)" fill="#022652"/>
            <path id="Trazado_119436" data-name="Trazado 119436" d="M529.207,156.05l-79.863-46.135a3.783,3.783,0,0,0-3.275-.481c-.117.045-1.679.875-1.788.935l-.005,0a3.66,3.66,0,0,1,3.482.385l79.863,46.135c3.092,1.785,5.6,6.574,5.6,10.7v62.65c0,2.573-.976,4.277-2.462,4.762a.926.926,0,0,0,.491-.166c.07-.041,1.765-1,1.833-1.044,1.063-.745,1.725-2.276,1.725-4.395v-62.65C534.8,162.624,532.3,157.835,529.207,156.05Z" transform="translate(-442.159 -109.242)" fill="#3f92d1"/>
            <path id="Trazado_119437" data-name="Trazado 119437" d="M529.207,156.05l-79.863-46.135a3.783,3.783,0,0,0-3.275-.481c-.117.045-1.679.875-1.788.935l-.005,0a3.66,3.66,0,0,1,3.482.385l79.863,46.135Z" transform="translate(-442.159 -109.242)" fill="#4f9fdb"/>
            <path id="Trazado_119438" data-name="Trazado 119438" d="M527.935,156.848l-79.862-46.135a3.713,3.713,0,0,0-3.372-.431,4.134,4.134,0,0,1,2.7.632l79.863,46.136c3.092,1.785,5.6,6.574,5.6,10.7V230.4c0,2.432-.877,4.08-2.227,4.663,1.727-.274,2.9-2.049,2.9-4.865v-62.65C533.534,163.422,531.027,158.633,527.935,156.848Z" transform="translate(-442.207 -109.331)" fill="#fff" style="mix-blend-mode: screen;isolation: isolate"/>
          </g>
        </g>
        <g id="Grupo_82298" data-name="Grupo 82298" transform="translate(84.656 34.022)">
          <path id="Trazado_119439" data-name="Trazado 119439" d="M470.69,169.171,484.536,201.2l27.994-29.385-10.921-9.242-15.042,25.356-7.1-17.046Z" transform="translate(-470.69 -149.171)" fill="#0fbab8"/>
          <path id="Trazado_119440" data-name="Trazado 119440" d="M493.062,208.567l-1.038-1.221,1.031-.451c1.275-.688,2.489-1.3,3.638-1.879,7.82-3.941,12.1-5.869,13.093-19.888l1.954-1.709.02,1.6c-1.071,15.126-6.29,17.756-14.189,21.737-1.134.573-2.332,1.176-3.59,1.853Z" transform="translate(-473.053 -151.48)" fill="#eb4680"/>
          <path id="Trazado_119441" data-name="Trazado 119441" d="M498,162.316a66.236,66.236,0,0,1-7.168-8.866c-4.906,1.459-10.5.594-16.3-2.509l.312,10.372-1.978-.388-.388-13.424,1.761,1.034c6.022,3.547,11.777,4.533,16.639,2.848l.421-.145.584.335.2.231a64.72,64.72,0,0,0,7.323,9.149Z" transform="translate(-470.888 -147.502)" fill="#eb4680"/>
        </g>
      </g>
      <g id="Grupo_82300" data-name="Grupo 82300" transform="translate(479.266 234.944)">
        <path id="Trazado_119442" data-name="Trazado 119442" d="M530.906,294.321c-3.581,2.874-15.9,4.517-15.9,4.517s-1.086-8.235,2.5-11.11,6.769-1.12,10.472.7S534.487,291.446,530.906,294.321Z" transform="translate(-497.937 -243.874)" fill="#92b4d1" opacity="0.2"/>
        <path id="Trazado_119443" data-name="Trazado 119443" d="M529.65,261.027c-5.993-3.391-11.852-9.174-16.762-16.543l-.067-.038c-4.91,1.7-10.77.717-16.762-2.813l-.229-.134.324,11.2c1.137,17.357,7.057,24.912,16.585,41.048l.232.134c9.528-5.135,15.448-5.854,16.585-21.9l.323-10.824Z" transform="translate(-495.83 -238.922)" fill="#a8cff0"/>
        <path id="Trazado_119444" data-name="Trazado 119444" d="M533.039,258.13c-5.993-3.39-11.852-9.173-16.762-16.543l-.067-.038c-4.91,1.7-10.77.717-16.762-2.813l-.229-.135-3.316,2.613.164.1c5.993,3.529,11.852,4.511,16.762,2.813l.067.038c4.91,7.369,10.77,13.153,16.762,16.543l.229.129-.324,10.824c-.743,10.472-3.523,14.414-8.014,17.317,5.61-3.313,10.56-8.122,11.394-19.892l.324-10.824Z" transform="translate(-495.838 -238.601)" fill="#d1ebff"/>
        <path id="Trazado_119445" data-name="Trazado 119445" d="M535.376,258.627l-.229-.13c-5.993-3.39-11.852-9.173-16.762-16.543l-.067-.038-3.38,2.575.067.038c4.91,7.369,10.77,13.153,16.762,16.543l.229.129Z" transform="translate(-497.946 -238.968)" fill="#d1ebff"/>
        <path id="Trazado_119446" data-name="Trazado 119446" d="M533.082,263.283l-.324,10.824c-.742,10.472-3.523,14.414-8.014,17.317,5.61-3.313,10.56-8.122,11.394-19.892l.324-10.824Z" transform="translate(-499.033 -241.05)" fill="#72b5e8"/>
        <path id="Trazado_119447" data-name="Trazado 119447" d="M512.337,286.465c-6.837-11.34-10.275-17.045-11.1-29.492l-.189-6.534a20.4,20.4,0,0,0,12.389,1.863,55.184,55.184,0,0,0,12.388,12.442l-.19,6.315c-.829,11.49-4.268,13.225-11.106,16.671-.358.181-.722.364-1.093.553Z" transform="translate(-496.408 -239.912)" fill="#084c94"/>
        <path id="Trazado_119448" data-name="Trazado 119448" d="M515.086,287.237l-1.094.553-1.095-1.819c-6.836-11.34-10.276-17.046-11.1-29.492l-.167-5.787c-.194-.083-.388-.165-.582-.253l.189,6.534c.83,12.447,4.268,18.151,11.1,29.492l1.1,1.819c.371-.189.735-.373,1.093-.553a27.99,27.99,0,0,0,6.725-4.143A32.354,32.354,0,0,1,515.086,287.237Z" transform="translate(-496.408 -239.912)" fill="#001a46"/>
        <path id="Trazado_119449" data-name="Trazado 119449" d="M529.892,260.8c-5.993-3.391-11.852-9.173-16.762-16.542l-.066-.038c-4.911,1.7-10.77.717-16.763-2.813l-.218.231c5.982,3.514,11.829,4.491,16.731,2.795l.067.038c4.91,7.369,10.77,13.153,16.762,16.543l.229.129-.324,10.824c-.615,8.69-2.635,12.883-5.871,15.718,3.382-2.838,5.489-7.021,6.121-15.932l.324-10.824Z" transform="translate(-495.858 -238.912)" fill="#fff"/>
      </g>
      <g id="Grupo_82303" data-name="Grupo 82303" transform="translate(353.515 234.944)">
        <path id="Trazado_119451" data-name="Trazado 119451" d="M420.685,275.279a12.471,12.471,0,0,0-5.659-9.761,5.36,5.36,0,0,0-2.293-.763c0-.049.006-.093.006-.143,0-6.943-4.905-15.4-10.956-18.9-3.4-1.962-6.355-1.7-8.438-.309l-3.495,2c-1.975-1.024-3.74-1.017-4.984-.158l-4.7,2.817a5.333,5.333,0,0,1,4.779.684,10.961,10.961,0,0,1,1.144.774c1.429-4.211,5.549-5.476,10.415-2.667,6.051,3.494,10.956,11.955,10.956,18.9,0,.05-.006.094-.006.143a5.359,5.359,0,0,1,2.293.763,12.47,12.47,0,0,1,5.659,9.761,4.271,4.271,0,0,1-1.215,3.316l4.66-2.714-.005-.011C419.975,278.473,420.685,277.175,420.685,275.279Z" transform="translate(-377.72 -244.303)" fill="#72b5e8"/>
        <g id="Grupo_82301" data-name="Grupo 82301" transform="translate(2.648 2.862)">
          <path id="Trazado_119452" data-name="Trazado 119452" d="M411.312,268.828a5.349,5.349,0,0,0-2.293-.764c0-.049.006-.093.006-.142,0-6.944-4.906-15.4-10.956-18.9-2.9-1.674-5.535-1.9-7.493-.919,1.908-.759,4.379-.456,7.079,1.1,6.051,3.494,10.956,11.955,10.956,18.9,0,.05-.006.094-.006.143a5.359,5.359,0,0,1,2.293.763,12.47,12.47,0,0,1,5.659,9.761c0,1.814-.649,3.079-1.694,3.653,1.285-.448,2.107-1.794,2.107-3.837A12.467,12.467,0,0,0,411.312,268.828Z" transform="translate(-381.521 -247.521)" fill="#fff"/>
          <path id="Trazado_119453" data-name="Trazado 119453" d="M384.969,251.4a10.958,10.958,0,0,1,1.144.774c.044-.13.091-.257.14-.381a9.952,9.952,0,0,0-.871-.577c-1.936-1.118-3.693-1.257-4.99-.582A5.486,5.486,0,0,1,384.969,251.4Z" transform="translate(-380.393 -247.821)" fill="#fff"/>
        </g>
        <path id="Trazado_119454" data-name="Trazado 119454" d="M409.441,269.034a5.36,5.36,0,0,0-2.293-.763c0-.049.006-.093.006-.143,0-6.943-4.905-15.4-10.956-18.9-4.866-2.809-8.986-1.545-10.415,2.667a10.954,10.954,0,0,0-1.144-.774c-3.99-2.3-7.224-.46-7.224,4.118a15.918,15.918,0,0,0,7.224,12.461l24.8,14.319c3.126,1.8,5.659.359,5.659-3.226A12.471,12.471,0,0,0,409.441,269.034Z" transform="translate(-377.415 -244.682)" fill="#d1ebff"/>
        <path id="Trazado_119455" data-name="Trazado 119455" d="M412.209,281.2a3.332,3.332,0,0,1-1.628-.533l-24.8-14.32a14.137,14.137,0,0,1-6.31-10.88c0-.988.21-3.286,2.157-3.286a4.853,4.853,0,0,1,2.33.747,9.249,9.249,0,0,1,.952.647l2.017,1.532.815-2.4a3.864,3.864,0,0,1,3.776-2.931,8.271,8.271,0,0,1,4,1.258c5.445,3.143,10.045,11.074,10.045,17.318,0,0-.006.063-.007.121l-.02,1.727,1.723.115a3.637,3.637,0,0,1,1.5.524,10.629,10.629,0,0,1,4.747,8.181,2.973,2.973,0,0,1-.465,1.811.96.96,0,0,1-.83.367Z" transform="translate(-377.642 -244.909)" fill="#3f92d1"/>
        <g id="Grupo_82302" data-name="Grupo 82302" transform="translate(1.825 5.379)">
          <path id="Trazado_119456" data-name="Trazado 119456" d="M388.491,254.716l.815-2.4a4.806,4.806,0,0,1,1.194-1.966,4.375,4.375,0,0,0-1.8,2.421l-.566,1.67Z" transform="translate(-380.427 -250.352)" fill="#2672ab"/>
          <path id="Trazado_119457" data-name="Trazado 119457" d="M412.817,281.065a3.331,3.331,0,0,1-1.628-.533l-24.8-14.32a14.135,14.135,0,0,1-6.31-10.88,4.344,4.344,0,0,1,.745-2.663c-1.2.541-1.353,2.29-1.353,3.119a14.137,14.137,0,0,0,6.31,10.88l24.8,14.32a3.331,3.331,0,0,0,1.628.533.96.96,0,0,0,.83-.367c.028-.034.048-.082.073-.12A1.372,1.372,0,0,1,412.817,281.065Z" transform="translate(-379.467 -250.609)" fill="#2672ab"/>
        </g>
      </g>
      <g id="Grupo_82306" data-name="Grupo 82306" transform="translate(330.23 158.509)">
        <path id="Trazado_119458" data-name="Trazado 119458" d="M344.294,225.286l-11.839-6.467c-1.975-1.14-1.728-3.133.553-4.45h0c2.282-1.317,9.828-1.324,11.8-.183l9.686,5.251c3.032,1.789.03,4.246-2.5,5.528h0C349.72,226.283,346.269,226.426,344.294,225.286Z" transform="translate(-322.326 -177.812)" fill="#92b4d1" opacity="0.2"/>
        <path id="Trazado_119459" data-name="Trazado 119459" d="M342.737,209.519c-5.512-3.183-9.981-10.891-9.981-17.216a7.983,7.983,0,0,1,1.677-5.365c-3.025.219-5.071,2.751-5.071,7.026,0,6.325,4.468,14.032,9.981,17.215,3.464,2,6.5,1.725,8.291-.318A8.66,8.66,0,0,1,342.737,209.519Z" transform="translate(-322.131 -174.886)" fill="#72b5e8"/>
        <path id="Trazado_119460" data-name="Trazado 119460" d="M342.25,209.808c-5.512-3.183-9.982-10.891-9.982-17.216s4.469-8.874,9.982-5.691,9.981,10.891,9.981,17.216S347.762,212.991,342.25,209.808Z" transform="translate(-322.453 -174.73)" fill="#084c94"/>
        <path id="Trazado_119461" data-name="Trazado 119461" d="M351.537,206.208a19.59,19.59,0,0,0-.171-2.42l4.034-.51a36.573,36.573,0,0,0-1.828-6.108l-4.6-1.39a32.258,32.258,0,0,0-2.862-4.935l1.1-4.639a36.763,36.763,0,0,0-4.4-4.64l-2.475,3.2a20.091,20.091,0,0,0-2.022-1.363,15.63,15.63,0,0,0-2.023-.972l-2.475-6.058a12.268,12.268,0,0,0-4.4-.445l1.1,5.912a6.311,6.311,0,0,0-2.861,1.632l-4.6-3.919a12,12,0,0,0-1.828,4l4.034,5.168a15.225,15.225,0,0,0-.171,2.223,19.577,19.577,0,0,0,.171,2.419l-4.034.511a36.418,36.418,0,0,0,1.828,6.107l4.6,1.391a32.287,32.287,0,0,0,2.861,4.934l-1.1,4.64a36.881,36.881,0,0,0,4.4,4.64l2.475-3.2a19.913,19.913,0,0,0,2.023,1.364,15.625,15.625,0,0,0,2.022.972l2.475,6.058a12.248,12.248,0,0,0,4.4.445l-1.1-5.912a6.313,6.313,0,0,0,2.862-1.631l4.6,3.918a12.032,12.032,0,0,0,1.828-4l-4.034-5.168A15.212,15.212,0,0,0,351.537,206.208Zm-13.095,3.747c-5.512-3.183-9.981-10.89-9.981-17.216s4.468-8.873,9.981-5.69,9.982,10.891,9.982,17.216S343.954,213.138,338.442,209.955Z" transform="translate(-321.23 -173.662)" fill="#a8cff0"/>
        <path id="Trazado_119462" data-name="Trazado 119462" d="M341.727,179.994l-2.474-6.058-3.866,2.221,2.474,6.058Z" transform="translate(-322.798 -173.446)" fill="#72b5e8"/>
        <path id="Trazado_119463" data-name="Trazado 119463" d="M338.169,182.969a15.629,15.629,0,0,1,2.023.972,20.091,20.091,0,0,1,2.022,1.363l2.475-3.2h0s-.419-.263-.63-.385a15.618,15.618,0,0,0-2.023-.972Z" transform="translate(-323.106 -174.201)" fill="#d1ebff"/>
        <path id="Trazado_119464" data-name="Trazado 119464" d="M338.7,173.874a12.266,12.266,0,0,0-4.4-.444l-3.866,2.22a12.268,12.268,0,0,1,4.4.445Z" transform="translate(-322.25 -173.385)" fill="#d1ebff"/>
        <path id="Trazado_119465" data-name="Trazado 119465" d="M353.77,184.415a36.881,36.881,0,0,0-4.4-4.64L345.5,182a36.871,36.871,0,0,1,4.4,4.639Z" transform="translate(-323.918 -174.093)" fill="#d1ebff"/>
        <path id="Trazado_119466" data-name="Trazado 119466" d="M350.315,187.214l-1.1,4.639,3.866-2.221,1.1-4.639Z" transform="translate(-324.329 -174.671)" fill="#72b5e8"/>
        <path id="Trazado_119467" data-name="Trazado 119467" d="M349.213,192.431a32.262,32.262,0,0,1,2.862,4.935l3.866-2.221a32.3,32.3,0,0,0-2.862-4.935Z" transform="translate(-324.329 -175.249)" fill="#72b5e8"/>
        <path id="Trazado_119468" data-name="Trazado 119468" d="M352.431,197.981l4.6,1.39,3.866-2.221-4.6-1.39Z" transform="translate(-324.686 -175.864)" fill="#d1ebff"/>
        <path id="Trazado_119469" data-name="Trazado 119469" d="M357.6,199.544a36.591,36.591,0,0,1,1.828,6.107l3.866-2.22a36.567,36.567,0,0,0-1.828-6.107Z" transform="translate(-325.259 -176.037)" fill="#72b5e8"/>
        <path id="Trazado_119470" data-name="Trazado 119470" d="M330.744,182.02l-.32-1.719-3.271-2.789-3.866,2.22,4.6,3.919A6.311,6.311,0,0,1,330.744,182.02Z" transform="translate(-321.458 -173.842)" fill="#72b5e8"/>
        <path id="Trazado_119471" data-name="Trazado 119471" d="M359.429,218.019a12.033,12.033,0,0,1-1.828,4l3.866-2.221a12.028,12.028,0,0,0,1.828-4Z" transform="translate(-325.259 -178.083)" fill="#72b5e8"/>
        <path id="Trazado_119472" data-name="Trazado 119472" d="M358.986,209.621a15.2,15.2,0,0,0,.171-2.222c0-.233-.015-.47-.028-.706l-4.01.508a19.59,19.59,0,0,1,.171,2.42,15.212,15.212,0,0,1-.171,2.222Z" transform="translate(-324.984 -177.074)" fill="#72b5e8"/>
        <path id="Trazado_119473" data-name="Trazado 119473" d="M355.12,212.207l4.034,5.169,3.866-2.221-4.034-5.169Z" transform="translate(-324.984 -177.439)" fill="#d1ebff"/>
        <path id="Trazado_119474" data-name="Trazado 119474" d="M352.075,218.385a6.313,6.313,0,0,1-2.862,1.631l1.1,5.912,3.866-2.221-.781-4.192Z" transform="translate(-324.329 -178.369)" fill="#72b5e8"/>
        <path id="Trazado_119475" data-name="Trazado 119475" d="M325.119,193.544l-3.889,2.283,4.034-.511C325.19,194.719,325.144,194.128,325.119,193.544Z" transform="translate(-321.23 -175.618)" fill="#d1ebff"/>
        <path id="Trazado_119476" data-name="Trazado 119476" d="M337.861,216.928l-2.475,3.2,3.895-2.217C338.8,217.6,338.327,217.28,337.861,216.928Z" transform="translate(-322.798 -178.208)" fill="#72b5e8"/>
        <g id="Grupo_82304" data-name="Grupo 82304" transform="translate(0.195 2.203)" style="mix-blend-mode: color-dodge;isolation: isolate">
          <path id="Trazado_119477" data-name="Trazado 119477" d="M331.076,182.874l-.011-.06c-.184.07-.36.155-.535.242C330.71,182.991,330.888,182.923,331.076,182.874Z" transform="translate(-322.455 -176.632)" fill="#fff"/>
          <path id="Trazado_119478" data-name="Trazado 119478" d="M324.8,195.614l-3.349.423c.012.065.03.131.044.2l3.325-.421C324.809,195.746,324.806,195.68,324.8,195.614Z" transform="translate(-321.449 -178.05)" fill="#fff"/>
          <path id="Trazado_119479" data-name="Trazado 119479" d="M349.693,187.162l-1.1,4.639a32.347,32.347,0,0,1,2.862,4.935l4.6,1.391a36.641,36.641,0,0,1,1.785,5.913l.455-.076a36.567,36.567,0,0,0-1.828-6.107l-4.6-1.391A32.347,32.347,0,0,0,349,191.531l1.1-4.639a36.88,36.88,0,0,0-4.4-4.64l-.152.51A37.089,37.089,0,0,1,349.693,187.162Z" transform="translate(-324.118 -176.57)" fill="#fff"/>
          <path id="Trazado_119480" data-name="Trazado 119480" d="M339.334,211.224c-5.512-3.183-9.981-10.891-9.981-17.216,0-2.794.877-4.842,2.327-5.99-1.675,1.079-2.706,3.231-2.706,6.26,0,6.325,4.468,14.033,9.981,17.216,2.783,1.607,5.3,1.749,7.108.686-.133.041-.274.068-.413.1C343.929,212.9,341.732,212.607,339.334,211.224Z" transform="translate(-322.282 -177.209)" fill="#fff"/>
          <path id="Trazado_119481" data-name="Trazado 119481" d="M350.048,219.849a6.268,6.268,0,0,0,1.819-1.019l-.17-.145A6.3,6.3,0,0,1,350.048,219.849Z" transform="translate(-324.617 -180.605)" fill="#fff"/>
          <path id="Trazado_119482" data-name="Trazado 119482" d="M327.744,184.03c-.167.007,0-.131.17-.268l-4.427-3.773c-.125.174-.238.364-.03.387Z" transform="translate(-321.659 -176.319)" fill="#fff"/>
          <path id="Trazado_119483" data-name="Trazado 119483" d="M349.085,220.491l1.055,5.657c-.122-.006.118-.009.351-.031l-1.09-5.851C349.18,220.35,348.957,220.43,349.085,220.491Z" transform="translate(-324.506 -180.78)" fill="#fff" style="mix-blend-mode: color-dodge;isolation: isolate"/>
          <path id="Trazado_119484" data-name="Trazado 119484" d="M355.462,209.687a18.987,18.987,0,0,0-.151-2.221l-.4.03a19.771,19.771,0,0,1,.171,2.42,15.33,15.33,0,0,1-.171,2.222l4.034,5.169a12.317,12.317,0,0,1-1.473,3.448l.027.32a12.019,12.019,0,0,0,1.828-4l-4.034-5.169A15.311,15.311,0,0,0,355.462,209.687Z" transform="translate(-325.155 -179.363)" fill="#fff"/>
          <path id="Trazado_119485" data-name="Trazado 119485" d="M334.694,176.531l2.474,6.058a15.624,15.624,0,0,1,2.023.971,20.011,20.011,0,0,1,2.022,1.364l.077-.384a18.953,18.953,0,0,0-1.737-1.159,15.562,15.562,0,0,0-2.022-.972l-2.475-6.057a12.251,12.251,0,0,0-4.4-.445l.048.254A14.4,14.4,0,0,1,334.694,176.531Z" transform="translate(-322.468 -175.862)" fill="#fff"/>
          <path id="Trazado_119486" data-name="Trazado 119486" d="M337.382,217.228l-2.069,2.677c.087.078.172.163.26.239l2.1-2.71C337.573,217.364,337.477,217.3,337.382,217.228Z" transform="translate(-322.985 -180.444)" fill="#fff"/>
        </g>
        <g id="Grupo_82305" data-name="Grupo 82305" transform="translate(14.826 18.31)">
          <path id="Trazado_119487" data-name="Trazado 119487" d="M343.289,194.564a3.054,3.054,0,0,0-2.988-.331c-.021.012-2.364,1.389-2.4,1.442a2.883,2.883,0,0,1,3.243.165,9.428,9.428,0,0,1,4.279,7.382,2.939,2.939,0,0,1-1.3,2.774.971.971,0,0,0,.209-.092l2.035-1.243a3.006,3.006,0,0,0,1.2-2.718A9.43,9.43,0,0,0,343.289,194.564Z" transform="translate(-337.903 -193.976)" fill="#4f9fdb"/>
        </g>
        <path id="Trazado_119488" data-name="Trazado 119488" d="M341.017,196c-2.364-1.365-4.28-.272-4.28,2.44a9.428,9.428,0,0,0,4.28,7.381c2.364,1.365,4.279.272,4.279-2.439A9.428,9.428,0,0,0,341.017,196Z" transform="translate(-322.948 -175.825)" fill="#a8cff0"/>
        <path id="Trazado_119489" data-name="Trazado 119489" d="M341.167,196a2.988,2.988,0,0,0-3.074-.277,3.2,3.2,0,0,1,2.77.429,9.428,9.428,0,0,1,4.279,7.382,3,3,0,0,1-1.206,2.716,2.821,2.821,0,0,0,1.51-2.868A9.428,9.428,0,0,0,341.167,196Z" transform="translate(-323.098 -175.825)" fill="#fff"/>
      </g>
      <g id="Grupo_82317" data-name="Grupo 82317" transform="translate(381.289 126.921)">
        <path id="Trazado_119490" data-name="Trazado 119490" d="M415.5,188.742,388.64,173.661c-1.47-.849-1.285-2.331.412-3.311h0c1.7-.98,7.31-.985,8.78-.137l25.253,14.179c2.256,1.331.023,3.159-1.856,4.113h0A6.373,6.373,0,0,1,415.5,188.742Z" transform="translate(-387.648 -133.606)" fill="#92b4d1" opacity="0.2"/>
        <g id="Grupo_82307" data-name="Grupo 82307" transform="translate(0.096 0)">
          <path id="Trazado_119491" data-name="Trazado 119491" d="M415.035,184.187l-24.224-14.119a7.317,7.317,0,0,1-3.055-5.838V132.625c0-2.25,1.368-3.284,3.055-2.309l24.224,14.119a7.316,7.316,0,0,1,3.055,5.837v31.606C418.09,184.128,416.722,185.162,415.035,184.187Z" transform="translate(-387.756 -129.214)" fill="#a8cff0"/>
          <path id="Trazado_119492" data-name="Trazado 119492" d="M415.642,182.791l-23.759-13.848a5.2,5.2,0,0,1-2.2-4.352V133.8a.542.542,0,0,1,.815-.467l.1.056,23.793,13.872a4.7,4.7,0,0,1,2.2,4.352v30.708a.585.585,0,0,1-.874.508Z" transform="translate(-387.97 -129.581)" fill="#084c94"/>
          <path id="Trazado_119493" data-name="Trazado 119493" d="M416.2,182.432l-.071-.041-23.759-13.848a5.194,5.194,0,0,1-2.2-4.352V133.4a.572.572,0,0,1,.019-.138.538.538,0,0,0-.507.537v30.788a5.2,5.2,0,0,0,2.2,4.352l23.759,13.848.072.041a.584.584,0,0,0,.845-.331A.566.566,0,0,1,416.2,182.432Z" transform="translate(-387.97 -129.582)" fill="#001a46"/>
          <path id="Trazado_119494" data-name="Trazado 119494" d="M416.618,143.609l-24.224-14.119a2.067,2.067,0,0,0-1.787-.262c-.064.025-1.489.751-1.549.784l0,0a2,2,0,0,1,1.9.211l24.224,14.119a7.316,7.316,0,0,1,3.055,5.837v31.606c0,1.4-.533,2.334-1.343,2.6a.514.514,0,0,0,.268-.091c.038-.022,1.536-.818,1.573-.844a2.823,2.823,0,0,0,.942-2.4V149.447A7.32,7.32,0,0,0,416.618,143.609Z" transform="translate(-387.9 -129.123)" fill="#3f92d1"/>
          <path id="Trazado_119495" data-name="Trazado 119495" d="M416.618,143.609l-24.224-14.119a2.067,2.067,0,0,0-1.787-.262c-.064.025-1.489.751-1.549.784l0,0a2,2,0,0,1,1.9.211l24.224,14.119Z" transform="translate(-387.9 -129.123)" fill="#4f9fdb"/>
          <path id="Trazado_119496" data-name="Trazado 119496" d="M415.352,144.352l-24.224-14.119a2.028,2.028,0,0,0-1.841-.235,2.259,2.259,0,0,1,1.474.345l24.223,14.119a7.317,7.317,0,0,1,3.055,5.838v31.605a2.567,2.567,0,0,1-1.215,2.545c.943-.149,1.581-1.118,1.581-2.655V150.19A7.319,7.319,0,0,0,415.352,144.352Z" transform="translate(-387.926 -129.206)" fill="#fff" style="mix-blend-mode: screen;isolation: isolate"/>
        </g>
        <g id="Grupo_82308" data-name="Grupo 82308" transform="translate(14.984 25.753)">
          <path id="Trazado_119497" data-name="Trazado 119497" d="M405.033,168.481a.534.534,0,0,1-.521-.651,40.99,40.99,0,0,0,.94-9v-.213a.533.533,0,1,1,1.066,0v.213a42.088,42.088,0,0,1-.966,9.235A.532.532,0,0,1,405.033,168.481Z" transform="translate(-404.499 -158.084)" fill="#a8cff0"/>
        </g>
        <g id="Grupo_82309" data-name="Grupo 82309" transform="translate(11.18 22.125)">
          <path id="Trazado_119498" data-name="Trazado 119498" d="M400.755,171.635a.51.51,0,0,1-.126-.015.533.533,0,0,1-.393-.644,71.122,71.122,0,0,0,1.586-14.632,2.771,2.771,0,0,1,.892-2.222.534.534,0,0,1,.67.831,1.751,1.751,0,0,0-.5,1.392,72.325,72.325,0,0,1-1.616,14.882A.533.533,0,0,1,400.755,171.635Z" transform="translate(-400.221 -154.004)" fill="#a8cff0"/>
        </g>
        <g id="Grupo_82310" data-name="Grupo 82310" transform="translate(15.8 22.21)">
          <path id="Trazado_119499" data-name="Trazado 119499" d="M408.969,160.373a.534.534,0,0,1-.534-.534,6.166,6.166,0,0,0-2.752-4.745.533.533,0,0,1,.534-.924,7.142,7.142,0,0,1,3.285,5.669A.533.533,0,0,1,408.969,160.373Z" transform="translate(-405.416 -154.099)" fill="#a8cff0"/>
        </g>
        <g id="Grupo_82311" data-name="Grupo 82311" transform="translate(16.641 31.744)">
          <path id="Trazado_119500" data-name="Trazado 119500" d="M406.9,176.792a.522.522,0,0,1-.122-.013.533.533,0,0,1-.4-.64,106.279,106.279,0,0,0,1.878-10.844.533.533,0,1,1,1.059.122,106.851,106.851,0,0,1-1.9,10.963A.533.533,0,0,1,406.9,176.792Z" transform="translate(-406.362 -164.821)" fill="#a8cff0"/>
        </g>
        <g id="Grupo_82312" data-name="Grupo 82312" transform="translate(5.876 14.388)">
          <path id="Trazado_119501" data-name="Trazado 119501" d="M411.954,175.639a.556.556,0,0,1-.137-.018.534.534,0,0,1-.379-.653,49.071,49.071,0,0,0,1.523-12.564v-.213c0-5.385-3.819-11.973-8.514-14.684-2.184-1.261-4.206-1.481-5.695-.622-1.474.851-2.285,2.686-2.285,5.166a51.744,51.744,0,0,1-1.156,11.191.534.534,0,0,1-1.042-.231,50.629,50.629,0,0,0,1.132-10.96c0-2.878,1-5.041,2.819-6.09s4.232-.838,6.761.622c4.989,2.881,9.047,9.882,9.047,15.608v.213a50.146,50.146,0,0,1-1.558,12.837A.534.534,0,0,1,411.954,175.639Z" transform="translate(-394.256 -145.303)" fill="#a8cff0"/>
        </g>
        <g id="Grupo_82313" data-name="Grupo 82313" transform="translate(8.35 30.318)">
          <path id="Trazado_119502" data-name="Trazado 119502" d="M397.572,169.4a.575.575,0,0,1-.132-.017.534.534,0,0,1-.384-.65,46.387,46.387,0,0,0,1-5.057.543.543,0,0,1,.6-.454.533.533,0,0,1,.453.6A47.2,47.2,0,0,1,398.088,169,.533.533,0,0,1,397.572,169.4Z" transform="translate(-397.038 -163.217)" fill="#a8cff0"/>
        </g>
        <g id="Grupo_82314" data-name="Grupo 82314" transform="translate(9.551 19.344)">
          <path id="Trazado_119503" data-name="Trazado 119503" d="M398.924,161.371a.435.435,0,0,1-.06,0,.534.534,0,0,1-.472-.59,58.481,58.481,0,0,0,.346-6.443,5.552,5.552,0,0,1,.887-3.233.533.533,0,0,1,.87.618,4.511,4.511,0,0,0-.691,2.615,59.978,59.978,0,0,1-.35,6.562A.534.534,0,0,1,398.924,161.371Z" transform="translate(-398.389 -150.876)" fill="#a8cff0"/>
        </g>
        <g id="Grupo_82315" data-name="Grupo 82315" transform="translate(12.333 18.096)">
          <path id="Trazado_119504" data-name="Trazado 119504" d="M410.6,157.62a.534.534,0,0,1-.5-.337,12.4,12.4,0,0,0-4.854-6.006,4.169,4.169,0,0,0-3.066-.653.533.533,0,1,1-.268-1.032,5.2,5.2,0,0,1,3.867.761,13.315,13.315,0,0,1,5.312,6.536.535.535,0,0,1-.5.731Z" transform="translate(-401.518 -149.473)" fill="#a8cff0"/>
        </g>
        <g id="Grupo_82316" data-name="Grupo 82316" transform="translate(19.52 29.08)">
          <path id="Trazado_119505" data-name="Trazado 119505" d="M410.134,177.448a.534.534,0,0,1-.506-.7l.117-.355a43.953,43.953,0,0,0,2.034-13.82v-.212a.534.534,0,1,1,1.067,0v.212a45.038,45.038,0,0,1-2.088,14.157l-.118.356A.534.534,0,0,1,410.134,177.448Z" transform="translate(-409.6 -161.825)" fill="#a8cff0"/>
        </g>
      </g>
    </g>
  </g>
</svg>
