<svg id="Grupo_83795" data-name="Grupo 83795" xmlns="http://www.w3.org/2000/svg" width="328" height="306.214" viewBox="0 0 328 306.214">
  <rect id="Rectángulo_34385" data-name="Rectángulo 34385" width="328" height="305.865" transform="translate(0 0)" fill="#d5cef8"/>
  <g id="Grupo_83794" data-name="Grupo 83794" transform="translate(0.001 0)">
    <g id="Grupo_80172" data-name="Grupo 80172" transform="translate(0 0)">
      <path id="hacker-working-in-the-darkness" d="M0,66.349H39.557A42.447,42.447,0,0,1,85,38.692V.189Q82.251,0,79.455,0A80.757,80.757,0,0,0,0,66.349Z" transform="translate(84.999 66.349) rotate(180)" fill="#ab9df1"/>
      <ellipse id="Elipse_4720" data-name="Elipse 4720" cx="2.576" cy="2.576" rx="2.576" ry="2.576" transform="translate(69.791 15.87) rotate(180)" fill="#ab9df1"/>
    </g>
    <g id="Grupo_80173" data-name="Grupo 80173" transform="translate(327.999 306.215) rotate(180)">
      <path id="hacker-working-in-the-darkness-2" data-name="hacker-working-in-the-darkness" d="M0,66.349H39.557A42.447,42.447,0,0,1,85,38.692V.189Q82.251,0,79.455,0A80.757,80.757,0,0,0,0,66.349Z" transform="translate(84.999 66.349) rotate(180)" fill="#ab9df1"/>
      <ellipse id="Elipse_4720-2" data-name="Elipse 4720" cx="2.576" cy="2.576" rx="2.576" ry="2.576" transform="translate(69.791 15.87) rotate(180)" fill="#ab9df1"/>
    </g>
  </g>
</svg>
