<svg xmlns="http://www.w3.org/2000/svg" xmlns:xlink="http://www.w3.org/1999/xlink" width="67" height="73" viewBox="0 0 67 73">
  <defs>
    <clipPath id="clip-path">
      <rect id="Rect치ngulo_33810" data-name="Rect치ngulo 33810" width="55" height="55" transform="translate(303 8239)" fill="#2ff980"/>
    </clipPath>
  </defs>
  <g id="Grupo_81330" data-name="Grupo 81330" transform="translate(-303 -8248.295)">
    <rect id="Rect치ngulo_34185" data-name="Rect치ngulo 34185" width="67" height="73" rx="5" transform="translate(303 8248.295)" fill="#fff"/>
    <g id="Enmascarar_grupo_96" data-name="Enmascarar grupo 96" transform="translate(6 18.295)" clip-path="url(#clip-path)">
      <g id="ip" transform="translate(304.504 8239)">
        <path id="Trazado_115078" data-name="Trazado 115078" d="M26.231,35.327A24.922,24.922,0,0,1,51.152,60.252H1.309A24.924,24.924,0,0,1,26.231,35.327Zm0,0" transform="translate(-0.235 -6.327)" fill="#bdd9ff" fill-rule="evenodd"/>
        <path id="Trazado_115079" data-name="Trazado 115079" d="M28.516,21.474a.977.977,0,0,1-.3.716,1.027,1.027,0,0,1-1.757-.729v-7.28a1.027,1.027,0,0,1,.311-.729.98.98,0,0,1,.729-.324.959.959,0,0,1,.717.311,1.036,1.036,0,0,1,.3.742Zm0,0" transform="translate(-4.74 -2.351)"/>
        <path id="Trazado_115080" data-name="Trazado 115080" d="M33.059,19.294v2.067a1.022,1.022,0,0,1-1.75.723,1.017,1.017,0,0,1-.3-.748V14.209a1.042,1.042,0,0,1,.311-.767,1.028,1.028,0,0,1,.754-.311h2.409a3.235,3.235,0,0,1,2.333.862,2.969,2.969,0,0,1,.9,2.245,2.981,2.981,0,0,1-.85,2.213,3.064,3.064,0,0,1-2.258.843Zm0-4.325v2.524h1.306a1.181,1.181,0,0,0,.862-.368,1.2,1.2,0,0,0,.368-.875,1.282,1.282,0,0,0-.349-.907,1.14,1.14,0,0,0-.869-.374Zm0,0" transform="translate(-5.553 -2.352)"/>
        <path id="Trazado_115081" data-name="Trazado 115081" d="M26.745,48.369a4.044,4.044,0,0,0,8.081,0c0-.061.006-.119.006-.18a4.046,4.046,0,0,0-2.649-3.8c-.49.548-.959,1.075-1.4,1.574-.439-.5-.9-1.023-1.394-1.574a4.041,4.041,0,0,0-2.649,3.8c0,.061,0,.119,0,.18Zm0,0" transform="translate(-4.79 -7.951)" fill="#cbe558" fill-rule="evenodd"/>
        <path id="Trazado_115082" data-name="Trazado 115082" d="M22.769,31.591c1.519,1.83,3.054,3.55,4.418,5.085.49.551.956,1.078,1.394,1.574.438-.5.907-1.026,1.4-1.574,1.364-1.535,2.9-3.255,4.421-5.085.374-.451.752-.91,1.123-1.376,3.8-4.756,7.2-10.091,7.2-14.759a14.146,14.146,0,1,0-28.292,0c0,4.653,3.41,9.993,7.21,14.755q.557.7,1.123,1.379Zm5.813-6.458a9.5,9.5,0,1,1,9.5-9.5,9.5,9.5,0,0,1-9.5,9.5Zm0,0" transform="translate(-2.586 -0.234)" fill="#f46370" fill-rule="evenodd"/>
        <path id="Trazado_115083" data-name="Trazado 115083" d="M46.967,38.555a1.075,1.075,0,1,0-1.733,1.272,23.678,23.678,0,0,1,3.506,6.9,23.977,23.977,0,0,0-9.892-5.661c-.111-.347-.225-.691-.345-1.029a23.317,23.317,0,0,0-5.215-8.769l.032-.039a23.752,23.752,0,0,1,6.473,3.247,1.075,1.075,0,1,0,1.245-1.753,25.9,25.9,0,0,0-6.3-3.284c3.536-4.6,6.478-9.615,6.478-14.212a15.221,15.221,0,1,0-30.441,0c0,3.27,1.5,7.053,4.573,11.565.609.893,1.255,1.776,1.92,2.645A26.222,26.222,0,0,0,5.318,38.166,25.765,25.765,0,0,0,0,53.925,1.075,1.075,0,0,0,1.075,55H50.917a1.075,1.075,0,0,0,1.075-1.075,25.792,25.792,0,0,0-5.025-15.37Zm-10.637,1.8a41.94,41.94,0,0,0-5.276-.916,5.148,5.148,0,0,0-1.971-3.283c.914-1.028,1.869-2.112,2.825-3.237a21.027,21.027,0,0,1,4.422,7.436Zm-23.4-25.135a13.071,13.071,0,1,1,26.142,0c0,6.5-7.426,14.832-12.339,20.349L26,36.392l-.706-.793c-4.924-5.533-12.366-13.894-12.366-20.377Zm9.986,20.936a5.147,5.147,0,0,0-1.97,3.283,41.836,41.836,0,0,0-5.28.916,21.022,21.022,0,0,1,4.427-7.441c.966,1.14,1.922,2.227,2.823,3.242ZM11.249,52.85H2.24c.627-3.758,4.5-7.144,10.195-9.26a43.614,43.614,0,0,0-1.185,9.26ZM3.288,46.685a23.97,23.97,0,0,1,15.4-15.462l.027.034a23.3,23.3,0,0,0-5.221,8.774c-.12.339-.235.684-.346,1.032a24.031,24.031,0,0,0-9.855,5.623ZM24.921,52.85H13.4A40.848,40.848,0,0,1,14.869,42.8a38.578,38.578,0,0,1,6.187-1.206,5.109,5.109,0,0,0,3.866,3.655V52.85ZM26.3,43.192a2.969,2.969,0,0,1-1.954-5.421q.437.492.843.954a1.075,1.075,0,0,0,1.616,0c.27-.308.553-.627.844-.955a2.969,2.969,0,0,1-1.343,5.421H26.3c-.044,0,0,0,0,0-.157.016,0,0,0,0Zm.772,9.658V45.245a5.107,5.107,0,0,0,3.813-3.479c0-.014.008-.029.013-.043.013-.044.027-.088.039-.133a38.56,38.56,0,0,1,6.187,1.205,40.837,40.837,0,0,1,1.471,10.056Zm13.672,0a43.621,43.621,0,0,0-1.186-9.26c5.691,2.117,9.568,5.5,10.2,9.26Zm0,0" transform="translate(0 0)"/>
        <path id="Trazado_115084" data-name="Trazado 115084" d="M29.362,27.026A10.573,10.573,0,1,1,39.936,16.454,10.583,10.583,0,0,1,29.362,27.026Zm0-19a8.424,8.424,0,1,0,8.425,8.425,8.433,8.433,0,0,0-8.425-8.425Zm0,0" transform="translate(-3.365 -1.053)"/>
        <path id="Trazado_115085" data-name="Trazado 115085" d="M52.9,45.063a1.073,1.073,0,0,1-.84-.4l-.012-.015A1.075,1.075,0,0,1,53.722,43.3l.012.016a1.075,1.075,0,0,1-.839,1.746Zm0,0" transform="translate(-9.279 -7.683)"/>
      </g>
    </g>
  </g>
</svg>
