<svg xmlns="http://www.w3.org/2000/svg" width="378" height="88" viewBox="0 0 378 88">
  <g id="Grupo_80755" data-name="Grupo 80755" transform="translate(-180 -1521)">
    <path id="Rectángulo_33981" data-name="Rectángulo 33981" d="M0,0H334a44,44,0,0,1,44,44v0a44,44,0,0,1-44,44H0a0,0,0,0,1,0,0V0A0,0,0,0,1,0,0Z" transform="translate(180 1521)" fill="#40327b"/>
    <path id="hacker-working-in-the-darkness" d="M0,29.662H40.618c6.049-7.3,22.107-12.526,40.968-12.526q2.894,0,5.693.161V.084Q84.458,0,81.587,0C40.844,0,6.967,12.8,0,29.662Z" transform="translate(209.662 1521) rotate(90)" fill="#583ae2"/>
    <g id="Elipse_4717" data-name="Elipse 4717" transform="translate(196 1580)" fill="none" stroke="#2ff980" stroke-width="5">
      <ellipse cx="12" cy="12.5" rx="12" ry="12.5" stroke="none"/>
      <ellipse cx="12" cy="12.5" rx="9.5" ry="10" fill="none"/>
    </g>
    <circle id="Elipse_4718" data-name="Elipse 4718" cx="2.25" cy="2.25" r="2.25" transform="translate(193.331 1526)" fill="#2ff980"/>
  </g>
</svg>
