<svg xmlns="http://www.w3.org/2000/svg" width="295" height="185.333" viewBox="0 0 295 185.333">
  <g id="Grupo_84774" data-name="Grupo 84774" transform="translate(-495 -6568.443)">
    <rect id="Imagen_25" data-name="Imagen 25" width="295" height="135" rx="19" transform="translate(495 6588.205)" fill="#583ae2"/>
    <g id="Grupo_82376" data-name="Grupo 82376">
      <g id="Grupo_82372" data-name="Grupo 82372" transform="translate(586.072 6568.443)">
        <path id="Trazado_119616" data-name="Trazado 119616" d="M400.107,290.917c-12.072,9.694-53.62,15.232-53.62,15.232s-3.661-27.768,8.413-37.462,22.827-3.778,35.309,2.36S412.182,281.223,400.107,290.917Z" transform="translate(-288.942 -120.815)" fill="#92b4d1" opacity="0.2"/>
        <path id="Trazado_119617" data-name="Trazado 119617" d="M440.982,284.694c-20.206-11.433-39.96-30.934-56.52-55.782l-.222-.129c-16.56,5.727-36.314,2.417-56.52-9.484l-.774-.453,1.091,37.753c3.835,58.526,23.8,84,55.923,138.409l.779.453c32.128-17.313,52.088-19.738,55.923-73.835l1.091-36.5Z" transform="translate(-326.947 -210.16)" fill="#a8cff0"/>
        <path id="Trazado_119618" data-name="Trazado 119618" d="M452.238,281.8c-20.209-11.43-39.963-30.931-56.523-55.779l-.222-.129c-16.557,5.727-36.313,2.417-56.52-9.484l-.774-.456-11.181,8.812.558.327c20.206,11.9,39.962,15.211,56.52,9.484l.222.129c16.56,24.848,36.313,44.349,56.523,55.782l.771.435-1.091,36.5c-2.5,35.309-11.88,48.6-27.018,58.391,18.917-11.172,35.6-27.387,38.415-67.074l1.091-36.5Z" transform="translate(-326.803 -215.949)" fill="#d1ebff"/>
        <path id="Trazado_119619" data-name="Trazado 119619" d="M414.967,275.61l-.771-.438c-20.209-11.43-39.962-30.931-56.523-55.779l-.222-.129-11.4,8.683.222.129c16.56,24.848,36.313,44.349,56.523,55.782l.771.435Z" transform="translate(-288.762 -209.324)" fill="#d1ebff"/>
        <path id="Trazado_119620" data-name="Trazado 119620" d="M383.972,246.739l-1.091,36.5c-2.5,35.309-11.88,48.6-27.018,58.391,18.917-11.172,35.6-27.387,38.415-67.074l1.091-36.5Z" transform="translate(-269.164 -171.771)" fill="#72b5e8"/>
        <path id="Trazado_119621" data-name="Trazado 119621" d="M370.242,349.261c-23.055-38.238-34.649-57.473-37.444-99.442l-.639-22.032c14.8,6.692,28.991,8.827,41.773,6.282,12.782,17.3,26.971,31.555,41.771,41.953l-.636,21.295c-2.8,38.745-14.392,44.592-37.447,56.214q-1.812.913-3.688,1.865Q372.049,352.27,370.242,349.261Z" transform="translate(-316.529 -192.292)" fill="#084c94"/>
        <path id="Trazado_119622" data-name="Trazado 119622" d="M379.508,351.863c-1.205.612-2.432,1.229-3.685,1.865q-1.884-3.126-3.694-6.132c-23.052-38.238-34.646-57.476-37.444-99.445l-.564-19.514c-.654-.279-1.3-.555-1.961-.852l.639,22.032c2.794,41.968,14.389,61.2,37.444,99.442q1.808,3,3.691,6.135,1.88-.954,3.688-1.865c9.406-4.743,16.9-8.524,22.674-13.969C394.805,344.146,387.924,347.624,379.508,351.863Z" transform="translate(-316.529 -192.292)" fill="#001a46"/>
        <path id="Trazado_119623" data-name="Trazado 119623" d="M441.2,284.149c-20.206-11.433-39.962-30.931-56.52-55.779l-.225-.129c-16.557,5.727-36.314,2.417-56.52-9.484l-.738.78c20.17,11.85,39.888,15.142,56.418,9.424l.222.129c16.557,24.848,36.314,44.349,56.52,55.782l.774.435-1.091,36.5c-2.078,29.3-8.887,43.441-19.8,53,11.4-9.571,18.506-23.675,20.638-53.719l1.088-36.5Z" transform="translate(-326.443 -210.338)" fill="#fff"/>
      </g>
      <g id="Grupo_82373" data-name="Grupo 82373" transform="translate(575.178 6688.817)">
        <path id="Trazado_119624" data-name="Trazado 119624" d="M438.986,315.638l-21.5-12.376c-2.237-1.292-1.957-3.548.626-5.04h0c2.583-1.491,11.131-1.5,13.368-.208l19.063,11c3.435,2.027.034,4.809-2.827,6.262h0C445.132,316.768,441.224,316.93,438.986,315.638Z" transform="translate(-415.974 -260.217)" fill="#92b4d1" opacity="0.2"/>
        <path id="Trazado_119625" data-name="Trazado 119625" d="M447.39,288.042,416.3,276.448V299.5a2.029,2.029,0,0,0,1.213,2.009l21.023,12.176a7.9,7.9,0,0,0,7.105-.3h0a2.988,2.988,0,0,0,1.738-2.241l.01,0Z" transform="translate(-415.998 -258.614)" fill="#a8cff0"/>
        <path id="Trazado_119626" data-name="Trazado 119626" d="M438.537,290.253l-21.023-12.175c-1.821-1.051-1.593-2.889.51-4.1h0a7.9,7.9,0,0,1,7.105-.3l21.023,12.176c1.821,1.051,1.593,2.888-.51,4.1h0A7.9,7.9,0,0,1,438.537,290.253Z" transform="translate(-415.998 -258.344)" fill="#d1ebff"/>
        <path id="Trazado_119627" data-name="Trazado 119627" d="M445.643,289.937a7.9,7.9,0,0,1-7.105.294l-21.023-12.176a2.172,2.172,0,0,1-1.216-1.625,2.037,2.037,0,0,0,1.216,1.98l21.023,12.176a7.9,7.9,0,0,0,7.105-.3c1.226-.707,1.81-1.625,1.727-2.477A3.092,3.092,0,0,1,445.643,289.937Z" transform="translate(-415.998 -258.613)" fill="#fff"/>
        <g id="Grupo_82347" data-name="Grupo 82347" transform="translate(4.715)">
          <path id="Trazado_119628" data-name="Trazado 119628" d="M434.29,258.3h0a8.807,8.807,0,0,0-13.2,7.631v9.552h0l0,.014c0,.936,1.294,1.691,2.891,1.691s2.89-.754,2.89-1.684c0-.011,0-.021,0-.033h.031v-8.306a3.732,3.732,0,0,1,5.591-3.236h0a9.306,9.306,0,0,1,4.67,8.07v12.736h.03c.032.914,1.311,1.649,2.889,1.649s2.874-.744,2.889-1.667h0v-11.4A17.326,17.326,0,0,0,434.29,258.3Z" transform="translate(-421.087 -257.111)" fill="#084c94"/>
          <g id="Grupo_82345" data-name="Grupo 82345" transform="translate(12.494 5.329)">
            <path id="Trazado_119629" data-name="Trazado 119629" d="M435.173,263.159a5.156,5.156,0,0,0-.539-.27,10.148,10.148,0,0,1,4.478,8.4v14.945a3.506,3.506,0,0,0,1.129.414V271.925A10.141,10.141,0,0,0,435.173,263.159Z" transform="translate(-434.634 -262.889)" fill="#2672ab"/>
          </g>
          <g id="Grupo_82346" data-name="Grupo 82346" transform="translate(2.399 4.067)">
            <path id="Trazado_119630" data-name="Trazado 119630" d="M428.451,261.52a4.737,4.737,0,0,0-4.732,4.732v9.975l-.03,1.035a4.059,4.059,0,0,0,1.657-.2l.03-1.035v-9.976a4.739,4.739,0,0,1,3.344-4.524C428.63,261.524,428.54,261.52,428.451,261.52Z" transform="translate(-423.689 -261.52)" fill="#03336e"/>
          </g>
          <path id="Trazado_119631" data-name="Trazado 119631" d="M431.172,259.216a9.149,9.149,0,0,1,4.3,1.078,16.331,16.331,0,0,0-1.594-1.05,7.7,7.7,0,0,0-3.886-1.056,7.844,7.844,0,0,0-7.826,7.825v.022A9.451,9.451,0,0,1,431.172,259.216Z" transform="translate(-421.171 -257.194)" fill="#2672ab"/>
          <path id="Trazado_119632" data-name="Trazado 119632" d="M442.393,276.207l0,11.177a3.571,3.571,0,0,0,1.447-.5.952.952,0,0,0,.1-.392v-11.4C443.939,270.158,442.393,271.183,442.393,276.207Z" transform="translate(-422.743 -258.258)" fill="#03336e"/>
        </g>
        <path id="Trazado_119633" data-name="Trazado 119633" d="M432.9,295.688a6.279,6.279,0,0,0-2.85-4.917c-1.574-.909-2.851-.182-2.851,1.625a6.2,6.2,0,0,0,1.441,3.673v5.722l2.818,1.628V297.7C432.322,297.63,432.9,296.9,432.9,295.688Z" transform="translate(-416.847 -259.697)" fill="#084c94"/>
        <path id="Trazado_119634" data-name="Trazado 119634" d="M429.136,301.584v-5.723a6.2,6.2,0,0,1-1.441-3.673,2.034,2.034,0,0,1,.748-1.771c-.749.158-1.24.861-1.24,1.982a6.2,6.2,0,0,0,1.441,3.673v5.722l2.818,1.628v-.5Z" transform="translate(-416.847 -259.7)" fill="#001a46"/>
      </g>
      <g id="Grupo_82374" data-name="Grupo 82374" transform="translate(558.077 6611.196)">
        <path id="Trazado_119642" data-name="Trazado 119642" d="M396.392,199.067l-27.853-15.642c-1.525-.88-1.333-2.417.427-3.433h0c1.76-1.016,7.582-1.022,9.105-.142l26.192,14.7c2.34,1.381.024,3.276-1.925,4.265h0A6.61,6.61,0,0,1,396.392,199.067Z" transform="translate(-363.326 -152.434)" fill="#92b4d1" opacity="0.2"/>
        <path id="Trazado_119643" data-name="Trazado 119643" d="M396.842,197.645l-30.7-17.753a7.586,7.586,0,0,1-3.169-6.054V153.778c0-2.333,1.418-3.406,3.169-2.4l30.7,17.752a7.591,7.591,0,0,1,3.168,6.055V195.25C400.01,197.584,398.592,198.656,396.842,197.645Z" transform="translate(-362.973 -150.241)" fill="#a8cff0"/>
        <path id="Trazado_119644" data-name="Trazado 119644" d="M397.4,182.075,367.182,164.6a5.389,5.389,0,0,1-2.279-4.514v-5.214a.561.561,0,0,1,.846-.483l.1.057,30.254,17.5a4.873,4.873,0,0,1,2.28,4.514v5.131a.606.606,0,0,1-.907.526Z" transform="translate(-363.123 -150.499)" fill="#084c94"/>
        <path id="Trazado_119645" data-name="Trazado 119645" d="M397.4,196.459l-30.218-17.47a5.389,5.389,0,0,1-2.279-4.514v-5.214a.561.561,0,0,1,.846-.483l.1.057,30.254,17.5a4.873,4.873,0,0,1,2.28,4.514v5.131a.606.606,0,0,1-.907.526Z" transform="translate(-363.123 -151.617)" fill="#084c94"/>
        <path id="Trazado_119646" data-name="Trazado 119646" d="M397.981,181.7l-.074-.042L367.688,164.19a5.386,5.386,0,0,1-2.279-4.514v-5.214a.55.55,0,0,1,.019-.143.558.558,0,0,0-.526.557v5.214a5.389,5.389,0,0,0,2.279,4.514l30.218,17.47.075.042a.605.605,0,0,0,.876-.343A.592.592,0,0,1,397.981,181.7Z" transform="translate(-363.123 -150.499)" fill="#001a46"/>
        <path id="Trazado_119647" data-name="Trazado 119647" d="M397.981,196.088l-.074-.042-30.219-17.471a5.386,5.386,0,0,1-2.279-4.514v-5.214a.55.55,0,0,1,.019-.143.558.558,0,0,0-.526.557v5.214a5.389,5.389,0,0,0,2.279,4.514l30.218,17.47.075.042a.605.605,0,0,0,.876-.343A.592.592,0,0,1,397.981,196.088Z" transform="translate(-363.123 -151.617)" fill="#001a46"/>
        <path id="Trazado_119648" data-name="Trazado 119648" d="M398.435,168.31l-30.7-17.753a2.145,2.145,0,0,0-1.855-.272c-.066.026-1.544.779-1.606.813l0,0a2.074,2.074,0,0,1,1.972.219l30.7,17.752a7.591,7.591,0,0,1,3.169,6.055v20.061c0,1.456-.553,2.421-1.394,2.695a.53.53,0,0,0,.278-.094c.04-.023,1.593-.848,1.631-.875a2.927,2.927,0,0,0,.977-2.487V174.363A7.588,7.588,0,0,0,398.435,168.31Z" transform="translate(-363.074 -150.177)" fill="#3f92d1"/>
        <path id="Trazado_119649" data-name="Trazado 119649" d="M398.435,168.31l-30.7-17.753a2.145,2.145,0,0,0-1.855-.272c-.066.026-1.544.779-1.606.813l0,0a2.074,2.074,0,0,1,1.972.219l30.7,17.752Z" transform="translate(-363.074 -150.177)" fill="#4f9fdb"/>
        <path id="Trazado_119650" data-name="Trazado 119650" d="M397.113,169.053l-30.7-17.753a2.1,2.1,0,0,0-1.908-.243,2.339,2.339,0,0,1,1.528.358l30.7,17.753a7.586,7.586,0,0,1,3.169,6.054v20.061a2.663,2.663,0,0,1-1.26,2.64c.978-.155,1.64-1.159,1.64-2.754v-20.06A7.591,7.591,0,0,0,397.113,169.053Z" transform="translate(-363.092 -150.235)" fill="#fff" style="mix-blend-mode: screen;isolation: isolate"/>
        <g id="Grupo_82352" data-name="Grupo 82352" transform="translate(7.064 22.867)">
          <path id="Trazado_119651" data-name="Trazado 119651" d="M392,188.737a4.208,4.208,0,0,0,1.91,3.3c1.056.61,1.911.122,1.911-1.089a4.208,4.208,0,0,0-1.911-3.3C392.859,187.039,392,187.527,392,188.737Z" transform="translate(-372.293 -175.936)" fill="#001a46"/>
          <path id="Trazado_119652" data-name="Trazado 119652" d="M386.661,185.634a4.212,4.212,0,0,0,1.911,3.3c1.055.609,1.91.121,1.91-1.089a4.208,4.208,0,0,0-1.91-3.3C387.517,183.935,386.661,184.423,386.661,185.634Z" transform="translate(-371.878 -175.695)" fill="#001a46"/>
          <path id="Trazado_119653" data-name="Trazado 119653" d="M381.318,182.53a4.211,4.211,0,0,0,1.911,3.3c1.055.609,1.91.122,1.91-1.089a4.208,4.208,0,0,0-1.91-3.3C382.174,180.831,381.318,181.319,381.318,182.53Z" transform="translate(-371.463 -175.454)" fill="#001a46"/>
          <path id="Trazado_119654" data-name="Trazado 119654" d="M375.975,179.426a4.209,4.209,0,0,0,1.911,3.3c1.055.61,1.91.122,1.91-1.089a4.21,4.21,0,0,0-1.91-3.3C376.831,177.728,375.975,178.216,375.975,179.426Z" transform="translate(-371.047 -175.213)" fill="#001a46"/>
          <path id="Trazado_119655" data-name="Trazado 119655" d="M370.632,176.323a4.212,4.212,0,0,0,1.911,3.3c1.055.609,1.91.121,1.91-1.089a4.208,4.208,0,0,0-1.91-3.3C371.488,174.624,370.632,175.112,370.632,176.323Z" transform="translate(-370.632 -174.971)" fill="#001a46"/>
        </g>
        <g id="Grupo_82353" data-name="Grupo 82353" transform="translate(6.472 22.906)">
          <path id="Trazado_119656" data-name="Trazado 119656" d="M391.363,188.78a4.208,4.208,0,0,0,1.91,3.3c1.055.61,1.911.122,1.911-1.089a4.211,4.211,0,0,0-1.911-3.3C392.218,187.082,391.363,187.569,391.363,188.78Z" transform="translate(-371.652 -175.979)" fill="#a8cff0"/>
          <path id="Trazado_119657" data-name="Trazado 119657" d="M386.02,185.676a4.208,4.208,0,0,0,1.91,3.3c1.056.61,1.911.122,1.911-1.089a4.21,4.21,0,0,0-1.911-3.3C386.875,183.978,386.02,184.466,386.02,185.676Z" transform="translate(-371.237 -175.738)" fill="#a8cff0"/>
          <path id="Trazado_119658" data-name="Trazado 119658" d="M380.677,182.573a4.208,4.208,0,0,0,1.911,3.3c1.055.609,1.91.121,1.91-1.089a4.208,4.208,0,0,0-1.91-3.3C381.532,180.874,380.677,181.362,380.677,182.573Z" transform="translate(-370.822 -175.496)" fill="#a8cff0"/>
          <path id="Trazado_119659" data-name="Trazado 119659" d="M375.334,179.469a4.211,4.211,0,0,0,1.911,3.3c1.055.61,1.91.122,1.91-1.089a4.21,4.21,0,0,0-1.91-3.3C376.19,177.77,375.334,178.258,375.334,179.469Z" transform="translate(-370.406 -175.255)" fill="#a8cff0"/>
          <path id="Trazado_119660" data-name="Trazado 119660" d="M369.991,176.365a4.209,4.209,0,0,0,1.911,3.3c1.055.61,1.91.122,1.91-1.089a4.211,4.211,0,0,0-1.91-3.3C370.847,174.667,369.991,175.155,369.991,176.365Z" transform="translate(-369.991 -175.014)" fill="#a8cff0"/>
        </g>
        <g id="Grupo_82354" data-name="Grupo 82354" transform="translate(7.064 9.268)">
          <path id="Trazado_119661" data-name="Trazado 119661" d="M392,173.992a4.208,4.208,0,0,0,1.91,3.3c1.056.61,1.911.122,1.911-1.089a4.208,4.208,0,0,0-1.911-3.3C392.859,172.294,392,172.781,392,173.992Z" transform="translate(-372.293 -161.191)" fill="#001a46"/>
          <path id="Trazado_119662" data-name="Trazado 119662" d="M386.661,170.889a4.209,4.209,0,0,0,1.911,3.294c1.055.61,1.91.122,1.91-1.089a4.211,4.211,0,0,0-1.91-3.3C387.517,169.19,386.661,169.678,386.661,170.889Z" transform="translate(-371.878 -160.95)" fill="#001a46"/>
          <path id="Trazado_119663" data-name="Trazado 119663" d="M381.318,167.785a4.211,4.211,0,0,0,1.911,3.3c1.055.609,1.91.122,1.91-1.089a4.208,4.208,0,0,0-1.91-3.3C382.174,166.086,381.318,166.574,381.318,167.785Z" transform="translate(-371.463 -160.709)" fill="#001a46"/>
          <path id="Trazado_119664" data-name="Trazado 119664" d="M375.975,164.681a4.209,4.209,0,0,0,1.911,3.3c1.055.61,1.91.122,1.91-1.089a4.21,4.21,0,0,0-1.91-3.3C376.831,162.983,375.975,163.47,375.975,164.681Z" transform="translate(-371.047 -160.468)" fill="#001a46"/>
          <path id="Trazado_119665" data-name="Trazado 119665" d="M370.632,161.578a4.212,4.212,0,0,0,1.911,3.3c1.055.609,1.91.121,1.91-1.09a4.208,4.208,0,0,0-1.91-3.294C371.488,159.879,370.632,160.367,370.632,161.578Z" transform="translate(-370.632 -160.226)" fill="#001a46"/>
        </g>
        <g id="Grupo_82355" data-name="Grupo 82355" transform="translate(6.472 9.307)">
          <path id="Trazado_119666" data-name="Trazado 119666" d="M391.363,174.035a4.21,4.21,0,0,0,1.91,3.3c1.055.609,1.911.122,1.911-1.089a4.209,4.209,0,0,0-1.911-3.3C392.218,172.336,391.363,172.824,391.363,174.035Z" transform="translate(-371.652 -161.234)" fill="#a8cff0"/>
          <path id="Trazado_119667" data-name="Trazado 119667" d="M386.02,170.931a4.208,4.208,0,0,0,1.91,3.3c1.056.61,1.911.122,1.911-1.089a4.208,4.208,0,0,0-1.911-3.3C386.875,169.233,386.02,169.72,386.02,170.931Z" transform="translate(-371.237 -160.993)" fill="#a8cff0"/>
          <path id="Trazado_119668" data-name="Trazado 119668" d="M380.677,167.828a4.21,4.21,0,0,0,1.911,3.3c1.055.609,1.91.121,1.91-1.089a4.208,4.208,0,0,0-1.91-3.3C381.532,166.129,380.677,166.617,380.677,167.828Z" transform="translate(-370.822 -160.751)" fill="#a8cff0"/>
          <path id="Trazado_119669" data-name="Trazado 119669" d="M375.334,164.724a4.211,4.211,0,0,0,1.911,3.3c1.055.609,1.91.122,1.91-1.089a4.208,4.208,0,0,0-1.91-3.3C376.19,163.025,375.334,163.513,375.334,164.724Z" transform="translate(-370.406 -160.51)" fill="#a8cff0"/>
          <path id="Trazado_119670" data-name="Trazado 119670" d="M369.991,161.62a4.209,4.209,0,0,0,1.911,3.3c1.055.61,1.91.122,1.91-1.089a4.21,4.21,0,0,0-1.91-3.3C370.847,159.922,369.991,160.41,369.991,161.62Z" transform="translate(-369.991 -160.269)" fill="#a8cff0"/>
        </g>
      </g>
      <g id="Grupo_82375" data-name="Grupo 82375" transform="translate(709.976 6575)">
        <g id="Grupo_82357" data-name="Grupo 82357">
          <path id="Trazado_119671" data-name="Trazado 119671" d="M578.5,231.883,553.375,217.24a7.588,7.588,0,0,1-3.168-6.055V178.406c0-2.333,1.418-3.406,3.168-2.4L578.5,190.655a7.589,7.589,0,0,1,3.169,6.055v32.779C581.667,231.822,580.249,232.894,578.5,231.883Z" transform="translate(-550.207 -174.869)" fill="#a8cff0"/>
          <path id="Trazado_119672" data-name="Trazado 119672" d="M579.057,230.312,554.416,215.95a5.388,5.388,0,0,1-2.28-4.514V179.5a.562.562,0,0,1,.847-.483l.1.057,24.677,14.387a4.873,4.873,0,0,1,2.279,4.514v31.848a.606.606,0,0,1-.907.527Z" transform="translate(-550.357 -175.127)" fill="#084c94"/>
          <path id="Trazado_119673" data-name="Trazado 119673" d="M579.637,229.94l-.074-.042-24.641-14.361a5.389,5.389,0,0,1-2.279-4.514V179.091a.55.55,0,0,1,.019-.143.559.559,0,0,0-.527.557v31.931a5.388,5.388,0,0,0,2.28,4.514l24.641,14.362.074.042a.606.606,0,0,0,.877-.343A.591.591,0,0,1,579.637,229.94Z" transform="translate(-550.357 -175.127)" fill="#001a46"/>
          <path id="Trazado_119674" data-name="Trazado 119674" d="M580.091,189.829l-25.122-14.644a2.145,2.145,0,0,0-1.855-.272c-.066.026-1.544.779-1.607.813l0,0a2.069,2.069,0,0,1,1.971.218L578.6,190.59a7.589,7.589,0,0,1,3.169,6.055v32.779c0,1.456-.552,2.421-1.394,2.7a.525.525,0,0,0,.278-.095c.04-.023,1.594-.848,1.631-.875a2.925,2.925,0,0,0,.977-2.487V195.883A7.589,7.589,0,0,0,580.091,189.829Z" transform="translate(-550.308 -174.805)" fill="#3f92d1"/>
          <path id="Trazado_119675" data-name="Trazado 119675" d="M580.091,189.829l-25.122-14.644a2.145,2.145,0,0,0-1.855-.272c-.066.026-1.544.779-1.607.813l0,0a2.069,2.069,0,0,1,1.971.218L578.6,190.59Z" transform="translate(-550.308 -174.805)" fill="#4f9fdb"/>
          <path id="Trazado_119676" data-name="Trazado 119676" d="M578.769,190.573l-25.123-14.645a2.1,2.1,0,0,0-1.908-.243,2.34,2.34,0,0,1,1.528.358l25.123,14.644a7.591,7.591,0,0,1,3.169,6.055V229.52a2.661,2.661,0,0,1-1.261,2.64c.978-.155,1.641-1.159,1.641-2.753v-32.78A7.586,7.586,0,0,0,578.769,190.573Z" transform="translate(-550.326 -174.863)" fill="#fff" style="mix-blend-mode: screen;isolation: isolate"/>
        </g>
        <g id="Grupo_82358" data-name="Grupo 82358" transform="translate(15.442 26.71)">
          <path id="Trazado_119677" data-name="Trazado 119677" d="M567.5,214.549a.615.615,0,0,1-.123-.013.554.554,0,0,1-.418-.662,42.572,42.572,0,0,0,.974-9.334v-.22a.553.553,0,1,1,1.107,0v.22a43.7,43.7,0,0,1-1,9.578A.554.554,0,0,1,567.5,214.549Z" transform="translate(-566.95 -203.766)" fill="#a8cff0"/>
        </g>
        <g id="Grupo_82359" data-name="Grupo 82359" transform="translate(11.495 22.947)">
          <path id="Trazado_119678" data-name="Trazado 119678" d="M563.225,217.973a.53.53,0,0,1-.13-.017.553.553,0,0,1-.409-.668,73.762,73.762,0,0,0,1.646-15.175,2.869,2.869,0,0,1,.925-2.3.553.553,0,1,1,.694.86,1.816,1.816,0,0,0-.514,1.443,74.964,74.964,0,0,1-1.677,15.436A.553.553,0,0,1,563.225,217.973Z" transform="translate(-562.671 -199.686)" fill="#a8cff0"/>
        </g>
        <g id="Grupo_82360" data-name="Grupo 82360" transform="translate(16.287 23.035)">
          <path id="Trazado_119679" data-name="Trazado 119679" d="M571.55,206.289a.552.552,0,0,1-.552-.553,6.392,6.392,0,0,0-2.854-4.92.553.553,0,1,1,.553-.958,7.4,7.4,0,0,1,3.407,5.878A.553.553,0,0,1,571.55,206.289Z" transform="translate(-567.866 -199.782)" fill="#a8cff0"/>
        </g>
        <g id="Grupo_82361" data-name="Grupo 82361" transform="translate(17.159 32.924)">
          <path id="Trazado_119680" data-name="Trazado 119680" d="M569.366,222.919a.542.542,0,0,1-.126-.015.553.553,0,0,1-.413-.664,109.733,109.733,0,0,0,1.948-11.247.553.553,0,0,1,1.1.126,111.091,111.091,0,0,1-1.97,11.371A.552.552,0,0,1,569.366,222.919Z" transform="translate(-568.812 -210.504)" fill="#a8cff0"/>
        </g>
        <g id="Grupo_82362" data-name="Grupo 82362" transform="translate(5.994 14.922)">
          <path id="Trazado_119681" data-name="Trazado 119681" d="M575.061,222.448a.547.547,0,0,1-.142-.018.554.554,0,0,1-.393-.677,50.9,50.9,0,0,0,1.58-13.031v-.22c0-5.585-3.961-12.417-8.83-15.228-2.265-1.309-4.362-1.536-5.906-.646S559,195.413,559,197.986a53.66,53.66,0,0,1-1.2,11.607.554.554,0,1,1-1.081-.24,52.559,52.559,0,0,0,1.173-11.367c0-2.985,1.038-5.228,2.924-6.317s4.39-.869,7.013.646c5.174,2.987,9.382,10.248,9.382,16.187v.22a51.979,51.979,0,0,1-1.616,13.315A.553.553,0,0,1,575.061,222.448Z" transform="translate(-556.707 -190.985)" fill="#a8cff0"/>
        </g>
        <g id="Grupo_82363" data-name="Grupo 82363" transform="translate(8.56 31.444)">
          <path id="Trazado_119682" data-name="Trazado 119682" d="M560.042,215.311a.553.553,0,0,1-.536-.692,48.106,48.106,0,0,0,1.033-5.245.563.563,0,0,1,.625-.47.553.553,0,0,1,.469.625,49.189,49.189,0,0,1-1.056,5.366A.554.554,0,0,1,560.042,215.311Z" transform="translate(-559.489 -208.899)" fill="#a8cff0"/>
        </g>
        <g id="Grupo_82364" data-name="Grupo 82364" transform="translate(9.807 20.062)">
          <path id="Trazado_119683" data-name="Trazado 119683" d="M561.394,207.443a.466.466,0,0,1-.062,0,.553.553,0,0,1-.489-.611,60.7,60.7,0,0,0,.358-6.684,5.76,5.76,0,0,1,.92-3.353.554.554,0,0,1,.9.641,4.675,4.675,0,0,0-.717,2.712,61.963,61.963,0,0,1-.364,6.805A.554.554,0,0,1,561.394,207.443Z" transform="translate(-560.84 -196.558)" fill="#a8cff0"/>
        </g>
        <g id="Grupo_82365" data-name="Grupo 82365" transform="translate(12.691 18.768)">
          <path id="Trazado_119684" data-name="Trazado 119684" d="M573.389,203.6a.555.555,0,0,1-.515-.35,12.86,12.86,0,0,0-5.034-6.229,4.328,4.328,0,0,0-3.18-.676.554.554,0,1,1-.278-1.072,5.391,5.391,0,0,1,4.011.789,13.813,13.813,0,0,1,5.509,6.779.555.555,0,0,1-.514.758Z" transform="translate(-563.968 -195.155)" fill="#a8cff0"/>
        </g>
        <g id="Grupo_82366" data-name="Grupo 82366" transform="translate(20.145 30.161)">
          <path id="Trazado_119685" data-name="Trazado 119685" d="M572.6,223.71a.548.548,0,0,1-.174-.029.554.554,0,0,1-.35-.7l.123-.367a45.618,45.618,0,0,0,2.109-14.333v-.22a.553.553,0,1,1,1.106,0v.22a46.737,46.737,0,0,1-2.164,14.681l-.123.369A.555.555,0,0,1,572.6,223.71Z" transform="translate(-572.05 -207.508)" fill="#a8cff0"/>
        </g>
      </g>
    </g>
  </g>
</svg>
