<svg xmlns="http://www.w3.org/2000/svg" xmlns:xlink="http://www.w3.org/1999/xlink" width="67" height="72" viewBox="0 0 67 72">
  <defs>
    <clipPath id="clip-path">
      <rect id="Rect치ngulo_34196" data-name="Rect치ngulo 34196" width="55" height="55" transform="translate(-9417 -3097)" fill="#2ff980"/>
    </clipPath>
  </defs>
  <g id="Grupo_83841" data-name="Grupo 83841" transform="translate(9076 2818)">
    <rect id="Rect치ngulo_34395" data-name="Rect치ngulo 34395" width="67" height="72" rx="5" transform="translate(-9076 -2818)" fill="#fff"/>
    <g id="Enmascarar_grupo_108" data-name="Enmascarar grupo 108" transform="translate(347 287)" clip-path="url(#clip-path)">
      <g id="transferencia-de-archivos" transform="translate(-9417 -3097)">
        <path id="Trazado_115215" data-name="Trazado 115215" d="M29.168,44.195H39.185A5.017,5.017,0,0,0,44.2,39.183V36.562l.467.467a1.681,1.681,0,0,0,2.378-2.378L43.7,31.314a1.7,1.7,0,0,0-2.376,0l-3.337,3.328a1.681,1.681,0,0,0,2.374,2.381l.468-.467v2.629a1.651,1.651,0,0,1-1.649,1.649H29.168a1.681,1.681,0,0,0,0,3.362Z" fill="#36f595"/>
        <path id="Trazado_115216" data-name="Trazado 115216" d="M29.635,42.513a1.681,1.681,0,0,1,1.681-1.681H29.168a1.681,1.681,0,1,0,0,3.362h2.148A1.681,1.681,0,0,1,29.635,42.513Z" fill="#23db9e"/>
        <path id="Trazado_115217" data-name="Trazado 115217" d="M40.253,37.124q-.06-.05-.116-.106a1.681,1.681,0,0,1,0-2.377l3.337-3.328q.054-.054.113-.1a1.7,1.7,0,0,0-2.261.1l-3.337,3.328a1.681,1.681,0,0,0,2.261,2.484Z" fill="#23db9e"/>
        <path id="Trazado_115218" data-name="Trazado 115218" d="M25.831,10.805H15.814A5.017,5.017,0,0,0,10.8,15.817v2.622l-.467-.467a1.681,1.681,0,0,0-2.378,2.378L11.3,23.685a1.7,1.7,0,0,0,2.376,0l3.337-3.328a1.681,1.681,0,0,0-2.374-2.381l-.468.467V15.817a1.651,1.651,0,0,1,1.649-1.649H25.831a1.681,1.681,0,0,0,0-3.362Z" fill="#ff405c"/>
        <path id="Trazado_115219" data-name="Trazado 115219" d="M13.444,23.685l-3.337-3.337a1.681,1.681,0,0,1,0-2.378q.055-.055.115-.1a1.681,1.681,0,0,0-2.263,2.482L11.3,23.685a1.7,1.7,0,0,0,2.263.1Q13.5,23.741,13.444,23.685Z" fill="#d0004f"/>
        <path id="Trazado_115220" data-name="Trazado 115220" d="M22.495,47.523a1.668,1.668,0,0,0,1.668-1.668V27.5H4.142V47.51Z" fill="#fff"/>
        <path id="Trazado_115221" data-name="Trazado 115221" d="M22.495,47.523a1.668,1.668,0,0,0,1.668-1.668V27.5H4.142V47.51Z" fill="#fdbf00"/>
        <path id="Trazado_115222" data-name="Trazado 115222" d="M22.438,45.869V34.183a1.611,1.611,0,0,0-1.611-1.611H11.486l-3.116-3.13a.752.752,0,0,0-.533-.222H4.142V47.51l18.352.013v-.009A8.726,8.726,0,0,1,22.438,45.869Z" fill="#eaad03"/>
        <path id="Trazado_115223" data-name="Trazado 115223" d="M.806,45.854V30.831H7.479l3.337,3.352h10.01V45.869a1.656,1.656,0,0,0,1.668,1.653H2.474A1.668,1.668,0,0,1,.806,45.854Z" fill="#ffda2d"/>
        <path id="Trazado_115224" data-name="Trazado 115224" d="M2.954,45.854V30.831H.806V45.854a1.668,1.668,0,0,0,1.668,1.668H4.622a1.668,1.668,0,0,1-1.668-1.668Z" fill="#fdbf00"/>
        <path id="Trazado_115225" data-name="Trazado 115225" d="M52.526,27.5a1.668,1.668,0,0,0,1.668-1.668V7.477H34.173V27.485Z" fill="#fff"/>
        <path id="Trazado_115226" data-name="Trazado 115226" d="M52.526,27.5a1.668,1.668,0,0,0,1.668-1.668V7.477H34.173V27.485Z" fill="#fdbf00"/>
        <path id="Trazado_115227" data-name="Trazado 115227" d="M52.469,25.845V14.158a1.611,1.611,0,0,0-1.611-1.611H41.516L38.4,9.417a.752.752,0,0,0-.533-.222H34.173v18.29l18.352.013v-.009a8.73,8.73,0,0,1-.057-1.645Z" fill="#eaad03"/>
        <path id="Trazado_115228" data-name="Trazado 115228" d="M30.837,25.83V10.806H37.51l3.337,3.352h10.01V25.845A1.656,1.656,0,0,0,52.526,27.5H32.5a1.668,1.668,0,0,1-1.668-1.668Z" fill="#ffda2d"/>
        <path id="Trazado_115229" data-name="Trazado 115229" d="M32.985,25.83V10.806H30.837V25.83A1.668,1.668,0,0,0,32.5,27.5h2.148A1.668,1.668,0,0,1,32.985,25.83Z" fill="#fdbf00"/>
        <g id="Grupo_81285" data-name="Grupo 81285">
          <path id="Trazado_115230" data-name="Trazado 115230" d="M24.163,26.7H14.24a.806.806,0,0,0,0,1.611h9.118V45.854a.864.864,0,0,1-.863.863H22.48a.846.846,0,0,1-.848-.847V34.183a.806.806,0,0,0-.806-.806H11.151l-3.1-3.115a.805.805,0,0,0-.571-.237H4.948V28.308h5.781a.806.806,0,0,0,0-1.611H4.142a.806.806,0,0,0-.806.806v2.524H.806A.806.806,0,0,0,0,30.831V45.854a2.477,2.477,0,0,0,2.474,2.474H22.523a2.477,2.477,0,0,0,2.446-2.474V27.5a.806.806,0,0,0-.806-.806ZM2.474,46.717a.864.864,0,0,1-.863-.863V31.637H7.145l3.1,3.115a.805.805,0,0,0,.571.237h9.2V45.869a2.434,2.434,0,0,0,.151.848H2.474Z"/>
          <path id="Trazado_115231" data-name="Trazado 115231" d="M54.194,6.672H45.939a.806.806,0,0,0,0,1.611h7.45V25.829a.864.864,0,0,1-.863.863.846.846,0,0,1-.862-.848V14.158a.806.806,0,0,0-.806-.806H41.182l-3.1-3.114A.805.805,0,0,0,37.511,10H34.979V8.283h7.45a.806.806,0,0,0,0-1.611H34.173a.806.806,0,0,0-.806.806V10H30.836a.806.806,0,0,0-.806.806V25.829A2.477,2.477,0,0,0,32.5,28.3H40.76a.806.806,0,0,0,0-1.611H32.5a.864.864,0,0,1-.863-.863V11.612h5.534l3.1,3.114a.805.805,0,0,0,.571.237h9.205V25.844a2.434,2.434,0,0,0,.151.848H44.271a.806.806,0,0,0,0,1.611h8.255A2.477,2.477,0,0,0,55,25.829V7.477a.806.806,0,0,0-.806-.806Z"/>
          <path id="Trazado_115232" data-name="Trazado 115232" d="M28.318,12.486A2.49,2.49,0,0,0,25.831,10H15.814A5.824,5.824,0,0,0,10,15.817v1.007a2.487,2.487,0,0,0-2.608,4.1l3.337,3.337a2.521,2.521,0,0,0,3.515,0l3.337-3.328a2.487,2.487,0,0,0-2.606-4.1V15.817a.844.844,0,0,1,.843-.843H25.831a2.49,2.49,0,0,0,2.487-2.487Zm-2.487.875H15.814a2.457,2.457,0,0,0-2.455,2.455v2.629q.306,1.2,1.375.571l.468-.467a.876.876,0,0,1,1.237,1.24L13.1,23.117a.9.9,0,0,1-1.237,0L8.528,19.779a.875.875,0,0,1,1.238-1.238l.467.467q1.068.634,1.375-.57V15.817a4.21,4.21,0,0,1,4.206-4.206H25.831a.875.875,0,1,1,0,1.751Z"/>
          <path id="Trazado_115233" data-name="Trazado 115233" d="M44.274,30.745a2.521,2.521,0,0,0-3.515,0L37.422,34.07a2.487,2.487,0,0,0,2.606,4.1v1.016a.844.844,0,0,1-.843.843H29.168a2.487,2.487,0,0,0,0,4.974H39.185A5.824,5.824,0,0,0,45,39.183V38.177a2.487,2.487,0,0,0,2.608-4.1Zm2.2,5.714a.876.876,0,0,1-1.238,0l-.467-.467q-1.068-.634-1.375.57v2.622a4.21,4.21,0,0,1-4.206,4.206H29.168a.875.875,0,1,1,0-1.751H39.185a2.457,2.457,0,0,0,2.455-2.455V36.554q-.306-1.2-1.375-.57l-.468.467a.876.876,0,1,1-1.237-1.24L41.9,31.883a.9.9,0,0,1,1.237,0l3.337,3.337a.877.877,0,0,1,0,1.238Z"/>
        </g>
      </g>
    </g>
  </g>
</svg>
