<svg xmlns="http://www.w3.org/2000/svg" xmlns:xlink="http://www.w3.org/1999/xlink" width="67" height="73" viewBox="0 0 67 73">
  <defs>
    <clipPath id="clip-path">
      <rect id="Rectángulo_34198" data-name="Rectángulo 34198" width="55" height="55" transform="translate(-8892 -3097)" fill="#2ff980"/>
    </clipPath>
  </defs>
  <g id="Grupo_83842" data-name="Grupo 83842" transform="translate(9427 2818)">
    <rect id="Rectángulo_34394" data-name="Rectángulo 34394" width="67" height="73" rx="5" transform="translate(-9427 -2818)" fill="#fff"/>
    <g id="Enmascarar_grupo_106" data-name="Enmascarar grupo 106" transform="translate(-529 288)" clip-path="url(#clip-path)">
      <g id="Fill_out_line" data-name="Fill out line" transform="translate(-8893.833 -3098.833)">
        <path id="Trazado_115188" data-name="Trazado 115188" d="M55.917,16.5A13.736,13.736,0,1,1,45.643,3.193,13.736,13.736,0,0,1,55.917,16.5Z" fill="#8acce7"/>
        <path id="Trazado_115189" data-name="Trazado 115189" d="M55.917,16.5a13.707,13.707,0,0,1-4.5,10.169L49.5,24.75,50.417,22,46.75,19.25l1.833-1.833V13.75h-2.75l-2.75-4.583,2.56-5.973A13.757,13.757,0,0,1,55.917,16.5Z" fill="#4ba477"/>
        <path id="Trazado_115190" data-name="Trazado 115190" d="M33.917,19.25,38.5,21.083l-.917,1.833H33.917L32.325,26.1A13.748,13.748,0,0,1,34.587,5.027l4.83,4.14L37.583,13.75,33,11.917l-.917,2.75,1.833.917Z" fill="#4ba477"/>
        <rect id="Rectángulo_34203" data-name="Rectángulo 34203" width="27.5" height="20.167" rx="2.75" transform="translate(2.75 28.417)" fill="#8acce7"/>
        <path id="Trazado_115191" data-name="Trazado 115191" d="M30.25,44.917v.917a2.751,2.751,0,0,1-2.75,2.75H5.5a2.751,2.751,0,0,1-2.75-2.75v-.917Z" fill="#396795"/>
        <path id="Trazado_115192" data-name="Trazado 115192" d="M11.917,53.167l.462-.308a5.138,5.138,0,0,0,2.288-4.275h3.667a5.138,5.138,0,0,0,2.288,4.275l.462.308Z" fill="#26507a"/>
        <rect id="Rectángulo_34204" data-name="Rectángulo 34204" width="14.667" height="2.75" rx="1.375" transform="translate(9.167 53.167)" fill="#396795"/>
        <circle id="Elipse_4836" data-name="Elipse 4836" cx="5.5" cy="5.5" r="5.5" transform="translate(11 31.167)" fill="#eedc9a"/>
        <path id="Trazado_115193" data-name="Trazado 115193" d="M14.667,33.917v5.5l4.583-2.75Z" fill="#e44b4d"/>
        <path id="Trazado_115194" data-name="Trazado 115194" d="M56.833,16.5A14.667,14.667,0,1,0,41.25,31.137V46.75a.918.918,0,0,1-.917.917h-5.5a2.75,2.75,0,0,0,0,5.5h2.75a.917.917,0,1,1,0,1.833H28.417a.918.918,0,0,1-.917-.917V49.5a3.671,3.671,0,0,0,3.667-3.667V31.167A3.671,3.671,0,0,0,27.5,27.5H5.5a3.671,3.671,0,0,0-3.667,3.667V45.833A3.671,3.671,0,0,0,5.5,49.5h8.148a4.211,4.211,0,0,1-1.778,2.6l-.231.154h-1.1a2.292,2.292,0,0,0,0,4.583H22.458a2.292,2.292,0,1,0,0-4.583h-1.1L21.13,52.1a4.211,4.211,0,0,1-1.778-2.6h6.315v4.583a2.753,2.753,0,0,0,2.75,2.75h9.167a2.75,2.75,0,1,0,0-5.5h-2.75a.917.917,0,0,1,0-1.833h5.5a2.753,2.753,0,0,0,2.75-2.75V31.137A14.685,14.685,0,0,0,56.833,16.5ZM5.5,29.333h22a1.835,1.835,0,0,1,1.833,1.833V44H3.667V31.167A1.835,1.835,0,0,1,5.5,29.333Zm-1.833,16.5H29.333A1.835,1.835,0,0,1,27.5,47.667H5.5a1.835,1.835,0,0,1-1.833-1.833Zm19.25,8.708a.459.459,0,0,1-.458.458H10.542a.458.458,0,1,1,0-.917H22.458A.459.459,0,0,1,22.917,54.542ZM18.655,52.25H14.345a6.033,6.033,0,0,0,1.166-2.75h1.978a6.033,6.033,0,0,0,1.166,2.75ZM55,16.5a12.789,12.789,0,0,1-3.575,8.878l-.876-.876.738-2.212a.917.917,0,0,0-.32-1.023l-2.821-2.116,1.086-1.086a.917.917,0,0,0,.269-.648V13.75a.917.917,0,0,0-.917-.917H46.352L44.11,9.1,46.164,4.3A12.856,12.856,0,0,1,55,16.5ZM44.362,3.855l-2.121,4.95a.917.917,0,0,0,.057.833l2.75,4.583a.917.917,0,0,0,.786.445h1.833v2.37L46.1,18.6a.917.917,0,0,0,.1,1.382l3.138,2.354L48.63,24.46a.917.917,0,0,0,.221.938l1.211,1.211a12.808,12.808,0,0,1-16.616-.7l1.037-2.073h3.1a.917.917,0,0,0,.82-.507l.917-1.833a.917.917,0,0,0-.479-1.261l-4.007-1.6V15.583a.917.917,0,0,0-.507-.82L33.2,14.2l.358-1.073L37.243,14.6a.917.917,0,0,0,1.192-.511l1.833-4.583a.917.917,0,0,0-.255-1.036L36.156,5.164a12.826,12.826,0,0,1,8.206-1.309ZM34.535,6.189l3.787,3.246-1.249,3.123L33.34,11.066a.917.917,0,0,0-1.21.561l-.917,2.75a.917.917,0,0,0,.46,1.11L33,16.15v3.1a.917.917,0,0,0,.576.851l3.658,1.463L37.017,22h-3.1a.917.917,0,0,0-.82.507l-.981,1.963a12.815,12.815,0,0,1,2.419-18.28Z"/>
        <path id="Trazado_115195" data-name="Trazado 115195" d="M16.5,43.083a6.417,6.417,0,1,0-6.417-6.417A6.417,6.417,0,0,0,16.5,43.083Zm0-11a4.583,4.583,0,1,1-4.583,4.583A4.583,4.583,0,0,1,16.5,32.083Z"/>
        <path id="Trazado_115196" data-name="Trazado 115196" d="M14.215,40.214a.917.917,0,0,0,.923-.012l4.583-2.75a.917.917,0,0,0,0-1.572l-4.583-2.75a.917.917,0,0,0-1.388.786v5.5a.917.917,0,0,0,.465.8Zm1.368-4.679,1.885,1.131L15.583,37.8Z"/>
      </g>
    </g>
  </g>
</svg>
