<svg xmlns="http://www.w3.org/2000/svg" xmlns:xlink="http://www.w3.org/1999/xlink" width="85" height="85" viewBox="0 0 85 85">
  <defs>
    <clipPath id="clip-path">
      <rect id="Rectángulo_34016" data-name="Rectángulo 34016" width="85" height="85" transform="translate(515 12198)" fill="#2ff980"/>
    </clipPath>
  </defs>
  <g id="Enmascarar_grupo_78" data-name="Enmascarar grupo 78" transform="translate(-515 -12198)" clip-path="url(#clip-path)">
    <g id="almacenamiento-del-servidor" transform="translate(513.629 12196.629)">
      <g id="Grupo_81018" data-name="Grupo 81018">
        <g id="Grupo_81009" data-name="Grupo 81009">
          <path id="Trazado_114682" data-name="Trazado 114682" d="M50.726,36.7V8.226a5.482,5.482,0,0,0-5.484-5.484H15.081A5.482,5.482,0,0,0,9.6,8.226V69.919a12.315,12.315,0,0,1,5.484-10.255v-6.2A1.375,1.375,0,0,1,16.452,52.1H33.424a16.15,16.15,0,0,1,8.418-2.715,23.35,23.35,0,0,1,.9-2.769,22.073,22.073,0,0,1,1.344-2.742,21.713,21.713,0,0,1,6.649-7.156Z" fill="#fcd770"/>
        </g>
        <g id="Grupo_81010" data-name="Grupo 81010">
          <path id="Trazado_114683" data-name="Trazado 114683" d="M15.081,17.823V9.6a1.375,1.375,0,0,1,1.371-1.371H43.871A1.375,1.375,0,0,1,45.242,9.6v8.226a1.375,1.375,0,0,1-1.371,1.371H16.452A1.375,1.375,0,0,1,15.081,17.823Z" fill="#b4dd7f"/>
        </g>
        <g id="Grupo_81011" data-name="Grupo 81011">
          <path id="Trazado_114684" data-name="Trazado 114684" d="M45.242,31.532v8.226a1.375,1.375,0,0,1-1.371,1.371H16.452a1.375,1.375,0,0,1-1.371-1.371V31.532a1.375,1.375,0,0,1,1.371-1.371H43.871A1.375,1.375,0,0,1,45.242,31.532Z" fill="#b4dd7f"/>
        </g>
        <g id="Grupo_81012" data-name="Grupo 81012">
          <path id="Trazado_114685" data-name="Trazado 114685" d="M16.452,52.1H33.424a16.467,16.467,0,0,0-5.868,6.855,12.123,12.123,0,0,0-5.621-1.371,12.257,12.257,0,0,0-6.855,2.084v-6.2A1.375,1.375,0,0,1,16.452,52.1Z" fill="#b4dd7f"/>
        </g>
        <g id="Grupo_81013" data-name="Grupo 81013">
          <path id="Trazado_114686" data-name="Trazado 114686" d="M82.066,43.857A21.915,21.915,0,0,0,50.74,36.715a21.713,21.713,0,0,0-6.649,7.156,22.073,22.073,0,0,0-1.344,2.742,23.35,23.35,0,0,0-.9,2.769,5.283,5.283,0,0,1,.658-.027,16.472,16.472,0,0,1,9.665,3.126,17.013,17.013,0,0,1,2.6,2.358,16.36,16.36,0,0,1,4.181,10.968,9.562,9.562,0,0,1,9.473,8.157,8.269,8.269,0,0,1,.123,1.44,5.3,5.3,0,0,1-.041.658h.014A21.972,21.972,0,0,0,82.052,65.806a21.949,21.949,0,0,0,.014-21.949Z" fill="#69d6f4"/>
        </g>
        <g id="Grupo_81014" data-name="Grupo 81014">
          <path id="Trazado_114687" data-name="Trazado 114687" d="M54.77,54.839a16.36,16.36,0,0,1,4.181,10.968,9.562,9.562,0,0,1,9.473,8.157,8.269,8.269,0,0,1,.123,1.44,5.3,5.3,0,0,1-.041.658A9.551,9.551,0,0,1,58.952,85H9.6a6.855,6.855,0,0,1,0-13.71c.027,0,.055.014.082.014V71.29A11.327,11.327,0,0,1,9.6,69.919,12.348,12.348,0,0,1,21.935,57.581a12.123,12.123,0,0,1,5.621,1.371A16.467,16.467,0,0,1,33.424,52.1a16.15,16.15,0,0,1,8.418-2.715,5.283,5.283,0,0,1,.658-.027,16.472,16.472,0,0,1,9.665,3.126A17.013,17.013,0,0,1,54.77,54.839Z" fill="#e6e9ed"/>
        </g>
        <g id="Grupo_81015" data-name="Grupo 81015">
          <circle id="Elipse_4802" data-name="Elipse 4802" cx="2.742" cy="2.742" r="2.742" transform="translate(46.613 71.29)" fill="#ff826e"/>
        </g>
        <g id="Grupo_81016" data-name="Grupo 81016">
          <circle id="Elipse_4803" data-name="Elipse 4803" cx="2.742" cy="2.742" r="2.742" transform="translate(35.645 71.29)" fill="#ff826e"/>
        </g>
        <g id="Grupo_81017" data-name="Grupo 81017">
          <circle id="Elipse_4804" data-name="Elipse 4804" cx="2.742" cy="2.742" r="2.742" transform="translate(24.677 71.29)" fill="#ff826e"/>
        </g>
      </g>
      <g id="Grupo_81019" data-name="Grupo 81019">
        <path id="Trazado_114688" data-name="Trazado 114688" d="M75.917,16.752l1.714,2.141,8.193-6.555L77.631,5.784,75.917,7.926l3.8,3.042H57.581V13.71H79.72Z"/>
        <path id="Trazado_114689" data-name="Trazado 114689" d="M65.292,27.72l-3.8-3.042h22.14V21.935H61.489l3.8-3.042-1.714-2.141-8.193,6.555,8.193,6.555Z"/>
        <path id="Trazado_114690" data-name="Trazado 114690" d="M86.371,54.839A23.292,23.292,0,0,0,52.1,34.284V8.226a6.863,6.863,0,0,0-6.855-6.855H15.081A6.863,6.863,0,0,0,8.226,8.226V70.033A8.226,8.226,0,0,0,9.6,86.371H58.952a10.974,10.974,0,0,0,10.82-9.255A23.263,23.263,0,0,0,86.371,54.839Zm-26.1,9.6a17.68,17.68,0,0,0-2.772-8.226H72.638a38.6,38.6,0,0,1-1.127,8.226Zm10.408,2.742a21.542,21.542,0,0,1-1.73,3.73,11.018,11.018,0,0,0-2.76-3.73Zm-26.8-27.419H16.452V31.532H43.871Zm26.8,2.742H55.443c1.778-4.985,4.574-8.226,7.621-8.226s5.832,3.273,7.6,8.226Zm-18.134,0h-5.89a20.556,20.556,0,0,1,9.425-6.991A22.467,22.467,0,0,0,52.534,42.5Zm-7.627,2.742h6.881a40.405,40.405,0,0,0-.818,4.9,17.674,17.674,0,0,0-7.294-2.1A20.531,20.531,0,0,1,44.907,45.242Zm9.705,0h16.9a38.885,38.885,0,0,1,1.119,8.226h-17.3a18.129,18.129,0,0,0-1.741-1.6A38.186,38.186,0,0,1,54.612,45.242Zm28.947,8.226H75.368a41.7,41.7,0,0,0-1.031-8.226h6.9A20.4,20.4,0,0,1,83.559,53.468ZM75.38,56.21h8.192a20.476,20.476,0,0,1-2.331,8.226H74.317A41.706,41.706,0,0,0,75.38,56.21Zm4.1-13.71H73.572a22.833,22.833,0,0,0-3.518-6.977A20.629,20.629,0,0,1,79.478,42.5ZM46.613,38.369V31.532a2.745,2.745,0,0,0-2.742-2.742H16.452a2.745,2.745,0,0,0-2.742,2.742v8.226A2.745,2.745,0,0,0,16.452,42.5H43.328a23.4,23.4,0,0,0-1.481,2.742H10.968V26.048H49.355v9.971A23.179,23.179,0,0,0,46.613,38.369ZM15.081,4.113H45.242a4.118,4.118,0,0,1,4.113,4.113V23.306H10.968V8.226A4.118,4.118,0,0,1,15.081,4.113ZM10.968,47.984H40.832c-.01.03-.018.062-.027.092a17.8,17.8,0,0,0-7.753,2.65h-16.6a2.745,2.745,0,0,0-2.742,2.742v5.51a13.788,13.788,0,0,0-2.742,2.75Zm18.7,5.484a17.825,17.825,0,0,0-2.738,3.689,13.635,13.635,0,0,0-10.481.206V53.468ZM58.952,83.629H9.6a5.481,5.481,0,0,1-.13-10.961h.211l.654,0,.879,0-.17-1.523a11.319,11.319,0,0,1-.073-1.227A10.981,10.981,0,0,1,21.935,58.952a10.836,10.836,0,0,1,5,1.215l1.274.654.6-1.3a15.072,15.072,0,0,1,28.774,6.287v1.371h1.371a8.226,8.226,0,0,1,0,16.452Zm11.094-9.476a22.922,22.922,0,0,0,3.508-6.975H79.5a20.523,20.523,0,0,1-9.45,6.975Z"/>
        <path id="Trazado_114691" data-name="Trazado 114691" d="M40.1,56.511l-.683-2.656a12.3,12.3,0,0,0-2.893,1.153l1.328,2.4A9.649,9.649,0,0,1,40.1,56.511Z"/>
        <path id="Trazado_114692" data-name="Trazado 114692" d="M42.5,53.468V56.21a9.608,9.608,0,0,1,9.6,9.6,9.979,9.979,0,0,1-.074,1.205l2.72.332A12.34,12.34,0,0,0,42.5,53.468Z"/>
        <path id="Trazado_114693" data-name="Trazado 114693" d="M13.71,69.919a8.153,8.153,0,0,0,.685,3.29l2.512-1.1a5.488,5.488,0,0,1,5.029-7.676V61.694A8.234,8.234,0,0,0,13.71,69.919Z"/>
        <path id="Trazado_114694" data-name="Trazado 114694" d="M27.419,69.919a4.113,4.113,0,1,0,4.113,4.113A4.118,4.118,0,0,0,27.419,69.919Zm0,5.484a1.371,1.371,0,1,1,1.371-1.371A1.372,1.372,0,0,1,27.419,75.4Z"/>
        <path id="Trazado_114695" data-name="Trazado 114695" d="M38.387,69.919A4.113,4.113,0,1,0,42.5,74.032,4.118,4.118,0,0,0,38.387,69.919Zm0,5.484a1.371,1.371,0,1,1,1.371-1.371A1.372,1.372,0,0,1,38.387,75.4Z"/>
        <path id="Trazado_114696" data-name="Trazado 114696" d="M49.355,69.919a4.113,4.113,0,1,0,4.113,4.113A4.118,4.118,0,0,0,49.355,69.919Zm0,5.484a1.371,1.371,0,1,1,1.371-1.371A1.372,1.372,0,0,1,49.355,75.4Z"/>
        <path id="Trazado_114697" data-name="Trazado 114697" d="M16.452,20.565H43.871a2.745,2.745,0,0,0,2.742-2.742V9.6a2.745,2.745,0,0,0-2.742-2.742H16.452A2.745,2.745,0,0,0,13.71,9.6v8.226A2.745,2.745,0,0,0,16.452,20.565Zm0-10.968H43.871v8.226H16.452Z"/>
        <path id="Trazado_114698" data-name="Trazado 114698" d="M19.194,12.339h2.742v2.742H19.194Z"/>
        <path id="Trazado_114699" data-name="Trazado 114699" d="M24.677,12.339h2.742v2.742H24.677Z"/>
        <path id="Trazado_114700" data-name="Trazado 114700" d="M38.387,34.274h2.742v2.742H38.387Z"/>
        <path id="Trazado_114701" data-name="Trazado 114701" d="M32.9,34.274h2.742v2.742H32.9Z"/>
      </g>
    </g>
  </g>
</svg>
