<svg xmlns="http://www.w3.org/2000/svg" xmlns:xlink="http://www.w3.org/1999/xlink" width="67" height="72" viewBox="0 0 67 72">
  <defs>
    <clipPath id="clip-path">
      <rect id="Rectángulo_34192" data-name="Rectángulo 34192" width="55" height="55" transform="translate(-9417 -3306)" fill="#2ff980"/>
    </clipPath>
  </defs>
  <g id="Grupo_83834" data-name="Grupo 83834" transform="translate(9076 3464)">
    <rect id="Rectángulo_34186" data-name="Rectángulo 34186" width="67" height="72" rx="5" transform="translate(-9076 -3464)" fill="#fff"/>
    <g id="Enmascarar_grupo_99" data-name="Enmascarar grupo 99" transform="translate(347 -150)" clip-path="url(#clip-path)">
      <g id="Fill_out_line" data-name="Fill out line" transform="translate(-9418.833 -3307.833)">
        <path id="Trazado_115112" data-name="Trazado 115112" d="M16.606,50.417H34.022v3.667H16.606a1.833,1.833,0,0,1-1.833-1.833h0A1.833,1.833,0,0,1,16.606,50.417Z" fill="#cbdbe7"/>
        <rect id="Rectángulo_34202" data-name="Rectángulo 34202" width="23.262" height="3.667" rx="1.833" transform="translate(30.356 50.417)" fill="#adb9c3"/>
        <path id="Trazado_115113" data-name="Trazado 115113" d="M55.872,36.148,53.02,48.981a1.833,1.833,0,0,1-1.79,1.436H34.475a1.833,1.833,0,0,1-1.79-2.231l2.852-12.833a1.833,1.833,0,0,1,1.79-1.436H54.082a1.833,1.833,0,0,1,1.79,2.231Z" fill="#cbdbe7"/>
        <path id="Trazado_115114" data-name="Trazado 115114" d="M52.311,36.148,49.459,48.981a1.833,1.833,0,0,1-1.789,1.436h-13.2a1.833,1.833,0,0,1-1.79-2.231l2.852-12.833a1.833,1.833,0,0,1,1.79-1.436H50.521a1.833,1.833,0,0,1,1.79,2.231Z" fill="#a9ca2a"/>
        <path id="Trazado_115115" data-name="Trazado 115115" d="M30.25,21.083A13.736,13.736,0,1,1,19.976,7.777,13.736,13.736,0,0,1,30.25,21.083Z" fill="#91d3ee"/>
        <path id="Trazado_115116" data-name="Trazado 115116" d="M30.25,21.083a13.707,13.707,0,0,1-4.5,10.169l-1.919-1.919.917-2.75-1.833-2.75L24.75,22l.917-2.75-.917-1.833H22L17.417,13.75l2.56-5.973A13.757,13.757,0,0,1,30.25,21.083Z" fill="#a9ca2a"/>
        <path id="Trazado_115117" data-name="Trazado 115117" d="M8.25,23.833l4.583,1.833L11.917,27.5H8.25L6.658,30.683A13.748,13.748,0,0,1,8.92,9.61l4.83,4.14-1.833,4.583L7.333,16.5l-.917,2.75,1.833.917Z" fill="#a9ca2a"/>
        <path id="Trazado_115118" data-name="Trazado 115118" d="M16.5,2.75a6.416,6.416,0,0,0-6.417,6.417c0,3.544,6.417,11.916,6.417,11.916s6.417-8.373,6.417-11.917A6.416,6.416,0,0,0,16.5,2.75Zm0,9.167a2.75,2.75,0,1,1,2.75-2.75A2.75,2.75,0,0,1,16.5,11.917Z" fill="#e03e21"/>
        <path id="Trazado_115119" data-name="Trazado 115119" d="M48.583,55.917H35.75a5.5,5.5,0,0,1,5.5-5.5h1.833a5.5,5.5,0,0,1,5.5,5.5Z" fill="#91d3ee"/>
        <path id="Trazado_115120" data-name="Trazado 115120" d="M56.767,36.347A2.75,2.75,0,0,0,54.083,33H37.326a2.734,2.734,0,0,0-2.685,2.153l-.7,3.164,1.79.4.7-3.164a.911.911,0,0,1,.895-.718h13.2a.917.917,0,0,1,.895,1.116L48.564,48.782a.911.911,0,0,1-.895.718h-13.2a.917.917,0,0,1-.895-1.116l.93-4.186-1.79-.4-.93,4.186a2.74,2.74,0,0,0,.09,1.513H16.606a2.75,2.75,0,1,0,0,5.5H34.9a6.438,6.438,0,0,0-.067.917.917.917,0,0,0,.917.917H48.583a.917.917,0,0,0,.917-.917A6.437,6.437,0,0,0,49.433,55h2.351a2.749,2.749,0,0,0,1.731-4.885,2.768,2.768,0,0,0,.4-.935ZM50.354,49.18l2.852-12.833a2.74,2.74,0,0,0-.091-1.513h.967a.917.917,0,0,1,.895,1.116L52.126,48.782a.911.911,0,0,1-.895.718h-.97a2.812,2.812,0,0,0,.094-.32ZM15.689,52.25a.918.918,0,0,1,.917-.917H29.6a2.743,2.743,0,0,0,0,1.833H16.606A.918.918,0,0,1,15.689,52.25Zm19.765.917H32.189a.917.917,0,1,1,0-1.833h4.577a6.446,6.446,0,0,0-1.312,1.833Zm5.8-1.833h1.833V55H36.759A4.591,4.591,0,0,1,41.25,51.333ZM44.917,55V51.717A4.6,4.6,0,0,1,47.575,55Zm6.868-1.833H48.88a6.446,6.446,0,0,0-1.312-1.833h4.217a.917.917,0,1,1,0,1.833Z"/>
        <path id="Trazado_115121" data-name="Trazado 115121" d="M15.583,41.25a.917.917,0,0,0,.917.917H41.25V40.333H17.417V35.721a14.666,14.666,0,0,0,8.861-25.569l-1.223,1.366a12.823,12.823,0,0,1,.7,18.444l-.876-.876.738-2.212a.917.917,0,0,0-.107-.8L24.1,23.95l1.3-1.3a.919.919,0,0,0,.221-.358l.917-2.75a.917.917,0,0,0-.05-.7l-.917-1.833a.917.917,0,0,0-.82-.507H22v1.833h2.183l.493.987L23.949,21.5l-1.68,1.68a.917.917,0,0,0-.114,1.157l1.585,2.377-.775,2.325a.917.917,0,0,0,.221.938L24.4,31.193a12.808,12.808,0,0,1-16.616-.7l1.037-2.073h3.1a.917.917,0,0,0,.82-.507l.917-1.833a.917.917,0,0,0-.479-1.261l-4.007-1.6V20.167a.917.917,0,0,0-.507-.82l-1.122-.561L7.9,17.712l2.764,1.106.681-1.7L7.674,15.649a.917.917,0,0,0-1.21.561l-.917,2.75a.917.917,0,0,0,.46,1.11l1.327.663v3.1a.917.917,0,0,0,.576.851l3.658,1.463-.218.436H8.25a.916.916,0,0,0-.82.507l-.981,1.963a12.822,12.822,0,0,1,1.5-17.535L6.722,10.151a14.666,14.666,0,0,0,8.861,25.569Z"/>
        <path id="Trazado_115122" data-name="Trazado 115122" d="M16.5,22a.917.917,0,0,0,.728-.359c.676-.882,6.606-8.728,6.606-12.474a7.333,7.333,0,0,0-14.667,0c0,3.746,5.93,11.592,6.606,12.474A.916.916,0,0,0,16.5,22ZM11,9.167a5.5,5.5,0,0,1,11,0c0,2.332-3.482,7.606-5.5,10.379-.61-.841-1.526-2.143-2.436-3.582C11.4,11.746,11,9.895,11,9.167Z"/>
        <path id="Trazado_115123" data-name="Trazado 115123" d="M20.167,9.167A3.667,3.667,0,1,0,16.5,12.833,3.667,3.667,0,0,0,20.167,9.167ZM16.5,11a1.833,1.833,0,1,1,1.833-1.833A1.833,1.833,0,0,1,16.5,11Z"/>
      </g>
    </g>
  </g>
</svg>
