<svg xmlns="http://www.w3.org/2000/svg" xmlns:xlink="http://www.w3.org/1999/xlink" width="67" height="72" viewBox="0 0 67 72">
  <defs>
    <clipPath id="clip-path">
      <rect id="Rectángulo_33812" data-name="Rectángulo 33812" width="55" height="55" transform="translate(834 8245)" fill="#2ff980"/>
    </clipPath>
  </defs>
  <g id="Grupo_81331" data-name="Grupo 81331" transform="translate(-828 -8248)">
    <rect id="Rectángulo_34186" data-name="Rectángulo 34186" width="67" height="72" rx="5" transform="translate(828 8248)" fill="#fff"/>
    <g id="Enmascarar_grupo_97" data-name="Enmascarar grupo 97" transform="translate(0 12)" clip-path="url(#clip-path)">
      <g id="Fill_out_line" data-name="Fill out line" transform="translate(833.083 8243.167)">
        <path id="Trazado_115086" data-name="Trazado 115086" d="M53.167,29.333a23.831,23.831,0,1,1-7.444-17.306,23.83,23.83,0,0,1,7.444,17.306Z" fill="#8acce7"/>
        <path id="Trazado_115087" data-name="Trazado 115087" d="M25.667,32.574a9.877,9.877,0,0,1-2.895,6.988L14.413,47.92A23.84,23.84,0,0,1,20.167,7.326V9.482a3.666,3.666,0,0,0,1.073,2.592,3.668,3.668,0,0,1,0,5.186l-.694.694a4.427,4.427,0,0,1-3.129,1.3,2.75,2.75,0,1,0,0,5.5h.426a7.824,7.824,0,0,1,7.824,7.823Z" fill="#349966"/>
        <path id="Trazado_115088" data-name="Trazado 115088" d="M53.167,29.333a23.772,23.772,0,0,1-7.444,17.306l-1.264-1.264a3.239,3.239,0,0,1,0-4.583,3.241,3.241,0,0,0-4.583-4.583,3.24,3.24,0,0,1-4.583,0l-2.75-2.75a1.945,1.945,0,0,1,0-2.75,1.945,1.945,0,0,0,0-2.75,1.944,1.944,0,0,1,0-2.75L45.722,12.028A23.772,23.772,0,0,1,53.167,29.333Z" fill="#349966"/>
        <path id="Trazado_115089" data-name="Trazado 115089" d="M21.083,55.917H6.417A3.667,3.667,0,0,1,2.75,52.25V38.5a3.667,3.667,0,0,1,3.667-3.667h6.417l6.417-6.417v6.417h1.833A3.667,3.667,0,0,1,24.75,38.5V52.25A3.667,3.667,0,0,1,21.083,55.917Z" fill="#eebe33"/>
        <rect id="Rectángulo_34187" data-name="Rectángulo 34187" width="14.667" height="10.083" rx="1.833" transform="translate(6.417 38.5)" fill="#8acce7"/>
        <path id="Trazado_115090" data-name="Trazado 115090" d="M15.583,50.417a1.833,1.833,0,0,0,1.833,1.833H10.083a1.833,1.833,0,0,0,1.833-1.833V48.583h3.667Z" fill="#8acce7"/>
        <path id="Trazado_115091" data-name="Trazado 115091" d="M6.417,45.833H21.083v.917a1.833,1.833,0,0,1-1.833,1.833h-11A1.833,1.833,0,0,1,6.417,46.75Z" fill="#379ec3"/>
        <path id="Trazado_115092" data-name="Trazado 115092" d="M35.75,2.75H50.417a3.667,3.667,0,0,1,3.667,3.667v13.75a3.667,3.667,0,0,1-3.667,3.667H44L37.583,30.25V23.833H35.75a3.667,3.667,0,0,1-3.667-3.667V6.417A3.667,3.667,0,0,1,35.75,2.75Z" fill="#eebe33"/>
        <rect id="Rectángulo_34188" data-name="Rectángulo 34188" width="14.667" height="10.083" rx="1.833" transform="translate(35.75 6.417)" fill="#8acce7"/>
        <path id="Trazado_115093" data-name="Trazado 115093" d="M44.917,18.333a1.833,1.833,0,0,0,1.833,1.833H39.417a1.833,1.833,0,0,0,1.833-1.833V16.5h3.667Z" fill="#8acce7"/>
        <path id="Trazado_115094" data-name="Trazado 115094" d="M35.75,13.75H50.417v.917A1.833,1.833,0,0,1,48.583,16.5h-11a1.833,1.833,0,0,1-1.833-1.833Z" fill="#379ec3"/>
        <path id="Trazado_115095" data-name="Trazado 115095" d="M21.083,33.917h-.917v-5.5a.917.917,0,0,0-1.565-.648l-6.148,6.148H6.417A4.589,4.589,0,0,0,1.833,38.5V52.25a4.589,4.589,0,0,0,4.583,4.583H21.083a4.589,4.589,0,0,0,4.583-4.583V38.5A4.589,4.589,0,0,0,21.083,33.917Zm2.75,18.333A2.753,2.753,0,0,1,21.083,55H6.417a2.753,2.753,0,0,1-2.75-2.75V38.5a2.753,2.753,0,0,1,2.75-2.75h6.417a.917.917,0,0,0,.648-.269l4.852-4.852v4.2a.917.917,0,0,0,.917.917h1.833a2.753,2.753,0,0,1,2.75,2.75Z"/>
        <path id="Trazado_115096" data-name="Trazado 115096" d="M19.25,37.583h-11a2.753,2.753,0,0,0-2.75,2.75V46.75A2.753,2.753,0,0,0,8.25,49.5H11v.917a.918.918,0,0,1-.917.917.917.917,0,1,0,0,1.833h7.333a.917.917,0,1,0,0-1.833.918.918,0,0,1-.917-.917V49.5h2.75A2.753,2.753,0,0,0,22,46.75V40.333A2.753,2.753,0,0,0,19.25,37.583Zm-11,1.833h11a.918.918,0,0,1,.917.917v4.583H7.333V40.333a.918.918,0,0,1,.917-.917Zm6.574,11.917H12.676a2.738,2.738,0,0,0,.157-.917V49.5h1.833v.917a2.738,2.738,0,0,0,.157.917Zm4.426-3.667h-11a.918.918,0,0,1-.917-.917H20.167a.918.918,0,0,1-.917.917Z"/>
        <path id="Trazado_115097" data-name="Trazado 115097" d="M50.417,1.833H35.75a4.589,4.589,0,0,0-4.583,4.583v13.75A4.589,4.589,0,0,0,35.75,24.75h.917v5.5a.917.917,0,0,0,1.565.648L44.38,24.75h6.037A4.589,4.589,0,0,0,55,20.167V6.417A4.589,4.589,0,0,0,50.417,1.833Zm2.75,18.333a2.753,2.753,0,0,1-2.75,2.75H44a.917.917,0,0,0-.648.269L38.5,28.037v-4.2a.917.917,0,0,0-.917-.917H35.75A2.753,2.753,0,0,1,33,20.167V6.417a2.753,2.753,0,0,1,2.75-2.75H50.417a2.753,2.753,0,0,1,2.75,2.75Z"/>
        <path id="Trazado_115098" data-name="Trazado 115098" d="M48.583,5.5h-11a2.753,2.753,0,0,0-2.75,2.75v6.417a2.753,2.753,0,0,0,2.75,2.75h2.75v.917a.918.918,0,0,1-.917.917.917.917,0,1,0,0,1.833H46.75a.917.917,0,1,0,0-1.833.918.918,0,0,1-.917-.917v-.917h2.75a2.753,2.753,0,0,0,2.75-2.75V8.25A2.753,2.753,0,0,0,48.583,5.5Zm-11,1.833h11a.918.918,0,0,1,.917.917v4.583H36.667V8.25A.918.918,0,0,1,37.583,7.333ZM44.157,19.25H42.01a2.738,2.738,0,0,0,.157-.917v-.917H44v.917a2.738,2.738,0,0,0,.157.917Zm4.426-3.667h-11a.918.918,0,0,1-.917-.917H49.5a.918.918,0,0,1-.917.917Z"/>
        <path id="Trazado_115099" data-name="Trazado 115099" d="M51.98,25.807a23.182,23.182,0,0,1,.27,3.527,22.839,22.839,0,0,1-6.532,16l-.611-.611a2.323,2.323,0,0,1,0-3.287,4.158,4.158,0,1,0-5.88-5.88,2.327,2.327,0,0,1-3.287,0l-2.75-2.75a1.028,1.028,0,0,1,0-1.454,2.861,2.861,0,0,0,0-4.046,1.034,1.034,0,0,1-.18-1.211l-1.616-.865a2.844,2.844,0,0,0,.5,3.372,1.028,1.028,0,0,1,0,1.454,2.861,2.861,0,0,0,0,4.046l2.75,2.75a4.162,4.162,0,0,0,5.88,0,2.324,2.324,0,0,1,3.287,3.287,4.156,4.156,0,0,0,0,5.88l.576.576A22.82,22.82,0,0,1,29.333,52.25c-.587,0-1.181-.022-1.764-.067l-.139,1.828c.629.048,1.269.072,1.9.072a24.75,24.75,0,0,0,24.75-24.75,25.026,25.026,0,0,0-.291-3.808Z"/>
        <path id="Trazado_115100" data-name="Trazado 115100" d="M24.023,26.393a8.683,8.683,0,0,0-6.18-2.56h-.426a1.833,1.833,0,1,1,0-3.667A5.379,5.379,0,0,0,21.194,18.6l.694-.694a4.585,4.585,0,0,0,0-6.482,2.768,2.768,0,0,1-.805-1.944V7.954a22.8,22.8,0,0,1,8.25-1.537V4.583a24.75,24.75,0,0,0-24.75,24.75,25.1,25.1,0,0,0,.163,2.854l1.821-.208a23.268,23.268,0,0,1-.151-2.645A22.943,22.943,0,0,1,19.25,8.758v.724a4.552,4.552,0,0,0,1.342,3.24,2.751,2.751,0,0,1,0,3.89l-.694.694a3.533,3.533,0,0,1-2.481,1.027,3.667,3.667,0,1,0,0,7.333h.426a6.908,6.908,0,0,1,6.907,6.906,9,9,0,0,1-.083,1.219l1.816.25a10.838,10.838,0,0,0,.1-1.467,8.741,8.741,0,0,0-2.559-6.18Z"/>
      </g>
    </g>
  </g>
</svg>
