<svg xmlns="http://www.w3.org/2000/svg" xmlns:xlink="http://www.w3.org/1999/xlink" width="85" height="85" viewBox="0 0 85 85">
  <defs>
    <clipPath id="clip-path">
      <rect id="Rectángulo_34014" data-name="Rectángulo 34014" width="85" height="85" transform="translate(620 12037)" fill="#2ff980"/>
    </clipPath>
  </defs>
  <g id="Enmascarar_grupo_77" data-name="Enmascarar grupo 77" transform="translate(-620 -12037)" clip-path="url(#clip-path)">
    <g id="confianza" transform="translate(620 12037)">
      <path id="Trazado_114657" data-name="Trazado 114657" d="M68.879,34.835q-.851.506-1.743.968a.829.829,0,0,1-.758,0C58.885,31.934,53.5,25.692,52.37,17.226A33.383,33.383,0,0,0,7.058,60.012l3.485-3.485a1.2,1.2,0,0,1,1.693,0L30.858,75.149a1.2,1.2,0,0,1,0,1.693L28.4,79.3a33.518,33.518,0,0,0,19.051,0l-2.46-2.46a1.2,1.2,0,0,1,0-1.693L63.612,56.527a1.2,1.2,0,0,1,1.693,0l3.485,3.485a33.458,33.458,0,0,0,.089-25.177Z" fill="#d8ecfe"/>
      <g id="Grupo_80988" data-name="Grupo 80988">
        <path id="Trazado_114658" data-name="Trazado 114658" d="M10.543,56.527a1.2,1.2,0,0,1,1.693,0l.486.486a33.392,33.392,0,0,1,28.568-42.9,33.386,33.386,0,0,0-36.736,33.2,33.266,33.266,0,0,0,2.5,12.7Z" fill="#c4e2ff"/>
      </g>
      <g id="Grupo_81002" data-name="Grupo 81002">
        <path id="Trazado_114659" data-name="Trazado 114659" d="M62.236,57.9l-3.858-3.858L53.06,59.364a9.794,9.794,0,0,1-6.97,2.887h0q-.182,0-.365-.007l-2.37-.087c-.124,0-.247-.007-.371-.007a9.961,9.961,0,0,0-5.074,1.376l9.351,9.351Z" fill="#ffe5c2"/>
        <path id="Trazado_114660" data-name="Trazado 114660" d="M52.431,67.709l-5.42-5.42a9.91,9.91,0,0,1-1.289.039l-2.37-.088a9.941,9.941,0,0,0-5.379,1.349l9.288,9.288Z" fill="#fed2a4"/>
        <g id="Grupo_80989" data-name="Grupo 80989">
          <path id="Trazado_114661" data-name="Trazado 114661" d="M51.552,83.4,44.99,76.842a1.2,1.2,0,0,1,0-1.693L63.612,56.527a1.2,1.2,0,0,1,1.693,0l6.562,6.562a1.2,1.2,0,0,1,0,1.693L53.245,83.4a1.2,1.2,0,0,1-1.693,0Z" fill="#fe646f"/>
        </g>
        <g id="Grupo_80990" data-name="Grupo 80990">
          <path id="Trazado_114662" data-name="Trazado 114662" d="M51.961,76.842a1.2,1.2,0,0,1,0-1.693L67.944,59.167,65.3,56.527a1.2,1.2,0,0,0-1.693,0L44.99,75.149a1.2,1.2,0,0,0,0,1.693L51.552,83.4a1.2,1.2,0,0,0,1.693,0l2.639-2.639Z" fill="#fd4755"/>
        </g>
        <path id="Trazado_114663" data-name="Trazado 114663" d="M64.464,43.18a3.586,3.586,0,0,0-5.157-.088,3.586,3.586,0,1,0-5.071-5.071,3.586,3.586,0,0,0-5.071-5.071,3.586,3.586,0,0,0-5.071-5.071L13.84,58.132,28.4,72.7l7.551-7.551a9.941,9.941,0,0,1,7.4-2.9l2.37.088a9.942,9.942,0,0,0,7.4-2.9L64.312,48.23a3.648,3.648,0,0,0,.152-5.049Z" fill="#d88a55"/>
        <path id="Trazado_114664" data-name="Trazado 114664" d="M25.091,55.493,50.213,30.371a3.584,3.584,0,0,0-6.119-2.493L13.84,58.132,28.4,72.7,33,68.1l-7.91-7.91A3.32,3.32,0,0,1,25.091,55.493Z" fill="#c57a44"/>
        <g id="Grupo_80998" data-name="Grupo 80998">
          <path id="Trazado_114665" data-name="Trazado 114665" d="M39.238,32.734l-.016.016H36.281a4.4,4.4,0,0,1-4.4-4.4V27.54A1.954,1.954,0,0,1,32.33,26.3a3.584,3.584,0,0,0-3.773,5.9l8.231,8.231a3.66,3.66,0,0,0,5.033.192,3.586,3.586,0,0,0,.117-5.183Z" fill="#ffe5c2"/>
          <g id="Grupo_80991" data-name="Grupo 80991">
            <path id="Trazado_114666" data-name="Trazado 114666" d="M40.159,38.757l-8.231-8.231a3.585,3.585,0,0,1-.5-4.437,3.585,3.585,0,0,0-2.87,6.105l8.231,8.231a3.66,3.66,0,0,0,5.033.192,3.6,3.6,0,0,0,.638-.778,3.765,3.765,0,0,1-2.3-1.082Z" fill="#fed2a4"/>
          </g>
          <g id="Grupo_80992" data-name="Grupo 80992">
            <path id="Trazado_114667" data-name="Trazado 114667" d="M28.557,32.195a3.586,3.586,0,1,0-5.071,5.071l9.25,9.25a3.586,3.586,0,1,0,5.071-5.071Z" fill="#ffe5c2"/>
          </g>
          <g id="Grupo_80993" data-name="Grupo 80993">
            <path id="Trazado_114668" data-name="Trazado 114668" d="M36.212,44.77l-9.25-9.25a3.584,3.584,0,0,1-.552-4.353,3.584,3.584,0,0,0-2.925,6.1l9.25,9.25a3.575,3.575,0,0,0,5.622-.717A3.572,3.572,0,0,1,36.212,44.77Z" fill="#fed2a4"/>
          </g>
          <g id="Grupo_80994" data-name="Grupo 80994">
            <path id="Trazado_114669" data-name="Trazado 114669" d="M23.486,37.266a3.586,3.586,0,0,0-5.071,5.071l7.594,7.594A3.586,3.586,0,1,0,31.08,44.86Z" fill="#ffe5c2"/>
          </g>
          <g id="Grupo_80995" data-name="Grupo 80995">
            <path id="Trazado_114670" data-name="Trazado 114670" d="M29.405,48.256l-7.594-7.594a3.585,3.585,0,0,1-.507-4.429,3.586,3.586,0,0,0-2.89,6.1l7.594,7.594a3.573,3.573,0,0,0,5.577-.642A3.569,3.569,0,0,1,29.405,48.256Z" fill="#fed2a4"/>
          </g>
          <g id="Grupo_80996" data-name="Grupo 80996">
            <path id="Trazado_114671" data-name="Trazado 114671" d="M19.967,43.889A3.586,3.586,0,0,0,14.9,48.96L18.94,53a3.586,3.586,0,1,0,5.071-5.071Z" fill="#ffe5c2"/>
          </g>
          <g id="Grupo_80997" data-name="Grupo 80997">
            <path id="Trazado_114672" data-name="Trazado 114672" d="M22.36,51.338l-4.044-4.044a3.585,3.585,0,0,1-.5-4.433,3.585,3.585,0,0,0-2.916,6.1L18.94,53a3.573,3.573,0,0,0,5.574-.637,3.57,3.57,0,0,1-2.154-1.029Z" fill="#fed2a4"/>
          </g>
        </g>
        <g id="Grupo_80999" data-name="Grupo 80999">
          <path id="Trazado_114673" data-name="Trazado 114673" d="M40.251,25.578h-6.4a1.962,1.962,0,0,0-1.962,1.962v.814a4.4,4.4,0,0,0,4.4,4.4h2.942l4.5-4.5a3.586,3.586,0,0,0-3.468-2.676Z" fill="#ffe5c2"/>
        </g>
        <g id="Grupo_81000" data-name="Grupo 81000">
          <path id="Trazado_114674" data-name="Trazado 114674" d="M30.858,76.842,24.3,83.4a1.2,1.2,0,0,1-1.693,0L3.981,64.783a1.2,1.2,0,0,1,0-1.693l6.562-6.562a1.2,1.2,0,0,1,1.693,0L30.858,75.149a1.2,1.2,0,0,1,0,1.693Z" fill="#97d729"/>
        </g>
        <g id="Grupo_81001" data-name="Grupo 81001">
          <path id="Trazado_114675" data-name="Trazado 114675" d="M10.809,64.782a1.2,1.2,0,0,1,0-1.693L14.8,59.095l-2.568-2.568a1.2,1.2,0,0,0-1.693,0L3.981,63.09a1.2,1.2,0,0,0,0,1.693L22.6,83.4a1.2,1.2,0,0,0,1.693,0l2.568-2.568Z" fill="#8bc727"/>
        </g>
      </g>
      <g id="Grupo_81007" data-name="Grupo 81007">
        <g id="Grupo_81003" data-name="Grupo 81003">
          <path id="Trazado_114676" data-name="Trazado 114676" d="M66.757,1.245c-4.333,0-8.421,4.326-12.029,3.149A.83.83,0,0,0,53.7,4.91a26.368,26.368,0,0,0-1.554,8.94c0,10.2,5.775,17.586,14.232,21.954a.828.828,0,0,0,.758,0c8.457-4.368,14.232-11.755,14.232-21.954a26.368,26.368,0,0,0-1.554-8.94.83.83,0,0,0-1.028-.516c-3.609,1.177-7.7-3.149-12.029-3.149Z" fill="#fed402"/>
        </g>
        <path id="Trazado_114677" data-name="Trazado 114677" d="M63.306,24.744a8.611,8.611,0,0,1-4.017-12.18c-.016-.371-.027-.744-.027-1.122a26.374,26.374,0,0,1,1.311-8.23c-2.052.955-4.011,1.78-5.846,1.181A.83.83,0,0,0,53.7,4.91a26.368,26.368,0,0,0-1.554,8.94c0,10.2,5.775,17.586,14.232,21.954a.829.829,0,0,0,.758,0,31.365,31.365,0,0,0,4.967-3.17A26.947,26.947,0,0,1,63.306,24.744Z" fill="#fac600"/>
        <g id="Grupo_81006" data-name="Grupo 81006">
          <g id="Grupo_81004" data-name="Grupo 81004">
            <circle id="Elipse_4801" data-name="Elipse 4801" cx="8.613" cy="8.613" r="8.613" transform="translate(58.144 8.241)" fill="#97d729"/>
          </g>
          <g id="Grupo_81005" data-name="Grupo 81005">
            <path id="Trazado_114678" data-name="Trazado 114678" d="M64.248,16.853A8.614,8.614,0,0,1,69.809,8.8a8.613,8.613,0,1,0,0,16.109A8.614,8.614,0,0,1,64.248,16.853Z" fill="#8bc727"/>
          </g>
        </g>
      </g>
      <g id="Grupo_81008" data-name="Grupo 81008">
        <path id="Trazado_114679" data-name="Trazado 114679" d="M82.614,13.85a27.585,27.585,0,0,0-1.627-9.361A2.086,2.086,0,0,0,78.4,3.211c-1.491.487-3.367-.391-5.352-1.321A15.262,15.262,0,0,0,66.757,0a15.267,15.267,0,0,0-6.292,1.889c-1.985.93-3.86,1.808-5.352,1.321a2.086,2.086,0,0,0-2.586,1.278A27.586,27.586,0,0,0,50.9,13.85c0,.469.016.933.039,1.394A34.607,34.607,0,0,0,5.606,59.7L3.1,62.209a2.445,2.445,0,0,0,0,3.454L21.722,84.285a2.442,2.442,0,0,0,3.454,0L28.765,80.7a34.639,34.639,0,0,0,18.318,0l3.589,3.589a2.442,2.442,0,0,0,3.454,0l7.131-7.131A1.245,1.245,0,0,0,59.5,75.392l-7.1,7.1L45.9,76,64.458,57.442l6.494,6.494L63.6,71.284a1.245,1.245,0,0,0,1.761,1.761l7.382-7.382a2.442,2.442,0,0,0,0-3.454L70.242,59.7A34.568,34.568,0,0,0,70.4,35.359c7.9-5.034,12.209-12.573,12.209-21.509ZM23.449,82.49,4.9,63.936l6.494-6.494L29.943,76Zm12.832-48.5h2.458l2.32,2.32A2.341,2.341,0,0,1,40.98,39.7a2.424,2.424,0,0,1-3.312-.154l-8.231-8.231a2.344,2.344,0,0,1,0-3.31,2.32,2.32,0,0,1,1.212-.64c0,.059-.009.117-.009.176v.814A5.647,5.647,0,0,0,36.281,33.995Zm-3.15-5.64V27.54a.718.718,0,0,1,.717-.717h6.4a2.341,2.341,0,0,1,2,1.133L38.707,31.5H36.281A3.154,3.154,0,0,1,33.131,28.354Zm3.8,13.971a2.341,2.341,0,0,1-.026,3.336,2.351,2.351,0,0,1-3.284-.026l-9.25-9.25h0a2.341,2.341,0,0,1,3.31-3.31ZM30.2,45.74a2.341,2.341,0,0,1-.026,3.336,2.351,2.351,0,0,1-3.284-.026l-6.042-6.042L19.3,41.457a2.341,2.341,0,0,1,3.31-3.311h0Zm-11.115-.973,4.047,4.047a2.341,2.341,0,0,1-.027,3.335,2.351,2.351,0,0,1-3.284-.026l-4.044-4.044a2.341,2.341,0,0,1,3.309-3.312Zm2.391,10.523a4.815,4.815,0,0,0,4.7-3.691,4.858,4.858,0,0,0,5.734-.736,4.792,4.792,0,0,0,1.37-2.489,4.871,4.871,0,0,0,2,.427,4.827,4.827,0,0,0,4.674-6.046,4.736,4.736,0,0,0,2.716-1.22,4.831,4.831,0,0,0,.157-6.982L41,32.734l3.975-3.975a2.341,2.341,0,0,1,3.314,3.307l0,0a1.245,1.245,0,0,0,1.761,1.761,2.341,2.341,0,0,1,3.313,3.307l0,0h0A1.245,1.245,0,1,0,55.116,38.9a2.341,2.341,0,1,1,3.31,3.31,1.245,1.245,0,0,0,1.761,1.761,2.341,2.341,0,0,1,3.367.058,2.408,2.408,0,0,1-.123,3.318L54.5,56.283a1.245,1.245,0,0,0,1.761,1.761l2.179-2.178L60.475,57.9,47.262,71.117l-7.146-7.146a8.68,8.68,0,0,1,3.191-.486l2.37.087A11.159,11.159,0,0,0,51.638,62.1,1.245,1.245,0,0,0,50.4,59.942a8.688,8.688,0,0,1-4.635,1.141L43.4,61a11.215,11.215,0,0,0-8.323,3.269L28.4,70.935l-12.8-12.8,3.474-3.474a4.851,4.851,0,0,0,2.4.634ZM37.924,79.438a32.065,32.065,0,0,1-7.1-.8l.918-.918a2.442,2.442,0,0,0,0-3.454L30.166,72.7l6.671-6.671a8.618,8.618,0,0,1,.975-.838l7.69,7.69L44.11,74.269a2.445,2.445,0,0,0,0,3.454l.918.918a32.058,32.058,0,0,1-7.1.8ZM70.048,47.314A31.982,31.982,0,0,1,68.3,57.764l-2.117-2.117a2.442,2.442,0,0,0-3.454,0l-.5.5L60.2,54.1l4.994-4.994a4.918,4.918,0,0,0,.181-6.78A4.794,4.794,0,0,0,61.924,40.8q-.165,0-.33.005a4.828,4.828,0,0,0-4.822-5.077q-.125,0-.249.006a4.824,4.824,0,0,0-5.071-5.069,4.828,4.828,0,0,0-7.327-4.379,4.829,4.829,0,0,0-3.874-1.951h-6.4A3.187,3.187,0,0,0,32,24.921a4.819,4.819,0,0,0-5.732,4.984c-.083,0-.166-.006-.249-.006a4.831,4.831,0,0,0-4.831,4.831c0,.083,0,.166.006.249a4.833,4.833,0,0,0-4.7,6.707,4.829,4.829,0,0,0-2.485,8.155l3.178,3.178-3.353,3.353-.724-.724a2.442,2.442,0,0,0-3.454,0L7.546,57.764a32.117,32.117,0,0,1,43.7-39.677c1.306,8,6.361,14.586,14.565,18.823a2.074,2.074,0,0,0,1.9,0c.173-.09.342-.182.513-.274a31.989,31.989,0,0,1,1.827,10.679ZM66.757,34.6a26.069,26.069,0,0,1-9.638-8.285A21.694,21.694,0,0,1,53.391,13.85a25.1,25.1,0,0,1,1.354-8.158c2.292.553,4.57-.514,6.777-1.548A13.259,13.259,0,0,1,66.757,2.49a13.257,13.257,0,0,1,5.235,1.654c2.207,1.034,4.486,2.1,6.777,1.548a25.107,25.107,0,0,1,1.353,8.158A21.694,21.694,0,0,1,76.4,26.312,26.07,26.07,0,0,1,66.757,34.6Z"/>
        <path id="Trazado_114680" data-name="Trazado 114680" d="M75.35,15.466a1.245,1.245,0,0,0,.816-1.56,9.86,9.86,0,1,0-.273,6.65,1.245,1.245,0,0,0-2.308-.936,7.365,7.365,0,1,1,.2-4.971,1.246,1.246,0,0,0,1.56.816Z"/>
        <path id="Trazado_114681" data-name="Trazado 114681" d="M70.02,13.825l-3.845,3.845-2.68-2.68a1.245,1.245,0,0,0-1.761,1.761l3.561,3.561a1.245,1.245,0,0,0,1.761,0l4.725-4.725a1.245,1.245,0,0,0-1.761-1.761Z"/>
      </g>
    </g>
  </g>
</svg>
