<svg xmlns="http://www.w3.org/2000/svg" xmlns:xlink="http://www.w3.org/1999/xlink" width="67" height="73" viewBox="0 0 67 73">
  <defs>
    <clipPath id="clip-path">
      <rect id="Rectángulo_33816" data-name="Rectángulo 33816" width="55" height="55" transform="translate(-8892 -3516)" fill="#2ff980"/>
    </clipPath>
  </defs>
  <g id="Grupo_83833" data-name="Grupo 83833" transform="translate(9427 3464)">
    <rect id="Rectángulo_34185" data-name="Rectángulo 34185" width="67" height="73" rx="5" transform="translate(-9427 -3464)" fill="#fff"/>
    <g id="Enmascarar_grupo_98" data-name="Enmascarar grupo 98" transform="translate(-529 61)" clip-path="url(#clip-path)">
      <g id="ip_1_" data-name="ip (1)" transform="translate(-8892 -3516)">
        <g id="Grupo_81228" data-name="Grupo 81228">
          <g id="Grupo_81209" data-name="Grupo 81209">
            <g id="Grupo_81208" data-name="Grupo 81208">
              <path id="Trazado_115101" data-name="Trazado 115101" d="M53.255,36.917H1.745V9.524a4.5,4.5,0,0,1,4.5-4.5H48.758a4.5,4.5,0,0,1,4.5,4.5V36.917Z" fill="#5b5c6c"/>
            </g>
          </g>
          <g id="Grupo_81211" data-name="Grupo 81211">
            <g id="Grupo_81210" data-name="Grupo 81210">
              <path id="Trazado_115102" data-name="Trazado 115102" d="M53.254,9.524V36.917H46.079V9.524a4.544,4.544,0,0,0-.111-1,4.5,4.5,0,0,0-4.385-3.5h7.175A4.5,4.5,0,0,1,53.254,9.524Z" fill="#464655"/>
            </g>
          </g>
          <g id="Grupo_81213" data-name="Grupo 81213">
            <g id="Grupo_81212" data-name="Grupo 81212">
              <path id="Trazado_115103" data-name="Trazado 115103" d="M1.745,36.917H53.255v3.01a4.5,4.5,0,0,1-4.5,4.5H6.242a4.5,4.5,0,0,1-4.5-4.5v-3.01Z" fill="#bec8dc"/>
            </g>
          </g>
          <g id="Grupo_81215" data-name="Grupo 81215">
            <g id="Grupo_81214" data-name="Grupo 81214">
              <path id="Trazado_115104" data-name="Trazado 115104" d="M46.079,36.917v3.01a4.5,4.5,0,0,1-4.5,4.5h7.176a4.5,4.5,0,0,0,4.5-4.5v-3.01Z" fill="#afbbd0"/>
            </g>
          </g>
          <g id="Grupo_81217" data-name="Grupo 81217">
            <g id="Grupo_81216" data-name="Grupo 81216">
              <rect id="Rectángulo_34200" data-name="Rectángulo 34200" width="11.717" height="7.308" transform="translate(21.641 44.424)" fill="#afbbd0"/>
            </g>
          </g>
          <g id="Grupo_81219" data-name="Grupo 81219">
            <g id="Grupo_81218" data-name="Grupo 81218">
              <rect id="Rectángulo_34201" data-name="Rectángulo 34201" width="11.717" height="1.965" transform="translate(21.641 44.424)" fill="#95a5b9"/>
            </g>
          </g>
          <g id="Grupo_81221" data-name="Grupo 81221">
            <g id="Grupo_81220" data-name="Grupo 81220">
              <path id="Trazado_115105" data-name="Trazado 115105" d="M49.836,33.258H5.164V9.784A1.258,1.258,0,0,1,6.423,8.526H48.577a1.258,1.258,0,0,1,1.258,1.258V33.258Z" fill="#c3b4fa"/>
            </g>
          </g>
          <g id="Grupo_81223" data-name="Grupo 81223">
            <g id="Grupo_81222" data-name="Grupo 81222">
              <path id="Trazado_115106" data-name="Trazado 115106" d="M49.836,9.785V33.258H46.079V9.524a4.544,4.544,0,0,0-.111-1h2.609A1.258,1.258,0,0,1,49.836,9.785Z" fill="#a09bff"/>
            </g>
          </g>
          <g id="Grupo_81225" data-name="Grupo 81225">
            <g id="Grupo_81224" data-name="Grupo 81224">
              <path id="Trazado_115107" data-name="Trazado 115107" d="M40.033,13.338c0,9.9-10.008,18.138-12.138,19.78a.672.672,0,0,1-.8.015c-2.154-1.537-12.126-9.226-12.126-19.795a12.533,12.533,0,0,1,25.066,0Z" fill="#a0ffaa"/>
            </g>
          </g>
          <g id="Grupo_81227" data-name="Grupo 81227">
            <g id="Grupo_81226" data-name="Grupo 81226">
              <path id="Trazado_115108" data-name="Trazado 115108" d="M27.5.806a12.544,12.544,0,0,0-3.337.45,15.5,15.5,0,0,1,8.432,5.326c6.376,8.237,2.168,23-5.017,26.535-.1.05-.187.09-.253.119a.671.671,0,0,0,.57-.119c2.129-1.641,12.138-9.881,12.138-19.78A12.532,12.532,0,0,0,27.5.806Z" fill="#7de6c4"/>
            </g>
          </g>
        </g>
        <g id="Grupo_81229" data-name="Grupo 81229">
          <path id="Trazado_115109" data-name="Trazado 115109" d="M54.06,36.91V9.524a5.308,5.308,0,0,0-5.3-5.3H37.236a13.337,13.337,0,0,0-19.471,0H6.241a5.308,5.308,0,0,0-5.3,5.3V36.91s0,0,0,.007v3.01a5.308,5.308,0,0,0,5.3,5.3H20.836v5.7H19.114a3.272,3.272,0,0,0-3.268,3.268.807.807,0,0,0,1.615,0,1.655,1.655,0,0,1,1.654-1.653H35.886a1.655,1.655,0,0,1,1.654,1.653.807.807,0,0,0,1.615,0,3.272,3.272,0,0,0-3.268-3.268H34.164v-5.7H48.758a5.308,5.308,0,0,0,5.3-5.3v-3.01S54.06,36.912,54.06,36.91ZM27.5,1.611A11.742,11.742,0,0,1,38.331,8.835h0a11.634,11.634,0,0,1,.9,4.5c0,3.93-1.653,8.053-4.914,12.253a.806.806,0,0,0,1.273.988c3.485-4.489,5.253-8.945,5.253-13.241a13.274,13.274,0,0,0-.6-3.956l-.015-.049h8.351a.453.453,0,0,1,.453.452V32.452H29.975a43.683,43.683,0,0,0,3.758-3.668A.806.806,0,1,0,32.538,27.7a41.219,41.219,0,0,1-5.057,4.717c-2.14-1.542-11.708-9-11.708-19.081a11.636,11.636,0,0,1,.9-4.5h0A11.742,11.742,0,0,1,27.5,1.611ZM6.241,5.833H16.473a13.2,13.2,0,0,0-1.291,2.383h0s0,0,0,0h0a13.238,13.238,0,0,0-1.019,5.119c0,4.666,1.828,9.3,5.433,13.789a37.138,37.138,0,0,0,5.3,5.326H5.969V9.784a.453.453,0,0,1,.453-.452h5.394a.806.806,0,0,0,0-1.611H6.423A2.066,2.066,0,0,0,4.358,9.784V33.258a.806.806,0,0,0,.806.806H49.836a.806.806,0,0,0,.806-.806V9.784A2.066,2.066,0,0,0,48.577,7.72H39.6a13.2,13.2,0,0,0-1.073-1.887H48.759a3.7,3.7,0,0,1,3.69,3.691V36.112H2.551V9.524A3.7,3.7,0,0,1,6.241,5.833ZM48.758,43.618H31.833a.806.806,0,1,0,0,1.611h.72v5.7H22.447v-5.7h6.091a.806.806,0,1,0,0-1.611H6.242a3.7,3.7,0,0,1-3.691-3.691v-2.2h49.9v2.2A3.7,3.7,0,0,1,48.758,43.618Z"/>
          <path id="Trazado_115110" data-name="Trazado 115110" d="M23.971,18.265a1.227,1.227,0,0,0,1.116,0,.407.407,0,0,0,.238-.366V9.974a.392.392,0,0,0-.232-.366,1.351,1.351,0,0,0-1.122,0,.392.392,0,0,0-.232.366V17.9A.408.408,0,0,0,23.971,18.265Z"/>
          <path id="Trazado_115111" data-name="Trazado 115111" d="M27.019,18.265a1.227,1.227,0,0,0,1.116,0,.407.407,0,0,0,.238-.366V15.071h1.366a3.094,3.094,0,0,0,2.079-.671,2.608,2.608,0,0,0,.787-2.1V12.23a2.629,2.629,0,0,0-.756-2.079,2.938,2.938,0,0,0-2.012-.665H27.385a.627.627,0,0,0-.433.146.445.445,0,0,0-.165.341V17.9A.407.407,0,0,0,27.019,18.265Zm1.354-7.389h1.366a1.24,1.24,0,0,1,.945.354,1.471,1.471,0,0,1,.335,1.049v.146a1.471,1.471,0,0,1-.335,1.049,1.24,1.24,0,0,1-.945.354H28.373Z"/>
        </g>
      </g>
    </g>
  </g>
</svg>
