<svg xmlns="http://www.w3.org/2000/svg" xmlns:xlink="http://www.w3.org/1999/xlink" width="67" height="72" viewBox="0 0 67 72">
  <defs>
    <clipPath id="clip-path">
      <rect id="Rect치ngulo_34194" data-name="Rect치ngulo 34194" width="55" height="55" transform="translate(-8892 -3306)" fill="#2ff980"/>
    </clipPath>
  </defs>
  <g id="Grupo_83835" data-name="Grupo 83835" transform="translate(8725 3464)">
    <rect id="Rect치ngulo_34191" data-name="Rect치ngulo 34191" width="67" height="72" rx="5" transform="translate(-8725 -3464)" fill="#fff"/>
    <g id="Enmascarar_grupo_101" data-name="Enmascarar grupo 101" transform="translate(173 -149)" clip-path="url(#clip-path)">
      <g id="Page-1" transform="translate(-8892 -3306.029)">
        <g id="_020---IP-Address" data-name="020---IP-Address">
          <g id="Icons_copy" transform="translate(0.917 0.917)">
            <path id="Shape" d="M47.667,53.167H5.5a5.5,5.5,0,0,1-5.5-5.5v-2.75A.917.917,0,0,1,.917,44H52.25a.917.917,0,0,1,.917.917v2.75A5.5,5.5,0,0,1,47.667,53.167Z" fill="#7f8e94"/>
            <path id="Shape-2" data-name="Shape" d="M52.25,44H49.5a.917.917,0,0,1,.917.917v2.75a5.5,5.5,0,0,1-5.5,5.5h2.75a5.5,5.5,0,0,0,5.5-5.5v-2.75A.917.917,0,0,0,52.25,44Z" fill="#545c60"/>
            <path id="Shape-3" data-name="Shape" d="M17.417,44H35.75v1.833A2.75,2.75,0,0,1,33,48.583H20.167a2.75,2.75,0,0,1-2.75-2.75Z" fill="#37474f"/>
            <path id="Shape-4" data-name="Shape" d="M51.333,33V10.083a3.667,3.667,0,0,0-3.667-3.667H5.5a3.667,3.667,0,0,0-3.667,3.667V33Z" fill="#f5f5f5"/>
            <path id="Shape-5" data-name="Shape" d="M47.667,6.417h-2.75a3.667,3.667,0,0,1,3.667,3.667V33h2.75V10.083A3.667,3.667,0,0,0,47.667,6.417Z" fill="#cfd8dc"/>
            <path id="Rectangle-path" d="M1.833,40.333h49.5V44H1.833Z" fill="#f5f5f5"/>
            <path id="Rectangle-path-2" data-name="Rectangle-path" d="M48.583,40.333h2.75V44h-2.75Z" fill="#cfd8dc"/>
            <path id="Shape-6" data-name="Shape" d="M37.583,11c0,6.078-11,18.333-11,18.333s-11-12.256-11-18.333a11,11,0,0,1,22,0Z" fill="#f44335"/>
            <path id="Shape-7" data-name="Shape" d="M26.583,0a11.293,11.293,0,0,0-1.375.092A11,11,0,0,1,34.833,11c0,4.73-6.673,13.218-9.625,16.738.834,1,1.375,1.595,1.375,1.595s11-12.256,11-18.333A11,11,0,0,0,26.583,0Z" fill="#c81e1e"/>
            <circle id="Oval" cx="4.583" cy="4.583" r="4.583" transform="translate(22 6.417)" fill="#f5f5f5"/>
            <rect id="Rectangle-path-3" data-name="Rectangle-path" width="53.167" height="7.333" rx="1.833" transform="translate(0 33)" fill="#9d27b0"/>
            <path id="Shape-8" data-name="Shape" d="M51.333,33h-2.75a1.833,1.833,0,0,1,1.833,1.833V38.5a1.833,1.833,0,0,1-1.833,1.833h2.75A1.833,1.833,0,0,0,53.167,38.5V34.833A1.833,1.833,0,0,0,51.333,33Z" fill="#6a1b9a"/>
          </g>
          <g id="Icons">
            <path id="Shape-9" data-name="Shape" d="M13.75,47.667H11A.917.917,0,1,0,11,49.5h2.75a.917.917,0,1,0,0-1.833Z"/>
            <circle id="Oval-2" data-name="Oval" cx="0.917" cy="0.917" r="0.917" transform="translate(4.583 47.667)"/>
            <circle id="Oval-3" data-name="Oval" cx="0.917" cy="0.917" r="0.917" transform="translate(7.333 47.667)"/>
            <path id="Shape-10" data-name="Shape" d="M27.5,17.417a5.5,5.5,0,1,0-5.5-5.5A5.5,5.5,0,0,0,27.5,17.417Zm0-9.167a3.667,3.667,0,1,1-3.667,3.667A3.667,3.667,0,0,1,27.5,8.25Z"/>
            <path id="Shape-11" data-name="Shape" d="M55,39.417V35.75a2.75,2.75,0,0,0-1.833-2.585V11a4.583,4.583,0,0,0-4.583-4.583H38.06a11.917,11.917,0,0,0-21.083,0H6.417A4.583,4.583,0,0,0,1.833,11V33.165A2.75,2.75,0,0,0,0,35.75v3.667A2.75,2.75,0,0,0,1.833,42v2A1.833,1.833,0,0,0,0,45.833v2.75A6.417,6.417,0,0,0,6.417,55H48.583A6.417,6.417,0,0,0,55,48.583v-2.75A1.833,1.833,0,0,0,53.167,44V42A2.75,2.75,0,0,0,55,39.417ZM27.5,1.833A10.083,10.083,0,0,1,37.583,11.917c0,4.373-6.738,13.072-10.083,16.949-3.346-3.877-10.083-12.577-10.083-16.949A10.083,10.083,0,0,1,27.5,1.833ZM6.417,8.25H16.17a11.816,11.816,0,0,0-.587,3.667c0,5.1,6.939,13.878,9.909,17.417H20.167a.917.917,0,0,0,0,1.833H34.833a.917.917,0,0,0,0-1.833H29.507c2.97-3.538,9.909-12.32,9.909-17.417A11.816,11.816,0,0,0,38.83,8.25h9.753A2.75,2.75,0,0,1,51.333,11V33H3.667V11A2.75,2.75,0,0,1,6.417,8.25ZM1.833,35.75a.917.917,0,0,1,.917-.917h49.5a.917.917,0,0,1,.917.917v3.667a.917.917,0,0,1-.917.917H2.75a.917.917,0,0,1-.917-.917ZM53.167,48.583a4.583,4.583,0,0,1-4.583,4.583H6.417a4.583,4.583,0,0,1-4.583-4.583v-2.75H17.417v.917a3.667,3.667,0,0,0,3.667,3.667H33.917a3.667,3.667,0,0,0,3.667-3.667v-.917H53.167ZM19.25,45.833h16.5v.917a1.833,1.833,0,0,1-1.833,1.833H21.083A1.833,1.833,0,0,1,19.25,46.75ZM36.667,44h-33V42.167H51.333V44Z"/>
            <circle id="Oval-4" data-name="Oval" cx="0.917" cy="0.917" r="0.917" transform="translate(4.583 36.667)"/>
            <circle id="Oval-5" data-name="Oval" cx="0.917" cy="0.917" r="0.917" transform="translate(8.25 36.667)"/>
            <path id="Shape-12" data-name="Shape" d="M12.833,38.5H16.5a.917.917,0,1,0,0-1.833H12.833a.917.917,0,1,0,0,1.833Z"/>
            <circle id="Oval-6" data-name="Oval" cx="0.917" cy="0.917" r="0.917" transform="translate(19.25 36.667)"/>
            <circle id="Oval-7" data-name="Oval" cx="0.917" cy="0.917" r="0.917" transform="translate(22.917 36.667)"/>
            <path id="Shape-13" data-name="Shape" d="M27.5,38.5h3.667a.917.917,0,1,0,0-1.833H27.5a.917.917,0,1,0,0,1.833Z"/>
            <circle id="Oval-8" data-name="Oval" cx="0.917" cy="0.917" r="0.917" transform="translate(33.917 36.667)"/>
            <circle id="Oval-9" data-name="Oval" cx="0.917" cy="0.917" r="0.917" transform="translate(37.583 36.667)"/>
            <circle id="Oval-10" data-name="Oval" cx="0.917" cy="0.917" r="0.917" transform="translate(48.583 36.667)"/>
            <path id="Shape-14" data-name="Shape" d="M42.167,38.5h3.667a.917.917,0,0,0,0-1.833H42.167a.917.917,0,1,0,0,1.833Z"/>
          </g>
        </g>
      </g>
    </g>
  </g>
</svg>
