<svg xmlns="http://www.w3.org/2000/svg" xmlns:xlink="http://www.w3.org/1999/xlink" width="67" height="72" viewBox="0 0 67 72">
  <defs>
    <clipPath id="clip-path">
      <rect id="Rect치ngulo_34198" data-name="Rect치ngulo 34198" width="55" height="55" transform="translate(-8892 -3097)" fill="#2ff980"/>
    </clipPath>
  </defs>
  <g id="Grupo_83837" data-name="Grupo 83837" transform="translate(9076 3141)">
    <rect id="Rect치ngulo_34387" data-name="Rect치ngulo 34387" width="67" height="72" rx="5" transform="translate(-9076 -3141)" fill="#fff"/>
    <g id="Enmascarar_grupo_103" data-name="Enmascarar grupo 103" transform="translate(-178 -35)" clip-path="url(#clip-path)">
      <g id="Page-1" transform="translate(-8890.167 -3097)">
        <g id="_041---IP-Address" data-name="041---IP-Address" transform="translate(-0.917)">
          <g id="Icons_copy" transform="translate(0.917 0.917)">
            <path id="Shape" d="M50.417,9.332v34.5a1.925,1.925,0,0,1-1.833,2H2.75a1.925,1.925,0,0,1-1.833-2V9.332a1.925,1.925,0,0,1,1.833-2H15.3A10.817,10.817,0,0,0,14.667,11c0,6.078,11,16.5,11,16.5s11-10.422,11-16.5a10.817,10.817,0,0,0-.632-3.667H48.583A1.925,1.925,0,0,1,50.417,9.332Z" fill="#02a9f4"/>
            <path id="Shape-2" data-name="Shape" d="M48.583,7.333h-2.75a1.925,1.925,0,0,1,1.833,2v34.5a1.925,1.925,0,0,1-1.833,2h2.75a1.925,1.925,0,0,0,1.833-2V9.332A1.925,1.925,0,0,0,48.583,7.333Z" fill="#0377bc"/>
            <path id="Shape-3" data-name="Shape" d="M33,45.833,35.75,49.5H15.583l2.75-3.667Z" fill="#607d8b"/>
            <rect id="Rectangle-path" width="31.167" height="3.667" rx="1.833" transform="translate(10.083 49.5)" fill="#7f8e94"/>
            <path id="Shape-4" data-name="Shape" d="M39.417,49.5h-2.75a1.833,1.833,0,0,1,0,3.667h2.75a1.833,1.833,0,0,0,0-3.667Z" fill="#545c60"/>
            <path id="Shape-5" data-name="Shape" d="M36.667,11c0,6.078-11,16.5-11,16.5s-11-10.422-11-16.5A10.817,10.817,0,0,1,15.3,7.333a11,11,0,0,1,20.735,0A10.817,10.817,0,0,1,36.667,11Z" fill="#f44335"/>
            <path id="Shape-6" data-name="Shape" d="M36.034,7.333A11,11,0,0,0,25.667,0a11.293,11.293,0,0,0-1.375.092,11,11,0,0,1,8.993,7.242A10.817,10.817,0,0,1,33.917,11c0,4.739-6.673,12.109-9.625,15.134.834.853,1.375,1.366,1.375,1.366s11-10.422,11-16.5A10.817,10.817,0,0,0,36.034,7.333Z" fill="#c81e1e"/>
            <circle id="Oval" cx="4.583" cy="4.583" r="4.583" transform="translate(21.083 6.417)" fill="#f5f5f5"/>
          </g>
          <g id="Icons">
            <path id="Shape-7" data-name="Shape" d="M49.5,7.333H37.583a11.917,11.917,0,0,0-22,0H3.667a2.842,2.842,0,0,0-2.75,2.915v34.5a2.842,2.842,0,0,0,2.75,2.915h13.75L16.042,49.5H12.833a2.75,2.75,0,0,0,0,5.5h27.5a2.75,2.75,0,1,0,0-5.5H37.125L35.75,47.667H49.5a2.842,2.842,0,0,0,2.75-2.915v-34.5A2.842,2.842,0,0,0,49.5,7.333Zm-22.917-5.5A10.083,10.083,0,0,1,36.667,11.917c0,4.354-6.774,11.917-10.083,15.226C23.274,23.833,16.5,16.271,16.5,11.917A10.083,10.083,0,0,1,26.583,1.833ZM41.25,52.25a.917.917,0,0,1-.917.917h-27.5a.917.917,0,1,1,0-1.833h27.5A.917.917,0,0,1,41.25,52.25ZM34.833,49.5h-16.5l1.375-1.833h13.75ZM49.5,45.833H3.667a1.027,1.027,0,0,1-.917-1.082V42.167H6.417a.917.917,0,1,0,0-1.833H2.75V10.248a1.027,1.027,0,0,1,.917-1.082H15a11.825,11.825,0,0,0-.33,2.75c0,4.987,6.582,12.366,9.7,15.583H22a.917.917,0,0,0,0,1.833h9.167a.917.917,0,1,0,0-1.833H28.8c3.117-3.217,9.7-10.6,9.7-15.583a11.825,11.825,0,0,0-.33-2.75H49.5a1.027,1.027,0,0,1,.917,1.082V40.333H10.083a.917.917,0,1,0,0,1.833H50.417v2.585A1.027,1.027,0,0,1,49.5,45.833Z"/>
            <path id="Shape-8" data-name="Shape" d="M32.083,11.917a5.5,5.5,0,1,0-5.5,5.5A5.5,5.5,0,0,0,32.083,11.917Zm-9.167,0a3.667,3.667,0,1,1,3.667,3.667A3.667,3.667,0,0,1,22.917,11.917Z"/>
            <path id="Shape-9" data-name="Shape" d="M13.75,27.5a.917.917,0,0,0,.917-.917V22a.917.917,0,0,0-1.833,0v4.583A.917.917,0,0,0,13.75,27.5Z"/>
            <path id="Shape-10" data-name="Shape" d="M7.333,32.083a.917.917,0,0,0,.917-.917V12.833a.917.917,0,1,0-1.833,0V31.167A.917.917,0,0,0,7.333,32.083Z"/>
            <path id="Shape-11" data-name="Shape" d="M39.417,27.5a.917.917,0,0,0,.917-.917V22A.917.917,0,0,0,38.5,22v4.583A.917.917,0,0,0,39.417,27.5Z"/>
            <path id="Shape-12" data-name="Shape" d="M45.833,32.083a.917.917,0,0,0,.917-.917V12.833a.917.917,0,1,0-1.833,0V31.167A.917.917,0,0,0,45.833,32.083Z"/>
            <path id="Shape-13" data-name="Shape" d="M47.667,38.5a.917.917,0,1,0,0-1.833H46.75V34.833a.917.917,0,1,0-1.833,0v1.833H40.333V30.25a.917.917,0,0,0-1.833,0v6.417H33.917V32.083a.917.917,0,1,0-1.833,0v4.583H27.5v-2.75a.917.917,0,1,0-1.833,0v2.75H21.083V32.083a.917.917,0,1,0-1.833,0v4.583H14.667V30.25a.917.917,0,0,0-1.833,0v6.417H8.25V34.833a.917.917,0,1,0-1.833,0v1.833H5.5a.917.917,0,1,0,0,1.833Z"/>
          </g>
        </g>
      </g>
    </g>
  </g>
</svg>
