<svg xmlns="http://www.w3.org/2000/svg" xmlns:xlink="http://www.w3.org/1999/xlink" width="190" height="115" viewBox="0 0 190 115">
  <defs>
    <clipPath id="clip-path">
      <rect id="Rectángulo_34140" data-name="Rectángulo 34140" width="190" height="115" transform="translate(1852 -1557)" fill="#2ff980"/>
    </clipPath>
  </defs>
  <g id="Enmascarar_grupo_120" data-name="Enmascarar grupo 120" transform="translate(-1852 1557)" clip-path="url(#clip-path)">
    <g id="delegar" transform="translate(1887.645 -1558.855)">
      <g id="Grupo_83195" data-name="Grupo 83195">
        <g id="Grupo_83171" data-name="Grupo 83171">
          <path id="Trazado_121244" data-name="Trazado 121244" d="M92.093,93.5l-1.206,4.8L86.528,99.4A11.373,11.373,0,0,0,77.9,110.437v.519A44.242,44.242,0,0,1,59.355,115V92.742a22.25,22.25,0,0,0,22.11-19.7l.2.019a11.272,11.272,0,0,0-.056,1.131v1.391a14.167,14.167,0,0,0,4.433,10.331l1.317,1.261a9.283,9.283,0,0,0,2.523,4.711A9.01,9.01,0,0,0,92.093,93.5Z" fill="#aab2bd"/>
        </g>
        <g id="Grupo_83172" data-name="Grupo 83172">
          <path id="Trazado_121245" data-name="Trazado 121245" d="M59.355,92.742V115a44.242,44.242,0,0,1-18.548-4.044v-.519a11.363,11.363,0,0,0-1.836-6.177v-.019l-.019-24.484v-.371A22.252,22.252,0,0,0,59.355,92.742Z" fill="#aab2bd"/>
        </g>
        <g id="Grupo_83173" data-name="Grupo 83173">
          <path id="Trazado_121246" data-name="Trazado 121246" d="M55,34.148l-1.206,4.8-4.359,1.094a11.373,11.373,0,0,0-8.625,11.036v7.085c-.26.39-.5.779-.742,1.187L20.811,48.226A44.545,44.545,0,0,1,49.469,27.062l.8.76a9.283,9.283,0,0,0,2.523,4.711A9.01,9.01,0,0,0,55,34.148Z" fill="#aab2bd"/>
        </g>
        <g id="Grupo_83174" data-name="Grupo 83174">
          <path id="Trazado_121247" data-name="Trazado 121247" d="M20.811,48.226,40.065,59.355A22.12,22.12,0,0,0,37.1,70.484c0,.594.019,1.169.074,1.744h-.019a16.438,16.438,0,0,0-3.1-4.266,16.651,16.651,0,0,0-18.827-3.339A43.564,43.564,0,0,1,20.811,48.226Z" fill="#aab2bd"/>
        </g>
        <g id="Grupo_83175" data-name="Grupo 83175">
          <path id="Trazado_121248" data-name="Trazado 121248" d="M103.259,63.065H92.742a11.144,11.144,0,0,0-11.073,10l-.2-.019a23.147,23.147,0,0,0,.148-2.56,22.12,22.12,0,0,0-2.968-11.129L97.9,48.226A44.031,44.031,0,0,1,103.259,63.065Z" fill="#aab2bd"/>
        </g>
        <g id="Grupo_83176" data-name="Grupo 83176">
          <path id="Trazado_121249" data-name="Trazado 121249" d="M97.9,48.226,78.645,59.355c-.241-.408-.482-.8-.742-1.187V51.082a11.373,11.373,0,0,0-8.625-11.036l-4.359-1.094-1.206-4.8a9.242,9.242,0,0,0,4.73-6.325l.8-.76A44.591,44.591,0,0,1,97.9,48.226Z" fill="#aab2bd"/>
        </g>
        <g id="Grupo_83177" data-name="Grupo 83177">
          <path id="Trazado_121250" data-name="Trazado 121250" d="M74.194,14.839V16.23A14.167,14.167,0,0,1,69.76,26.561l-.519.5-.8.76a8.741,8.741,0,0,0,.185-1.855V21.739a1.88,1.88,0,0,0-1.261-1.762,19.16,19.16,0,0,1-7.512-4.637l-.5-.5-.5.5a19.16,19.16,0,0,1-7.512,4.637,1.88,1.88,0,0,0-1.261,1.762v4.229a8.74,8.74,0,0,0,.185,1.855l-.8-.76-.519-.5A14.167,14.167,0,0,1,44.516,16.23V14.839A11.129,11.129,0,0,1,55.645,3.71h7.419a11.133,11.133,0,0,1,4.971,1.169,10.83,10.83,0,0,1,3.932,3.283A11.115,11.115,0,0,1,74.194,14.839Z" fill="#b27946"/>
        </g>
        <g id="Grupo_83178" data-name="Grupo 83178">
          <path id="Trazado_121251" data-name="Trazado 121251" d="M22.258,74.194a22.03,22.03,0,0,1-8.681,5.36l-.594.2v5.565A9.25,9.25,0,0,0,17.9,93.5l-1.206,4.8-3.265.816-1.094.278a11.4,11.4,0,0,0-5.286,2.986A11.556,11.556,0,0,0,5.565,104.2V79.758a16.683,16.683,0,0,1,28.49-11.8,16.681,16.681,0,0,1,4.9,11.426v.371l.019,24.484a10.968,10.968,0,0,0-1.5-1.855A11.4,11.4,0,0,0,32.181,99.4l-1.094-.278-3.265-.816-1.206-4.8a9.01,9.01,0,0,0,2.207-1.614,9.314,9.314,0,0,0,2.708-6.566V79.758l-.594-.2A22.03,22.03,0,0,1,22.258,74.194Z" fill="#b27946"/>
        </g>
        <g id="Grupo_83179" data-name="Grupo 83179">
          <path id="Trazado_121252" data-name="Trazado 121252" d="M94.04,74.323l-.019.019-1.224.3a7.436,7.436,0,0,0-5.62,7.2v3.487a8.741,8.741,0,0,0,.185,1.855l-1.317-1.261a14.167,14.167,0,0,1-4.433-10.331V74.194a11.275,11.275,0,0,1,.056-1.131,11.144,11.144,0,0,1,11.073-10h14.839a3.721,3.721,0,0,1,3.71,3.71v8.81a14.167,14.167,0,0,1-4.433,10.331l-1.317,1.261a8.741,8.741,0,0,0,.185-1.855v-4.21a3.727,3.727,0,0,0-3.19-3.673l-4.285-.612a6.336,6.336,0,0,1-4.21-2.5Z" fill="#b27946"/>
        </g>
        <g id="Grupo_83180" data-name="Grupo 83180">
          <path id="Trazado_121253" data-name="Trazado 121253" d="M77.9,51.082v7.085a22.256,22.256,0,0,0-18.548-9.942l5.565-9.274,4.359,1.094A11.373,11.373,0,0,1,77.9,51.082Z" fill="#ff826e"/>
        </g>
        <g id="Grupo_83181" data-name="Grupo 83181">
          <path id="Trazado_121254" data-name="Trazado 121254" d="M53.79,38.952l5.565,9.274a22.256,22.256,0,0,0-18.548,9.942V51.082a11.373,11.373,0,0,1,8.625-11.036Z" fill="#ff826e"/>
        </g>
        <g id="Grupo_83182" data-name="Grupo 83182">
          <path id="Trazado_121255" data-name="Trazado 121255" d="M96.452,107.581V115H77.9v-4.563A11.373,11.373,0,0,1,86.528,99.4l4.359-1.094Z" fill="#4fc1e9"/>
        </g>
        <g id="Grupo_83183" data-name="Grupo 83183">
          <path id="Trazado_121256" data-name="Trazado 121256" d="M115,110.437V115H96.452v-7.419l5.565-9.274,4.359,1.094A11.373,11.373,0,0,1,115,110.437Z" fill="#4fc1e9"/>
        </g>
        <g id="Grupo_83184" data-name="Grupo 83184">
          <path id="Trazado_121257" data-name="Trazado 121257" d="M40.065,59.355c.241-.408.482-.8.742-1.187a22.274,22.274,0,0,1,37.1,0c.26.39.5.779.742,1.187a22.12,22.12,0,0,1,2.968,11.129,23.145,23.145,0,0,1-.148,2.56,22.26,22.26,0,0,1-42.513,6.344,16.55,16.55,0,0,0-1.8-7.16h.019c-.056-.575-.074-1.15-.074-1.744a22.12,22.12,0,0,1,2.968-11.129Z" fill="#e6e9ed"/>
        </g>
        <g id="Grupo_83185" data-name="Grupo 83185">
          <path id="Trazado_121258" data-name="Trazado 121258" d="M74.194,68.629v3.728l-3.32,1.094A1.863,1.863,0,0,0,69.7,74.583c-.037.111-.093.223-.13.315a1.959,1.959,0,0,0,0,1.614l1.577,3.153-2.615,2.615L65.383,80.7a1.959,1.959,0,0,0-1.614,0c-.093.037-.2.093-.315.13A1.863,1.863,0,0,0,62.323,82l-1.094,3.32H57.481L56.387,82a1.863,1.863,0,0,0-1.131-1.169c-.111-.037-.223-.093-.315-.13a1.959,1.959,0,0,0-1.614,0l-3.153,1.577-2.615-2.615,1.577-3.153a1.959,1.959,0,0,0,0-1.614c-.037-.093-.093-.2-.13-.315a1.863,1.863,0,0,0-1.169-1.131l-3.32-1.094V68.61l3.32-1.094A1.863,1.863,0,0,0,49,66.385c.037-.111.093-.223.13-.315a1.959,1.959,0,0,0,0-1.614L47.558,61.3l2.615-2.615,3.153,1.558a1.89,1.89,0,0,0,1.614.019c.093-.037.2-.093.315-.13a1.863,1.863,0,0,0,1.131-1.169l1.094-3.32h3.747l1.094,3.32a1.863,1.863,0,0,0,1.131,1.169c.111.037.223.093.315.13a1.89,1.89,0,0,0,1.614-.019l3.153-1.558L71.152,61.3l-1.577,3.153a1.959,1.959,0,0,0,0,1.614c.037.093.093.2.13.315a1.863,1.863,0,0,0,1.169,1.131ZM63.065,70.484a3.71,3.71,0,1,0-3.71,3.71A3.721,3.721,0,0,0,63.065,70.484Z" fill="#fcd770"/>
        </g>
        <g id="Grupo_83186" data-name="Grupo 83186">
          <path id="Trazado_121259" data-name="Trazado 121259" d="M17.1,105.726,22.258,115H3.71v-4.563A11.364,11.364,0,0,1,5.565,104.2a11.556,11.556,0,0,1,1.484-1.818A11.4,11.4,0,0,1,12.335,99.4l1.094-.278Z" fill="#5cd6b3"/>
        </g>
        <g id="Grupo_83187" data-name="Grupo 83187">
          <path id="Trazado_121260" data-name="Trazado 121260" d="M40.806,110.956V115H22.258l5.156-9.274,3.673-6.6,1.094.278a11.4,11.4,0,0,1,5.286,2.986,10.968,10.968,0,0,1,1.5,1.855v.019a11.363,11.363,0,0,1,1.836,6.177Z" fill="#5cd6b3"/>
        </g>
        <g id="Grupo_83188" data-name="Grupo 83188">
          <path id="Trazado_121261" data-name="Trazado 121261" d="M27.415,105.726,22.258,115,17.1,105.726Z" fill="#ffeaa7"/>
        </g>
        <g id="Grupo_83189" data-name="Grupo 83189">
          <path id="Trazado_121262" data-name="Trazado 121262" d="M63.714,34.148l1.206,4.8-5.565,9.274L53.79,38.952,55,34.148a9.228,9.228,0,0,0,8.718,0Z" fill="#f5e0cd"/>
        </g>
        <g id="Grupo_83190" data-name="Grupo 83190">
          <path id="Trazado_121263" data-name="Trazado 121263" d="M105.726,81.112v4.21a8.741,8.741,0,0,1-.185,1.855,9.242,9.242,0,0,1-4.73,6.325,9.356,9.356,0,0,1-10.925-1.614,9.283,9.283,0,0,1-2.523-4.711,8.741,8.741,0,0,1-.185-1.855V81.835a7.436,7.436,0,0,1,5.62-7.2l1.224-.3.019-.019a6.336,6.336,0,0,0,4.21,2.5l4.285.612a3.727,3.727,0,0,1,3.19,3.673Z" fill="#f5e0cd"/>
        </g>
        <g id="Grupo_83191" data-name="Grupo 83191">
          <path id="Trazado_121264" data-name="Trazado 121264" d="M100.81,93.5l1.206,4.8-5.565,9.274-5.565-9.274,1.206-4.8a9.228,9.228,0,0,0,8.718,0Z" fill="#f5e0cd"/>
        </g>
        <g id="Grupo_83192" data-name="Grupo 83192">
          <path id="Trazado_121265" data-name="Trazado 121265" d="M68.629,21.739v4.229a8.741,8.741,0,0,1-.185,1.855,9.242,9.242,0,0,1-4.73,6.325,9.356,9.356,0,0,1-10.925-1.614,9.283,9.283,0,0,1-2.523-4.711,8.74,8.74,0,0,1-.185-1.855V21.739a1.88,1.88,0,0,1,1.261-1.762,19.16,19.16,0,0,0,7.512-4.637l.5-.5.5.5a19.16,19.16,0,0,0,7.512,4.637,1.88,1.88,0,0,1,1.261,1.762Z" fill="#f5e0cd"/>
        </g>
        <g id="Grupo_83193" data-name="Grupo 83193">
          <path id="Trazado_121266" data-name="Trazado 121266" d="M31.532,79.758v5.565a9.314,9.314,0,0,1-2.708,6.566A9.449,9.449,0,0,1,22.258,94.6,9.1,9.1,0,0,1,17.9,93.5a9.25,9.25,0,0,1-4.915-8.18V79.758l.594-.2a22.03,22.03,0,0,0,8.681-5.36,22.03,22.03,0,0,0,8.681,5.36Z" fill="#f5e0cd"/>
        </g>
        <g id="Grupo_83194" data-name="Grupo 83194">
          <path id="Trazado_121267" data-name="Trazado 121267" d="M31.087,99.123l-3.673,6.6H17.1l-3.673-6.6,3.265-.816L17.9,93.5a9.228,9.228,0,0,0,8.718,0l1.206,4.8Z" fill="#f5e0cd"/>
        </g>
      </g>
      <g id="Grupo_83196" data-name="Grupo 83196">
        <path id="Trazado_121268" data-name="Trazado 121268" d="M59.355,76.048a5.565,5.565,0,1,0-5.565-5.565A5.571,5.571,0,0,0,59.355,76.048Zm0-7.419A1.855,1.855,0,1,1,57.5,70.484,1.857,1.857,0,0,1,59.355,68.629Z"/>
        <path id="Trazado_121269" data-name="Trazado 121269" d="M47.282,75.273l.184.421-2.157,4.344,4.494,4.5,4.4-2.128.434.171L55.729,85.9c.425,1.272.425,1.272,5.494,1.276l1.345,0,1.6-4.626.4-.18,4.346,2.159,4.494-4.5-2.126-4.4.169-.432,4.6-1.519V68.627c0-1.347,0-1.347-4.6-2.866l-.2-.488L73.4,60.93l-4.494-4.5-4.4,2.127-.434-.171-1.514-4.6H56.146l-1.6,4.624-.4.18L49.8,56.435l-4.494,4.5,2.126,4.4-.169.432-4.6,1.517v6.416Zm-.911-5.312,2.051-.675a3.774,3.774,0,0,0,2.307-2.224l.109-.265a3.762,3.762,0,0,0-.052-3.17l-.97-1.957.725-.725,1.957.97a3.742,3.742,0,0,0,3.17.052l.263-.109a3.767,3.767,0,0,0,2.226-2.307l.671-2.05h1.048l.675,2.051a3.753,3.753,0,0,0,2.205,2.3l.28.117a3.752,3.752,0,0,0,3.172-.052l1.957-.97.725.725-.97,1.957a3.758,3.758,0,0,0-.054,3.168l.109.265a3.761,3.761,0,0,0,2.306,2.224l2.055.681v1.044l-2.051.675A3.774,3.774,0,0,0,67.98,73.91l-.109.265a3.762,3.762,0,0,0,.052,3.17l.97,1.957-.725.725-1.957-.97a3.749,3.749,0,0,0-3.17-.052l-.263.109a3.767,3.767,0,0,0-2.226,2.307l-.675,2.05c-.341,0-.709,0-1.05,0l-.675-2.048a3.753,3.753,0,0,0-2.205-2.3l-.28-.117a3.759,3.759,0,0,0-3.172.052l-1.957.97-.725-.725.97-1.957a3.758,3.758,0,0,0,.054-3.168l-.109-.265a3.772,3.772,0,0,0-2.307-2.226l-2.048-.679Z"/>
        <path id="Trazado_121270" data-name="Trazado 121270" d="M112.976,101.079a13.242,13.242,0,0,0-6.151-3.482l-3.281-.82-.608-2.43a11.149,11.149,0,0,0,4.262-6.19l.942-.9a16.176,16.176,0,0,0,4.173-6.574,16.012,16.012,0,0,0,.831-5.1V66.774a5.571,5.571,0,0,0-5.565-5.565h-2.816A46.089,46.089,0,0,0,72.673,26.064a15.9,15.9,0,0,0,3.376-9.831V14.839A12.987,12.987,0,0,0,63.065,1.855H55.645A12.984,12.984,0,0,0,42.661,14.839v1.395a15.9,15.9,0,0,0,3.38,9.836A46.487,46.487,0,0,0,13.551,63.389,18.562,18.562,0,0,0,3.71,79.758V103.7a13.15,13.15,0,0,0-1.855,6.739v6.412H42.661v-3.1a46.453,46.453,0,0,0,33.387,0v3.1h40.806v-6.412a13.159,13.159,0,0,0-3.878-9.363ZM100.03,98.012l-3.578,5.963L92.874,98.01l.5-2a10.9,10.9,0,0,0,6.154,0ZM76.084,109.725A42.212,42.212,0,0,1,61.21,113.1V94.5A24.123,24.123,0,0,0,80.852,81.348a16.193,16.193,0,0,0,3.908,5.913l.942.9a11.149,11.149,0,0,0,4.262,6.19l-.608,2.43-3.279.82a13.2,13.2,0,0,0-9.994,12.127ZM38.952,70.484a20.412,20.412,0,1,1,1.81,8.4A18.381,18.381,0,0,0,39,71.836c-.03-.449-.052-.9-.052-1.352Zm37.1-17.359A24.027,24.027,0,0,0,62.493,46.6L65.8,41.083l3.027.757a9.533,9.533,0,0,1,7.219,9.248ZM59.355,33.387a7.427,7.427,0,0,1-7.419-7.419V21.741a21.127,21.127,0,0,0,7.419-4.32,21.139,21.139,0,0,0,7.419,4.32v4.227A7.427,7.427,0,0,1,59.355,33.387Zm0,3.71a11.018,11.018,0,0,0,3.077-.443l.5,2L59.355,44.62l-3.578-5.965.5-2A11.018,11.018,0,0,0,59.355,37.1Zm-6.447,3.988L56.216,46.6a24.033,24.033,0,0,0-13.555,6.525V51.09a9.533,9.533,0,0,1,7.219-9.248ZM40.832,103.747l-.019-17.855A24.118,24.118,0,0,0,57.5,94.523V113.1a42.221,42.221,0,0,1-14.874-3.372A13.105,13.105,0,0,0,40.832,103.747Zm63.039-18.424a7.419,7.419,0,0,1-14.839,0V81.841a5.557,5.557,0,0,1,4.212-5.4L93.4,76.4a8.244,8.244,0,0,0,4.587,2.268l4.29.614a1.858,1.858,0,0,1,1.593,1.833Zm5.565-18.548v8.814a12.244,12.244,0,0,1-1.855,6.507v-.974a5.592,5.592,0,0,0-4.778-5.509L98.512,75A4.583,4.583,0,0,1,94.6,70.484h-3.71a8.173,8.173,0,0,0,.449,2.673,9.263,9.263,0,0,0-6.013,8.684V82.1a12.244,12.244,0,0,1-1.855-6.507V74.194a9.285,9.285,0,0,1,9.274-9.274h14.839A1.857,1.857,0,0,1,109.435,66.774ZM92.742,61.21a12.942,12.942,0,0,0-9.76,4.45,23.828,23.828,0,0,0-1.9-5.574l16.135-9.315a42.606,42.606,0,0,1,3.767,10.441H92.742Zm2.613-13.652-15.6,9V51.088A13.238,13.238,0,0,0,69.729,38.243l-3.281-.82-.608-2.43A11.152,11.152,0,0,0,70,29.193,42.4,42.4,0,0,1,95.355,47.558ZM46.371,14.839a9.274,9.274,0,0,1,9.274-9.274h7.419a9.277,9.277,0,0,1,9.274,9.274v1.395a12.244,12.244,0,0,1-1.855,6.507v-1a3.7,3.7,0,0,0-2.536-3.517,17.436,17.436,0,0,1-6.776-4.19l-1.818-1.818-1.818,1.818a17.39,17.39,0,0,1-6.774,4.186,3.706,3.706,0,0,0-2.537,3.52v1a12.244,12.244,0,0,1-1.855-6.507ZM48.706,29.2a11.165,11.165,0,0,0,4.162,5.8l-.608,2.43-3.279.82A13.238,13.238,0,0,0,38.952,51.088v5.474L23.4,47.582A42.7,42.7,0,0,1,48.706,29.2ZM21.544,50.8l16.089,9.289a23.853,23.853,0,0,0-2.087,6.761,18.344,18.344,0,0,0-17.964-5.015A42.315,42.315,0,0,1,21.544,50.8Zm.714,14.123A14.856,14.856,0,0,1,37.1,79.76l.022,19.934a13.213,13.213,0,0,0-4.485-2.1l-3.281-.82-.608-2.43a11.114,11.114,0,0,0,4.643-9.026v-6.9L31.53,77.8a20.449,20.449,0,0,1-7.418-4.435V68.629H20.4v4.735A20.446,20.446,0,0,1,12.988,77.8l-1.859.618v6.9a11.114,11.114,0,0,0,4.643,9.026l-.608,2.43-3.279.82a13.2,13.2,0,0,0-4.465,2.081V79.758A14.856,14.856,0,0,1,22.258,64.919Zm4.062,38.952H18.2l-1.966-3.537,1.992-.5.957-3.827a10.908,10.908,0,0,0,6.156,0l.957,3.827,1.992.5Zm-2.061,3.71-2,3.6-2-3.6Zm-2-30.859a24.261,24.261,0,0,0,7.419,4.363v4.238a7.419,7.419,0,0,1-14.839,0V81.084A24.246,24.246,0,0,0,22.258,76.722ZM5.565,110.443a9.486,9.486,0,0,1,6.952-9.161l6.59,11.864H5.565Zm33.387,2.7H25.409L32,101.282a9.486,9.486,0,0,1,6.952,9.161Zm40.806-2.7a9.533,9.533,0,0,1,7.219-9.248L90,100.438l4.594,7.657v5.051H79.758Zm33.387,2.7H98.306v-5.051l4.593-7.655,3.027.757a9.533,9.533,0,0,1,7.219,9.246Z"/>
      </g>
    </g>
  </g>
</svg>
