<svg xmlns="http://www.w3.org/2000/svg" xmlns:xlink="http://www.w3.org/1999/xlink" width="190" height="115" viewBox="0 0 190 115">
  <defs>
    <clipPath id="clip-path">
      <rect id="Rectángulo_34141" data-name="Rectángulo 34141" width="190" height="115" transform="translate(1852 -1307)" fill="#2ff980"/>
    </clipPath>
  </defs>
  <g id="Enmascarar_grupo_121" data-name="Enmascarar grupo 121" transform="translate(-1852 1307)" clip-path="url(#clip-path)">
    <g id="dinamica" transform="translate(1887.645 -1308.855)">
      <g id="Grupo_83207" data-name="Grupo 83207">
        <g id="Grupo_83197" data-name="Grupo 83197">
          <path id="Trazado_121271" data-name="Trazado 121271" d="M103.871,100.161H7.419a3.737,3.737,0,0,0-3.71,3.71A11.138,11.138,0,0,0,14.839,115H96.452a11.146,11.146,0,0,0,11.129-11.129,3.721,3.721,0,0,0-3.71-3.71Z" fill="#969faa"/>
        </g>
        <g id="Grupo_83198" data-name="Grupo 83198">
          <path id="Trazado_121272" data-name="Trazado 121272" d="M66.774,100.161v3.71a3.721,3.721,0,0,1-3.71,3.71H48.226a3.721,3.721,0,0,1-3.71-3.71v-3.71Z" fill="#fcd770"/>
        </g>
        <g id="Grupo_83199" data-name="Grupo 83199">
          <path id="Trazado_121273" data-name="Trazado 121273" d="M18.548,25.968h81.613v74.194H11.129V33.387A7.42,7.42,0,0,1,18.548,25.968Z" fill="#ccd1d9"/>
        </g>
        <g id="Grupo_83200" data-name="Grupo 83200">
          <path id="Trazado_121274" data-name="Trazado 121274" d="M90.887,92.742H20.4a1.856,1.856,0,0,1-1.855-1.855V35.242A1.856,1.856,0,0,1,20.4,33.387H92.742v57.5A1.856,1.856,0,0,1,90.887,92.742Z" fill="#69d6f4"/>
        </g>
        <g id="Grupo_83201" data-name="Grupo 83201">
          <path id="Trazado_121275" data-name="Trazado 121275" d="M51.935,66.774H70.169A22.256,22.256,0,1,1,48.226,40.806V63.065a3.721,3.721,0,0,0,3.71,3.71Z" fill="#4fc1e9"/>
        </g>
        <g id="Grupo_83202" data-name="Grupo 83202">
          <path id="Trazado_121276" data-name="Trazado 121276" d="M74.194,74.194H85.323V85.323H74.194Z" fill="#ff826e"/>
        </g>
        <g id="Grupo_83203" data-name="Grupo 83203">
          <path id="Trazado_121277" data-name="Trazado 121277" d="M115,18.548V63.065a3.721,3.721,0,0,1-3.71,3.71H51.935a3.721,3.721,0,0,1-3.71-3.71V18.548Z" fill="#e6e9ed"/>
        </g>
        <g id="Grupo_83204" data-name="Grupo 83204">
          <path id="Trazado_121278" data-name="Trazado 121278" d="M55.645,25.968h51.935V37.1H55.645Z" fill="#ffeaa7"/>
        </g>
        <g id="Grupo_83205" data-name="Grupo 83205">
          <path id="Trazado_121279" data-name="Trazado 121279" d="M55.645,44.516H77.9V59.355H55.645Z" fill="#ff826e"/>
        </g>
        <g id="Grupo_83206" data-name="Grupo 83206">
          <path id="Trazado_121280" data-name="Trazado 121280" d="M48.226,18.548V7.419a3.721,3.721,0,0,1,3.71-3.71H111.29A3.721,3.721,0,0,1,115,7.419V18.548Z" fill="#fcd770"/>
        </g>
      </g>
      <g id="Grupo_83208" data-name="Grupo 83208">
        <circle id="Elipse_5346" data-name="Elipse 5346" cx="1.855" cy="1.855" r="1.855" transform="translate(94.597 105.726)"/>
        <circle id="Elipse_5347" data-name="Elipse 5347" cx="1.855" cy="1.855" r="1.855" transform="translate(87.177 105.726)"/>
        <circle id="Elipse_5348" data-name="Elipse 5348" cx="1.855" cy="1.855" r="1.855" transform="translate(79.758 105.726)"/>
        <path id="Trazado_121281" data-name="Trazado 121281" d="M111.29,1.855H51.935a5.571,5.571,0,0,0-5.565,5.565V24.113H18.548a9.285,9.285,0,0,0-9.274,9.274V98.306H7.419a5.571,5.571,0,0,0-5.565,5.565,13,13,0,0,0,12.984,12.984H96.452a13,13,0,0,0,12.984-12.984,5.571,5.571,0,0,0-5.565-5.565h-1.855V68.629h9.274a5.571,5.571,0,0,0,5.565-5.565V7.419A5.571,5.571,0,0,0,111.29,1.855ZM51.935,5.565H111.29a1.858,1.858,0,0,1,1.855,1.855v9.274H50.081V7.419A1.858,1.858,0,0,1,51.935,5.565ZM46.371,61.21H42.693a56.913,56.913,0,0,1,.658-7.419h3.02Zm1.855,22.258c-1.124,0-2.877-2.571-4.116-7.419h8.226C51.079,80.98,49.3,83.468,48.226,83.468Zm7.929-7.419H63.99a20.315,20.315,0,0,1-10.113,6.624,28.159,28.159,0,0,0,2.278-6.624ZM42.593,82.659A20.451,20.451,0,0,1,32.5,76.048h7.8a28.1,28.1,0,0,0,2.291,6.611ZM30.074,72.339a20.253,20.253,0,0,1-2.159-7.419H38.981a62.414,62.414,0,0,0,.634,7.419ZM40.3,50.081H32.5A20.451,20.451,0,0,1,42.595,43.47,27.929,27.929,0,0,0,40.3,50.081ZM46.371,44.3v5.783H44.11A20.749,20.749,0,0,1,46.371,44.3Zm-16.3,9.493h9.541a62.8,62.8,0,0,0-.634,7.419H27.915a20.253,20.253,0,0,1,2.159-7.419Zm16.3-14.744a24.1,24.1,0,1,0,25.3,29.583H90.887V90.887H20.4V35.242H46.371ZM66.4,72.339H56.843c.182-1.232.325-2.478.428-3.71H67.85A20.192,20.192,0,0,1,66.4,72.339Zm-13.3,0H43.351a56.911,56.911,0,0,1-.658-7.419h4.019a5.557,5.557,0,0,0,5.223,3.71h1.614q-.175,1.987-.451,3.71Zm52.627,31.532a9.285,9.285,0,0,1-9.274,9.274H14.839a9.285,9.285,0,0,1-9.274-9.274,1.857,1.857,0,0,1,1.855-1.855H42.661v1.855a5.571,5.571,0,0,0,5.565,5.565H63.065a5.571,5.571,0,0,0,5.565-5.565v-1.855h35.242A1.857,1.857,0,0,1,105.726,103.871Zm-59.355-1.855H64.919v1.855a1.857,1.857,0,0,1-1.855,1.855H48.226a1.857,1.857,0,0,1-1.855-1.855Zm51.935-3.71H12.984V33.387a5.571,5.571,0,0,1,5.565-5.565H46.371v3.71H20.4a3.713,3.713,0,0,0-3.71,3.71V90.887A3.713,3.713,0,0,0,20.4,94.6H90.887a3.713,3.713,0,0,0,3.71-3.71V68.629h3.71ZM111.29,64.919H51.935a1.857,1.857,0,0,1-1.855-1.855V20.4h63.065V63.065A1.857,1.857,0,0,1,111.29,64.919Z"/>
        <path id="Trazado_121282" data-name="Trazado 121282" d="M61.21,9.274h3.71v3.71H61.21Z"/>
        <path id="Trazado_121283" data-name="Trazado 121283" d="M53.79,9.274H57.5v3.71H53.79Z"/>
        <path id="Trazado_121284" data-name="Trazado 121284" d="M68.629,9.274h3.71v3.71h-3.71Z"/>
        <path id="Trazado_121285" data-name="Trazado 121285" d="M87.177,72.339H72.339V87.177H87.177Zm-3.71,11.129H76.048V76.048h7.419Z"/>
        <path id="Trazado_121286" data-name="Trazado 121286" d="M53.79,38.952h55.645V24.113H53.79ZM57.5,27.823h48.226v7.419H57.5Z"/>
        <path id="Trazado_121287" data-name="Trazado 121287" d="M53.79,61.21H79.758V42.661H53.79ZM57.5,46.371H76.048V57.5H57.5Z"/>
        <path id="Trazado_121288" data-name="Trazado 121288" d="M102.016,50.081h7.419v3.71h-7.419Z"/>
        <path id="Trazado_121289" data-name="Trazado 121289" d="M83.468,50.081H98.306v3.71H83.468Z"/>
        <path id="Trazado_121290" data-name="Trazado 121290" d="M83.468,42.661h25.968v3.71H83.468Z"/>
        <path id="Trazado_121291" data-name="Trazado 121291" d="M83.468,57.5h25.968v3.71H83.468Z"/>
      </g>
    </g>
  </g>
</svg>
