<svg xmlns="http://www.w3.org/2000/svg" xmlns:xlink="http://www.w3.org/1999/xlink" width="67" height="72" viewBox="0 0 67 72">
  <defs>
    <clipPath id="clip-path">
      <rect id="Rectángulo_34196" data-name="Rectángulo 34196" width="55" height="55" transform="translate(-9417 -3097)" fill="#2ff980"/>
    </clipPath>
  </defs>
  <g id="Grupo_83845" data-name="Grupo 83845" transform="translate(8725 2499)">
    <rect id="Rectángulo_34403" data-name="Rectángulo 34403" width="67" height="72" rx="5" transform="translate(-8725 -2499)" fill="#fff"/>
    <g id="Enmascarar_grupo_110" data-name="Enmascarar grupo 110" transform="translate(698 606)" clip-path="url(#clip-path)">
      <g id="ip-address" transform="translate(-9416.999 -3096.998)">
        <path id="Trazado_115252" data-name="Trazado 115252" d="M27.5,26.586a2.02,2.02,0,0,1-1.674-.89l-5.845-8.67H35.018L29.174,25.7a2.021,2.021,0,0,1-1.675.89Z" fill="#536473"/>
        <rect id="Rectángulo_34205" data-name="Rectángulo 34205" width="37.596" height="9.668" rx="1.074" transform="translate(46.297 40.228) rotate(180)" fill="#05f283"/>
        <path id="Trazado_115253" data-name="Trazado 115253" d="M11.386,40.228H43.612v4.3H11.386Z" transform="translate(54.998 84.753) rotate(180)" fill="#536473"/>
        <rect id="Rectángulo_34206" data-name="Rectángulo 34206" width="37.596" height="9.668" rx="1.074" transform="translate(46.297 54.192) rotate(180)" fill="#05f283"/>
        <rect id="Rectángulo_34207" data-name="Rectángulo 34207" width="4.297" height="4.297" rx="1.074" transform="translate(25.136 33.246) rotate(90)" fill="#d8e6f2"/>
        <rect id="Rectángulo_34208" data-name="Rectángulo 34208" width="4.297" height="4.297" rx="1.074" transform="translate(25.136 47.21) rotate(90)" fill="#d8e6f2"/>
        <rect id="Rectángulo_34209" data-name="Rectángulo 34209" width="4.297" height="4.297" rx="1.074" transform="translate(16.542 33.246) rotate(90)" fill="#d8e6f2"/>
        <rect id="Rectángulo_34210" data-name="Rectángulo 34210" width="4.297" height="4.297" rx="1.074" transform="translate(16.542 47.21) rotate(90)" fill="#d8e6f2"/>
        <circle id="Elipse_4848" data-name="Elipse 4848" cx="10.742" cy="10.742" r="10.742" transform="translate(16.757 0.806)" fill="#1a80d9"/>
        <g id="Grupo_81293" data-name="Grupo 81293">
          <path id="Trazado_115254" data-name="Trazado 115254" d="M45.223,41.034a1.882,1.882,0,0,0,1.88-1.88V31.635a1.882,1.882,0,0,0-1.88-1.88H9.775a1.882,1.882,0,0,0-1.88,1.88v7.519a1.882,1.882,0,0,0,1.88,1.88h.806v2.685H9.775A1.882,1.882,0,0,0,7.9,45.6v7.519A1.882,1.882,0,0,0,9.775,55H45.223a1.882,1.882,0,0,0,1.88-1.88V45.6a1.882,1.882,0,0,0-1.88-1.88h-.806V41.034ZM9.506,39.154V31.635a.269.269,0,0,1,.269-.269H45.223a.269.269,0,0,1,.269.269v2.954H31.581a.806.806,0,1,0,0,1.611H45.491v2.954a.269.269,0,0,1-.269.269H9.775A.269.269,0,0,1,9.506,39.154ZM45.491,45.6v2.954H31.581a.806.806,0,0,0,0,1.611H45.491v2.954a.269.269,0,0,1-.269.269H9.775a.269.269,0,0,1-.269-.269V45.6a.269.269,0,0,1,.269-.269H45.223a.269.269,0,0,1,.269.269Zm-2.685-1.88H12.192V41.034H42.806Z"/>
          <path id="Trazado_115255" data-name="Trazado 115255" d="M24.062,32.44H21.913a1.882,1.882,0,0,0-1.88,1.88v2.148a1.882,1.882,0,0,0,1.88,1.88h2.148a1.882,1.882,0,0,0,1.88-1.88V34.32a1.882,1.882,0,0,0-1.88-1.88Zm.269,4.028a.269.269,0,0,1-.269.269H21.913a.269.269,0,0,1-.269-.269V34.32a.269.269,0,0,1,.269-.269h2.148a.269.269,0,0,1,.269.269Z"/>
          <path id="Trazado_115256" data-name="Trazado 115256" d="M21.913,52.312h2.148a1.882,1.882,0,0,0,1.88-1.88V48.284a1.882,1.882,0,0,0-1.88-1.88H21.913a1.882,1.882,0,0,0-1.88,1.88v2.148A1.882,1.882,0,0,0,21.913,52.312Zm-.269-4.028a.269.269,0,0,1,.269-.269h2.148a.269.269,0,0,1,.269.269v2.148a.269.269,0,0,1-.269.269H21.913a.269.269,0,0,1-.269-.269Z"/>
          <path id="Trazado_115257" data-name="Trazado 115257" d="M15.468,32.44H13.32a1.882,1.882,0,0,0-1.88,1.88v2.148a1.882,1.882,0,0,0,1.88,1.88h2.148a1.882,1.882,0,0,0,1.88-1.88V34.32a1.882,1.882,0,0,0-1.88-1.88Zm.269,4.028a.269.269,0,0,1-.269.269H13.32a.269.269,0,0,1-.269-.269V34.32a.269.269,0,0,1,.269-.269h2.148a.269.269,0,0,1,.269.269Z"/>
          <path id="Trazado_115258" data-name="Trazado 115258" d="M13.32,52.312h2.148a1.882,1.882,0,0,0,1.88-1.88V48.284a1.882,1.882,0,0,0-1.88-1.88H13.32a1.882,1.882,0,0,0-1.88,1.88v2.148A1.882,1.882,0,0,0,13.32,52.312Zm-.269-4.028a.269.269,0,0,1,.269-.269h2.148a.269.269,0,0,1,.269.269v2.148a.269.269,0,0,1-.269.269H13.32a.269.269,0,0,1-.269-.269Z"/>
          <path id="Trazado_115259" data-name="Trazado 115259" d="M22.247,21.829l2.909,4.316a2.825,2.825,0,0,0,4.686,0l2.909-4.316a11.547,11.547,0,1,0-10.5,0Zm6.258,3.414a1.214,1.214,0,0,1-2.013,0l-1.66-2.46a11.565,11.565,0,0,0,5.332,0ZM27.5,1.611a9.936,9.936,0,1,1-9.936,9.936A9.936,9.936,0,0,1,27.5,1.611Z"/>
          <path id="Trazado_115260" data-name="Trazado 115260" d="M24.6,17.026a.806.806,0,0,0,.806-.806V6.875a.806.806,0,0,0-1.611,0V16.22a.806.806,0,0,0,.806.806Z"/>
          <path id="Trazado_115261" data-name="Trazado 115261" d="M27.821,17.026a.806.806,0,0,0,.806-.806V12.568H30.1a3.249,3.249,0,0,0,0-6.5H27.821a.806.806,0,0,0-.806.806V16.22a.806.806,0,0,0,.806.806Zm.806-9.345H30.1a1.638,1.638,0,1,1,0,3.276H28.627Z"/>
        </g>
      </g>
    </g>
  </g>
</svg>
