<svg xmlns="http://www.w3.org/2000/svg" xmlns:xlink="http://www.w3.org/1999/xlink" width="63" height="63" viewBox="0 0 63 63">
  <defs>
    <clipPath id="clip-path">
      <rect id="Rectángulo_33863" data-name="Rectángulo 33863" width="63" height="63" transform="translate(296 15827)" fill="#fff" stroke="#707070" stroke-width="1"/>
    </clipPath>
  </defs>
  <g id="Enmascarar_grupo_55" data-name="Enmascarar grupo 55" transform="translate(-296 -15827)" clip-path="url(#clip-path)">
    <g id="XMLID_1376_" transform="translate(296 15827)">
      <path id="XMLID_1476_" d="M37.626,32.85a4.785,4.785,0,0,1,5.634-6.683,6.363,6.363,0,0,1,9.857,0,4.786,4.786,0,0,1,5.634,6.683Z" fill="#a0c8ff"/>
      <path id="XMLID_2366_" d="M34.339,61.77H25.931a4.655,4.655,0,0,1-4.655-4.655V50.941H38.995v6.173A4.655,4.655,0,0,1,34.339,61.77Z" fill="#f0c980"/>
      <path id="XMLID_2365_" d="M38.994,46.019H21.275a2.461,2.461,0,1,0,0,4.922H38.994a2.461,2.461,0,1,0,0-4.922Z" fill="#f0c980"/>
      <path id="XMLID_2364_" d="M48.654,19.748A18.519,18.519,0,1,0,17.428,33.216,17.656,17.656,0,0,1,22.26,41.1H38.01A17.444,17.444,0,0,1,42.8,33.258a18.46,18.46,0,0,0,5.857-13.51Z" fill="#ff7a7a"/>
      <path id="XMLID_2363_" d="M17.428,33.216A17.656,17.656,0,0,1,22.26,41.1H38.01A17.444,17.444,0,0,1,42.8,33.258a18.631,18.631,0,0,0,1.5-1.579,4.006,4.006,0,0,1-5.662,0,4.006,4.006,0,0,0-5.665,0,4.006,4.006,0,0,1-5.665,0,4.006,4.006,0,0,0-5.665,0,4.006,4.006,0,0,1-5.66,0,18.548,18.548,0,0,0,1.45,1.535Z" fill="#d5ea7a"/>
      <path id="XMLID_2362_" d="M48.6,21.163a3.72,3.72,0,0,0-5.26,0,3.72,3.72,0,0,1-5.261,0,3.72,3.72,0,0,0-5.261,0,3.72,3.72,0,0,1-5.261,0,3.72,3.72,0,0,0-5.261,0,3.72,3.72,0,0,1-5.261,0,3.72,3.72,0,0,0-5.261,0l-.086.192a18.427,18.427,0,0,0,4.292,10.326,4.006,4.006,0,0,0,5.66,0,4.006,4.006,0,0,1,5.665,0,4.006,4.006,0,0,0,5.665,0,4.006,4.006,0,0,1,5.665,0,4.006,4.006,0,0,0,5.662,0A18.427,18.427,0,0,0,48.6,21.163Z" fill="#cbf4fb"/>
      <path id="XMLID_2361_" d="M46.268,10.651h-.006a3.8,3.8,0,0,1-5.376,0,3.8,3.8,0,0,0-5.376,0,3.8,3.8,0,0,1-5.376,0,3.8,3.8,0,0,0-5.376,0,3.8,3.8,0,0,1-5.376,0,3.8,3.8,0,0,0-5.361-.014,18.342,18.342,0,0,0-2.4,8.6c-.017.626,0,1.244.043,1.855l.107.072a3.72,3.72,0,0,1,5.261,0,3.72,3.72,0,0,0,5.261,0,3.72,3.72,0,0,1,5.261,0,3.72,3.72,0,0,0,5.261,0,3.72,3.72,0,0,1,5.261,0,3.72,3.72,0,0,0,5.261,0,3.72,3.72,0,0,1,5.26,0q.053-.7.054-1.414a18.436,18.436,0,0,0-2.386-9.1Z" fill="#ffa76b"/>
      <path id="XMLID_2311_" d="M25.374,41.1a4.785,4.785,0,0,0-5.634-6.683,6.363,6.363,0,0,0-9.857,0A4.786,4.786,0,0,0,4.249,41.1Z" fill="#a0c8ff"/>
      <g id="XMLID_234_">
        <path id="XMLID_598_" d="M60.428,30.146a6.015,6.015,0,0,0-6.876-5.33,7.558,7.558,0,0,0-3.9-2.075A19.752,19.752,0,0,0,36.194.946a1.23,1.23,0,1,0-.754,2.342A17.24,17.24,0,0,1,44.631,10.3a2.572,2.572,0,0,1-2.875-.522,5.032,5.032,0,0,0-7.116,0A2.574,2.574,0,0,1,31,9.78a5.032,5.032,0,0,0-7.116,0,2.571,2.571,0,0,1-3.636,0,4.993,4.993,0,0,0-3.1-1.453,17.342,17.342,0,0,1,8.1-5.161,1.23,1.23,0,1,0-.7-2.36A19.737,19.737,0,0,0,14.57,7.615a19.716,19.716,0,0,0-.73,23.295,7.556,7.556,0,0,0-4.392,2.153,6.016,6.016,0,0,0-6.307,8.571,1.231,1.231,0,0,0,1.107.694h16.78V44.8a3.691,3.691,0,0,0-.984,7.162v5.154A5.893,5.893,0,0,0,25.931,63h8.408a5.893,5.893,0,0,0,5.886-5.886V51.96A3.691,3.691,0,0,0,39.24,44.8V41.283a16.207,16.207,0,0,1,4.4-7.127l.079-.076H58.751a1.23,1.23,0,0,0,1.107-.694A6.034,6.034,0,0,0,60.428,30.146ZM37.112,39.867H27.02a6.1,6.1,0,0,0,.03-1.473,5.974,5.974,0,0,0-5.135-5.336,5.306,5.306,0,0,0,.592-.511,2.778,2.778,0,0,1,3.925,0,5.242,5.242,0,0,0,7.405,0,2.775,2.775,0,0,1,3.925,0,5.206,5.206,0,0,0,2.67,1.428A18.77,18.77,0,0,0,37.112,39.867Zm6.306-9.051a2.778,2.778,0,0,1-3.915-.009,5.236,5.236,0,0,0-7.405,0,2.778,2.778,0,0,1-3.925,0,5.242,5.242,0,0,0-7.4,0,2.773,2.773,0,0,1-3.9.019,17.155,17.155,0,0,1-3.9-9.06,2.492,2.492,0,0,1,3.2.268,4.956,4.956,0,0,0,7,0,2.492,2.492,0,0,1,3.521,0,4.956,4.956,0,0,0,7,0,2.493,2.493,0,0,1,3.521,0,4.956,4.956,0,0,0,7,0,2.493,2.493,0,0,1,3.105-.334,17.025,17.025,0,0,1-3.9,9.116Zm-24.9-19.3a5.032,5.032,0,0,0,7.116,0,2.571,2.571,0,0,1,3.636,0,5.038,5.038,0,0,0,7.116,0,2.57,2.57,0,0,1,3.635,0,5.04,5.04,0,0,0,5.809.941,17.3,17.3,0,0,1,1.584,6.6,4.955,4.955,0,0,0-4.94,1.235,2.493,2.493,0,0,1-3.521,0,4.956,4.956,0,0,0-7,0,2.493,2.493,0,0,1-3.521,0,4.957,4.957,0,0,0-7,0,2.493,2.493,0,0,1-3.521,0,4.955,4.955,0,0,0-5.044-1.2,17.224,17.224,0,0,1,2.105-7.651,2.571,2.571,0,0,1,3.548.079ZM5.021,38.64A3.554,3.554,0,0,1,9.542,35.6a1.232,1.232,0,0,0,1.293-.4,5.132,5.132,0,0,1,7.952,0,1.23,1.23,0,0,0,1.293.4,3.567,3.567,0,0,1,1.45-.11A3.525,3.525,0,0,1,24.6,38.64a3.621,3.621,0,0,1-.085,1.226H5.106A3.619,3.619,0,0,1,5.021,38.64ZM36.78,42.328v2.461H23.49V42.328Zm.984,14.786a3.429,3.429,0,0,1-3.425,3.425H25.931a3.429,3.429,0,0,1-3.425-3.425V52.172H37.764v4.943Zm2.461-8.634a1.232,1.232,0,0,1-1.23,1.23H21.275a1.23,1.23,0,0,1,0-2.461H38.994A1.232,1.232,0,0,1,40.225,48.48ZM57.894,31.619H45.91a19.877,19.877,0,0,0,3.215-6.473,5.119,5.119,0,0,1,3.039,1.8,1.229,1.229,0,0,0,1.293.4,3.561,3.561,0,0,1,1.45-.11,3.525,3.525,0,0,1,3.072,3.152A3.616,3.616,0,0,1,57.894,31.619Z"/>
        <path id="XMLID_762_" d="M30.352,2.461a1.231,1.231,0,0,0,1.23-1.23,1.23,1.23,0,1,0-2.1.87,1.24,1.24,0,0,0,.87.361Z"/>
      </g>
    </g>
  </g>
</svg>
