<svg xmlns="http://www.w3.org/2000/svg" xmlns:xlink="http://www.w3.org/1999/xlink" width="85" height="85" viewBox="0 0 85 85">
  <defs>
    <clipPath id="clip-path">
      <rect id="Rectángulo_34042" data-name="Rectángulo 34042" width="85" height="85" transform="translate(600 14109)" fill="#2ff980" stroke="#707070" stroke-width="1"/>
    </clipPath>
  </defs>
  <g id="Enmascarar_grupo_87" data-name="Enmascarar grupo 87" transform="translate(-600 -14109)" clip-path="url(#clip-path)">
    <g id="proteccion-de-datos" transform="translate(600 14117.5)">
      <path id="Trazado_114843" data-name="Trazado 114843" d="M77.917,8.5H45.333V4.25A2.841,2.841,0,0,0,42.5,1.417H11.333A2.841,2.841,0,0,0,8.5,4.25V15.583H66.583A5.683,5.683,0,0,1,72.25,21.25V60.917a5.667,5.667,0,0,0,11.333,0V14.167A5.683,5.683,0,0,0,77.917,8.5Zm0,0" fill="#24788e"/>
      <path id="Trazado_114844" data-name="Trazado 114844" d="M77.917,66.583H7.083a5.683,5.683,0,0,1-5.667-5.667V21.25a5.683,5.683,0,0,1,5.667-5.667h59.5A5.683,5.683,0,0,1,72.25,21.25V60.917A5.683,5.683,0,0,0,77.917,66.583Zm0,0" fill="#52b0c6"/>
      <path id="Trazado_114845" data-name="Trazado 114845" d="M76.5,17h2.833V60.917H76.5Zm0,0" fill="#2c98b5"/>
      <path id="Trazado_114846" data-name="Trazado 114846" d="M56.667,41.083A19.833,19.833,0,1,1,36.833,21.25,19.833,19.833,0,0,1,56.667,41.083Zm0,0" fill="#239172"/>
      <path id="Trazado_114847" data-name="Trazado 114847" d="M28.333,36.833h17A1.338,1.338,0,0,1,46.75,38.25V51a1.338,1.338,0,0,1-1.417,1.417h-17A1.338,1.338,0,0,1,26.917,51V38.25A1.338,1.338,0,0,1,28.333,36.833Zm0,0" fill="#f4c167"/>
      <path id="Trazado_114848" data-name="Trazado 114848" d="M43.917,36.833H41.083v-4.25a4.25,4.25,0,0,0-8.5,0v4.25H29.75v-4.25a7.083,7.083,0,0,1,14.167,0Zm0,0" fill="#ddad6f"/>
      <path id="Trazado_114849" data-name="Trazado 114849" d="M35.417,41.083H38.25V46.75H35.417Zm0,0" fill="#239172"/>
      <path id="Trazado_114850" data-name="Trazado 114850" d="M45.333,35.417H43.917V32.583a7.083,7.083,0,0,0-14.167,0v2.833H28.333A2.841,2.841,0,0,0,25.5,38.25V51a2.841,2.841,0,0,0,2.833,2.833h17A2.841,2.841,0,0,0,48.167,51V38.25A2.841,2.841,0,0,0,45.333,35.417Zm-12.75-2.833a4.25,4.25,0,0,1,8.5,0v2.833h-8.5ZM28.333,51V38.25h17V51Zm0,0"/>
      <path id="Trazado_114851" data-name="Trazado 114851" d="M77.917,7.083H46.75V4.25A4.174,4.174,0,0,0,42.5,0H11.333a4.174,4.174,0,0,0-4.25,4.25V9.917H9.917V4.25a1.338,1.338,0,0,1,1.417-1.417H42.5A1.338,1.338,0,0,1,43.917,4.25V9.917h34a4.174,4.174,0,0,1,4.25,4.25v46.75a4.25,4.25,0,0,1-8.5,0V21.25a7.015,7.015,0,0,0-7.083-7.083H7.083A7.015,7.015,0,0,0,0,21.25V60.917A7.015,7.015,0,0,0,7.083,68H77.917A7.015,7.015,0,0,0,85,60.917V14.167A7.015,7.015,0,0,0,77.917,7.083ZM7.083,65.167a4.174,4.174,0,0,1-4.25-4.25V21.25A4.174,4.174,0,0,1,7.083,17h59.5a4.174,4.174,0,0,1,4.25,4.25V60.917a7.633,7.633,0,0,0,1.417,4.25Zm0,0"/>
      <path id="Trazado_114852" data-name="Trazado 114852" d="M76.5,17h2.833V60.917H76.5Zm0,0"/>
      <path id="Trazado_114853" data-name="Trazado 114853" d="M36.833,19.833a21.25,21.25,0,1,0,21.25,21.25A21.222,21.222,0,0,0,36.833,19.833Zm0,39.667A18.417,18.417,0,1,1,55.25,41.083,18.38,18.38,0,0,1,36.833,59.5Zm0,0"/>
      <path id="Trazado_114854" data-name="Trazado 114854" d="M35.417,41.083H38.25V46.75H35.417Zm0,0"/>
    </g>
  </g>
</svg>
