<svg xmlns="http://www.w3.org/2000/svg" xmlns:xlink="http://www.w3.org/1999/xlink" width="85" height="85" viewBox="0 0 85 85">
  <defs>
    <clipPath id="clip-path">
      <rect id="Rectángulo_34037" data-name="Rectángulo 34037" width="85" height="85" transform="translate(915 14109)" fill="#2ff980" stroke="#707070" stroke-width="1"/>
    </clipPath>
  </defs>
  <g id="Enmascarar_grupo_82" data-name="Enmascarar grupo 82" transform="translate(-915 -14109)" clip-path="url(#clip-path)">
    <g id="compras" transform="translate(915.336 14105.915)">
      <g id="Color">
        <path id="Trazado_114745" data-name="Trazado 114745" d="M68.383,19.724H79.6V80.071a4.544,4.544,0,0,1-4.544,4.544H58.733L65.545,22.08Z" fill="#dbb453"/>
        <path id="Trazado_114746" data-name="Trazado 114746" d="M24.98,84.615H63.839a4.544,4.544,0,0,0,4.544-4.544V19.724H13.853V47.643Z" fill="#fcd770"/>
        <g id="Grupo_81033" data-name="Grupo 81033">
          <path id="Trazado_114747" data-name="Trazado 114747" d="M23.08,78.3l1.9,6.31H63.839a4.544,4.544,0,0,0,4.544-4.544V73.75H27.909S25.628,75.663,23.08,78.3Z" fill="#ff826e"/>
          <circle id="Elipse_4808" data-name="Elipse 4808" cx="2.608" cy="2.608" r="2.608" transform="translate(24.877 28.88)" fill="#ff826e"/>
          <circle id="Elipse_4809" data-name="Elipse 4809" cx="2.608" cy="2.608" r="2.608" transform="translate(52.141 28.88)" fill="#ff826e"/>
        </g>
        <path id="Trazado_114748" data-name="Trazado 114748" d="M23.6,85.641l-1.5,1.054-1.5-1.054A37.348,37.348,0,0,1,4.725,55.086V50.7L22.1,44.88,39.467,50.7v4.381A37.345,37.345,0,0,1,23.6,85.641Z" fill="#69d6f4"/>
        <path id="Trazado_114749" data-name="Trazado 114749" d="M37.035,49.888v3.96A37.35,37.35,0,0,1,21.164,84.4l-1.144.805c.195.142.38.293.577.432l1.5,1.054,1.5-1.054A37.346,37.346,0,0,0,39.468,55.086V50.7Z" fill="#429fce"/>
        <g id="Grupo_81034" data-name="Grupo 81034">
          <path id="Trazado_114750" data-name="Trazado 114750" d="M20.263,72.76a3.128,3.128,0,0,1-2.212-.916l-6.563-6.563a3.129,3.129,0,0,1,4.424-4.424l4.351,4.351,9.551-9.551a3.128,3.128,0,0,1,4.423,4.423L22.474,71.842a3.122,3.122,0,0,1-2.211.918Z" fill="#ff826e"/>
        </g>
      </g>
      <g id="Line">
        <g id="Grupo_81045" data-name="Grupo 81045">
          <g id="Grupo_81035" data-name="Grupo 81035">
            <path id="Trazado_114751" data-name="Trazado 114751" d="M63.837,86H24.98V83.223H63.837a3.158,3.158,0,0,0,3.155-3.154V21.113H15.244V47.641H12.463V19.722a1.389,1.389,0,0,1,1.39-1.39h54.53a1.389,1.389,0,0,1,1.39,1.39V80.069A5.941,5.941,0,0,1,63.837,86Z" fill="#071923"/>
          </g>
          <g id="Grupo_81036" data-name="Grupo 81036">
            <path id="Trazado_114752" data-name="Trazado 114752" d="M75.057,86H58.733V83.223H75.057a3.158,3.158,0,0,0,3.155-3.154V21.113H68.383V18.332H79.6a1.389,1.389,0,0,1,1.39,1.39V80.069A5.941,5.941,0,0,1,75.057,86Z" fill="#071923"/>
          </g>
          <g id="Grupo_81037" data-name="Grupo 81037">
            <path id="Trazado_114753" data-name="Trazado 114753" d="M27.487,35.487a4,4,0,1,1,4-4A4,4,0,0,1,27.487,35.487Zm0-5.218A1.219,1.219,0,1,0,28.7,31.488,1.222,1.222,0,0,0,27.487,30.269Z" fill="#071923"/>
          </g>
          <g id="Grupo_81038" data-name="Grupo 81038">
            <path id="Trazado_114754" data-name="Trazado 114754" d="M54.749,35.487a4,4,0,1,1,4-4A4,4,0,0,1,54.749,35.487Zm0-5.218a1.219,1.219,0,1,0,1.219,1.219A1.221,1.221,0,0,0,54.749,30.269Z" fill="#071923"/>
          </g>
          <g id="Grupo_81039" data-name="Grupo 81039">
            <path id="Trazado_114755" data-name="Trazado 114755" d="M56.14,28.938H53.359V18.361a12.242,12.242,0,0,0-24.483,0V28.878H26.095V18.361a15.022,15.022,0,0,1,30.045,0Z" fill="#071923"/>
          </g>
          <g id="Grupo_81040" data-name="Grupo 81040">
            <path id="Trazado_114756" data-name="Trazado 114756" d="M65.545,19.722H62.764V18.108a12.242,12.242,0,0,0-24.485,0v1.614H35.5V18.108a15.023,15.023,0,0,1,30.046,0Z" fill="#071923"/>
          </g>
          <g id="Grupo_81041" data-name="Grupo 81041">
            <path id="Trazado_114757" data-name="Trazado 114757" d="M34.462,72.358h33.92v2.781H34.462Z" fill="#071923"/>
          </g>
          <g id="Grupo_81042" data-name="Grupo 81042">
            <path id="Trazado_114758" data-name="Trazado 114758" d="M22.1,88.085a1.382,1.382,0,0,1-.8-.254l-1.5-1.055A38.772,38.772,0,0,1,3.334,55.084V50.7a1.388,1.388,0,0,1,.948-1.318L21.654,43.56a1.418,1.418,0,0,1,.886,0l17.372,5.825A1.393,1.393,0,0,1,40.86,50.7v4.381A38.777,38.777,0,0,1,24.4,86.777l-1.5,1.055a1.391,1.391,0,0,1-.8.253ZM6.114,51.7v3.382A35.99,35.99,0,0,0,21.395,84.5l.7.492.7-.492A35.99,35.99,0,0,0,38.076,55.086V51.7L22.094,46.345Z" fill="#071923"/>
          </g>
          <g id="Grupo_81044" data-name="Grupo 81044">
            <g id="Grupo_81043" data-name="Grupo 81043">
              <path id="Trazado_114759" data-name="Trazado 114759" d="M20.262,74.15a4.5,4.5,0,0,1-3.194-1.322L10.5,66.264a4.52,4.52,0,0,1,0-6.391,4.625,4.625,0,0,1,6.391,0l3.366,3.368,8.569-8.568a4.519,4.519,0,1,1,6.391,6.391L23.457,72.827a4.489,4.489,0,0,1-3.2,1.324ZM13.7,61.33A1.739,1.739,0,0,0,12.471,64.3l6.563,6.563a1.781,1.781,0,0,0,2.458,0L33.257,59.1A1.738,1.738,0,1,0,30.8,56.639L21.246,66.19a1.39,1.39,0,0,1-1.966,0l-4.349-4.351A1.732,1.732,0,0,0,13.7,61.33Z" fill="#071923"/>
            </g>
          </g>
        </g>
      </g>
    </g>
  </g>
</svg>
