<svg xmlns="http://www.w3.org/2000/svg" width="1240" height="549.001" viewBox="0 0 1240 549.001">
  <g id="Grupo_84774" data-name="Grupo 84774" transform="translate(-180 -14196.999)">
    <rect id="Rectángulo_34414" data-name="Rectángulo 34414" width="1240" height="549" rx="20" transform="translate(180 14197)" fill="#daf1f5"/>
    <path id="hacker-working-in-the-darkness" d="M0,219.6H130.928a140.494,140.494,0,0,1,150.406-91.54V.625q-9.1-.617-18.35-.625C131.655,0,22.456,94.741,0,219.6Z" transform="translate(461.333 14416.604) rotate(180)" fill="#b5e4eb"/>
    <path id="hacker-working-in-the-darkness-2" data-name="hacker-working-in-the-darkness" d="M0,340.594H203.062c30.242-83.866,110.52-143.826,204.811-143.826a219.653,219.653,0,0,1,28.459,1.852V.97Q422.226.012,407.874,0C204.189,0,34.828,146.938,0,340.594Z" transform="translate(983.667 14405.406)" fill="#ab9df1"/>
  </g>
</svg>
