<svg xmlns="http://www.w3.org/2000/svg" xmlns:xlink="http://www.w3.org/1999/xlink" width="63" height="63" viewBox="0 0 63 63">
  <defs>
    <clipPath id="clip-path">
      <rect id="Rectángulo_33880" data-name="Rectángulo 33880" width="63" height="63" transform="translate(296 16168)" fill="#40327b" stroke="#707070" stroke-width="1"/>
    </clipPath>
  </defs>
  <g id="Enmascarar_grupo_57" data-name="Enmascarar grupo 57" transform="translate(-296 -16168)" clip-path="url(#clip-path)">
    <g id="consolidar" transform="translate(296 16168)">
      <g id="Grupo_80239" data-name="Grupo 80239">
        <g id="Grupo_80238" data-name="Grupo 80238">
          <path id="Trazado_113663" data-name="Trazado 113663" d="M40.186,9.32,32.744,1.8a1.669,1.669,0,0,0-2.379,0L22.792,9.452a.638.638,0,0,0,.452,1.087H28.5V47.371l5.987-.049V10.539h5.187a.716.716,0,0,0,.508-1.219Z" fill="#ffcd69"/>
          <path id="Trazado_113664" data-name="Trazado 113664" d="M25.437,26.638l-18.711,6.7a1.277,1.277,0,0,0-.846,1.2V46.667l5.986,0V38.551a1.275,1.275,0,0,1,.858-1.206l13.793-4.788Z" fill="#ffcd69"/>
          <path id="Trazado_113665" data-name="Trazado 113665" d="M37.256,26.638l18.711,6.7a1.277,1.277,0,0,1,.846,1.2V46.667l-5.986,0V38.551a1.275,1.275,0,0,0-.858-1.206L36.176,32.557Z" fill="#ffcd69"/>
        </g>
        <circle id="Elipse_4743" data-name="Elipse 4743" cx="7.636" cy="7.636" r="7.636" transform="translate(1.233 46.428)" fill="#ccf5fc"/>
        <circle id="Elipse_4744" data-name="Elipse 4744" cx="7.636" cy="7.636" r="7.636" transform="translate(23.908 46.428)" fill="#ccf5fc"/>
        <circle id="Elipse_4745" data-name="Elipse 4745" cx="6.288" cy="6.288" r="6.288" transform="translate(25.257 22.293)" fill="#66e0f7"/>
        <circle id="Elipse_4746" data-name="Elipse 4746" cx="7.636" cy="7.636" r="7.636" transform="translate(46.495 46.428)" fill="#ccf5fc"/>
      </g>
      <g id="Grupo_80240" data-name="Grupo 80240">
        <circle id="Elipse_4747" data-name="Elipse 4747" cx="1.233" cy="1.233" r="1.233" transform="translate(30.267 27.348)"/>
        <path id="Trazado_113666" data-name="Trazado 113666" d="M46.984,31.318a1.23,1.23,0,1,0-.753-1.568A1.23,1.23,0,0,0,46.984,31.318Z"/>
        <path id="Trazado_113667" data-name="Trazado 113667" d="M58.353,46.266V34.536a2.517,2.517,0,0,0-1.663-2.363l-3.659-1.309a1.233,1.233,0,1,0-.831,2.322l3.657,1.309a.044.044,0,0,1,.03.042V45.371a8.89,8.89,0,0,0-3.52,0V38.551a2.509,2.509,0,0,0-1.686-2.37L38.3,31.882a7.473,7.473,0,0,0,.765-3.3c0-.033,0-.065,0-.1l2.728.976a1.233,1.233,0,1,0,.831-2.322l-4.15-1.485a7.566,7.566,0,0,0-2.748-3.321V11.772h3.954a1.949,1.949,0,0,0,1.384-3.319L33.622.933A2.882,2.882,0,0,0,31.554.067h0a2.876,2.876,0,0,0-2.064.864L21.915,8.585a1.871,1.871,0,0,0,1.33,3.187h4.027V22.4a7.564,7.564,0,0,0-2.637,3.218L6.308,32.173a2.517,2.517,0,0,0-1.662,2.362V46.266a8.869,8.869,0,1,0,8.451,0V38.551a.043.043,0,0,1,.03-.041l13.152-4.566a7.563,7.563,0,0,0,.992.82V46.3a8.869,8.869,0,1,0,8.452-.051V34.83a7.577,7.577,0,0,0,1.062-.863l13.088,4.544a.042.042,0,0,1,.028.04V46.27a8.869,8.869,0,1,0,8.451,0ZM26.49,28.581a5.055,5.055,0,1,1,5.055,5.055,5.061,5.061,0,0,1-5.055-5.055ZM28.5,9.306H24.67l6.573-6.644a.433.433,0,0,1,.31-.13h0a.438.438,0,0,1,.314.133l6.57,6.641H34.491a1.233,1.233,0,0,0-1.233,1.233V21.26a7.484,7.484,0,0,0-3.521.022V10.539A1.233,1.233,0,0,0,28.5,9.306ZM15.272,54.064a6.4,6.4,0,1,1-6.4-6.4A6.41,6.41,0,0,1,15.272,54.064ZM12.321,36.18a2.509,2.509,0,0,0-1.689,2.371v6.821a8.89,8.89,0,0,0-3.52,0V34.536a.043.043,0,0,1,.028-.041l16.886-6.043c0,.043,0,.086,0,.129a7.476,7.476,0,0,0,.752,3.275ZM37.948,54.064a6.4,6.4,0,1,1-6.4-6.4A6.41,6.41,0,0,1,37.948,54.064Zm-4.69-8.7a8.865,8.865,0,0,0-3.521.018v-9.5a7.484,7.484,0,0,0,3.521.022Zm20.873,15.1a6.4,6.4,0,1,1,6.4-6.4A6.41,6.41,0,0,1,54.131,60.468Z"/>
      </g>
    </g>
  </g>
</svg>
