<svg xmlns="http://www.w3.org/2000/svg" xmlns:xlink="http://www.w3.org/1999/xlink" width="63" height="63" viewBox="0 0 63 63">
  <defs>
    <clipPath id="clip-path">
      <rect id="Rectángulo_33882" data-name="Rectángulo 33882" width="63" height="63" transform="translate(926 15849)" fill="#40327b" stroke="#707070" stroke-width="1"/>
    </clipPath>
  </defs>
  <g id="Enmascarar_grupo_60" data-name="Enmascarar grupo 60" transform="translate(-926 -15849)" clip-path="url(#clip-path)">
    <g id="ram" transform="translate(926 15849)">
      <g id="Grupo_80245" data-name="Grupo 80245">
        <path id="Trazado_113716" data-name="Trazado 113716" d="M14.6,50.586H7.995a1.771,1.771,0,0,0-1.771,1.771v2.375A1.771,1.771,0,0,0,7.995,56.5H14.6V50.586Z" fill="#ff901e"/>
        <path id="Trazado_113717" data-name="Trazado 113717" d="M6.223,10.643V8.268A1.771,1.771,0,0,1,7.995,6.5H14.6v5.918H7.995A1.771,1.771,0,0,1,6.223,10.643Z" fill="#ff901e"/>
        <path id="Trazado_113718" data-name="Trazado 113718" d="M6.223,21.665V19.29a1.771,1.771,0,0,1,1.771-1.771H14.6v5.918H7.995A1.771,1.771,0,0,1,6.223,21.665Z" fill="#ff901e"/>
        <path id="Trazado_113719" data-name="Trazado 113719" d="M6.223,32.687V30.313a1.771,1.771,0,0,1,1.771-1.771H14.6v5.918H7.995A1.771,1.771,0,0,1,6.223,32.687Z" fill="#ff901e"/>
        <path id="Trazado_113720" data-name="Trazado 113720" d="M6.223,43.71V41.335a1.771,1.771,0,0,1,1.771-1.771H14.6v5.918H7.995A1.771,1.771,0,0,1,6.223,43.71Z" fill="#ff901e"/>
      </g>
      <g id="Grupo_80246" data-name="Grupo 80246">
        <path id="Trazado_113721" data-name="Trazado 113721" d="M56.776,10.643V8.268A1.771,1.771,0,0,0,55,6.5H48.4v5.89L55,12.414A1.771,1.771,0,0,0,56.776,10.643Z" fill="#ff6d3a"/>
        <path id="Trazado_113722" data-name="Trazado 113722" d="M56.776,21.665V19.29A1.771,1.771,0,0,0,55,17.519H48.4v5.918H55A1.771,1.771,0,0,0,56.776,21.665Z" fill="#ff6d3a"/>
        <path id="Trazado_113723" data-name="Trazado 113723" d="M56.776,32.687V30.313A1.771,1.771,0,0,0,55,28.541H48.4v5.918H55A1.771,1.771,0,0,0,56.776,32.687Z" fill="#ff6d3a"/>
        <path id="Trazado_113724" data-name="Trazado 113724" d="M56.776,43.71V41.335A1.771,1.771,0,0,0,55,39.564H48.4v5.918H55A1.771,1.771,0,0,0,56.776,43.71Z" fill="#ff6d3a"/>
        <path id="Trazado_113725" data-name="Trazado 113725" d="M56.776,54.732V52.357A1.771,1.771,0,0,0,55,50.586H48.4V56.5H55A1.771,1.771,0,0,0,56.776,54.732Z" fill="#ff6d3a"/>
      </g>
      <path id="Trazado_113726" data-name="Trazado 113726" d="M45.817,62.1H17.182a2.58,2.58,0,0,1-2.58-2.58V3.477A2.58,2.58,0,0,1,17.182.9H45.817a2.58,2.58,0,0,1,2.58,2.58V59.523A2.58,2.58,0,0,1,45.817,62.1Z" fill="#ffb124"/>
      <path id="Trazado_113727" data-name="Trazado 113727" d="M45.817.9H17.182a2.585,2.585,0,0,0-.6.072H41.257a2.58,2.58,0,0,1,2.58,2.58V59.6A2.58,2.58,0,0,1,41.854,62.1h3.964a2.58,2.58,0,0,0,2.58-2.58V3.477A2.58,2.58,0,0,0,45.817.9Z" fill="#ff901e"/>
      <path id="Trazado_113728" data-name="Trazado 113728" d="M22.5,52.666V10.334A1.543,1.543,0,0,1,24.04,8.791H38.96A1.543,1.543,0,0,1,40.5,10.334V52.666a1.543,1.543,0,0,1-1.543,1.543H24.039A1.543,1.543,0,0,1,22.5,52.666Z" fill="#2d5872"/>
      <path id="Trazado_113729" data-name="Trazado 113729" d="M38.96,8.791H34.407a1.543,1.543,0,0,1,1.543,1.543V52.666a1.543,1.543,0,0,1-1.543,1.543H38.96A1.543,1.543,0,0,0,40.5,52.666V10.334A1.543,1.543,0,0,0,38.96,8.791Z" fill="#1d4859"/>
      <g id="Grupo_80247" data-name="Grupo 80247">
        <path id="Trazado_113730" data-name="Trazado 113730" d="M35.308,40.46H28.034a.472.472,0,0,1-.472-.472V38.652a4.517,4.517,0,0,1,.116-1.084,2.412,2.412,0,0,1,.365-.819,1.563,1.563,0,0,1,.671-.534,2.539,2.539,0,0,1,1.011-.183q.256,0,.457.018a2.954,2.954,0,0,1,.459.084,1.823,1.823,0,0,1,.457.18,1.609,1.609,0,0,1,.39.329,1.894,1.894,0,0,1,.32.507q1.917-.6,3.353-1.08a.471.471,0,0,1,.619.448v.7a.472.472,0,0,1-.358.458L32,38.524V38.8h3.313a.472.472,0,0,1,.472.472v.719A.472.472,0,0,1,35.308,40.46ZM30.981,38.8v-.475a.465.465,0,0,0-.128-.329.734.734,0,0,0-.324-.2,2.447,2.447,0,0,0-.361-.087,2.06,2.06,0,0,0-.31-.025,2.3,2.3,0,0,0-.3.021,2.567,2.567,0,0,0-.345.073.691.691,0,0,0-.31.173.4.4,0,0,0-.121.294V38.8h2.2Z" fill="#fffcfd"/>
        <path id="Trazado_113731" data-name="Trazado 113731" d="M35.313,35.029,27.866,33.42a.386.386,0,0,1-.3-.377V32.2a.386.386,0,0,1,.3-.377l7.447-1.605a.386.386,0,0,1,.467.377v.843a.386.386,0,0,1-.313.379l-1.445.278v1.073l1.441.262a.386.386,0,0,1,.317.379v.849A.386.386,0,0,1,35.313,35.029ZM33,33.048V32.2l-3.05.416Z" fill="#fffcfd"/>
        <path id="Trazado_113732" data-name="Trazado 113732" d="M35.494,28.929H27.848a.286.286,0,0,1-.286-.286V27.182A.286.286,0,0,1,27.8,26.9l5.238-.838-5.242-.9a.286.286,0,0,1-.237-.282v-1.4a.286.286,0,0,1,.286-.286h7.647a.286.286,0,0,1,.286.286v.654a.286.286,0,0,1-.284.286l-5.5.035q.89.137,2.89.479,1.749.3,2.649.442a.285.285,0,0,1,.241.282v.757a.286.286,0,0,1-.237.281l-5.58.968L35.5,27.7a.286.286,0,0,1,.284.286v.659A.286.286,0,0,1,35.494,28.929Z" fill="#fffcfd"/>
      </g>
      <path id="Trazado_113733" data-name="Trazado 113733" d="M28.989,53.313h-4.95a.648.648,0,0,1-.647-.647V10.334a.648.648,0,0,1,.647-.647h4.938a.9.9,0,0,0,0-1.793H24.039a2.443,2.443,0,0,0-2.44,2.44V52.666a2.443,2.443,0,0,0,2.44,2.44h4.95a.9.9,0,1,0,0-1.793Z"/>
      <path id="Trazado_113734" data-name="Trazado 113734" d="M38.96,7.894H33.547a.9.9,0,0,0,0,1.793H38.96a.647.647,0,0,1,.647.647V52.666a.647.647,0,0,1-.647.647h-5.4a.9.9,0,0,0,0,1.793h5.4a2.443,2.443,0,0,0,2.44-2.44V10.334A2.443,2.443,0,0,0,38.96,7.894Z"/>
      <path id="Trazado_113735" data-name="Trazado 113735" d="M55,13.311a2.671,2.671,0,0,0,2.668-2.668V8.268A2.671,2.671,0,0,0,55,5.6h-5.71V3.477A3.481,3.481,0,0,0,45.817,0H17.182a3.481,3.481,0,0,0-3.477,3.477V5.6H7.995A2.671,2.671,0,0,0,5.327,8.268v2.375a2.671,2.671,0,0,0,2.668,2.668h5.71v3.312H7.995A2.671,2.671,0,0,0,5.327,19.29v2.375a2.671,2.671,0,0,0,2.668,2.668h5.71v3.312H7.995a2.671,2.671,0,0,0-2.668,2.668v2.375a2.671,2.671,0,0,0,2.668,2.668h5.71v3.312H7.995a2.671,2.671,0,0,0-2.668,2.668V43.71a2.671,2.671,0,0,0,2.668,2.668h5.71v3.312H7.995a2.671,2.671,0,0,0-2.668,2.668v2.375A2.671,2.671,0,0,0,7.995,57.4h5.71v2.123A3.481,3.481,0,0,0,17.182,63H45.817a3.481,3.481,0,0,0,3.477-3.477V57.4H55a2.671,2.671,0,0,0,2.668-2.668V52.357A2.671,2.671,0,0,0,55,49.689h-5.71V46.378H55a2.671,2.671,0,0,0,2.668-2.668V41.335A2.671,2.671,0,0,0,55,38.667h-5.71V35.355H55a2.671,2.671,0,0,0,2.668-2.668V30.313A2.671,2.671,0,0,0,55,27.645h-5.71V24.333H55a2.671,2.671,0,0,0,2.668-2.668V19.29A2.671,2.671,0,0,0,55,16.622h-5.71V13.311Zm-5.71-5.918H55a.876.876,0,0,1,.875.875v2.375a.876.876,0,0,1-.875.875h-5.71ZM13.705,55.607H7.995a.876.876,0,0,1-.875-.875V52.357a.876.876,0,0,1,.875-.875h5.71v4.124Zm0-11.022H7.995a.876.876,0,0,1-.875-.875V41.335a.876.876,0,0,1,.875-.875h5.71v4.124Zm0-11.022H7.995a.876.876,0,0,1-.875-.875V30.313a.876.876,0,0,1,.875-.875h5.71v4.124Zm0-11.022H7.995a.876.876,0,0,1-.875-.875V19.29a.876.876,0,0,1,.875-.875h5.71V22.54Zm0-11.022H7.995a.876.876,0,0,1-.875-.875V8.268a.876.876,0,0,1,.875-.875h5.71v4.124ZM47.5,59.523a1.686,1.686,0,0,1-1.684,1.684H17.182A1.686,1.686,0,0,1,15.5,59.523V3.477a1.686,1.686,0,0,1,1.684-1.684H45.817A1.686,1.686,0,0,1,47.5,3.477Zm1.793-8.04H55a.876.876,0,0,1,.875.875v2.375a.876.876,0,0,1-.875.875h-5.71Zm0-11.022H55a.876.876,0,0,1,.875.875V43.71a.876.876,0,0,1-.875.875h-5.71Zm0-11.022H55a.876.876,0,0,1,.875.875v2.375a.876.876,0,0,1-.875.875h-5.71Zm0-11.022H55a.876.876,0,0,1,.875.875v2.375A.876.876,0,0,1,55,22.54h-5.71Z"/>
    </g>
  </g>
</svg>
