<svg xmlns="http://www.w3.org/2000/svg" xmlns:xlink="http://www.w3.org/1999/xlink" width="63" height="63" viewBox="0 0 63 63">
  <defs>
    <clipPath id="clip-path">
      <rect id="Rectángulo_33883" data-name="Rectángulo 33883" width="63" height="63" transform="translate(926 16018)" fill="#40327b" stroke="#707070" stroke-width="1"/>
    </clipPath>
  </defs>
  <g id="Enmascarar_grupo_59" data-name="Enmascarar grupo 59" transform="translate(-926 -16018)" clip-path="url(#clip-path)">
    <g id="huellas" transform="translate(926 16018)">
      <g id="Grupo_80243" data-name="Grupo 80243">
        <path id="Trazado_113694" data-name="Trazado 113694" d="M19.867,40.01l-4.02,4.02a1.606,1.606,0,0,1,.477.328l2.29,2.29a1.606,1.606,0,0,1,.328.477l4.02-4.02a20.822,20.822,0,0,1-3.095-3.095Z" fill="#b5dcff"/>
        <path id="Trazado_113695" data-name="Trazado 113695" d="M17.549,45.583l3.865-3.865-.082-.079a21.152,21.152,0,0,1-1.466-1.629l-4.02,4.02a1.606,1.606,0,0,1,.477.328Z" fill="#8bcaff"/>
        <circle id="Elipse_4748" data-name="Elipse 4748" cx="24.039" cy="24.039" r="24.039" transform="translate(14.02 0.875)" fill="#dbedff"/>
        <path id="Trazado_113696" data-name="Trazado 113696" d="M26.424,41.911A24.038,24.038,0,0,1,40.74,1.025a24.038,24.038,0,1,0,0,47.776A23.935,23.935,0,0,1,26.424,41.911Z" fill="#b5dcff"/>
        <path id="Trazado_113697" data-name="Trazado 113697" d="M16.224,51.62l-.017-.513L11.93,46.748h-.579L1.467,56.632a1.826,1.826,0,0,0,0,2.583l2.29,2.29a1.826,1.826,0,0,0,2.583,0Z" fill="#ff8086"/>
        <path id="Trazado_113698" data-name="Trazado 113698" d="M2.69,60.438,14.134,48.994l-2.2-2.246h-.579L1.467,56.632a1.826,1.826,0,0,0,0,2.583Z" fill="#e5646e"/>
        <path id="Trazado_113699" data-name="Trazado 113699" d="M16.224,51.62,18.848,49a1.826,1.826,0,0,0,0-2.583l-2.29-2.29a1.827,1.827,0,0,0-2.583,0l-2.624,2.624Z" fill="#e5646e"/>
        <path id="Trazado_113700" data-name="Trazado 113700" d="M17.782,45.347l-1.223-1.223a1.827,1.827,0,0,0-2.583,0l-2.624,2.624,2.515,2.515Z" fill="#db4655"/>
        <circle id="Elipse_4749" data-name="Elipse 4749" cx="19.52" cy="19.52" r="19.52" transform="translate(18.538 5.393)" fill="#ff8086"/>
        <path id="Trazado_113701" data-name="Trazado 113701" d="M29.619,38.716A19.52,19.52,0,0,1,40.74,5.578a19.52,19.52,0,1,0,0,38.67,19.433,19.433,0,0,1-11.121-5.532Z" fill="#e5646e"/>
        <g id="Grupo_80242" data-name="Grupo 80242">
          <path id="Trazado_113702" data-name="Trazado 113702" d="M51.462,19.663c-.146-6.784-5.687-6.359-5.687-6.359s-4.546-.028-5.384,6.342a10.2,10.2,0,0,0,.4,4.4,18.7,18.7,0,0,1,.787,3.947.9.9,0,0,0,.692.791l5.715,1.325a.9.9,0,0,0,1.065-.62c1.089-3.669,2.469-7.341,2.416-9.824Z" fill="#3f6d8e"/>
          <path id="Trazado_113703" data-name="Trazado 113703" d="M46.749,33.43l-4.477-1.038a.9.9,0,0,0-1.075.661,12.862,12.862,0,0,1-.75,2.135,2.97,2.97,0,0,0,1.809,4.046l.049.017a3.221,3.221,0,0,0,4.086-1.835c.3-.818.644-1.774,1-2.817a.9.9,0,0,0-.646-1.169Z" fill="#3f6d8e"/>
          <path id="Trazado_113704" data-name="Trazado 113704" d="M24.655,19.663c.146-6.784,5.687-6.359,5.687-6.359s4.546-.028,5.384,6.342a10.2,10.2,0,0,1-.4,4.4,18.7,18.7,0,0,0-.787,3.947.9.9,0,0,1-.692.791l-5.715,1.325a.9.9,0,0,1-1.065-.62c-1.089-3.669-2.469-7.341-2.416-9.824Z" fill="#3f6d8e"/>
          <path id="Trazado_113705" data-name="Trazado 113705" d="M29.367,33.43l4.477-1.038a.9.9,0,0,1,1.075.661,12.862,12.862,0,0,0,.75,2.135,2.97,2.97,0,0,1-1.809,4.046l-.049.017a3.221,3.221,0,0,1-4.086-1.835c-.3-.818-.644-1.774-1-2.817a.9.9,0,0,1,.646-1.169Z" fill="#3f6d8e"/>
        </g>
        <path id="Trazado_113706" data-name="Trazado 113706" d="M44.651,28.844a20.793,20.793,0,0,0-.787-4.176,11.387,11.387,0,0,1-.4-4.653c.556-4.474,2.746-5.965,4.156-6.462a5.546,5.546,0,0,0-1.848-.249s-4.546-.028-5.384,6.342a10.2,10.2,0,0,0,.4,4.4,18.7,18.7,0,0,1,.787,3.947.9.9,0,0,0,.692.791l2.608.6a.964.964,0,0,1-.222-.542Z" fill="#365e7d"/>
        <path id="Trazado_113707" data-name="Trazado 113707" d="M43.524,35.188a12.874,12.874,0,0,0,.75-2.135.926.926,0,0,1,.068-.181l-2.069-.48a.9.9,0,0,0-1.075.661,12.851,12.851,0,0,1-.75,2.135,2.97,2.97,0,0,0,1.809,4.046l.049.017a3.32,3.32,0,0,0,2.62-.191,2.951,2.951,0,0,1-1.4-3.873Z" fill="#365e7d"/>
        <path id="Trazado_113708" data-name="Trazado 113708" d="M30.148,29.487c-1.089-3.669-2.469-7.341-2.416-9.824.09-4.184,2.232-5.626,3.861-6.116a4.24,4.24,0,0,0-1.251-.243s-5.541-.426-5.687,6.359c-.053,2.483,1.327,6.155,2.416,9.824a.9.9,0,0,0,1.065.62l2.067-.479a.9.9,0,0,1-.056-.141Z" fill="#365e7d"/>
        <path id="Trazado_113709" data-name="Trazado 113709" d="M32.8,37.118c-.3-.938-.644-2.036-1-3.233a1.141,1.141,0,0,1,.216-1.068l-2.646.614a.9.9,0,0,0-.646,1.169c.361,1.043.7,2,1,2.817a3.221,3.221,0,0,0,4.086,1.835l.049-.017a3.279,3.279,0,0,0,.458-.2A3.372,3.372,0,0,1,32.8,37.118Z" fill="#365e7d"/>
      </g>
      <g id="Grupo_80244" data-name="Grupo 80244">
        <path id="Trazado_113710" data-name="Trazado 113710" d="M49.923,29.787c.232-.783.482-1.577.723-2.345.913-2.911,1.776-5.661,1.731-7.761a7.554,7.554,0,0,0-2.2-5.687,6.074,6.074,0,0,0-7.284-.648c-1.3.826-2.947,2.575-3.426,6.218a11.049,11.049,0,0,0,.432,4.8,17.854,17.854,0,0,1,.747,3.749,1.813,1.813,0,0,0,1.4,1.61l5.715,1.325a1.825,1.825,0,0,0,2.159-1.257Zm-1.763-.547-5.676-1.316a19.74,19.74,0,0,0-.824-4.12,9.219,9.219,0,0,1-.363-4c.788-5.99,5.356-6.537,7.656-4.429a5.83,5.83,0,0,1,1.577,4.345c.039,1.8-.78,4.406-1.647,7.168-.241.768-.49,1.561-.725,2.351Z"/>
        <path id="Trazado_113711" data-name="Trazado 113711" d="M46.949,32.569,42.472,31.53a1.815,1.815,0,0,0-2.178,1.331,12,12,0,0,1-.7,1.982A3.975,3.975,0,0,0,43.387,40.4a4.091,4.091,0,0,0,3.862-2.624c.348-.947.688-1.9,1.011-2.834a1.822,1.822,0,0,0-1.31-2.37Zm-1.433,4.567A2.288,2.288,0,0,1,42.55,38.4a2.047,2.047,0,0,1-1.271-2.792,13.86,13.86,0,0,0,.8-2.273l4.428,1.027c-.316.914-.649,1.847-.99,2.774Z"/>
        <path id="Trazado_113712" data-name="Trazado 113712" d="M34.051,29.719a1.813,1.813,0,0,0,1.4-1.61,17.841,17.841,0,0,1,.747-3.749,11.053,11.053,0,0,0,.432-4.8c-.479-3.644-2.128-5.393-3.426-6.218a6.079,6.079,0,0,0-7.284.648,7.554,7.554,0,0,0-2.2,5.687c-.045,2.1.818,4.85,1.731,7.761.241.768.49,1.561.722,2.345a1.825,1.825,0,0,0,2.159,1.257ZM27.217,26.89c-.867-2.763-1.686-5.373-1.647-7.169a5.831,5.831,0,0,1,1.577-4.344C29.372,13.337,34,13.684,34.8,19.8a9.22,9.22,0,0,1-.363,4,19.713,19.713,0,0,0-.824,4.12l-5.676,1.316c-.234-.79-.484-1.583-.724-2.351Z"/>
        <path id="Trazado_113713" data-name="Trazado 113713" d="M28.851,37.773a4.191,4.191,0,0,0,7.689.181,3.806,3.806,0,0,0-.038-3.11,11.972,11.972,0,0,1-.7-1.982,1.815,1.815,0,0,0-2.178-1.331l-4.477,1.038a1.822,1.822,0,0,0-1.31,2.37c.325.941.665,1.894,1.011,2.834Zm5.17-4.438a13.839,13.839,0,0,0,.8,2.273A2.047,2.047,0,0,1,33.55,38.4l-.049.017a2.289,2.289,0,0,1-2.918-1.281c-.338-.92-.671-1.853-.99-2.774Z"/>
        <path id="Trazado_113714" data-name="Trazado 113714" d="M.806,59.905l2.29,2.29a2.753,2.753,0,0,0,3.888,0l3.064-3.064a.923.923,0,0,0-1.305-1.305L5.678,60.89a.905.905,0,0,1-1.278,0L2.111,58.6a.9.9,0,0,1,0-1.277l9.232-9.232,3.567,3.567L11.788,54.78a.923.923,0,1,0,1.305,1.305l6.4-6.4a2.737,2.737,0,0,0,.744-2.521l2.5-2.5a24.952,24.952,0,1,0-4.4-4.4l-2.5,2.5a2.737,2.737,0,0,0-2.521.743L.806,56.017a2.748,2.748,0,0,0,0,3.888Zm20.9-51.3a23.115,23.115,0,1,1,1.52,34.079,23.142,23.142,0,0,1-1.52-34.079ZM19.527,41.684a25.27,25.27,0,0,0,1.79,1.789l-2.075,2.074-1.789-1.789Zm-4.907,3.13a.9.9,0,0,1,1.278,0L18.187,47.1a.905.905,0,0,1,0,1.278l-1.972,1.972-3.567-3.567Z"/>
        <path id="Trazado_113715" data-name="Trazado 113715" d="M52.506,39.406a20.48,20.48,0,0,0,5.886-12.421.923.923,0,1,0-1.837-.183,18.6,18.6,0,1,1-5.355-15,18.409,18.409,0,0,1,5.311,10.9.923.923,0,0,0,1.833-.222A20.24,20.24,0,0,0,52.506,10.5a20.443,20.443,0,1,0,0,28.911Z"/>
      </g>
    </g>
  </g>
</svg>
