<svg xmlns="http://www.w3.org/2000/svg" width="254.811" height="300.061" viewBox="0 0 254.811 300.061">
  <g id="Grupo_81619" data-name="Grupo 81619" transform="translate(-430.921 -118.434)">
    <g id="Grupo_81614" data-name="Grupo 81614" transform="translate(430.921 118.434)">
      <g id="Grupo_81611" data-name="Grupo 81611" transform="translate(61.103)">
        <g id="Grupo_81610" data-name="Grupo 81610" transform="translate(37.126 7.551)">
          <path id="Trazado_118826" data-name="Trazado 118826" d="M512.977,125.2h-7.368l-3.957,132.916c-.047,1.165.682,2.339,2.216,3.223a12.025,12.025,0,0,0,10.827,0,3.824,3.824,0,0,0,2.219-3.037h.019Z" transform="translate(-501.651 -123.356)" fill="#583ae2"/>
          <path id="Trazado_118827" data-name="Trazado 118827" d="M505.576,124.493c-1.439.828-1.439,2.185,0,3.014a5.81,5.81,0,0,0,5.23,0c1.437-.829,1.437-2.186,0-3.014A5.81,5.81,0,0,0,505.576,124.493Z" transform="translate(-500.544 -123.871)" fill="#583ae2"/>
        </g>
        <path id="Trazado_118828" data-name="Trazado 118828" d="M524.812,224.16a12.043,12.043,0,0,0-5.438-9.4,3.986,3.986,0,0,0-3.5-.5l-.068-.125L476.4,236.18l.017.029a3.852,3.852,0,0,0-1.5,3.425,12.038,12.038,0,0,0,5.439,9.4c1.647.95,3.112.921,4.112.151l38.641-21.482C524.152,227.164,524.812,225.94,524.812,224.16Z" transform="translate(-474.918 -81.262)" fill="#233396"/>
        <path id="Trazado_118829" data-name="Trazado 118829" d="M516.363,125.863a7.429,7.429,0,1,1-7.429-7.429A7.429,7.429,0,0,1,516.363,125.863Z" transform="translate(-464.581 -118.434)" fill="#2ff980"/>
      </g>
      <g id="Grupo_81612" data-name="Grupo 81612" transform="translate(0 131.061)">
        <path id="Trazado_118830" data-name="Trazado 118830" d="M656.6,280.2l-3.151-1.815v-.013l-112.781-65a4.356,4.356,0,0,0-.955-.4,4.155,4.155,0,0,0-3.08.319l-.3.174L431.745,273.4,548.374,381.146,651.514,322.1c.043-.019.089-.035.132-.056l-.122.086.289-.157.058-.032,4.418-2.386a3.6,3.6,0,0,0,.869-.689,3.642,3.642,0,0,0,1.019-2.448v-33.5A3.147,3.147,0,0,0,656.6,280.2Z" transform="translate(-430.601 -212.804)" fill="#40327b"/>
        <path id="Trazado_118831" data-name="Trazado 118831" d="M432.56,299.9l112.476,64.74a3.269,3.269,0,0,0,4.9-2.833V323.833A3.27,3.27,0,0,0,548.3,321L435.95,256.249a3.27,3.27,0,0,0-4.9,2.822l-.126,37.986A3.27,3.27,0,0,0,432.56,299.9Z" transform="translate(-430.921 -196.085)" fill="#40327b"/>
        <path id="Trazado_118832" data-name="Trazado 118832" d="M435.2,295.737l110.487,63.6a2,2,0,0,0,3.005-1.737V323.261a2.007,2.007,0,0,0-1-1.737l-110.358-63.6a2.006,2.006,0,0,0-3.007,1.73l-.128,34.341A2.007,2.007,0,0,0,435.2,295.737Z" transform="translate(-429.648 -195.369)" fill="#583ae2"/>
        <path id="Trazado_118833" data-name="Trazado 118833" d="M520.7,256.992c.012-.019.022-.042.036-.061Z" transform="translate(-396.016 -195.648)" fill="#0f1956"/>
        <path id="Trazado_118834" data-name="Trazado 118834" d="M520.938,256.751a4.165,4.165,0,0,1,.286-.317A3.28,3.28,0,0,0,520.938,256.751Z" transform="translate(-395.923 -195.841)" fill="#0f1956"/>
        <path id="Trazado_118835" data-name="Trazado 118835" d="M520.724,257.036a3.109,3.109,0,0,1,.3-.374A4.089,4.089,0,0,0,520.724,257.036Z" transform="translate(-396.006 -195.753)" fill="#233396"/>
        <path id="Trazado_118836" data-name="Trazado 118836" d="M520.454,257.55c.025.014.05.021.075.032a3.2,3.2,0,0,1,.264-.607A4.4,4.4,0,0,0,520.454,257.55Z" transform="translate(-396.111 -195.631)" fill="#233396"/>
        <path id="Trazado_118837" data-name="Trazado 118837" d="M553.023,322.969l-3.153-1.817v-.011l-112.78-65a4.257,4.257,0,0,0-5.066.628c-.014.013-.025.028-.038.04-.039.039-.074.081-.11.121a3.2,3.2,0,0,0-.717,1.19v.015l-.007,0a3.217,3.217,0,0,0-.15.8l4.511,2.6,112.275,64.7.464.268a2.741,2.741,0,0,1,1.647,2.729v2.732l-.013,26.448c0,.069-.021.131-.026.2v3.3a3.208,3.208,0,0,1-1.124,2.444l-.662.493,4.632-2.51a3.643,3.643,0,0,0,1.89-3.136v-33.5A3.146,3.146,0,0,0,553.023,322.969Z" transform="translate(-430.888 -196.176)" fill="#40327b"/>
        <path id="Trazado_118838" data-name="Trazado 118838" d="M435.355,272.384a4.256,4.256,0,0,1,.955.4l112.78,65v.011l.547.315,103.209-59.793L540.177,213.384a4.349,4.349,0,0,0-.954-.4,4.154,4.154,0,0,0-3.08.319l-.3.174L433.016,272.4A4.132,4.132,0,0,1,435.355,272.384Z" transform="translate(-430.106 -212.798)" fill="#583ae2"/>
        <path id="Trazado_118839" data-name="Trazado 118839" d="M519.6,321.261a3.143,3.143,0,0,1,1.575,2.725v2.807l103.868-59.374v-2.833a3.15,3.15,0,0,0-1.575-2.726l-3.153-1.815v-.013l-.112-.065L516.99,319.759Z" transform="translate(-397.458 -194.468)" fill="#8c96f2" opacity="0.25"/>
        <path id="Trazado_118840" data-name="Trazado 118840" d="M439.173,276.174c0-2.317,1.644-3.264,3.654-2.105a8.091,8.091,0,0,1,3.653,6.316c0,2.316-1.644,3.264-3.653,2.105A8.087,8.087,0,0,1,439.173,276.174Z" transform="translate(-427.713 -189.177)" fill="#2ff980"/>
        <path id="Trazado_118841" data-name="Trazado 118841" d="M448.8,281.986c0-2.316,1.644-3.264,3.653-2.105a8.087,8.087,0,0,1,3.654,6.316c0,2.316-1.644,3.264-3.654,2.105A8.092,8.092,0,0,1,448.8,281.986Z" transform="translate(-423.97 -186.917)" fill="#2ff980"/>
        <path id="Trazado_118842" data-name="Trazado 118842" d="M458.424,287.8c0-2.315,1.644-3.264,3.654-2.1a8.083,8.083,0,0,1,3.653,6.316c0,2.315-1.643,3.262-3.653,2.105A8.089,8.089,0,0,1,458.424,287.8Z" transform="translate(-420.228 -184.658)" fill="#32fced"/>
        <path id="Trazado_118843" data-name="Trazado 118843" d="M496.564,309.954c0-2.315,1.644-3.262,3.653-2.105a8.09,8.09,0,0,1,3.654,6.318c0,2.315-1.644,3.264-3.654,2.105A8.088,8.088,0,0,1,496.564,309.954Z" transform="translate(-405.399 -176.043)" fill="#2ff980"/>
        <path id="Trazado_118844" data-name="Trazado 118844" d="M506.189,315.766c0-2.315,1.644-3.264,3.654-2.105a8.088,8.088,0,0,1,3.653,6.316c0,2.317-1.643,3.264-3.653,2.105A8.085,8.085,0,0,1,506.189,315.766Z" transform="translate(-401.657 -173.784)" fill="#32fced"/>
      </g>
      <g id="Grupo_81613" data-name="Grupo 81613" transform="translate(239.528 76.929)">
        <path id="Trazado_118845" data-name="Trazado 118845" d="M614.719,175.152h-7.368L603.395,308.07c-.047,1.165.682,2.339,2.217,3.223a12.034,12.034,0,0,0,10.827,0,3.826,3.826,0,0,0,2.219-3.037h.018Z" transform="translate(-603.392 -173.311)" fill="#583ae2"/>
        <path id="Trazado_118846" data-name="Trazado 118846" d="M607.318,174.448c-1.439.829-1.439,2.186,0,3.015a5.81,5.81,0,0,0,5.23,0c1.437-.829,1.437-2.186,0-3.015A5.81,5.81,0,0,0,607.318,174.448Z" transform="translate(-602.286 -173.826)" fill="#583ae2"/>
      </g>
      <path id="Trazado_118847" data-name="Trazado 118847" d="M626.554,274.116a12.039,12.039,0,0,0-5.439-9.4,3.977,3.977,0,0,0-3.5-.5l-.068-.125-39.4,22.049.017.028a3.855,3.855,0,0,0-1.5,3.426,12.043,12.043,0,0,0,5.439,9.4c1.647.95,3.112.919,4.112.15l38.641-21.482C625.894,277.118,626.554,275.9,626.554,274.116Z" transform="translate(-374.258 -61.839)" fill="#583ae2"/>
      <path id="Trazado_118848" data-name="Trazado 118848" d="M532.721,216.9l-94.2,54.517,207.091,5.319L538.482,216.852A5.825,5.825,0,0,0,532.721,216.9Z" transform="translate(-427.964 -80.457)" fill="#492ccc"/>
      <path id="Trazado_118849" data-name="Trazado 118849" d="M618.105,175.818a7.429,7.429,0,1,1-7.429-7.429A7.429,7.429,0,0,1,618.105,175.818Z" transform="translate(-363.921 -99.012)" fill="#2ff980"/>
    </g>
    <g id="Grupo_81618" data-name="Grupo 81618" transform="translate(440.398 133.325)">
      <path id="Trazado_118850" data-name="Trazado 118850" d="M522.3,234.067l.058-.031.009.014c2.788-.616,6.2.021,9.908,2.146,9.5,5.452,17.231,18.469,17.159,29.01-.027,4.043-1.21,7.1-3.186,9.026l0,.007-.033.017a13.133,13.133,0,0,1-4.705,2.585l-5.862,3.22-23.515-40.585,6.449-3.461A8.03,8.03,0,0,1,522.3,234.067Z" transform="translate(-427.815 -80.229)" fill="#40327b"/>
      <path id="Trazado_118851" data-name="Trazado 118851" d="M505.824,207.183c8.123-4.317,22.2-7.714,41.371,2.884,20.8,11.5,36.319,34.16,45.056,49.6,4.581,8.1,3.687,16.682-1.83,17.8l-2.86,1.578-7.613,4.25L532.51,229.458a25.746,25.746,0,0,0-13.715,2.734c-3.445,1.766-8.511-.764-12.206-6.123l-.039-.057c-1.337-1.938-2.329-4.006.961-8.65l-13.154-2.834Z" transform="translate(-440.559 -102.296)" fill="#40327b"/>
      <path id="Trazado_118852" data-name="Trazado 118852" d="M491.162,180.984c11.853-6.324,34.743-12.327,66.745,4.224,34.946,18.142,59.16,53.274,70.971,73.6,4.626,7.961,3.847,16.628-1.555,18.084-.4.106-3.284,1.917-3.7,1.941l-8.064,4.492-37.382-50.882-51.7-31.372a49.344,49.344,0,0,0-24.307,5.922c-3.507,1.928-8.746-.843-12.354-6.492l-.058-.091c-.065-.1-.12-.206-.184-.307l-3.3-.084L479.6,189.055l6.549-5.1Z" transform="translate(-451.131 -122.736)" fill="#40327b"/>
      <path id="Trazado_118853" data-name="Trazado 118853" d="M464.644,162.778l9.438-6.792c13.161-8.971,44.682-22.506,95.389,3.4.522.268,1.052.541,1.578.817,53.6,28.028,87.121,76.519,101.679,101.53,3.62,6.217,4.58,11.783,2,15.164l-2.6,2.621-1.488.831a20.034,20.034,0,0,1-3.665,1.82l-8.739,4.623L642.8,265.547l-63.551-73.074-35.593-19.138c-29.271-8.037-48.095.493-56.691,6.271-3.335,2.242-8.516-.208-12.155-5.7l-.007-.012a21.718,21.718,0,0,1-3.332-8.4Z" transform="translate(-461.849 -144.346)" fill="#40327b"/>
      <g id="Grupo_81615" data-name="Grupo 81615" transform="translate(0 7.06)">
        <path id="Trazado_118854" data-name="Trazado 118854" d="M466.542,177.615c3.589,5.471,8.7,7.924,11.985,5.714,10.7-7.2,37.552-18.743,81.171,4.365.448.239.9.479,1.351.724,45.685,24.753,73.486,66.141,84.9,86.142,3.661,6.415,9.575,10.3,13.964,9.129l.007,0c5.49-1.466,6.288-10.073,1.655-18.1-14.349-24.863-47.387-73.1-100.2-101.138-.518-.276-1.04-.551-1.555-.817-49.979-25.934-81.042-12.644-94.011-3.8-3.995,2.724-3.667,11.086.723,17.772Z" transform="translate(-463.016 -148.459)" fill="#2ff980"/>
      </g>
      <g id="Grupo_81616" data-name="Grupo 81616" transform="translate(25.43 58.944)">
        <path id="Trazado_118855" data-name="Trazado 118855" d="M481.306,203.91c3.558,5.622,8.725,8.394,12.179,6.5,8.952-4.921,28.272-11.336,55.036,3.011.314.168.635.343.948.513,26.729,14.737,45.149,42.167,53.885,57.517,3.562,6.259,9.263,10.009,13.468,8.885h0c5.318-1.423,6.08-9.942,1.521-17.857C606.7,242.262,582.832,207.46,548.4,189.309c-33.176-17.42-56.43-9.618-67.528-3.249-4.211,2.415-4.012,10.826.378,17.76Z" transform="translate(-477.83 -178.685)" fill="#2ff980"/>
      </g>
      <g id="Grupo_81617" data-name="Grupo 81617" transform="translate(51.909 107.139)">
        <path id="Trazado_118856" data-name="Trazado 118856" d="M579.8,280.889l.05-.01c5.433-1.087,6.31-9.6,1.792-17.648-8.614-15.351-23.917-37.9-44.411-49.387-18.892-10.593-32.766-7.282-40.768-3.031-4.552,2.419-4.214,11.467.724,18.688l.038.057c3.646,5.333,8.641,7.865,12.035,6.126,5.536-2.837,15.2-5.177,27.844,2.048,13.382,7.649,23.92,23.56,29.844,34.2C570.318,277.976,575.716,281.706,579.8,280.889Z" transform="translate(-493.256 -206.761)" fill="#2ff980"/>
      </g>
      <path id="Trazado_118857" data-name="Trazado 118857" d="M509.343,247.781c-.046,10.251,7.337,23.033,16.582,28.613,9.348,5.644,17.056,1.8,17.121-8.643s-7.553-23.4-16.92-28.847C516.862,233.518,509.388,237.521,509.343,247.781Z" transform="translate(-429.82 -78.307)" fill="#2ff980"/>
    </g>
  </g>
</svg>
