<svg xmlns="http://www.w3.org/2000/svg" xmlns:xlink="http://www.w3.org/1999/xlink" width="63" height="63" viewBox="0 0 63 63">
  <defs>
    <clipPath id="clip-path">
      <rect id="Rectángulo_33885" data-name="Rectángulo 33885" width="63" height="63" transform="translate(926 16166)" fill="#40327b" stroke="#707070" stroke-width="1"/>
    </clipPath>
  </defs>
  <g id="Enmascarar_grupo_58" data-name="Enmascarar grupo 58" transform="translate(-926 -16166)" clip-path="url(#clip-path)">
    <g id="algoritmo" transform="translate(924.984 16164.983)">
      <path id="Trazado_113668" data-name="Trazado 113668" d="M47.758,58.935V63H17.274V58.935H47.758Z" fill="#969faa"/>
      <g id="Grupo_80241" data-name="Grupo 80241">
        <path id="Trazado_113669" data-name="Trazado 113669" d="M37.6,54.871v4.065H27.435V50.806H37.6Z" fill="#aab2bd"/>
        <path id="Trazado_113670" data-name="Trazado 113670" d="M18.748,56a2.032,2.032,0,0,1,1.819-1.128h6.869v4.065H17.274Z" fill="#aab2bd"/>
        <path id="Trazado_113671" data-name="Trazado 113671" d="M46.285,56l1.473,2.937H37.6V54.871h6.869A2.032,2.032,0,0,1,46.285,56Z" fill="#aab2bd"/>
      </g>
      <path id="Trazado_113672" data-name="Trazado 113672" d="M2.032,42.677v4.065A4.063,4.063,0,0,0,6.1,50.806H58.935A4.063,4.063,0,0,0,63,46.742V42.677Z" fill="#ccd1d9"/>
      <path id="Trazado_113673" data-name="Trazado 113673" d="M8.129,12.194V42.677h-6.1V16.258A4.063,4.063,0,0,1,6.1,12.194Z" fill="#69d6f4"/>
      <path id="Trazado_113674" data-name="Trazado 113674" d="M63,16.258V42.677H56.9V12.194h2.032A4.063,4.063,0,0,1,63,16.258Z" fill="#69d6f4"/>
      <path id="Trazado_113675" data-name="Trazado 113675" d="M23.371,42.677V44.71A2.038,2.038,0,0,0,25.4,46.742H39.629a2.038,2.038,0,0,0,2.032-2.032V42.677Z" fill="#fcd770"/>
      <path id="Trazado_113676" data-name="Trazado 113676" d="M56.9,12.194V42.677H8.129V10.161H23.371L25.4,8.129H56.9Z" fill="#e6e9ed"/>
      <path id="Trazado_113677" data-name="Trazado 113677" d="M52.839,32.516v6.1h-6.1v-6.1h6.1Z" fill="#5cd6b3"/>
      <path id="Trazado_113678" data-name="Trazado 113678" d="M36.581,32.516v6.1h-6.1v-6.1h6.1Z" fill="#4fc1e9"/>
      <path id="Trazado_113679" data-name="Trazado 113679" d="M46.742,25.4l-5.081,3.048L36.581,25.4l5.081-3.048Z" fill="#fcd770"/>
      <path id="Trazado_113680" data-name="Trazado 113680" d="M48.774,12.194v4.065H34.548V12.194Z" fill="#ff826e"/>
      <path id="Trazado_113681" data-name="Trazado 113681" d="M12.194,14.226H26.419V38.613H12.194Z" fill="#5cd6b3"/>
      <path id="Trazado_113682" data-name="Trazado 113682" d="M8.129,10.161v-6.1a2.038,2.038,0,0,1,2.032-2.032h44.71A2.038,2.038,0,0,1,56.9,4.065V8.129H25.4l-2.032,2.032Z" fill="#fcd770"/>
      <path id="Trazado_113683" data-name="Trazado 113683" d="M58.935,11.177H57.919V4.065a3.052,3.052,0,0,0-3.048-3.048H10.161A3.052,3.052,0,0,0,7.113,4.065v7.113H6.1a5.086,5.086,0,0,0-5.081,5.081V46.742A5.086,5.086,0,0,0,6.1,51.823H26.419v2.032H20.562a3.033,3.033,0,0,0-2.727,1.685L16.258,58.7v5.32H48.774V58.7L47.2,55.54a3.031,3.031,0,0,0-2.726-1.685H38.613V51.823H58.935a5.086,5.086,0,0,0,5.081-5.081V16.258A5.086,5.086,0,0,0,58.935,11.177Zm0,2.032a3.052,3.052,0,0,1,3.048,3.048v25.4H57.919V13.21ZM24.387,43.694h4.065v2.032H25.4a1.017,1.017,0,0,1-1.016-1.016Zm6.1,0h4.065v2.032H30.484Zm6.1,0h4.065V44.71a1.017,1.017,0,0,1-1.016,1.016H36.581ZM9.145,41.661V11.177H23.792l2.032-2.032H55.887V41.661ZM10.161,3.048h44.71a1.017,1.017,0,0,1,1.016,1.016V7.113h-30.9L22.95,9.145H9.145V4.065A1.017,1.017,0,0,1,10.161,3.048ZM6.1,13.21H7.113V41.661H3.048v-25.4A3.052,3.052,0,0,1,6.1,13.21ZM20.562,55.887h5.857v2.032h-7.5l.736-1.47a1.011,1.011,0,0,1,.908-.562Zm-2.272,6.1V59.952H46.742v2.032Zm26.18-6.1a1.012,1.012,0,0,1,.909.562l.735,1.47h-7.5V55.887Zm-7.889,2.032H28.452v-6.1h8.129ZM58.935,49.79H6.1a3.052,3.052,0,0,1-3.048-3.048V43.694H22.355V44.71A3.052,3.052,0,0,0,25.4,47.758H39.629a3.052,3.052,0,0,0,3.048-3.048V43.694H61.984v3.048A3.052,3.052,0,0,1,58.935,49.79Z"/>
      <path id="Trazado_113684" data-name="Trazado 113684" d="M11.177,5.081H13.21V7.113H11.177Z"/>
      <path id="Trazado_113685" data-name="Trazado 113685" d="M19.306,5.081h2.032V7.113H19.306Z"/>
      <path id="Trazado_113686" data-name="Trazado 113686" d="M15.242,5.081h2.032V7.113H15.242Z"/>
      <path id="Trazado_113687" data-name="Trazado 113687" d="M50.806,31.5V24.387H47.023L42.677,21.78V17.274H49.79v-6.1H33.532v6.1h7.113V21.78L36.3,24.387H32.516V31.5H29.468v8.129H37.6V31.5H34.548V26.419H36.3l5.362,3.217,5.362-3.217h1.751V31.5H45.726v8.129h8.129V31.5ZM35.565,13.21H47.758v2.032H35.565Zm0,24.387H31.5V33.532h4.065Zm6.1-10.33L38.555,25.4l3.106-1.864L44.768,25.4ZM51.823,37.6H47.758V33.532h4.065Z"/>
      <path id="Trazado_113688" data-name="Trazado 113688" d="M11.177,39.629H27.435V13.21H11.177ZM13.21,15.242H25.4V37.6H13.21Z"/>
      <path id="Trazado_113689" data-name="Trazado 113689" d="M15.242,17.274h8.129v2.032H15.242Z"/>
      <path id="Trazado_113690" data-name="Trazado 113690" d="M15.242,21.339h8.129v2.032H15.242Z"/>
      <path id="Trazado_113691" data-name="Trazado 113691" d="M15.242,25.4h8.129v2.032H15.242Z"/>
      <path id="Trazado_113692" data-name="Trazado 113692" d="M15.242,29.468h8.129V31.5H15.242Z"/>
      <path id="Trazado_113693" data-name="Trazado 113693" d="M15.242,33.532h8.129v2.032H15.242Z"/>
    </g>
  </g>
</svg>
