<svg xmlns="http://www.w3.org/2000/svg" xmlns:xlink="http://www.w3.org/1999/xlink" width="295" height="298" viewBox="0 0 295 298">
  <defs>
    <clipPath id="clip-path">
      <rect id="Rectángulo_34555" data-name="Rectángulo 34555" width="146.232" height="134.983" fill="none"/>
    </clipPath>
  </defs>
  <g id="Grupo_84767" data-name="Grupo 84767" transform="translate(6103 -6465)">
    <g id="Grupo_84732" data-name="Grupo 84732">
      <g id="Grupo_84731" data-name="Grupo 84731">
        <rect id="Rectángulo_33899" data-name="Rectángulo 33899" width="295" height="298" rx="20" transform="translate(-6103 6465)" fill="#583ae2"/>
        <path id="Trazado_122048" data-name="Trazado 122048" d="M11.6,6.2l2.856,8.9,2.848-8.9h4.061V19H18.272V16.012l.3-6.117L15.478,19H13.438l-3.1-9.114.3,6.126V19H7.55V6.2Zm11.215,7.954a5.613,5.613,0,0,1,.554-2.536,3.96,3.96,0,0,1,1.591-1.709,4.791,4.791,0,0,1,2.435-.6,4.373,4.373,0,0,1,3.366,1.323,5.076,5.076,0,0,1,1.23,3.6v.105a4.925,4.925,0,0,1-1.235,3.529,4.384,4.384,0,0,1-3.344,1.305,4.434,4.434,0,0,1-3.261-1.217,4.761,4.761,0,0,1-1.327-3.3Zm2.962.185a3.538,3.538,0,0,0,.413,1.934,1.376,1.376,0,0,0,1.222.615q1.582,0,1.617-2.435v-.3q0-2.558-1.635-2.558-1.485,0-1.608,2.206Zm7.146-.167a5.809,5.809,0,0,1,.976-3.56,3.211,3.211,0,0,1,2.725-1.3,2.731,2.731,0,0,1,2.145,1V5.5h2.971V19H39.076l-.149-1.02a2.8,2.8,0,0,1-2.32,1.2,3.205,3.205,0,0,1-2.689-1.3A5.993,5.993,0,0,1,32.924,14.175Zm2.962.185q0,2.531,1.477,2.531a1.458,1.458,0,0,0,1.406-.826V12.443A1.419,1.419,0,0,0,37.38,11.6q-1.371,0-1.485,2.215Zm12.138,4.816a4.889,4.889,0,0,1-3.542-1.305,4.507,4.507,0,0,1-1.354-3.4v-.246a5.84,5.84,0,0,1,.541-2.575,3.955,3.955,0,0,1,1.578-1.727,4.763,4.763,0,0,1,2.461-.611,4.117,4.117,0,0,1,3.164,1.244,4.887,4.887,0,0,1,1.16,3.467v1.151H46.143a2.135,2.135,0,0,0,.694,1.257,2.066,2.066,0,0,0,1.389.457,2.662,2.662,0,0,0,2.2-.984l1.354,1.6a3.784,3.784,0,0,1-1.569,1.217A5.3,5.3,0,0,1,48.023,19.176ZM47.689,11.6q-1.3,0-1.547,1.723h2.988v-.229a1.467,1.467,0,0,0-.36-1.1A1.434,1.434,0,0,0,47.689,11.6ZM56.347,19H53.376V5.5h2.971Zm1.45-4.843a5.613,5.613,0,0,1,.554-2.536,3.96,3.96,0,0,1,1.591-1.709,4.791,4.791,0,0,1,2.435-.6,4.373,4.373,0,0,1,3.366,1.323,5.076,5.076,0,0,1,1.23,3.6v.105a4.925,4.925,0,0,1-1.235,3.529,4.384,4.384,0,0,1-3.344,1.305,4.434,4.434,0,0,1-3.261-1.217,4.761,4.761,0,0,1-1.327-3.3Zm2.962.185a3.538,3.538,0,0,0,.413,1.934,1.376,1.376,0,0,0,1.222.615q1.582,0,1.617-2.435v-.3q0-2.558-1.635-2.558-1.485,0-1.608,2.206Zm11.628-.167a5.809,5.809,0,0,1,.976-3.56,3.211,3.211,0,0,1,2.725-1.3,2.731,2.731,0,0,1,2.145,1V5.5H81.2V19H78.539l-.149-1.02a2.8,2.8,0,0,1-2.32,1.2,3.205,3.205,0,0,1-2.689-1.3A5.993,5.993,0,0,1,72.387,14.175Zm2.962.185q0,2.531,1.477,2.531a1.458,1.458,0,0,0,1.406-.826V12.443a1.419,1.419,0,0,0-1.389-.844q-1.371,0-1.485,2.215Zm12.138,4.816a4.889,4.889,0,0,1-3.542-1.305,4.507,4.507,0,0,1-1.354-3.4v-.246a5.84,5.84,0,0,1,.541-2.575,3.955,3.955,0,0,1,1.578-1.727,4.763,4.763,0,0,1,2.461-.611,4.117,4.117,0,0,1,3.164,1.244,4.887,4.887,0,0,1,1.16,3.467v1.151H85.605a2.135,2.135,0,0,0,.694,1.257,2.066,2.066,0,0,0,1.389.457,2.662,2.662,0,0,0,2.2-.984l1.354,1.6a3.784,3.784,0,0,1-1.569,1.217A5.3,5.3,0,0,1,87.486,19.176ZM87.152,11.6q-1.3,0-1.547,1.723h2.988v-.229a1.467,1.467,0,0,0-.36-1.1A1.434,1.434,0,0,0,87.152,11.6Zm13.14,7.4H97.321V9.49h2.971ZM97.146,7.038A1.322,1.322,0,0,1,97.6,6a1.943,1.943,0,0,1,2.373,0,1.322,1.322,0,0,1,.457,1.037,1.322,1.322,0,0,1-.457,1.037,1.943,1.943,0,0,1-2.373,0A1.322,1.322,0,0,1,97.146,7.038Zm7.77,2.452.1,1.116a3.27,3.27,0,0,1,2.716-1.292,2.407,2.407,0,0,1,2.435,1.433,3.165,3.165,0,0,1,2.795-1.433q2.892,0,2.971,3.5V19h-2.971V13a1.813,1.813,0,0,0-.246-1.063,1.048,1.048,0,0,0-.9-.334,1.4,1.4,0,0,0-1.31.782l.009.123V19h-2.971V13.015a1.906,1.906,0,0,0-.237-1.081,1.045,1.045,0,0,0-.905-.334,1.42,1.42,0,0,0-1.3.782V19h-2.962V9.49Zm21.533,4.825a5.735,5.735,0,0,1-1,3.538,3.2,3.2,0,0,1-2.694,1.323,2.742,2.742,0,0,1-2.153-.958v4.438h-2.962V9.49h2.769l.088.879a2.742,2.742,0,0,1,2.241-1.055,3.224,3.224,0,0,1,2.733,1.3,5.805,5.805,0,0,1,.976,3.564Zm-2.962-.185q0-2.531-1.477-2.531a1.394,1.394,0,0,0-1.406.756V16.1a1.439,1.439,0,0,0,1.424.791q1.415,0,1.459-2.443ZM130.878,19h-2.971V5.5h2.971Zm6.425.176a4.889,4.889,0,0,1-3.542-1.305,4.507,4.507,0,0,1-1.354-3.4v-.246a5.84,5.84,0,0,1,.541-2.575,3.955,3.955,0,0,1,1.578-1.727,4.763,4.763,0,0,1,2.461-.611,4.117,4.117,0,0,1,3.164,1.244,4.887,4.887,0,0,1,1.16,3.467v1.151h-5.889a2.135,2.135,0,0,0,.694,1.257,2.066,2.066,0,0,0,1.389.457,2.662,2.662,0,0,0,2.2-.984l1.354,1.6a3.784,3.784,0,0,1-1.569,1.217A5.3,5.3,0,0,1,137.3,19.176Zm-.334-7.576q-1.3,0-1.547,1.723h2.988v-.229a1.467,1.467,0,0,0-.36-1.1A1.434,1.434,0,0,0,136.969,11.6ZM145.3,9.49l.1,1.116a3.27,3.27,0,0,1,2.716-1.292,2.407,2.407,0,0,1,2.435,1.433,3.165,3.165,0,0,1,2.795-1.433q2.892,0,2.971,3.5V19h-2.971V13a1.813,1.813,0,0,0-.246-1.063,1.048,1.048,0,0,0-.9-.334,1.4,1.4,0,0,0-1.31.782l.009.123V19h-2.971V13.015a1.906,1.906,0,0,0-.237-1.081,1.045,1.045,0,0,0-.905-.334,1.42,1.42,0,0,0-1.3.782V19h-2.962V9.49Zm17.306,9.686a4.889,4.889,0,0,1-3.542-1.305,4.507,4.507,0,0,1-1.354-3.4v-.246a5.84,5.84,0,0,1,.541-2.575,3.955,3.955,0,0,1,1.578-1.727,4.763,4.763,0,0,1,2.461-.611,4.117,4.117,0,0,1,3.164,1.244,4.887,4.887,0,0,1,1.16,3.467v1.151h-5.889a2.135,2.135,0,0,0,.694,1.257,2.066,2.066,0,0,0,1.389.457,2.662,2.662,0,0,0,2.2-.984l1.354,1.6a3.784,3.784,0,0,1-1.569,1.217A5.3,5.3,0,0,1,162.606,19.176Zm-.334-7.576q-1.3,0-1.547,1.723h2.988v-.229a1.467,1.467,0,0,0-.36-1.1A1.434,1.434,0,0,0,162.272,11.6Zm8.253-2.109.1,1.116a3.225,3.225,0,0,1,2.716-1.292,2.713,2.713,0,0,1,2.219.888,4.226,4.226,0,0,1,.76,2.672V19h-2.971V13a1.6,1.6,0,0,0-.29-1.059A1.342,1.342,0,0,0,172,11.6a1.413,1.413,0,0,0-1.292.686V19h-2.962V9.49Zm10.881-2.364V9.49h1.564v2.057h-1.564V15.9a1.111,1.111,0,0,0,.193.747,1.037,1.037,0,0,0,.765.211,4.345,4.345,0,0,0,.738-.053v2.118a5.466,5.466,0,0,1-1.67.255,3.1,3.1,0,0,1-2.259-.721,2.954,2.954,0,0,1-.729-2.188v-4.72h-1.213V9.49h1.213V7.126ZM189.492,19a3.344,3.344,0,0,1-.281-.853,2.754,2.754,0,0,1-2.285,1.028,3.374,3.374,0,0,1-2.285-.813,2.588,2.588,0,0,1-.94-2.043,2.66,2.66,0,0,1,1.143-2.338,5.821,5.821,0,0,1,3.322-.791h.914v-.5q0-1.316-1.134-1.316a.927.927,0,0,0-1.055,1.042h-2.962a2.655,2.655,0,0,1,1.173-2.239,4.931,4.931,0,0,1,2.993-.86,4.323,4.323,0,0,1,2.874.888,3.086,3.086,0,0,1,1.081,2.435v4.21a4.311,4.311,0,0,0,.4,2V19Zm-1.854-1.934a1.652,1.652,0,0,0,.918-.237,1.487,1.487,0,0,0,.523-.536V14.772h-.861q-1.547,0-1.547,1.389a.848.848,0,0,0,.272.655A.986.986,0,0,0,187.638,17.066Zm10.072-.176a1.317,1.317,0,0,0,.967-.338,1.241,1.241,0,0,0,.334-.945h2.777a3.288,3.288,0,0,1-1.121,2.566,4.168,4.168,0,0,1-2.887,1,4.22,4.22,0,0,1-3.27-1.3,5.125,5.125,0,0,1-1.2-3.6v-.123a5.792,5.792,0,0,1,.532-2.544,3.872,3.872,0,0,1,1.534-1.7,4.573,4.573,0,0,1,2.373-.593,4.116,4.116,0,0,1,2.944,1.028,3.647,3.647,0,0,1,1.09,2.786h-2.777A1.626,1.626,0,0,0,198.65,12a1.244,1.244,0,0,0-.967-.4q-1.151,0-1.345,1.468a10.357,10.357,0,0,0-.062,1.283,4.068,4.068,0,0,0,.343,1.986A1.187,1.187,0,0,0,197.71,16.891ZM206.165,19h-2.971V9.49h2.971ZM203.019,7.038A1.322,1.322,0,0,1,203.476,6a1.943,1.943,0,0,1,2.373,0,1.322,1.322,0,0,1,.457,1.037,1.322,1.322,0,0,1-.457,1.037,1.943,1.943,0,0,1-2.373,0A1.322,1.322,0,0,1,203.019,7.038Zm4.6,7.119a5.613,5.613,0,0,1,.554-2.536,3.96,3.96,0,0,1,1.591-1.709,4.791,4.791,0,0,1,2.435-.6,4.373,4.373,0,0,1,3.366,1.323,5.076,5.076,0,0,1,1.23,3.6v.105a4.925,4.925,0,0,1-1.235,3.529,4.384,4.384,0,0,1-3.344,1.305,4.434,4.434,0,0,1-3.261-1.217,4.761,4.761,0,0,1-1.327-3.3Zm2.962.185a3.538,3.538,0,0,0,.413,1.934,1.376,1.376,0,0,0,1.222.615q1.582,0,1.617-2.435v-.3q0-2.558-1.635-2.558-1.485,0-1.608,2.206ZM212.6,5.5h3.129l-2.443,2.76-2.417,0Zm8.218,3.99.1,1.116a3.225,3.225,0,0,1,2.716-1.292,2.713,2.713,0,0,1,2.219.888,4.226,4.226,0,0,1,.76,2.672V19h-2.971V13a1.6,1.6,0,0,0-.29-1.059,1.342,1.342,0,0,0-1.055-.338,1.413,1.413,0,0,0-1.292.686V19h-2.962V9.49Z" transform="translate(-6072 6716)" fill="#fff"/>
        <path id="Trazado_121825" data-name="Trazado 121825" d="M102.5,0A102.5,102.5,0,1,1,0,102.5,102.5,102.5,0,0,1,102.5,0Z" transform="translate(-6057.5 6481.344)" fill="#c7ffdd"/>
        <g id="Grupo_84568" data-name="Grupo 84568" transform="translate(-11445.61 6009.215)">
          <g id="Grupo_84565" data-name="Grupo 84565" transform="translate(5373.61 507.816)">
            <g id="Grupo_84433" data-name="Grupo 84433" transform="translate(37.34 0)">
              <g id="Grupo_84404" data-name="Grupo 84404">
                <rect id="Rectángulo_34535" data-name="Rectángulo 34535" width="149.137" height="142.785" fill="#d5cef8"/>
              </g>
              <g id="Grupo_84410" data-name="Grupo 84410" transform="translate(22.183 37.463)">
                <g id="Grupo_84405" data-name="Grupo 84405" transform="translate(5.678)">
                  <ellipse id="Elipse_5397" data-name="Elipse 5397" cx="3.359" cy="3.273" rx="3.359" ry="3.273" fill="#f3f1ff"/>
                </g>
                <g id="Grupo_84406" data-name="Grupo 84406" transform="translate(5.678 30.864)">
                  <ellipse id="Elipse_5398" data-name="Elipse 5398" cx="3.359" cy="3.273" rx="3.359" ry="3.273" fill="#f3f1ff"/>
                </g>
                <g id="Grupo_84407" data-name="Grupo 84407" transform="translate(5.678 51.908)">
                  <ellipse id="Elipse_5399" data-name="Elipse 5399" cx="3.359" cy="3.273" rx="3.359" ry="3.273" fill="#f3f1ff"/>
                </g>
                <g id="Grupo_84408" data-name="Grupo 84408" transform="translate(0 3.029)">
                  <path id="Trazado_121892" data-name="Trazado 121892" d="M5669.346,755.045h-9.41V702.6h9.41v.9h-8.505V754.14h8.505Z" transform="translate(-5659.936 -702.596)" fill="#f3f1ff"/>
                </g>
                <g id="Grupo_84409" data-name="Grupo 84409" transform="translate(0.666 33.789)">
                  <rect id="Rectángulo_34536" data-name="Rectángulo 34536" width="8.371" height="0.905" fill="#f3f1ff"/>
                </g>
              </g>
              <g id="Grupo_84411" data-name="Grupo 84411">
                <rect id="Rectángulo_34537" data-name="Rectángulo 34537" width="149.137" height="9.353" fill="#40327b"/>
              </g>
              <g id="Grupo_84412" data-name="Grupo 84412" transform="translate(39.484 36.58)">
                <rect id="Rectángulo_34538" data-name="Rectángulo 34538" width="26.447" height="7.274" fill="#2ff980"/>
              </g>
              <g id="Grupo_84413" data-name="Grupo 84413" transform="translate(90.885 36.58)">
                <rect id="Rectángulo_34539" data-name="Rectángulo 34539" width="32.419" height="7.274" fill="#583ae2"/>
              </g>
              <g id="Grupo_84414" data-name="Grupo 84414" transform="translate(70.196 36.58)">
                <rect id="Rectángulo_34540" data-name="Rectángulo 34540" width="15.996" height="7.274" fill="#583ae2"/>
              </g>
              <g id="Grupo_84415" data-name="Grupo 84415" transform="translate(39.484 67.756)">
                <rect id="Rectángulo_34541" data-name="Rectángulo 34541" width="26.447" height="7.274" fill="#583ae2"/>
              </g>
              <g id="Grupo_84416" data-name="Grupo 84416" transform="translate(90.885 67.756)">
                <rect id="Rectángulo_34542" data-name="Rectángulo 34542" width="32.419" height="7.274" fill="#2ff980"/>
              </g>
              <g id="Grupo_84417" data-name="Grupo 84417" transform="translate(70.196 67.756)">
                <rect id="Rectángulo_34543" data-name="Rectángulo 34543" width="15.996" height="7.274" fill="#583ae2"/>
              </g>
              <g id="Grupo_84418" data-name="Grupo 84418" transform="translate(39.484 88.955)">
                <rect id="Rectángulo_34544" data-name="Rectángulo 34544" width="18.235" height="7.274" fill="#583ae2"/>
              </g>
              <g id="Grupo_84419" data-name="Grupo 84419" transform="translate(73.716 88.955)">
                <rect id="Rectángulo_34545" data-name="Rectángulo 34545" width="37.324" height="7.274" fill="#583ae2"/>
              </g>
              <g id="Grupo_84420" data-name="Grupo 84420" transform="translate(59.852 88.955)">
                <rect id="Rectángulo_34546" data-name="Rectángulo 34546" width="10.131" height="7.274" fill="#583ae2"/>
              </g>
              <g id="Grupo_84421" data-name="Grupo 84421" transform="translate(20.822 105.998)">
                <rect id="Rectángulo_34547" data-name="Rectángulo 34547" width="39.35" height="6.859" fill="#826be9"/>
              </g>
              <g id="Grupo_84422" data-name="Grupo 84422" transform="translate(64.952 105.998)">
                <rect id="Rectángulo_34548" data-name="Rectángulo 34548" width="33.149" height="6.859" fill="#826be9"/>
              </g>
              <g id="Grupo_84423" data-name="Grupo 84423" transform="translate(102.402 105.998)">
                <rect id="Rectángulo_34549" data-name="Rectángulo 34549" width="24.954" height="6.859" fill="#826be9"/>
              </g>
              <g id="Grupo_84424" data-name="Grupo 84424" transform="translate(20.822 118.78)">
                <rect id="Rectángulo_34550" data-name="Rectángulo 34550" width="56.005" height="6.859" fill="#826be9"/>
              </g>
              <g id="Grupo_84425" data-name="Grupo 84425" transform="translate(81.607 118.78)">
                <rect id="Rectángulo_34551" data-name="Rectángulo 34551" width="16.495" height="6.859" fill="#e4d6b1"/>
              </g>
              <g id="Grupo_84426" data-name="Grupo 84426" transform="translate(102.402 118.78)">
                <rect id="Rectángulo_34552" data-name="Rectángulo 34552" width="18.555" height="6.859" fill="#e4d6b1"/>
              </g>
              <g id="Grupo_84427" data-name="Grupo 84427" transform="translate(19.907 18.186)">
                <rect id="Rectángulo_34553" data-name="Rectángulo 34553" width="110.57" height="8.729" fill="#826be9"/>
              </g>
              <g id="Grupo_84428" data-name="Grupo 84428" transform="translate(23.216 19.737)">
                <path id="Trazado_121893" data-name="Trazado 121893" d="M5667.722,608.384l-2.814-2.814,2.814-2.814.64.64-2.174,2.174,2.174,2.174Z" transform="translate(-5664.907 -602.756)" fill="#fff"/>
              </g>
              <g id="Grupo_84432" data-name="Grupo 84432" transform="translate(4.1 1.942)">
                <g id="Grupo_84429" data-name="Grupo 84429" transform="translate(0 0.853)">
                  <circle id="Elipse_5400" data-name="Elipse 5400" cx="2.258" cy="2.258" r="2.258" fill="#2ff980"/>
                </g>
                <g id="Grupo_84430" data-name="Grupo 84430" transform="translate(9.031 0.853)">
                  <circle id="Elipse_5401" data-name="Elipse 5401" cx="2.258" cy="2.258" r="2.258" fill="#583ae2"/>
                </g>
                <g id="Grupo_84431" data-name="Grupo 84431" transform="translate(16.886 0)">
                  <circle id="Elipse_5402" data-name="Elipse 5402" cx="2.258" cy="2.258" r="2.258" transform="translate(0 1.728) rotate(-22.5)" fill="#d5cef8"/>
                </g>
              </g>
            </g>
            <g id="Grupo_84434" data-name="Grupo 84434" transform="translate(155.374 43.749)">
              <path id="Trazado_121894" data-name="Trazado 121894" d="M6148.062,721.126c3.828,2.8,6.433,7,8.183,11.407a112.293,112.293,0,0,1,3.9,13.668c3.021,11.786,7.564,23.471,15.532,32.666a169.2,169.2,0,0,1-47.875,5.972c.254-5.363-.835-10.689-1.92-15.947q-1.461-7.079-2.921-14.159c-1.367-6.628-2.737-13.471-1.422-20.109C6123.843,723.025,6137.229,713.205,6148.062,721.126Z" transform="translate(-6121.01 -718.262)" fill="#433931"/>
            </g>
            <g id="Grupo_84541" data-name="Grupo 84541" transform="translate(97.417 32.174)">
              <g id="Grupo_84540" data-name="Grupo 84540" clip-path="url(#clip-path)">
                <g id="Grupo_84435" data-name="Grupo 84435">
                  <rect id="Rectángulo_34554" data-name="Rectángulo 34554" width="146.232" height="134.983" fill="none"/>
                </g>
                <g id="Grupo_84534" data-name="Grupo 84534" transform="translate(-0.467 10.842)">
                  <g id="Grupo_84436" data-name="Grupo 84436" transform="translate(7.49 86.765)">
                    <path id="Trazado_121895" data-name="Trazado 121895" d="M5921.5,1164.532h0a12.792,12.792,0,0,1-18.3,4.088l-27.19-18.71,10.394-17.8,29.66,14.479A12.793,12.793,0,0,1,5921.5,1164.532Z" transform="translate(-5876.006 -1132.107)" fill="#40327b"/>
                  </g>
                  <g id="Grupo_84437" data-name="Grupo 84437" transform="translate(34.594 51.471)">
                    <path id="Trazado_121896" data-name="Trazado 121896" d="M6006.382,1014s4.32-31.175,13.329-39.982c5.27-5.154,12.594-7.525,17.755-8.6,2-.416,3.667-.641,4.776-.757l.167-.02c.822-.082,1.293-.106,1.293-.106l.28.375,6.42,8.576,18.032-11.158.511.167,8.445.925,16.779,3.04,3.536,63.591,1.156,10.213,2.139,18.847h-74.731l4.918-18.361-.973-9.24-13.375,4.377-.973-3.891Z" transform="translate(-6006.382 -962.327)" fill="#40327b"/>
                  </g>
                  <g id="Grupo_84440" data-name="Grupo 84440" transform="translate(66.361 26.908)">
                    <g id="Grupo_84438" data-name="Grupo 84438" transform="translate(0 4.499)">
                      <path id="Trazado_121897" data-name="Trazado 121897" d="M6186.786,883.961l-3.368-18.15c-6.306,4.04-10.694,15.575-18.059,16.9l.122,4.134-6.29,1.952,13.781,9.493,25.442-11.447Z" transform="translate(-6159.191 -865.811)" fill="#f6a36b"/>
                    </g>
                    <g id="Grupo_84439" data-name="Grupo 84439" transform="translate(3.737)">
                      <path id="Trazado_121898" data-name="Trazado 121898" d="M6196.377,844.171l-19.211,7.782,2.432,13.618c5.836,4.742,14.348-9.047,18.059-16.9Z" transform="translate(-6177.166 -844.171)" fill="#f37d3d"/>
                    </g>
                  </g>
                  <g id="Grupo_84446" data-name="Grupo 84446" transform="translate(53.298 1.005)">
                    <g id="Grupo_84445" data-name="Grupo 84445">
                      <g id="Grupo_84444" data-name="Grupo 84444">
                        <g id="Grupo_84443" data-name="Grupo 84443">
                          <g id="Grupo_84442" data-name="Grupo 84442">
                            <g id="Grupo_84441" data-name="Grupo 84441">
                              <path id="Trazado_121899" data-name="Trazado 121899" d="M6123.128,763.527a52.991,52.991,0,0,0,10.116-12.415c4.274-7.736,5.326-16.979-3.105-26.759,0,0-4.912-5.852-15.691-4.61-8.49.968-16.088,7.482-17.75,13.787a8.626,8.626,0,0,0,.039,4.928c2.631,8.051,1.2,17.887,7.028,24.692C6109.369,769.692,6117.077,769.252,6123.128,763.527Z" transform="translate(-6096.358 -719.569)" fill="#f6a36b"/>
                            </g>
                          </g>
                        </g>
                      </g>
                    </g>
                  </g>
                  <g id="Grupo_84452" data-name="Grupo 84452" transform="translate(53.638)">
                    <g id="Grupo_84451" data-name="Grupo 84451">
                      <g id="Grupo_84450" data-name="Grupo 84450">
                        <g id="Grupo_84449" data-name="Grupo 84449">
                          <g id="Grupo_84448" data-name="Grupo 84448">
                            <g id="Grupo_84447" data-name="Grupo 84447">
                              <path id="Trazado_121900" data-name="Trazado 121900" d="M6097.992,729.7a34.649,34.649,0,0,0,19.864-4.509,4.185,4.185,0,0,1,5.893,1.762l2.482,5.185a6.9,6.9,0,0,0,7.444,3.765l1.372,11.178c4.4-7.786,5.533-17.061-2.977-26.811a25.224,25.224,0,0,0-18.5-5.362C6104.931,715.937,6099.726,723.368,6097.992,729.7Z" transform="translate(-6097.992 -714.736)" fill="#433931"/>
                            </g>
                          </g>
                        </g>
                      </g>
                    </g>
                  </g>
                  <g id="Grupo_84458" data-name="Grupo 84458" transform="translate(59.697 28.413)">
                    <g id="Grupo_84457" data-name="Grupo 84457">
                      <g id="Grupo_84456" data-name="Grupo 84456">
                        <g id="Grupo_84455" data-name="Grupo 84455">
                          <g id="Grupo_84454" data-name="Grupo 84454">
                            <g id="Grupo_84453" data-name="Grupo 84453">
                              <path id="Trazado_121901" data-name="Trazado 121901" d="M6130.693,859.682a.556.556,0,0,1-.6-.03l-2.726-1.938a.555.555,0,0,1-.225-.553l.972-5.294a.555.555,0,0,1,1.092.2l-.909,4.946,2.438,1.732a.556.556,0,0,1-.045.935Z" transform="translate(-6127.136 -851.414)" fill="#323232"/>
                            </g>
                          </g>
                        </g>
                      </g>
                    </g>
                  </g>
                  <g id="Grupo_84464" data-name="Grupo 84464" transform="translate(66.449 28.223)">
                    <g id="Grupo_84463" data-name="Grupo 84463">
                      <g id="Grupo_84462" data-name="Grupo 84462">
                        <g id="Grupo_84461" data-name="Grupo 84461">
                          <g id="Grupo_84460" data-name="Grupo 84460">
                            <g id="Grupo_84459" data-name="Grupo 84459">
                              <path id="Trazado_121902" data-name="Trazado 121902" d="M6159.635,852.066c.1.8.6,1.39,1.1,1.325s.835-.764.732-1.561-.6-1.39-1.1-1.325S6159.532,851.27,6159.635,852.066Z" transform="translate(-6159.616 -850.5)" fill="#323232"/>
                            </g>
                          </g>
                        </g>
                      </g>
                    </g>
                  </g>
                  <g id="Grupo_84470" data-name="Grupo 84470" transform="translate(56.627 30.638)">
                    <g id="Grupo_84469" data-name="Grupo 84469">
                      <g id="Grupo_84468" data-name="Grupo 84468">
                        <g id="Grupo_84467" data-name="Grupo 84467">
                          <g id="Grupo_84466" data-name="Grupo 84466">
                            <g id="Grupo_84465" data-name="Grupo 84465">
                              <path id="Trazado_121903" data-name="Trazado 121903" d="M6112.39,863.681c.1.8.6,1.39,1.1,1.325s.835-.764.732-1.561-.6-1.39-1.1-1.325S6112.287,862.884,6112.39,863.681Z" transform="translate(-6112.371 -862.115)" fill="#323232"/>
                            </g>
                          </g>
                        </g>
                      </g>
                    </g>
                  </g>
                  <g id="Grupo_84476" data-name="Grupo 84476" transform="translate(54.949 25.977)">
                    <g id="Grupo_84475" data-name="Grupo 84475">
                      <g id="Grupo_84474" data-name="Grupo 84474">
                        <g id="Grupo_84473" data-name="Grupo 84473">
                          <g id="Grupo_84472" data-name="Grupo 84472">
                            <g id="Grupo_84471" data-name="Grupo 84471">
                              <path id="Trazado_121904" data-name="Trazado 121904" d="M6104.3,841.168c.048.283.918-.213,2.077-.411s2.168-.022,2.12-.3a2.411,2.411,0,0,0-2.294-.72C6105.042,839.931,6104.25,840.885,6104.3,841.168Z" transform="translate(-6104.297 -839.695)" fill="#323232"/>
                            </g>
                          </g>
                        </g>
                      </g>
                    </g>
                  </g>
                  <g id="Grupo_84482" data-name="Grupo 84482" transform="translate(64.485 23.795)">
                    <g id="Grupo_84481" data-name="Grupo 84481">
                      <g id="Grupo_84480" data-name="Grupo 84480">
                        <g id="Grupo_84479" data-name="Grupo 84479">
                          <g id="Grupo_84478" data-name="Grupo 84478">
                            <g id="Grupo_84477" data-name="Grupo 84477">
                              <path id="Trazado_121905" data-name="Trazado 121905" d="M6150.173,830.671c.049.283.919-.213,2.077-.411s2.168-.022,2.12-.305a2.413,2.413,0,0,0-2.295-.72C6150.916,829.433,6150.125,830.388,6150.173,830.671Z" transform="translate(-6150.171 -829.198)" fill="#323232"/>
                            </g>
                          </g>
                        </g>
                      </g>
                    </g>
                  </g>
                  <g id="Grupo_84483" data-name="Grupo 84483" transform="translate(63.027 35.452)">
                    <path id="Trazado_121906" data-name="Trazado 121906" d="M6143.154,889.893l9.54-4.621s2.763,5.5-1.258,7.827C6144.5,897.114,6143.154,889.893,6143.154,889.893Z" transform="translate(-6143.154 -885.272)" fill="#f15f62"/>
                  </g>
                  <g id="Grupo_84490" data-name="Grupo 84490" transform="translate(81.586 15.619)">
                    <g id="Grupo_84489" data-name="Grupo 84489" transform="translate(0 0)">
                      <g id="Grupo_84488" data-name="Grupo 84488">
                        <g id="Grupo_84487" data-name="Grupo 84487">
                          <g id="Grupo_84486" data-name="Grupo 84486">
                            <g id="Grupo_84485" data-name="Grupo 84485">
                              <g id="Grupo_84484" data-name="Grupo 84484">
                                <ellipse id="Elipse_5403" data-name="Elipse 5403" cx="4.674" cy="6.41" rx="4.674" ry="6.41" transform="translate(0 3.444) rotate(-21.615)" fill="#f6a36b"/>
                              </g>
                            </g>
                          </g>
                        </g>
                      </g>
                    </g>
                  </g>
                  <g id="Grupo_84497" data-name="Grupo 84497" transform="translate(87.046 19.052)">
                    <g id="Grupo_84496" data-name="Grupo 84496">
                      <g id="Grupo_84495" data-name="Grupo 84495">
                        <g id="Grupo_84494" data-name="Grupo 84494">
                          <g id="Grupo_84493" data-name="Grupo 84493">
                            <g id="Grupo_84492" data-name="Grupo 84492">
                              <g id="Grupo_84491" data-name="Grupo 84491">
                                <path id="Trazado_121907" data-name="Trazado 121907" d="M6259.311,812.923l.644-.356a4.657,4.657,0,0,1,1.025-5.626l-.478-.559A5.416,5.416,0,0,0,6259.311,812.923Z" transform="translate(-6258.693 -806.383)" fill="#323232"/>
                              </g>
                            </g>
                          </g>
                        </g>
                      </g>
                    </g>
                  </g>
                  <g id="Grupo_84504" data-name="Grupo 84504" transform="translate(87.201 22.232)">
                    <g id="Grupo_84503" data-name="Grupo 84503">
                      <g id="Grupo_84502" data-name="Grupo 84502">
                        <g id="Grupo_84501" data-name="Grupo 84501">
                          <g id="Grupo_84500" data-name="Grupo 84500">
                            <g id="Grupo_84499" data-name="Grupo 84499">
                              <g id="Grupo_84498" data-name="Grupo 84498">
                                <path id="Trazado_121908" data-name="Trazado 121908" d="M6263.073,822.8a3.937,3.937,0,0,0,.952-.538l-.449-.582a3.438,3.438,0,0,1-3.761.234l-.374.634A4.2,4.2,0,0,0,6263.073,822.8Z" transform="translate(-6259.441 -821.682)" fill="#323232"/>
                              </g>
                            </g>
                          </g>
                        </g>
                      </g>
                    </g>
                  </g>
                  <g id="Grupo_84505" data-name="Grupo 84505" transform="translate(52.115 76.887)">
                    <path id="Trazado_121909" data-name="Trazado 121909" d="M6097.461,1130.023a.452.452,0,0,1-.447-.389l-6.343-44.528a.453.453,0,0,1,.9-.128l6.343,44.528a.453.453,0,0,1-.385.512A.518.518,0,0,1,6097.461,1130.023Z" transform="translate(-6090.667 -1084.59)" fill="#ab9df1"/>
                  </g>
                  <g id="Grupo_84506" data-name="Grupo 84506" transform="translate(102.801 55.058)">
                    <path id="Trazado_121910" data-name="Trazado 121910" d="M6346.881,979.964h0a15.828,15.828,0,0,0-12.021,18.882l17.335,65.3,7.163-2.316a18.333,18.333,0,0,0,12.557-19.675l-6.152-50.169A15.828,15.828,0,0,0,6346.881,979.964Z" transform="translate(-6334.48 -979.585)" fill="#40327b"/>
                  </g>
                  <g id="Grupo_84531" data-name="Grupo 84531" transform="translate(0 67.754)">
                    <g id="Grupo_84508" data-name="Grupo 84508" transform="translate(59.296 18.331)">
                      <g id="Grupo_84507" data-name="Grupo 84507">
                        <path id="Trazado_121911" data-name="Trazado 121911" d="M6136.006,1147.177l-6.5-7.554-4.072-7.854a2.012,2.012,0,0,1,.238-2.211h0a2.012,2.012,0,0,1,3.02-.089l3.49,3.738,4.573-1.055Z" transform="translate(-6125.207 -1128.83)" fill="#f37d3d"/>
                      </g>
                    </g>
                    <g id="Grupo_84509" data-name="Grupo 84509" transform="translate(5.459)">
                      <path id="Trazado_121912" data-name="Trazado 121912" d="M5926.837,1079.447l-49.429.023a2.088,2.088,0,0,1-2.021-1.558L5866.3,1043.3a2.088,2.088,0,0,1,2.019-2.618l49.429-.023a2.088,2.088,0,0,1,2.021,1.558l9.086,34.617A2.088,2.088,0,0,1,5926.837,1079.447Z" transform="translate(-5866.232 -1040.654)" fill="#583ae2"/>
                    </g>
                    <g id="Grupo_84526" data-name="Grupo 84526" transform="translate(0 10.088)">
                      <g id="Grupo_84510" data-name="Grupo 84510">
                        <path id="Trazado_121913" data-name="Trazado 121913" d="M5846.013,1114.443l-6.04-9.495c.059-2.446,3.349-11.857,5.758-12.238l19.709-3.5a2.426,2.426,0,0,1,2.595,3.388c-.03.067-.065.136-.1.2a2.06,2.06,0,0,1-.172.264c-.02.03-.042.054-.065.082a.111.111,0,0,1-.029.03.8.8,0,0,1-.1.117,2.241,2.241,0,0,1-.254.228,2.38,2.38,0,0,1-1.074.477c-.537.094-1.034.191-1.318.275s-.6.169-.935.246l-3.157,6.46-2.045,4.178-.35.72-3.75,7.669-2.181,1.864A4.346,4.346,0,0,1,5846.013,1114.443Z" transform="translate(-5839.974 -1089.181)" fill="#f6a36b"/>
                      </g>
                      <g id="Grupo_84514" data-name="Grupo 84514" transform="translate(5.156 3.938)">
                        <g id="Grupo_84513" data-name="Grupo 84513">
                          <g id="Grupo_84512" data-name="Grupo 84512">
                            <g id="Grupo_84511" data-name="Grupo 84511">
                              <path id="Trazado_121914" data-name="Trazado 121914" d="M5889.659,1113.025a2.645,2.645,0,0,1-.3.626.1.1,0,0,1-.037.052,2.793,2.793,0,0,1-1.791,1.2c-1.41.289-3.117.533-4.916.766-.561.072-1.294.181-2.135.314-3.948.616-10.246,1.756-12.3,2.184a2.825,2.825,0,0,1-1.5-.1,2.855,2.855,0,0,1-1.806-1.957,3.821,3.821,0,0,1-.078-.407,2.832,2.832,0,0,1,1.915-3.009c1.8-.608,3.905-1.178,5.156-1.578.292-.093.574-.179.835-.255,2.341-.664,8.978-1.859,11.668-2.226a12.371,12.371,0,0,0,1.663-.418,2.716,2.716,0,0,1,1.285-.04,2.555,2.555,0,0,1,.37.1,1.833,1.833,0,0,1,.236.1,2.834,2.834,0,0,1,1.618,2.066l.217,1.159A2.793,2.793,0,0,1,5889.659,1113.025Z" transform="translate(-5864.775 -1108.126)" fill="#f6a36b"/>
                            </g>
                          </g>
                        </g>
                      </g>
                      <g id="Grupo_84518" data-name="Grupo 84518" transform="translate(6.275 9.136)">
                        <g id="Grupo_84517" data-name="Grupo 84517">
                          <g id="Grupo_84516" data-name="Grupo 84516">
                            <g id="Grupo_84515" data-name="Grupo 84515">
                              <path id="Trazado_121915" data-name="Trazado 121915" d="M5893.381,1138.335l0,0a.618.618,0,0,1-.065.029l-2.017.786,0,0-.206.082-.205.082-.005,0-.715.277-1.647.643-2.98,1.161-3.36,1.307c-1.381.651-9.851,2.1-9.851,2.1s-.042-.053-.113-.168a9.5,9.5,0,0,1-.623-1.135,18.664,18.664,0,0,1-1.406-4.4c-.1-.515.207-.917.764-1.234,1.567-.906,5.076-1.18,6.6-1.614.051-.013.1-.028.145-.043,1.64-.53,8.182-2.064,9.55-2.34,1.025-.211,2.088-.382,3.379-.555.388-.052.884-.116,1.388-.178a2.686,2.686,0,0,1,1.614.307l.068.039a2.674,2.674,0,0,1,1.2,1.451,2.571,2.571,0,0,1,.134.581A2.7,2.7,0,0,1,5893.381,1138.335Z" transform="translate(-5870.158 -1133.129)" fill="#f6a36b"/>
                            </g>
                          </g>
                        </g>
                      </g>
                      <g id="Grupo_84522" data-name="Grupo 84522" transform="translate(5.105 15.278)">
                        <g id="Grupo_84521" data-name="Grupo 84521">
                          <g id="Grupo_84520" data-name="Grupo 84520">
                            <g id="Grupo_84519" data-name="Grupo 84519">
                              <path id="Trazado_121916" data-name="Trazado 121916" d="M5885.2,1166.785c-.489.178-.934.343-1.147.454-2.455,1.243-9.944,3.619-12.4,4.861-.274.143-.548.279-.823.417a3.929,3.929,0,0,1-1.79.356,6.2,6.2,0,0,1-1.023-.088c-2.406-.418-4.72-2.186-2.734-4.7,0,0,.006-.006.009-.013a6.961,6.961,0,0,1,2.685-1.3c1.368-.452,3.036-.894,4.537-1.271,1.72-.431,3.215-.782,3.783-.969.427-.14.852-.276,1.28-.4.239-.074.475-.141.71-.208q1.014-.3,2.043-.527a28.772,28.772,0,0,1,3-.526c.075-.01.147-.022.229-.038h0c.083-.019.17-.041.259-.066a2.5,2.5,0,0,1,1.191-.037h0a2.046,2.046,0,0,1,.409.123,2.2,2.2,0,0,1,.341.172,2.157,2.157,0,0,1,.411.329,1.909,1.909,0,0,1,.453.742,1.771,1.771,0,0,1,.089.395A2.226,2.226,0,0,1,5885.2,1166.785Z" transform="translate(-5864.53 -1162.672)" fill="#f6a36b"/>
                            </g>
                          </g>
                        </g>
                      </g>
                      <g id="Grupo_84523" data-name="Grupo 84523" transform="translate(9.625 3.552)">
                        <path id="Trazado_121917" data-name="Trazado 121917" d="M5886.727,1111.078a.452.452,0,0,1-.1-.893l16.856-3.907a.453.453,0,0,1,.2.882l-16.857,3.907A.449.449,0,0,1,5886.727,1111.078Z" transform="translate(-5886.274 -1106.266)" fill="#323232"/>
                      </g>
                      <g id="Grupo_84524" data-name="Grupo 84524" transform="translate(10.731 8.384)">
                        <path id="Trazado_121918" data-name="Trazado 121918" d="M5892.045,1134.324a.452.452,0,0,1-.1-.893l16.856-3.907a.453.453,0,0,1,.2.882l-16.856,3.907A.456.456,0,0,1,5892.045,1134.324Z" transform="translate(-5891.593 -1129.512)" fill="#323232"/>
                      </g>
                      <g id="Grupo_84525" data-name="Grupo 84525" transform="translate(12.649 15.079)">
                        <path id="Trazado_121919" data-name="Trazado 121919" d="M5901.273,1166.184a.453.453,0,0,1-.13-.886l11.865-3.563a.452.452,0,1,1,.26.866l-11.865,3.563A.458.458,0,0,1,5901.273,1166.184Z" transform="translate(-5900.821 -1161.716)" fill="#323232"/>
                      </g>
                    </g>
                    <g id="Grupo_84529" data-name="Grupo 84529" transform="translate(50.355 5.556)">
                      <g id="Grupo_84527" data-name="Grupo 84527">
                        <path id="Trazado_121920" data-name="Trazado 121920" d="M6084.669,1072.3a2.461,2.461,0,1,1,1.156-.29A2.465,2.465,0,0,1,6084.669,1072.3Zm-.006-4.02a1.561,1.561,0,1,0,.454.068A1.567,1.567,0,0,0,6084.663,1068.284Z" transform="translate(-6082.202 -1067.378)" fill="#d5cef8"/>
                      </g>
                      <g id="Grupo_84528" data-name="Grupo 84528" transform="translate(1.423 5.674)">
                        <path id="Trazado_121921" data-name="Trazado 121921" d="M6091.516,1099.6a2.462,2.462,0,1,1,2.167-3.622h0a2.461,2.461,0,0,1-2.167,3.622Zm-.006-4.02a1.561,1.561,0,1,0,.454.068A1.565,1.565,0,0,0,6091.51,1095.577Z" transform="translate(-6089.048 -1094.671)" fill="#d5cef8"/>
                      </g>
                    </g>
                    <g id="Grupo_84530" data-name="Grupo 84530" transform="translate(6.888 1.47)">
                      <path id="Trazado_121922" data-name="Trazado 121922" d="M5932.013,1083.238a.452.452,0,0,1-.437-.338l-8.421-32.073a2.706,2.706,0,0,0-2.6-2.016l-46.992-.183a.452.452,0,0,1,0-.9h0l46.992.183a3.611,3.611,0,0,1,3.474,2.691l8.422,32.074a.454.454,0,0,1-.438.568Z" transform="translate(-5873.109 -1047.723)" fill="#d5cef8"/>
                    </g>
                  </g>
                  <g id="Grupo_84532" data-name="Grupo 84532" transform="translate(58.557 6.697)">
                    <path id="Trazado_121923" data-name="Trazado 121923" d="M6121.652,753.028s11.18,8.074,21.118,9.472l4.037,4.813.776-13.2S6134.229,738.743,6121.652,753.028Z" transform="translate(-6121.652 -746.949)" fill="#433931"/>
                  </g>
                  <g id="Grupo_84533" data-name="Grupo 84533" transform="translate(50.366 7.947)">
                    <path id="Trazado_121924" data-name="Trazado 121924" d="M6096.694,754.027s-1.048,13.974-14.441,10.6C6082.253,764.625,6083.068,748.787,6096.694,754.027Z" transform="translate(-6082.253 -752.964)" fill="#433931"/>
                  </g>
                </g>
                <g id="Grupo_84535" data-name="Grupo 84535" transform="translate(53.542 83.802)">
                  <path id="Trazado_121925" data-name="Trazado 121925" d="M6133.123,1100.655l-8.824-3.425-8.01-.019-5.481-14.29-7.31-2.541a2.249,2.249,0,0,1-1.469-1.692h0a2.249,2.249,0,0,1,2.515-2.658l1.809.25-5.936-4.5a1.623,1.623,0,0,1-.593-1.694l.253-.99a1.623,1.623,0,0,1,2.314-1.042h0l.269-.907a2.021,2.021,0,0,1,2.774-1.266l12.742,5.8,9,15.978,10.988,3.1Z" transform="translate(-6099.773 -1065.7)" fill="#f6a36b"/>
                </g>
                <g id="Grupo_84536" data-name="Grupo 84536" transform="translate(76.054 102.208)">
                  <path id="Trazado_121926" data-name="Trazado 121926" d="M6218.625,1154.238l-10.558,13.974,44.252,30.588,17.39-32.452Z" transform="translate(-6208.067 -1154.238)" fill="#40327b"/>
                </g>
                <g id="Grupo_84537" data-name="Grupo 84537" transform="translate(84.763 104.085)">
                  <path id="Trazado_121927" data-name="Trazado 121927" d="M6289.849,1176.126a.453.453,0,0,1-.132-.02l-39.438-11.956a.452.452,0,0,1,.262-.866l39.439,11.956a.453.453,0,0,1-.131.886Z" transform="translate(-6249.957 -1163.265)" fill="#ab9df1"/>
                </g>
                <g id="Grupo_84538" data-name="Grupo 84538" transform="translate(112.091 97.253)">
                  <path id="Trazado_121928" data-name="Trazado 121928" d="M6384.2,1146.834a.452.452,0,0,1-.447-.385l-2.329-15.527a.453.453,0,0,1,.9-.134l2.329,15.527a.453.453,0,0,1-.448.52Z" transform="translate(-6381.414 -1130.401)" fill="#ab9df1"/>
                </g>
                <g id="Grupo_84539" data-name="Grupo 84539" transform="translate(76.408 117.195)">
                  <path id="Trazado_121929" data-name="Trazado 121929" d="M6252.578,1254.186a.453.453,0,0,1-.243-.071l-42.359-26.949a.453.453,0,0,1,.486-.764l42.36,26.949a.452.452,0,0,1-.244.834Z" transform="translate(-6209.766 -1226.331)" fill="#ab9df1"/>
                </g>
              </g>
            </g>
            <g id="Grupo_84551" data-name="Grupo 84551" transform="translate(213.227 25.158)">
              <g id="Grupo_84544" data-name="Grupo 84544">
                <g id="Grupo_84543" data-name="Grupo 84543">
                  <g id="Grupo_84542" data-name="Grupo 84542">
                    <path id="Trazado_121930" data-name="Trazado 121930" d="M6399.3,638.449l8.408-9.612,8.408,9.612-3.085,2.7-5.323-6.085-5.322,6.085Z" transform="translate(-6399.305 -628.837)" fill="#45bbcc"/>
                  </g>
                </g>
              </g>
              <g id="Grupo_84547" data-name="Grupo 84547" transform="translate(0 19.842)">
                <g id="Grupo_84546" data-name="Grupo 84546">
                  <g id="Grupo_84545" data-name="Grupo 84545">
                    <path id="Trazado_121931" data-name="Trazado 121931" d="M6399.3,733.9l8.408-9.612,8.408,9.612-3.085,2.7-5.323-6.085-5.322,6.085Z" transform="translate(-6399.305 -724.286)" fill="#40327b"/>
                  </g>
                </g>
              </g>
              <g id="Grupo_84550" data-name="Grupo 84550" transform="translate(0 39.685)">
                <g id="Grupo_84549" data-name="Grupo 84549">
                  <g id="Grupo_84548" data-name="Grupo 84548">
                    <path id="Trazado_121932" data-name="Trazado 121932" d="M6399.3,829.348l8.408-9.612,8.408,9.612-3.085,2.7-5.323-6.085-5.322,6.085Z" transform="translate(-6399.305 -819.736)" fill="#2ff980"/>
                  </g>
                </g>
              </g>
            </g>
            <g id="Grupo_84564" data-name="Grupo 84564" transform="translate(0 105.794)">
              <g id="Grupo_84552" data-name="Grupo 84552" transform="translate(41.461 36.063)">
                <rect id="Rectángulo_34556" data-name="Rectángulo 34556" width="51.955" height="41.768" fill="#40327b"/>
              </g>
              <g id="Grupo_84553" data-name="Grupo 84553">
                <rect id="Rectángulo_34557" data-name="Rectángulo 34557" width="51.955" height="41.768" fill="#826be9"/>
              </g>
              <g id="Grupo_84554" data-name="Grupo 84554" transform="translate(15.897 11.073)">
                <rect id="Rectángulo_34558" data-name="Rectángulo 34558" width="24.304" height="17.259" fill="#ab9df1"/>
              </g>
              <g id="Grupo_84555" data-name="Grupo 84555" transform="translate(13.784 12.834)">
                <rect id="Rectángulo_34559" data-name="Rectángulo 34559" width="24.304" height="17.259" fill="#d5cef8"/>
              </g>
              <g id="Grupo_84557" data-name="Grupo 84557" transform="translate(11.423 13.946)">
                <g id="Grupo_84556" data-name="Grupo 84556">
                  <path id="Trazado_121933" data-name="Trazado 121933" d="M5441.025,1087.8l-1.817-2.282a4.527,4.527,0,0,0-3.542-1.707h-5.073a2.034,2.034,0,0,0-2.034,2.033v14.815a1.94,1.94,0,0,0,1.94,1.94h22.255a1.94,1.94,0,0,0,1.94-1.94v-10.919a1.94,1.94,0,0,0-1.94-1.94Z" transform="translate(-5428.56 -1083.807)" fill="#2ff980"/>
                </g>
              </g>
              <g id="Grupo_84562" data-name="Grupo 84562" transform="translate(53.05 46.116)">
                <g id="Grupo_84558" data-name="Grupo 84558" transform="translate(4.474)">
                  <rect id="Rectángulo_34560" data-name="Rectángulo 34560" width="24.304" height="17.259" fill="#ab9df1"/>
                </g>
                <g id="Grupo_84559" data-name="Grupo 84559" transform="translate(2.361 1.761)">
                  <rect id="Rectángulo_34561" data-name="Rectángulo 34561" width="24.304" height="17.259" fill="#d5cef8"/>
                </g>
                <g id="Grupo_84561" data-name="Grupo 84561" transform="translate(0 2.873)">
                  <g id="Grupo_84560" data-name="Grupo 84560">
                    <path id="Trazado_121934" data-name="Trazado 121934" d="M5641.262,1256.363l-1.817-2.282a4.526,4.526,0,0,0-3.541-1.707h-5.073a2.033,2.033,0,0,0-2.034,2.034v14.815a1.94,1.94,0,0,0,1.94,1.94h22.255a1.941,1.941,0,0,0,1.94-1.94V1258.3a1.941,1.941,0,0,0-1.94-1.94Z" transform="translate(-5628.798 -1252.374)" fill="#583ae2"/>
                  </g>
                </g>
              </g>
              <g id="Grupo_84563" data-name="Grupo 84563" transform="translate(26.462 37.245)">
                <path id="Trazado_121935" data-name="Trazado 121935" d="M5520.842,1216.277a19.962,19.962,0,0,1-19.94-19.939.453.453,0,1,1,.905,0,19.056,19.056,0,0,0,19.035,19.034.452.452,0,0,1,0,.9Z" transform="translate(-5500.902 -1195.886)" fill="#2ff980"/>
              </g>
            </g>
          </g>
          <g id="Grupo_84566" data-name="Grupo 84566" transform="translate(5531.136 634.235)">
            <path id="Trazado_121936" data-name="Trazado 121936" d="M6138.114,1119.629a.449.449,0,0,1-.183-.039l-6.3-2.791a.452.452,0,0,1,.367-.827l6.3,2.791a.452.452,0,0,1-.183.866Z" transform="translate(-6131.361 -1115.932)" fill="#323232"/>
          </g>
          <g id="Grupo_84567" data-name="Grupo 84567" transform="translate(5528.201 626.043)">
            <path id="Trazado_121937" data-name="Trazado 121937" d="M6129.351,1083.739a.45.45,0,0,1-.214-.054l-11.654-6.306a.452.452,0,1,1,.43-.8l11.654,6.306a.452.452,0,0,1-.216.85Z" transform="translate(-6117.245 -1076.528)" fill="#323232"/>
          </g>
        </g>
      </g>
    </g>
  </g>
</svg>
