<svg xmlns="http://www.w3.org/2000/svg" width="295" height="191.32" viewBox="0 0 295 191.32">
  <g id="Grupo_80619" data-name="Grupo 80619" transform="translate(-2055.108 -301.627)">
    <path id="Trazado_114041" data-name="Trazado 114041" d="M2364,825.224c0,8.862-62.386,12.554-140.63,12.554s-143.789-4.8-143.789-13.662,66.467-13.567,144.711-13.567S2364,816.362,2364,825.224Z" transform="translate(-16.357 -344.83)" fill="#ab9df1"/>
    <g id="Grupo_80585" data-name="Grupo 80585" transform="translate(2055.108 301.627)">
      <g id="Grupo_80584" data-name="Grupo 80584" transform="translate(0 0)">
        <g id="Grupo_80582" data-name="Grupo 80582" transform="translate(0 0.44)">
          <path id="Trazado_114042" data-name="Trazado 114042" d="M2056.578,376.374h0c0-13.807,15.123-25,33.779-25h6.943c-3.284-2.1-5.365-5.209-5.365-8.676h0c0-6.337,6.941-11.473,15.5-11.473h23.375a7.408,7.408,0,0,1-3.8-6.112c0-4.456,4.881-8.067,10.9-8.067h58.727c6.126,0,11.092,3.675,11.092,8.209s-4.966,8.209-11.092,8.209h-22c-4.034,2.037-6.684,5.466-6.684,9.353h0c0,3.419,2.052,6.481,5.291,8.557h36.063c18.656,0,33.78,11.192,33.78,25h0c0,13.807-15.123,25-33.78,25h47.84c8.632,0,15.629,5.178,15.629,11.567s-7,11.567-15.629,11.567h20.508c21.033,0,38.493,11.286,41.958,26.119h6.741c13.115,0,23.746,7.868,23.746,17.574v2.6c0,9.88-10.822,17.889-24.172,17.889h-227.47c-23.946,0-43.359-14.367-43.359-32.089h0c0-17.722,19.413-32.089,43.359-32.089h76.873c-8.632,0-15.629-5.179-15.629-11.567s7-11.567,15.629-11.567h-84.983C2071.7,401.374,2056.578,390.181,2056.578,376.374Z" transform="translate(-2055.108 -317.047)" fill="#d5cef8"/>
        </g>
        <g id="Grupo_80583" data-name="Grupo 80583" transform="translate(184.412)">
          <path id="Trazado_114043" data-name="Trazado 114043" d="M2620.071,333.446a8.862,8.862,0,1,1,8.862-8.862A8.862,8.862,0,0,1,2620.071,333.446Z" transform="translate(-2611.209 -315.721)" fill="#d5cef8"/>
        </g>
      </g>
    </g>
    <g id="Grupo_80596" data-name="Grupo 80596" transform="translate(2136.272 315.431)">
      <g id="Grupo_80586" data-name="Grupo 80586" transform="translate(0 0)">
        <path id="Trazado_114044" data-name="Trazado 114044" d="M2301.4,362l2.812-3.14-.891,3.812Z" transform="translate(-2300.892 -358.357)" fill="#562e8e"/>
        <path id="Trazado_114045" data-name="Trazado 114045" d="M2534.96,412.962l-2.654,2.962-.353-3.883Z" transform="translate(-2454.988 -393.904)" fill="#562e8e"/>
        <rect id="Rectángulo_33917" data-name="Rectángulo 33917" width="78.115" height="19.88" rx="7.113" transform="translate(2.433)" fill="#583ae2"/>
        <path id="Rectángulo_33918" data-name="Rectángulo 33918" d="M7.113,0H71a7.113,7.113,0,0,1,7.113,7.113v5.655A7.112,7.112,0,0,1,71,19.88H7.113A7.113,7.113,0,0,1,0,12.767V7.113A7.113,7.113,0,0,1,7.113,0Z" transform="translate(0 2.733)" fill="#ab9df1"/>
      </g>
      <g id="Grupo_80587" data-name="Grupo 80587" transform="translate(16.857 8.217)">
        <path id="Trazado_114046" data-name="Trazado 114046" d="M2357.946,382.954l-2.3,3.03v.05l3.66-.486V387.2l-3.66-.437v.05l2.327,2.908-1.528.872-1.454-3.393h-.047l-1.577,3.419-1.382-.872,2.3-2.959v-.047l-3.589.46v-1.648l3.565.46v-.048L2351.98,383l1.48-.847,1.5,3.37h.049l1.479-3.4Z" transform="translate(-2350.695 -382.129)" fill="#fff"/>
      </g>
      <g id="Grupo_80588" data-name="Grupo 80588" transform="translate(28.68 8.217)">
        <path id="Trazado_114047" data-name="Trazado 114047" d="M2393.6,382.954l-2.3,3.03v.05l3.66-.486V387.2l-3.66-.437v.05l2.328,2.908-1.528.872-1.455-3.393h-.047l-1.577,3.419-1.382-.872,2.3-2.959v-.047l-3.589.46v-1.648l3.565.46v-.048l-2.28-2.959,1.48-.847,1.5,3.37h.049l1.479-3.4Z" transform="translate(-2386.346 -382.129)" fill="#fff"/>
      </g>
      <g id="Grupo_80589" data-name="Grupo 80589" transform="translate(40.503 8.217)">
        <path id="Trazado_114048" data-name="Trazado 114048" d="M2429.25,382.954l-2.3,3.03v.05l3.659-.486V387.2l-3.659-.437v.05l2.327,2.908-1.528.872-1.455-3.393h-.047l-1.577,3.419-1.382-.872,2.3-2.959v-.047l-3.589.46v-1.648l3.565.46v-.048l-2.28-2.959,1.481-.847,1.5,3.37h.05l1.479-3.4Z" transform="translate(-2421.999 -382.129)" fill="#fff"/>
      </g>
      <g id="Grupo_80590" data-name="Grupo 80590" transform="translate(52.326 8.217)">
        <path id="Trazado_114049" data-name="Trazado 114049" d="M2464.9,382.954l-2.3,3.03v.05l3.66-.486V387.2l-3.66-.437v.05l2.327,2.908-1.527.872-1.455-3.393h-.047l-1.578,3.419-1.382-.872,2.3-2.959v-.047l-3.588.46v-1.648l3.565.46v-.048l-2.28-2.959,1.481-.847,1.5,3.37h.049l1.478-3.4Z" transform="translate(-2457.652 -382.129)" fill="#fff"/>
      </g>
      <g id="Grupo_80591" data-name="Grupo 80591" transform="translate(64.149 8.217)">
        <path id="Trazado_114050" data-name="Trazado 114050" d="M2500.554,382.954l-2.3,3.03v.05l3.66-.486V387.2l-3.66-.437v.05l2.328,2.908-1.528.872L2497.6,387.2h-.047l-1.577,3.419-1.382-.872,2.3-2.959v-.047l-3.589.46v-1.648l3.565.46v-.048l-2.28-2.959,1.481-.847,1.5,3.37h.049l1.479-3.4Z" transform="translate(-2493.304 -382.129)" fill="#fff"/>
      </g>
      <g id="Grupo_80595" data-name="Grupo 80595" transform="translate(4.847 6.708)">
        <g id="Grupo_80594" data-name="Grupo 80594" transform="translate(0.942)">
          <g id="Grupo_80593" data-name="Grupo 80593">
            <g id="Grupo_80592" data-name="Grupo 80592">
              <path id="Trazado_114051" data-name="Trazado 114051" d="M2321.677,383.359l-3.342-.022a.741.741,0,0,1-.7-.776l.013-2.081a2.386,2.386,0,1,1,4.752.03l-.013,2.082A.741.741,0,0,1,2321.677,383.359Zm-3.323-.808,3.313.021.013-2.066a1.664,1.664,0,1,0-3.313-.022Z" transform="translate(-2317.531 -377.79)" fill="#fff"/>
              <path id="Trazado_114052" data-name="Trazado 114052" d="M2321.466,383.252l-3.343-.022a.846.846,0,0,1-.8-.881l.013-2.081a2.49,2.49,0,1,1,4.96.032l-.013,2.082A.845.845,0,0,1,2321.466,383.252Zm-1.636-5.464a2.394,2.394,0,0,0-2.288,2.481l-.013,2.081a.637.637,0,0,0,.6.671l3.342.022a.636.636,0,0,0,.6-.663l.014-2.082A2.4,2.4,0,0,0,2319.83,377.788Zm1.731,4.677-3.522-.023.014-2.17a1.767,1.767,0,1,1,3.522.023Zm-3.312-.231,3.1.02.013-1.961a1.56,1.56,0,1,0-3.105-.02Z" transform="translate(-2317.32 -377.579)" fill="#fff"/>
            </g>
          </g>
        </g>
        <path id="Trazado_114053" data-name="Trazado 114053" d="M2321.292,391.116a.523.523,0,0,0-.554-.489l-5.657-.023a.529.529,0,0,0-.562.484l-.042,4.8a.522.522,0,0,0,.553.489l5.657.023a.529.529,0,0,0,.562-.484Zm-2.953,3.448-.99,0,.181-.936a.717.717,0,0,1-.244-.561.636.636,0,0,1,.577-.676.629.629,0,0,1,.566.681.723.723,0,0,1-.254.559Z" transform="translate(-2314.478 -386.285)" fill="#fff"/>
      </g>
    </g>
    <g id="Grupo_80601" data-name="Grupo 80601" transform="translate(2076.299 384.131)">
      <rect id="Rectángulo_33919" data-name="Rectángulo 33919" width="63.893" height="89.699" rx="2" transform="translate(0)" fill="#40327b"/>
      <rect id="Rectángulo_33920" data-name="Rectángulo 33920" width="36.207" height="1.787" transform="translate(13.843 83.65)" fill="#806db0"/>
      <g id="Grupo_80597" data-name="Grupo 80597" transform="translate(2.056 22.881)">
        <rect id="Rectángulo_33921" data-name="Rectángulo 33921" width="59.781" height="17.612" fill="#2c2a6e"/>
        <rect id="Rectángulo_33922" data-name="Rectángulo 33922" width="56.265" height="14.828" transform="translate(1.758 1.392)" fill="#806db0"/>
        <path id="Trazado_114054" data-name="Trazado 114054" d="M2274.043,651.8a4.051,4.051,0,1,1-4.051-4.1A4.078,4.078,0,0,1,2274.043,651.8Z" transform="translate(-2219.272 -642.993)" fill="#2c2a6e"/>
        <rect id="Rectángulo_33923" data-name="Rectángulo 33923" width="2.149" height="8.142" transform="translate(8.401 4.735)" fill="#2c2a6e"/>
        <rect id="Rectángulo_33924" data-name="Rectángulo 33924" width="2.149" height="8.142" transform="translate(12.503 4.735)" fill="#2c2a6e"/>
        <rect id="Rectángulo_33925" data-name="Rectángulo 33925" width="2.149" height="8.142" transform="translate(16.606 4.735)" fill="#2c2a6e"/>
        <rect id="Rectángulo_33926" data-name="Rectángulo 33926" width="2.149" height="8.142" transform="translate(20.709 4.735)" fill="#2c2a6e"/>
        <rect id="Rectángulo_33927" data-name="Rectángulo 33927" width="2.149" height="8.142" transform="translate(24.811 4.735)" fill="#2c2a6e"/>
        <rect id="Rectángulo_33928" data-name="Rectángulo 33928" width="2.377" height="2.416" transform="translate(30.184 7.598)" fill="#2c2a6e"/>
        <rect id="Rectángulo_33929" data-name="Rectángulo 33929" width="2.377" height="2.416" transform="translate(34.27 7.598)" fill="#2c2a6e"/>
        <rect id="Rectángulo_33930" data-name="Rectángulo 33930" width="2.377" height="2.416" transform="translate(38.357 7.598)" fill="#2c2a6e"/>
      </g>
      <g id="Grupo_80598" data-name="Grupo 80598" transform="translate(2.056 2.95)">
        <rect id="Rectángulo_33931" data-name="Rectángulo 33931" width="59.781" height="17.612" fill="#2c2a6e"/>
        <rect id="Rectángulo_33932" data-name="Rectángulo 33932" width="56.265" height="14.828" transform="translate(1.758 1.392)" fill="#806db0"/>
        <path id="Trazado_114055" data-name="Trazado 114055" d="M2274.043,591.7a4.051,4.051,0,1,1-4.051-4.1A4.078,4.078,0,0,1,2274.043,591.7Z" transform="translate(-2219.272 -582.89)" fill="#2c2a6e"/>
        <rect id="Rectángulo_33933" data-name="Rectángulo 33933" width="2.149" height="8.142" transform="translate(8.401 4.735)" fill="#2c2a6e"/>
        <rect id="Rectángulo_33934" data-name="Rectángulo 33934" width="2.149" height="8.142" transform="translate(12.503 4.735)" fill="#2c2a6e"/>
        <rect id="Rectángulo_33935" data-name="Rectángulo 33935" width="2.149" height="8.142" transform="translate(16.606 4.735)" fill="#2c2a6e"/>
        <rect id="Rectángulo_33936" data-name="Rectángulo 33936" width="2.149" height="8.142" transform="translate(20.709 4.735)" fill="#2c2a6e"/>
        <rect id="Rectángulo_33937" data-name="Rectángulo 33937" width="2.149" height="8.142" transform="translate(24.811 4.735)" fill="#2c2a6e"/>
        <rect id="Rectángulo_33938" data-name="Rectángulo 33938" width="2.377" height="2.416" transform="translate(30.184 7.598)" fill="#2c2a6e"/>
        <rect id="Rectángulo_33939" data-name="Rectángulo 33939" width="2.377" height="2.416" transform="translate(34.27 7.598)" fill="#2c2a6e"/>
        <rect id="Rectángulo_33940" data-name="Rectángulo 33940" width="2.377" height="2.416" transform="translate(38.357 7.598)" fill="#2c2a6e"/>
      </g>
      <g id="Grupo_80599" data-name="Grupo 80599" transform="translate(2.056 42.658)">
        <rect id="Rectángulo_33941" data-name="Rectángulo 33941" width="59.781" height="17.612" fill="#2c2a6e"/>
        <rect id="Rectángulo_33942" data-name="Rectángulo 33942" width="56.265" height="14.828" transform="translate(1.758 1.392)" fill="#806db0"/>
        <ellipse id="Elipse_4773" data-name="Elipse 4773" cx="4.051" cy="4.104" rx="4.051" ry="4.104" transform="translate(46.669 4.702)" fill="#2c2a6e"/>
        <rect id="Rectángulo_33943" data-name="Rectángulo 33943" width="2.149" height="8.142" transform="translate(8.401 4.735)" fill="#2c2a6e"/>
        <rect id="Rectángulo_33944" data-name="Rectángulo 33944" width="2.149" height="8.142" transform="translate(12.503 4.735)" fill="#2c2a6e"/>
        <rect id="Rectángulo_33945" data-name="Rectángulo 33945" width="2.149" height="8.142" transform="translate(16.606 4.735)" fill="#2c2a6e"/>
        <rect id="Rectángulo_33946" data-name="Rectángulo 33946" width="2.149" height="8.142" transform="translate(20.709 4.735)" fill="#2c2a6e"/>
        <rect id="Rectángulo_33947" data-name="Rectángulo 33947" width="2.149" height="8.142" transform="translate(24.811 4.735)" fill="#2c2a6e"/>
        <rect id="Rectángulo_33948" data-name="Rectángulo 33948" width="2.377" height="2.416" transform="translate(30.184 7.598)" fill="#2c2a6e"/>
        <rect id="Rectángulo_33949" data-name="Rectángulo 33949" width="2.377" height="2.416" transform="translate(34.27 7.598)" fill="#2c2a6e"/>
        <rect id="Rectángulo_33950" data-name="Rectángulo 33950" width="2.377" height="2.416" transform="translate(38.357 7.598)" fill="#2c2a6e"/>
      </g>
      <g id="Grupo_80600" data-name="Grupo 80600" transform="translate(2.056 62.434)">
        <rect id="Rectángulo_33951" data-name="Rectángulo 33951" width="59.781" height="17.612" fill="#2c2a6e"/>
        <rect id="Rectángulo_33952" data-name="Rectángulo 33952" width="56.265" height="14.828" transform="translate(1.758 1.392)" fill="#806db0"/>
        <ellipse id="Elipse_4774" data-name="Elipse 4774" cx="4.051" cy="4.104" rx="4.051" ry="4.104" transform="translate(46.669 4.702)" fill="#2c2a6e"/>
        <rect id="Rectángulo_33953" data-name="Rectángulo 33953" width="2.149" height="8.142" transform="translate(8.401 4.735)" fill="#2c2a6e"/>
        <rect id="Rectángulo_33954" data-name="Rectángulo 33954" width="2.149" height="8.142" transform="translate(12.503 4.735)" fill="#2c2a6e"/>
        <rect id="Rectángulo_33955" data-name="Rectángulo 33955" width="2.149" height="8.142" transform="translate(16.606 4.735)" fill="#2c2a6e"/>
        <rect id="Rectángulo_33956" data-name="Rectángulo 33956" width="2.149" height="8.142" transform="translate(20.709 4.735)" fill="#2c2a6e"/>
        <rect id="Rectángulo_33957" data-name="Rectángulo 33957" width="2.149" height="8.142" transform="translate(24.811 4.735)" fill="#2c2a6e"/>
        <rect id="Rectángulo_33958" data-name="Rectángulo 33958" width="2.377" height="2.416" transform="translate(30.184 7.598)" fill="#2c2a6e"/>
        <rect id="Rectángulo_33959" data-name="Rectángulo 33959" width="2.377" height="2.416" transform="translate(34.27 7.598)" fill="#2c2a6e"/>
        <rect id="Rectángulo_33960" data-name="Rectángulo 33960" width="2.377" height="2.416" transform="translate(38.357 7.598)" fill="#2c2a6e"/>
      </g>
    </g>
    <g id="Grupo_80602" data-name="Grupo 80602" transform="translate(2102.806 312.9)">
      <rect id="Rectángulo_33961" data-name="Rectángulo 33961" width="41.641" height="7.161" rx="3.58" transform="translate(18.113 0) rotate(90)" fill="#f7981d"/>
      <path id="Trazado_114056" data-name="Trazado 114056" d="M2213.267,496.807a14.324,14.324,0,1,0-14.325-14.324A14.324,14.324,0,0,0,2213.267,496.807Zm.285-3.808a4.085,4.085,0,1,1,4.084-4.085A4.085,4.085,0,0,1,2213.552,493Z" transform="translate(-2198.942 -428.881)" fill="#fbb225"/>
      <path id="Trazado_114057" data-name="Trazado 114057" d="M2216.855,498.616a12.544,12.544,0,1,0-12.544-12.544A12.544,12.544,0,0,0,2216.855,498.616Zm.285-2.028a4.085,4.085,0,1,1,4.085-4.085A4.085,4.085,0,0,1,2217.14,496.588Z" transform="translate(-2202.531 -432.47)" fill="#ee7222"/>
      <path id="Trazado_114058" data-name="Trazado 114058" d="M2253.563,360.292h7.46v4.057h-4.451V367.3h4.451v2.287h-4.451v2.951h3.561v3.536h-6.57Z" transform="translate(-2235.45 -356.785)" fill="#c85728"/>
      <path id="Trazado_114059" data-name="Trazado 114059" d="M2257.293,368.569v1.312h-.721v2.951h.721v2.287h-.721v2.951h.721v3.536h-3.73V368.569Z" transform="translate(-2235.45 -362.317)" fill="#a23f23"/>
      <rect id="Rectángulo_33962" data-name="Rectángulo 33962" width="31.886" height="1.457" rx="0.728" transform="translate(14.324 3.102) rotate(90)" fill="#fbb225"/>
      <path id="Trazado_114060" data-name="Trazado 114060" d="M2229.2,522.761a4.33,4.33,0,0,1,4.33-4.33c.042,0,.08.011.122.013a4.079,4.079,0,1,0,4.195,4.195c0,.042.012.081.012.123a4.33,4.33,0,0,1-8.659,0Z" transform="translate(-2219.168 -462.483)" fill="#a23f23"/>
    </g>
    <path id="Trazado_114061" data-name="Trazado 114061" d="M2469.919,728.329s2.575,8.835-4.046,31.325h43.038s-7.725-8.836-5.885-31.325Z" transform="translate(-274.549 -289.875)" fill="#583ae2"/>
    <path id="Rectángulo_33963" data-name="Rectángulo 33963" d="M22.119,0H114.43a22.118,22.118,0,0,1,22.118,22.118v56.7a0,0,0,0,1,0,0H0a0,0,0,0,1,0,0v-56.7A22.119,22.119,0,0,1,22.119,0Z" transform="translate(2143.097 350.077)" fill="#f2a7c9"/>
    <path id="Trazado_114062" data-name="Trazado 114062" d="M2448.44,541.672H2298.546a3.5,3.5,0,0,1-3.5-3.5V448.259a3.5,3.5,0,0,1,3.5-3.5h146.683a3.211,3.211,0,0,1,3.211,3.211v93.7Z" transform="translate(-160.372 -100.343)" fill="#583ae2"/>
    <path id="Trazado_114063" data-name="Trazado 114063" d="M2296.52,539.66V449.745a3.5,3.5,0,0,1,3.5-3.5H2446.7a3.178,3.178,0,0,1,1.415.342,3.2,3.2,0,0,0-2.886-1.829H2298.546a3.5,3.5,0,0,0-3.5,3.5v89.916a3.484,3.484,0,0,0,1.872,3.079A3.461,3.461,0,0,1,2296.52,539.66Z" transform="translate(-160.372 -100.343)" fill="#826be9"/>
    <path id="Trazado_114064" data-name="Trazado 114064" d="M2456.992,544.156H2320.444V461.824h136.549v82.332Z" transform="translate(-177.346 -111.748)" fill="#f3f1ff"/>
    <path id="Trazado_114065" data-name="Trazado 114065" d="M2320.444,461.824v77.56l136.549-75.9v-1.657H2320.444Z" transform="translate(-177.346 -111.748)" fill="#d5cef8" opacity="0.34"/>
    <path id="Trazado_114066" data-name="Trazado 114066" d="M2393.141,810.789l-3.153,7.324a.4.4,0,0,0,.365.555h87.811a.4.4,0,0,0,.365-.555l-3.152-7.324a.4.4,0,0,0-.365-.24h-81.506A.4.4,0,0,0,2393.141,810.789Z" transform="translate(-223.807 -344.83)" fill="#826be9"/>
    <path id="Trazado_114067" data-name="Trazado 114067" d="M2528.535,718.2a2.2,2.2,0,1,1-2.195-2.254A2.225,2.225,0,0,1,2528.535,718.2Z" transform="translate(-313.497 -281.602)" fill="#28306f"/>
    <path id="Rectángulo_33964" data-name="Rectángulo 33964" d="M22.119,0H114.43a22.118,22.118,0,0,1,22.118,22.118v56.7a0,0,0,0,1,0,0H0a0,0,0,0,1,0,0v-56.7A22.119,22.119,0,0,1,22.119,0Z" transform="translate(2143.097 350.077)" fill="none"/>
    <circle id="Elipse_4775" data-name="Elipse 4775" cx="32.29" cy="32.29" r="32.29" transform="translate(2179.484 362.263)" fill="#fff"/>
    <g id="Grupo_80604" data-name="Grupo 80604" transform="translate(2194.091 369.469)">
      <rect id="Rectángulo_33965" data-name="Rectángulo 33965" width="14.433" height="16.19" transform="translate(9.784 27.029)" fill="#201b40"/>
      <g id="Grupo_80603" data-name="Grupo 80603" transform="translate(0 0)">
        <path id="Trazado_114068" data-name="Trazado 114068" d="M2506.92,540.808l-1.854-.007.055-7.649a12.956,12.956,0,0,0-25.909-.151l-.055,7.706-1.787-.007c-1.609-.006-2.923,1.018-2.935,2.288l-.219,22.657c-.012,1.269,1.282,2.3,2.892,2.309l29.55.108c1.609.006,2.924-1.018,2.935-2.288l.218-22.657C2509.823,541.848,2508.529,540.814,2506.92,540.808Zm-14.7-15.8a8.084,8.084,0,0,1,8.052,8.114l-.054,7.66L2484,540.724l.056-7.7A8.11,8.11,0,0,1,2492.225,525.009Zm2.164,34.389-5.17-.019.942-4.42a3.249,3.249,0,0,1-1.275-2.65,3.124,3.124,0,0,1,3.017-3.2,3.079,3.079,0,0,1,2.954,3.217,3.294,3.294,0,0,1-1.325,2.641Z" transform="translate(-2474.217 -520.302)" fill="#2ff980"/>
        <path id="Trazado_114069" data-name="Trazado 114069" d="M2502.216,520.3A12.9,12.9,0,0,0,2489.17,533l-.054,7.572h4.844l.055-7.544a8.11,8.11,0,0,1,16.219.095l-.053,7.449h4.845l.053-7.421A12.86,12.86,0,0,0,2502.216,520.3Z" transform="translate(-2484.175 -520.302)" fill="#2ff980"/>
      </g>
    </g>
    <path id="Trazado_114070" data-name="Trazado 114070" d="M2456.992,467.947H2320.444v-6.122h136.549v6.122Z" transform="translate(-177.346 -111.748)" fill="#40327b"/>
    <g id="Grupo_80605" data-name="Grupo 80605" transform="translate(2149.746 351.743)">
      <path id="Trazado_114071" data-name="Trazado 114071" d="M2343.284,468.244a1.395,1.395,0,1,1-1.4-1.4A1.395,1.395,0,0,1,2343.284,468.244Z" transform="translate(-2340.494 -466.849)" fill="#fff"/>
      <path id="Trazado_114072" data-name="Trazado 114072" d="M2355.223,468.244a1.395,1.395,0,1,1-1.395-1.4A1.395,1.395,0,0,1,2355.223,468.244Z" transform="translate(-2348.475 -466.849)" fill="#fff"/>
      <path id="Trazado_114073" data-name="Trazado 114073" d="M2367.163,468.244a1.395,1.395,0,1,1-1.395-1.4A1.394,1.394,0,0,1,2367.163,468.244Z" transform="translate(-2356.455 -466.849)" fill="#fff"/>
    </g>
    <g id="Grupo_80607" data-name="Grupo 80607" transform="translate(2253.187 377.585)">
      <g id="Grupo_80606" data-name="Grupo 80606" transform="translate(0)">
        <path id="Trazado_114074" data-name="Trazado 114074" d="M2737.029,557.563c-20.039-.578-42.072-12.786-42.072-12.786s-22.032,12.208-42.071,12.786c0,0-7.956,61.877,42.071,83.467C2744.985,619.441,2737.029,557.563,2737.029,557.563Z" transform="translate(-2652.423 -544.777)" fill="#0a8cc9"/>
        <path id="Trazado_114075" data-name="Trazado 114075" d="M2737.029,556.977c-20.039-.552-42.072-12.2-42.072-12.2s-22.032,11.648-42.071,12.2c0,0-7.956,59.039,42.071,79.638C2744.985,616.016,2737.029,556.977,2737.029,556.977Z" transform="translate(-2652.423 -544.777)" fill="#583ae2"/>
        <path id="Trazado_114076" data-name="Trazado 114076" d="M2741.077,568.879c-18.181-.5-38.17-11.05-38.17-11.05s-19.989,10.55-38.17,11.05c0,0-7.219,53.474,38.17,72.131C2748.3,622.353,2741.077,568.879,2741.077,568.879Z" transform="translate(-2660.372 -553.501)" fill="#826be9"/>
        <path id="Trazado_114077" data-name="Trazado 114077" d="M2743.621,576.228c-17.012-.468-35.718-10.34-35.718-10.34s-18.7,9.872-35.718,10.34c0,0-6.755,50.038,35.718,67.5C2750.376,626.266,2743.621,576.228,2743.621,576.228Z" transform="translate(-2665.37 -558.887)" fill="#ab9df1" opacity="0.54"/>
        <path id="Trazado_114078" data-name="Trazado 114078" d="M2745.57,579.742c-16.118-.452-33.84-10-33.84-10s-17.722,9.548-33.84,10c0,0-6.4,48.395,33.84,65.28C2751.97,628.137,2745.57,579.742,2745.57,579.742Z" transform="translate(-2669.196 -561.463)" fill="#fff"/>
        <path id="Trazado_114079" data-name="Trazado 114079" d="M2748.419,585.89c-14.811-.425-31.1-9.407-31.1-9.407s-16.284,8.981-31.095,9.407c0,0-5.881,45.52,31.095,61.4C2754.3,631.41,2748.419,585.89,2748.419,585.89Z" transform="translate(-2674.789 -565.969)" fill="#a5ffc9"/>
        <path id="Trazado_114080" data-name="Trazado 114080" d="M2780.687,576.483v70.81c36.976-15.883,31.1-61.4,31.1-61.4C2796.972,585.464,2780.688,576.484,2780.687,576.483Z" transform="translate(-2738.153 -565.969)" fill="#2ff980"/>
      </g>
      <path id="Trazado_114081" data-name="Trazado 114081" d="M2772.9,633.337a37.109,37.109,0,0,0-7.306,4.15,73.855,73.855,0,0,0-6.627,5.355c-2.132,1.9-4.174,3.905-6.174,5.969-1.217,1.267-2.4,2.552-3.579,3.866l-9.908-10.055-1.108,1.013,8.792,15.888,1.692,3.058,3.074-3.123h0c1.412-2.335,3.008-4.721,4.613-7.011s3.293-4.557,5.061-6.715a74.587,74.587,0,0,1,5.562-6.189,37.147,37.147,0,0,1,6.335-5.132Z" transform="translate(-2709.755 -603.969)" fill="#fff"/>
    </g>
    <g id="Grupo_80613" data-name="Grupo 80613" transform="translate(2306.63 389.666)">
      <path id="Trazado_114101" data-name="Trazado 114101" d="M2864.759,780.153s-.422,5.322-.5,8.758-.016,13.682.248,14.586l-.015,3.375h-.6v-1.326a1.712,1.712,0,0,0-.585,1.094c0,.594-2.267,1.438-3.071,1.317s.585-1.929.585-1.929,1.634-2.049,1.548-2.893-2.771-14.057-2.844-15.8-.829-7.808-.829-7.808Z" transform="translate(-2843.74 -713.758)" fill="#eebaa7"/>
      <path id="Trazado_114102" data-name="Trazado 114102" d="M2861.387,582.476s1.725-.9,3.031,2.6a23.958,23.958,0,0,1,.883,10.844s3.8,4.134.683,6.848c0,0-4.3,4.567-4.589,5.741-.11-.275-1.945-3.619-4.929-3.8s-10.324-7.963-6.4-9.183c0,0-.3,1.262,1.044.956s.506-4.956.523-6.6,1.008-5.7,3.866-7.428S2861.646,580.844,2861.387,582.476Z" transform="translate(-2837.213 -581.207)" fill="#131025"/>
      <path id="Trazado_114103" data-name="Trazado 114103" d="M2871.6,622.378s-6.178.423-8.171.89c0,0,.751,8.362,1.985,8.455s6.143.216,6.186-1.141S2872.688,623.3,2871.6,622.378Z" transform="translate(-2846.899 -608.725)" fill="#eaa87a"/>
      <path id="Trazado_114104" data-name="Trazado 114104" d="M2868.992,617.122a26.332,26.332,0,0,1-1.066,2.714s-.424,1.1.824,4.224,4.407,1.378,4.913.526,1.621-2.481.6-4.1a2.763,2.763,0,0,1-.666-3.212S2869.212,616.387,2868.992,617.122Z" transform="translate(-2849.859 -605.017)" fill="#eaa87a"/>
      <path id="Trazado_114105" data-name="Trazado 114105" d="M2872.053,597.144s-2.075,2.234-3.817,1.949c-1.88-.308-3.341-2.517-3.791-4.137a8.142,8.142,0,0,1,1.413-6.033c1.119-1.16,5.266-1.929,6.427-.424S2874.23,595.408,2872.053,597.144Z" transform="translate(-2847.489 -585.523)" fill="#fcc596"/>
      <path id="Trazado_114106" data-name="Trazado 114106" d="M2817.609,624.155a9.176,9.176,0,0,1,.189-2.542c.279-.689-.175-1.723-.581-1.375s-.414,1.479-.59,1.293-.664-3.328-.9-3.482-.522.129-.3,1.212c0,0-.17-1.277-.446-1.154s-.383.553-.128,1.721c0,0-.278-1.374-.509-1.325s-.281.2-.1,1.361c0,0-.249-1.248-.408-1.149a4.1,4.1,0,0,0,.077,3.044,19.345,19.345,0,0,1,1.321,2.914S2817.137,624.878,2817.609,624.155Z" transform="translate(-2813.582 -605.805)" fill="#facc9a"/>
      <path id="Trazado_114107" data-name="Trazado 114107" d="M2887.729,777.729s.945,11.368-.8,16.6c-1.781,5.355-1.375,7.249,1.534,9.987,0,0,1.974,1.156.915,1.4s-3.37.6-4.787-1.019-.916-1.583-.916-1.583l.014,2-.662-.093a15.089,15.089,0,0,1,.31-3.584c.362-1.019-.674-9.608-.391-10.561s-.83-11.206-.067-12.412S2887.729,777.729,2887.729,777.729Z" transform="translate(-2859.72 -712.499)" fill="#f0b9a7"/>
      <path id="Trazado_114108" data-name="Trazado 114108" d="M2866.618,696.9s2.726,17.457.076,26.523c0,0-12.91,2.275-15.173.63,0,0-4.071-19.411.824-28.2Z" transform="translate(-2837.879 -657.833)" fill="#4e4e4e"/>
      <path id="Trazado_114109" data-name="Trazado 114109" d="M2887.762,852.616c1.856.473.442-1.411.442-1.411h0c.32.338.684.692,1.1,1.085,0,0,1.974,1.156.915,1.4s-3.37.6-4.787-1.019a6.933,6.933,0,0,1-.913-1.215l.011,1.634-.662-.093a15.094,15.094,0,0,1,.31-3.584C2884.776,849.631,2885.907,852.142,2887.762,852.616Z" transform="translate(-2860.561 -760.469)" fill="#131025"/>
      <path id="Trazado_114110" data-name="Trazado 114110" d="M2862.843,856.277c-.8-.12.585-1.929.585-1.929s.166-.208.389-.519c-.07.56.013,1.059.514,1.131,1.211.172,2.781-3.143,2.781-3.143l-.015,3.376h-.6v-1.326a1.712,1.712,0,0,0-.585,1.094C2865.914,855.554,2863.647,856.4,2862.843,856.277Z" transform="translate(-2846.34 -762.079)" fill="#131025"/>
      <path id="Trazado_114111" data-name="Trazado 114111" d="M2874.547,645.077l-5.6.183,1.982,7.929S2874.153,646.317,2874.547,645.077Z" transform="translate(-2850.589 -623.897)" fill="#f7f8f9"/>
      <path id="Trazado_114112" data-name="Trazado 114112" d="M2840.917,622.378s6.308,1.97,7.636,3.12,8.963,12.314,8.134,14.285-8.211,8.481-8.211,8.481l-2.081-2.242s4.648-6.9,5.146-7.224c0,0-4.855-6.157-5.976-5.993s.54,12.145.183,20.473c-.015.346-7.861,1.446-9.4.831l-.705-4.392-1.12,4.609-6.889-.3s1.5-8.046,2.125-8.785.655-8.537.655-8.537l-1.287-1.272s-5.333,5.66-6.122,5.66-2.3.538-3.423-1.925-2.213-11.054-2.047-11.547a12.876,12.876,0,0,1,2.96-.891s2.158,6.937,2.075,7.922c0,0,.747-.082.83-.205s5.229-9.031,6.391-9.892a7.088,7.088,0,0,1,3.757-1.4l3.007,14.861S2842.411,625.744,2840.917,622.378Z" transform="translate(-2816.216 -608.725)" fill="#1dafab"/>
      <g id="Grupo_80612" data-name="Grupo 80612" transform="translate(5.395 13.653)">
        <path id="Trazado_114113" data-name="Trazado 114113" d="M2902.532,639.783c.83-1.971-6.806-13.135-8.134-14.285-.921-.8-4.237-1.989-6.183-2.645a2.551,2.551,0,0,0-.146-.475s6.308,1.97,7.636,3.12,8.964,12.314,8.134,14.285-8.211,8.481-8.211,8.481l-.593-.639C2896.906,645.937,2901.86,641.376,2902.532,639.783Z" transform="translate(-2868.763 -622.378)" fill="#14958f"/>
        <path id="Trazado_114114" data-name="Trazado 114114" d="M2865.5,638.75l-3.442-13.8a7.6,7.6,0,0,1,1.261-.224l3.007,14.861C2865.855,640.215,2865.5,638.75,2865.5,638.75Z" transform="translate(-2851.378 -623.946)" fill="#14958f"/>
        <path id="Trazado_114115" data-name="Trazado 114115" d="M2884.584,674.286c.357-8.328-1.3-20.309-.183-20.473.219-.032.58.178,1.019.535-.308,1.594.13,6.551.375,11.85.024.525.038.844.038.844l.026.667c.085,2.261.12,4.53.032,6.579-.013.294-5.657,1.129-8.308,1C2880.437,675.185,2884.573,674.537,2884.584,674.286Z" transform="translate(-2861.754 -643.386)" fill="#14958f"/>
        <path id="Trazado_114116" data-name="Trazado 114116" d="M2829.943,667.4c.788,0,6.121-5.66,6.121-5.66h1.307c-1.437,1.495-5.5,5.66-6.121,5.66a6.253,6.253,0,0,1-1.4,0C2829.882,667.4,2829.914,667.4,2829.943,667.4Z" transform="translate(-2829.851 -648.688)" fill="#14958f"/>
        <path id="Trazado_114117" data-name="Trazado 114117" d="M2866.7,706.625l.542-1-1.055,4.34-1.293-.056Z" transform="translate(-2853.276 -678.021)" fill="#14958f"/>
      </g>
      <path id="Trazado_114118" data-name="Trazado 114118" d="M2898.017,692.473a8.947,8.947,0,0,1-2.329.986c-.735.062-1.44.941-.949,1.148s1.493-.3,1.409-.057-2.635,2.11-2.664,2.392.352.41,1.205-.282c0,0-1.049.734-.815.926s.662.093,1.577-.668c0,0-1.086.874-.937,1.06s.307.16,1.247-.528c0,0-.988.791-.828.889a4.009,4.009,0,0,0,2.651-1.453,19.182,19.182,0,0,1,1.97-2.513S2898.87,692.568,2898.017,692.473Z" transform="translate(-2866.987 -655.576)" fill="#facc9a"/>
      <path id="Trazado_114119" data-name="Trazado 114119" d="M2905.286,690.82l-.7.947,2.081,2.242s.809-.5.886-.83Z" transform="translate(-2874.409 -654.471)" fill="#14958f"/>
      <path id="Trazado_114120" data-name="Trazado 114120" d="M2887.61,601.256a2.306,2.306,0,0,0,2.61-.652c.948-1.3-.636-2.074-.636-2.074s1.029,1.309-.476,1.476-1.509-2.381-.977-3.788c1.535-4.064.657-6.733-.046-8.186a8.718,8.718,0,0,0-1.957-2.516l-.858-.482-.6,1.476a18.306,18.306,0,0,1,1.625,3.206,7.3,7.3,0,0,1-.517,6.07C2884.489,598.341,2884.162,600.847,2887.61,601.256Z" transform="translate(-2861.097 -583.766)" fill="#1c183c"/>
      <path id="Trazado_114121" data-name="Trazado 114121" d="M2884.177,586.3l.6-1.476h0s1.726-.9,3.031,2.6a14.746,14.746,0,0,1,.774,4.107c-.594,2.184-2.271,4.7-3.185,6.843-1.154,2.7,2.361,1.972,2.361,1.972a1.828,1.828,0,0,1-2.931.466c-1.932-1.689-.238-4.487.5-5.952a8.058,8.058,0,0,0-.081-5.811A27.416,27.416,0,0,1,2884.177,586.3Z" transform="translate(-2860.604 -583.554)" fill="#232147"/>
      <path id="Trazado_114122" data-name="Trazado 114122" d="M2866.812,583.952s-3.93-1.043-5.915,3.766.844,7.016.343,8.5-1.841,1.7-2.988.177c0,0,1.411.916,1.624-.123s-2.132-2.555-1.909-6.518a17.511,17.511,0,0,1,.565-3.56,7.855,7.855,0,0,1,2.995-3.735c2.859-1.726,6.145-1.613,5.885.019Z" transform="translate(-2843.238 -581.207)" fill="#1c183c"/>
    </g>
    <g id="Grupo_80618" data-name="Grupo 80618" transform="translate(2155.174 388.473)">
      <path id="Trazado_114123" data-name="Trazado 114123" d="M2390.682,620.277l-6.138-.206a.37.37,0,0,1-.347-.458l1.145-4.674a.37.37,0,0,1,.372-.282l4.01-.026a.371.371,0,0,1,.353.311l.984,4.906A.371.371,0,0,1,2390.682,620.277Z" transform="translate(-2375.125 -602.354)" fill="#fccaa6"/>
      <path id="Trazado_114124" data-name="Trazado 114124" d="M2391.431,614.732a.34.34,0,0,0-.324-.285l-1.848-.062-2.027-.068a.34.34,0,0,0-.342.259l-.576,1.783-.1.344c.964.555,3.25.863,3.754,1.142.487.269,1.267-.432,1.881-1.036Z" transform="translate(-2376.479 -602.144)" fill="#cd9696"/>
      <path id="Trazado_114125" data-name="Trazado 114125" d="M2377.187,605.4s-.879-.53-.941.431.73,2.223,1.522,1.762S2377.187,605.4,2377.187,605.4Z" transform="translate(-2369.816 -596.089)" fill="#fccaa6"/>
      <path id="Trazado_114126" data-name="Trazado 114126" d="M2378.1,608.012s-.565-.484-.518-.874S2376.96,607.545,2378.1,608.012Z" transform="translate(-2370.608 -597.276)" fill="#13162d"/>
      <path id="Trazado_114127" data-name="Trazado 114127" d="M2407.048,604.991s.863-.554.952.4-.667,2.243-1.472,1.8S2407.048,604.991,2407.048,604.991Z" transform="translate(-2389.885 -595.804)" fill="#fccaa6"/>
      <path id="Trazado_114128" data-name="Trazado 114128" d="M2408.377,607.6s.551-.5.493-.888S2409.5,607.107,2408.377,607.6Z" transform="translate(-2391.294 -596.994)" fill="#13162d"/>
      <path id="Trazado_114129" data-name="Trazado 114129" d="M2377.885,595.839s.476,5.877,3.192,7.46c2.75,1.6,4.329.725,5.483-.849s2.162-5.885,1.9-6.547S2378.982,593.85,2377.885,595.839Z" transform="translate(-2370.913 -589.107)" fill="#fccaa6"/>
      <path id="Trazado_114130" data-name="Trazado 114130" d="M2381.587,604.147c-2.407-1.4-3.055-6.177-3.171-7.246a.865.865,0,0,0-.531.335s.5,5.981,3.217,7.564c2.592,1.512,4.12.713,5.256-.691C2385.271,605.116,2383.812,605.444,2381.587,604.147Z" transform="translate(-2370.913 -590.504)" fill="#cd9696"/>
      <path id="Trazado_114131" data-name="Trazado 114131" d="M2377.753,586.08c.144,0,1.24-.109,1.891-2.177a.024.024,0,0,1,.043-.006,3.1,3.1,0,0,0,.768.941.024.024,0,0,0,.034-.028c-.071-.248-.364-1.324-.067-1.3.335.022,1.43,1.521,6.379.352a.024.024,0,0,1,.03.028,2.062,2.062,0,0,0,1.1,2.307.024.024,0,0,0,.031-.012c.137-.3,1.664-3.762.229-6.057-1.5-2.4-6.642-4-9.228-.419a.022.022,0,0,1-.019.01c-.132,0-1.34.044-1.519,1.972a10.967,10.967,0,0,0,.3,4.381A.024.024,0,0,0,2377.753,586.08Z" transform="translate(-2370.563 -577.61)" fill="#1a1941"/>
      <g id="Grupo_80614" data-name="Grupo 80614" transform="translate(6.798 0)" opacity="0.19">
        <path id="Trazado_114132" data-name="Trazado 114132" d="M2377.473,582.027c.179-1.927,1.386-1.973,1.518-1.972a.024.024,0,0,0,.02-.01c2.585-3.578,7.728-1.979,9.227.419a4.009,4.009,0,0,1,.546,1.519,4.171,4.171,0,0,0-.587-1.861c-1.5-2.4-6.642-4-9.227-.419a.022.022,0,0,1-.019.01c-.133,0-1.34.044-1.519,1.972a15.123,15.123,0,0,0,.043,3.335A15.692,15.692,0,0,1,2377.473,582.027Z" transform="translate(-2377.361 -577.61)" fill="#bab9b7"/>
      </g>
      <path id="Trazado_114133" data-name="Trazado 114133" d="M2387.936,593.99a.024.024,0,0,0,.031-.012,10.436,10.436,0,0,0,.744-2.517c-.928,1.09-1.343-.247-1.343-.247-3.121,1.052-5.708-1.552-5.708-1.552a6.453,6.453,0,0,0,1.483,1.752c-1.06.192-3.025-1.075-3.025-1.075-.857,1.658-2.053.009-2.663-1.06-.009.066-.018.134-.024.206a10.967,10.967,0,0,0,.3,4.381.024.024,0,0,0,.022.013c.144-.005,1.24-.109,1.891-2.177a.024.024,0,0,1,.043-.006,3.1,3.1,0,0,0,.768.941.024.024,0,0,0,.034-.028c-.071-.248-.364-1.324-.067-1.3.335.022,1.43,1.521,6.379.352a.024.024,0,0,1,.03.028A2.062,2.062,0,0,0,2387.936,593.99Z" transform="translate(-2370.563 -585.409)" fill="#14143a"/>
      <path id="Trazado_114134" data-name="Trazado 114134" d="M2368.916,716.856s-1.281,44.572-.809,44.572a17.261,17.261,0,0,0,3.021,0c0-.174,7.021-36.233,7.021-36.233s2.629,12.542,3,13.5,2.16,19.665,4.237,22.81h3.681s-1.239-43.651-3.492-48.242l-16.8,1.219Z" transform="translate(-2364.308 -668.279)" fill="#1a1941"/>
      <path id="Trazado_114135" data-name="Trazado 114135" d="M2367.521,622.815l-1.4,1.111a23.15,23.15,0,0,0-7.561,4.8s-1.058,10.934,2.151,14.521a3.973,3.973,0,0,0,2.51.717s.047,5.231-.9,6.364-1.076,5.019-1.076,5.019l.9.9s3.056,1.1,4.661-1.165l10.756-.179s.754,1.755,3.585.717c0,0-.806-8.241-2.6-10.129l.358-3.406s5.06,1.121,5.154-1.994-3.21-12.488-4.437-13.243a47.206,47.206,0,0,0-4.913-2.167l-1.133-1.133S2370.352,628.29,2367.521,622.815Z" transform="translate(-2357.883 -607.824)" fill="#fff"/>
      <g id="Grupo_80616" data-name="Grupo 80616" transform="translate(0 16.101)">
        <g id="Grupo_80615" data-name="Grupo 80615">
          <path id="Trazado_114136" data-name="Trazado 114136" d="M2413,630.291a25.937,25.937,0,0,0-5.062-1.624h0c-1.215,5.148,1.57,30.13,1.57,30.13a4.6,4.6,0,0,0,4.814,1.133s-.661-8.589-2.454-10.477l.283-2.926s5.262,1.13,5.357-1.985S2414.227,631.046,2413,630.291Z" transform="translate(-2390.795 -627.837)" fill="#0d72b9"/>
          <path id="Trazado_114137" data-name="Trazado 114137" d="M2359.622,646.175a1.917,1.917,0,0,0,1.923.755s.059,3.964-.885,5.1-1.227,6.418-1.227,6.418l1.416.755s3.775.378,5.38-1.888c3.256-10.548-1.133-31.148-1.133-31.148a17.731,17.731,0,0,0-6.543,3.078,4.1,4.1,0,0,0-1.692,3.336C2356.882,636.137,2357.227,643.5,2359.622,646.175Z" transform="translate(-2356.862 -626.165)" fill="#0d72b9"/>
        </g>
      </g>
      <path id="Trazado_114138" data-name="Trazado 114138" d="M2386.013,625.587s1.416-.37,1.982.509,1.675,1.187,1.9-1.94l-.743-.744s-3.2,4.174-6.055-.8l-1.4,1.178.351,1.8S2383.748,627.879,2386.013,625.587Z" transform="translate(-2373.46 -607.689)" fill="#c2d5e6"/>
      <path id="Trazado_114139" data-name="Trazado 114139" d="M2368,858.507s-.519,2,.331,3.049c0,0,2.194-.128,2.124-2.971Z" transform="translate(-2364.202 -765.357)" fill="#14143a"/>
      <path id="Trazado_114140" data-name="Trazado 114140" d="M2420.174,858.74s-.26,1.295,0,1.447a8.329,8.329,0,0,0,1.958,0v-.435s1.392.087,1.723.435,2.808.068,2.808.068-.142-.447-1.345-.7-1.463-.811-1.463-.811Z" transform="translate(-2399.102 -765.513)" fill="#14143a"/>
      <g id="Grupo_80617" data-name="Grupo 80617" transform="translate(2.549 27.349)">
        <path id="Trazado_114141" data-name="Trazado 114141" d="M2369.419,674.818s.021-.2.046-1.078c-3.241-1.173-4.464.319-4.917,1.409a5.015,5.015,0,0,0,.909,2.875S2364.637,673.421,2369.419,674.818Z" transform="translate(-2364.548 -668.924)" fill="#fff"/>
        <path id="Trazado_114142" data-name="Trazado 114142" d="M2385.252,660.757c-.566.524-1.293,1.917-1.881,2.6,0,0-1.624,2.888-6.5,2.912s-5.818.158-5.818.158-4.806-1.877-3.962,3.206c0,0,.6,1.272,3.8,1.22s11.479-.534,12.392-2.62c.785-1.8,2.145-4.331,3.589-5.058A14.383,14.383,0,0,1,2385.252,660.757Z" transform="translate(-2366.18 -660.533)" fill="#ea8f8f"/>
        <path id="Trazado_114143" data-name="Trazado 114143" d="M2400.829,667.5a8.565,8.565,0,0,1-7.021.362,27.1,27.1,0,0,0-9.022-1.747s-.144-2.766,1.744-2.863a3.979,3.979,0,0,1,2.819.761s5.655-.574,6.457-1.012a8.073,8.073,0,0,1,1.388-2.524C2397.8,660.029,2401.65,663.439,2400.829,667.5Z" transform="translate(-2378.073 -660.321)" fill="#fabb9b"/>
        <path id="Trazado_114144" data-name="Trazado 114144" d="M2373.108,677.843s-3.389-.209-3.012,1.854c.415,2.269,2.478,1.912,4.52,1.976s9.328-.829,9.639-1.4S2378,677.987,2373.108,677.843Z" transform="translate(-2368.237 -671.949)" fill="#fabb9b"/>
        <path id="Trazado_114145" data-name="Trazado 114145" d="M2402.516,667.428a6.547,6.547,0,0,1,.509,4.155c-.756,2.018-7.02.716-8.677-.176-1.073-.578-3.7-.513-5.328-.5a28.026,28.026,0,0,1,7.221,1.483q.193.071.384.144l.015.006a8.534,8.534,0,0,0,2.409.556c.215.018.425.026.629.028s.4,0,.6-.017c.1-.006.191-.014.285-.023.28-.027.546-.066.8-.113q.25-.047.477-.1c.3-.075.574-.158.809-.241.118-.041.226-.083.325-.122a5.558,5.558,0,0,0,.695-.326A8.429,8.429,0,0,0,2402.516,667.428Z" transform="translate(-2380.904 -664.992)" fill="#ea8f8f"/>
        <path id="Trazado_114146" data-name="Trazado 114146" d="M2426.274,663.671a6.374,6.374,0,0,0-4.208-3.589c-.009.113-.012.178-.012.178,4.109,2,3.687,7,3.687,7A12.653,12.653,0,0,0,2426.274,663.671Z" transform="translate(-2402.984 -660.082)" fill="#f3f2f3"/>
        <path id="Trazado_114147" data-name="Trazado 114147" d="M2428.072,665.124a3.422,3.422,0,0,0-1.5-1.426,7.99,7.99,0,0,1,2.188,5.983,12.653,12.653,0,0,0,.533-3.592C2429.091,668.8,2428.525,666.24,2428.072,665.124Z" transform="translate(-2406.004 -662.499)" fill="#a6adcb" opacity="0.61"/>
        <path id="Trazado_114148" data-name="Trazado 114148" d="M2369.184,675.7c-2.069-1.66-3.219-.456-3.382.978a2.34,2.34,0,0,1-.477,1.1,3.519,3.519,0,0,0,.651,1.307S2365.249,674.986,2369.184,675.7Z" transform="translate(-2365.067 -669.982)" fill="#a6adcb" opacity="0.61"/>
      </g>
    </g>
  </g>
</svg>
