<svg xmlns="http://www.w3.org/2000/svg" xmlns:xlink="http://www.w3.org/1999/xlink" width="46" height="46" viewBox="0 0 46 46">
  <defs>
    <clipPath id="clip-path">
      <rect id="Rectángulo_34602" data-name="Rectángulo 34602" width="46" height="46" transform="translate(410 20982)" fill="#fff" stroke="#707070" stroke-width="1"/>
    </clipPath>
  </defs>
  <g id="Enmascarar_grupo_132" data-name="Enmascarar grupo 132" transform="translate(-410 -20982)" clip-path="url(#clip-path)">
    <g id="diagnostico" transform="translate(410.002 20982.002)">
      <g id="Grupo_84736" data-name="Grupo 84736">
        <g id="Grupo_84734" data-name="Grupo 84734">
          <path id="Trazado_121982" data-name="Trazado 121982" d="M23.327,4.568,35.53,25.7A5.573,5.573,0,0,1,30.7,34.064H6.3A5.573,5.573,0,0,1,1.471,25.7l12.2-21.137a5.573,5.573,0,0,1,9.652,0Z" fill="#fe646f" fill-rule="evenodd"/>
          <path id="Trazado_121983" data-name="Trazado 121983" d="M23.327,4.568,35.53,25.7A5.573,5.573,0,0,1,30.7,34.064h-1.45A5.573,5.573,0,0,0,34.08,25.7L21.877,4.568a5.529,5.529,0,0,0-4.1-2.74,5.7,5.7,0,0,1,.725-.046,5.535,5.535,0,0,1,4.826,2.786Z" fill="#fd4755" fill-rule="evenodd"/>
          <path id="Trazado_121984" data-name="Trazado 121984" d="M20.811,6.02l12.2,21.137a2.668,2.668,0,0,1-2.31,4H6.3a2.668,2.668,0,0,1-2.31-4L16.19,6.02a2.668,2.668,0,0,1,4.621,0Z" fill="#ffe177" fill-rule="evenodd"/>
          <path id="Trazado_121985" data-name="Trazado 121985" d="M7.747,31.159H6.3a2.668,2.668,0,0,1-2.31-4L16.19,6.02A2.63,2.63,0,0,1,18.5,4.687a2.729,2.729,0,0,1,.725.1A2.627,2.627,0,0,0,17.64,6.021L5.437,27.157a2.668,2.668,0,0,0,2.31,4Z" fill="#ffd064" fill-rule="evenodd"/>
          <path id="Trazado_121986" data-name="Trazado 121986" d="M18.5,23.67A1.526,1.526,0,1,1,16.975,25.2,1.526,1.526,0,0,1,18.5,23.67Zm0-1.6a1.191,1.191,0,0,1-1.19-1.148l-.3-8.338a1.191,1.191,0,0,1,1.19-1.234h.6a1.191,1.191,0,0,1,1.19,1.234l-.3,8.338a1.191,1.191,0,0,1-1.19,1.148Z" fill="#fe646f" fill-rule="evenodd"/>
          <path id="Trazado_121987" data-name="Trazado 121987" d="M18.5,23.67a1.526,1.526,0,1,1-.362,3.008,1.526,1.526,0,0,0,0-2.965A1.54,1.54,0,0,1,18.5,23.67Zm0-1.6a1.189,1.189,0,0,1-.362-.056,1.192,1.192,0,0,0,.828-1.092l.3-8.338a1.191,1.191,0,0,0-1.129-1.233H18.8a1.191,1.191,0,0,1,1.19,1.234l-.3,8.338a1.191,1.191,0,0,1-1.19,1.148Z" fill="#fd4755" fill-rule="evenodd"/>
        </g>
        <g id="Grupo_84735" data-name="Grupo 84735">
          <path id="Trazado_121988" data-name="Trazado 121988" d="M35.337,32.884A9.088,9.088,0,0,1,33.8,34.572l4.17,4.088,1.588-1.636Z" fill="#a79ba7" fill-rule="evenodd"/>
          <path id="Trazado_121989" data-name="Trazado 121989" d="M35.365,32.855a1.048,1.048,0,0,1-.454.609l4.143,4.115.507-.556Z" fill="#837683" fill-rule="evenodd"/>
          <path id="Trazado_121990" data-name="Trazado 121990" d="M43.254,43.966l1.792-1.846a.824.824,0,0,0-.018-1.162l-4.963-4.816a.824.824,0,0,0-1.162.017l-1.792,1.846a.824.824,0,0,0,.018,1.162l4.963,4.816A.824.824,0,0,0,43.254,43.966Z" fill="#f1ba84" fill-rule="evenodd"/>
          <path id="Trazado_121991" data-name="Trazado 121991" d="M39.332,36.142l4.963,4.816a.824.824,0,0,1,.018,1.162L42.52,43.966a.813.813,0,0,1-.223.163.825.825,0,0,0,.957-.163l1.792-1.846a.824.824,0,0,0-.018-1.162l-4.963-4.816A.825.825,0,0,0,39.127,36,.813.813,0,0,1,39.332,36.142Z" fill="#e3a76f" fill-rule="evenodd"/>
          <circle id="Elipse_5423" data-name="Elipse 5423" cx="9.035" cy="9.035" r="9.035" transform="translate(15.781 28.334) rotate(-45)" fill="#8ac9fe"/>
          <path id="Trazado_121992" data-name="Trazado 121992" d="M28.565,19.3a9.037,9.037,0,0,1,0,18.074q-.221,0-.439-.011a9.037,9.037,0,0,0,0-18.052c.145-.007.292-.011.439-.011Z" fill="#60b7ff" fill-rule="evenodd"/>
          <circle id="Elipse_5424" data-name="Elipse 5424" cx="6.487" cy="6.487" r="6.487" transform="matrix(0.305, -0.952, 0.952, 0.305, 20.395, 32.536)" fill="#eceff1"/>
          <path id="Trazado_121993" data-name="Trazado 121993" d="M28.565,21.845c.148,0,.294.005.439.015a6.489,6.489,0,0,0,0,12.948c-.145.01-.291.015-.439.015a6.489,6.489,0,0,1,0-12.978Z" fill="#d1d1d6" fill-rule="evenodd"/>
        </g>
      </g>
      <path id="Trazado_121994" data-name="Trazado 121994" d="M28.567,34.031a5.7,5.7,0,1,1,5.7-5.7A5.7,5.7,0,0,1,28.567,34.031Zm0-12.832A7.135,7.135,0,1,0,35.7,28.334,7.143,7.143,0,0,0,28.567,21.2ZM44.532,41.619,42.74,43.465a.106.106,0,0,1-.145,0l-4.963-4.816a.1.1,0,0,1-.03-.072.1.1,0,0,1,.028-.073l1.791-1.846a.108.108,0,0,1,.073-.031h0a.1.1,0,0,1,.071.028l4.963,4.816a.105.105,0,0,1,0,.145ZM20.249,28.334a8.318,8.318,0,1,0,8.318-8.318A8.327,8.327,0,0,0,20.249,28.334Zm-.2-4.76a9.779,9.779,0,0,1,7.23-4.91L20.19,6.38a1.949,1.949,0,0,0-3.376,0L4.611,27.517A1.949,1.949,0,0,0,6.3,30.44H19.041a9.738,9.738,0,0,1-.229-2.106c0-.311.015-.618.044-.922a2.3,2.3,0,0,1-.353.028,2.245,2.245,0,1,1,1.551-3.866ZM18.5,26a.807.807,0,1,1,.808-.807A.808.808,0,0,1,18.5,26ZM6.3,33.345H20.2a9.78,9.78,0,0,1-.722-1.468H6.3A3.386,3.386,0,0,1,3.366,26.8l12.2-21.137a3.386,3.386,0,0,1,5.865,0L28.9,18.585a9.685,9.685,0,0,1,1.831.236L22.706,4.928a4.853,4.853,0,0,0-8.407,0L2.095,26.064a4.854,4.854,0,0,0,4.2,7.281Zm31.554,2.868-.587.6-1.723-1.672q.295-.3.563-.627Zm7.678,4.229-4.963-4.816a1.535,1.535,0,0,0-1.1-.434,1.553,1.553,0,0,0-.509.1l-2.02-1.959A9.748,9.748,0,0,0,32.808,19.55L23.951,4.209a6.291,6.291,0,0,0-10.9,0L.851,25.345A6.292,6.292,0,0,0,6.3,34.783H21.253A9.739,9.739,0,0,0,34.464,36.1l1.857,1.8a1.548,1.548,0,0,0-.156.7,1.529,1.529,0,0,0,.466,1.082L41.594,44.5a1.543,1.543,0,0,0,2.178-.032h0l1.791-1.846a1.542,1.542,0,0,0-.032-2.178ZM18.975,20.9a.473.473,0,0,1-.945,0l-.3-8.339a.471.471,0,0,1,.473-.489h.6a.471.471,0,0,1,.473.489ZM18.8,10.636a1.911,1.911,0,0,1,1.909,1.978l-.3,8.339a1.91,1.91,0,0,1-3.817,0l-.3-8.339A1.911,1.911,0,0,1,18.2,10.636Z" fill-rule="evenodd"/>
    </g>
  </g>
</svg>
