<svg xmlns="http://www.w3.org/2000/svg" xmlns:xlink="http://www.w3.org/1999/xlink" width="52" height="52" viewBox="0 0 52 52">
  <defs>
    <clipPath id="clip-path">
      <rect id="Rectángulo_34106" data-name="Rectángulo 34106" width="52" height="52" transform="translate(843 17748)" fill="#583ae2" stroke="#707070" stroke-width="1"/>
    </clipPath>
  </defs>
  <g id="Enmascarar_grupo_94" data-name="Enmascarar grupo 94" transform="translate(-843 -17748)" clip-path="url(#clip-path)">
    <g id="pregunta-y-respuesta" transform="translate(841.267 17746.271)">
      <path id="Trazado_115028" data-name="Trazado 115028" d="M50.267,2.109H17.333a3.471,3.471,0,0,0-3.467,3.467V25.623a1.733,1.733,0,0,0,2.695,1.442L20.2,24.642H50.267a3.471,3.471,0,0,0,3.467-3.467V5.576a3.471,3.471,0,0,0-3.467-3.467ZM52,21.176a1.735,1.735,0,0,1-1.733,1.733H19.933a.868.868,0,0,0-.481.146L15.6,25.623V5.576a1.735,1.735,0,0,1,1.733-1.733H50.267A1.735,1.735,0,0,1,52,5.576Z" fill="#583ae2"/>
      <path id="Trazado_115029" data-name="Trazado 115029" d="M41.167,5.576a7.809,7.809,0,0,0-7.8,7.8c.41,10.34,15.192,10.337,15.6,0a7.809,7.809,0,0,0-7.8-7.8Zm0,13.867A6.073,6.073,0,0,1,35.1,13.376c.285-8.029,11.85-8.027,12.133,0a6.073,6.073,0,0,1-6.067,6.067Z" fill="#583ae2"/>
      <path id="Trazado_115030" data-name="Trazado 115030" d="M41.509,8.176A3.248,3.248,0,0,0,37.7,11.642a.867.867,0,1,0,1.733,0,1.461,1.461,0,0,1,1.391-1.733h.684A1.393,1.393,0,0,1,42.9,11.3c.048.774-.691,1.236-1.266,1.589-1,.549-2.218,3.1-.468,3.36a.867.867,0,0,0,.867-.867,1.261,1.261,0,0,1,.562-1.051c3.181-1.577,2.482-5.964-1.087-6.156Z" fill="#583ae2"/>
      <path id="Trazado_115031" data-name="Trazado 115031" d="M41.167,16.839a.867.867,0,1,0,.867.867.867.867,0,0,0-.867-.867Z" fill="#583ae2"/>
      <path id="Trazado_115032" data-name="Trazado 115032" d="M28.6,7.309H18.2a.867.867,0,1,0,0,1.733H28.6a.867.867,0,1,0,0-1.733Z" fill="#583ae2"/>
      <path id="Trazado_115033" data-name="Trazado 115033" d="M28.6,11.642H18.2a.867.867,0,1,0,0,1.733H28.6a.867.867,0,1,0,0-1.733Z" fill="#583ae2"/>
      <path id="Trazado_115034" data-name="Trazado 115034" d="M28.6,15.976H18.2a.867.867,0,1,0,0,1.733H28.6a.867.867,0,1,0,0-1.733Z" fill="#583ae2"/>
      <path id="Trazado_115035" data-name="Trazado 115035" d="M38.133,28.109H5.2a3.471,3.471,0,0,0-3.467,3.467v15.6A3.471,3.471,0,0,0,5.2,50.642H35.271l3.634,2.423A1.745,1.745,0,0,0,41.6,51.623V31.576a3.471,3.471,0,0,0-3.467-3.467Zm1.733,23.514-3.853-2.568a.868.868,0,0,0-.481-.146H5.2a1.735,1.735,0,0,1-1.733-1.733v-15.6A1.735,1.735,0,0,1,5.2,29.842H38.133a1.735,1.735,0,0,1,1.733,1.733s0,20.05,0,20.047Z" fill="#583ae2"/>
      <path id="Trazado_115036" data-name="Trazado 115036" d="M30.333,31.576a7.809,7.809,0,0,0-7.8,7.8c.41,10.34,15.192,10.337,15.6,0A7.809,7.809,0,0,0,30.333,31.576Zm0,13.867a6.073,6.073,0,0,1-6.067-6.067c.285-8.029,11.85-8.027,12.133,0A6.073,6.073,0,0,1,30.333,45.442Z" fill="#583ae2"/>
      <path id="Trazado_115037" data-name="Trazado 115037" d="M17.767,33.309H7.367a.867.867,0,1,0,0,1.733h10.4a.867.867,0,1,0,0-1.733Z" fill="#583ae2"/>
      <path id="Trazado_115038" data-name="Trazado 115038" d="M17.767,37.642H7.367a.867.867,0,1,0,0,1.734h10.4a.867.867,0,1,0,0-1.733Z" fill="#583ae2"/>
      <path id="Trazado_115039" data-name="Trazado 115039" d="M17.767,41.976H7.367a.867.867,0,1,0,0,1.733h10.4a.867.867,0,1,0,0-1.733Z" fill="#583ae2"/>
      <path id="Trazado_115040" data-name="Trazado 115040" d="M32.321,37.03l-2.854,2.854-1.121-1.121a.867.867,0,1,0-1.226,1.226l1.733,1.733a.866.866,0,0,0,1.226,0l3.467-3.467A.867.867,0,1,0,32.32,37.03Z" fill="#583ae2"/>
    </g>
  </g>
</svg>
