<svg xmlns="http://www.w3.org/2000/svg" xmlns:xlink="http://www.w3.org/1999/xlink" width="46" height="46" viewBox="0 0 46 46">
  <defs>
    <clipPath id="clip-path">
      <rect id="Rectángulo_34603" data-name="Rectángulo 34603" width="46" height="46" transform="translate(777 20986)" fill="#fff" stroke="#707070" stroke-width="1"/>
    </clipPath>
  </defs>
  <g id="Enmascarar_grupo_133" data-name="Enmascarar grupo 133" transform="translate(-777 -20986)" clip-path="url(#clip-path)">
    <g id="amenaza" transform="translate(777 20986)">
      <g id="Grupo_84737" data-name="Grupo 84737">
        <path id="Trazado_121995" data-name="Trazado 121995" d="M16.387,9.786H38.972A1.537,1.537,0,0,1,40.5,11.317V35.6a1.535,1.535,0,0,1-1.531,1.528H2.2A1.533,1.533,0,0,1,.673,35.6V11.317A1.535,1.535,0,0,1,2.2,9.786Z" fill="#bcd0df" fill-rule="evenodd"/>
      </g>
      <g id="Grupo_84738" data-name="Grupo 84738">
        <path id="Trazado_121996" data-name="Trazado 121996" d="M25.757,37.124l-5.17-1.549-4.615,1.549v3.532l4.892,1.414,4.892-1.414Z" fill="#c6d0da" fill-rule="evenodd"/>
      </g>
      <g id="Grupo_84739" data-name="Grupo 84739">
        <path id="Trazado_121997" data-name="Trazado 121997" d="M7.613,26.188A3.383,3.383,0,0,0,4.242,29.56v3.357L30.484,32.9V29.532a3.379,3.379,0,0,0-3.369-3.372c-3.451,0-15.821.028-19.5.028Z" fill="#918291" fill-rule="evenodd"/>
      </g>
      <g id="Grupo_84740" data-name="Grupo 84740">
        <path id="Trazado_121998" data-name="Trazado 121998" d="M4.242,32.917H.673V35.6A1.533,1.533,0,0,0,2.2,37.124H38.972A1.535,1.535,0,0,0,40.5,35.6V32.917H17.363l-13.121.015Z" fill="#faf8f9" fill-rule="evenodd"/>
      </g>
      <g id="Grupo_84741" data-name="Grupo 84741">
        <path id="Trazado_121999" data-name="Trazado 121999" d="M25.757,40.657H11.849a1.771,1.771,0,0,0-1.767,1.765v1.3a.468.468,0,0,0,.466.466H31.179a.468.468,0,0,0,.469-.466v-1.3a1.771,1.771,0,0,0-1.767-1.765Z" fill="#faf8f9" fill-rule="evenodd"/>
      </g>
      <g id="Grupo_84742" data-name="Grupo 84742">
        <path id="Trazado_122000" data-name="Trazado 122000" d="M32.34,9.786l-2,3.471a1.383,1.383,0,0,0,1.182,2.048H43.967a1.383,1.383,0,0,0,1.182-2.048L42.036,7.868l-3.11-5.389a1.384,1.384,0,0,0-2.366,0L33.448,7.868Z" fill="#ffe07d" fill-rule="evenodd"/>
      </g>
      <g id="Grupo_84743" data-name="Grupo 84743">
        <path id="Trazado_122001" data-name="Trazado 122001" d="M27.114,26.16H26.009l-1.905,0a3.336,3.336,0,0,1,1.826.542,3.375,3.375,0,0,1,1.543,2.83V32.9l3.01,0V29.532a3.379,3.379,0,0,0-3.369-3.372Z" fill="#685d68" fill-rule="evenodd"/>
      </g>
      <g id="Grupo_84744" data-name="Grupo 84744">
        <path id="Trazado_122002" data-name="Trazado 122002" d="M8.665,14.546c-1.956,0-1.775,3.966.443,3.966h.685a2.78,2.78,0,0,0-.308-3.966Z" fill="#f5a96c" fill-rule="evenodd"/>
      </g>
      <g id="Grupo_84745" data-name="Grupo 84745">
        <path id="Trazado_122003" data-name="Trazado 122003" d="M25.1,18.512h.769c2.218,0,2.4-3.966.443-3.966h-.886a3.055,3.055,0,0,0-.326,3.966Z" fill="#f5a96c" fill-rule="evenodd"/>
      </g>
      <g id="Grupo_84746" data-name="Grupo 84746">
        <path id="Trazado_122004" data-name="Trazado 122004" d="M11.711,21.761a4.572,4.572,0,0,0-2.919,4.055A4.391,4.391,0,0,0,13.171,30.2l3.632,0c1.194-3.166-1.719-9.859-5.091-8.433Z" fill="#c6d0da" fill-rule="evenodd"/>
      </g>
      <g id="Grupo_84747" data-name="Grupo 84747">
        <path id="Trazado_122005" data-name="Trazado 122005" d="M19.558,22.9c-2.188.227-1.253,4.653-1.49,7.3l3.576,0a4.392,4.392,0,0,0,4.378-4.378c0-.117-.005-.234-.015-.349a4.6,4.6,0,0,0-2.863-3.7c-1.36-.2-1.62.932-3.586,1.136Z" fill="#c6d0da" fill-rule="evenodd"/>
      </g>
      <g id="Grupo_84748" data-name="Grupo 84748">
        <path id="Trazado_122006" data-name="Trazado 122006" d="M13.611,26.114c0,2.208,1.426,4.019,3.191,4.08h1.266c1.757-.071,3.176-1.88,3.176-4.08V23.427c-2.814-1.849-5.03-1.7-7.633.02Z" fill="#ffbc85" fill-rule="evenodd"/>
      </g>
      <g id="Grupo_84749" data-name="Grupo 84749">
        <path id="Trazado_122007" data-name="Trazado 122007" d="M11.711,21.761a10.34,10.34,0,0,0,1.9,1.686,8.748,8.748,0,0,0,1.961,1.016,6.235,6.235,0,0,0,1.834.4,6.218,6.218,0,0,0,1.834-.4,9.02,9.02,0,0,0,2-1.037,10.689,10.689,0,0,0,1.9-1.666,9.411,9.411,0,0,0,1.959-3.25l-4.429-1.635c-1.093-.4-2.134-1.1-3.268-1.019-.848.064-1.632.751-2.475,1.019L9.794,18.512a9.457,9.457,0,0,0,1.918,3.25Z" fill="#918291" fill-rule="evenodd"/>
      </g>
      <g id="Grupo_84750" data-name="Grupo 84750">
        <path id="Trazado_122008" data-name="Trazado 122008" d="M25.428,12.659C25.135,2.064,9.483,2.12,9.485,12.7v.479l8.356,1.37,7.587-1.37Z" fill="#918291" fill-rule="evenodd"/>
      </g>
      <g id="Grupo_84751" data-name="Grupo 84751">
        <path id="Trazado_122009" data-name="Trazado 122009" d="M17.406,17.493c1.133-.084,2.1,1.019,3.268,1.019H25.1c.066-.194.12-.387.166-.578a6.057,6.057,0,0,0,.16-1.363v-3.4H9.485v3.561a5.2,5.2,0,0,0,.145,1.2c.046.191.1.385.163.576H14.93C15.814,18.512,16.558,17.557,17.406,17.493Z" fill="#fed1a3" fill-rule="evenodd"/>
      </g>
      <g id="Grupo_84752" data-name="Grupo 84752">
        <path id="Trazado_122010" data-name="Trazado 122010" d="M17.245,4.738A7.7,7.7,0,0,1,23.192,12.4v.772h2.236v-.517a7.811,7.811,0,0,0-8.183-7.921Z" fill="#685d68" fill-rule="evenodd"/>
      </g>
      <g id="Grupo_84753" data-name="Grupo 84753">
        <path id="Trazado_122011" data-name="Trazado 122011" d="M23.192,14.289v2.025a6.059,6.059,0,0,1-.158,1.365l-.015.064c-.043.171-.092.341-.15.514-.028.084-.059.171-.089.255H25.1c.066-.194.12-.387.166-.578a6.056,6.056,0,0,0,.16-1.363v-3.4H23.192v1.113Z" fill="#ffbc85" fill-rule="evenodd"/>
      </g>
      <g id="Grupo_84754" data-name="Grupo 84754">
        <path id="Trazado_122012" data-name="Trazado 122012" d="M22.78,18.512a9.637,9.637,0,0,1-1.869,3,11.021,11.021,0,0,1-1.154,1.105c-.135.11-.275.219-.415.323-.11.081-.219.16-.331.237s-.244.163-.372.239a8.643,8.643,0,0,1-1.632.8,7.53,7.53,0,0,1-.919.275c-.1.02-.2.041-.293.059q.191.061.374.115a5.673,5.673,0,0,0,1.238.209,5.171,5.171,0,0,0,.754-.094,7.149,7.149,0,0,0,1.08-.308,9.02,9.02,0,0,0,2-1.037,10.689,10.689,0,0,0,1.9-1.666,9.411,9.411,0,0,0,1.959-3.25H22.78Z" fill="#685d68" fill-rule="evenodd"/>
      </g>
      <g id="Grupo_84755" data-name="Grupo 84755">
        <path id="Trazado_122013" data-name="Trazado 122013" d="M22.237,22.655a4.51,4.51,0,0,1,1.808,2.809c.018.1.033.214.041.321a3.165,3.165,0,0,1,.018.349,4.394,4.394,0,0,1-2.735,4.057h.275a4.392,4.392,0,0,0,4.378-4.378c0-.117-.005-.234-.015-.349a4.6,4.6,0,0,0-2.863-3.7,10.741,10.741,0,0,1-.907.894Z" fill="#a0aab7" fill-rule="evenodd"/>
      </g>
      <g id="Grupo_84756" data-name="Grupo 84756">
        <path id="Trazado_122014" data-name="Trazado 122014" d="M13.611,23.447v2.341c0,.95,4.381,1.859,6.054.762.138-.089.267-.015.26.3v1.194a4.9,4.9,0,0,1-.244,1.541,4.383,4.383,0,0,0,1.564-3.474V23.427a9.028,9.028,0,0,1-2,1.037,7.149,7.149,0,0,1-1.08.308,5.171,5.171,0,0,1-.754.094,5.668,5.668,0,0,1-1.238-.209q-.183-.054-.374-.115c-.074-.026-.148-.051-.222-.079a8.746,8.746,0,0,1-1.961-1.016Z" fill="#f5a96c" fill-rule="evenodd"/>
      </g>
      <g id="Grupo_84757" data-name="Grupo 84757">
        <path id="Trazado_122015" data-name="Trazado 122015" d="M36.953,15.305V32.917H40.5V15.305h-3.55Z" fill="#81a7c6" fill-rule="evenodd"/>
      </g>
      <g id="Grupo_84758" data-name="Grupo 84758">
        <path id="Trazado_122016" data-name="Trazado 122016" d="M40.5,32.917h-3.55V35.6a1.533,1.533,0,0,1-1.528,1.528h3.548A1.535,1.535,0,0,0,40.5,35.6Z" fill="#e5e1e5" fill-rule="evenodd"/>
      </g>
      <g id="Grupo_84759" data-name="Grupo 84759">
        <path id="Trazado_122017" data-name="Trazado 122017" d="M36.866,2.117a11.306,11.306,0,0,1,2.743,7.618v.191a12.021,12.021,0,0,1-1.319,5.379h5.677a1.383,1.383,0,0,0,1.182-2.048L42.036,7.868l-3.11-5.389A1.4,1.4,0,0,0,36.866,2.117Z" fill="#ffc250" fill-rule="evenodd"/>
      </g>
      <g id="Grupo_84760" data-name="Grupo 84760">
        <path id="Trazado_122018" data-name="Trazado 122018" d="M15.972,37.124v1.834h7.151c.762.1.853.377.853.627v1.072h1.78V37.124Z" fill="#a0aab7" fill-rule="evenodd"/>
      </g>
      <g id="Grupo_84761" data-name="Grupo 84761">
        <path id="Trazado_122019" data-name="Trazado 122019" d="M31.648,42.422a1.771,1.771,0,0,0-1.767-1.765H26.643a1.769,1.769,0,0,1,1.765,1.765v1.3a.466.466,0,0,1-.466.466h3.237a.468.468,0,0,0,.469-.466Z" fill="#e5e1e5" fill-rule="evenodd"/>
      </g>
      <g id="Grupo_84762" data-name="Grupo 84762">
        <path id="Trazado_122020" data-name="Trazado 122020" d="M20.607,16.506a.679.679,0,0,0,.145-.016l1.5-.329a.674.674,0,0,0-.288-1.316l-1.5.329a.674.674,0,0,0,.143,1.332Z"/>
        <path id="Trazado_122021" data-name="Trazado 122021" d="M12.971,16.162l1.5.329a.674.674,0,1,0,.288-1.316l-1.5-.329a.674.674,0,0,0-.288,1.316Z"/>
        <path id="Trazado_122022" data-name="Trazado 122022" d="M45.731,12.921,42.619,7.532,39.51,2.143h0a2.044,2.044,0,0,0-1.772-1h0a2.005,2.005,0,0,0-1.759,1L32.864,7.532l-.912,1.581H25.365a8.009,8.009,0,0,0-2.148-2.947,8.919,8.919,0,0,0-5.976-2.1,8.727,8.727,0,0,0-5.8,2.209A7.785,7.785,0,0,0,9.473,9.112H2.2a2.206,2.206,0,0,0-2.2,2.2V35.6a2.2,2.2,0,0,0,2.2,2.2H15.3v2.185H11.849a2.443,2.443,0,0,0-2.441,2.439v1.3a1.141,1.141,0,0,0,1.14,1.14H31.179a1.142,1.142,0,0,0,1.142-1.14v-1.3a2.443,2.443,0,0,0-2.441-2.439H26.431V37.8H38.972a2.206,2.206,0,0,0,2.2-2.2V15.979h2.79a2.041,2.041,0,0,0,1.753-1.033,2,2,0,0,0,.012-2.025Zm-35.572.929H16A.674.674,0,0,0,16,12.5H10.162a6.943,6.943,0,0,1,7.1-7.089h.112a7.146,7.146,0,0,1,6.892,4.573l.005.015a8.375,8.375,0,0,1,.48,2.5H18.891a.674.674,0,0,0,0,1.348h5.864v2.721a5.341,5.341,0,0,1-.143,1.209c0,.019-.01.039-.015.058H20.674a3.164,3.164,0,0,1-1.3-.447,3.862,3.862,0,0,0-2.019-.57,3.342,3.342,0,0,0-1.475.6,2.183,2.183,0,0,1-.95.418H10.3c0-.019-.01-.038-.015-.057a4.535,4.535,0,0,1-.127-1.044V13.85Zm8.851,9.98a5.6,5.6,0,0,1-1.6.361,5.6,5.6,0,0,1-1.6-.361,8.161,8.161,0,0,1-1.809-.938l-.009-.006a9.71,9.71,0,0,1-1.71-1.5.67.67,0,0,0-.124-.14,9.091,9.091,0,0,1-1.365-2.064h4.146a3.175,3.175,0,0,0,1.655-.617,2.362,2.362,0,0,1,.87-.4,2.809,2.809,0,0,1,1.315.43,4.248,4.248,0,0,0,1.9.59H24.1A9.694,9.694,0,0,1,19.011,23.83Zm6.337,1.983a3.708,3.708,0,0,1-3.7,3.7h-.923a5.249,5.249,0,0,0,1.2-3.4v-2.34a11.417,11.417,0,0,0,1.38-1.192,3.784,3.784,0,0,1,2.05,3.231Zm-4.778-1.2v1.5c0,1.81-1.147,3.345-2.524,3.406H16.828c-1.385-.046-2.543-1.587-2.543-3.407V24.631a8.779,8.779,0,0,0,1.058.466,6.849,6.849,0,0,0,2.03.442h.065a6.847,6.847,0,0,0,2.03-.442,9.149,9.149,0,0,0,1.1-.485Zm-6.433,4.91h-.967a3.71,3.71,0,0,1-3.7-3.707,3.849,3.849,0,0,1,2.091-3.237,11.234,11.234,0,0,0,1.38,1.208v2.326a5.25,5.25,0,0,0,1.2,3.408ZM1.348,11.317A.857.857,0,0,1,2.2,10.46H9.053A10.128,10.128,0,0,0,8.812,12.7h0v1.175H8.666a1.861,1.861,0,0,0-1.57.83,2.847,2.847,0,0,0-.456,1.605,2.654,2.654,0,0,0,2.469,2.878H9.32a9.991,9.991,0,0,0,1.343,2.354A5.164,5.164,0,0,0,8.13,25.514H7.614A4.05,4.05,0,0,0,3.568,29.56v2.683H1.348Zm7.57,6.5c-.678-.13-.931-.947-.931-1.512a1.523,1.523,0,0,1,.218-.84.516.516,0,0,1,.461-.247h.146v1.516a5.786,5.786,0,0,0,.106,1.083ZM29.88,41.33a1.094,1.094,0,0,1,1.094,1.091v1.091H10.755V42.421a1.094,1.094,0,0,1,1.094-1.091H29.88ZM16.646,39.982V37.8h8.437v2.185ZM39.829,35.6a.857.857,0,0,1-.857.854H2.2a.855.855,0,0,1-.854-.854V33.59H4.1a.667.667,0,0,0,.284,0h10.33a.674.674,0,1,0,0-1.348h-9.8V29.56a2.7,2.7,0,0,1,2.7-2.7h.615a5.061,5.061,0,0,0,4.943,4.009l3.649,0,.072,0h1.07l.1,0,3.586,0a5.06,5.06,0,0,0,4.948-4.032h.522a2.7,2.7,0,0,1,2.7,2.7v2.712H17.757a.674.674,0,0,0,0,1.348l22.071,0Zm0-3.353H31.157V29.532a4.049,4.049,0,0,0-4.043-4.046h-.431A5.159,5.159,0,0,0,24.2,21.55a9.906,9.906,0,0,0,1.372-2.364h.3a2.654,2.654,0,0,0,2.469-2.878,2.847,2.847,0,0,0-.456-1.605,1.861,1.861,0,0,0-1.57-.83H26.1V12.659s0-.006,0-.009,0-.006,0-.009a10.263,10.263,0,0,0-.288-2.18h5.361l-1.42,2.46a2.042,2.042,0,0,0,.018,2.036,2,2,0,0,0,1.747,1.023h8.309V32.243ZM25.978,17.832a6.619,6.619,0,0,0,.124-1.261V15.22h.212a.516.516,0,0,1,.461.247,1.523,1.523,0,0,1,.218.84c0,.588-.273,1.449-1.015,1.525Zm18.574-3.56a.682.682,0,0,1-.586.359H31.52a.67.67,0,0,1-.58-.349.682.682,0,0,1-.018-.688l3.109-5.389,3.112-5.389a.671.671,0,0,1,.593-.329h0a.685.685,0,0,1,.606.329l3.11,5.389,3.112,5.389a.671.671,0,0,1-.012.677Z"/>
        <path id="Trazado_122023" data-name="Trazado 122023" d="M37.744,5.542a.674.674,0,0,0-.674.674V10.14a.674.674,0,1,0,1.348,0V6.216A.674.674,0,0,0,37.744,5.542Z"/>
        <path id="Trazado_122024" data-name="Trazado 122024" d="M37.744,12.255a.674.674,0,0,0-.674.674v.033a.674.674,0,0,0,1.348,0v-.033A.674.674,0,0,0,37.744,12.255Z"/>
      </g>
    </g>
  </g>
</svg>
