<svg xmlns="http://www.w3.org/2000/svg" xmlns:xlink="http://www.w3.org/1999/xlink" width="46" height="46" viewBox="0 0 46 46">
  <defs>
    <clipPath id="clip-path">
      <rect id="Rectángulo_34604" data-name="Rectángulo 34604" width="46" height="46" transform="translate(1146 20986)" fill="#fff" stroke="#707070" stroke-width="1"/>
    </clipPath>
  </defs>
  <g id="Enmascarar_grupo_134" data-name="Enmascarar grupo 134" transform="translate(-1146 -20986)" clip-path="url(#clip-path)">
    <g id="monitor" transform="translate(1146 20986.092)">
      <path id="Trazado_122025" data-name="Trazado 122025" d="M19.393,29.344h7.2V41.331h-7.2Zm0,0" fill="#4172cc"/>
      <path id="Trazado_122026" data-name="Trazado 122026" d="M26.594,29.344v9.065H24.87a1.877,1.877,0,0,1-1.877-1.878V29.344Zm0,0" fill="#6990d7"/>
      <path id="Trazado_122027" data-name="Trazado 122027" d="M44.532,30.614H1.455a.78.78,0,0,1-.781-.78V1.55A.78.78,0,0,1,1.455.77H44.531a.78.78,0,0,1,.781.781V29.834a.78.78,0,0,1-.78.78Zm0,0" fill="#91aee2"/>
      <path id="Trazado_122028" data-name="Trazado 122028" d="M42.882,3.881V27.4a.45.45,0,0,1-.45.45H3.555a.45.45,0,0,1-.45-.45V3.881a.45.45,0,0,1,.45-.45H42.432a.45.45,0,0,1,.45.45Zm0,0" fill="#ffc14f"/>
      <path id="Trazado_122029" data-name="Trazado 122029" d="M42.882,3.881V25.466H6.371a.45.45,0,0,1-.45-.45V3.431H42.432a.45.45,0,0,1,.45.45Zm0,0" fill="#ffcd71"/>
      <path id="Trazado_122030" data-name="Trazado 122030" d="M37.35,44.218a.878.878,0,0,1-.878.879H9.514a.879.879,0,0,1-.878-.879,3.8,3.8,0,0,1,3.8-3.8H33.548a3.8,3.8,0,0,1,3.8,3.8Zm0,0" fill="#2e5aac"/>
      <path id="Trazado_122031" data-name="Trazado 122031" d="M37.35,44.218a.878.878,0,0,1-.878.879H12.457a3.811,3.811,0,0,1,3.582-2.521h20.94a3.772,3.772,0,0,1,.372,1.642Zm0,0" fill="#4172cc"/>
      <path id="Trazado_122032" data-name="Trazado 122032" d="M21.556,13.841V25.775a.3.3,0,0,1-.3.3H10.545a.3.3,0,0,1-.3-.3V13.841a.3.3,0,0,1,.3-.3H21.252a.3.3,0,0,1,.3.3Zm0,0" fill="#7d8287"/>
      <path id="Trazado_122033" data-name="Trazado 122033" d="M21.556,13.841V25.775a.3.3,0,0,1-.3.3H13.245a.3.3,0,0,1-.3-.3V13.841a.3.3,0,0,1,.3-.3h8.007a.3.3,0,0,1,.3.3Zm0,0" fill="#919196"/>
      <path id="Trazado_122034" data-name="Trazado 122034" d="M17.966,18.34a2.068,2.068,0,0,1-1.2,1.876v2.26a.869.869,0,1,1-1.738,0v-2.26a2.068,2.068,0,1,1,2.937-1.876Zm0,0" fill="#4b5055"/>
      <path id="Trazado_122035" data-name="Trazado 122035" d="M17.966,18.34a2.068,2.068,0,0,1-1.2,1.876v2.26a.869.869,0,0,1-.273.631.869.869,0,0,1-.273-.631v-2.26a2.068,2.068,0,0,1,.273-3.857,2.07,2.07,0,0,1,1.472,1.981Zm0,0" fill="#5a5f64"/>
      <path id="Trazado_122036" data-name="Trazado 122036" d="M22.384,5.191a4.2,4.2,0,0,0-4.2,4.2v4.147h1.624V9.444a2.611,2.611,0,0,1,2.5-2.629A2.578,2.578,0,0,1,24.96,9.39v3.335a.812.812,0,1,0,1.624,0V9.39a4.2,4.2,0,0,0-4.2-4.2Zm0,0" fill="#4b5055"/>
      <path id="Trazado_122037" data-name="Trazado 122037" d="M45.312,27.926A10.3,10.3,0,1,1,36.359,17.71a10.305,10.305,0,0,1,8.953,10.216Zm0,0" fill="#c42d2d"/>
      <path id="Trazado_122038" data-name="Trazado 122038" d="M45.312,27.926a10.305,10.305,0,0,1-8.953,10.216,10.305,10.305,0,0,1,0-20.433A10.306,10.306,0,0,1,45.312,27.926Zm0,0" fill="#f44545"/>
      <path id="Trazado_122039" data-name="Trazado 122039" d="M35,30.3a1.949,1.949,0,0,1-1.944-1.809l-.394-5.471a2.355,2.355,0,1,1,4.7.008l-.414,5.47A1.949,1.949,0,0,1,35,30.3Zm0,0" fill="#ffc14f"/>
      <path id="Trazado_122040" data-name="Trazado 122040" d="M36.549,33.818a1.541,1.541,0,1,1-1.541-1.541A1.54,1.54,0,0,1,36.549,33.818Zm0,0" fill="#ffc14f"/>
      <path id="Trazado_122041" data-name="Trazado 122041" d="M45.987,1.5A1.457,1.457,0,0,0,44.532.045H7.327a.69.69,0,0,0-.692.587A.675.675,0,0,0,7.3,1.4H44.532a.106.106,0,0,1,.105.105V22.655a11.032,11.032,0,0,0-1.08-1.611V3.881a1.125,1.125,0,0,0-1.125-1.125H3.555A1.125,1.125,0,0,0,2.43,3.881V27.4a1.125,1.125,0,0,0,1.125,1.125H24.045a11.029,11.029,0,0,0,.159,1.361H1.455a.106.106,0,0,1-.105-.105V1.5A.106.106,0,0,1,1.455,1.4H4.581A.69.69,0,0,0,5.274.808.676.676,0,0,0,4.6.045H1.455A1.457,1.457,0,0,0,0,1.5V29.783a1.456,1.456,0,0,0,1.455,1.455H18.718v8.5H15.976a.69.69,0,0,0-.692.587.676.676,0,0,0,.67.763H33.547a3.128,3.128,0,0,1,3.128,3.128.2.2,0,0,1-.2.2H9.514a.2.2,0,0,1-.2-.2,3.131,3.131,0,0,1,3.128-3.129h.785a.694.694,0,0,0,.7-.654.674.674,0,0,0-.675-.7H12.44a4.483,4.483,0,0,0-4.478,4.478,1.555,1.555,0,0,0,1.553,1.554H37.351a.675.675,0,0,0,.675-.675v-.879a4.478,4.478,0,0,0-4.478-4.478H27.269V35.707a10.986,10.986,0,0,0,18.35-4.957c.648-2.431.244-1.72.368-29.249ZM24.055,27.177H3.78V4.106H42.207V19.643a10.988,10.988,0,0,0-18.152,7.534ZM25.919,39.74H20.068v-8.5h4.471a10.945,10.945,0,0,0,1.38,2.841Zm9.09-2.185a9.629,9.629,0,1,1,7.2-16.017,9.622,9.622,0,0,1-7.2,16.017Zm0,0"/>
      <path id="Trazado_122042" data-name="Trazado 122042" d="M14.354,20.606v1.87a1.544,1.544,0,1,0,3.089,0v-1.87a2.743,2.743,0,1,0-3.089,0Zm1.545-3.66a1.394,1.394,0,0,1,.585,2.657.675.675,0,0,0-.391.612v2.26a.194.194,0,1,1-.388,0V20.216a.676.676,0,0,0-.391-.613A1.394,1.394,0,0,1,15.9,16.946Zm0,0"/>
      <path id="Trazado_122043" data-name="Trazado 122043" d="M27.258,9.39a4.874,4.874,0,1,0-9.748,0v3.472H10.545a.981.981,0,0,0-.98.979V25.775a.98.98,0,0,0,.98.979H21.252a.98.98,0,0,0,.979-.979V13.841a.98.98,0,0,0-.979-.979h-.768V9.444A1.942,1.942,0,0,1,22.328,7.49a1.9,1.9,0,0,1,1.956,1.9v3.335a1.487,1.487,0,0,0,2.974,0Zm-6.377,4.822V25.4H10.915V14.212Zm5.027-1.487a.137.137,0,1,1-.274,0V9.39a3.254,3.254,0,0,0-3.347-3.249,3.3,3.3,0,0,0-3.154,3.3v3.417H18.86V9.39a3.524,3.524,0,1,1,7.048,0v3.335Zm0,0"/>
      <path id="Trazado_122044" data-name="Trazado 122044" d="M32.789,20.784a3.041,3.041,0,0,0-.8,2.282c.033.462.344,4.768.393,5.462v.01a2.625,2.625,0,0,0,5.235.009l.414-5.469a3.035,3.035,0,0,0-5.24-2.293Zm3.893,2.191c0,.01-.411,5.476-.424,5.553a1.273,1.273,0,0,1-2.522,0c-.011-.067.019.312-.4-5.558a1.68,1.68,0,1,1,3.35.006Zm0,0"/>
      <path id="Trazado_122045" data-name="Trazado 122045" d="M35.009,31.6a2.216,2.216,0,1,0,2.215,2.216A2.219,2.219,0,0,0,35.009,31.6Zm0,3.082a.866.866,0,1,1,.865-.866A.867.867,0,0,1,35.009,34.684Zm0,0"/>
    </g>
  </g>
</svg>
