<svg xmlns="http://www.w3.org/2000/svg" width="630" height="202.594" viewBox="0 0 630 202.594">
  <g id="Grupo_84769" data-name="Grupo 84769" transform="translate(-790 -24056.406)">
    <path id="Rectángulo_33980" data-name="Rectángulo 33980" d="M0,0H539.5A80.5,80.5,0,0,1,620,80.5v0A80.5,80.5,0,0,1,539.5,161H0a0,0,0,0,1,0,0V0A0,0,0,0,1,0,0Z" transform="translate(800 24076)" fill="#b5e4eb"/>
    <path id="hacker-working-in-the-darkness" d="M258.97,237.981h84.045a90.186,90.186,0,0,1,96.548-58.761V97.414q-5.839-.4-11.779-.4A171.58,171.58,0,0,0,258.97,237.981Z" transform="translate(1027.981 23797.436) rotate(90)" fill="#daf1f5"/>
    <g id="Elipse_4779" data-name="Elipse 4779" transform="translate(1352 24201)" fill="none" stroke="#583ae2" stroke-width="15">
      <circle cx="29" cy="29" r="29" stroke="none"/>
      <circle cx="29" cy="29" r="21.5" fill="none"/>
    </g>
    <circle id="Elipse_4780" data-name="Elipse 4780" cx="9" cy="9" r="9" transform="translate(1402 24186)" fill="#40327b"/>
  </g>
</svg>
